M48
; DRILL file KiCad 10.0.5 date 2026-08-25T14:06:11
; FORMAT={-:-/ absolute / metric / decimal}
; #@! TF.CreationDate,2026-08-25T14:06:11+09:00
; #@! TF.GenerationSoftware,Kicad,Pcbnew,10.0.5
; #@! TF.FileFunction,MixedPlating,1,2
FMAT,2
METRIC
; #@! TA.AperFunction,Plated,PTH,ViaDrill
T1C0.300
; #@! TA.AperFunction,Plated,PTH,ComponentDrill
T2C0.300
; #@! TA.AperFunction,Plated,PTH,ViaDrill
T3C0.400
; #@! TA.AperFunction,Plated,PTH,ViaDrill
T4C0.500
; #@! TA.AperFunction,Plated,PTH,ComponentDrill
T5C0.600
; #@! TA.AperFunction,Plated,PTH,ComponentDrill
T6C1.000
; #@! TA.AperFunction,Plated,PTH,ComponentDrill
T7C1.400
; #@! TA.AperFunction,NonPlated,NPTH,ComponentDrill
T8C0.650
; #@! TA.AperFunction,NonPlated,NPTH,ComponentDrill
T9C3.200
%
G90
G05
T1
X28.078Y-46.427
X30.67Y-48.685
X32.147Y-44.482
X35.899Y-46.392
X46.053Y-39.65
T2
X15.06Y-33.8
X15.06Y-35.2
X15.76Y-33.1
X15.76Y-34.5
X15.76Y-35.9
X16.46Y-33.8
X16.46Y-35.2
X17.16Y-33.1
X17.16Y-34.5
X17.16Y-35.9
X17.86Y-33.8
X17.86Y-35.2
T3
X9.523Y-47.652
X11.535Y-40.393
X14.091Y-40.377
X17.886Y-40.392
X18.856Y-36.874
X18.99Y-40.393
X19.839Y-43.106
X20.17Y-40.356
X21.898Y-40.369
X24.415Y-40.393
X25.103Y-31.24
X25.12Y-25.621
X27.414Y-19.831
X28.718Y-29.828
X29.732Y-27.126
X30.543Y-33.8
X31.109Y-32.948
X31.517Y-34.953
X33.376Y-30.58
X34.448Y-45.449
X36.838Y-42.276
X39.181Y-39.65
X40.144Y-24.319
X41.33Y-36.959
X43.1Y-35.058
X43.328Y-16.653
X44.866Y-25.68
X45.018Y-16.693
X48.074Y-22.672
X49.017Y-28.916
X49.062Y-15.946
X49.332Y-42.707
X51.178Y-16.862
X52.886Y-40.687
X64.145Y-43.681
X67.5Y-45.892
X68.544Y-43.145
X74.144Y-45.319
T4
X15.638Y-45.75
X31.062Y-24.609
X34.809Y-32.93
X67.355Y-30.555
X73.003Y-7.295
X73.024Y-14.926
T6
X29.5Y-38.5
X32.04Y-38.5
X34.58Y-38.5
X41.0Y-52.0
X43.54Y-52.0
X46.08Y-52.0
X48.62Y-52.0
X52.5Y-52.0
X55.04Y-52.0
X57.58Y-52.0
X61.5Y-52.0
X64.04Y-52.0
X66.58Y-52.0
X70.5Y-52.0
X73.04Y-52.0
X75.58Y-52.0
X79.3Y-52.0
X81.84Y-52.0
X84.38Y-52.0
X85.0Y-20.0
X85.0Y-22.54
X85.0Y-25.08
X85.0Y-27.62
X85.0Y-30.16
X85.0Y-32.7
X85.0Y-35.24
X85.0Y-37.78
X86.92Y-52.0
T7
X19.8Y-6.0
X19.8Y-11.5
X24.0Y-6.0
X24.0Y-11.5
X28.2Y-6.0
X28.2Y-11.5
X32.4Y-6.0
X32.4Y-11.5
X36.6Y-6.0
X36.6Y-11.5
X40.8Y-6.0
X40.8Y-11.5
X45.0Y-6.0
X45.0Y-11.5
X49.2Y-6.0
X49.2Y-11.5
X53.4Y-6.0
X53.4Y-11.5
X57.6Y-6.0
X57.6Y-11.5
X61.8Y-6.0
X61.8Y-11.5
X66.0Y-6.0
X66.0Y-11.5
T8
X29.11Y-48.9
X34.89Y-48.9
T9
X3.5Y-47.5
X4.0Y-4.5
X85.5Y-4.5
X86.5Y-45.0
T5
X27.68Y-47.82G85X27.68Y-48.92
G05
X27.68Y-52.25G85X27.68Y-52.85
G05
X36.32Y-47.82G85X36.32Y-48.92
G05
X36.32Y-52.25G85X36.32Y-52.85
G05
M30
