G04 #@! TF.GenerationSoftware,KiCad,Pcbnew,10.0.5*
G04 #@! TF.CreationDate,2026-08-25T14:06:11+09:00*
G04 #@! TF.ProjectId,bc250-front-pcba,62633235-302d-4667-926f-6e742d706362,1.0*
G04 #@! TF.SameCoordinates,Original*
G04 #@! TF.FileFunction,Soldermask,Top*
G04 #@! TF.FilePolarity,Negative*
%FSLAX46Y46*%
G04 Gerber Fmt 4.6, Leading zero omitted, Abs format (unit mm)*
G04 Created by KiCad (PCBNEW 10.0.5) date 2026-08-25 14:06:11*
%MOMM*%
%LPD*%
G01*
G04 APERTURE LIST*
G04 Aperture macros list*
%AMRoundRect*
0 Rectangle with rounded corners*
0 $1 Rounding radius*
0 $2 $3 $4 $5 $6 $7 $8 $9 X,Y pos of 4 corners*
0 Add a 4 corners polygon primitive as box body*
4,1,4,$2,$3,$4,$5,$6,$7,$8,$9,$2,$3,0*
0 Add four circle primitives for the rounded corners*
1,1,$1+$1,$2,$3*
1,1,$1+$1,$4,$5*
1,1,$1+$1,$6,$7*
1,1,$1+$1,$8,$9*
0 Add four rect primitives between the rounded corners*
20,1,$1+$1,$2,$3,$4,$5,0*
20,1,$1+$1,$4,$5,$6,$7,0*
20,1,$1+$1,$6,$7,$8,$9,0*
20,1,$1+$1,$8,$9,$2,$3,0*%
G04 Aperture macros list end*
%ADD10RoundRect,0.250000X-0.250000X-0.475000X0.250000X-0.475000X0.250000X0.475000X-0.250000X0.475000X0*%
%ADD11RoundRect,0.160000X-0.390000X-0.240000X0.390000X-0.240000X0.390000X0.240000X-0.390000X0.240000X0*%
%ADD12RoundRect,0.200000X-0.200000X-0.275000X0.200000X-0.275000X0.200000X0.275000X-0.200000X0.275000X0*%
%ADD13RoundRect,0.090000X-0.660000X-0.360000X0.660000X-0.360000X0.660000X0.360000X-0.660000X0.360000X0*%
%ADD14C,3.200000*%
%ADD15RoundRect,0.225000X-0.225000X-0.250000X0.225000X-0.250000X0.225000X0.250000X-0.225000X0.250000X0*%
%ADD16RoundRect,0.375000X-0.625000X-0.375000X0.625000X-0.375000X0.625000X0.375000X-0.625000X0.375000X0*%
%ADD17RoundRect,0.500000X-0.500000X-1.400000X0.500000X-1.400000X0.500000X1.400000X-0.500000X1.400000X0*%
%ADD18R,1.700000X1.700000*%
%ADD19C,1.700000*%
%ADD20R,1.000000X1.500000*%
%ADD21RoundRect,0.250001X1.099999X1.399999X-1.099999X1.399999X-1.099999X-1.399999X1.099999X-1.399999X0*%
%ADD22O,2.700000X3.300000*%
%ADD23C,0.650000*%
%ADD24RoundRect,0.150000X-0.150000X-0.575000X0.150000X-0.575000X0.150000X0.575000X-0.150000X0.575000X0*%
%ADD25RoundRect,0.075000X-0.075000X-0.650000X0.075000X-0.650000X0.075000X0.650000X-0.075000X0.650000X0*%
%ADD26O,1.000000X2.100000*%
%ADD27O,1.000000X1.600000*%
%ADD28R,0.900000X1.500000*%
%ADD29R,1.500000X0.900000*%
%ADD30C,0.600000*%
%ADD31R,3.900000X3.900000*%
%ADD32RoundRect,0.225000X-0.225000X-0.375000X0.225000X-0.375000X0.225000X0.375000X-0.225000X0.375000X0*%
%ADD33RoundRect,0.150000X-0.587500X-0.150000X0.587500X-0.150000X0.587500X0.150000X-0.587500X0.150000X0*%
G04 APERTURE END LIST*
G36*
X66700000Y-43750000D02*
G01*
X68300000Y-43750000D01*
X68300000Y-45250000D01*
X66700000Y-45250000D01*
X66700000Y-43750000D01*
G37*
D10*
X76050000Y-16000000D03*
X77950000Y-16000000D03*
D11*
X29000000Y-21150000D03*
X35000000Y-21150000D03*
X29000000Y-24850000D03*
X35000000Y-24850000D03*
D12*
X38375000Y-49200000D03*
X40025000Y-49200000D03*
D13*
X63550000Y-28350000D03*
X63550000Y-31650000D03*
X68450000Y-31650000D03*
X68450000Y-28350000D03*
D14*
X4000000Y-4500000D03*
D12*
X39675000Y-20500000D03*
X41325000Y-20500000D03*
D15*
X12725000Y-48500000D03*
X14275000Y-48500000D03*
X8725000Y-45500000D03*
X10275000Y-45500000D03*
D10*
X12550000Y-45500000D03*
X14450000Y-45500000D03*
D11*
X29000000Y-28150000D03*
X35000000Y-28150000D03*
X29000000Y-31850000D03*
X35000000Y-31850000D03*
D14*
X85500000Y-4500000D03*
D16*
X71350000Y-7700000D03*
X71350000Y-10000000D03*
D17*
X77650000Y-10000000D03*
D16*
X71350000Y-12300000D03*
D12*
X71675000Y-44500000D03*
X73325000Y-44500000D03*
D18*
X85000000Y-20000000D03*
D19*
X85000000Y-22540000D03*
X85000000Y-25080000D03*
X85000000Y-27620000D03*
X85000000Y-30160000D03*
X85000000Y-32700000D03*
X85000000Y-35240000D03*
X85000000Y-37780000D03*
D20*
X66200000Y-44500000D03*
X67500000Y-44500000D03*
X68800000Y-44500000D03*
D12*
X44175000Y-17500000D03*
X45825000Y-17500000D03*
D14*
X86500000Y-45000000D03*
D12*
X37675000Y-23500000D03*
X39325000Y-23500000D03*
D11*
X53000000Y-39650000D03*
X59000000Y-39650000D03*
X53000000Y-43350000D03*
X59000000Y-43350000D03*
X37000000Y-39650000D03*
X43000000Y-39650000D03*
X37000000Y-43350000D03*
X43000000Y-43350000D03*
D18*
X52500000Y-52000000D03*
D19*
X55040000Y-52000000D03*
X57580000Y-52000000D03*
D14*
X3500000Y-47500000D03*
D12*
X38375000Y-46600000D03*
X40025000Y-46600000D03*
X8675000Y-48500000D03*
X10325000Y-48500000D03*
D18*
X70500000Y-52000000D03*
D19*
X73040000Y-52000000D03*
X75580000Y-52000000D03*
D21*
X66000000Y-11500000D03*
D22*
X61800000Y-11500000D03*
X57600000Y-11500000D03*
X53400000Y-11500000D03*
X49200000Y-11500000D03*
X45000000Y-11500000D03*
X40800000Y-11500000D03*
X36600000Y-11500000D03*
X32400000Y-11500000D03*
X28200000Y-11500000D03*
X24000000Y-11500000D03*
X19800000Y-11500000D03*
X66000000Y-6000000D03*
X61800000Y-6000000D03*
X57600000Y-6000000D03*
X53400000Y-6000000D03*
X49200000Y-6000000D03*
X45000000Y-6000000D03*
X40800000Y-6000000D03*
X36600000Y-6000000D03*
X32400000Y-6000000D03*
X28200000Y-6000000D03*
X24000000Y-6000000D03*
X19800000Y-6000000D03*
D12*
X61675000Y-44500000D03*
X63325000Y-44500000D03*
D18*
X61500000Y-52000000D03*
D19*
X64040000Y-52000000D03*
X66580000Y-52000000D03*
D23*
X29110000Y-48900000D03*
X34890000Y-48900000D03*
D24*
X28750000Y-47455000D03*
X29550000Y-47455000D03*
D25*
X30750000Y-47455000D03*
X31750000Y-47455000D03*
X32250000Y-47455000D03*
X33250000Y-47455000D03*
D24*
X34450000Y-47455000D03*
X35250000Y-47455000D03*
X35250000Y-47455000D03*
X34450000Y-47455000D03*
D25*
X33750000Y-47455000D03*
X32750000Y-47455000D03*
X31250000Y-47455000D03*
X30250000Y-47455000D03*
D24*
X29550000Y-47455000D03*
X28750000Y-47455000D03*
D26*
X27680000Y-48370000D03*
D27*
X27680000Y-52550000D03*
D26*
X36320000Y-48370000D03*
D27*
X36320000Y-52550000D03*
D18*
X41000000Y-52000000D03*
D19*
X43540000Y-52000000D03*
X46080000Y-52000000D03*
X48620000Y-52000000D03*
D28*
X8740000Y-41750000D03*
X10010000Y-41750000D03*
X11280000Y-41750000D03*
X12550000Y-41750000D03*
X13820000Y-41750000D03*
X15090000Y-41750000D03*
X16360000Y-41750000D03*
X17630000Y-41750000D03*
X18900000Y-41750000D03*
X20170000Y-41750000D03*
X21440000Y-41750000D03*
X22710000Y-41750000D03*
X23980000Y-41750000D03*
X25250000Y-41750000D03*
D29*
X26500000Y-39985000D03*
X26500000Y-38715000D03*
X26500000Y-37445000D03*
X26500000Y-36175000D03*
X26500000Y-34905000D03*
X26500000Y-33635000D03*
X26500000Y-32365000D03*
X26500000Y-31095000D03*
X26500000Y-29825000D03*
X26500000Y-28555000D03*
X26500000Y-27285000D03*
X26500000Y-26015000D03*
D28*
X25250000Y-24250000D03*
X23980000Y-24250000D03*
X22710000Y-24250000D03*
X21440000Y-24250000D03*
X20170000Y-24250000D03*
X18900000Y-24250000D03*
X17630000Y-24250000D03*
X16360000Y-24250000D03*
X15090000Y-24250000D03*
X13820000Y-24250000D03*
X12550000Y-24250000D03*
X11280000Y-24250000D03*
X10010000Y-24250000D03*
X8740000Y-24250000D03*
D30*
X15760000Y-35900000D03*
X17160000Y-35900000D03*
X15060000Y-35200000D03*
X16460000Y-35200000D03*
X17860000Y-35200000D03*
X15760000Y-34500000D03*
D31*
X16460000Y-34500000D03*
D30*
X17160000Y-34500000D03*
X15060000Y-33800000D03*
X16460000Y-33800000D03*
X17860000Y-33800000D03*
X15760000Y-33100000D03*
X17160000Y-33100000D03*
D11*
X45000000Y-39650000D03*
X51000000Y-39650000D03*
X45000000Y-43350000D03*
X51000000Y-43350000D03*
D32*
X29850000Y-43600000D03*
X33150000Y-43600000D03*
D10*
X70050000Y-16000000D03*
X71950000Y-16000000D03*
D18*
X29500000Y-38500000D03*
D19*
X32040000Y-38500000D03*
X34580000Y-38500000D03*
D12*
X39675000Y-17500000D03*
X41325000Y-17500000D03*
D33*
X49062500Y-16850000D03*
X49062500Y-18750000D03*
X50937500Y-17800000D03*
D32*
X64350000Y-23500000D03*
X67650000Y-23500000D03*
D18*
X79300000Y-52000000D03*
D19*
X81840000Y-52000000D03*
X84380000Y-52000000D03*
X86920000Y-52000000D03*
D15*
X70725000Y-30000000D03*
X72275000Y-30000000D03*
M02*
