G04 #@! TF.GenerationSoftware,KiCad,Pcbnew,10.0.5*
G04 #@! TF.CreationDate,2026-08-25T14:06:11+09:00*
G04 #@! TF.ProjectId,bc250-front-pcba,62633235-302d-4667-926f-6e742d706362,1.0*
G04 #@! TF.SameCoordinates,Original*
G04 #@! TF.FileFunction,Soldermask,Bot*
G04 #@! TF.FilePolarity,Negative*
%FSLAX46Y46*%
G04 Gerber Fmt 4.6, Leading zero omitted, Abs format (unit mm)*
G04 Created by KiCad (PCBNEW 10.0.5) date 2026-08-25 14:06:11*
%MOMM*%
%LPD*%
G01*
G04 APERTURE LIST*
G04 Aperture macros list*
%AMRoundRect*
0 Rectangle with rounded corners*
0 $1 Rounding radius*
0 $2 $3 $4 $5 $6 $7 $8 $9 X,Y pos of 4 corners*
0 Add a 4 corners polygon primitive as box body*
4,1,4,$2,$3,$4,$5,$6,$7,$8,$9,$2,$3,0*
0 Add four circle primitives for the rounded corners*
1,1,$1+$1,$2,$3*
1,1,$1+$1,$4,$5*
1,1,$1+$1,$6,$7*
1,1,$1+$1,$8,$9*
0 Add four rect primitives between the rounded corners*
20,1,$1+$1,$2,$3,$4,$5,0*
20,1,$1+$1,$4,$5,$6,$7,0*
20,1,$1+$1,$6,$7,$8,$9,0*
20,1,$1+$1,$8,$9,$2,$3,0*%
G04 Aperture macros list end*
%ADD10C,3.200000*%
%ADD11R,1.700000X1.700000*%
%ADD12C,1.700000*%
%ADD13RoundRect,0.250001X1.099999X1.399999X-1.099999X1.399999X-1.099999X-1.399999X1.099999X-1.399999X0*%
%ADD14O,2.700000X3.300000*%
%ADD15C,0.650000*%
%ADD16O,1.000000X2.100000*%
%ADD17O,1.000000X1.600000*%
G04 APERTURE END LIST*
D10*
X4000000Y-4500000D03*
X85500000Y-4500000D03*
D11*
X85000000Y-20000000D03*
D12*
X85000000Y-22540000D03*
X85000000Y-25080000D03*
X85000000Y-27620000D03*
X85000000Y-30160000D03*
X85000000Y-32700000D03*
X85000000Y-35240000D03*
X85000000Y-37780000D03*
D10*
X86500000Y-45000000D03*
D11*
X52500000Y-52000000D03*
D12*
X55040000Y-52000000D03*
X57580000Y-52000000D03*
D10*
X3500000Y-47500000D03*
D11*
X70500000Y-52000000D03*
D12*
X73040000Y-52000000D03*
X75580000Y-52000000D03*
D13*
X66000000Y-11500000D03*
D14*
X61800000Y-11500000D03*
X57600000Y-11500000D03*
X53400000Y-11500000D03*
X49200000Y-11500000D03*
X45000000Y-11500000D03*
X40800000Y-11500000D03*
X36600000Y-11500000D03*
X32400000Y-11500000D03*
X28200000Y-11500000D03*
X24000000Y-11500000D03*
X19800000Y-11500000D03*
X66000000Y-6000000D03*
X61800000Y-6000000D03*
X57600000Y-6000000D03*
X53400000Y-6000000D03*
X49200000Y-6000000D03*
X45000000Y-6000000D03*
X40800000Y-6000000D03*
X36600000Y-6000000D03*
X32400000Y-6000000D03*
X28200000Y-6000000D03*
X24000000Y-6000000D03*
X19800000Y-6000000D03*
D11*
X61500000Y-52000000D03*
D12*
X64040000Y-52000000D03*
X66580000Y-52000000D03*
D15*
X29110000Y-48900000D03*
X34890000Y-48900000D03*
D16*
X27680000Y-48370000D03*
D17*
X27680000Y-52550000D03*
D16*
X36320000Y-48370000D03*
D17*
X36320000Y-52550000D03*
D11*
X41000000Y-52000000D03*
D12*
X43540000Y-52000000D03*
X46080000Y-52000000D03*
X48620000Y-52000000D03*
D11*
X29500000Y-38500000D03*
D12*
X32040000Y-38500000D03*
X34580000Y-38500000D03*
D11*
X79300000Y-52000000D03*
D12*
X81840000Y-52000000D03*
X84380000Y-52000000D03*
X86920000Y-52000000D03*
M02*
