M48
; DRILL file KiCad 10.0.5 date 2026-08-26T16:38:24
; FORMAT={-:-/ absolute / metric / decimal}
; #@! TF.CreationDate,2026-08-26T16:38:24+09:00
; #@! TF.GenerationSoftware,Kicad,Pcbnew,10.0.5
; #@! TF.FileFunction,MixedPlating,1,2
FMAT,2
METRIC
; #@! TA.AperFunction,Plated,PTH,ViaDrill
T1C0.400
; #@! TA.AperFunction,Plated,PTH,ViaDrill
T2C0.500
; #@! TA.AperFunction,Plated,PTH,ComponentDrill
T3C1.000
; #@! TA.AperFunction,Plated,PTH,ComponentDrill
T4C1.400
; #@! TA.AperFunction,NonPlated,NPTH,ComponentDrill
T5C3.200
%
G90
G05
T1
X15.072Y-31.139
X20.09Y-22.688
X44.131Y-23.694
X46.675Y-23.388
X53.938Y-24.556
X54.644Y-29.681
T2
X14.467Y-24.517
X18.762Y-28.856
X49.181Y-28.856
X62.0Y-26.45
T3
X3.0Y-3.6
X4.0Y-46.5
X5.54Y-3.6
X6.54Y-46.5
X8.08Y-3.6
X8.66Y-17.3
X8.66Y-40.16
X9.08Y-46.5
X10.62Y-3.6
X11.2Y-17.3
X11.2Y-40.16
X11.62Y-46.5
X13.74Y-17.3
X13.74Y-40.16
X15.5Y-46.5
X16.28Y-17.3
X16.28Y-40.16
X18.04Y-46.5
X18.82Y-17.3
X18.82Y-40.16
X20.58Y-46.5
X21.36Y-17.3
X21.36Y-40.16
X23.9Y-17.3
X23.9Y-40.16
X24.5Y-46.5
X26.44Y-17.3
X26.44Y-40.16
X27.04Y-46.5
X28.98Y-17.3
X28.98Y-40.16
X29.58Y-46.5
X31.52Y-17.3
X31.52Y-40.16
X33.5Y-46.5
X34.06Y-17.3
X34.06Y-40.16
X36.04Y-46.5
X36.6Y-17.3
X36.6Y-40.16
X38.58Y-46.5
X39.14Y-17.3
X39.14Y-40.16
X41.68Y-17.3
X41.68Y-40.16
X43.0Y-46.5
X44.22Y-17.3
X44.22Y-40.16
X45.54Y-46.5
X46.76Y-17.3
X46.76Y-40.16
X48.08Y-46.5
X49.3Y-17.3
X49.3Y-40.16
X50.62Y-46.5
X51.84Y-17.3
X51.84Y-40.16
X53.16Y-46.5
X54.38Y-17.3
X54.38Y-40.16
X55.7Y-46.5
X56.92Y-17.3
X56.92Y-40.16
X58.24Y-46.5
X59.46Y-17.3
X59.46Y-40.16
X60.78Y-46.5
X62.0Y-17.3
X62.0Y-40.16
T4
X16.3Y-5.5
X16.3Y-11.0
X20.5Y-5.5
X20.5Y-11.0
X24.7Y-5.5
X24.7Y-11.0
X28.9Y-5.5
X28.9Y-11.0
X33.1Y-5.5
X33.1Y-11.0
X37.3Y-5.5
X37.3Y-11.0
X41.5Y-5.5
X41.5Y-11.0
X45.7Y-5.5
X45.7Y-11.0
X49.9Y-5.5
X49.9Y-11.0
X54.1Y-5.5
X54.1Y-11.0
X58.3Y-5.5
X58.3Y-11.0
X62.5Y-5.5
X62.5Y-11.0
T5
X7.0Y-28.5
X38.0Y-29.0
M30
