G04 #@! TF.GenerationSoftware,KiCad,Pcbnew,10.0.5*
G04 #@! TF.CreationDate,2026-08-26T16:38:23+09:00*
G04 #@! TF.ProjectId,bc250-front-mini,62633235-302d-4667-926f-6e742d6d696e,1.0*
G04 #@! TF.SameCoordinates,Original*
G04 #@! TF.FileFunction,Copper,L2,Bot*
G04 #@! TF.FilePolarity,Positive*
%FSLAX46Y46*%
G04 Gerber Fmt 4.6, Leading zero omitted, Abs format (unit mm)*
G04 Created by KiCad (PCBNEW 10.0.5) date 2026-08-26 16:38:23*
%MOMM*%
%LPD*%
G01*
G04 APERTURE LIST*
G04 Aperture macros list*
%AMRoundRect*
0 Rectangle with rounded corners*
0 $1 Rounding radius*
0 $2 $3 $4 $5 $6 $7 $8 $9 X,Y pos of 4 corners*
0 Add a 4 corners polygon primitive as box body*
4,1,4,$2,$3,$4,$5,$6,$7,$8,$9,$2,$3,0*
0 Add four circle primitives for the rounded corners*
1,1,$1+$1,$2,$3*
1,1,$1+$1,$4,$5*
1,1,$1+$1,$6,$7*
1,1,$1+$1,$8,$9*
0 Add four rect primitives between the rounded corners*
20,1,$1+$1,$2,$3,$4,$5,0*
20,1,$1+$1,$4,$5,$6,$7,0*
20,1,$1+$1,$6,$7,$8,$9,0*
20,1,$1+$1,$8,$9,$2,$3,0*%
G04 Aperture macros list end*
G04 #@! TA.AperFunction,ComponentPad*
%ADD10R,1.700000X1.700000*%
G04 #@! TD*
G04 #@! TA.AperFunction,ComponentPad*
%ADD11C,1.700000*%
G04 #@! TD*
G04 #@! TA.AperFunction,ComponentPad*
%ADD12RoundRect,0.250001X1.099999X1.399999X-1.099999X1.399999X-1.099999X-1.399999X1.099999X-1.399999X0*%
G04 #@! TD*
G04 #@! TA.AperFunction,ComponentPad*
%ADD13O,2.700000X3.300000*%
G04 #@! TD*
G04 #@! TA.AperFunction,ComponentPad*
%ADD14O,1.700000X1.700000*%
G04 #@! TD*
G04 #@! TA.AperFunction,ViaPad*
%ADD15C,0.900000*%
G04 #@! TD*
G04 #@! TA.AperFunction,ViaPad*
%ADD16C,0.800000*%
G04 #@! TD*
G04 #@! TA.AperFunction,Conductor*
%ADD17C,0.700000*%
G04 #@! TD*
G04 #@! TA.AperFunction,Conductor*
%ADD18C,0.300000*%
G04 #@! TD*
G04 APERTURE END LIST*
D10*
X3000000Y-3600000D03*
D11*
X5540000Y-3600000D03*
X8080000Y-3600000D03*
X10620000Y-3600000D03*
D10*
X33500000Y-46500000D03*
D11*
X36040000Y-46500000D03*
X38580000Y-46500000D03*
D10*
X4000000Y-46500000D03*
D11*
X6540000Y-46500000D03*
X9080000Y-46500000D03*
X11620000Y-46500000D03*
D12*
X62500000Y-11000000D03*
D13*
X58300000Y-11000000D03*
X54100000Y-11000000D03*
X49900000Y-11000000D03*
X45700000Y-11000000D03*
X41500000Y-11000000D03*
X37300000Y-11000000D03*
X33100000Y-11000000D03*
X28900000Y-11000000D03*
X24700000Y-11000000D03*
X20500000Y-11000000D03*
X16300000Y-11000000D03*
X62500000Y-5500000D03*
X58300000Y-5500000D03*
X54100000Y-5500000D03*
X49900000Y-5500000D03*
X45700000Y-5500000D03*
X41500000Y-5500000D03*
X37300000Y-5500000D03*
X33100000Y-5500000D03*
X28900000Y-5500000D03*
X24700000Y-5500000D03*
X20500000Y-5500000D03*
X16300000Y-5500000D03*
D10*
X15500000Y-46500000D03*
D11*
X18040000Y-46500000D03*
X20580000Y-46500000D03*
D10*
X62000000Y-17300000D03*
D14*
X59460000Y-17300000D03*
X56920000Y-17300000D03*
X54380000Y-17300000D03*
X51840000Y-17300000D03*
X49300000Y-17300000D03*
X46760000Y-17300000D03*
X44220000Y-17300000D03*
X41680000Y-17300000D03*
X39140000Y-17300000D03*
X36600000Y-17300000D03*
X34060000Y-17300000D03*
X31520000Y-17300000D03*
X28980000Y-17300000D03*
X26440000Y-17300000D03*
X23900000Y-17300000D03*
X21360000Y-17300000D03*
X18820000Y-17300000D03*
X16280000Y-17300000D03*
X13740000Y-17300000D03*
X11200000Y-17300000D03*
X8660000Y-17300000D03*
X8660000Y-40160000D03*
X11200000Y-40160000D03*
X13740000Y-40160000D03*
X16280000Y-40160000D03*
X18820000Y-40160000D03*
X21360000Y-40160000D03*
X23900000Y-40160000D03*
X26440000Y-40160000D03*
X28980000Y-40160000D03*
X31520000Y-40160000D03*
X34060000Y-40160000D03*
X36600000Y-40160000D03*
X39140000Y-40160000D03*
X41680000Y-40160000D03*
X44220000Y-40160000D03*
X46760000Y-40160000D03*
X49300000Y-40160000D03*
X51840000Y-40160000D03*
X54380000Y-40160000D03*
X56920000Y-40160000D03*
X59460000Y-40160000D03*
X62000000Y-40160000D03*
D10*
X24500000Y-46500000D03*
D11*
X27040000Y-46500000D03*
X29580000Y-46500000D03*
D10*
X43000000Y-46500000D03*
D11*
X45540000Y-46500000D03*
X48080000Y-46500000D03*
X50620000Y-46500000D03*
X53160000Y-46500000D03*
X55700000Y-46500000D03*
X58240000Y-46500000D03*
X60780000Y-46500000D03*
D15*
X14466700Y-24516700D03*
X49180700Y-28855700D03*
X18762400Y-28855800D03*
X62000000Y-26450000D03*
D16*
X20089900Y-22688100D03*
X54644400Y-29680600D03*
X44131500Y-23693500D03*
X46675000Y-23388200D03*
X53937500Y-24555700D03*
X15072500Y-31139500D03*
D17*
X32098300Y-46500000D02*
X30674900Y-45076600D01*
X54100000Y-5500000D02*
X54100000Y-11000000D01*
X11620000Y-41981700D02*
X11200000Y-41561700D01*
X11200000Y-40160000D02*
X11200000Y-41561700D01*
X62000000Y-40160000D02*
X62000000Y-26450000D01*
X3000000Y-10238300D02*
X8660000Y-15898300D01*
X37300000Y-11000000D02*
X37300000Y-5500000D01*
X14466700Y-24516700D02*
X11200000Y-27783400D01*
X30674900Y-45076600D02*
X25923400Y-45076600D01*
X25923400Y-45076600D02*
X24500000Y-46500000D01*
X14466700Y-24516700D02*
X8660000Y-18710000D01*
X11620000Y-46500000D02*
X11620000Y-41981700D01*
X45700000Y-5500000D02*
X45700000Y-11000000D01*
X11200000Y-27783400D02*
X11200000Y-40160000D01*
X3000000Y-3600000D02*
X3000000Y-10238300D01*
X8660000Y-17300000D02*
X8660000Y-15898300D01*
X33500000Y-46500000D02*
X32098300Y-46500000D01*
X18762400Y-28812400D02*
X18762400Y-28855800D01*
X14466700Y-24516700D02*
X18762400Y-28812400D01*
X8660000Y-18710000D02*
X8660000Y-17300000D01*
D18*
X13257200Y-18535600D02*
X14207100Y-18535600D01*
X12470000Y-7990000D02*
X12470000Y-17748400D01*
X15768100Y-16056100D02*
X19287900Y-16056100D01*
X19287900Y-16056100D02*
X20089900Y-16858100D01*
X12470000Y-17748400D02*
X13257200Y-18535600D01*
X14207100Y-18535600D02*
X15010000Y-17732700D01*
X20089900Y-16858100D02*
X20089900Y-22688100D01*
X8080000Y-3600000D02*
X12470000Y-7990000D01*
X15010000Y-16814200D02*
X15768100Y-16056100D01*
X15010000Y-17732700D02*
X15010000Y-16814200D01*
X11643900Y-3600000D02*
X18400000Y-10356100D01*
X22874200Y-16098300D02*
X23900000Y-16098300D01*
X18400000Y-11624100D02*
X22874200Y-16098300D01*
X18400000Y-10356100D02*
X18400000Y-11624100D01*
X10620000Y-3600000D02*
X11643900Y-3600000D01*
X23900000Y-17300000D02*
X23900000Y-16098300D01*
X28279300Y-47739300D02*
X27040000Y-46500000D01*
X36040000Y-46500000D02*
X34800700Y-47739300D01*
X34800700Y-47739300D02*
X28279300Y-47739300D01*
X46748200Y-26310200D02*
X51274000Y-26310200D01*
X44131500Y-23693500D02*
X46748200Y-26310200D01*
X51274000Y-26310200D02*
X54644400Y-29680600D01*
X17550000Y-32228400D02*
X20066000Y-29712400D01*
X16770000Y-43814100D02*
X17550000Y-43034100D01*
X16770000Y-47437100D02*
X16770000Y-43814100D01*
X6540000Y-46500000D02*
X8342400Y-48302400D01*
X8342400Y-48302400D02*
X15904700Y-48302400D01*
X20066000Y-24143200D02*
X18820000Y-22897200D01*
X20066000Y-29712400D02*
X20066000Y-24143200D01*
X15904700Y-48302400D02*
X16770000Y-47437100D01*
X17550000Y-43034100D02*
X17550000Y-32228400D01*
X18820000Y-22897200D02*
X18820000Y-17300000D01*
X12865000Y-46993500D02*
X12084900Y-47773600D01*
X16280000Y-17300000D02*
X16280000Y-21098800D01*
X19158700Y-29702600D02*
X15446300Y-29702600D01*
X19564200Y-24383000D02*
X19564200Y-29297100D01*
X19564200Y-29297100D02*
X19158700Y-29702600D01*
X16280000Y-21098800D02*
X19564200Y-24383000D01*
X15446300Y-29702600D02*
X12470000Y-32678900D01*
X12470000Y-32678900D02*
X12470000Y-45650500D01*
X12084900Y-47773600D02*
X10353600Y-47773600D01*
X10353600Y-47773600D02*
X9080000Y-46500000D01*
X12865000Y-46045500D02*
X12865000Y-46993500D01*
X12470000Y-45650500D02*
X12865000Y-46045500D01*
X42950000Y-19663200D02*
X42950000Y-16811700D01*
X40441900Y-14303600D02*
X37854000Y-14303600D01*
X33100000Y-11000000D02*
X34801700Y-11000000D01*
X37854000Y-14303600D02*
X34801700Y-11251300D01*
X46675000Y-23388200D02*
X42950000Y-19663200D01*
X42950000Y-16811700D02*
X40441900Y-14303600D01*
X34801700Y-11251300D02*
X34801700Y-11000000D01*
X49900000Y-5500000D02*
X51601700Y-5500000D01*
X53110100Y-23728300D02*
X53110100Y-14887700D01*
X53110100Y-14887700D02*
X51601700Y-13379300D01*
X53937500Y-24555700D02*
X53110100Y-23728300D01*
X51601700Y-13379300D02*
X51601700Y-5500000D01*
X15500000Y-46500000D02*
X15500000Y-45298300D01*
X15500000Y-45298300D02*
X15072500Y-44870800D01*
X15072500Y-44870800D02*
X15072500Y-31139500D01*
X18040000Y-46500000D02*
X23178300Y-41361700D01*
X23178300Y-41361700D02*
X23900000Y-41361700D01*
X23900000Y-40160000D02*
X23900000Y-41361700D01*
X44593500Y-18501700D02*
X44220000Y-18501700D01*
X58206100Y-32114300D02*
X44593500Y-18501700D01*
X56931900Y-47731900D02*
X61324600Y-47731900D01*
X62028300Y-47028200D02*
X62028300Y-45983400D01*
X62028300Y-45983400D02*
X58206100Y-42161200D01*
X58206100Y-42161200D02*
X58206100Y-32114300D01*
X55700000Y-46500000D02*
X56931900Y-47731900D01*
X44220000Y-17300000D02*
X44220000Y-18501700D01*
X61324600Y-47731900D02*
X62028300Y-47028200D01*
X39072900Y-15519100D02*
X34138400Y-15519100D01*
X41680000Y-17300000D02*
X40478300Y-17300000D01*
X32842000Y-20728300D02*
X48030000Y-35916300D01*
X48030000Y-35916300D02*
X48030000Y-42358000D01*
X34138400Y-15519100D02*
X32842000Y-16815500D01*
X40478300Y-16924500D02*
X39072900Y-15519100D01*
X49350000Y-46938300D02*
X50113700Y-47702000D01*
X49350000Y-43678000D02*
X49350000Y-46938300D01*
X32842000Y-16815500D02*
X32842000Y-20728300D01*
X50113700Y-47702000D02*
X51958000Y-47702000D01*
X48030000Y-42358000D02*
X49350000Y-43678000D01*
X40478300Y-17300000D02*
X40478300Y-16924500D01*
X51958000Y-47702000D02*
X53160000Y-46500000D01*
X36082300Y-16066100D02*
X37079900Y-16066100D01*
X37079900Y-16066100D02*
X37938300Y-16924500D01*
X37938300Y-16924500D02*
X37938300Y-17300000D01*
X35330000Y-19418100D02*
X35330000Y-16818400D01*
X58240000Y-46500000D02*
X53110000Y-41370000D01*
X53110000Y-41370000D02*
X53110000Y-37198100D01*
X35330000Y-16818400D02*
X36082300Y-16066100D01*
X53110000Y-37198100D02*
X35330000Y-19418100D01*
X39140000Y-17300000D02*
X37938300Y-17300000D01*
X55587100Y-38446000D02*
X36600000Y-19458900D01*
X36600000Y-19458900D02*
X36600000Y-17300000D01*
X60780000Y-46500000D02*
X55587100Y-41307100D01*
X55587100Y-41307100D02*
X55587100Y-38446000D01*
X34060000Y-19211000D02*
X34060000Y-18501700D01*
X50620000Y-46500000D02*
X50620000Y-35771000D01*
X50620000Y-35771000D02*
X34060000Y-19211000D01*
X34060000Y-17300000D02*
X34060000Y-18501700D01*
X48080000Y-46500000D02*
X42950000Y-41370000D01*
X26440000Y-23203000D02*
X26440000Y-17300000D01*
X42950000Y-41370000D02*
X42950000Y-39713000D01*
X42950000Y-39713000D02*
X26440000Y-23203000D01*
G04 #@! TA.AperFunction,Conductor*
G36*
X64817872Y-515168D02*
G01*
X64911036Y-566039D01*
X64925919Y-575604D01*
X65105836Y-710288D01*
X65119207Y-721874D01*
X65278125Y-880792D01*
X65289711Y-894163D01*
X65424395Y-1074080D01*
X65433960Y-1088963D01*
X65484832Y-1182127D01*
X65500000Y-1241554D01*
X65500000Y-15476000D01*
X65480315Y-15543039D01*
X65427511Y-15588794D01*
X65376000Y-15600000D01*
X56800000Y-15600000D01*
X56800000Y-16048259D01*
X56780315Y-16115298D01*
X56727511Y-16161053D01*
X56695398Y-16170732D01*
X56650589Y-16177829D01*
X56478363Y-16233787D01*
X56478360Y-16233788D01*
X56317002Y-16316006D01*
X56170505Y-16422441D01*
X56170500Y-16422445D01*
X56042445Y-16550500D01*
X56042441Y-16550505D01*
X55936006Y-16697002D01*
X55853788Y-16858360D01*
X55853787Y-16858363D01*
X55797829Y-17030589D01*
X55772473Y-17190678D01*
X55742544Y-17253813D01*
X55683232Y-17290744D01*
X55613369Y-17289746D01*
X55555137Y-17251136D01*
X55527527Y-17190678D01*
X55505245Y-17050000D01*
X55502171Y-17030591D01*
X55446211Y-16858361D01*
X55446211Y-16858360D01*
X55407191Y-16781780D01*
X55363996Y-16697006D01*
X55300599Y-16609747D01*
X55257558Y-16550505D01*
X55257554Y-16550500D01*
X55129499Y-16422445D01*
X55129494Y-16422441D01*
X54982997Y-16316006D01*
X54982996Y-16316005D01*
X54982994Y-16316004D01*
X54927511Y-16287734D01*
X54821639Y-16233788D01*
X54821636Y-16233787D01*
X54649410Y-16177829D01*
X54470551Y-16149500D01*
X54470546Y-16149500D01*
X54289454Y-16149500D01*
X54289449Y-16149500D01*
X54110589Y-16177829D01*
X53938363Y-16233787D01*
X53938360Y-16233788D01*
X53777002Y-16316006D01*
X53757485Y-16330186D01*
X53691679Y-16353666D01*
X53623625Y-16337840D01*
X53574930Y-16287734D01*
X53560600Y-16229868D01*
X53560600Y-14828393D01*
X53560600Y-14828391D01*
X53529899Y-14713814D01*
X53529899Y-14713813D01*
X53529899Y-14713812D01*
X53470592Y-14611089D01*
X53470588Y-14611084D01*
X52088519Y-13229015D01*
X52055034Y-13167692D01*
X52052200Y-13141334D01*
X52052200Y-11747229D01*
X52071885Y-11680190D01*
X52124689Y-11634435D01*
X52193847Y-11624491D01*
X52257403Y-11653516D01*
X52295177Y-11712294D01*
X52295975Y-11715135D01*
X52344421Y-11895939D01*
X52437220Y-12119978D01*
X52437227Y-12119993D01*
X52558480Y-12330009D01*
X52706110Y-12522405D01*
X52706116Y-12522412D01*
X52877587Y-12693883D01*
X52877594Y-12693889D01*
X53069990Y-12841519D01*
X53280006Y-12962772D01*
X53280021Y-12962779D01*
X53504060Y-13055578D01*
X53738312Y-13118346D01*
X53850000Y-13133049D01*
X53850000Y-11654120D01*
X53895818Y-11673099D01*
X54031056Y-11700000D01*
X54168944Y-11700000D01*
X54304182Y-11673099D01*
X54350000Y-11654120D01*
X54350000Y-13133048D01*
X54461687Y-13118346D01*
X54695939Y-13055578D01*
X54919978Y-12962779D01*
X54919993Y-12962772D01*
X55130009Y-12841519D01*
X55322405Y-12693889D01*
X55322412Y-12693883D01*
X55493883Y-12522412D01*
X55493889Y-12522405D01*
X55641519Y-12330009D01*
X55762772Y-12119993D01*
X55762779Y-12119978D01*
X55855578Y-11895939D01*
X55918346Y-11661687D01*
X55949998Y-11421264D01*
X55950000Y-11421248D01*
X55950000Y-11250000D01*
X54754121Y-11250000D01*
X54773099Y-11204182D01*
X54800000Y-11068944D01*
X54800000Y-10931056D01*
X54773099Y-10795818D01*
X54754121Y-10750000D01*
X55950000Y-10750000D01*
X55950000Y-10578751D01*
X55949998Y-10578733D01*
X55948861Y-10570097D01*
X56649500Y-10570097D01*
X56649500Y-11429902D01*
X56690140Y-11686493D01*
X56770422Y-11933576D01*
X56851534Y-12092764D01*
X56888366Y-12165051D01*
X57041069Y-12375229D01*
X57224771Y-12558931D01*
X57434949Y-12711634D01*
X57582445Y-12786787D01*
X57666423Y-12829577D01*
X57666425Y-12829577D01*
X57666428Y-12829579D01*
X57913507Y-12909860D01*
X58045706Y-12930797D01*
X58170098Y-12950500D01*
X58170103Y-12950500D01*
X58429902Y-12950500D01*
X58543298Y-12932539D01*
X58686493Y-12909860D01*
X58933572Y-12829579D01*
X59165051Y-12711634D01*
X59375229Y-12558931D01*
X59558931Y-12375229D01*
X59711634Y-12165051D01*
X59829579Y-11933572D01*
X59909860Y-11686493D01*
X59932539Y-11543298D01*
X59950500Y-11429902D01*
X59950500Y-10570097D01*
X59928947Y-10434021D01*
X59909860Y-10313507D01*
X59829579Y-10066428D01*
X59829577Y-10066425D01*
X59829577Y-10066423D01*
X59711633Y-9834948D01*
X59591784Y-9669990D01*
X59558931Y-9624771D01*
X59491060Y-9556900D01*
X60849500Y-9556900D01*
X60849500Y-12443091D01*
X60860123Y-12531562D01*
X60915639Y-12672342D01*
X60915640Y-12672344D01*
X61007077Y-12792922D01*
X61127655Y-12884359D01*
X61127658Y-12884361D01*
X61268436Y-12939876D01*
X61356901Y-12950500D01*
X63643098Y-12950499D01*
X63731564Y-12939876D01*
X63872342Y-12884361D01*
X63992922Y-12792922D01*
X64084361Y-12672342D01*
X64139876Y-12531564D01*
X64150500Y-12443099D01*
X64150499Y-9556902D01*
X64139876Y-9468436D01*
X64084361Y-9327658D01*
X64068021Y-9306110D01*
X63992922Y-9207077D01*
X63872344Y-9115640D01*
X63872342Y-9115639D01*
X63731564Y-9060124D01*
X63731561Y-9060123D01*
X63643099Y-9049500D01*
X61356908Y-9049500D01*
X61268437Y-9060123D01*
X61127657Y-9115639D01*
X61127655Y-9115640D01*
X61007077Y-9207077D01*
X60915640Y-9327655D01*
X60915639Y-9327658D01*
X60870916Y-9441071D01*
X60860124Y-9468437D01*
X60860123Y-9468438D01*
X60849500Y-9556900D01*
X59491060Y-9556900D01*
X59375229Y-9441069D01*
X59165051Y-9288366D01*
X59092764Y-9251534D01*
X58933576Y-9170422D01*
X58686493Y-9090140D01*
X58429902Y-9049500D01*
X58429897Y-9049500D01*
X58170103Y-9049500D01*
X58170098Y-9049500D01*
X57913506Y-9090140D01*
X57666423Y-9170422D01*
X57434945Y-9288368D01*
X57224774Y-9441066D01*
X57224768Y-9441071D01*
X57041071Y-9624768D01*
X57041066Y-9624774D01*
X56888368Y-9834945D01*
X56770422Y-10066423D01*
X56690140Y-10313506D01*
X56649500Y-10570097D01*
X55948861Y-10570097D01*
X55918346Y-10338312D01*
X55855578Y-10104060D01*
X55762779Y-9880021D01*
X55762772Y-9880006D01*
X55641519Y-9669990D01*
X55493889Y-9477594D01*
X55493883Y-9477587D01*
X55322412Y-9306116D01*
X55322405Y-9306110D01*
X55130009Y-9158480D01*
X54919993Y-9037227D01*
X54919978Y-9037220D01*
X54695939Y-8944421D01*
X54461687Y-8881653D01*
X54350000Y-8866948D01*
X54350000Y-10345879D01*
X54304182Y-10326901D01*
X54168944Y-10300000D01*
X54031056Y-10300000D01*
X53895818Y-10326901D01*
X53850000Y-10345879D01*
X53850000Y-8866948D01*
X53849999Y-8866948D01*
X53738312Y-8881653D01*
X53504060Y-8944421D01*
X53280021Y-9037220D01*
X53280006Y-9037227D01*
X53069990Y-9158480D01*
X52877594Y-9306110D01*
X52877587Y-9306116D01*
X52706116Y-9477587D01*
X52706110Y-9477594D01*
X52558480Y-9669990D01*
X52437227Y-9880006D01*
X52437220Y-9880021D01*
X52344421Y-10104060D01*
X52295975Y-10284864D01*
X52259610Y-10344524D01*
X52196763Y-10375053D01*
X52127387Y-10366758D01*
X52073509Y-10322273D01*
X52052235Y-10255721D01*
X52052200Y-10252770D01*
X52052200Y-6247229D01*
X52071885Y-6180190D01*
X52124689Y-6134435D01*
X52193847Y-6124491D01*
X52257403Y-6153516D01*
X52295177Y-6212294D01*
X52295975Y-6215135D01*
X52344421Y-6395939D01*
X52437220Y-6619978D01*
X52437227Y-6619993D01*
X52558480Y-6830009D01*
X52706110Y-7022405D01*
X52706116Y-7022412D01*
X52877587Y-7193883D01*
X52877594Y-7193889D01*
X53069990Y-7341519D01*
X53280006Y-7462772D01*
X53280021Y-7462779D01*
X53504060Y-7555578D01*
X53738312Y-7618346D01*
X53850000Y-7633049D01*
X53850000Y-6154120D01*
X53895818Y-6173099D01*
X54031056Y-6200000D01*
X54168944Y-6200000D01*
X54304182Y-6173099D01*
X54350000Y-6154120D01*
X54350000Y-7633048D01*
X54461687Y-7618346D01*
X54695939Y-7555578D01*
X54919978Y-7462779D01*
X54919993Y-7462772D01*
X55130009Y-7341519D01*
X55322405Y-7193889D01*
X55322412Y-7193883D01*
X55493883Y-7022412D01*
X55493889Y-7022405D01*
X55641519Y-6830009D01*
X55762772Y-6619993D01*
X55762779Y-6619978D01*
X55855578Y-6395939D01*
X55918346Y-6161687D01*
X55949998Y-5921264D01*
X55950000Y-5921248D01*
X55950000Y-5750000D01*
X54754121Y-5750000D01*
X54773099Y-5704182D01*
X54800000Y-5568944D01*
X54800000Y-5431056D01*
X54773099Y-5295818D01*
X54754121Y-5250000D01*
X55950000Y-5250000D01*
X55950000Y-5078751D01*
X55949998Y-5078733D01*
X55948861Y-5070097D01*
X56649500Y-5070097D01*
X56649500Y-5929902D01*
X56690140Y-6186493D01*
X56770422Y-6433576D01*
X56851534Y-6592764D01*
X56888366Y-6665051D01*
X57041069Y-6875229D01*
X57224771Y-7058931D01*
X57434949Y-7211634D01*
X57582445Y-7286787D01*
X57666423Y-7329577D01*
X57666425Y-7329577D01*
X57666428Y-7329579D01*
X57913507Y-7409860D01*
X58045706Y-7430797D01*
X58170098Y-7450500D01*
X58170103Y-7450500D01*
X58429902Y-7450500D01*
X58543298Y-7432539D01*
X58686493Y-7409860D01*
X58933572Y-7329579D01*
X59165051Y-7211634D01*
X59375229Y-7058931D01*
X59558931Y-6875229D01*
X59711634Y-6665051D01*
X59829579Y-6433572D01*
X59909860Y-6186493D01*
X59932539Y-6043298D01*
X59950500Y-5929902D01*
X59950500Y-5070097D01*
X60849500Y-5070097D01*
X60849500Y-5929902D01*
X60890140Y-6186493D01*
X60970422Y-6433576D01*
X61051534Y-6592764D01*
X61088366Y-6665051D01*
X61241069Y-6875229D01*
X61424771Y-7058931D01*
X61634949Y-7211634D01*
X61782445Y-7286787D01*
X61866423Y-7329577D01*
X61866425Y-7329577D01*
X61866428Y-7329579D01*
X62113507Y-7409860D01*
X62245706Y-7430797D01*
X62370098Y-7450500D01*
X62370103Y-7450500D01*
X62629902Y-7450500D01*
X62743298Y-7432539D01*
X62886493Y-7409860D01*
X63133572Y-7329579D01*
X63365051Y-7211634D01*
X63575229Y-7058931D01*
X63758931Y-6875229D01*
X63911634Y-6665051D01*
X64029579Y-6433572D01*
X64109860Y-6186493D01*
X64132539Y-6043298D01*
X64150500Y-5929902D01*
X64150500Y-5070097D01*
X64122506Y-4893354D01*
X64109860Y-4813507D01*
X64029579Y-4566428D01*
X64029577Y-4566425D01*
X64029577Y-4566423D01*
X63934599Y-4380021D01*
X63911634Y-4334949D01*
X63758931Y-4124771D01*
X63575229Y-3941069D01*
X63365051Y-3788366D01*
X63292764Y-3751534D01*
X63133576Y-3670422D01*
X62886493Y-3590140D01*
X62629902Y-3549500D01*
X62629897Y-3549500D01*
X62370103Y-3549500D01*
X62370098Y-3549500D01*
X62113506Y-3590140D01*
X61866423Y-3670422D01*
X61634945Y-3788368D01*
X61424774Y-3941066D01*
X61424768Y-3941071D01*
X61241071Y-4124768D01*
X61241066Y-4124774D01*
X61088368Y-4334945D01*
X60970422Y-4566423D01*
X60890140Y-4813506D01*
X60849500Y-5070097D01*
X59950500Y-5070097D01*
X59922506Y-4893354D01*
X59909860Y-4813507D01*
X59829579Y-4566428D01*
X59829577Y-4566425D01*
X59829577Y-4566423D01*
X59734599Y-4380021D01*
X59711634Y-4334949D01*
X59558931Y-4124771D01*
X59375229Y-3941069D01*
X59165051Y-3788366D01*
X59092764Y-3751534D01*
X58933576Y-3670422D01*
X58686493Y-3590140D01*
X58429902Y-3549500D01*
X58429897Y-3549500D01*
X58170103Y-3549500D01*
X58170098Y-3549500D01*
X57913506Y-3590140D01*
X57666423Y-3670422D01*
X57434945Y-3788368D01*
X57224774Y-3941066D01*
X57224768Y-3941071D01*
X57041071Y-4124768D01*
X57041066Y-4124774D01*
X56888368Y-4334945D01*
X56770422Y-4566423D01*
X56690140Y-4813506D01*
X56649500Y-5070097D01*
X55948861Y-5070097D01*
X55918346Y-4838312D01*
X55855578Y-4604060D01*
X55762779Y-4380021D01*
X55762772Y-4380006D01*
X55641519Y-4169990D01*
X55493889Y-3977594D01*
X55493883Y-3977587D01*
X55322412Y-3806116D01*
X55322405Y-3806110D01*
X55130009Y-3658480D01*
X54919993Y-3537227D01*
X54919978Y-3537220D01*
X54695939Y-3444421D01*
X54461687Y-3381653D01*
X54350000Y-3366948D01*
X54350000Y-4845879D01*
X54304182Y-4826901D01*
X54168944Y-4800000D01*
X54031056Y-4800000D01*
X53895818Y-4826901D01*
X53850000Y-4845879D01*
X53850000Y-3366948D01*
X53849999Y-3366948D01*
X53738312Y-3381653D01*
X53504060Y-3444421D01*
X53280021Y-3537220D01*
X53280006Y-3537227D01*
X53069990Y-3658480D01*
X52877594Y-3806110D01*
X52877587Y-3806116D01*
X52706116Y-3977587D01*
X52706110Y-3977594D01*
X52558480Y-4169990D01*
X52437227Y-4380006D01*
X52437220Y-4380021D01*
X52344421Y-4604060D01*
X52281653Y-4838312D01*
X52250001Y-5078735D01*
X52250000Y-5078751D01*
X52250000Y-5259114D01*
X52230315Y-5326153D01*
X52177511Y-5371908D01*
X52108353Y-5381852D01*
X52044797Y-5352827D01*
X52018613Y-5321115D01*
X51982816Y-5259114D01*
X51962189Y-5223387D01*
X51878313Y-5139511D01*
X51775586Y-5080201D01*
X51661009Y-5049500D01*
X51661006Y-5049500D01*
X51653143Y-5049500D01*
X51586104Y-5029815D01*
X51540349Y-4977011D01*
X51530670Y-4944897D01*
X51509860Y-4813507D01*
X51509860Y-4813506D01*
X51462001Y-4666212D01*
X51429579Y-4566428D01*
X51429577Y-4566425D01*
X51429577Y-4566423D01*
X51334599Y-4380021D01*
X51311634Y-4334949D01*
X51158931Y-4124771D01*
X50975229Y-3941069D01*
X50765051Y-3788366D01*
X50692764Y-3751534D01*
X50533576Y-3670422D01*
X50286493Y-3590140D01*
X50029902Y-3549500D01*
X50029897Y-3549500D01*
X49770103Y-3549500D01*
X49770098Y-3549500D01*
X49513506Y-3590140D01*
X49266423Y-3670422D01*
X49034945Y-3788368D01*
X48824774Y-3941066D01*
X48824768Y-3941071D01*
X48641071Y-4124768D01*
X48641066Y-4124774D01*
X48488368Y-4334945D01*
X48370422Y-4566423D01*
X48290140Y-4813506D01*
X48249500Y-5070097D01*
X48249500Y-5929902D01*
X48290140Y-6186493D01*
X48370422Y-6433576D01*
X48451534Y-6592764D01*
X48488366Y-6665051D01*
X48641069Y-6875229D01*
X48824771Y-7058931D01*
X49034949Y-7211634D01*
X49182445Y-7286787D01*
X49266423Y-7329577D01*
X49266425Y-7329577D01*
X49266428Y-7329579D01*
X49513507Y-7409860D01*
X49645706Y-7430797D01*
X49770098Y-7450500D01*
X49770103Y-7450500D01*
X50029902Y-7450500D01*
X50143298Y-7432539D01*
X50286493Y-7409860D01*
X50533572Y-7329579D01*
X50765051Y-7211634D01*
X50954318Y-7074123D01*
X51020120Y-7050645D01*
X51088174Y-7066470D01*
X51136869Y-7116576D01*
X51151200Y-7174443D01*
X51151200Y-9325556D01*
X51131515Y-9392595D01*
X51078711Y-9438350D01*
X51009553Y-9448294D01*
X50954315Y-9425874D01*
X50765054Y-9288368D01*
X50765053Y-9288367D01*
X50765051Y-9288366D01*
X50692764Y-9251534D01*
X50533576Y-9170422D01*
X50286493Y-9090140D01*
X50029902Y-9049500D01*
X50029897Y-9049500D01*
X49770103Y-9049500D01*
X49770098Y-9049500D01*
X49513506Y-9090140D01*
X49266423Y-9170422D01*
X49034945Y-9288368D01*
X48824774Y-9441066D01*
X48824768Y-9441071D01*
X48641071Y-9624768D01*
X48641066Y-9624774D01*
X48488368Y-9834945D01*
X48370422Y-10066423D01*
X48290140Y-10313506D01*
X48249500Y-10570097D01*
X48249500Y-11429902D01*
X48290140Y-11686493D01*
X48370422Y-11933576D01*
X48451534Y-12092764D01*
X48488366Y-12165051D01*
X48641069Y-12375229D01*
X48824771Y-12558931D01*
X49034949Y-12711634D01*
X49182445Y-12786787D01*
X49266423Y-12829577D01*
X49266425Y-12829577D01*
X49266428Y-12829579D01*
X49513507Y-12909860D01*
X49645706Y-12930797D01*
X49770098Y-12950500D01*
X49770103Y-12950500D01*
X50029902Y-12950500D01*
X50143298Y-12932539D01*
X50286493Y-12909860D01*
X50533572Y-12829579D01*
X50765051Y-12711634D01*
X50954318Y-12574123D01*
X51020120Y-12550645D01*
X51088174Y-12566470D01*
X51136869Y-12616576D01*
X51151200Y-12674443D01*
X51151200Y-13438608D01*
X51175412Y-13528972D01*
X51181900Y-13553185D01*
X51181900Y-13553186D01*
X51181901Y-13553187D01*
X51241211Y-13655914D01*
X51241213Y-13655916D01*
X52623281Y-15037984D01*
X52656766Y-15099307D01*
X52659600Y-15125665D01*
X52659600Y-16230013D01*
X52639915Y-16297052D01*
X52587111Y-16342807D01*
X52517953Y-16352751D01*
X52462716Y-16330332D01*
X52442996Y-16316005D01*
X52281639Y-16233788D01*
X52281636Y-16233787D01*
X52109410Y-16177829D01*
X51930551Y-16149500D01*
X51930546Y-16149500D01*
X51749454Y-16149500D01*
X51749449Y-16149500D01*
X51570589Y-16177829D01*
X51398363Y-16233787D01*
X51398360Y-16233788D01*
X51237002Y-16316006D01*
X51090505Y-16422441D01*
X51090500Y-16422445D01*
X50962445Y-16550500D01*
X50962441Y-16550505D01*
X50856006Y-16697002D01*
X50773788Y-16858360D01*
X50773787Y-16858363D01*
X50717829Y-17030589D01*
X50692473Y-17190678D01*
X50662544Y-17253813D01*
X50603232Y-17290744D01*
X50533369Y-17289746D01*
X50475137Y-17251136D01*
X50447527Y-17190678D01*
X50425245Y-17050000D01*
X50422171Y-17030591D01*
X50366211Y-16858361D01*
X50366211Y-16858360D01*
X50327191Y-16781780D01*
X50283996Y-16697006D01*
X50220599Y-16609747D01*
X50177558Y-16550505D01*
X50177554Y-16550500D01*
X50049499Y-16422445D01*
X50049494Y-16422441D01*
X49902997Y-16316006D01*
X49902996Y-16316005D01*
X49902994Y-16316004D01*
X49847511Y-16287734D01*
X49741639Y-16233788D01*
X49741636Y-16233787D01*
X49569410Y-16177829D01*
X49390551Y-16149500D01*
X49390546Y-16149500D01*
X49209454Y-16149500D01*
X49209449Y-16149500D01*
X49030589Y-16177829D01*
X48858363Y-16233787D01*
X48858360Y-16233788D01*
X48697002Y-16316006D01*
X48550505Y-16422441D01*
X48550500Y-16422445D01*
X48422445Y-16550500D01*
X48422441Y-16550505D01*
X48316006Y-16697002D01*
X48233788Y-16858360D01*
X48233787Y-16858363D01*
X48177829Y-17030589D01*
X48152473Y-17190678D01*
X48122544Y-17253813D01*
X48063232Y-17290744D01*
X47993369Y-17289746D01*
X47935137Y-17251136D01*
X47907527Y-17190678D01*
X47885245Y-17050000D01*
X47882171Y-17030591D01*
X47826211Y-16858361D01*
X47826211Y-16858360D01*
X47787191Y-16781780D01*
X47743996Y-16697006D01*
X47680599Y-16609747D01*
X47637558Y-16550505D01*
X47637554Y-16550500D01*
X47509499Y-16422445D01*
X47509494Y-16422441D01*
X47362997Y-16316006D01*
X47362996Y-16316005D01*
X47362994Y-16316004D01*
X47307511Y-16287734D01*
X47201639Y-16233788D01*
X47201636Y-16233787D01*
X47029410Y-16177829D01*
X46850551Y-16149500D01*
X46850546Y-16149500D01*
X46669454Y-16149500D01*
X46669449Y-16149500D01*
X46490589Y-16177829D01*
X46318363Y-16233787D01*
X46318360Y-16233788D01*
X46157002Y-16316006D01*
X46010505Y-16422441D01*
X46010500Y-16422445D01*
X45882445Y-16550500D01*
X45882441Y-16550505D01*
X45776006Y-16697002D01*
X45693788Y-16858360D01*
X45693787Y-16858363D01*
X45637829Y-17030589D01*
X45612473Y-17190678D01*
X45582544Y-17253813D01*
X45523232Y-17290744D01*
X45453369Y-17289746D01*
X45395137Y-17251136D01*
X45367527Y-17190678D01*
X45345245Y-17050000D01*
X45342171Y-17030591D01*
X45286211Y-16858361D01*
X45286211Y-16858360D01*
X45247191Y-16781780D01*
X45203996Y-16697006D01*
X45140599Y-16609747D01*
X45097558Y-16550505D01*
X45097554Y-16550500D01*
X44969499Y-16422445D01*
X44969494Y-16422441D01*
X44822997Y-16316006D01*
X44822996Y-16316005D01*
X44822994Y-16316004D01*
X44767511Y-16287734D01*
X44661639Y-16233788D01*
X44661636Y-16233787D01*
X44489410Y-16177829D01*
X44310551Y-16149500D01*
X44310546Y-16149500D01*
X44129454Y-16149500D01*
X44129449Y-16149500D01*
X43950589Y-16177829D01*
X43778363Y-16233787D01*
X43778360Y-16233788D01*
X43617002Y-16316006D01*
X43470505Y-16422441D01*
X43421854Y-16471091D01*
X43360530Y-16504575D01*
X43290838Y-16499589D01*
X43246493Y-16471089D01*
X40718516Y-13943113D01*
X40718514Y-13943111D01*
X40667150Y-13913456D01*
X40615788Y-13883801D01*
X40603680Y-13880557D01*
X40591573Y-13877313D01*
X40591570Y-13877312D01*
X40553378Y-13867078D01*
X40501209Y-13853100D01*
X40501208Y-13853100D01*
X38091965Y-13853100D01*
X38024926Y-13833415D01*
X38004284Y-13816781D01*
X37525046Y-13337543D01*
X37491561Y-13276220D01*
X37496545Y-13206528D01*
X37538417Y-13150595D01*
X37596542Y-13126923D01*
X37661687Y-13118346D01*
X37895939Y-13055578D01*
X38119978Y-12962779D01*
X38119993Y-12962772D01*
X38330009Y-12841519D01*
X38522405Y-12693889D01*
X38522412Y-12693883D01*
X38693883Y-12522412D01*
X38693889Y-12522405D01*
X38841519Y-12330009D01*
X38962772Y-12119993D01*
X38962779Y-12119978D01*
X39055578Y-11895939D01*
X39118346Y-11661687D01*
X39149998Y-11421264D01*
X39150000Y-11421248D01*
X39150000Y-11250000D01*
X37954121Y-11250000D01*
X37973099Y-11204182D01*
X38000000Y-11068944D01*
X38000000Y-10931056D01*
X37973099Y-10795818D01*
X37954121Y-10750000D01*
X39150000Y-10750000D01*
X39150000Y-10578751D01*
X39149998Y-10578733D01*
X39148861Y-10570097D01*
X39849500Y-10570097D01*
X39849500Y-11429902D01*
X39890140Y-11686493D01*
X39970422Y-11933576D01*
X40051534Y-12092764D01*
X40088366Y-12165051D01*
X40241069Y-12375229D01*
X40424771Y-12558931D01*
X40634949Y-12711634D01*
X40782445Y-12786787D01*
X40866423Y-12829577D01*
X40866425Y-12829577D01*
X40866428Y-12829579D01*
X41113507Y-12909860D01*
X41245706Y-12930797D01*
X41370098Y-12950500D01*
X41370103Y-12950500D01*
X41629902Y-12950500D01*
X41743298Y-12932539D01*
X41886493Y-12909860D01*
X42133572Y-12829579D01*
X42365051Y-12711634D01*
X42575229Y-12558931D01*
X42758931Y-12375229D01*
X42911634Y-12165051D01*
X43029579Y-11933572D01*
X43109860Y-11686493D01*
X43132539Y-11543298D01*
X43150500Y-11429902D01*
X43150500Y-10578751D01*
X43850000Y-10578751D01*
X43850000Y-10750000D01*
X45045879Y-10750000D01*
X45026901Y-10795818D01*
X45000000Y-10931056D01*
X45000000Y-11068944D01*
X45026901Y-11204182D01*
X45045879Y-11250000D01*
X43850000Y-11250000D01*
X43850000Y-11421248D01*
X43850001Y-11421264D01*
X43881653Y-11661687D01*
X43944421Y-11895939D01*
X44037220Y-12119978D01*
X44037227Y-12119993D01*
X44158480Y-12330009D01*
X44306110Y-12522405D01*
X44306116Y-12522412D01*
X44477587Y-12693883D01*
X44477594Y-12693889D01*
X44669990Y-12841519D01*
X44880006Y-12962772D01*
X44880021Y-12962779D01*
X45104060Y-13055578D01*
X45338312Y-13118346D01*
X45450000Y-13133049D01*
X45450000Y-11654120D01*
X45495818Y-11673099D01*
X45631056Y-11700000D01*
X45768944Y-11700000D01*
X45904182Y-11673099D01*
X45950000Y-11654120D01*
X45950000Y-13133048D01*
X46061687Y-13118346D01*
X46295939Y-13055578D01*
X46519978Y-12962779D01*
X46519993Y-12962772D01*
X46730009Y-12841519D01*
X46922405Y-12693889D01*
X46922412Y-12693883D01*
X47093883Y-12522412D01*
X47093889Y-12522405D01*
X47241519Y-12330009D01*
X47362772Y-12119993D01*
X47362779Y-12119978D01*
X47455578Y-11895939D01*
X47518346Y-11661687D01*
X47549998Y-11421264D01*
X47550000Y-11421248D01*
X47550000Y-11250000D01*
X46354121Y-11250000D01*
X46373099Y-11204182D01*
X46400000Y-11068944D01*
X46400000Y-10931056D01*
X46373099Y-10795818D01*
X46354121Y-10750000D01*
X47550000Y-10750000D01*
X47550000Y-10578751D01*
X47549998Y-10578735D01*
X47518346Y-10338312D01*
X47455578Y-10104060D01*
X47362779Y-9880021D01*
X47362772Y-9880006D01*
X47241519Y-9669990D01*
X47093889Y-9477594D01*
X47093883Y-9477587D01*
X46922412Y-9306116D01*
X46922405Y-9306110D01*
X46730009Y-9158480D01*
X46519993Y-9037227D01*
X46519978Y-9037220D01*
X46295939Y-8944421D01*
X46061687Y-8881653D01*
X45950000Y-8866948D01*
X45950000Y-10345879D01*
X45904182Y-10326901D01*
X45768944Y-10300000D01*
X45631056Y-10300000D01*
X45495818Y-10326901D01*
X45450000Y-10345879D01*
X45450000Y-8866948D01*
X45449999Y-8866948D01*
X45338312Y-8881653D01*
X45104060Y-8944421D01*
X44880021Y-9037220D01*
X44880006Y-9037227D01*
X44669990Y-9158480D01*
X44477594Y-9306110D01*
X44477587Y-9306116D01*
X44306116Y-9477587D01*
X44306110Y-9477594D01*
X44158480Y-9669990D01*
X44037227Y-9880006D01*
X44037220Y-9880021D01*
X43944421Y-10104060D01*
X43881653Y-10338312D01*
X43850001Y-10578735D01*
X43850000Y-10578751D01*
X43150500Y-10578751D01*
X43150500Y-10570097D01*
X43128947Y-10434021D01*
X43109860Y-10313507D01*
X43029579Y-10066428D01*
X43029577Y-10066425D01*
X43029577Y-10066423D01*
X42934599Y-9880021D01*
X42911634Y-9834949D01*
X42758931Y-9624771D01*
X42575229Y-9441069D01*
X42365051Y-9288366D01*
X42292764Y-9251534D01*
X42133576Y-9170422D01*
X41886493Y-9090140D01*
X41629902Y-9049500D01*
X41629897Y-9049500D01*
X41370103Y-9049500D01*
X41370098Y-9049500D01*
X41113506Y-9090140D01*
X40866423Y-9170422D01*
X40634945Y-9288368D01*
X40424774Y-9441066D01*
X40424768Y-9441071D01*
X40241071Y-9624768D01*
X40241066Y-9624774D01*
X40088368Y-9834945D01*
X39970422Y-10066423D01*
X39890140Y-10313506D01*
X39849500Y-10570097D01*
X39148861Y-10570097D01*
X39118346Y-10338312D01*
X39055578Y-10104060D01*
X38962779Y-9880021D01*
X38962772Y-9880006D01*
X38841519Y-9669990D01*
X38693889Y-9477594D01*
X38693883Y-9477587D01*
X38522412Y-9306116D01*
X38522405Y-9306110D01*
X38330009Y-9158480D01*
X38119993Y-9037227D01*
X38119978Y-9037220D01*
X37895939Y-8944421D01*
X37661687Y-8881653D01*
X37550000Y-8866948D01*
X37550000Y-10345879D01*
X37504182Y-10326901D01*
X37368944Y-10300000D01*
X37231056Y-10300000D01*
X37095818Y-10326901D01*
X37050000Y-10345879D01*
X37050000Y-8866948D01*
X37049999Y-8866948D01*
X36938312Y-8881653D01*
X36704060Y-8944421D01*
X36480021Y-9037220D01*
X36480006Y-9037227D01*
X36269990Y-9158480D01*
X36077594Y-9306110D01*
X36077587Y-9306116D01*
X35906116Y-9477587D01*
X35906110Y-9477594D01*
X35758480Y-9669990D01*
X35637227Y-9880006D01*
X35637220Y-9880021D01*
X35544421Y-10104060D01*
X35481653Y-10338312D01*
X35450001Y-10578735D01*
X35450000Y-10578751D01*
X35450000Y-10759114D01*
X35430315Y-10826153D01*
X35377511Y-10871908D01*
X35308353Y-10881852D01*
X35244797Y-10852827D01*
X35218613Y-10821115D01*
X35182816Y-10759114D01*
X35162189Y-10723387D01*
X35078313Y-10639511D01*
X34975586Y-10580201D01*
X34861009Y-10549500D01*
X34861006Y-10549500D01*
X34853143Y-10549500D01*
X34786104Y-10529815D01*
X34740349Y-10477011D01*
X34730670Y-10444897D01*
X34709860Y-10313507D01*
X34709860Y-10313506D01*
X34667200Y-10182213D01*
X34629579Y-10066428D01*
X34629577Y-10066425D01*
X34629577Y-10066423D01*
X34534599Y-9880021D01*
X34511634Y-9834949D01*
X34358931Y-9624771D01*
X34175229Y-9441069D01*
X33965051Y-9288366D01*
X33892764Y-9251534D01*
X33733576Y-9170422D01*
X33486493Y-9090140D01*
X33229902Y-9049500D01*
X33229897Y-9049500D01*
X32970103Y-9049500D01*
X32970098Y-9049500D01*
X32713506Y-9090140D01*
X32466423Y-9170422D01*
X32234945Y-9288368D01*
X32024774Y-9441066D01*
X32024768Y-9441071D01*
X31841071Y-9624768D01*
X31841066Y-9624774D01*
X31688368Y-9834945D01*
X31570422Y-10066423D01*
X31490140Y-10313506D01*
X31449500Y-10570097D01*
X31449500Y-11429902D01*
X31490140Y-11686493D01*
X31570422Y-11933576D01*
X31651534Y-12092764D01*
X31688366Y-12165051D01*
X31841069Y-12375229D01*
X32024771Y-12558931D01*
X32234949Y-12711634D01*
X32382445Y-12786787D01*
X32466423Y-12829577D01*
X32466425Y-12829577D01*
X32466428Y-12829579D01*
X32713507Y-12909860D01*
X32845706Y-12930797D01*
X32970098Y-12950500D01*
X32970103Y-12950500D01*
X33229902Y-12950500D01*
X33343298Y-12932539D01*
X33486493Y-12909860D01*
X33733572Y-12829579D01*
X33965051Y-12711634D01*
X34175229Y-12558931D01*
X34358931Y-12375229D01*
X34511634Y-12165051D01*
X34625440Y-11941694D01*
X34673415Y-11890899D01*
X34741236Y-11874104D01*
X34807371Y-11896642D01*
X34823606Y-11910309D01*
X37577386Y-14664089D01*
X37680113Y-14723399D01*
X37704321Y-14729884D01*
X37704324Y-14729886D01*
X37704325Y-14729886D01*
X37734447Y-14737957D01*
X37794691Y-14754100D01*
X40203935Y-14754100D01*
X40270974Y-14773785D01*
X40291616Y-14790419D01*
X41470491Y-15969294D01*
X41503976Y-16030617D01*
X41498992Y-16100309D01*
X41457120Y-16156242D01*
X41415111Y-16175973D01*
X41415225Y-16176323D01*
X41412439Y-16177228D01*
X41411754Y-16177550D01*
X41410584Y-16177830D01*
X41238363Y-16233787D01*
X41238360Y-16233788D01*
X41077002Y-16316006D01*
X40930506Y-16422440D01*
X40859605Y-16493341D01*
X40798281Y-16526825D01*
X40728590Y-16521840D01*
X40684245Y-16493341D01*
X39349514Y-15158611D01*
X39290202Y-15124367D01*
X39246788Y-15099301D01*
X39234680Y-15096057D01*
X39222573Y-15092813D01*
X39222570Y-15092812D01*
X39184378Y-15082578D01*
X39132209Y-15068600D01*
X34079091Y-15068600D01*
X34010344Y-15087020D01*
X33964512Y-15099301D01*
X33964507Y-15099304D01*
X33921095Y-15124367D01*
X33921096Y-15124368D01*
X33861789Y-15158608D01*
X33861783Y-15158613D01*
X32521406Y-16498989D01*
X32460083Y-16532474D01*
X32390391Y-16527490D01*
X32346044Y-16498990D01*
X32318143Y-16471089D01*
X32269501Y-16422447D01*
X32269497Y-16422444D01*
X32269493Y-16422440D01*
X32122997Y-16316006D01*
X32122996Y-16316005D01*
X32122994Y-16316004D01*
X32067511Y-16287734D01*
X31961639Y-16233788D01*
X31961636Y-16233787D01*
X31789410Y-16177829D01*
X31610551Y-16149500D01*
X31610546Y-16149500D01*
X31429454Y-16149500D01*
X31429449Y-16149500D01*
X31250589Y-16177829D01*
X31078363Y-16233787D01*
X31078360Y-16233788D01*
X30917002Y-16316006D01*
X30770505Y-16422441D01*
X30770500Y-16422445D01*
X30642445Y-16550500D01*
X30642441Y-16550505D01*
X30536006Y-16697002D01*
X30453788Y-16858360D01*
X30453787Y-16858363D01*
X30397829Y-17030589D01*
X30372473Y-17190678D01*
X30342544Y-17253813D01*
X30283232Y-17290744D01*
X30213369Y-17289746D01*
X30155137Y-17251136D01*
X30127527Y-17190678D01*
X30105245Y-17050000D01*
X30102171Y-17030591D01*
X30046211Y-16858361D01*
X30046211Y-16858360D01*
X30007191Y-16781780D01*
X29963996Y-16697006D01*
X29900599Y-16609747D01*
X29857558Y-16550505D01*
X29857554Y-16550500D01*
X29729499Y-16422445D01*
X29729494Y-16422441D01*
X29582997Y-16316006D01*
X29582996Y-16316005D01*
X29582994Y-16316004D01*
X29527511Y-16287734D01*
X29421639Y-16233788D01*
X29421636Y-16233787D01*
X29249410Y-16177829D01*
X29070551Y-16149500D01*
X29070546Y-16149500D01*
X28889454Y-16149500D01*
X28889449Y-16149500D01*
X28710589Y-16177829D01*
X28538363Y-16233787D01*
X28538360Y-16233788D01*
X28377002Y-16316006D01*
X28230505Y-16422441D01*
X28230500Y-16422445D01*
X28102445Y-16550500D01*
X28102441Y-16550505D01*
X27996006Y-16697002D01*
X27913788Y-16858360D01*
X27913787Y-16858363D01*
X27857829Y-17030589D01*
X27832473Y-17190678D01*
X27802544Y-17253813D01*
X27743232Y-17290744D01*
X27673369Y-17289746D01*
X27615137Y-17251136D01*
X27587527Y-17190678D01*
X27565245Y-17050000D01*
X27562171Y-17030591D01*
X27506211Y-16858361D01*
X27506211Y-16858360D01*
X27467191Y-16781780D01*
X27423996Y-16697006D01*
X27360599Y-16609747D01*
X27317558Y-16550505D01*
X27317554Y-16550500D01*
X27189499Y-16422445D01*
X27189494Y-16422441D01*
X27042997Y-16316006D01*
X27042996Y-16316005D01*
X27042994Y-16316004D01*
X26987511Y-16287734D01*
X26881639Y-16233788D01*
X26881636Y-16233787D01*
X26709410Y-16177829D01*
X26530551Y-16149500D01*
X26530546Y-16149500D01*
X26349454Y-16149500D01*
X26349449Y-16149500D01*
X26170589Y-16177829D01*
X25998363Y-16233787D01*
X25998360Y-16233788D01*
X25837002Y-16316006D01*
X25690505Y-16422441D01*
X25690500Y-16422445D01*
X25562445Y-16550500D01*
X25562441Y-16550505D01*
X25456006Y-16697002D01*
X25373788Y-16858360D01*
X25373787Y-16858363D01*
X25317829Y-17030589D01*
X25292473Y-17190678D01*
X25262544Y-17253813D01*
X25203232Y-17290744D01*
X25133369Y-17289746D01*
X25075137Y-17251136D01*
X25047527Y-17190678D01*
X25025245Y-17050000D01*
X25022171Y-17030591D01*
X24966211Y-16858361D01*
X24966211Y-16858360D01*
X24927191Y-16781780D01*
X24883996Y-16697006D01*
X24820599Y-16609747D01*
X24777558Y-16550505D01*
X24777554Y-16550500D01*
X24649499Y-16422445D01*
X24649494Y-16422441D01*
X24502995Y-16316004D01*
X24418204Y-16272800D01*
X24367409Y-16224826D01*
X24350500Y-16162316D01*
X24350500Y-16038993D01*
X24350500Y-16038991D01*
X24319799Y-15924414D01*
X24260489Y-15821687D01*
X24176613Y-15737811D01*
X24073886Y-15678501D01*
X23959309Y-15647800D01*
X23959306Y-15647800D01*
X23112165Y-15647800D01*
X23045126Y-15628115D01*
X23024484Y-15611481D01*
X20572011Y-13159008D01*
X20538526Y-13097685D01*
X20543510Y-13027993D01*
X20585382Y-12972060D01*
X20640294Y-12948854D01*
X20740817Y-12932932D01*
X20886493Y-12909860D01*
X21133572Y-12829579D01*
X21365051Y-12711634D01*
X21575229Y-12558931D01*
X21758931Y-12375229D01*
X21911634Y-12165051D01*
X22029579Y-11933572D01*
X22109860Y-11686493D01*
X22132539Y-11543298D01*
X22150500Y-11429902D01*
X22150500Y-10570097D01*
X23049500Y-10570097D01*
X23049500Y-11429902D01*
X23090140Y-11686493D01*
X23170422Y-11933576D01*
X23251534Y-12092764D01*
X23288366Y-12165051D01*
X23441069Y-12375229D01*
X23624771Y-12558931D01*
X23834949Y-12711634D01*
X23982445Y-12786787D01*
X24066423Y-12829577D01*
X24066425Y-12829577D01*
X24066428Y-12829579D01*
X24313507Y-12909860D01*
X24445706Y-12930797D01*
X24570098Y-12950500D01*
X24570103Y-12950500D01*
X24829902Y-12950500D01*
X24943298Y-12932539D01*
X25086493Y-12909860D01*
X25333572Y-12829579D01*
X25565051Y-12711634D01*
X25775229Y-12558931D01*
X25958931Y-12375229D01*
X26111634Y-12165051D01*
X26229579Y-11933572D01*
X26309860Y-11686493D01*
X26332539Y-11543298D01*
X26350500Y-11429902D01*
X26350500Y-10570097D01*
X27249500Y-10570097D01*
X27249500Y-11429902D01*
X27290140Y-11686493D01*
X27370422Y-11933576D01*
X27451534Y-12092764D01*
X27488366Y-12165051D01*
X27641069Y-12375229D01*
X27824771Y-12558931D01*
X28034949Y-12711634D01*
X28182445Y-12786787D01*
X28266423Y-12829577D01*
X28266425Y-12829577D01*
X28266428Y-12829579D01*
X28513507Y-12909860D01*
X28645706Y-12930797D01*
X28770098Y-12950500D01*
X28770103Y-12950500D01*
X29029902Y-12950500D01*
X29143298Y-12932539D01*
X29286493Y-12909860D01*
X29533572Y-12829579D01*
X29765051Y-12711634D01*
X29975229Y-12558931D01*
X30158931Y-12375229D01*
X30311634Y-12165051D01*
X30429579Y-11933572D01*
X30509860Y-11686493D01*
X30532539Y-11543298D01*
X30550500Y-11429902D01*
X30550500Y-10570097D01*
X30528947Y-10434021D01*
X30509860Y-10313507D01*
X30429579Y-10066428D01*
X30429577Y-10066425D01*
X30429577Y-10066423D01*
X30334599Y-9880021D01*
X30311634Y-9834949D01*
X30158931Y-9624771D01*
X29975229Y-9441069D01*
X29765051Y-9288366D01*
X29692764Y-9251534D01*
X29533576Y-9170422D01*
X29286493Y-9090140D01*
X29029902Y-9049500D01*
X29029897Y-9049500D01*
X28770103Y-9049500D01*
X28770098Y-9049500D01*
X28513506Y-9090140D01*
X28266423Y-9170422D01*
X28034945Y-9288368D01*
X27824774Y-9441066D01*
X27824768Y-9441071D01*
X27641071Y-9624768D01*
X27641066Y-9624774D01*
X27488368Y-9834945D01*
X27370422Y-10066423D01*
X27290140Y-10313506D01*
X27249500Y-10570097D01*
X26350500Y-10570097D01*
X26328947Y-10434021D01*
X26309860Y-10313507D01*
X26229579Y-10066428D01*
X26229577Y-10066425D01*
X26229577Y-10066423D01*
X26134599Y-9880021D01*
X26111634Y-9834949D01*
X25958931Y-9624771D01*
X25775229Y-9441069D01*
X25565051Y-9288366D01*
X25492764Y-9251534D01*
X25333576Y-9170422D01*
X25086493Y-9090140D01*
X24829902Y-9049500D01*
X24829897Y-9049500D01*
X24570103Y-9049500D01*
X24570098Y-9049500D01*
X24313506Y-9090140D01*
X24066423Y-9170422D01*
X23834945Y-9288368D01*
X23624774Y-9441066D01*
X23624768Y-9441071D01*
X23441071Y-9624768D01*
X23441066Y-9624774D01*
X23288368Y-9834945D01*
X23170422Y-10066423D01*
X23090140Y-10313506D01*
X23049500Y-10570097D01*
X22150500Y-10570097D01*
X22128947Y-10434021D01*
X22109860Y-10313507D01*
X22029579Y-10066428D01*
X22029577Y-10066425D01*
X22029577Y-10066423D01*
X21934599Y-9880021D01*
X21911634Y-9834949D01*
X21758931Y-9624771D01*
X21575229Y-9441069D01*
X21365051Y-9288366D01*
X21292764Y-9251534D01*
X21133576Y-9170422D01*
X20886493Y-9090140D01*
X20629902Y-9049500D01*
X20629897Y-9049500D01*
X20370103Y-9049500D01*
X20370098Y-9049500D01*
X20113506Y-9090140D01*
X19866423Y-9170422D01*
X19634945Y-9288368D01*
X19424774Y-9441066D01*
X19424768Y-9441071D01*
X19241071Y-9624768D01*
X19241066Y-9624774D01*
X19088368Y-9834945D01*
X18971871Y-10063581D01*
X18923896Y-10114377D01*
X18856075Y-10131172D01*
X18789940Y-10108634D01*
X18763009Y-10082771D01*
X18760491Y-10079489D01*
X18760489Y-10079486D01*
X16519302Y-7838299D01*
X16485817Y-7776976D01*
X16490801Y-7707284D01*
X16532673Y-7651351D01*
X16590798Y-7627679D01*
X16661687Y-7618346D01*
X16895939Y-7555578D01*
X17119978Y-7462779D01*
X17119993Y-7462772D01*
X17330009Y-7341519D01*
X17522405Y-7193889D01*
X17522412Y-7193883D01*
X17693883Y-7022412D01*
X17693889Y-7022405D01*
X17841519Y-6830009D01*
X17962772Y-6619993D01*
X17962779Y-6619978D01*
X18055578Y-6395939D01*
X18118346Y-6161687D01*
X18149998Y-5921264D01*
X18150000Y-5921248D01*
X18150000Y-5750000D01*
X16954121Y-5750000D01*
X16973099Y-5704182D01*
X17000000Y-5568944D01*
X17000000Y-5431056D01*
X16973099Y-5295818D01*
X16954121Y-5250000D01*
X18150000Y-5250000D01*
X18150000Y-5078751D01*
X18149998Y-5078733D01*
X18148861Y-5070097D01*
X18849500Y-5070097D01*
X18849500Y-5929902D01*
X18890140Y-6186493D01*
X18970422Y-6433576D01*
X19051534Y-6592764D01*
X19088366Y-6665051D01*
X19241069Y-6875229D01*
X19424771Y-7058931D01*
X19634949Y-7211634D01*
X19782445Y-7286787D01*
X19866423Y-7329577D01*
X19866425Y-7329577D01*
X19866428Y-7329579D01*
X20113507Y-7409860D01*
X20245706Y-7430797D01*
X20370098Y-7450500D01*
X20370103Y-7450500D01*
X20629902Y-7450500D01*
X20743298Y-7432539D01*
X20886493Y-7409860D01*
X21133572Y-7329579D01*
X21365051Y-7211634D01*
X21575229Y-7058931D01*
X21758931Y-6875229D01*
X21911634Y-6665051D01*
X22029579Y-6433572D01*
X22109860Y-6186493D01*
X22132539Y-6043298D01*
X22150500Y-5929902D01*
X22150500Y-5070097D01*
X23049500Y-5070097D01*
X23049500Y-5929902D01*
X23090140Y-6186493D01*
X23170422Y-6433576D01*
X23251534Y-6592764D01*
X23288366Y-6665051D01*
X23441069Y-6875229D01*
X23624771Y-7058931D01*
X23834949Y-7211634D01*
X23982445Y-7286787D01*
X24066423Y-7329577D01*
X24066425Y-7329577D01*
X24066428Y-7329579D01*
X24313507Y-7409860D01*
X24445706Y-7430797D01*
X24570098Y-7450500D01*
X24570103Y-7450500D01*
X24829902Y-7450500D01*
X24943298Y-7432539D01*
X25086493Y-7409860D01*
X25333572Y-7329579D01*
X25565051Y-7211634D01*
X25775229Y-7058931D01*
X25958931Y-6875229D01*
X26111634Y-6665051D01*
X26229579Y-6433572D01*
X26309860Y-6186493D01*
X26332539Y-6043298D01*
X26350500Y-5929902D01*
X26350500Y-5070097D01*
X27249500Y-5070097D01*
X27249500Y-5929902D01*
X27290140Y-6186493D01*
X27370422Y-6433576D01*
X27451534Y-6592764D01*
X27488366Y-6665051D01*
X27641069Y-6875229D01*
X27824771Y-7058931D01*
X28034949Y-7211634D01*
X28182445Y-7286787D01*
X28266423Y-7329577D01*
X28266425Y-7329577D01*
X28266428Y-7329579D01*
X28513507Y-7409860D01*
X28645706Y-7430797D01*
X28770098Y-7450500D01*
X28770103Y-7450500D01*
X29029902Y-7450500D01*
X29143298Y-7432539D01*
X29286493Y-7409860D01*
X29533572Y-7329579D01*
X29765051Y-7211634D01*
X29975229Y-7058931D01*
X30158931Y-6875229D01*
X30311634Y-6665051D01*
X30429579Y-6433572D01*
X30509860Y-6186493D01*
X30532539Y-6043298D01*
X30550500Y-5929902D01*
X30550500Y-5070097D01*
X31449500Y-5070097D01*
X31449500Y-5929902D01*
X31490140Y-6186493D01*
X31570422Y-6433576D01*
X31651534Y-6592764D01*
X31688366Y-6665051D01*
X31841069Y-6875229D01*
X32024771Y-7058931D01*
X32234949Y-7211634D01*
X32382445Y-7286787D01*
X32466423Y-7329577D01*
X32466425Y-7329577D01*
X32466428Y-7329579D01*
X32713507Y-7409860D01*
X32845706Y-7430797D01*
X32970098Y-7450500D01*
X32970103Y-7450500D01*
X33229902Y-7450500D01*
X33343298Y-7432539D01*
X33486493Y-7409860D01*
X33733572Y-7329579D01*
X33965051Y-7211634D01*
X34175229Y-7058931D01*
X34358931Y-6875229D01*
X34511634Y-6665051D01*
X34629579Y-6433572D01*
X34709860Y-6186493D01*
X34732539Y-6043298D01*
X34750500Y-5929902D01*
X34750500Y-5078751D01*
X35450000Y-5078751D01*
X35450000Y-5250000D01*
X36645879Y-5250000D01*
X36626901Y-5295818D01*
X36600000Y-5431056D01*
X36600000Y-5568944D01*
X36626901Y-5704182D01*
X36645879Y-5750000D01*
X35450000Y-5750000D01*
X35450000Y-5921248D01*
X35450001Y-5921264D01*
X35481653Y-6161687D01*
X35544421Y-6395939D01*
X35637220Y-6619978D01*
X35637227Y-6619993D01*
X35758480Y-6830009D01*
X35906110Y-7022405D01*
X35906116Y-7022412D01*
X36077587Y-7193883D01*
X36077594Y-7193889D01*
X36269990Y-7341519D01*
X36480006Y-7462772D01*
X36480021Y-7462779D01*
X36704060Y-7555578D01*
X36938312Y-7618346D01*
X37050000Y-7633049D01*
X37050000Y-6154120D01*
X37095818Y-6173099D01*
X37231056Y-6200000D01*
X37368944Y-6200000D01*
X37504182Y-6173099D01*
X37550000Y-6154120D01*
X37550000Y-7633048D01*
X37661687Y-7618346D01*
X37895939Y-7555578D01*
X38119978Y-7462779D01*
X38119993Y-7462772D01*
X38330009Y-7341519D01*
X38522405Y-7193889D01*
X38522412Y-7193883D01*
X38693883Y-7022412D01*
X38693889Y-7022405D01*
X38841519Y-6830009D01*
X38962772Y-6619993D01*
X38962779Y-6619978D01*
X39055578Y-6395939D01*
X39118346Y-6161687D01*
X39149998Y-5921264D01*
X39150000Y-5921248D01*
X39150000Y-5750000D01*
X37954121Y-5750000D01*
X37973099Y-5704182D01*
X38000000Y-5568944D01*
X38000000Y-5431056D01*
X37973099Y-5295818D01*
X37954121Y-5250000D01*
X39150000Y-5250000D01*
X39150000Y-5078751D01*
X39650000Y-5078751D01*
X39650000Y-5250000D01*
X40845879Y-5250000D01*
X40826901Y-5295818D01*
X40800000Y-5431056D01*
X40800000Y-5568944D01*
X40826901Y-5704182D01*
X40845879Y-5750000D01*
X39650000Y-5750000D01*
X39650000Y-5921248D01*
X39650001Y-5921264D01*
X39681653Y-6161687D01*
X39744421Y-6395939D01*
X39837220Y-6619978D01*
X39837227Y-6619993D01*
X39958480Y-6830009D01*
X40106110Y-7022405D01*
X40106116Y-7022412D01*
X40277587Y-7193883D01*
X40277594Y-7193889D01*
X40469990Y-7341519D01*
X40680006Y-7462772D01*
X40680021Y-7462779D01*
X40904060Y-7555578D01*
X41138312Y-7618346D01*
X41250000Y-7633049D01*
X41250000Y-6154120D01*
X41295818Y-6173099D01*
X41431056Y-6200000D01*
X41568944Y-6200000D01*
X41704182Y-6173099D01*
X41750000Y-6154120D01*
X41750000Y-7633049D01*
X41861687Y-7618346D01*
X42095939Y-7555578D01*
X42319978Y-7462779D01*
X42319993Y-7462772D01*
X42530009Y-7341519D01*
X42722405Y-7193889D01*
X42722412Y-7193883D01*
X42893883Y-7022412D01*
X42893889Y-7022405D01*
X43041519Y-6830009D01*
X43162772Y-6619993D01*
X43162779Y-6619978D01*
X43255578Y-6395939D01*
X43318346Y-6161687D01*
X43349998Y-5921264D01*
X43350000Y-5921248D01*
X43350000Y-5750000D01*
X42154121Y-5750000D01*
X42173099Y-5704182D01*
X42200000Y-5568944D01*
X42200000Y-5431056D01*
X42173099Y-5295818D01*
X42154121Y-5250000D01*
X43350000Y-5250000D01*
X43350000Y-5078751D01*
X43850000Y-5078751D01*
X43850000Y-5250000D01*
X45045879Y-5250000D01*
X45026901Y-5295818D01*
X45000000Y-5431056D01*
X45000000Y-5568944D01*
X45026901Y-5704182D01*
X45045879Y-5750000D01*
X43850000Y-5750000D01*
X43850000Y-5921248D01*
X43850001Y-5921264D01*
X43881653Y-6161687D01*
X43944421Y-6395939D01*
X44037220Y-6619978D01*
X44037227Y-6619993D01*
X44158480Y-6830009D01*
X44306110Y-7022405D01*
X44306116Y-7022412D01*
X44477587Y-7193883D01*
X44477594Y-7193889D01*
X44669990Y-7341519D01*
X44880006Y-7462772D01*
X44880021Y-7462779D01*
X45104060Y-7555578D01*
X45338312Y-7618346D01*
X45450000Y-7633049D01*
X45450000Y-6154120D01*
X45495818Y-6173099D01*
X45631056Y-6200000D01*
X45768944Y-6200000D01*
X45904182Y-6173099D01*
X45950000Y-6154120D01*
X45950000Y-7633048D01*
X46061687Y-7618346D01*
X46295939Y-7555578D01*
X46519978Y-7462779D01*
X46519993Y-7462772D01*
X46730009Y-7341519D01*
X46922405Y-7193889D01*
X46922412Y-7193883D01*
X47093883Y-7022412D01*
X47093889Y-7022405D01*
X47241519Y-6830009D01*
X47362772Y-6619993D01*
X47362779Y-6619978D01*
X47455578Y-6395939D01*
X47518346Y-6161687D01*
X47549998Y-5921264D01*
X47550000Y-5921248D01*
X47550000Y-5750000D01*
X46354121Y-5750000D01*
X46373099Y-5704182D01*
X46400000Y-5568944D01*
X46400000Y-5431056D01*
X46373099Y-5295818D01*
X46354121Y-5250000D01*
X47550000Y-5250000D01*
X47550000Y-5078751D01*
X47549998Y-5078735D01*
X47518346Y-4838312D01*
X47455578Y-4604060D01*
X47362779Y-4380021D01*
X47362772Y-4380006D01*
X47241519Y-4169990D01*
X47093889Y-3977594D01*
X47093883Y-3977587D01*
X46922412Y-3806116D01*
X46922405Y-3806110D01*
X46730009Y-3658480D01*
X46519993Y-3537227D01*
X46519978Y-3537220D01*
X46295939Y-3444421D01*
X46061687Y-3381653D01*
X45950000Y-3366948D01*
X45950000Y-4845879D01*
X45904182Y-4826901D01*
X45768944Y-4800000D01*
X45631056Y-4800000D01*
X45495818Y-4826901D01*
X45450000Y-4845879D01*
X45450000Y-3366948D01*
X45338312Y-3381653D01*
X45104060Y-3444421D01*
X44880021Y-3537220D01*
X44880006Y-3537227D01*
X44669990Y-3658480D01*
X44477594Y-3806110D01*
X44477587Y-3806116D01*
X44306116Y-3977587D01*
X44306110Y-3977594D01*
X44158480Y-4169990D01*
X44037227Y-4380006D01*
X44037220Y-4380021D01*
X43944421Y-4604060D01*
X43881653Y-4838312D01*
X43850001Y-5078735D01*
X43850000Y-5078751D01*
X43350000Y-5078751D01*
X43349998Y-5078735D01*
X43318346Y-4838312D01*
X43255578Y-4604060D01*
X43162779Y-4380021D01*
X43162772Y-4380006D01*
X43041519Y-4169990D01*
X42893889Y-3977594D01*
X42893883Y-3977587D01*
X42722412Y-3806116D01*
X42722405Y-3806110D01*
X42530009Y-3658480D01*
X42319993Y-3537227D01*
X42319978Y-3537220D01*
X42095939Y-3444421D01*
X41861687Y-3381653D01*
X41750000Y-3366948D01*
X41750000Y-4845879D01*
X41704182Y-4826901D01*
X41568944Y-4800000D01*
X41431056Y-4800000D01*
X41295818Y-4826901D01*
X41250000Y-4845879D01*
X41250000Y-3366948D01*
X41249999Y-3366948D01*
X41138312Y-3381653D01*
X40904060Y-3444421D01*
X40680021Y-3537220D01*
X40680006Y-3537227D01*
X40469990Y-3658480D01*
X40277594Y-3806110D01*
X40277587Y-3806116D01*
X40106116Y-3977587D01*
X40106110Y-3977594D01*
X39958480Y-4169990D01*
X39837227Y-4380006D01*
X39837220Y-4380021D01*
X39744421Y-4604060D01*
X39681653Y-4838312D01*
X39650001Y-5078735D01*
X39650000Y-5078751D01*
X39150000Y-5078751D01*
X39149998Y-5078735D01*
X39118346Y-4838312D01*
X39055578Y-4604060D01*
X38962779Y-4380021D01*
X38962772Y-4380006D01*
X38841519Y-4169990D01*
X38693889Y-3977594D01*
X38693883Y-3977587D01*
X38522412Y-3806116D01*
X38522405Y-3806110D01*
X38330009Y-3658480D01*
X38119993Y-3537227D01*
X38119978Y-3537220D01*
X37895939Y-3444421D01*
X37661687Y-3381653D01*
X37550000Y-3366948D01*
X37550000Y-4845879D01*
X37504182Y-4826901D01*
X37368944Y-4800000D01*
X37231056Y-4800000D01*
X37095818Y-4826901D01*
X37050000Y-4845879D01*
X37050000Y-3366948D01*
X37049999Y-3366948D01*
X36938312Y-3381653D01*
X36704060Y-3444421D01*
X36480021Y-3537220D01*
X36480006Y-3537227D01*
X36269990Y-3658480D01*
X36077594Y-3806110D01*
X36077587Y-3806116D01*
X35906116Y-3977587D01*
X35906110Y-3977594D01*
X35758480Y-4169990D01*
X35637227Y-4380006D01*
X35637220Y-4380021D01*
X35544421Y-4604060D01*
X35481653Y-4838312D01*
X35450001Y-5078735D01*
X35450000Y-5078751D01*
X34750500Y-5078751D01*
X34750500Y-5070097D01*
X34722506Y-4893354D01*
X34709860Y-4813507D01*
X34629579Y-4566428D01*
X34629577Y-4566425D01*
X34629577Y-4566423D01*
X34534599Y-4380021D01*
X34511634Y-4334949D01*
X34358931Y-4124771D01*
X34175229Y-3941069D01*
X33965051Y-3788366D01*
X33892764Y-3751534D01*
X33733576Y-3670422D01*
X33486493Y-3590140D01*
X33229902Y-3549500D01*
X33229897Y-3549500D01*
X32970103Y-3549500D01*
X32970098Y-3549500D01*
X32713506Y-3590140D01*
X32466423Y-3670422D01*
X32234945Y-3788368D01*
X32024774Y-3941066D01*
X32024768Y-3941071D01*
X31841071Y-4124768D01*
X31841066Y-4124774D01*
X31688368Y-4334945D01*
X31570422Y-4566423D01*
X31490140Y-4813506D01*
X31449500Y-5070097D01*
X30550500Y-5070097D01*
X30522506Y-4893354D01*
X30509860Y-4813507D01*
X30429579Y-4566428D01*
X30429577Y-4566425D01*
X30429577Y-4566423D01*
X30334599Y-4380021D01*
X30311634Y-4334949D01*
X30158931Y-4124771D01*
X29975229Y-3941069D01*
X29765051Y-3788366D01*
X29692764Y-3751534D01*
X29533576Y-3670422D01*
X29286493Y-3590140D01*
X29029902Y-3549500D01*
X29029897Y-3549500D01*
X28770103Y-3549500D01*
X28770098Y-3549500D01*
X28513506Y-3590140D01*
X28266423Y-3670422D01*
X28034945Y-3788368D01*
X27824774Y-3941066D01*
X27824768Y-3941071D01*
X27641071Y-4124768D01*
X27641066Y-4124774D01*
X27488368Y-4334945D01*
X27370422Y-4566423D01*
X27290140Y-4813506D01*
X27249500Y-5070097D01*
X26350500Y-5070097D01*
X26322506Y-4893354D01*
X26309860Y-4813507D01*
X26229579Y-4566428D01*
X26229577Y-4566425D01*
X26229577Y-4566423D01*
X26134599Y-4380021D01*
X26111634Y-4334949D01*
X25958931Y-4124771D01*
X25775229Y-3941069D01*
X25565051Y-3788366D01*
X25492764Y-3751534D01*
X25333576Y-3670422D01*
X25086493Y-3590140D01*
X24829902Y-3549500D01*
X24829897Y-3549500D01*
X24570103Y-3549500D01*
X24570098Y-3549500D01*
X24313506Y-3590140D01*
X24066423Y-3670422D01*
X23834945Y-3788368D01*
X23624774Y-3941066D01*
X23624768Y-3941071D01*
X23441071Y-4124768D01*
X23441066Y-4124774D01*
X23288368Y-4334945D01*
X23170422Y-4566423D01*
X23090140Y-4813506D01*
X23049500Y-5070097D01*
X22150500Y-5070097D01*
X22122506Y-4893354D01*
X22109860Y-4813507D01*
X22029579Y-4566428D01*
X22029577Y-4566425D01*
X22029577Y-4566423D01*
X21934599Y-4380021D01*
X21911634Y-4334949D01*
X21758931Y-4124771D01*
X21575229Y-3941069D01*
X21365051Y-3788366D01*
X21292764Y-3751534D01*
X21133576Y-3670422D01*
X20886493Y-3590140D01*
X20629902Y-3549500D01*
X20629897Y-3549500D01*
X20370103Y-3549500D01*
X20370098Y-3549500D01*
X20113506Y-3590140D01*
X19866423Y-3670422D01*
X19634945Y-3788368D01*
X19424774Y-3941066D01*
X19424768Y-3941071D01*
X19241071Y-4124768D01*
X19241066Y-4124774D01*
X19088368Y-4334945D01*
X18970422Y-4566423D01*
X18890140Y-4813506D01*
X18849500Y-5070097D01*
X18148861Y-5070097D01*
X18118346Y-4838312D01*
X18055578Y-4604060D01*
X17962779Y-4380021D01*
X17962772Y-4380006D01*
X17841519Y-4169990D01*
X17693889Y-3977594D01*
X17693883Y-3977587D01*
X17522412Y-3806116D01*
X17522405Y-3806110D01*
X17330009Y-3658480D01*
X17119993Y-3537227D01*
X17119978Y-3537220D01*
X16895939Y-3444421D01*
X16661687Y-3381653D01*
X16550000Y-3366948D01*
X16550000Y-4845879D01*
X16504182Y-4826901D01*
X16368944Y-4800000D01*
X16231056Y-4800000D01*
X16095818Y-4826901D01*
X16050000Y-4845879D01*
X16050000Y-3366948D01*
X15938312Y-3381653D01*
X15704060Y-3444421D01*
X15480021Y-3537220D01*
X15480006Y-3537227D01*
X15269990Y-3658480D01*
X15077594Y-3806110D01*
X15077587Y-3806116D01*
X14906116Y-3977587D01*
X14906110Y-3977594D01*
X14758480Y-4169990D01*
X14637227Y-4380006D01*
X14637220Y-4380021D01*
X14544421Y-4604060D01*
X14481653Y-4838312D01*
X14450001Y-5078735D01*
X14450000Y-5078751D01*
X14450000Y-5250000D01*
X15645879Y-5250000D01*
X15626901Y-5295818D01*
X15600000Y-5431056D01*
X15600000Y-5568944D01*
X15626901Y-5704182D01*
X15645879Y-5750000D01*
X14482365Y-5750000D01*
X14415326Y-5730315D01*
X14394684Y-5713681D01*
X11920516Y-3239513D01*
X11920514Y-3239511D01*
X11851908Y-3199901D01*
X11817788Y-3180201D01*
X11805680Y-3176957D01*
X11793573Y-3173713D01*
X11793571Y-3173712D01*
X11731621Y-3157113D01*
X11671961Y-3120748D01*
X11653230Y-3093633D01*
X11615937Y-3020442D01*
X11603996Y-2997006D01*
X11585681Y-2971797D01*
X11497558Y-2850505D01*
X11497554Y-2850500D01*
X11369499Y-2722445D01*
X11369494Y-2722441D01*
X11222997Y-2616006D01*
X11222996Y-2616005D01*
X11222994Y-2616004D01*
X11171300Y-2589664D01*
X11061639Y-2533788D01*
X11061636Y-2533787D01*
X10889410Y-2477829D01*
X10710551Y-2449500D01*
X10710546Y-2449500D01*
X10529454Y-2449500D01*
X10529449Y-2449500D01*
X10350589Y-2477829D01*
X10178363Y-2533787D01*
X10178360Y-2533788D01*
X10017002Y-2616006D01*
X9870505Y-2722441D01*
X9870500Y-2722445D01*
X9742445Y-2850500D01*
X9742441Y-2850505D01*
X9636006Y-2997002D01*
X9553788Y-3158360D01*
X9553787Y-3158363D01*
X9497829Y-3330589D01*
X9472473Y-3490678D01*
X9442544Y-3553813D01*
X9383232Y-3590744D01*
X9313369Y-3589746D01*
X9255137Y-3551136D01*
X9227527Y-3490678D01*
X9205245Y-3350000D01*
X9202171Y-3330591D01*
X9146211Y-3158361D01*
X9146211Y-3158360D01*
X9075937Y-3020442D01*
X9063996Y-2997006D01*
X9045681Y-2971797D01*
X8957558Y-2850505D01*
X8957554Y-2850500D01*
X8829499Y-2722445D01*
X8829494Y-2722441D01*
X8682997Y-2616006D01*
X8682996Y-2616005D01*
X8682994Y-2616004D01*
X8631300Y-2589664D01*
X8521639Y-2533788D01*
X8521636Y-2533787D01*
X8349410Y-2477829D01*
X8170551Y-2449500D01*
X8170546Y-2449500D01*
X7989454Y-2449500D01*
X7989449Y-2449500D01*
X7810589Y-2477829D01*
X7638363Y-2533787D01*
X7638360Y-2533788D01*
X7477002Y-2616006D01*
X7330505Y-2722441D01*
X7330500Y-2722445D01*
X7202445Y-2850500D01*
X7202441Y-2850505D01*
X7096006Y-2997002D01*
X7013788Y-3158360D01*
X7013787Y-3158363D01*
X6957829Y-3330589D01*
X6932473Y-3490678D01*
X6902544Y-3553813D01*
X6843232Y-3590744D01*
X6773369Y-3589746D01*
X6715137Y-3551136D01*
X6687527Y-3490678D01*
X6665245Y-3350000D01*
X6662171Y-3330591D01*
X6606211Y-3158361D01*
X6606211Y-3158360D01*
X6535937Y-3020442D01*
X6523996Y-2997006D01*
X6505681Y-2971797D01*
X6417558Y-2850505D01*
X6417554Y-2850500D01*
X6289499Y-2722445D01*
X6289494Y-2722441D01*
X6142997Y-2616006D01*
X6142996Y-2616005D01*
X6142994Y-2616004D01*
X6091300Y-2589664D01*
X5981639Y-2533788D01*
X5981636Y-2533787D01*
X5809410Y-2477829D01*
X5630551Y-2449500D01*
X5630546Y-2449500D01*
X5449454Y-2449500D01*
X5449449Y-2449500D01*
X5270589Y-2477829D01*
X5098363Y-2533787D01*
X5098360Y-2533788D01*
X4937002Y-2616006D01*
X4790505Y-2722441D01*
X4790500Y-2722445D01*
X4662445Y-2850500D01*
X4662441Y-2850505D01*
X4574318Y-2971797D01*
X4518988Y-3014463D01*
X4449375Y-3020442D01*
X4387580Y-2987836D01*
X4353223Y-2926998D01*
X4350000Y-2898912D01*
X4350000Y-2702172D01*
X4349999Y-2702155D01*
X4343598Y-2642627D01*
X4343596Y-2642620D01*
X4293354Y-2507913D01*
X4293350Y-2507906D01*
X4207190Y-2392812D01*
X4207187Y-2392809D01*
X4092093Y-2306649D01*
X4092086Y-2306645D01*
X3957379Y-2256403D01*
X3957372Y-2256401D01*
X3897844Y-2250000D01*
X3250000Y-2250000D01*
X3250000Y-3166988D01*
X3192993Y-3134075D01*
X3065826Y-3100000D01*
X2934174Y-3100000D01*
X2807007Y-3134075D01*
X2750000Y-3166988D01*
X2750000Y-2250000D01*
X2102155Y-2250000D01*
X2042627Y-2256401D01*
X2042620Y-2256403D01*
X1907913Y-2306645D01*
X1907906Y-2306649D01*
X1792812Y-2392809D01*
X1792809Y-2392812D01*
X1706649Y-2507906D01*
X1706645Y-2507913D01*
X1656403Y-2642620D01*
X1656401Y-2642627D01*
X1650000Y-2702155D01*
X1650000Y-3350000D01*
X2566988Y-3350000D01*
X2534075Y-3407007D01*
X2500000Y-3534174D01*
X2500000Y-3665826D01*
X2534075Y-3792993D01*
X2566988Y-3850000D01*
X1650000Y-3850000D01*
X1650000Y-4497844D01*
X1656401Y-4557372D01*
X1656403Y-4557379D01*
X1706645Y-4692086D01*
X1706649Y-4692093D01*
X1792809Y-4807187D01*
X1792812Y-4807190D01*
X1907906Y-4893350D01*
X1907913Y-4893354D01*
X2042620Y-4943596D01*
X2042627Y-4943598D01*
X2102155Y-4949999D01*
X2102172Y-4950000D01*
X2750000Y-4950000D01*
X2750000Y-4033012D01*
X2807007Y-4065925D01*
X2934174Y-4100000D01*
X3065826Y-4100000D01*
X3192993Y-4065925D01*
X3250000Y-4033012D01*
X3250000Y-4950000D01*
X3897828Y-4950000D01*
X3897844Y-4949999D01*
X3957372Y-4943598D01*
X3957379Y-4943596D01*
X4092086Y-4893354D01*
X4092093Y-4893350D01*
X4207187Y-4807190D01*
X4207190Y-4807187D01*
X4293350Y-4692093D01*
X4293354Y-4692086D01*
X4343596Y-4557379D01*
X4343598Y-4557372D01*
X4349999Y-4497844D01*
X4350000Y-4497827D01*
X4350000Y-4301087D01*
X4369685Y-4234048D01*
X4422489Y-4188293D01*
X4491647Y-4178349D01*
X4555203Y-4207374D01*
X4574318Y-4228202D01*
X4662441Y-4349495D01*
X4790500Y-4477554D01*
X4790505Y-4477558D01*
X4818427Y-4497844D01*
X4937006Y-4583996D01*
X5042484Y-4637740D01*
X5098360Y-4666211D01*
X5098363Y-4666212D01*
X5173947Y-4690770D01*
X5270591Y-4722171D01*
X5353429Y-4735291D01*
X5449449Y-4750500D01*
X5449454Y-4750500D01*
X5630551Y-4750500D01*
X5717259Y-4736765D01*
X5809409Y-4722171D01*
X5981639Y-4666211D01*
X6142994Y-4583996D01*
X6289501Y-4477553D01*
X6417553Y-4349501D01*
X6523996Y-4202994D01*
X6606211Y-4041639D01*
X6662171Y-3869409D01*
X6676422Y-3779425D01*
X6687527Y-3709321D01*
X6717456Y-3646186D01*
X6776768Y-3609255D01*
X6846630Y-3610253D01*
X6904863Y-3648863D01*
X6932473Y-3709321D01*
X6957829Y-3869410D01*
X7013787Y-4041636D01*
X7013788Y-4041639D01*
X7068749Y-4149504D01*
X7088513Y-4188293D01*
X7096006Y-4202997D01*
X7202441Y-4349494D01*
X7202445Y-4349499D01*
X7330500Y-4477554D01*
X7330505Y-4477558D01*
X7358427Y-4497844D01*
X7477006Y-4583996D01*
X7582484Y-4637740D01*
X7638360Y-4666211D01*
X7638363Y-4666212D01*
X7713947Y-4690770D01*
X7810591Y-4722171D01*
X7893429Y-4735291D01*
X7989449Y-4750500D01*
X7989454Y-4750500D01*
X8170551Y-4750500D01*
X8257259Y-4736765D01*
X8349409Y-4722171D01*
X8439913Y-4692765D01*
X8509754Y-4690770D01*
X8565912Y-4723015D01*
X11983181Y-8140284D01*
X12016666Y-8201607D01*
X12019500Y-8227965D01*
X12019500Y-16229940D01*
X11999815Y-16296979D01*
X11947011Y-16342734D01*
X11877853Y-16352678D01*
X11822617Y-16330260D01*
X11807695Y-16319419D01*
X11802994Y-16316004D01*
X11718202Y-16272800D01*
X11641639Y-16233788D01*
X11641636Y-16233787D01*
X11469410Y-16177829D01*
X11290551Y-16149500D01*
X11290546Y-16149500D01*
X11109454Y-16149500D01*
X11109449Y-16149500D01*
X10930589Y-16177829D01*
X10758363Y-16233787D01*
X10758360Y-16233788D01*
X10597002Y-16316006D01*
X10450505Y-16422441D01*
X10450500Y-16422445D01*
X10322445Y-16550500D01*
X10322441Y-16550505D01*
X10216004Y-16697004D01*
X10148908Y-16828685D01*
X10100933Y-16879480D01*
X10033112Y-16896275D01*
X9966977Y-16873737D01*
X9923527Y-16819021D01*
X9920492Y-16810705D01*
X9911094Y-16781780D01*
X9814620Y-16592442D01*
X9689727Y-16420540D01*
X9689723Y-16420535D01*
X9539464Y-16270276D01*
X9539459Y-16270272D01*
X9367557Y-16145379D01*
X9178215Y-16048903D01*
X8976124Y-15983241D01*
X8910000Y-15972768D01*
X8910000Y-16866988D01*
X8852993Y-16834075D01*
X8725826Y-16800000D01*
X8594174Y-16800000D01*
X8467007Y-16834075D01*
X8410000Y-16866988D01*
X8410000Y-15972768D01*
X8409999Y-15972768D01*
X8343875Y-15983241D01*
X8141784Y-16048903D01*
X7952442Y-16145379D01*
X7780540Y-16270272D01*
X7780535Y-16270276D01*
X7630276Y-16420535D01*
X7630272Y-16420540D01*
X7505379Y-16592442D01*
X7408904Y-16781782D01*
X7343242Y-16983870D01*
X7343242Y-16983873D01*
X7332769Y-17050000D01*
X8226988Y-17050000D01*
X8194075Y-17107007D01*
X8160000Y-17234174D01*
X8160000Y-17365826D01*
X8194075Y-17492993D01*
X8226988Y-17550000D01*
X7332769Y-17550000D01*
X7343242Y-17616126D01*
X7343242Y-17616129D01*
X7408904Y-17818217D01*
X7505379Y-18007557D01*
X7630272Y-18179459D01*
X7630276Y-18179464D01*
X7780535Y-18329723D01*
X7780540Y-18329727D01*
X7952442Y-18454620D01*
X8141782Y-18551095D01*
X8343871Y-18616757D01*
X8410000Y-18627231D01*
X8410000Y-17733012D01*
X8467007Y-17765925D01*
X8594174Y-17800000D01*
X8725826Y-17800000D01*
X8852993Y-17765925D01*
X8910000Y-17733012D01*
X8910000Y-18627230D01*
X8976126Y-18616757D01*
X8976129Y-18616757D01*
X9178217Y-18551095D01*
X9367557Y-18454620D01*
X9539459Y-18329727D01*
X9539464Y-18329723D01*
X9689723Y-18179464D01*
X9689727Y-18179459D01*
X9814620Y-18007557D01*
X9911095Y-17818217D01*
X9920492Y-17789295D01*
X9959928Y-17731618D01*
X10024286Y-17704419D01*
X10093133Y-17716331D01*
X10144610Y-17763574D01*
X10148908Y-17771314D01*
X10216004Y-17902995D01*
X10322441Y-18049494D01*
X10322445Y-18049499D01*
X10450500Y-18177554D01*
X10450505Y-18177558D01*
X10530164Y-18235433D01*
X10597006Y-18283996D01*
X10681796Y-18327199D01*
X10758360Y-18366211D01*
X10758363Y-18366212D01*
X10844476Y-18394191D01*
X10930591Y-18422171D01*
X11013429Y-18435291D01*
X11109449Y-18450500D01*
X11109454Y-18450500D01*
X11290551Y-18450500D01*
X11377259Y-18436765D01*
X11469409Y-18422171D01*
X11641639Y-18366211D01*
X11802994Y-18283996D01*
X11949501Y-18177553D01*
X12018097Y-18108956D01*
X12079416Y-18075474D01*
X12149108Y-18080458D01*
X12193456Y-18108959D01*
X12980586Y-18896089D01*
X13083313Y-18955399D01*
X13107521Y-18961884D01*
X13107524Y-18961886D01*
X13107525Y-18961886D01*
X13137647Y-18969957D01*
X13197891Y-18986100D01*
X13197893Y-18986100D01*
X14266408Y-18986100D01*
X14266409Y-18986100D01*
X14356773Y-18961886D01*
X14380987Y-18955399D01*
X14483714Y-18896089D01*
X15278695Y-18101107D01*
X15340016Y-18067624D01*
X15409707Y-18072608D01*
X15454055Y-18101109D01*
X15530500Y-18177554D01*
X15530505Y-18177558D01*
X15677001Y-18283993D01*
X15677003Y-18283994D01*
X15677006Y-18283996D01*
X15761795Y-18327198D01*
X15812591Y-18375173D01*
X15829500Y-18437683D01*
X15829500Y-21158108D01*
X15853712Y-21248472D01*
X15860200Y-21272685D01*
X15860200Y-21272686D01*
X15860201Y-21272687D01*
X15919511Y-21375414D01*
X15919513Y-21375416D01*
X19077381Y-24533284D01*
X19110866Y-24594607D01*
X19113700Y-24620965D01*
X19113700Y-29059133D01*
X19094015Y-29126172D01*
X19077382Y-29146814D01*
X19008416Y-29215781D01*
X18947093Y-29249266D01*
X18920734Y-29252100D01*
X15386991Y-29252100D01*
X15296625Y-29276313D01*
X15296624Y-29276312D01*
X15272415Y-29282800D01*
X15272406Y-29282804D01*
X15169692Y-29342105D01*
X15169684Y-29342111D01*
X12109513Y-32402283D01*
X12109509Y-32402289D01*
X12050201Y-32505012D01*
X12050200Y-32505017D01*
X12019500Y-32619591D01*
X12019500Y-38860066D01*
X11999815Y-38927105D01*
X11947011Y-38972860D01*
X11877853Y-38982804D01*
X11839205Y-38970551D01*
X11718214Y-38908903D01*
X11718216Y-38908903D01*
X11516124Y-38843241D01*
X11450000Y-38832768D01*
X11450000Y-39726988D01*
X11392993Y-39694075D01*
X11265826Y-39660000D01*
X11134174Y-39660000D01*
X11007007Y-39694075D01*
X10950000Y-39726988D01*
X10950000Y-38832768D01*
X10949999Y-38832768D01*
X10883875Y-38843241D01*
X10681784Y-38908903D01*
X10492442Y-39005379D01*
X10320540Y-39130272D01*
X10320535Y-39130276D01*
X10170276Y-39280535D01*
X10170272Y-39280540D01*
X10045377Y-39452444D01*
X10040484Y-39462048D01*
X9992509Y-39512844D01*
X9924688Y-39529638D01*
X9858553Y-39507100D01*
X9819516Y-39462048D01*
X9814622Y-39452444D01*
X9689727Y-39280540D01*
X9689723Y-39280535D01*
X9539464Y-39130276D01*
X9539459Y-39130272D01*
X9367557Y-39005379D01*
X9178215Y-38908903D01*
X8976124Y-38843241D01*
X8910000Y-38832768D01*
X8910000Y-39726988D01*
X8852993Y-39694075D01*
X8725826Y-39660000D01*
X8594174Y-39660000D01*
X8467007Y-39694075D01*
X8410000Y-39726988D01*
X8410000Y-38832768D01*
X8409999Y-38832768D01*
X8343875Y-38843241D01*
X8141784Y-38908903D01*
X7952442Y-39005379D01*
X7780540Y-39130272D01*
X7780535Y-39130276D01*
X7630276Y-39280535D01*
X7630272Y-39280540D01*
X7505379Y-39452442D01*
X7408904Y-39641782D01*
X7343242Y-39843870D01*
X7343242Y-39843873D01*
X7332769Y-39910000D01*
X8226988Y-39910000D01*
X8194075Y-39967007D01*
X8160000Y-40094174D01*
X8160000Y-40225826D01*
X8194075Y-40352993D01*
X8226988Y-40410000D01*
X7332769Y-40410000D01*
X7343242Y-40476126D01*
X7343242Y-40476129D01*
X7408904Y-40678217D01*
X7505379Y-40867557D01*
X7630272Y-41039459D01*
X7630276Y-41039464D01*
X7780535Y-41189723D01*
X7780540Y-41189727D01*
X7952442Y-41314620D01*
X8141782Y-41411095D01*
X8343871Y-41476757D01*
X8410000Y-41487231D01*
X8410000Y-40593012D01*
X8467007Y-40625925D01*
X8594174Y-40660000D01*
X8725826Y-40660000D01*
X8852993Y-40625925D01*
X8910000Y-40593012D01*
X8910000Y-41487230D01*
X8976126Y-41476757D01*
X8976129Y-41476757D01*
X9178217Y-41411095D01*
X9367557Y-41314620D01*
X9539459Y-41189727D01*
X9539464Y-41189723D01*
X9689723Y-41039464D01*
X9689727Y-41039459D01*
X9814620Y-40867558D01*
X9819514Y-40857954D01*
X9867488Y-40807157D01*
X9935308Y-40790361D01*
X10001444Y-40812897D01*
X10040486Y-40857954D01*
X10045379Y-40867558D01*
X10170272Y-41039459D01*
X10170276Y-41039464D01*
X10320535Y-41189723D01*
X10320540Y-41189727D01*
X10492442Y-41314620D01*
X10681782Y-41411095D01*
X10883871Y-41476757D01*
X10950000Y-41487231D01*
X10950000Y-40593012D01*
X11007007Y-40625925D01*
X11134174Y-40660000D01*
X11265826Y-40660000D01*
X11392993Y-40625925D01*
X11450000Y-40593012D01*
X11450000Y-41487230D01*
X11516126Y-41476757D01*
X11516129Y-41476757D01*
X11718219Y-41411094D01*
X11839204Y-41349449D01*
X11907873Y-41336552D01*
X11972614Y-41362828D01*
X12012872Y-41419934D01*
X12019500Y-41459933D01*
X12019500Y-45051261D01*
X11999815Y-45118300D01*
X11947011Y-45164055D01*
X11877853Y-45173999D01*
X11876103Y-45173734D01*
X11726247Y-45150000D01*
X11513754Y-45150000D01*
X11303872Y-45183242D01*
X11303869Y-45183242D01*
X11101782Y-45248904D01*
X10912439Y-45345380D01*
X10858282Y-45384727D01*
X10858282Y-45384728D01*
X11490591Y-46017037D01*
X11427007Y-46034075D01*
X11312993Y-46099901D01*
X11219901Y-46192993D01*
X11154075Y-46307007D01*
X11137037Y-46370591D01*
X10504728Y-45738282D01*
X10504727Y-45738282D01*
X10465380Y-45792439D01*
X10368905Y-45981781D01*
X10359506Y-46010708D01*
X10320068Y-46068383D01*
X10255709Y-46095581D01*
X10186862Y-46083666D01*
X10135387Y-46036421D01*
X10131090Y-46028684D01*
X10091251Y-45950497D01*
X10063996Y-45897006D01*
X10045546Y-45871612D01*
X9957558Y-45750505D01*
X9957554Y-45750500D01*
X9829499Y-45622445D01*
X9829494Y-45622441D01*
X9682997Y-45516006D01*
X9682996Y-45516005D01*
X9682994Y-45516004D01*
X9606906Y-45477235D01*
X9521639Y-45433788D01*
X9521636Y-45433787D01*
X9349410Y-45377829D01*
X9170551Y-45349500D01*
X9170546Y-45349500D01*
X8989454Y-45349500D01*
X8989449Y-45349500D01*
X8810589Y-45377829D01*
X8638363Y-45433787D01*
X8638360Y-45433788D01*
X8477002Y-45516006D01*
X8330505Y-45622441D01*
X8330500Y-45622445D01*
X8202445Y-45750500D01*
X8202441Y-45750505D01*
X8096006Y-45897002D01*
X8013788Y-46058360D01*
X8013787Y-46058363D01*
X7957829Y-46230589D01*
X7932473Y-46390678D01*
X7902544Y-46453813D01*
X7843232Y-46490744D01*
X7773369Y-46489746D01*
X7715137Y-46451136D01*
X7687527Y-46390678D01*
X7662410Y-46232103D01*
X7662171Y-46230591D01*
X7619708Y-46099901D01*
X7606212Y-46058363D01*
X7606211Y-46058360D01*
X7551251Y-45950497D01*
X7523996Y-45897006D01*
X7505546Y-45871612D01*
X7417558Y-45750505D01*
X7417554Y-45750500D01*
X7289499Y-45622445D01*
X7289494Y-45622441D01*
X7142997Y-45516006D01*
X7142996Y-45516005D01*
X7142994Y-45516004D01*
X7066906Y-45477235D01*
X6981639Y-45433788D01*
X6981636Y-45433787D01*
X6809410Y-45377829D01*
X6630551Y-45349500D01*
X6630546Y-45349500D01*
X6449454Y-45349500D01*
X6449449Y-45349500D01*
X6270589Y-45377829D01*
X6098363Y-45433787D01*
X6098360Y-45433788D01*
X5937002Y-45516006D01*
X5790505Y-45622441D01*
X5790500Y-45622445D01*
X5662445Y-45750500D01*
X5662441Y-45750505D01*
X5556006Y-45897002D01*
X5473788Y-46058360D01*
X5473787Y-46058363D01*
X5417829Y-46230589D01*
X5396972Y-46362271D01*
X5367042Y-46425405D01*
X5307731Y-46462336D01*
X5237868Y-46461338D01*
X5179636Y-46422728D01*
X5151522Y-46358764D01*
X5150499Y-46342872D01*
X5150499Y-45605143D01*
X5150499Y-45605136D01*
X5150497Y-45605117D01*
X5147586Y-45580012D01*
X5147585Y-45580010D01*
X5147585Y-45580009D01*
X5102206Y-45477235D01*
X5022765Y-45397794D01*
X5022763Y-45397793D01*
X4919992Y-45352415D01*
X4894865Y-45349500D01*
X3105143Y-45349500D01*
X3105117Y-45349502D01*
X3080012Y-45352413D01*
X3080008Y-45352415D01*
X2977235Y-45397793D01*
X2897794Y-45477234D01*
X2852415Y-45580006D01*
X2852415Y-45580008D01*
X2849500Y-45605131D01*
X2849500Y-47394856D01*
X2849502Y-47394882D01*
X2852413Y-47419987D01*
X2852415Y-47419991D01*
X2897793Y-47522764D01*
X2897794Y-47522765D01*
X2977235Y-47602206D01*
X3080009Y-47647585D01*
X3105135Y-47650500D01*
X4894864Y-47650499D01*
X4894879Y-47650497D01*
X4894882Y-47650497D01*
X4919987Y-47647586D01*
X4919988Y-47647585D01*
X4919991Y-47647585D01*
X5022765Y-47602206D01*
X5102206Y-47522765D01*
X5147585Y-47419991D01*
X5150500Y-47394865D01*
X5150499Y-46657125D01*
X5170183Y-46590089D01*
X5222987Y-46544334D01*
X5292146Y-46534390D01*
X5355702Y-46563415D01*
X5393476Y-46622193D01*
X5396972Y-46637729D01*
X5417829Y-46769410D01*
X5473787Y-46941636D01*
X5473788Y-46941639D01*
X5528747Y-47049500D01*
X5548513Y-47088293D01*
X5556006Y-47102997D01*
X5662441Y-47249494D01*
X5662445Y-47249499D01*
X5790500Y-47377554D01*
X5790505Y-47377558D01*
X5874296Y-47438435D01*
X5937006Y-47483996D01*
X6013094Y-47522765D01*
X6098360Y-47566211D01*
X6098363Y-47566212D01*
X6170131Y-47589530D01*
X6270591Y-47622171D01*
X6353429Y-47635291D01*
X6449449Y-47650500D01*
X6449454Y-47650500D01*
X6630551Y-47650500D01*
X6717259Y-47636765D01*
X6809409Y-47622171D01*
X6899913Y-47592765D01*
X6969754Y-47590770D01*
X7025912Y-47623015D01*
X8065787Y-48662890D01*
X8140453Y-48705998D01*
X8168514Y-48722199D01*
X8283091Y-48752900D01*
X8283094Y-48752900D01*
X15964008Y-48752900D01*
X15964009Y-48752900D01*
X16054373Y-48728686D01*
X16078587Y-48722199D01*
X16181314Y-48662889D01*
X17130489Y-47713714D01*
X17189799Y-47610987D01*
X17203993Y-47558013D01*
X17211867Y-47528623D01*
X17248229Y-47468966D01*
X17311075Y-47438435D01*
X17380451Y-47446727D01*
X17404524Y-47460397D01*
X17437006Y-47483996D01*
X17490495Y-47511250D01*
X17598360Y-47566211D01*
X17598363Y-47566212D01*
X17670131Y-47589530D01*
X17770591Y-47622171D01*
X17853429Y-47635291D01*
X17949449Y-47650500D01*
X17949454Y-47650500D01*
X18130551Y-47650500D01*
X18217259Y-47636765D01*
X18309409Y-47622171D01*
X18481639Y-47566211D01*
X18642994Y-47483996D01*
X18761573Y-47397844D01*
X18789495Y-47377558D01*
X18789497Y-47377555D01*
X18789501Y-47377553D01*
X18917553Y-47249501D01*
X19023996Y-47102994D01*
X19091090Y-46971314D01*
X19139065Y-46920519D01*
X19206886Y-46903724D01*
X19273021Y-46926262D01*
X19316472Y-46980977D01*
X19319506Y-46989292D01*
X19328904Y-47018217D01*
X19425375Y-47207550D01*
X19464728Y-47261716D01*
X20097037Y-46629408D01*
X20114075Y-46692993D01*
X20179901Y-46807007D01*
X20272993Y-46900099D01*
X20387007Y-46965925D01*
X20450590Y-46982962D01*
X19818282Y-47615269D01*
X19818282Y-47615270D01*
X19872449Y-47654624D01*
X20061782Y-47751095D01*
X20263870Y-47816757D01*
X20473754Y-47850000D01*
X20686246Y-47850000D01*
X20896127Y-47816757D01*
X20896130Y-47816757D01*
X21098217Y-47751095D01*
X21287554Y-47654622D01*
X21341716Y-47615270D01*
X21341717Y-47615270D01*
X20709408Y-46982962D01*
X20772993Y-46965925D01*
X20887007Y-46900099D01*
X20980099Y-46807007D01*
X21045925Y-46692993D01*
X21062962Y-46629409D01*
X21695270Y-47261717D01*
X21695270Y-47261716D01*
X21734622Y-47207554D01*
X21831095Y-47018217D01*
X21896757Y-46816130D01*
X21896757Y-46816127D01*
X21918439Y-46679240D01*
X21930000Y-46606246D01*
X21930000Y-46393753D01*
X21896757Y-46183872D01*
X21896757Y-46183869D01*
X21831095Y-45981782D01*
X21734624Y-45792449D01*
X21695270Y-45738282D01*
X21695269Y-45738282D01*
X21062962Y-46370590D01*
X21045925Y-46307007D01*
X20980099Y-46192993D01*
X20887007Y-46099901D01*
X20772993Y-46034075D01*
X20709408Y-46017037D01*
X21124290Y-45602155D01*
X23150000Y-45602155D01*
X23150000Y-46250000D01*
X24066988Y-46250000D01*
X24034075Y-46307007D01*
X24000000Y-46434174D01*
X24000000Y-46565826D01*
X24034075Y-46692993D01*
X24066988Y-46750000D01*
X23150000Y-46750000D01*
X23150000Y-47397844D01*
X23156401Y-47457372D01*
X23156403Y-47457379D01*
X23206645Y-47592086D01*
X23206649Y-47592093D01*
X23292809Y-47707187D01*
X23292812Y-47707190D01*
X23407906Y-47793350D01*
X23407913Y-47793354D01*
X23542620Y-47843596D01*
X23542627Y-47843598D01*
X23602155Y-47849999D01*
X23602172Y-47850000D01*
X24250000Y-47850000D01*
X24250000Y-46933012D01*
X24307007Y-46965925D01*
X24434174Y-47000000D01*
X24565826Y-47000000D01*
X24692993Y-46965925D01*
X24750000Y-46933012D01*
X24750000Y-47850000D01*
X25397828Y-47850000D01*
X25397844Y-47849999D01*
X25457372Y-47843598D01*
X25457379Y-47843596D01*
X25592086Y-47793354D01*
X25592093Y-47793350D01*
X25707187Y-47707190D01*
X25707190Y-47707187D01*
X25793350Y-47592093D01*
X25793354Y-47592086D01*
X25843596Y-47457379D01*
X25843598Y-47457372D01*
X25849999Y-47397844D01*
X25850000Y-47397827D01*
X25850000Y-47201087D01*
X25869685Y-47134048D01*
X25922489Y-47088293D01*
X25991647Y-47078349D01*
X26055203Y-47107374D01*
X26074318Y-47128202D01*
X26162441Y-47249495D01*
X26290500Y-47377554D01*
X26290505Y-47377558D01*
X26374296Y-47438435D01*
X26437006Y-47483996D01*
X26513094Y-47522765D01*
X26598360Y-47566211D01*
X26598363Y-47566212D01*
X26670131Y-47589530D01*
X26770591Y-47622171D01*
X26853429Y-47635291D01*
X26949449Y-47650500D01*
X26949454Y-47650500D01*
X27130551Y-47650500D01*
X27217259Y-47636765D01*
X27309409Y-47622171D01*
X27399913Y-47592765D01*
X27469754Y-47590770D01*
X27525912Y-47623015D01*
X28002686Y-48099789D01*
X28105413Y-48159099D01*
X28129621Y-48165584D01*
X28129624Y-48165586D01*
X28129625Y-48165586D01*
X28159747Y-48173657D01*
X28219991Y-48189800D01*
X28219993Y-48189800D01*
X34860008Y-48189800D01*
X34860009Y-48189800D01*
X34950373Y-48165586D01*
X34974587Y-48159099D01*
X35077314Y-48099789D01*
X35554089Y-47623012D01*
X35615410Y-47589529D01*
X35680082Y-47592763D01*
X35770591Y-47622171D01*
X35800401Y-47626892D01*
X35949449Y-47650500D01*
X35949454Y-47650500D01*
X36130551Y-47650500D01*
X36217259Y-47636765D01*
X36309409Y-47622171D01*
X36481639Y-47566211D01*
X36642994Y-47483996D01*
X36789501Y-47377553D01*
X36917553Y-47249501D01*
X37023996Y-47102994D01*
X37106211Y-46941639D01*
X37162171Y-46769409D01*
X37176452Y-46679240D01*
X37187527Y-46609321D01*
X37217456Y-46546186D01*
X37276768Y-46509255D01*
X37346630Y-46510253D01*
X37404863Y-46548863D01*
X37432473Y-46609321D01*
X37457829Y-46769410D01*
X37513787Y-46941636D01*
X37513788Y-46941639D01*
X37568747Y-47049500D01*
X37588513Y-47088293D01*
X37596006Y-47102997D01*
X37702441Y-47249494D01*
X37702445Y-47249499D01*
X37830500Y-47377554D01*
X37830505Y-47377558D01*
X37914296Y-47438435D01*
X37977006Y-47483996D01*
X38053094Y-47522765D01*
X38138360Y-47566211D01*
X38138363Y-47566212D01*
X38210131Y-47589530D01*
X38310591Y-47622171D01*
X38393429Y-47635291D01*
X38489449Y-47650500D01*
X38489454Y-47650500D01*
X38670551Y-47650500D01*
X38757259Y-47636765D01*
X38849409Y-47622171D01*
X39021639Y-47566211D01*
X39182994Y-47483996D01*
X39329501Y-47377553D01*
X39457553Y-47249501D01*
X39563996Y-47102994D01*
X39646211Y-46941639D01*
X39702171Y-46769409D01*
X39714267Y-46693039D01*
X39716453Y-46679240D01*
X39730500Y-46590551D01*
X39730500Y-46409448D01*
X39702410Y-46232103D01*
X39702171Y-46230591D01*
X39659708Y-46099901D01*
X39646212Y-46058363D01*
X39646211Y-46058360D01*
X39591251Y-45950497D01*
X39563996Y-45897006D01*
X39545546Y-45871612D01*
X39457558Y-45750505D01*
X39457554Y-45750500D01*
X39329499Y-45622445D01*
X39329494Y-45622441D01*
X39182997Y-45516006D01*
X39182996Y-45516005D01*
X39182994Y-45516004D01*
X39106906Y-45477235D01*
X39021639Y-45433788D01*
X39021636Y-45433787D01*
X38849410Y-45377829D01*
X38670551Y-45349500D01*
X38670546Y-45349500D01*
X38489454Y-45349500D01*
X38489449Y-45349500D01*
X38310589Y-45377829D01*
X38138363Y-45433787D01*
X38138360Y-45433788D01*
X37977002Y-45516006D01*
X37830505Y-45622441D01*
X37830500Y-45622445D01*
X37702445Y-45750500D01*
X37702441Y-45750505D01*
X37596006Y-45897002D01*
X37513788Y-46058360D01*
X37513787Y-46058363D01*
X37457829Y-46230589D01*
X37432473Y-46390678D01*
X37402544Y-46453813D01*
X37343232Y-46490744D01*
X37273369Y-46489746D01*
X37215137Y-46451136D01*
X37187527Y-46390678D01*
X37162410Y-46232103D01*
X37162171Y-46230591D01*
X37119708Y-46099901D01*
X37106212Y-46058363D01*
X37106211Y-46058360D01*
X37051251Y-45950497D01*
X37023996Y-45897006D01*
X37005546Y-45871612D01*
X36917558Y-45750505D01*
X36917554Y-45750500D01*
X36789499Y-45622445D01*
X36789494Y-45622441D01*
X36642997Y-45516006D01*
X36642996Y-45516005D01*
X36642994Y-45516004D01*
X36566906Y-45477235D01*
X36481639Y-45433788D01*
X36481636Y-45433787D01*
X36309410Y-45377829D01*
X36130551Y-45349500D01*
X36130546Y-45349500D01*
X35949454Y-45349500D01*
X35949449Y-45349500D01*
X35770589Y-45377829D01*
X35598363Y-45433787D01*
X35598360Y-45433788D01*
X35437002Y-45516006D01*
X35290505Y-45622441D01*
X35290500Y-45622445D01*
X35162445Y-45750500D01*
X35162441Y-45750505D01*
X35074318Y-45871797D01*
X35018988Y-45914463D01*
X34949375Y-45920442D01*
X34887580Y-45887836D01*
X34853223Y-45826998D01*
X34850000Y-45798912D01*
X34850000Y-45602172D01*
X34849999Y-45602155D01*
X34843598Y-45542627D01*
X34843596Y-45542620D01*
X34793354Y-45407913D01*
X34793350Y-45407906D01*
X34707190Y-45292812D01*
X34707187Y-45292809D01*
X34592093Y-45206649D01*
X34592086Y-45206645D01*
X34457379Y-45156403D01*
X34457372Y-45156401D01*
X34397844Y-45150000D01*
X33750000Y-45150000D01*
X33750000Y-46066988D01*
X33692993Y-46034075D01*
X33565826Y-46000000D01*
X33434174Y-46000000D01*
X33307007Y-46034075D01*
X33250000Y-46066988D01*
X33250000Y-45150000D01*
X32602155Y-45150000D01*
X32542627Y-45156401D01*
X32542620Y-45156403D01*
X32407913Y-45206645D01*
X32407906Y-45206649D01*
X32292812Y-45292809D01*
X32292809Y-45292812D01*
X32206649Y-45407906D01*
X32206645Y-45407913D01*
X32156403Y-45542620D01*
X32156401Y-45542627D01*
X32150000Y-45602155D01*
X32150000Y-46250000D01*
X33066988Y-46250000D01*
X33034075Y-46307007D01*
X33000000Y-46434174D01*
X33000000Y-46565826D01*
X33034075Y-46692993D01*
X33066988Y-46750000D01*
X32150000Y-46750000D01*
X32150000Y-47164800D01*
X32130315Y-47231839D01*
X32077511Y-47277594D01*
X32026000Y-47288800D01*
X30671552Y-47288800D01*
X30604513Y-47269115D01*
X30558758Y-47216311D01*
X30548814Y-47147153D01*
X30562965Y-47107936D01*
X30561784Y-47107335D01*
X30571487Y-47088293D01*
X30646211Y-46941639D01*
X30702171Y-46769409D01*
X30716765Y-46677259D01*
X30730500Y-46590551D01*
X30730500Y-46409448D01*
X30702410Y-46232103D01*
X30702171Y-46230591D01*
X30659708Y-46099901D01*
X30646212Y-46058363D01*
X30646211Y-46058360D01*
X30591251Y-45950497D01*
X30563996Y-45897006D01*
X30545546Y-45871612D01*
X30457558Y-45750505D01*
X30457554Y-45750500D01*
X30329499Y-45622445D01*
X30329494Y-45622441D01*
X30182997Y-45516006D01*
X30182996Y-45516005D01*
X30182994Y-45516004D01*
X30106906Y-45477235D01*
X30021639Y-45433788D01*
X30021636Y-45433787D01*
X29849410Y-45377829D01*
X29670551Y-45349500D01*
X29670546Y-45349500D01*
X29489454Y-45349500D01*
X29489449Y-45349500D01*
X29310589Y-45377829D01*
X29138363Y-45433787D01*
X29138360Y-45433788D01*
X28977002Y-45516006D01*
X28830505Y-45622441D01*
X28830500Y-45622445D01*
X28702445Y-45750500D01*
X28702441Y-45750505D01*
X28596006Y-45897002D01*
X28513788Y-46058360D01*
X28513787Y-46058363D01*
X28457829Y-46230589D01*
X28432473Y-46390678D01*
X28402544Y-46453813D01*
X28343232Y-46490744D01*
X28273369Y-46489746D01*
X28215137Y-46451136D01*
X28187527Y-46390678D01*
X28162410Y-46232103D01*
X28162171Y-46230591D01*
X28119708Y-46099901D01*
X28106212Y-46058363D01*
X28106211Y-46058360D01*
X28051251Y-45950497D01*
X28023996Y-45897006D01*
X28005546Y-45871612D01*
X27917558Y-45750505D01*
X27917554Y-45750500D01*
X27789499Y-45622445D01*
X27789494Y-45622441D01*
X27642997Y-45516006D01*
X27642996Y-45516005D01*
X27642994Y-45516004D01*
X27566906Y-45477235D01*
X27481639Y-45433788D01*
X27481636Y-45433787D01*
X27309410Y-45377829D01*
X27130551Y-45349500D01*
X27130546Y-45349500D01*
X26949454Y-45349500D01*
X26949449Y-45349500D01*
X26770589Y-45377829D01*
X26598363Y-45433787D01*
X26598360Y-45433788D01*
X26437002Y-45516006D01*
X26290505Y-45622441D01*
X26290500Y-45622445D01*
X26162445Y-45750500D01*
X26162441Y-45750505D01*
X26074318Y-45871797D01*
X26018988Y-45914463D01*
X25949375Y-45920442D01*
X25887580Y-45887836D01*
X25853223Y-45826998D01*
X25850000Y-45798912D01*
X25850000Y-45602172D01*
X25849999Y-45602155D01*
X25843598Y-45542627D01*
X25843596Y-45542620D01*
X25793354Y-45407913D01*
X25793350Y-45407906D01*
X25707190Y-45292812D01*
X25707187Y-45292809D01*
X25592093Y-45206649D01*
X25592086Y-45206645D01*
X25457379Y-45156403D01*
X25457372Y-45156401D01*
X25397844Y-45150000D01*
X24750000Y-45150000D01*
X24750000Y-46066988D01*
X24692993Y-46034075D01*
X24565826Y-46000000D01*
X24434174Y-46000000D01*
X24307007Y-46034075D01*
X24250000Y-46066988D01*
X24250000Y-45150000D01*
X23602155Y-45150000D01*
X23542627Y-45156401D01*
X23542620Y-45156403D01*
X23407913Y-45206645D01*
X23407906Y-45206649D01*
X23292812Y-45292809D01*
X23292809Y-45292812D01*
X23206649Y-45407906D01*
X23206645Y-45407913D01*
X23156403Y-45542620D01*
X23156401Y-45542627D01*
X23150000Y-45602155D01*
X21124290Y-45602155D01*
X21215275Y-45511170D01*
X21341716Y-45384728D01*
X21287550Y-45345375D01*
X21098217Y-45248904D01*
X20896129Y-45183242D01*
X20686246Y-45150000D01*
X20473753Y-45150000D01*
X20319978Y-45174355D01*
X20250685Y-45165400D01*
X20197233Y-45120404D01*
X20176594Y-45053652D01*
X20195319Y-44986339D01*
X20212895Y-44964207D01*
X23328584Y-41848519D01*
X23389907Y-41815034D01*
X23416265Y-41812200D01*
X23959306Y-41812200D01*
X23959309Y-41812200D01*
X24073886Y-41781499D01*
X24176613Y-41722189D01*
X24260489Y-41638313D01*
X24319799Y-41535586D01*
X24350500Y-41421009D01*
X24350500Y-41297683D01*
X24370185Y-41230644D01*
X24418204Y-41187198D01*
X24502994Y-41143996D01*
X24649501Y-41037553D01*
X24777553Y-40909501D01*
X24883996Y-40762994D01*
X24966211Y-40601639D01*
X25022171Y-40429409D01*
X25036422Y-40339425D01*
X25047527Y-40269321D01*
X25077456Y-40206186D01*
X25136768Y-40169255D01*
X25206630Y-40170253D01*
X25264863Y-40208863D01*
X25292473Y-40269321D01*
X25317829Y-40429410D01*
X25373787Y-40601636D01*
X25373788Y-40601639D01*
X25456006Y-40762997D01*
X25562441Y-40909494D01*
X25562445Y-40909499D01*
X25690500Y-41037554D01*
X25690505Y-41037558D01*
X25754885Y-41084332D01*
X25837006Y-41143996D01*
X25926750Y-41189723D01*
X25998360Y-41226211D01*
X25998363Y-41226212D01*
X26084476Y-41254191D01*
X26170591Y-41282171D01*
X26253429Y-41295291D01*
X26349449Y-41310500D01*
X26349454Y-41310500D01*
X26530551Y-41310500D01*
X26617259Y-41296765D01*
X26709409Y-41282171D01*
X26881639Y-41226211D01*
X27042994Y-41143996D01*
X27189501Y-41037553D01*
X27317553Y-40909501D01*
X27423996Y-40762994D01*
X27506211Y-40601639D01*
X27562171Y-40429409D01*
X27576422Y-40339425D01*
X27587527Y-40269321D01*
X27617456Y-40206186D01*
X27676768Y-40169255D01*
X27746630Y-40170253D01*
X27804863Y-40208863D01*
X27832473Y-40269321D01*
X27857829Y-40429410D01*
X27913787Y-40601636D01*
X27913788Y-40601639D01*
X27996006Y-40762997D01*
X28102441Y-40909494D01*
X28102445Y-40909499D01*
X28230500Y-41037554D01*
X28230505Y-41037558D01*
X28294885Y-41084332D01*
X28377006Y-41143996D01*
X28466750Y-41189723D01*
X28538360Y-41226211D01*
X28538363Y-41226212D01*
X28624476Y-41254191D01*
X28710591Y-41282171D01*
X28793429Y-41295291D01*
X28889449Y-41310500D01*
X28889454Y-41310500D01*
X29070551Y-41310500D01*
X29157259Y-41296765D01*
X29249409Y-41282171D01*
X29421639Y-41226211D01*
X29582994Y-41143996D01*
X29729501Y-41037553D01*
X29857553Y-40909501D01*
X29963996Y-40762994D01*
X30046211Y-40601639D01*
X30102171Y-40429409D01*
X30116422Y-40339425D01*
X30127527Y-40269321D01*
X30157456Y-40206186D01*
X30216768Y-40169255D01*
X30286630Y-40170253D01*
X30344863Y-40208863D01*
X30372473Y-40269321D01*
X30397829Y-40429410D01*
X30453787Y-40601636D01*
X30453788Y-40601639D01*
X30536006Y-40762997D01*
X30642441Y-40909494D01*
X30642445Y-40909499D01*
X30770500Y-41037554D01*
X30770505Y-41037558D01*
X30834885Y-41084332D01*
X30917006Y-41143996D01*
X31006750Y-41189723D01*
X31078360Y-41226211D01*
X31078363Y-41226212D01*
X31164476Y-41254191D01*
X31250591Y-41282171D01*
X31333429Y-41295291D01*
X31429449Y-41310500D01*
X31429454Y-41310500D01*
X31610551Y-41310500D01*
X31697259Y-41296765D01*
X31789409Y-41282171D01*
X31961639Y-41226211D01*
X32122994Y-41143996D01*
X32269501Y-41037553D01*
X32397553Y-40909501D01*
X32503996Y-40762994D01*
X32586211Y-40601639D01*
X32642171Y-40429409D01*
X32656422Y-40339425D01*
X32667527Y-40269321D01*
X32697456Y-40206186D01*
X32756768Y-40169255D01*
X32826630Y-40170253D01*
X32884863Y-40208863D01*
X32912473Y-40269321D01*
X32937829Y-40429410D01*
X32993787Y-40601636D01*
X32993788Y-40601639D01*
X33076006Y-40762997D01*
X33182441Y-40909494D01*
X33182445Y-40909499D01*
X33310500Y-41037554D01*
X33310505Y-41037558D01*
X33374885Y-41084332D01*
X33457006Y-41143996D01*
X33546750Y-41189723D01*
X33618360Y-41226211D01*
X33618363Y-41226212D01*
X33704476Y-41254191D01*
X33790591Y-41282171D01*
X33873429Y-41295291D01*
X33969449Y-41310500D01*
X33969454Y-41310500D01*
X34150551Y-41310500D01*
X34237259Y-41296765D01*
X34329409Y-41282171D01*
X34501639Y-41226211D01*
X34662994Y-41143996D01*
X34809501Y-41037553D01*
X34937553Y-40909501D01*
X35043996Y-40762994D01*
X35126211Y-40601639D01*
X35182171Y-40429409D01*
X35196422Y-40339425D01*
X35207527Y-40269321D01*
X35237456Y-40206186D01*
X35296768Y-40169255D01*
X35366630Y-40170253D01*
X35424863Y-40208863D01*
X35452473Y-40269321D01*
X35477829Y-40429410D01*
X35533787Y-40601636D01*
X35533788Y-40601639D01*
X35616006Y-40762997D01*
X35722441Y-40909494D01*
X35722445Y-40909499D01*
X35850500Y-41037554D01*
X35850505Y-41037558D01*
X35914885Y-41084332D01*
X35997006Y-41143996D01*
X36086750Y-41189723D01*
X36158360Y-41226211D01*
X36158363Y-41226212D01*
X36244476Y-41254191D01*
X36330591Y-41282171D01*
X36413429Y-41295291D01*
X36509449Y-41310500D01*
X36509454Y-41310500D01*
X36690551Y-41310500D01*
X36777259Y-41296765D01*
X36869409Y-41282171D01*
X37041639Y-41226211D01*
X37202994Y-41143996D01*
X37349501Y-41037553D01*
X37477553Y-40909501D01*
X37583996Y-40762994D01*
X37666211Y-40601639D01*
X37722171Y-40429409D01*
X37736422Y-40339425D01*
X37747527Y-40269321D01*
X37777456Y-40206186D01*
X37836768Y-40169255D01*
X37906630Y-40170253D01*
X37964863Y-40208863D01*
X37992473Y-40269321D01*
X38017829Y-40429410D01*
X38073787Y-40601636D01*
X38073788Y-40601639D01*
X38156006Y-40762997D01*
X38262441Y-40909494D01*
X38262445Y-40909499D01*
X38390500Y-41037554D01*
X38390505Y-41037558D01*
X38454885Y-41084332D01*
X38537006Y-41143996D01*
X38626750Y-41189723D01*
X38698360Y-41226211D01*
X38698363Y-41226212D01*
X38784476Y-41254191D01*
X38870591Y-41282171D01*
X38953429Y-41295291D01*
X39049449Y-41310500D01*
X39049454Y-41310500D01*
X39230551Y-41310500D01*
X39317259Y-41296765D01*
X39409409Y-41282171D01*
X39581639Y-41226211D01*
X39742994Y-41143996D01*
X39889501Y-41037553D01*
X40017553Y-40909501D01*
X40123996Y-40762994D01*
X40206211Y-40601639D01*
X40262171Y-40429409D01*
X40276422Y-40339425D01*
X40287527Y-40269321D01*
X40317456Y-40206186D01*
X40376768Y-40169255D01*
X40446630Y-40170253D01*
X40504863Y-40208863D01*
X40532473Y-40269321D01*
X40557829Y-40429410D01*
X40613787Y-40601636D01*
X40613788Y-40601639D01*
X40696006Y-40762997D01*
X40802441Y-40909494D01*
X40802445Y-40909499D01*
X40930500Y-41037554D01*
X40930505Y-41037558D01*
X40994885Y-41084332D01*
X41077006Y-41143996D01*
X41166750Y-41189723D01*
X41238360Y-41226211D01*
X41238363Y-41226212D01*
X41324476Y-41254191D01*
X41410591Y-41282171D01*
X41493429Y-41295291D01*
X41589449Y-41310500D01*
X41589454Y-41310500D01*
X41770551Y-41310500D01*
X41857259Y-41296765D01*
X41949409Y-41282171D01*
X42121639Y-41226211D01*
X42282994Y-41143996D01*
X42302614Y-41129740D01*
X42368420Y-41106261D01*
X42436474Y-41122086D01*
X42485169Y-41172192D01*
X42499500Y-41230059D01*
X42499500Y-41429308D01*
X42523712Y-41519672D01*
X42530200Y-41543885D01*
X42530200Y-41543886D01*
X42530201Y-41543887D01*
X42589511Y-41646614D01*
X46233479Y-45290583D01*
X46266964Y-45351905D01*
X46261980Y-45421597D01*
X46220108Y-45477530D01*
X46154644Y-45501947D01*
X46089503Y-45488748D01*
X45981639Y-45433789D01*
X45981636Y-45433787D01*
X45809410Y-45377829D01*
X45630551Y-45349500D01*
X45630546Y-45349500D01*
X45449454Y-45349500D01*
X45449449Y-45349500D01*
X45270589Y-45377829D01*
X45098363Y-45433787D01*
X45098360Y-45433788D01*
X44937002Y-45516006D01*
X44790505Y-45622441D01*
X44790500Y-45622445D01*
X44662445Y-45750500D01*
X44662441Y-45750505D01*
X44574318Y-45871797D01*
X44518988Y-45914463D01*
X44449375Y-45920442D01*
X44387580Y-45887836D01*
X44353223Y-45826998D01*
X44350000Y-45798912D01*
X44350000Y-45602172D01*
X44349999Y-45602155D01*
X44343598Y-45542627D01*
X44343596Y-45542620D01*
X44293354Y-45407913D01*
X44293350Y-45407906D01*
X44207190Y-45292812D01*
X44207187Y-45292809D01*
X44092093Y-45206649D01*
X44092086Y-45206645D01*
X43957379Y-45156403D01*
X43957372Y-45156401D01*
X43897844Y-45150000D01*
X43250000Y-45150000D01*
X43250000Y-46066988D01*
X43192993Y-46034075D01*
X43065826Y-46000000D01*
X42934174Y-46000000D01*
X42807007Y-46034075D01*
X42750000Y-46066988D01*
X42750000Y-45150000D01*
X42102155Y-45150000D01*
X42042627Y-45156401D01*
X42042620Y-45156403D01*
X41907913Y-45206645D01*
X41907906Y-45206649D01*
X41792812Y-45292809D01*
X41792809Y-45292812D01*
X41706649Y-45407906D01*
X41706645Y-45407913D01*
X41656403Y-45542620D01*
X41656401Y-45542627D01*
X41650000Y-45602155D01*
X41650000Y-46250000D01*
X42566988Y-46250000D01*
X42534075Y-46307007D01*
X42500000Y-46434174D01*
X42500000Y-46565826D01*
X42534075Y-46692993D01*
X42566988Y-46750000D01*
X41650000Y-46750000D01*
X41650000Y-47397844D01*
X41656401Y-47457372D01*
X41656403Y-47457379D01*
X41706645Y-47592086D01*
X41706649Y-47592093D01*
X41792809Y-47707187D01*
X41792812Y-47707190D01*
X41907906Y-47793350D01*
X41907913Y-47793354D01*
X42042620Y-47843596D01*
X42042627Y-47843598D01*
X42102155Y-47849999D01*
X42102172Y-47850000D01*
X42750000Y-47850000D01*
X42750000Y-46933012D01*
X42807007Y-46965925D01*
X42934174Y-47000000D01*
X43065826Y-47000000D01*
X43192993Y-46965925D01*
X43250000Y-46933012D01*
X43250000Y-47850000D01*
X43897828Y-47850000D01*
X43897844Y-47849999D01*
X43957372Y-47843598D01*
X43957379Y-47843596D01*
X44092086Y-47793354D01*
X44092093Y-47793350D01*
X44207187Y-47707190D01*
X44207190Y-47707187D01*
X44293350Y-47592093D01*
X44293354Y-47592086D01*
X44343596Y-47457379D01*
X44343598Y-47457372D01*
X44349999Y-47397844D01*
X44350000Y-47397827D01*
X44350000Y-47201087D01*
X44369685Y-47134048D01*
X44422489Y-47088293D01*
X44491647Y-47078349D01*
X44555203Y-47107374D01*
X44574318Y-47128202D01*
X44662441Y-47249495D01*
X44790500Y-47377554D01*
X44790505Y-47377558D01*
X44874296Y-47438435D01*
X44937006Y-47483996D01*
X45013094Y-47522765D01*
X45098360Y-47566211D01*
X45098363Y-47566212D01*
X45170131Y-47589530D01*
X45270591Y-47622171D01*
X45353429Y-47635291D01*
X45449449Y-47650500D01*
X45449454Y-47650500D01*
X45630551Y-47650500D01*
X45717259Y-47636765D01*
X45809409Y-47622171D01*
X45981639Y-47566211D01*
X46142994Y-47483996D01*
X46289501Y-47377553D01*
X46417553Y-47249501D01*
X46523996Y-47102994D01*
X46606211Y-46941639D01*
X46662171Y-46769409D01*
X46676452Y-46679240D01*
X46687527Y-46609321D01*
X46717456Y-46546186D01*
X46776768Y-46509255D01*
X46846630Y-46510253D01*
X46904863Y-46548863D01*
X46932473Y-46609321D01*
X46957829Y-46769410D01*
X47013787Y-46941636D01*
X47013788Y-46941639D01*
X47068747Y-47049500D01*
X47088513Y-47088293D01*
X47096006Y-47102997D01*
X47202441Y-47249494D01*
X47202445Y-47249499D01*
X47330500Y-47377554D01*
X47330505Y-47377558D01*
X47414296Y-47438435D01*
X47477006Y-47483996D01*
X47553094Y-47522765D01*
X47638360Y-47566211D01*
X47638363Y-47566212D01*
X47710131Y-47589530D01*
X47810591Y-47622171D01*
X47893429Y-47635291D01*
X47989449Y-47650500D01*
X47989454Y-47650500D01*
X48170551Y-47650500D01*
X48257259Y-47636765D01*
X48349409Y-47622171D01*
X48521639Y-47566211D01*
X48682994Y-47483996D01*
X48829501Y-47377553D01*
X48903147Y-47303906D01*
X48964466Y-47270424D01*
X49034158Y-47275408D01*
X49078506Y-47303909D01*
X49837086Y-48062489D01*
X49939813Y-48121799D01*
X49964021Y-48128284D01*
X49964024Y-48128286D01*
X49964025Y-48128286D01*
X49994147Y-48136357D01*
X50054391Y-48152500D01*
X50054393Y-48152500D01*
X52017308Y-48152500D01*
X52017309Y-48152500D01*
X52107673Y-48128286D01*
X52131887Y-48121799D01*
X52234614Y-48062489D01*
X52674089Y-47623013D01*
X52735410Y-47589530D01*
X52800086Y-47592765D01*
X52829141Y-47602205D01*
X52890591Y-47622171D01*
X52973429Y-47635291D01*
X53069449Y-47650500D01*
X53069454Y-47650500D01*
X53250551Y-47650500D01*
X53337259Y-47636765D01*
X53429409Y-47622171D01*
X53601639Y-47566211D01*
X53762994Y-47483996D01*
X53909501Y-47377553D01*
X54037553Y-47249501D01*
X54143996Y-47102994D01*
X54226211Y-46941639D01*
X54282171Y-46769409D01*
X54296452Y-46679240D01*
X54307527Y-46609321D01*
X54337456Y-46546186D01*
X54396768Y-46509255D01*
X54466630Y-46510253D01*
X54524863Y-46548863D01*
X54552473Y-46609321D01*
X54577829Y-46769410D01*
X54633787Y-46941636D01*
X54633788Y-46941639D01*
X54688747Y-47049500D01*
X54708513Y-47088293D01*
X54716006Y-47102997D01*
X54822441Y-47249494D01*
X54822445Y-47249499D01*
X54950500Y-47377554D01*
X54950505Y-47377558D01*
X55034296Y-47438435D01*
X55097006Y-47483996D01*
X55173094Y-47522765D01*
X55258360Y-47566211D01*
X55258363Y-47566212D01*
X55330131Y-47589530D01*
X55430591Y-47622171D01*
X55513429Y-47635291D01*
X55609449Y-47650500D01*
X55609454Y-47650500D01*
X55790551Y-47650500D01*
X55969409Y-47622171D01*
X56006963Y-47609969D01*
X56059912Y-47592764D01*
X56129753Y-47590770D01*
X56185911Y-47623015D01*
X56655286Y-48092390D01*
X56758013Y-48151699D01*
X56782221Y-48158184D01*
X56782224Y-48158186D01*
X56782225Y-48158186D01*
X56809842Y-48165586D01*
X56872591Y-48182400D01*
X56872593Y-48182400D01*
X61383908Y-48182400D01*
X61383909Y-48182400D01*
X61474273Y-48158186D01*
X61498487Y-48151699D01*
X61601214Y-48092389D01*
X62388789Y-47304814D01*
X62448099Y-47202087D01*
X62453989Y-47180106D01*
X62459247Y-47160485D01*
X62471530Y-47114642D01*
X62478800Y-47087509D01*
X62478800Y-45924091D01*
X62452084Y-45824387D01*
X62448100Y-45809517D01*
X62448099Y-45809514D01*
X62448099Y-45809513D01*
X62388789Y-45706786D01*
X58753684Y-42071681D01*
X58720199Y-42010358D01*
X58725183Y-41940666D01*
X58767055Y-41884733D01*
X58832519Y-41860316D01*
X58841365Y-41860000D01*
X65376000Y-41860000D01*
X65443039Y-41879685D01*
X65488794Y-41932489D01*
X65500000Y-41984000D01*
X65500000Y-48758445D01*
X65484832Y-48817872D01*
X65433960Y-48911036D01*
X65424395Y-48925919D01*
X65289711Y-49105836D01*
X65278125Y-49119207D01*
X65119207Y-49278125D01*
X65105836Y-49289711D01*
X64925919Y-49424395D01*
X64911036Y-49433960D01*
X64817872Y-49484832D01*
X64758445Y-49500000D01*
X1241555Y-49500000D01*
X1182128Y-49484832D01*
X1088963Y-49433960D01*
X1074080Y-49424395D01*
X894163Y-49289711D01*
X880792Y-49278125D01*
X721874Y-49119207D01*
X710288Y-49105836D01*
X575604Y-48925919D01*
X566039Y-48911036D01*
X515168Y-48817872D01*
X500000Y-48758445D01*
X500000Y-28378711D01*
X5149500Y-28378711D01*
X5149500Y-28621288D01*
X5181161Y-28861785D01*
X5243947Y-29096104D01*
X5254379Y-29121288D01*
X5336776Y-29320212D01*
X5458064Y-29530289D01*
X5458066Y-29530292D01*
X5458067Y-29530293D01*
X5605733Y-29722736D01*
X5605739Y-29722743D01*
X5777256Y-29894260D01*
X5777262Y-29894265D01*
X5969711Y-30041936D01*
X6179788Y-30163224D01*
X6403900Y-30256054D01*
X6638211Y-30318838D01*
X6818586Y-30342584D01*
X6878711Y-30350500D01*
X6878712Y-30350500D01*
X7121289Y-30350500D01*
X7169388Y-30344167D01*
X7361789Y-30318838D01*
X7596100Y-30256054D01*
X7820212Y-30163224D01*
X8030289Y-30041936D01*
X8222738Y-29894265D01*
X8394265Y-29722738D01*
X8541936Y-29530289D01*
X8663224Y-29320212D01*
X8756054Y-29096100D01*
X8818838Y-28861789D01*
X8850500Y-28621288D01*
X8850500Y-28378712D01*
X8818838Y-28138211D01*
X8756054Y-27903900D01*
X8663224Y-27679788D01*
X8541936Y-27469711D01*
X8394265Y-27277262D01*
X8394260Y-27277256D01*
X8222743Y-27105739D01*
X8222736Y-27105733D01*
X8030293Y-26958067D01*
X8030292Y-26958066D01*
X8030289Y-26958064D01*
X7820212Y-26836776D01*
X7820205Y-26836773D01*
X7596104Y-26743947D01*
X7361785Y-26681161D01*
X7121289Y-26649500D01*
X7121288Y-26649500D01*
X6878712Y-26649500D01*
X6878711Y-26649500D01*
X6638214Y-26681161D01*
X6403895Y-26743947D01*
X6179794Y-26836773D01*
X6179785Y-26836777D01*
X5969706Y-26958067D01*
X5777263Y-27105733D01*
X5777256Y-27105739D01*
X5605739Y-27277256D01*
X5605733Y-27277263D01*
X5458067Y-27469706D01*
X5336777Y-27679785D01*
X5336773Y-27679794D01*
X5243947Y-27903895D01*
X5181161Y-28138214D01*
X5149500Y-28378711D01*
X500000Y-28378711D01*
X500000Y-1241554D01*
X515168Y-1182127D01*
X566043Y-1088955D01*
X575599Y-1074086D01*
X710293Y-894156D01*
X721867Y-880799D01*
X880799Y-721867D01*
X894156Y-710293D01*
X1074086Y-575599D01*
X1088951Y-566045D01*
X1182129Y-515166D01*
X1241555Y-500000D01*
X64758445Y-500000D01*
X64817872Y-515168D01*
G37*
G04 #@! TD.AperFunction*
G04 #@! TA.AperFunction,Conductor*
G36*
X10734075Y-39967007D02*
G01*
X10700000Y-40094174D01*
X10700000Y-40225826D01*
X10734075Y-40352993D01*
X10766988Y-40410000D01*
X9093012Y-40410000D01*
X9125925Y-40352993D01*
X9160000Y-40225826D01*
X9160000Y-40094174D01*
X9125925Y-39967007D01*
X9093012Y-39910000D01*
X10766988Y-39910000D01*
X10734075Y-39967007D01*
G37*
G04 #@! TD.AperFunction*
G04 #@! TA.AperFunction,Conductor*
G36*
X40324781Y-17725256D02*
G01*
X40418991Y-17750500D01*
X40537609Y-17750500D01*
X40542317Y-17750500D01*
X40609356Y-17770185D01*
X40652802Y-17818205D01*
X40696006Y-17902998D01*
X40802441Y-18049494D01*
X40802445Y-18049499D01*
X40930500Y-18177554D01*
X40930505Y-18177558D01*
X41010164Y-18235433D01*
X41077006Y-18283996D01*
X41161796Y-18327199D01*
X41238360Y-18366211D01*
X41238363Y-18366212D01*
X41324476Y-18394191D01*
X41410591Y-18422171D01*
X41493429Y-18435291D01*
X41589449Y-18450500D01*
X41589454Y-18450500D01*
X41770551Y-18450500D01*
X41857259Y-18436765D01*
X41949409Y-18422171D01*
X42121639Y-18366211D01*
X42282994Y-18283996D01*
X42302614Y-18269740D01*
X42368420Y-18246261D01*
X42436474Y-18262086D01*
X42485169Y-18312192D01*
X42499500Y-18370059D01*
X42499500Y-19722509D01*
X42514527Y-19778589D01*
X42530201Y-19837087D01*
X42589511Y-19939814D01*
X42589513Y-19939816D01*
X45938181Y-23288484D01*
X45971666Y-23349807D01*
X45974500Y-23376165D01*
X45974500Y-23457193D01*
X45974500Y-23457195D01*
X45974499Y-23457195D01*
X46001418Y-23592522D01*
X46001421Y-23592532D01*
X46054221Y-23720004D01*
X46054228Y-23720017D01*
X46130885Y-23834741D01*
X46130888Y-23834745D01*
X46228454Y-23932311D01*
X46228458Y-23932314D01*
X46343182Y-24008971D01*
X46343195Y-24008978D01*
X46470667Y-24061778D01*
X46470672Y-24061780D01*
X46470676Y-24061780D01*
X46470677Y-24061781D01*
X46606004Y-24088700D01*
X46606007Y-24088700D01*
X46743995Y-24088700D01*
X46835041Y-24070589D01*
X46879328Y-24061780D01*
X47000503Y-24011588D01*
X47006804Y-24008978D01*
X47006804Y-24008977D01*
X47006811Y-24008975D01*
X47121542Y-23932314D01*
X47219114Y-23834742D01*
X47295775Y-23720011D01*
X47348580Y-23592528D01*
X47371040Y-23479614D01*
X47375500Y-23457195D01*
X47375500Y-23319204D01*
X47348581Y-23183877D01*
X47348580Y-23183876D01*
X47348580Y-23183872D01*
X47348578Y-23183867D01*
X47295778Y-23056395D01*
X47295771Y-23056382D01*
X47219114Y-22941658D01*
X47219111Y-22941654D01*
X47121545Y-22844088D01*
X47121541Y-22844085D01*
X47006817Y-22767428D01*
X47006804Y-22767421D01*
X46879332Y-22714621D01*
X46879322Y-22714618D01*
X46743995Y-22687700D01*
X46743993Y-22687700D01*
X46662965Y-22687700D01*
X46595926Y-22668015D01*
X46575284Y-22651381D01*
X43436819Y-19512916D01*
X43403334Y-19451593D01*
X43400500Y-19425235D01*
X43400500Y-18370059D01*
X43420185Y-18303020D01*
X43472989Y-18257265D01*
X43542147Y-18247321D01*
X43597385Y-18269740D01*
X43617006Y-18283996D01*
X43701795Y-18327198D01*
X43752591Y-18375173D01*
X43769500Y-18437683D01*
X43769500Y-18561009D01*
X43800201Y-18675586D01*
X43859511Y-18778313D01*
X43943387Y-18862189D01*
X44046114Y-18921499D01*
X44160691Y-18952200D01*
X44279309Y-18952200D01*
X44355535Y-18952200D01*
X44422574Y-18971885D01*
X44443216Y-18988519D01*
X51102716Y-25648019D01*
X51136201Y-25709342D01*
X51131217Y-25779034D01*
X51089345Y-25834967D01*
X51023881Y-25859384D01*
X51015035Y-25859700D01*
X46986166Y-25859700D01*
X46919127Y-25840015D01*
X46898485Y-25823381D01*
X44868319Y-23793215D01*
X44834834Y-23731892D01*
X44832000Y-23705534D01*
X44832000Y-23624504D01*
X44805081Y-23489177D01*
X44805080Y-23489176D01*
X44805080Y-23489172D01*
X44791559Y-23456530D01*
X44752278Y-23361695D01*
X44752271Y-23361682D01*
X44675614Y-23246958D01*
X44675611Y-23246954D01*
X44578045Y-23149388D01*
X44578041Y-23149385D01*
X44463317Y-23072728D01*
X44463304Y-23072721D01*
X44335832Y-23019921D01*
X44335822Y-23019918D01*
X44200495Y-22993000D01*
X44200493Y-22993000D01*
X44062507Y-22993000D01*
X44062505Y-22993000D01*
X43927177Y-23019918D01*
X43927167Y-23019921D01*
X43799695Y-23072721D01*
X43799682Y-23072728D01*
X43684958Y-23149385D01*
X43684954Y-23149388D01*
X43587388Y-23246954D01*
X43587385Y-23246958D01*
X43510728Y-23361682D01*
X43510721Y-23361695D01*
X43457921Y-23489167D01*
X43457918Y-23489177D01*
X43431000Y-23624504D01*
X43431000Y-23624507D01*
X43431000Y-23762493D01*
X43431000Y-23762495D01*
X43430999Y-23762495D01*
X43457918Y-23897822D01*
X43457921Y-23897832D01*
X43510721Y-24025304D01*
X43510728Y-24025317D01*
X43587385Y-24140041D01*
X43587388Y-24140045D01*
X43684954Y-24237611D01*
X43684958Y-24237614D01*
X43799682Y-24314271D01*
X43799695Y-24314278D01*
X43889237Y-24351367D01*
X43927172Y-24367080D01*
X43927176Y-24367080D01*
X43927177Y-24367081D01*
X44062504Y-24394000D01*
X44062507Y-24394000D01*
X44143535Y-24394000D01*
X44210574Y-24413685D01*
X44231215Y-24430318D01*
X46471586Y-26670690D01*
X46574314Y-26729999D01*
X46688891Y-26760700D01*
X51036035Y-26760700D01*
X51103074Y-26780385D01*
X51123716Y-26797019D01*
X53907581Y-29580884D01*
X53941066Y-29642207D01*
X53943900Y-29668565D01*
X53943900Y-29749593D01*
X53943900Y-29749595D01*
X53943899Y-29749595D01*
X53970818Y-29884922D01*
X53970821Y-29884932D01*
X54023621Y-30012404D01*
X54023628Y-30012417D01*
X54100285Y-30127141D01*
X54100288Y-30127145D01*
X54197854Y-30224711D01*
X54197858Y-30224714D01*
X54312582Y-30301371D01*
X54312595Y-30301378D01*
X54440067Y-30354178D01*
X54440072Y-30354180D01*
X54440076Y-30354180D01*
X54440077Y-30354181D01*
X54575404Y-30381100D01*
X54575407Y-30381100D01*
X54713395Y-30381100D01*
X54804441Y-30362989D01*
X54848728Y-30354180D01*
X54976211Y-30301375D01*
X55090942Y-30224714D01*
X55188514Y-30127142D01*
X55262115Y-30016991D01*
X55315727Y-29972186D01*
X55385052Y-29963479D01*
X55448080Y-29993633D01*
X55452898Y-29998201D01*
X56763681Y-31308984D01*
X56797166Y-31370307D01*
X56800000Y-31396665D01*
X56800000Y-38908259D01*
X56780315Y-38975298D01*
X56727511Y-39021053D01*
X56695398Y-39030732D01*
X56650589Y-39037829D01*
X56478363Y-39093787D01*
X56478360Y-39093788D01*
X56317003Y-39176005D01*
X56234484Y-39235958D01*
X56168678Y-39259437D01*
X56100624Y-39243611D01*
X56051930Y-39193505D01*
X56037600Y-39135639D01*
X56037600Y-38386693D01*
X56037600Y-38386691D01*
X56006899Y-38272114D01*
X56006897Y-38272110D01*
X55981831Y-38228694D01*
X55947593Y-38169392D01*
X55947587Y-38169384D01*
X37086819Y-19308616D01*
X37053334Y-19247293D01*
X37050500Y-19220935D01*
X37050500Y-18437683D01*
X37070185Y-18370644D01*
X37118204Y-18327198D01*
X37202994Y-18283996D01*
X37349501Y-18177553D01*
X37477553Y-18049501D01*
X37583996Y-17902994D01*
X37642213Y-17788736D01*
X37690186Y-17737942D01*
X37758007Y-17721147D01*
X37784781Y-17725256D01*
X37878991Y-17750500D01*
X38002317Y-17750500D01*
X38069356Y-17770185D01*
X38112802Y-17818205D01*
X38156006Y-17902998D01*
X38262441Y-18049494D01*
X38262445Y-18049499D01*
X38390500Y-18177554D01*
X38390505Y-18177558D01*
X38470164Y-18235433D01*
X38537006Y-18283996D01*
X38621796Y-18327199D01*
X38698360Y-18366211D01*
X38698363Y-18366212D01*
X38784476Y-18394191D01*
X38870591Y-18422171D01*
X38953429Y-18435291D01*
X39049449Y-18450500D01*
X39049454Y-18450500D01*
X39230551Y-18450500D01*
X39317259Y-18436765D01*
X39409409Y-18422171D01*
X39581639Y-18366211D01*
X39742994Y-18283996D01*
X39889501Y-18177553D01*
X40017553Y-18049501D01*
X40123996Y-17902994D01*
X40182213Y-17788736D01*
X40230186Y-17737942D01*
X40298007Y-17721147D01*
X40324781Y-17725256D01*
G37*
G04 #@! TD.AperFunction*
M02*
