%TF.GenerationSoftware,KiCad,Pcbnew,10.0.5*%
%TF.CreationDate,2026-08-26T16:38:24+09:00*%
%TF.ProjectId,bc250-front-mini,62633235-302d-4667-926f-6e742d6d696e,1.0*%
%TF.SameCoordinates,Original*%
%TF.FileFunction,Drillmap*%
%TF.FilePolarity,Positive*%
%FSLAX45Y45*%
G04 Gerber Fmt 4.5, Leading zero omitted, Abs format (unit mm)*
G04 Created by KiCad (PCBNEW 10.0.5) date 2026-08-26 16:38:24*
%MOMM*%
%LPD*%
G01*
G04 APERTURE LIST*
%ADD10C,0.050000*%
%ADD11C,0.200000*%
%ADD12C,0.100000*%
%ADD13C,0.140000*%
%ADD14C,0.320000*%
G04 APERTURE END LIST*
D10*
X0Y-200000D02*
G75*
G02*
X200000Y0I200000J0D01*
G01*
X0Y-4800000D02*
X0Y-200000D01*
X200000Y0D02*
X6400000Y0D01*
X200000Y-5000000D02*
G75*
G02*
X0Y-4800000I0J200000D01*
G01*
X6400000Y0D02*
G75*
G02*
X6600000Y-200000I0J-200000D01*
G01*
X6400000Y-5000000D02*
X200000Y-5000000D01*
X6600000Y-200000D02*
X6600000Y-4800000D01*
X6600000Y-4800000D02*
G75*
G02*
X6400000Y-5000000I-200000J0D01*
G01*
D11*
D12*
X1487250Y-3093950D02*
X1527250Y-3133950D01*
X1527250Y-3093950D02*
X1487250Y-3133950D01*
X1988990Y-2248810D02*
X2028990Y-2288810D01*
X2028990Y-2248810D02*
X1988990Y-2288810D01*
X4393150Y-2349350D02*
X4433150Y-2389350D01*
X4433150Y-2349350D02*
X4393150Y-2389350D01*
X4647500Y-2318820D02*
X4687500Y-2358820D01*
X4687500Y-2318820D02*
X4647500Y-2358820D01*
X5373750Y-2435570D02*
X5413750Y-2475570D01*
X5413750Y-2435570D02*
X5373750Y-2475570D01*
X5444440Y-2948060D02*
X5484440Y-2988060D01*
X5484440Y-2948060D02*
X5444440Y-2988060D01*
X1471670Y-2451670D02*
G75*
G02*
X1421670Y-2451670I-25000J0D01*
G01*
X1421670Y-2451670D02*
G75*
G02*
X1471670Y-2451670I25000J0D01*
G01*
X1901240Y-2885580D02*
G75*
G02*
X1851240Y-2885580I-25000J0D01*
G01*
X1851240Y-2885580D02*
G75*
G02*
X1901240Y-2885580I25000J0D01*
G01*
X4943070Y-2885570D02*
G75*
G02*
X4893070Y-2885570I-25000J0D01*
G01*
X4893070Y-2885570D02*
G75*
G02*
X4943070Y-2885570I25000J0D01*
G01*
X6225000Y-2645000D02*
G75*
G02*
X6175000Y-2645000I-25000J0D01*
G01*
X6175000Y-2645000D02*
G75*
G02*
X6225000Y-2645000I25000J0D01*
G01*
X300000Y-310000D02*
X300000Y-410000D01*
X250000Y-360000D02*
X350000Y-360000D01*
X400000Y-4600000D02*
X400000Y-4700000D01*
X350000Y-4650000D02*
X450000Y-4650000D01*
X554000Y-310000D02*
X554000Y-410000D01*
X504000Y-360000D02*
X604000Y-360000D01*
X654000Y-4600000D02*
X654000Y-4700000D01*
X604000Y-4650000D02*
X704000Y-4650000D01*
X808000Y-310000D02*
X808000Y-410000D01*
X758000Y-360000D02*
X858000Y-360000D01*
X866000Y-1680000D02*
X866000Y-1780000D01*
X816000Y-1730000D02*
X916000Y-1730000D01*
X866000Y-3966000D02*
X866000Y-4066000D01*
X816000Y-4016000D02*
X916000Y-4016000D01*
X908000Y-4600000D02*
X908000Y-4700000D01*
X858000Y-4650000D02*
X958000Y-4650000D01*
X1062000Y-310000D02*
X1062000Y-410000D01*
X1012000Y-360000D02*
X1112000Y-360000D01*
X1120000Y-1680000D02*
X1120000Y-1780000D01*
X1070000Y-1730000D02*
X1170000Y-1730000D01*
X1120000Y-3966000D02*
X1120000Y-4066000D01*
X1070000Y-4016000D02*
X1170000Y-4016000D01*
X1162000Y-4600000D02*
X1162000Y-4700000D01*
X1112000Y-4650000D02*
X1212000Y-4650000D01*
X1374000Y-1680000D02*
X1374000Y-1780000D01*
X1324000Y-1730000D02*
X1424000Y-1730000D01*
X1374000Y-3966000D02*
X1374000Y-4066000D01*
X1324000Y-4016000D02*
X1424000Y-4016000D01*
X1550000Y-4600000D02*
X1550000Y-4700000D01*
X1500000Y-4650000D02*
X1600000Y-4650000D01*
X1628000Y-1680000D02*
X1628000Y-1780000D01*
X1578000Y-1730000D02*
X1678000Y-1730000D01*
X1628000Y-3966000D02*
X1628000Y-4066000D01*
X1578000Y-4016000D02*
X1678000Y-4016000D01*
X1804000Y-4600000D02*
X1804000Y-4700000D01*
X1754000Y-4650000D02*
X1854000Y-4650000D01*
X1882000Y-1680000D02*
X1882000Y-1780000D01*
X1832000Y-1730000D02*
X1932000Y-1730000D01*
X1882000Y-3966000D02*
X1882000Y-4066000D01*
X1832000Y-4016000D02*
X1932000Y-4016000D01*
X2058000Y-4600000D02*
X2058000Y-4700000D01*
X2008000Y-4650000D02*
X2108000Y-4650000D01*
X2136000Y-1680000D02*
X2136000Y-1780000D01*
X2086000Y-1730000D02*
X2186000Y-1730000D01*
X2136000Y-3966000D02*
X2136000Y-4066000D01*
X2086000Y-4016000D02*
X2186000Y-4016000D01*
X2390000Y-1680000D02*
X2390000Y-1780000D01*
X2340000Y-1730000D02*
X2440000Y-1730000D01*
X2390000Y-3966000D02*
X2390000Y-4066000D01*
X2340000Y-4016000D02*
X2440000Y-4016000D01*
X2450000Y-4600000D02*
X2450000Y-4700000D01*
X2400000Y-4650000D02*
X2500000Y-4650000D01*
X2644000Y-1680000D02*
X2644000Y-1780000D01*
X2594000Y-1730000D02*
X2694000Y-1730000D01*
X2644000Y-3966000D02*
X2644000Y-4066000D01*
X2594000Y-4016000D02*
X2694000Y-4016000D01*
X2704000Y-4600000D02*
X2704000Y-4700000D01*
X2654000Y-4650000D02*
X2754000Y-4650000D01*
X2898000Y-1680000D02*
X2898000Y-1780000D01*
X2848000Y-1730000D02*
X2948000Y-1730000D01*
X2898000Y-3966000D02*
X2898000Y-4066000D01*
X2848000Y-4016000D02*
X2948000Y-4016000D01*
X2958000Y-4600000D02*
X2958000Y-4700000D01*
X2908000Y-4650000D02*
X3008000Y-4650000D01*
X3152000Y-1680000D02*
X3152000Y-1780000D01*
X3102000Y-1730000D02*
X3202000Y-1730000D01*
X3152000Y-3966000D02*
X3152000Y-4066000D01*
X3102000Y-4016000D02*
X3202000Y-4016000D01*
X3350000Y-4600000D02*
X3350000Y-4700000D01*
X3300000Y-4650000D02*
X3400000Y-4650000D01*
X3406000Y-1680000D02*
X3406000Y-1780000D01*
X3356000Y-1730000D02*
X3456000Y-1730000D01*
X3406000Y-3966000D02*
X3406000Y-4066000D01*
X3356000Y-4016000D02*
X3456000Y-4016000D01*
X3604000Y-4600000D02*
X3604000Y-4700000D01*
X3554000Y-4650000D02*
X3654000Y-4650000D01*
X3660000Y-1680000D02*
X3660000Y-1780000D01*
X3610000Y-1730000D02*
X3710000Y-1730000D01*
X3660000Y-3966000D02*
X3660000Y-4066000D01*
X3610000Y-4016000D02*
X3710000Y-4016000D01*
X3858000Y-4600000D02*
X3858000Y-4700000D01*
X3808000Y-4650000D02*
X3908000Y-4650000D01*
X3914000Y-1680000D02*
X3914000Y-1780000D01*
X3864000Y-1730000D02*
X3964000Y-1730000D01*
X3914000Y-3966000D02*
X3914000Y-4066000D01*
X3864000Y-4016000D02*
X3964000Y-4016000D01*
X4168000Y-1680000D02*
X4168000Y-1780000D01*
X4118000Y-1730000D02*
X4218000Y-1730000D01*
X4168000Y-3966000D02*
X4168000Y-4066000D01*
X4118000Y-4016000D02*
X4218000Y-4016000D01*
X4300000Y-4600000D02*
X4300000Y-4700000D01*
X4250000Y-4650000D02*
X4350000Y-4650000D01*
X4422000Y-1680000D02*
X4422000Y-1780000D01*
X4372000Y-1730000D02*
X4472000Y-1730000D01*
X4422000Y-3966000D02*
X4422000Y-4066000D01*
X4372000Y-4016000D02*
X4472000Y-4016000D01*
X4554000Y-4600000D02*
X4554000Y-4700000D01*
X4504000Y-4650000D02*
X4604000Y-4650000D01*
X4676000Y-1680000D02*
X4676000Y-1780000D01*
X4626000Y-1730000D02*
X4726000Y-1730000D01*
X4676000Y-3966000D02*
X4676000Y-4066000D01*
X4626000Y-4016000D02*
X4726000Y-4016000D01*
X4808000Y-4600000D02*
X4808000Y-4700000D01*
X4758000Y-4650000D02*
X4858000Y-4650000D01*
X4930000Y-1680000D02*
X4930000Y-1780000D01*
X4880000Y-1730000D02*
X4980000Y-1730000D01*
X4930000Y-3966000D02*
X4930000Y-4066000D01*
X4880000Y-4016000D02*
X4980000Y-4016000D01*
X5062000Y-4600000D02*
X5062000Y-4700000D01*
X5012000Y-4650000D02*
X5112000Y-4650000D01*
X5184000Y-1680000D02*
X5184000Y-1780000D01*
X5134000Y-1730000D02*
X5234000Y-1730000D01*
X5184000Y-3966000D02*
X5184000Y-4066000D01*
X5134000Y-4016000D02*
X5234000Y-4016000D01*
X5316000Y-4600000D02*
X5316000Y-4700000D01*
X5266000Y-4650000D02*
X5366000Y-4650000D01*
X5438000Y-1680000D02*
X5438000Y-1780000D01*
X5388000Y-1730000D02*
X5488000Y-1730000D01*
X5438000Y-3966000D02*
X5438000Y-4066000D01*
X5388000Y-4016000D02*
X5488000Y-4016000D01*
X5570000Y-4600000D02*
X5570000Y-4700000D01*
X5520000Y-4650000D02*
X5620000Y-4650000D01*
X5692000Y-1680000D02*
X5692000Y-1780000D01*
X5642000Y-1730000D02*
X5742000Y-1730000D01*
X5692000Y-3966000D02*
X5692000Y-4066000D01*
X5642000Y-4016000D02*
X5742000Y-4016000D01*
X5824000Y-4600000D02*
X5824000Y-4700000D01*
X5774000Y-4650000D02*
X5874000Y-4650000D01*
X5946000Y-1680000D02*
X5946000Y-1780000D01*
X5896000Y-1730000D02*
X5996000Y-1730000D01*
X5946000Y-3966000D02*
X5946000Y-4066000D01*
X5896000Y-4016000D02*
X5996000Y-4016000D01*
X6078000Y-4600000D02*
X6078000Y-4700000D01*
X6028000Y-4650000D02*
X6128000Y-4650000D01*
X6200000Y-1680000D02*
X6200000Y-1780000D01*
X6150000Y-1730000D02*
X6250000Y-1730000D01*
X6200000Y-3966000D02*
X6200000Y-4066000D01*
X6150000Y-4016000D02*
X6250000Y-4016000D01*
D13*
X1679498Y-599498D02*
X1679498Y-500502D01*
X1580502Y-500502D01*
X1580502Y-599498D01*
X1679498Y-599498D01*
X1679498Y-1149498D02*
X1679498Y-1050502D01*
X1580502Y-1050502D01*
X1580502Y-1149498D01*
X1679498Y-1149498D01*
X2099498Y-599498D02*
X2099498Y-500502D01*
X2000502Y-500502D01*
X2000502Y-599498D01*
X2099498Y-599498D01*
X2099498Y-1149498D02*
X2099498Y-1050502D01*
X2000502Y-1050502D01*
X2000502Y-1149498D01*
X2099498Y-1149498D01*
X2519498Y-599498D02*
X2519498Y-500502D01*
X2420502Y-500502D01*
X2420502Y-599498D01*
X2519498Y-599498D01*
X2519498Y-1149498D02*
X2519498Y-1050502D01*
X2420502Y-1050502D01*
X2420502Y-1149498D01*
X2519498Y-1149498D01*
X2939498Y-599498D02*
X2939498Y-500502D01*
X2840502Y-500502D01*
X2840502Y-599498D01*
X2939498Y-599498D01*
X2939498Y-1149498D02*
X2939498Y-1050502D01*
X2840502Y-1050502D01*
X2840502Y-1149498D01*
X2939498Y-1149498D01*
X3359498Y-599498D02*
X3359498Y-500502D01*
X3260502Y-500502D01*
X3260502Y-599498D01*
X3359498Y-599498D01*
X3359498Y-1149498D02*
X3359498Y-1050502D01*
X3260502Y-1050502D01*
X3260502Y-1149498D01*
X3359498Y-1149498D01*
X3779498Y-599498D02*
X3779498Y-500502D01*
X3680502Y-500502D01*
X3680502Y-599498D01*
X3779498Y-599498D01*
X3779498Y-1149498D02*
X3779498Y-1050502D01*
X3680502Y-1050502D01*
X3680502Y-1149498D01*
X3779498Y-1149498D01*
X4199498Y-599498D02*
X4199498Y-500502D01*
X4100502Y-500502D01*
X4100502Y-599498D01*
X4199498Y-599498D01*
X4199498Y-1149498D02*
X4199498Y-1050502D01*
X4100502Y-1050502D01*
X4100502Y-1149498D01*
X4199498Y-1149498D01*
X4619498Y-599498D02*
X4619498Y-500502D01*
X4520502Y-500502D01*
X4520502Y-599498D01*
X4619498Y-599498D01*
X4619498Y-1149498D02*
X4619498Y-1050502D01*
X4520502Y-1050502D01*
X4520502Y-1149498D01*
X4619498Y-1149498D01*
X5039498Y-599498D02*
X5039498Y-500502D01*
X4940502Y-500502D01*
X4940502Y-599498D01*
X5039498Y-599498D01*
X5039498Y-1149498D02*
X5039498Y-1050502D01*
X4940502Y-1050502D01*
X4940502Y-1149498D01*
X5039498Y-1149498D01*
X5459498Y-599498D02*
X5459498Y-500502D01*
X5360502Y-500502D01*
X5360502Y-599498D01*
X5459498Y-599498D01*
X5459498Y-1149498D02*
X5459498Y-1050502D01*
X5360502Y-1050502D01*
X5360502Y-1149498D01*
X5459498Y-1149498D01*
X5879498Y-599498D02*
X5879498Y-500502D01*
X5780502Y-500502D01*
X5780502Y-599498D01*
X5879498Y-599498D01*
X5879498Y-1149498D02*
X5879498Y-1050502D01*
X5780502Y-1050502D01*
X5780502Y-1149498D01*
X5879498Y-1149498D01*
X6299498Y-599498D02*
X6299498Y-500502D01*
X6200502Y-500502D01*
X6200502Y-599498D01*
X6299498Y-599498D01*
X6299498Y-1149498D02*
X6299498Y-1050502D01*
X6200502Y-1050502D01*
X6200502Y-1149498D01*
X6299498Y-1149498D01*
D14*
X700000Y-3010000D02*
X860000Y-2850000D01*
X700000Y-2690000D01*
X540000Y-2850000D01*
X700000Y-3010000D01*
X3800000Y-3060000D02*
X3960000Y-2900000D01*
X3800000Y-2740000D01*
X3640000Y-2900000D01*
X3800000Y-3060000D01*
D11*
X258277Y-5313984D02*
X258277Y-5113984D01*
X258277Y-5113984D02*
X305896Y-5113984D01*
X305896Y-5113984D02*
X334467Y-5123508D01*
X334467Y-5123508D02*
X353515Y-5142555D01*
X353515Y-5142555D02*
X363039Y-5161603D01*
X363039Y-5161603D02*
X372562Y-5199698D01*
X372562Y-5199698D02*
X372562Y-5228270D01*
X372562Y-5228270D02*
X363039Y-5266365D01*
X363039Y-5266365D02*
X353515Y-5285412D01*
X353515Y-5285412D02*
X334467Y-5304460D01*
X334467Y-5304460D02*
X305896Y-5313984D01*
X305896Y-5313984D02*
X258277Y-5313984D01*
X458277Y-5313984D02*
X458277Y-5180650D01*
X458277Y-5218746D02*
X467801Y-5199698D01*
X467801Y-5199698D02*
X477324Y-5190174D01*
X477324Y-5190174D02*
X496372Y-5180650D01*
X496372Y-5180650D02*
X515420Y-5180650D01*
X582086Y-5313984D02*
X582086Y-5180650D01*
X582086Y-5113984D02*
X572563Y-5123508D01*
X572563Y-5123508D02*
X582086Y-5133031D01*
X582086Y-5133031D02*
X591610Y-5123508D01*
X591610Y-5123508D02*
X582086Y-5113984D01*
X582086Y-5113984D02*
X582086Y-5133031D01*
X705896Y-5313984D02*
X686848Y-5304460D01*
X686848Y-5304460D02*
X677324Y-5285412D01*
X677324Y-5285412D02*
X677324Y-5113984D01*
X810658Y-5313984D02*
X791610Y-5304460D01*
X791610Y-5304460D02*
X782086Y-5285412D01*
X782086Y-5285412D02*
X782086Y-5113984D01*
X1039229Y-5313984D02*
X1039229Y-5113984D01*
X1039229Y-5113984D02*
X1105896Y-5256841D01*
X1105896Y-5256841D02*
X1172563Y-5113984D01*
X1172563Y-5113984D02*
X1172563Y-5313984D01*
X1353515Y-5313984D02*
X1353515Y-5209222D01*
X1353515Y-5209222D02*
X1343991Y-5190174D01*
X1343991Y-5190174D02*
X1324944Y-5180650D01*
X1324944Y-5180650D02*
X1286848Y-5180650D01*
X1286848Y-5180650D02*
X1267801Y-5190174D01*
X1353515Y-5304460D02*
X1334467Y-5313984D01*
X1334467Y-5313984D02*
X1286848Y-5313984D01*
X1286848Y-5313984D02*
X1267801Y-5304460D01*
X1267801Y-5304460D02*
X1258277Y-5285412D01*
X1258277Y-5285412D02*
X1258277Y-5266365D01*
X1258277Y-5266365D02*
X1267801Y-5247317D01*
X1267801Y-5247317D02*
X1286848Y-5237793D01*
X1286848Y-5237793D02*
X1334467Y-5237793D01*
X1334467Y-5237793D02*
X1353515Y-5228270D01*
X1448753Y-5180650D02*
X1448753Y-5380650D01*
X1448753Y-5190174D02*
X1467801Y-5180650D01*
X1467801Y-5180650D02*
X1505896Y-5180650D01*
X1505896Y-5180650D02*
X1524943Y-5190174D01*
X1524943Y-5190174D02*
X1534467Y-5199698D01*
X1534467Y-5199698D02*
X1543991Y-5218746D01*
X1543991Y-5218746D02*
X1543991Y-5275889D01*
X1543991Y-5275889D02*
X1534467Y-5294936D01*
X1534467Y-5294936D02*
X1524943Y-5304460D01*
X1524943Y-5304460D02*
X1505896Y-5313984D01*
X1505896Y-5313984D02*
X1467801Y-5313984D01*
X1467801Y-5313984D02*
X1448753Y-5304460D01*
X1629705Y-5294936D02*
X1639229Y-5304460D01*
X1639229Y-5304460D02*
X1629705Y-5313984D01*
X1629705Y-5313984D02*
X1620182Y-5304460D01*
X1620182Y-5304460D02*
X1629705Y-5294936D01*
X1629705Y-5294936D02*
X1629705Y-5313984D01*
X1629705Y-5190174D02*
X1639229Y-5199698D01*
X1639229Y-5199698D02*
X1629705Y-5209222D01*
X1629705Y-5209222D02*
X1620182Y-5199698D01*
X1620182Y-5199698D02*
X1629705Y-5190174D01*
X1629705Y-5190174D02*
X1629705Y-5209222D01*
D12*
X-42500Y-5622500D02*
X-2500Y-5662500D01*
X-2500Y-5622500D02*
X-42500Y-5662500D01*
D11*
X296372Y-5533984D02*
X315420Y-5533984D01*
X315420Y-5533984D02*
X334467Y-5543508D01*
X334467Y-5543508D02*
X343991Y-5553031D01*
X343991Y-5553031D02*
X353515Y-5572079D01*
X353515Y-5572079D02*
X363039Y-5610174D01*
X363039Y-5610174D02*
X363039Y-5657793D01*
X363039Y-5657793D02*
X353515Y-5695888D01*
X353515Y-5695888D02*
X343991Y-5714936D01*
X343991Y-5714936D02*
X334467Y-5724460D01*
X334467Y-5724460D02*
X315420Y-5733984D01*
X315420Y-5733984D02*
X296372Y-5733984D01*
X296372Y-5733984D02*
X277324Y-5724460D01*
X277324Y-5724460D02*
X267801Y-5714936D01*
X267801Y-5714936D02*
X258277Y-5695888D01*
X258277Y-5695888D02*
X248753Y-5657793D01*
X248753Y-5657793D02*
X248753Y-5610174D01*
X248753Y-5610174D02*
X258277Y-5572079D01*
X258277Y-5572079D02*
X267801Y-5553031D01*
X267801Y-5553031D02*
X277324Y-5543508D01*
X277324Y-5543508D02*
X296372Y-5533984D01*
X448753Y-5714936D02*
X458277Y-5724460D01*
X458277Y-5724460D02*
X448753Y-5733984D01*
X448753Y-5733984D02*
X439229Y-5724460D01*
X439229Y-5724460D02*
X448753Y-5714936D01*
X448753Y-5714936D02*
X448753Y-5733984D01*
X629705Y-5600650D02*
X629705Y-5733984D01*
X582086Y-5524460D02*
X534467Y-5667317D01*
X534467Y-5667317D02*
X658277Y-5667317D01*
X772562Y-5533984D02*
X791610Y-5533984D01*
X791610Y-5533984D02*
X810658Y-5543508D01*
X810658Y-5543508D02*
X820182Y-5553031D01*
X820182Y-5553031D02*
X829705Y-5572079D01*
X829705Y-5572079D02*
X839229Y-5610174D01*
X839229Y-5610174D02*
X839229Y-5657793D01*
X839229Y-5657793D02*
X829705Y-5695888D01*
X829705Y-5695888D02*
X820182Y-5714936D01*
X820182Y-5714936D02*
X810658Y-5724460D01*
X810658Y-5724460D02*
X791610Y-5733984D01*
X791610Y-5733984D02*
X772562Y-5733984D01*
X772562Y-5733984D02*
X753515Y-5724460D01*
X753515Y-5724460D02*
X743991Y-5714936D01*
X743991Y-5714936D02*
X734467Y-5695888D01*
X734467Y-5695888D02*
X724943Y-5657793D01*
X724943Y-5657793D02*
X724943Y-5610174D01*
X724943Y-5610174D02*
X734467Y-5572079D01*
X734467Y-5572079D02*
X743991Y-5553031D01*
X743991Y-5553031D02*
X753515Y-5543508D01*
X753515Y-5543508D02*
X772562Y-5533984D01*
X963039Y-5533984D02*
X982086Y-5533984D01*
X982086Y-5533984D02*
X1001134Y-5543508D01*
X1001134Y-5543508D02*
X1010658Y-5553031D01*
X1010658Y-5553031D02*
X1020182Y-5572079D01*
X1020182Y-5572079D02*
X1029705Y-5610174D01*
X1029705Y-5610174D02*
X1029705Y-5657793D01*
X1029705Y-5657793D02*
X1020182Y-5695888D01*
X1020182Y-5695888D02*
X1010658Y-5714936D01*
X1010658Y-5714936D02*
X1001134Y-5724460D01*
X1001134Y-5724460D02*
X982086Y-5733984D01*
X982086Y-5733984D02*
X963039Y-5733984D01*
X963039Y-5733984D02*
X943991Y-5724460D01*
X943991Y-5724460D02*
X934467Y-5714936D01*
X934467Y-5714936D02*
X924943Y-5695888D01*
X924943Y-5695888D02*
X915420Y-5657793D01*
X915420Y-5657793D02*
X915420Y-5610174D01*
X915420Y-5610174D02*
X924943Y-5572079D01*
X924943Y-5572079D02*
X934467Y-5553031D01*
X934467Y-5553031D02*
X943991Y-5543508D01*
X943991Y-5543508D02*
X963039Y-5533984D01*
X1115420Y-5733984D02*
X1115420Y-5600650D01*
X1115420Y-5619698D02*
X1124944Y-5610174D01*
X1124944Y-5610174D02*
X1143991Y-5600650D01*
X1143991Y-5600650D02*
X1172563Y-5600650D01*
X1172563Y-5600650D02*
X1191610Y-5610174D01*
X1191610Y-5610174D02*
X1201134Y-5629222D01*
X1201134Y-5629222D02*
X1201134Y-5733984D01*
X1201134Y-5629222D02*
X1210658Y-5610174D01*
X1210658Y-5610174D02*
X1229705Y-5600650D01*
X1229705Y-5600650D02*
X1258277Y-5600650D01*
X1258277Y-5600650D02*
X1277325Y-5610174D01*
X1277325Y-5610174D02*
X1286848Y-5629222D01*
X1286848Y-5629222D02*
X1286848Y-5733984D01*
X1382086Y-5733984D02*
X1382086Y-5600650D01*
X1382086Y-5619698D02*
X1391610Y-5610174D01*
X1391610Y-5610174D02*
X1410658Y-5600650D01*
X1410658Y-5600650D02*
X1439229Y-5600650D01*
X1439229Y-5600650D02*
X1458277Y-5610174D01*
X1458277Y-5610174D02*
X1467801Y-5629222D01*
X1467801Y-5629222D02*
X1467801Y-5733984D01*
X1467801Y-5629222D02*
X1477324Y-5610174D01*
X1477324Y-5610174D02*
X1496372Y-5600650D01*
X1496372Y-5600650D02*
X1524943Y-5600650D01*
X1524943Y-5600650D02*
X1543991Y-5610174D01*
X1543991Y-5610174D02*
X1553515Y-5629222D01*
X1553515Y-5629222D02*
X1553515Y-5733984D01*
X1943991Y-5524460D02*
X1772563Y-5781603D01*
X2201134Y-5533984D02*
X2220182Y-5533984D01*
X2220182Y-5533984D02*
X2239229Y-5543508D01*
X2239229Y-5543508D02*
X2248753Y-5553031D01*
X2248753Y-5553031D02*
X2258277Y-5572079D01*
X2258277Y-5572079D02*
X2267801Y-5610174D01*
X2267801Y-5610174D02*
X2267801Y-5657793D01*
X2267801Y-5657793D02*
X2258277Y-5695888D01*
X2258277Y-5695888D02*
X2248753Y-5714936D01*
X2248753Y-5714936D02*
X2239229Y-5724460D01*
X2239229Y-5724460D02*
X2220182Y-5733984D01*
X2220182Y-5733984D02*
X2201134Y-5733984D01*
X2201134Y-5733984D02*
X2182087Y-5724460D01*
X2182087Y-5724460D02*
X2172563Y-5714936D01*
X2172563Y-5714936D02*
X2163039Y-5695888D01*
X2163039Y-5695888D02*
X2153515Y-5657793D01*
X2153515Y-5657793D02*
X2153515Y-5610174D01*
X2153515Y-5610174D02*
X2163039Y-5572079D01*
X2163039Y-5572079D02*
X2172563Y-5553031D01*
X2172563Y-5553031D02*
X2182087Y-5543508D01*
X2182087Y-5543508D02*
X2201134Y-5533984D01*
X2353515Y-5714936D02*
X2363039Y-5724460D01*
X2363039Y-5724460D02*
X2353515Y-5733984D01*
X2353515Y-5733984D02*
X2343991Y-5724460D01*
X2343991Y-5724460D02*
X2353515Y-5714936D01*
X2353515Y-5714936D02*
X2353515Y-5733984D01*
X2486848Y-5533984D02*
X2505896Y-5533984D01*
X2505896Y-5533984D02*
X2524944Y-5543508D01*
X2524944Y-5543508D02*
X2534468Y-5553031D01*
X2534468Y-5553031D02*
X2543991Y-5572079D01*
X2543991Y-5572079D02*
X2553515Y-5610174D01*
X2553515Y-5610174D02*
X2553515Y-5657793D01*
X2553515Y-5657793D02*
X2543991Y-5695888D01*
X2543991Y-5695888D02*
X2534468Y-5714936D01*
X2534468Y-5714936D02*
X2524944Y-5724460D01*
X2524944Y-5724460D02*
X2505896Y-5733984D01*
X2505896Y-5733984D02*
X2486848Y-5733984D01*
X2486848Y-5733984D02*
X2467801Y-5724460D01*
X2467801Y-5724460D02*
X2458277Y-5714936D01*
X2458277Y-5714936D02*
X2448753Y-5695888D01*
X2448753Y-5695888D02*
X2439229Y-5657793D01*
X2439229Y-5657793D02*
X2439229Y-5610174D01*
X2439229Y-5610174D02*
X2448753Y-5572079D01*
X2448753Y-5572079D02*
X2458277Y-5553031D01*
X2458277Y-5553031D02*
X2467801Y-5543508D01*
X2467801Y-5543508D02*
X2486848Y-5533984D01*
X2743991Y-5733984D02*
X2629706Y-5733984D01*
X2686848Y-5733984D02*
X2686848Y-5533984D01*
X2686848Y-5533984D02*
X2667801Y-5562555D01*
X2667801Y-5562555D02*
X2648753Y-5581603D01*
X2648753Y-5581603D02*
X2629706Y-5591127D01*
X2924944Y-5533984D02*
X2829706Y-5533984D01*
X2829706Y-5533984D02*
X2820182Y-5629222D01*
X2820182Y-5629222D02*
X2829706Y-5619698D01*
X2829706Y-5619698D02*
X2848753Y-5610174D01*
X2848753Y-5610174D02*
X2896372Y-5610174D01*
X2896372Y-5610174D02*
X2915420Y-5619698D01*
X2915420Y-5619698D02*
X2924944Y-5629222D01*
X2924944Y-5629222D02*
X2934467Y-5648269D01*
X2934467Y-5648269D02*
X2934467Y-5695888D01*
X2934467Y-5695888D02*
X2924944Y-5714936D01*
X2924944Y-5714936D02*
X2915420Y-5724460D01*
X2915420Y-5724460D02*
X2896372Y-5733984D01*
X2896372Y-5733984D02*
X2848753Y-5733984D01*
X2848753Y-5733984D02*
X2829706Y-5724460D01*
X2829706Y-5724460D02*
X2820182Y-5714936D01*
X3001134Y-5533984D02*
X3134467Y-5533984D01*
X3134467Y-5533984D02*
X3048753Y-5733984D01*
X3201134Y-5533984D02*
X3201134Y-5572079D01*
X3277325Y-5533984D02*
X3277325Y-5572079D01*
X3572563Y-5810174D02*
X3563039Y-5800650D01*
X3563039Y-5800650D02*
X3543991Y-5772079D01*
X3543991Y-5772079D02*
X3534468Y-5753031D01*
X3534468Y-5753031D02*
X3524944Y-5724460D01*
X3524944Y-5724460D02*
X3515420Y-5676841D01*
X3515420Y-5676841D02*
X3515420Y-5638746D01*
X3515420Y-5638746D02*
X3524944Y-5591127D01*
X3524944Y-5591127D02*
X3534468Y-5562555D01*
X3534468Y-5562555D02*
X3543991Y-5543508D01*
X3543991Y-5543508D02*
X3563039Y-5514936D01*
X3563039Y-5514936D02*
X3572563Y-5505412D01*
X3734468Y-5533984D02*
X3696372Y-5533984D01*
X3696372Y-5533984D02*
X3677325Y-5543508D01*
X3677325Y-5543508D02*
X3667801Y-5553031D01*
X3667801Y-5553031D02*
X3648753Y-5581603D01*
X3648753Y-5581603D02*
X3639229Y-5619698D01*
X3639229Y-5619698D02*
X3639229Y-5695888D01*
X3639229Y-5695888D02*
X3648753Y-5714936D01*
X3648753Y-5714936D02*
X3658277Y-5724460D01*
X3658277Y-5724460D02*
X3677325Y-5733984D01*
X3677325Y-5733984D02*
X3715420Y-5733984D01*
X3715420Y-5733984D02*
X3734468Y-5724460D01*
X3734468Y-5724460D02*
X3743991Y-5714936D01*
X3743991Y-5714936D02*
X3753515Y-5695888D01*
X3753515Y-5695888D02*
X3753515Y-5648269D01*
X3753515Y-5648269D02*
X3743991Y-5629222D01*
X3743991Y-5629222D02*
X3734468Y-5619698D01*
X3734468Y-5619698D02*
X3715420Y-5610174D01*
X3715420Y-5610174D02*
X3677325Y-5610174D01*
X3677325Y-5610174D02*
X3658277Y-5619698D01*
X3658277Y-5619698D02*
X3648753Y-5629222D01*
X3648753Y-5629222D02*
X3639229Y-5648269D01*
X3991610Y-5733984D02*
X3991610Y-5533984D01*
X4077325Y-5733984D02*
X4077325Y-5629222D01*
X4077325Y-5629222D02*
X4067801Y-5610174D01*
X4067801Y-5610174D02*
X4048753Y-5600650D01*
X4048753Y-5600650D02*
X4020182Y-5600650D01*
X4020182Y-5600650D02*
X4001134Y-5610174D01*
X4001134Y-5610174D02*
X3991610Y-5619698D01*
X4201134Y-5733984D02*
X4182087Y-5724460D01*
X4182087Y-5724460D02*
X4172563Y-5714936D01*
X4172563Y-5714936D02*
X4163039Y-5695888D01*
X4163039Y-5695888D02*
X4163039Y-5638746D01*
X4163039Y-5638746D02*
X4172563Y-5619698D01*
X4172563Y-5619698D02*
X4182087Y-5610174D01*
X4182087Y-5610174D02*
X4201134Y-5600650D01*
X4201134Y-5600650D02*
X4229706Y-5600650D01*
X4229706Y-5600650D02*
X4248753Y-5610174D01*
X4248753Y-5610174D02*
X4258277Y-5619698D01*
X4258277Y-5619698D02*
X4267801Y-5638746D01*
X4267801Y-5638746D02*
X4267801Y-5695888D01*
X4267801Y-5695888D02*
X4258277Y-5714936D01*
X4258277Y-5714936D02*
X4248753Y-5724460D01*
X4248753Y-5724460D02*
X4229706Y-5733984D01*
X4229706Y-5733984D02*
X4201134Y-5733984D01*
X4382087Y-5733984D02*
X4363039Y-5724460D01*
X4363039Y-5724460D02*
X4353515Y-5705412D01*
X4353515Y-5705412D02*
X4353515Y-5533984D01*
X4534468Y-5724460D02*
X4515420Y-5733984D01*
X4515420Y-5733984D02*
X4477325Y-5733984D01*
X4477325Y-5733984D02*
X4458277Y-5724460D01*
X4458277Y-5724460D02*
X4448753Y-5705412D01*
X4448753Y-5705412D02*
X4448753Y-5629222D01*
X4448753Y-5629222D02*
X4458277Y-5610174D01*
X4458277Y-5610174D02*
X4477325Y-5600650D01*
X4477325Y-5600650D02*
X4515420Y-5600650D01*
X4515420Y-5600650D02*
X4534468Y-5610174D01*
X4534468Y-5610174D02*
X4543992Y-5629222D01*
X4543992Y-5629222D02*
X4543992Y-5648269D01*
X4543992Y-5648269D02*
X4448753Y-5667317D01*
X4620182Y-5724460D02*
X4639230Y-5733984D01*
X4639230Y-5733984D02*
X4677325Y-5733984D01*
X4677325Y-5733984D02*
X4696373Y-5724460D01*
X4696373Y-5724460D02*
X4705896Y-5705412D01*
X4705896Y-5705412D02*
X4705896Y-5695888D01*
X4705896Y-5695888D02*
X4696373Y-5676841D01*
X4696373Y-5676841D02*
X4677325Y-5667317D01*
X4677325Y-5667317D02*
X4648753Y-5667317D01*
X4648753Y-5667317D02*
X4629706Y-5657793D01*
X4629706Y-5657793D02*
X4620182Y-5638746D01*
X4620182Y-5638746D02*
X4620182Y-5629222D01*
X4620182Y-5629222D02*
X4629706Y-5610174D01*
X4629706Y-5610174D02*
X4648753Y-5600650D01*
X4648753Y-5600650D02*
X4677325Y-5600650D01*
X4677325Y-5600650D02*
X4696373Y-5610174D01*
X4772563Y-5810174D02*
X4782087Y-5800650D01*
X4782087Y-5800650D02*
X4801134Y-5772079D01*
X4801134Y-5772079D02*
X4810658Y-5753031D01*
X4810658Y-5753031D02*
X4820182Y-5724460D01*
X4820182Y-5724460D02*
X4829706Y-5676841D01*
X4829706Y-5676841D02*
X4829706Y-5638746D01*
X4829706Y-5638746D02*
X4820182Y-5591127D01*
X4820182Y-5591127D02*
X4810658Y-5562555D01*
X4810658Y-5562555D02*
X4801134Y-5543508D01*
X4801134Y-5543508D02*
X4782087Y-5514936D01*
X4782087Y-5514936D02*
X4772563Y-5505412D01*
D12*
X-2500Y-5906500D02*
G75*
G02*
X-52500Y-5906500I-25000J0D01*
G01*
X-52500Y-5906500D02*
G75*
G02*
X-2500Y-5906500I25000J0D01*
G01*
D11*
X296372Y-5797984D02*
X315420Y-5797984D01*
X315420Y-5797984D02*
X334467Y-5807508D01*
X334467Y-5807508D02*
X343991Y-5817031D01*
X343991Y-5817031D02*
X353515Y-5836079D01*
X353515Y-5836079D02*
X363039Y-5874174D01*
X363039Y-5874174D02*
X363039Y-5921793D01*
X363039Y-5921793D02*
X353515Y-5959888D01*
X353515Y-5959888D02*
X343991Y-5978936D01*
X343991Y-5978936D02*
X334467Y-5988460D01*
X334467Y-5988460D02*
X315420Y-5997984D01*
X315420Y-5997984D02*
X296372Y-5997984D01*
X296372Y-5997984D02*
X277324Y-5988460D01*
X277324Y-5988460D02*
X267801Y-5978936D01*
X267801Y-5978936D02*
X258277Y-5959888D01*
X258277Y-5959888D02*
X248753Y-5921793D01*
X248753Y-5921793D02*
X248753Y-5874174D01*
X248753Y-5874174D02*
X258277Y-5836079D01*
X258277Y-5836079D02*
X267801Y-5817031D01*
X267801Y-5817031D02*
X277324Y-5807508D01*
X277324Y-5807508D02*
X296372Y-5797984D01*
X448753Y-5978936D02*
X458277Y-5988460D01*
X458277Y-5988460D02*
X448753Y-5997984D01*
X448753Y-5997984D02*
X439229Y-5988460D01*
X439229Y-5988460D02*
X448753Y-5978936D01*
X448753Y-5978936D02*
X448753Y-5997984D01*
X639229Y-5797984D02*
X543991Y-5797984D01*
X543991Y-5797984D02*
X534467Y-5893222D01*
X534467Y-5893222D02*
X543991Y-5883698D01*
X543991Y-5883698D02*
X563039Y-5874174D01*
X563039Y-5874174D02*
X610658Y-5874174D01*
X610658Y-5874174D02*
X629705Y-5883698D01*
X629705Y-5883698D02*
X639229Y-5893222D01*
X639229Y-5893222D02*
X648753Y-5912269D01*
X648753Y-5912269D02*
X648753Y-5959888D01*
X648753Y-5959888D02*
X639229Y-5978936D01*
X639229Y-5978936D02*
X629705Y-5988460D01*
X629705Y-5988460D02*
X610658Y-5997984D01*
X610658Y-5997984D02*
X563039Y-5997984D01*
X563039Y-5997984D02*
X543991Y-5988460D01*
X543991Y-5988460D02*
X534467Y-5978936D01*
X772562Y-5797984D02*
X791610Y-5797984D01*
X791610Y-5797984D02*
X810658Y-5807508D01*
X810658Y-5807508D02*
X820182Y-5817031D01*
X820182Y-5817031D02*
X829705Y-5836079D01*
X829705Y-5836079D02*
X839229Y-5874174D01*
X839229Y-5874174D02*
X839229Y-5921793D01*
X839229Y-5921793D02*
X829705Y-5959888D01*
X829705Y-5959888D02*
X820182Y-5978936D01*
X820182Y-5978936D02*
X810658Y-5988460D01*
X810658Y-5988460D02*
X791610Y-5997984D01*
X791610Y-5997984D02*
X772562Y-5997984D01*
X772562Y-5997984D02*
X753515Y-5988460D01*
X753515Y-5988460D02*
X743991Y-5978936D01*
X743991Y-5978936D02*
X734467Y-5959888D01*
X734467Y-5959888D02*
X724943Y-5921793D01*
X724943Y-5921793D02*
X724943Y-5874174D01*
X724943Y-5874174D02*
X734467Y-5836079D01*
X734467Y-5836079D02*
X743991Y-5817031D01*
X743991Y-5817031D02*
X753515Y-5807508D01*
X753515Y-5807508D02*
X772562Y-5797984D01*
X963039Y-5797984D02*
X982086Y-5797984D01*
X982086Y-5797984D02*
X1001134Y-5807508D01*
X1001134Y-5807508D02*
X1010658Y-5817031D01*
X1010658Y-5817031D02*
X1020182Y-5836079D01*
X1020182Y-5836079D02*
X1029705Y-5874174D01*
X1029705Y-5874174D02*
X1029705Y-5921793D01*
X1029705Y-5921793D02*
X1020182Y-5959888D01*
X1020182Y-5959888D02*
X1010658Y-5978936D01*
X1010658Y-5978936D02*
X1001134Y-5988460D01*
X1001134Y-5988460D02*
X982086Y-5997984D01*
X982086Y-5997984D02*
X963039Y-5997984D01*
X963039Y-5997984D02*
X943991Y-5988460D01*
X943991Y-5988460D02*
X934467Y-5978936D01*
X934467Y-5978936D02*
X924943Y-5959888D01*
X924943Y-5959888D02*
X915420Y-5921793D01*
X915420Y-5921793D02*
X915420Y-5874174D01*
X915420Y-5874174D02*
X924943Y-5836079D01*
X924943Y-5836079D02*
X934467Y-5817031D01*
X934467Y-5817031D02*
X943991Y-5807508D01*
X943991Y-5807508D02*
X963039Y-5797984D01*
X1115420Y-5997984D02*
X1115420Y-5864650D01*
X1115420Y-5883698D02*
X1124944Y-5874174D01*
X1124944Y-5874174D02*
X1143991Y-5864650D01*
X1143991Y-5864650D02*
X1172563Y-5864650D01*
X1172563Y-5864650D02*
X1191610Y-5874174D01*
X1191610Y-5874174D02*
X1201134Y-5893222D01*
X1201134Y-5893222D02*
X1201134Y-5997984D01*
X1201134Y-5893222D02*
X1210658Y-5874174D01*
X1210658Y-5874174D02*
X1229705Y-5864650D01*
X1229705Y-5864650D02*
X1258277Y-5864650D01*
X1258277Y-5864650D02*
X1277325Y-5874174D01*
X1277325Y-5874174D02*
X1286848Y-5893222D01*
X1286848Y-5893222D02*
X1286848Y-5997984D01*
X1382086Y-5997984D02*
X1382086Y-5864650D01*
X1382086Y-5883698D02*
X1391610Y-5874174D01*
X1391610Y-5874174D02*
X1410658Y-5864650D01*
X1410658Y-5864650D02*
X1439229Y-5864650D01*
X1439229Y-5864650D02*
X1458277Y-5874174D01*
X1458277Y-5874174D02*
X1467801Y-5893222D01*
X1467801Y-5893222D02*
X1467801Y-5997984D01*
X1467801Y-5893222D02*
X1477324Y-5874174D01*
X1477324Y-5874174D02*
X1496372Y-5864650D01*
X1496372Y-5864650D02*
X1524943Y-5864650D01*
X1524943Y-5864650D02*
X1543991Y-5874174D01*
X1543991Y-5874174D02*
X1553515Y-5893222D01*
X1553515Y-5893222D02*
X1553515Y-5997984D01*
X1943991Y-5788460D02*
X1772563Y-6045603D01*
X2201134Y-5797984D02*
X2220182Y-5797984D01*
X2220182Y-5797984D02*
X2239229Y-5807508D01*
X2239229Y-5807508D02*
X2248753Y-5817031D01*
X2248753Y-5817031D02*
X2258277Y-5836079D01*
X2258277Y-5836079D02*
X2267801Y-5874174D01*
X2267801Y-5874174D02*
X2267801Y-5921793D01*
X2267801Y-5921793D02*
X2258277Y-5959888D01*
X2258277Y-5959888D02*
X2248753Y-5978936D01*
X2248753Y-5978936D02*
X2239229Y-5988460D01*
X2239229Y-5988460D02*
X2220182Y-5997984D01*
X2220182Y-5997984D02*
X2201134Y-5997984D01*
X2201134Y-5997984D02*
X2182087Y-5988460D01*
X2182087Y-5988460D02*
X2172563Y-5978936D01*
X2172563Y-5978936D02*
X2163039Y-5959888D01*
X2163039Y-5959888D02*
X2153515Y-5921793D01*
X2153515Y-5921793D02*
X2153515Y-5874174D01*
X2153515Y-5874174D02*
X2163039Y-5836079D01*
X2163039Y-5836079D02*
X2172563Y-5817031D01*
X2172563Y-5817031D02*
X2182087Y-5807508D01*
X2182087Y-5807508D02*
X2201134Y-5797984D01*
X2353515Y-5978936D02*
X2363039Y-5988460D01*
X2363039Y-5988460D02*
X2353515Y-5997984D01*
X2353515Y-5997984D02*
X2343991Y-5988460D01*
X2343991Y-5988460D02*
X2353515Y-5978936D01*
X2353515Y-5978936D02*
X2353515Y-5997984D01*
X2486848Y-5797984D02*
X2505896Y-5797984D01*
X2505896Y-5797984D02*
X2524944Y-5807508D01*
X2524944Y-5807508D02*
X2534468Y-5817031D01*
X2534468Y-5817031D02*
X2543991Y-5836079D01*
X2543991Y-5836079D02*
X2553515Y-5874174D01*
X2553515Y-5874174D02*
X2553515Y-5921793D01*
X2553515Y-5921793D02*
X2543991Y-5959888D01*
X2543991Y-5959888D02*
X2534468Y-5978936D01*
X2534468Y-5978936D02*
X2524944Y-5988460D01*
X2524944Y-5988460D02*
X2505896Y-5997984D01*
X2505896Y-5997984D02*
X2486848Y-5997984D01*
X2486848Y-5997984D02*
X2467801Y-5988460D01*
X2467801Y-5988460D02*
X2458277Y-5978936D01*
X2458277Y-5978936D02*
X2448753Y-5959888D01*
X2448753Y-5959888D02*
X2439229Y-5921793D01*
X2439229Y-5921793D02*
X2439229Y-5874174D01*
X2439229Y-5874174D02*
X2448753Y-5836079D01*
X2448753Y-5836079D02*
X2458277Y-5817031D01*
X2458277Y-5817031D02*
X2467801Y-5807508D01*
X2467801Y-5807508D02*
X2486848Y-5797984D01*
X2743991Y-5997984D02*
X2629706Y-5997984D01*
X2686848Y-5997984D02*
X2686848Y-5797984D01*
X2686848Y-5797984D02*
X2667801Y-5826555D01*
X2667801Y-5826555D02*
X2648753Y-5845603D01*
X2648753Y-5845603D02*
X2629706Y-5855127D01*
X2839229Y-5997984D02*
X2877325Y-5997984D01*
X2877325Y-5997984D02*
X2896372Y-5988460D01*
X2896372Y-5988460D02*
X2905896Y-5978936D01*
X2905896Y-5978936D02*
X2924944Y-5950365D01*
X2924944Y-5950365D02*
X2934467Y-5912269D01*
X2934467Y-5912269D02*
X2934467Y-5836079D01*
X2934467Y-5836079D02*
X2924944Y-5817031D01*
X2924944Y-5817031D02*
X2915420Y-5807508D01*
X2915420Y-5807508D02*
X2896372Y-5797984D01*
X2896372Y-5797984D02*
X2858277Y-5797984D01*
X2858277Y-5797984D02*
X2839229Y-5807508D01*
X2839229Y-5807508D02*
X2829706Y-5817031D01*
X2829706Y-5817031D02*
X2820182Y-5836079D01*
X2820182Y-5836079D02*
X2820182Y-5883698D01*
X2820182Y-5883698D02*
X2829706Y-5902746D01*
X2829706Y-5902746D02*
X2839229Y-5912269D01*
X2839229Y-5912269D02*
X2858277Y-5921793D01*
X2858277Y-5921793D02*
X2896372Y-5921793D01*
X2896372Y-5921793D02*
X2915420Y-5912269D01*
X2915420Y-5912269D02*
X2924944Y-5902746D01*
X2924944Y-5902746D02*
X2934467Y-5883698D01*
X3001134Y-5797984D02*
X3134467Y-5797984D01*
X3134467Y-5797984D02*
X3048753Y-5997984D01*
X3201134Y-5797984D02*
X3201134Y-5836079D01*
X3277325Y-5797984D02*
X3277325Y-5836079D01*
X3572563Y-6074174D02*
X3563039Y-6064650D01*
X3563039Y-6064650D02*
X3543991Y-6036079D01*
X3543991Y-6036079D02*
X3534468Y-6017031D01*
X3534468Y-6017031D02*
X3524944Y-5988460D01*
X3524944Y-5988460D02*
X3515420Y-5940841D01*
X3515420Y-5940841D02*
X3515420Y-5902746D01*
X3515420Y-5902746D02*
X3524944Y-5855127D01*
X3524944Y-5855127D02*
X3534468Y-5826555D01*
X3534468Y-5826555D02*
X3543991Y-5807508D01*
X3543991Y-5807508D02*
X3563039Y-5778936D01*
X3563039Y-5778936D02*
X3572563Y-5769412D01*
X3734468Y-5864650D02*
X3734468Y-5997984D01*
X3686848Y-5788460D02*
X3639229Y-5931317D01*
X3639229Y-5931317D02*
X3763039Y-5931317D01*
X3991610Y-5997984D02*
X3991610Y-5797984D01*
X4077325Y-5997984D02*
X4077325Y-5893222D01*
X4077325Y-5893222D02*
X4067801Y-5874174D01*
X4067801Y-5874174D02*
X4048753Y-5864650D01*
X4048753Y-5864650D02*
X4020182Y-5864650D01*
X4020182Y-5864650D02*
X4001134Y-5874174D01*
X4001134Y-5874174D02*
X3991610Y-5883698D01*
X4201134Y-5997984D02*
X4182087Y-5988460D01*
X4182087Y-5988460D02*
X4172563Y-5978936D01*
X4172563Y-5978936D02*
X4163039Y-5959888D01*
X4163039Y-5959888D02*
X4163039Y-5902746D01*
X4163039Y-5902746D02*
X4172563Y-5883698D01*
X4172563Y-5883698D02*
X4182087Y-5874174D01*
X4182087Y-5874174D02*
X4201134Y-5864650D01*
X4201134Y-5864650D02*
X4229706Y-5864650D01*
X4229706Y-5864650D02*
X4248753Y-5874174D01*
X4248753Y-5874174D02*
X4258277Y-5883698D01*
X4258277Y-5883698D02*
X4267801Y-5902746D01*
X4267801Y-5902746D02*
X4267801Y-5959888D01*
X4267801Y-5959888D02*
X4258277Y-5978936D01*
X4258277Y-5978936D02*
X4248753Y-5988460D01*
X4248753Y-5988460D02*
X4229706Y-5997984D01*
X4229706Y-5997984D02*
X4201134Y-5997984D01*
X4382087Y-5997984D02*
X4363039Y-5988460D01*
X4363039Y-5988460D02*
X4353515Y-5969412D01*
X4353515Y-5969412D02*
X4353515Y-5797984D01*
X4534468Y-5988460D02*
X4515420Y-5997984D01*
X4515420Y-5997984D02*
X4477325Y-5997984D01*
X4477325Y-5997984D02*
X4458277Y-5988460D01*
X4458277Y-5988460D02*
X4448753Y-5969412D01*
X4448753Y-5969412D02*
X4448753Y-5893222D01*
X4448753Y-5893222D02*
X4458277Y-5874174D01*
X4458277Y-5874174D02*
X4477325Y-5864650D01*
X4477325Y-5864650D02*
X4515420Y-5864650D01*
X4515420Y-5864650D02*
X4534468Y-5874174D01*
X4534468Y-5874174D02*
X4543992Y-5893222D01*
X4543992Y-5893222D02*
X4543992Y-5912269D01*
X4543992Y-5912269D02*
X4448753Y-5931317D01*
X4620182Y-5988460D02*
X4639230Y-5997984D01*
X4639230Y-5997984D02*
X4677325Y-5997984D01*
X4677325Y-5997984D02*
X4696373Y-5988460D01*
X4696373Y-5988460D02*
X4705896Y-5969412D01*
X4705896Y-5969412D02*
X4705896Y-5959888D01*
X4705896Y-5959888D02*
X4696373Y-5940841D01*
X4696373Y-5940841D02*
X4677325Y-5931317D01*
X4677325Y-5931317D02*
X4648753Y-5931317D01*
X4648753Y-5931317D02*
X4629706Y-5921793D01*
X4629706Y-5921793D02*
X4620182Y-5902746D01*
X4620182Y-5902746D02*
X4620182Y-5893222D01*
X4620182Y-5893222D02*
X4629706Y-5874174D01*
X4629706Y-5874174D02*
X4648753Y-5864650D01*
X4648753Y-5864650D02*
X4677325Y-5864650D01*
X4677325Y-5864650D02*
X4696373Y-5874174D01*
X4772563Y-6074174D02*
X4782087Y-6064650D01*
X4782087Y-6064650D02*
X4801134Y-6036079D01*
X4801134Y-6036079D02*
X4810658Y-6017031D01*
X4810658Y-6017031D02*
X4820182Y-5988460D01*
X4820182Y-5988460D02*
X4829706Y-5940841D01*
X4829706Y-5940841D02*
X4829706Y-5902746D01*
X4829706Y-5902746D02*
X4820182Y-5855127D01*
X4820182Y-5855127D02*
X4810658Y-5826555D01*
X4810658Y-5826555D02*
X4801134Y-5807508D01*
X4801134Y-5807508D02*
X4782087Y-5778936D01*
X4782087Y-5778936D02*
X4772563Y-5769412D01*
D12*
X-52500Y-6120500D02*
X-52500Y-6220500D01*
X-102500Y-6170500D02*
X-2500Y-6170500D01*
D11*
X363039Y-6261984D02*
X248753Y-6261984D01*
X305896Y-6261984D02*
X305896Y-6061984D01*
X305896Y-6061984D02*
X286848Y-6090555D01*
X286848Y-6090555D02*
X267801Y-6109603D01*
X267801Y-6109603D02*
X248753Y-6119127D01*
X448753Y-6242936D02*
X458277Y-6252460D01*
X458277Y-6252460D02*
X448753Y-6261984D01*
X448753Y-6261984D02*
X439229Y-6252460D01*
X439229Y-6252460D02*
X448753Y-6242936D01*
X448753Y-6242936D02*
X448753Y-6261984D01*
X582086Y-6061984D02*
X601134Y-6061984D01*
X601134Y-6061984D02*
X620182Y-6071508D01*
X620182Y-6071508D02*
X629705Y-6081031D01*
X629705Y-6081031D02*
X639229Y-6100079D01*
X639229Y-6100079D02*
X648753Y-6138174D01*
X648753Y-6138174D02*
X648753Y-6185793D01*
X648753Y-6185793D02*
X639229Y-6223888D01*
X639229Y-6223888D02*
X629705Y-6242936D01*
X629705Y-6242936D02*
X620182Y-6252460D01*
X620182Y-6252460D02*
X601134Y-6261984D01*
X601134Y-6261984D02*
X582086Y-6261984D01*
X582086Y-6261984D02*
X563039Y-6252460D01*
X563039Y-6252460D02*
X553515Y-6242936D01*
X553515Y-6242936D02*
X543991Y-6223888D01*
X543991Y-6223888D02*
X534467Y-6185793D01*
X534467Y-6185793D02*
X534467Y-6138174D01*
X534467Y-6138174D02*
X543991Y-6100079D01*
X543991Y-6100079D02*
X553515Y-6081031D01*
X553515Y-6081031D02*
X563039Y-6071508D01*
X563039Y-6071508D02*
X582086Y-6061984D01*
X772562Y-6061984D02*
X791610Y-6061984D01*
X791610Y-6061984D02*
X810658Y-6071508D01*
X810658Y-6071508D02*
X820182Y-6081031D01*
X820182Y-6081031D02*
X829705Y-6100079D01*
X829705Y-6100079D02*
X839229Y-6138174D01*
X839229Y-6138174D02*
X839229Y-6185793D01*
X839229Y-6185793D02*
X829705Y-6223888D01*
X829705Y-6223888D02*
X820182Y-6242936D01*
X820182Y-6242936D02*
X810658Y-6252460D01*
X810658Y-6252460D02*
X791610Y-6261984D01*
X791610Y-6261984D02*
X772562Y-6261984D01*
X772562Y-6261984D02*
X753515Y-6252460D01*
X753515Y-6252460D02*
X743991Y-6242936D01*
X743991Y-6242936D02*
X734467Y-6223888D01*
X734467Y-6223888D02*
X724943Y-6185793D01*
X724943Y-6185793D02*
X724943Y-6138174D01*
X724943Y-6138174D02*
X734467Y-6100079D01*
X734467Y-6100079D02*
X743991Y-6081031D01*
X743991Y-6081031D02*
X753515Y-6071508D01*
X753515Y-6071508D02*
X772562Y-6061984D01*
X963039Y-6061984D02*
X982086Y-6061984D01*
X982086Y-6061984D02*
X1001134Y-6071508D01*
X1001134Y-6071508D02*
X1010658Y-6081031D01*
X1010658Y-6081031D02*
X1020182Y-6100079D01*
X1020182Y-6100079D02*
X1029705Y-6138174D01*
X1029705Y-6138174D02*
X1029705Y-6185793D01*
X1029705Y-6185793D02*
X1020182Y-6223888D01*
X1020182Y-6223888D02*
X1010658Y-6242936D01*
X1010658Y-6242936D02*
X1001134Y-6252460D01*
X1001134Y-6252460D02*
X982086Y-6261984D01*
X982086Y-6261984D02*
X963039Y-6261984D01*
X963039Y-6261984D02*
X943991Y-6252460D01*
X943991Y-6252460D02*
X934467Y-6242936D01*
X934467Y-6242936D02*
X924943Y-6223888D01*
X924943Y-6223888D02*
X915420Y-6185793D01*
X915420Y-6185793D02*
X915420Y-6138174D01*
X915420Y-6138174D02*
X924943Y-6100079D01*
X924943Y-6100079D02*
X934467Y-6081031D01*
X934467Y-6081031D02*
X943991Y-6071508D01*
X943991Y-6071508D02*
X963039Y-6061984D01*
X1115420Y-6261984D02*
X1115420Y-6128650D01*
X1115420Y-6147698D02*
X1124944Y-6138174D01*
X1124944Y-6138174D02*
X1143991Y-6128650D01*
X1143991Y-6128650D02*
X1172563Y-6128650D01*
X1172563Y-6128650D02*
X1191610Y-6138174D01*
X1191610Y-6138174D02*
X1201134Y-6157222D01*
X1201134Y-6157222D02*
X1201134Y-6261984D01*
X1201134Y-6157222D02*
X1210658Y-6138174D01*
X1210658Y-6138174D02*
X1229705Y-6128650D01*
X1229705Y-6128650D02*
X1258277Y-6128650D01*
X1258277Y-6128650D02*
X1277325Y-6138174D01*
X1277325Y-6138174D02*
X1286848Y-6157222D01*
X1286848Y-6157222D02*
X1286848Y-6261984D01*
X1382086Y-6261984D02*
X1382086Y-6128650D01*
X1382086Y-6147698D02*
X1391610Y-6138174D01*
X1391610Y-6138174D02*
X1410658Y-6128650D01*
X1410658Y-6128650D02*
X1439229Y-6128650D01*
X1439229Y-6128650D02*
X1458277Y-6138174D01*
X1458277Y-6138174D02*
X1467801Y-6157222D01*
X1467801Y-6157222D02*
X1467801Y-6261984D01*
X1467801Y-6157222D02*
X1477324Y-6138174D01*
X1477324Y-6138174D02*
X1496372Y-6128650D01*
X1496372Y-6128650D02*
X1524943Y-6128650D01*
X1524943Y-6128650D02*
X1543991Y-6138174D01*
X1543991Y-6138174D02*
X1553515Y-6157222D01*
X1553515Y-6157222D02*
X1553515Y-6261984D01*
X1943991Y-6052460D02*
X1772563Y-6309603D01*
X2201134Y-6061984D02*
X2220182Y-6061984D01*
X2220182Y-6061984D02*
X2239229Y-6071508D01*
X2239229Y-6071508D02*
X2248753Y-6081031D01*
X2248753Y-6081031D02*
X2258277Y-6100079D01*
X2258277Y-6100079D02*
X2267801Y-6138174D01*
X2267801Y-6138174D02*
X2267801Y-6185793D01*
X2267801Y-6185793D02*
X2258277Y-6223888D01*
X2258277Y-6223888D02*
X2248753Y-6242936D01*
X2248753Y-6242936D02*
X2239229Y-6252460D01*
X2239229Y-6252460D02*
X2220182Y-6261984D01*
X2220182Y-6261984D02*
X2201134Y-6261984D01*
X2201134Y-6261984D02*
X2182087Y-6252460D01*
X2182087Y-6252460D02*
X2172563Y-6242936D01*
X2172563Y-6242936D02*
X2163039Y-6223888D01*
X2163039Y-6223888D02*
X2153515Y-6185793D01*
X2153515Y-6185793D02*
X2153515Y-6138174D01*
X2153515Y-6138174D02*
X2163039Y-6100079D01*
X2163039Y-6100079D02*
X2172563Y-6081031D01*
X2172563Y-6081031D02*
X2182087Y-6071508D01*
X2182087Y-6071508D02*
X2201134Y-6061984D01*
X2353515Y-6242936D02*
X2363039Y-6252460D01*
X2363039Y-6252460D02*
X2353515Y-6261984D01*
X2353515Y-6261984D02*
X2343991Y-6252460D01*
X2343991Y-6252460D02*
X2353515Y-6242936D01*
X2353515Y-6242936D02*
X2353515Y-6261984D01*
X2486848Y-6061984D02*
X2505896Y-6061984D01*
X2505896Y-6061984D02*
X2524944Y-6071508D01*
X2524944Y-6071508D02*
X2534468Y-6081031D01*
X2534468Y-6081031D02*
X2543991Y-6100079D01*
X2543991Y-6100079D02*
X2553515Y-6138174D01*
X2553515Y-6138174D02*
X2553515Y-6185793D01*
X2553515Y-6185793D02*
X2543991Y-6223888D01*
X2543991Y-6223888D02*
X2534468Y-6242936D01*
X2534468Y-6242936D02*
X2524944Y-6252460D01*
X2524944Y-6252460D02*
X2505896Y-6261984D01*
X2505896Y-6261984D02*
X2486848Y-6261984D01*
X2486848Y-6261984D02*
X2467801Y-6252460D01*
X2467801Y-6252460D02*
X2458277Y-6242936D01*
X2458277Y-6242936D02*
X2448753Y-6223888D01*
X2448753Y-6223888D02*
X2439229Y-6185793D01*
X2439229Y-6185793D02*
X2439229Y-6138174D01*
X2439229Y-6138174D02*
X2448753Y-6100079D01*
X2448753Y-6100079D02*
X2458277Y-6081031D01*
X2458277Y-6081031D02*
X2467801Y-6071508D01*
X2467801Y-6071508D02*
X2486848Y-6061984D01*
X2620182Y-6061984D02*
X2743991Y-6061984D01*
X2743991Y-6061984D02*
X2677325Y-6138174D01*
X2677325Y-6138174D02*
X2705896Y-6138174D01*
X2705896Y-6138174D02*
X2724944Y-6147698D01*
X2724944Y-6147698D02*
X2734468Y-6157222D01*
X2734468Y-6157222D02*
X2743991Y-6176269D01*
X2743991Y-6176269D02*
X2743991Y-6223888D01*
X2743991Y-6223888D02*
X2734468Y-6242936D01*
X2734468Y-6242936D02*
X2724944Y-6252460D01*
X2724944Y-6252460D02*
X2705896Y-6261984D01*
X2705896Y-6261984D02*
X2648753Y-6261984D01*
X2648753Y-6261984D02*
X2629706Y-6252460D01*
X2629706Y-6252460D02*
X2620182Y-6242936D01*
X2839229Y-6261984D02*
X2877325Y-6261984D01*
X2877325Y-6261984D02*
X2896372Y-6252460D01*
X2896372Y-6252460D02*
X2905896Y-6242936D01*
X2905896Y-6242936D02*
X2924944Y-6214365D01*
X2924944Y-6214365D02*
X2934467Y-6176269D01*
X2934467Y-6176269D02*
X2934467Y-6100079D01*
X2934467Y-6100079D02*
X2924944Y-6081031D01*
X2924944Y-6081031D02*
X2915420Y-6071508D01*
X2915420Y-6071508D02*
X2896372Y-6061984D01*
X2896372Y-6061984D02*
X2858277Y-6061984D01*
X2858277Y-6061984D02*
X2839229Y-6071508D01*
X2839229Y-6071508D02*
X2829706Y-6081031D01*
X2829706Y-6081031D02*
X2820182Y-6100079D01*
X2820182Y-6100079D02*
X2820182Y-6147698D01*
X2820182Y-6147698D02*
X2829706Y-6166746D01*
X2829706Y-6166746D02*
X2839229Y-6176269D01*
X2839229Y-6176269D02*
X2858277Y-6185793D01*
X2858277Y-6185793D02*
X2896372Y-6185793D01*
X2896372Y-6185793D02*
X2915420Y-6176269D01*
X2915420Y-6176269D02*
X2924944Y-6166746D01*
X2924944Y-6166746D02*
X2934467Y-6147698D01*
X3105896Y-6128650D02*
X3105896Y-6261984D01*
X3058277Y-6052460D02*
X3010658Y-6195317D01*
X3010658Y-6195317D02*
X3134467Y-6195317D01*
X3201134Y-6061984D02*
X3201134Y-6100079D01*
X3277325Y-6061984D02*
X3277325Y-6100079D01*
X3572563Y-6338174D02*
X3563039Y-6328650D01*
X3563039Y-6328650D02*
X3543991Y-6300079D01*
X3543991Y-6300079D02*
X3534468Y-6281031D01*
X3534468Y-6281031D02*
X3524944Y-6252460D01*
X3524944Y-6252460D02*
X3515420Y-6204841D01*
X3515420Y-6204841D02*
X3515420Y-6166746D01*
X3515420Y-6166746D02*
X3524944Y-6119127D01*
X3524944Y-6119127D02*
X3534468Y-6090555D01*
X3534468Y-6090555D02*
X3543991Y-6071508D01*
X3543991Y-6071508D02*
X3563039Y-6042936D01*
X3563039Y-6042936D02*
X3572563Y-6033412D01*
X3734468Y-6061984D02*
X3696372Y-6061984D01*
X3696372Y-6061984D02*
X3677325Y-6071508D01*
X3677325Y-6071508D02*
X3667801Y-6081031D01*
X3667801Y-6081031D02*
X3648753Y-6109603D01*
X3648753Y-6109603D02*
X3639229Y-6147698D01*
X3639229Y-6147698D02*
X3639229Y-6223888D01*
X3639229Y-6223888D02*
X3648753Y-6242936D01*
X3648753Y-6242936D02*
X3658277Y-6252460D01*
X3658277Y-6252460D02*
X3677325Y-6261984D01*
X3677325Y-6261984D02*
X3715420Y-6261984D01*
X3715420Y-6261984D02*
X3734468Y-6252460D01*
X3734468Y-6252460D02*
X3743991Y-6242936D01*
X3743991Y-6242936D02*
X3753515Y-6223888D01*
X3753515Y-6223888D02*
X3753515Y-6176269D01*
X3753515Y-6176269D02*
X3743991Y-6157222D01*
X3743991Y-6157222D02*
X3734468Y-6147698D01*
X3734468Y-6147698D02*
X3715420Y-6138174D01*
X3715420Y-6138174D02*
X3677325Y-6138174D01*
X3677325Y-6138174D02*
X3658277Y-6147698D01*
X3658277Y-6147698D02*
X3648753Y-6157222D01*
X3648753Y-6157222D02*
X3639229Y-6176269D01*
X3848753Y-6261984D02*
X3886848Y-6261984D01*
X3886848Y-6261984D02*
X3905896Y-6252460D01*
X3905896Y-6252460D02*
X3915420Y-6242936D01*
X3915420Y-6242936D02*
X3934468Y-6214365D01*
X3934468Y-6214365D02*
X3943991Y-6176269D01*
X3943991Y-6176269D02*
X3943991Y-6100079D01*
X3943991Y-6100079D02*
X3934468Y-6081031D01*
X3934468Y-6081031D02*
X3924944Y-6071508D01*
X3924944Y-6071508D02*
X3905896Y-6061984D01*
X3905896Y-6061984D02*
X3867801Y-6061984D01*
X3867801Y-6061984D02*
X3848753Y-6071508D01*
X3848753Y-6071508D02*
X3839229Y-6081031D01*
X3839229Y-6081031D02*
X3829706Y-6100079D01*
X3829706Y-6100079D02*
X3829706Y-6147698D01*
X3829706Y-6147698D02*
X3839229Y-6166746D01*
X3839229Y-6166746D02*
X3848753Y-6176269D01*
X3848753Y-6176269D02*
X3867801Y-6185793D01*
X3867801Y-6185793D02*
X3905896Y-6185793D01*
X3905896Y-6185793D02*
X3924944Y-6176269D01*
X3924944Y-6176269D02*
X3934468Y-6166746D01*
X3934468Y-6166746D02*
X3943991Y-6147698D01*
X4182087Y-6261984D02*
X4182087Y-6061984D01*
X4267801Y-6261984D02*
X4267801Y-6157222D01*
X4267801Y-6157222D02*
X4258277Y-6138174D01*
X4258277Y-6138174D02*
X4239230Y-6128650D01*
X4239230Y-6128650D02*
X4210658Y-6128650D01*
X4210658Y-6128650D02*
X4191610Y-6138174D01*
X4191610Y-6138174D02*
X4182087Y-6147698D01*
X4391611Y-6261984D02*
X4372563Y-6252460D01*
X4372563Y-6252460D02*
X4363039Y-6242936D01*
X4363039Y-6242936D02*
X4353515Y-6223888D01*
X4353515Y-6223888D02*
X4353515Y-6166746D01*
X4353515Y-6166746D02*
X4363039Y-6147698D01*
X4363039Y-6147698D02*
X4372563Y-6138174D01*
X4372563Y-6138174D02*
X4391611Y-6128650D01*
X4391611Y-6128650D02*
X4420182Y-6128650D01*
X4420182Y-6128650D02*
X4439230Y-6138174D01*
X4439230Y-6138174D02*
X4448753Y-6147698D01*
X4448753Y-6147698D02*
X4458277Y-6166746D01*
X4458277Y-6166746D02*
X4458277Y-6223888D01*
X4458277Y-6223888D02*
X4448753Y-6242936D01*
X4448753Y-6242936D02*
X4439230Y-6252460D01*
X4439230Y-6252460D02*
X4420182Y-6261984D01*
X4420182Y-6261984D02*
X4391611Y-6261984D01*
X4572563Y-6261984D02*
X4553515Y-6252460D01*
X4553515Y-6252460D02*
X4543992Y-6233412D01*
X4543992Y-6233412D02*
X4543992Y-6061984D01*
X4724944Y-6252460D02*
X4705896Y-6261984D01*
X4705896Y-6261984D02*
X4667801Y-6261984D01*
X4667801Y-6261984D02*
X4648753Y-6252460D01*
X4648753Y-6252460D02*
X4639230Y-6233412D01*
X4639230Y-6233412D02*
X4639230Y-6157222D01*
X4639230Y-6157222D02*
X4648753Y-6138174D01*
X4648753Y-6138174D02*
X4667801Y-6128650D01*
X4667801Y-6128650D02*
X4705896Y-6128650D01*
X4705896Y-6128650D02*
X4724944Y-6138174D01*
X4724944Y-6138174D02*
X4734468Y-6157222D01*
X4734468Y-6157222D02*
X4734468Y-6176269D01*
X4734468Y-6176269D02*
X4639230Y-6195317D01*
X4810658Y-6252460D02*
X4829706Y-6261984D01*
X4829706Y-6261984D02*
X4867801Y-6261984D01*
X4867801Y-6261984D02*
X4886849Y-6252460D01*
X4886849Y-6252460D02*
X4896373Y-6233412D01*
X4896373Y-6233412D02*
X4896373Y-6223888D01*
X4896373Y-6223888D02*
X4886849Y-6204841D01*
X4886849Y-6204841D02*
X4867801Y-6195317D01*
X4867801Y-6195317D02*
X4839230Y-6195317D01*
X4839230Y-6195317D02*
X4820182Y-6185793D01*
X4820182Y-6185793D02*
X4810658Y-6166746D01*
X4810658Y-6166746D02*
X4810658Y-6157222D01*
X4810658Y-6157222D02*
X4820182Y-6138174D01*
X4820182Y-6138174D02*
X4839230Y-6128650D01*
X4839230Y-6128650D02*
X4867801Y-6128650D01*
X4867801Y-6128650D02*
X4886849Y-6138174D01*
X4963039Y-6338174D02*
X4972563Y-6328650D01*
X4972563Y-6328650D02*
X4991611Y-6300079D01*
X4991611Y-6300079D02*
X5001134Y-6281031D01*
X5001134Y-6281031D02*
X5010658Y-6252460D01*
X5010658Y-6252460D02*
X5020182Y-6204841D01*
X5020182Y-6204841D02*
X5020182Y-6166746D01*
X5020182Y-6166746D02*
X5010658Y-6119127D01*
X5010658Y-6119127D02*
X5001134Y-6090555D01*
X5001134Y-6090555D02*
X4991611Y-6071508D01*
X4991611Y-6071508D02*
X4972563Y-6042936D01*
X4972563Y-6042936D02*
X4963039Y-6033412D01*
D13*
X-23002Y-6483998D02*
X-23002Y-6385002D01*
X-121998Y-6385002D01*
X-121998Y-6483998D01*
X-23002Y-6483998D01*
D11*
X363039Y-6525984D02*
X248753Y-6525984D01*
X305896Y-6525984D02*
X305896Y-6325984D01*
X305896Y-6325984D02*
X286848Y-6354555D01*
X286848Y-6354555D02*
X267801Y-6373603D01*
X267801Y-6373603D02*
X248753Y-6383127D01*
X448753Y-6506936D02*
X458277Y-6516460D01*
X458277Y-6516460D02*
X448753Y-6525984D01*
X448753Y-6525984D02*
X439229Y-6516460D01*
X439229Y-6516460D02*
X448753Y-6506936D01*
X448753Y-6506936D02*
X448753Y-6525984D01*
X629705Y-6392650D02*
X629705Y-6525984D01*
X582086Y-6316460D02*
X534467Y-6459317D01*
X534467Y-6459317D02*
X658277Y-6459317D01*
X772562Y-6325984D02*
X791610Y-6325984D01*
X791610Y-6325984D02*
X810658Y-6335508D01*
X810658Y-6335508D02*
X820182Y-6345031D01*
X820182Y-6345031D02*
X829705Y-6364079D01*
X829705Y-6364079D02*
X839229Y-6402174D01*
X839229Y-6402174D02*
X839229Y-6449793D01*
X839229Y-6449793D02*
X829705Y-6487888D01*
X829705Y-6487888D02*
X820182Y-6506936D01*
X820182Y-6506936D02*
X810658Y-6516460D01*
X810658Y-6516460D02*
X791610Y-6525984D01*
X791610Y-6525984D02*
X772562Y-6525984D01*
X772562Y-6525984D02*
X753515Y-6516460D01*
X753515Y-6516460D02*
X743991Y-6506936D01*
X743991Y-6506936D02*
X734467Y-6487888D01*
X734467Y-6487888D02*
X724943Y-6449793D01*
X724943Y-6449793D02*
X724943Y-6402174D01*
X724943Y-6402174D02*
X734467Y-6364079D01*
X734467Y-6364079D02*
X743991Y-6345031D01*
X743991Y-6345031D02*
X753515Y-6335508D01*
X753515Y-6335508D02*
X772562Y-6325984D01*
X963039Y-6325984D02*
X982086Y-6325984D01*
X982086Y-6325984D02*
X1001134Y-6335508D01*
X1001134Y-6335508D02*
X1010658Y-6345031D01*
X1010658Y-6345031D02*
X1020182Y-6364079D01*
X1020182Y-6364079D02*
X1029705Y-6402174D01*
X1029705Y-6402174D02*
X1029705Y-6449793D01*
X1029705Y-6449793D02*
X1020182Y-6487888D01*
X1020182Y-6487888D02*
X1010658Y-6506936D01*
X1010658Y-6506936D02*
X1001134Y-6516460D01*
X1001134Y-6516460D02*
X982086Y-6525984D01*
X982086Y-6525984D02*
X963039Y-6525984D01*
X963039Y-6525984D02*
X943991Y-6516460D01*
X943991Y-6516460D02*
X934467Y-6506936D01*
X934467Y-6506936D02*
X924943Y-6487888D01*
X924943Y-6487888D02*
X915420Y-6449793D01*
X915420Y-6449793D02*
X915420Y-6402174D01*
X915420Y-6402174D02*
X924943Y-6364079D01*
X924943Y-6364079D02*
X934467Y-6345031D01*
X934467Y-6345031D02*
X943991Y-6335508D01*
X943991Y-6335508D02*
X963039Y-6325984D01*
X1115420Y-6525984D02*
X1115420Y-6392650D01*
X1115420Y-6411698D02*
X1124944Y-6402174D01*
X1124944Y-6402174D02*
X1143991Y-6392650D01*
X1143991Y-6392650D02*
X1172563Y-6392650D01*
X1172563Y-6392650D02*
X1191610Y-6402174D01*
X1191610Y-6402174D02*
X1201134Y-6421222D01*
X1201134Y-6421222D02*
X1201134Y-6525984D01*
X1201134Y-6421222D02*
X1210658Y-6402174D01*
X1210658Y-6402174D02*
X1229705Y-6392650D01*
X1229705Y-6392650D02*
X1258277Y-6392650D01*
X1258277Y-6392650D02*
X1277325Y-6402174D01*
X1277325Y-6402174D02*
X1286848Y-6421222D01*
X1286848Y-6421222D02*
X1286848Y-6525984D01*
X1382086Y-6525984D02*
X1382086Y-6392650D01*
X1382086Y-6411698D02*
X1391610Y-6402174D01*
X1391610Y-6402174D02*
X1410658Y-6392650D01*
X1410658Y-6392650D02*
X1439229Y-6392650D01*
X1439229Y-6392650D02*
X1458277Y-6402174D01*
X1458277Y-6402174D02*
X1467801Y-6421222D01*
X1467801Y-6421222D02*
X1467801Y-6525984D01*
X1467801Y-6421222D02*
X1477324Y-6402174D01*
X1477324Y-6402174D02*
X1496372Y-6392650D01*
X1496372Y-6392650D02*
X1524943Y-6392650D01*
X1524943Y-6392650D02*
X1543991Y-6402174D01*
X1543991Y-6402174D02*
X1553515Y-6421222D01*
X1553515Y-6421222D02*
X1553515Y-6525984D01*
X1943991Y-6316460D02*
X1772563Y-6573603D01*
X2201134Y-6325984D02*
X2220182Y-6325984D01*
X2220182Y-6325984D02*
X2239229Y-6335508D01*
X2239229Y-6335508D02*
X2248753Y-6345031D01*
X2248753Y-6345031D02*
X2258277Y-6364079D01*
X2258277Y-6364079D02*
X2267801Y-6402174D01*
X2267801Y-6402174D02*
X2267801Y-6449793D01*
X2267801Y-6449793D02*
X2258277Y-6487888D01*
X2258277Y-6487888D02*
X2248753Y-6506936D01*
X2248753Y-6506936D02*
X2239229Y-6516460D01*
X2239229Y-6516460D02*
X2220182Y-6525984D01*
X2220182Y-6525984D02*
X2201134Y-6525984D01*
X2201134Y-6525984D02*
X2182087Y-6516460D01*
X2182087Y-6516460D02*
X2172563Y-6506936D01*
X2172563Y-6506936D02*
X2163039Y-6487888D01*
X2163039Y-6487888D02*
X2153515Y-6449793D01*
X2153515Y-6449793D02*
X2153515Y-6402174D01*
X2153515Y-6402174D02*
X2163039Y-6364079D01*
X2163039Y-6364079D02*
X2172563Y-6345031D01*
X2172563Y-6345031D02*
X2182087Y-6335508D01*
X2182087Y-6335508D02*
X2201134Y-6325984D01*
X2353515Y-6506936D02*
X2363039Y-6516460D01*
X2363039Y-6516460D02*
X2353515Y-6525984D01*
X2353515Y-6525984D02*
X2343991Y-6516460D01*
X2343991Y-6516460D02*
X2353515Y-6506936D01*
X2353515Y-6506936D02*
X2353515Y-6525984D01*
X2486848Y-6325984D02*
X2505896Y-6325984D01*
X2505896Y-6325984D02*
X2524944Y-6335508D01*
X2524944Y-6335508D02*
X2534468Y-6345031D01*
X2534468Y-6345031D02*
X2543991Y-6364079D01*
X2543991Y-6364079D02*
X2553515Y-6402174D01*
X2553515Y-6402174D02*
X2553515Y-6449793D01*
X2553515Y-6449793D02*
X2543991Y-6487888D01*
X2543991Y-6487888D02*
X2534468Y-6506936D01*
X2534468Y-6506936D02*
X2524944Y-6516460D01*
X2524944Y-6516460D02*
X2505896Y-6525984D01*
X2505896Y-6525984D02*
X2486848Y-6525984D01*
X2486848Y-6525984D02*
X2467801Y-6516460D01*
X2467801Y-6516460D02*
X2458277Y-6506936D01*
X2458277Y-6506936D02*
X2448753Y-6487888D01*
X2448753Y-6487888D02*
X2439229Y-6449793D01*
X2439229Y-6449793D02*
X2439229Y-6402174D01*
X2439229Y-6402174D02*
X2448753Y-6364079D01*
X2448753Y-6364079D02*
X2458277Y-6345031D01*
X2458277Y-6345031D02*
X2467801Y-6335508D01*
X2467801Y-6335508D02*
X2486848Y-6325984D01*
X2734468Y-6325984D02*
X2639229Y-6325984D01*
X2639229Y-6325984D02*
X2629706Y-6421222D01*
X2629706Y-6421222D02*
X2639229Y-6411698D01*
X2639229Y-6411698D02*
X2658277Y-6402174D01*
X2658277Y-6402174D02*
X2705896Y-6402174D01*
X2705896Y-6402174D02*
X2724944Y-6411698D01*
X2724944Y-6411698D02*
X2734468Y-6421222D01*
X2734468Y-6421222D02*
X2743991Y-6440269D01*
X2743991Y-6440269D02*
X2743991Y-6487888D01*
X2743991Y-6487888D02*
X2734468Y-6506936D01*
X2734468Y-6506936D02*
X2724944Y-6516460D01*
X2724944Y-6516460D02*
X2705896Y-6525984D01*
X2705896Y-6525984D02*
X2658277Y-6525984D01*
X2658277Y-6525984D02*
X2639229Y-6516460D01*
X2639229Y-6516460D02*
X2629706Y-6506936D01*
X2924944Y-6325984D02*
X2829706Y-6325984D01*
X2829706Y-6325984D02*
X2820182Y-6421222D01*
X2820182Y-6421222D02*
X2829706Y-6411698D01*
X2829706Y-6411698D02*
X2848753Y-6402174D01*
X2848753Y-6402174D02*
X2896372Y-6402174D01*
X2896372Y-6402174D02*
X2915420Y-6411698D01*
X2915420Y-6411698D02*
X2924944Y-6421222D01*
X2924944Y-6421222D02*
X2934467Y-6440269D01*
X2934467Y-6440269D02*
X2934467Y-6487888D01*
X2934467Y-6487888D02*
X2924944Y-6506936D01*
X2924944Y-6506936D02*
X2915420Y-6516460D01*
X2915420Y-6516460D02*
X2896372Y-6525984D01*
X2896372Y-6525984D02*
X2848753Y-6525984D01*
X2848753Y-6525984D02*
X2829706Y-6516460D01*
X2829706Y-6516460D02*
X2820182Y-6506936D01*
X3124944Y-6525984D02*
X3010658Y-6525984D01*
X3067801Y-6525984D02*
X3067801Y-6325984D01*
X3067801Y-6325984D02*
X3048753Y-6354555D01*
X3048753Y-6354555D02*
X3029706Y-6373603D01*
X3029706Y-6373603D02*
X3010658Y-6383127D01*
X3201134Y-6325984D02*
X3201134Y-6364079D01*
X3277325Y-6325984D02*
X3277325Y-6364079D01*
X3572563Y-6602174D02*
X3563039Y-6592650D01*
X3563039Y-6592650D02*
X3543991Y-6564079D01*
X3543991Y-6564079D02*
X3534468Y-6545031D01*
X3534468Y-6545031D02*
X3524944Y-6516460D01*
X3524944Y-6516460D02*
X3515420Y-6468841D01*
X3515420Y-6468841D02*
X3515420Y-6430746D01*
X3515420Y-6430746D02*
X3524944Y-6383127D01*
X3524944Y-6383127D02*
X3534468Y-6354555D01*
X3534468Y-6354555D02*
X3543991Y-6335508D01*
X3543991Y-6335508D02*
X3563039Y-6306936D01*
X3563039Y-6306936D02*
X3572563Y-6297412D01*
X3639229Y-6345031D02*
X3648753Y-6335508D01*
X3648753Y-6335508D02*
X3667801Y-6325984D01*
X3667801Y-6325984D02*
X3715420Y-6325984D01*
X3715420Y-6325984D02*
X3734468Y-6335508D01*
X3734468Y-6335508D02*
X3743991Y-6345031D01*
X3743991Y-6345031D02*
X3753515Y-6364079D01*
X3753515Y-6364079D02*
X3753515Y-6383127D01*
X3753515Y-6383127D02*
X3743991Y-6411698D01*
X3743991Y-6411698D02*
X3629706Y-6525984D01*
X3629706Y-6525984D02*
X3753515Y-6525984D01*
X3924944Y-6392650D02*
X3924944Y-6525984D01*
X3877325Y-6316460D02*
X3829706Y-6459317D01*
X3829706Y-6459317D02*
X3953515Y-6459317D01*
X4182087Y-6525984D02*
X4182087Y-6325984D01*
X4267801Y-6525984D02*
X4267801Y-6421222D01*
X4267801Y-6421222D02*
X4258277Y-6402174D01*
X4258277Y-6402174D02*
X4239230Y-6392650D01*
X4239230Y-6392650D02*
X4210658Y-6392650D01*
X4210658Y-6392650D02*
X4191610Y-6402174D01*
X4191610Y-6402174D02*
X4182087Y-6411698D01*
X4391611Y-6525984D02*
X4372563Y-6516460D01*
X4372563Y-6516460D02*
X4363039Y-6506936D01*
X4363039Y-6506936D02*
X4353515Y-6487888D01*
X4353515Y-6487888D02*
X4353515Y-6430746D01*
X4353515Y-6430746D02*
X4363039Y-6411698D01*
X4363039Y-6411698D02*
X4372563Y-6402174D01*
X4372563Y-6402174D02*
X4391611Y-6392650D01*
X4391611Y-6392650D02*
X4420182Y-6392650D01*
X4420182Y-6392650D02*
X4439230Y-6402174D01*
X4439230Y-6402174D02*
X4448753Y-6411698D01*
X4448753Y-6411698D02*
X4458277Y-6430746D01*
X4458277Y-6430746D02*
X4458277Y-6487888D01*
X4458277Y-6487888D02*
X4448753Y-6506936D01*
X4448753Y-6506936D02*
X4439230Y-6516460D01*
X4439230Y-6516460D02*
X4420182Y-6525984D01*
X4420182Y-6525984D02*
X4391611Y-6525984D01*
X4572563Y-6525984D02*
X4553515Y-6516460D01*
X4553515Y-6516460D02*
X4543992Y-6497412D01*
X4543992Y-6497412D02*
X4543992Y-6325984D01*
X4724944Y-6516460D02*
X4705896Y-6525984D01*
X4705896Y-6525984D02*
X4667801Y-6525984D01*
X4667801Y-6525984D02*
X4648753Y-6516460D01*
X4648753Y-6516460D02*
X4639230Y-6497412D01*
X4639230Y-6497412D02*
X4639230Y-6421222D01*
X4639230Y-6421222D02*
X4648753Y-6402174D01*
X4648753Y-6402174D02*
X4667801Y-6392650D01*
X4667801Y-6392650D02*
X4705896Y-6392650D01*
X4705896Y-6392650D02*
X4724944Y-6402174D01*
X4724944Y-6402174D02*
X4734468Y-6421222D01*
X4734468Y-6421222D02*
X4734468Y-6440269D01*
X4734468Y-6440269D02*
X4639230Y-6459317D01*
X4810658Y-6516460D02*
X4829706Y-6525984D01*
X4829706Y-6525984D02*
X4867801Y-6525984D01*
X4867801Y-6525984D02*
X4886849Y-6516460D01*
X4886849Y-6516460D02*
X4896373Y-6497412D01*
X4896373Y-6497412D02*
X4896373Y-6487888D01*
X4896373Y-6487888D02*
X4886849Y-6468841D01*
X4886849Y-6468841D02*
X4867801Y-6459317D01*
X4867801Y-6459317D02*
X4839230Y-6459317D01*
X4839230Y-6459317D02*
X4820182Y-6449793D01*
X4820182Y-6449793D02*
X4810658Y-6430746D01*
X4810658Y-6430746D02*
X4810658Y-6421222D01*
X4810658Y-6421222D02*
X4820182Y-6402174D01*
X4820182Y-6402174D02*
X4839230Y-6392650D01*
X4839230Y-6392650D02*
X4867801Y-6392650D01*
X4867801Y-6392650D02*
X4886849Y-6402174D01*
X4963039Y-6602174D02*
X4972563Y-6592650D01*
X4972563Y-6592650D02*
X4991611Y-6564079D01*
X4991611Y-6564079D02*
X5001134Y-6545031D01*
X5001134Y-6545031D02*
X5010658Y-6516460D01*
X5010658Y-6516460D02*
X5020182Y-6468841D01*
X5020182Y-6468841D02*
X5020182Y-6430746D01*
X5020182Y-6430746D02*
X5010658Y-6383127D01*
X5010658Y-6383127D02*
X5001134Y-6354555D01*
X5001134Y-6354555D02*
X4991611Y-6335508D01*
X4991611Y-6335508D02*
X4972563Y-6306936D01*
X4972563Y-6306936D02*
X4963039Y-6297412D01*
X-102500Y-6798500D02*
X-2500Y-6698500D01*
X-102500Y-6598500D01*
X-202500Y-6698500D01*
X-102500Y-6798500D01*
X239229Y-6589984D02*
X363039Y-6589984D01*
X363039Y-6589984D02*
X296372Y-6666174D01*
X296372Y-6666174D02*
X324944Y-6666174D01*
X324944Y-6666174D02*
X343991Y-6675698D01*
X343991Y-6675698D02*
X353515Y-6685222D01*
X353515Y-6685222D02*
X363039Y-6704269D01*
X363039Y-6704269D02*
X363039Y-6751888D01*
X363039Y-6751888D02*
X353515Y-6770936D01*
X353515Y-6770936D02*
X343991Y-6780460D01*
X343991Y-6780460D02*
X324944Y-6789984D01*
X324944Y-6789984D02*
X267801Y-6789984D01*
X267801Y-6789984D02*
X248753Y-6780460D01*
X248753Y-6780460D02*
X239229Y-6770936D01*
X448753Y-6770936D02*
X458277Y-6780460D01*
X458277Y-6780460D02*
X448753Y-6789984D01*
X448753Y-6789984D02*
X439229Y-6780460D01*
X439229Y-6780460D02*
X448753Y-6770936D01*
X448753Y-6770936D02*
X448753Y-6789984D01*
X534467Y-6609031D02*
X543991Y-6599508D01*
X543991Y-6599508D02*
X563039Y-6589984D01*
X563039Y-6589984D02*
X610658Y-6589984D01*
X610658Y-6589984D02*
X629705Y-6599508D01*
X629705Y-6599508D02*
X639229Y-6609031D01*
X639229Y-6609031D02*
X648753Y-6628079D01*
X648753Y-6628079D02*
X648753Y-6647127D01*
X648753Y-6647127D02*
X639229Y-6675698D01*
X639229Y-6675698D02*
X524944Y-6789984D01*
X524944Y-6789984D02*
X648753Y-6789984D01*
X772562Y-6589984D02*
X791610Y-6589984D01*
X791610Y-6589984D02*
X810658Y-6599508D01*
X810658Y-6599508D02*
X820182Y-6609031D01*
X820182Y-6609031D02*
X829705Y-6628079D01*
X829705Y-6628079D02*
X839229Y-6666174D01*
X839229Y-6666174D02*
X839229Y-6713793D01*
X839229Y-6713793D02*
X829705Y-6751888D01*
X829705Y-6751888D02*
X820182Y-6770936D01*
X820182Y-6770936D02*
X810658Y-6780460D01*
X810658Y-6780460D02*
X791610Y-6789984D01*
X791610Y-6789984D02*
X772562Y-6789984D01*
X772562Y-6789984D02*
X753515Y-6780460D01*
X753515Y-6780460D02*
X743991Y-6770936D01*
X743991Y-6770936D02*
X734467Y-6751888D01*
X734467Y-6751888D02*
X724943Y-6713793D01*
X724943Y-6713793D02*
X724943Y-6666174D01*
X724943Y-6666174D02*
X734467Y-6628079D01*
X734467Y-6628079D02*
X743991Y-6609031D01*
X743991Y-6609031D02*
X753515Y-6599508D01*
X753515Y-6599508D02*
X772562Y-6589984D01*
X963039Y-6589984D02*
X982086Y-6589984D01*
X982086Y-6589984D02*
X1001134Y-6599508D01*
X1001134Y-6599508D02*
X1010658Y-6609031D01*
X1010658Y-6609031D02*
X1020182Y-6628079D01*
X1020182Y-6628079D02*
X1029705Y-6666174D01*
X1029705Y-6666174D02*
X1029705Y-6713793D01*
X1029705Y-6713793D02*
X1020182Y-6751888D01*
X1020182Y-6751888D02*
X1010658Y-6770936D01*
X1010658Y-6770936D02*
X1001134Y-6780460D01*
X1001134Y-6780460D02*
X982086Y-6789984D01*
X982086Y-6789984D02*
X963039Y-6789984D01*
X963039Y-6789984D02*
X943991Y-6780460D01*
X943991Y-6780460D02*
X934467Y-6770936D01*
X934467Y-6770936D02*
X924943Y-6751888D01*
X924943Y-6751888D02*
X915420Y-6713793D01*
X915420Y-6713793D02*
X915420Y-6666174D01*
X915420Y-6666174D02*
X924943Y-6628079D01*
X924943Y-6628079D02*
X934467Y-6609031D01*
X934467Y-6609031D02*
X943991Y-6599508D01*
X943991Y-6599508D02*
X963039Y-6589984D01*
X1115420Y-6789984D02*
X1115420Y-6656650D01*
X1115420Y-6675698D02*
X1124944Y-6666174D01*
X1124944Y-6666174D02*
X1143991Y-6656650D01*
X1143991Y-6656650D02*
X1172563Y-6656650D01*
X1172563Y-6656650D02*
X1191610Y-6666174D01*
X1191610Y-6666174D02*
X1201134Y-6685222D01*
X1201134Y-6685222D02*
X1201134Y-6789984D01*
X1201134Y-6685222D02*
X1210658Y-6666174D01*
X1210658Y-6666174D02*
X1229705Y-6656650D01*
X1229705Y-6656650D02*
X1258277Y-6656650D01*
X1258277Y-6656650D02*
X1277325Y-6666174D01*
X1277325Y-6666174D02*
X1286848Y-6685222D01*
X1286848Y-6685222D02*
X1286848Y-6789984D01*
X1382086Y-6789984D02*
X1382086Y-6656650D01*
X1382086Y-6675698D02*
X1391610Y-6666174D01*
X1391610Y-6666174D02*
X1410658Y-6656650D01*
X1410658Y-6656650D02*
X1439229Y-6656650D01*
X1439229Y-6656650D02*
X1458277Y-6666174D01*
X1458277Y-6666174D02*
X1467801Y-6685222D01*
X1467801Y-6685222D02*
X1467801Y-6789984D01*
X1467801Y-6685222D02*
X1477324Y-6666174D01*
X1477324Y-6666174D02*
X1496372Y-6656650D01*
X1496372Y-6656650D02*
X1524943Y-6656650D01*
X1524943Y-6656650D02*
X1543991Y-6666174D01*
X1543991Y-6666174D02*
X1553515Y-6685222D01*
X1553515Y-6685222D02*
X1553515Y-6789984D01*
X1943991Y-6580460D02*
X1772563Y-6837603D01*
X2201134Y-6589984D02*
X2220182Y-6589984D01*
X2220182Y-6589984D02*
X2239229Y-6599508D01*
X2239229Y-6599508D02*
X2248753Y-6609031D01*
X2248753Y-6609031D02*
X2258277Y-6628079D01*
X2258277Y-6628079D02*
X2267801Y-6666174D01*
X2267801Y-6666174D02*
X2267801Y-6713793D01*
X2267801Y-6713793D02*
X2258277Y-6751888D01*
X2258277Y-6751888D02*
X2248753Y-6770936D01*
X2248753Y-6770936D02*
X2239229Y-6780460D01*
X2239229Y-6780460D02*
X2220182Y-6789984D01*
X2220182Y-6789984D02*
X2201134Y-6789984D01*
X2201134Y-6789984D02*
X2182087Y-6780460D01*
X2182087Y-6780460D02*
X2172563Y-6770936D01*
X2172563Y-6770936D02*
X2163039Y-6751888D01*
X2163039Y-6751888D02*
X2153515Y-6713793D01*
X2153515Y-6713793D02*
X2153515Y-6666174D01*
X2153515Y-6666174D02*
X2163039Y-6628079D01*
X2163039Y-6628079D02*
X2172563Y-6609031D01*
X2172563Y-6609031D02*
X2182087Y-6599508D01*
X2182087Y-6599508D02*
X2201134Y-6589984D01*
X2353515Y-6770936D02*
X2363039Y-6780460D01*
X2363039Y-6780460D02*
X2353515Y-6789984D01*
X2353515Y-6789984D02*
X2343991Y-6780460D01*
X2343991Y-6780460D02*
X2353515Y-6770936D01*
X2353515Y-6770936D02*
X2353515Y-6789984D01*
X2553515Y-6789984D02*
X2439229Y-6789984D01*
X2496372Y-6789984D02*
X2496372Y-6589984D01*
X2496372Y-6589984D02*
X2477325Y-6618555D01*
X2477325Y-6618555D02*
X2458277Y-6637603D01*
X2458277Y-6637603D02*
X2439229Y-6647127D01*
X2629706Y-6609031D02*
X2639229Y-6599508D01*
X2639229Y-6599508D02*
X2658277Y-6589984D01*
X2658277Y-6589984D02*
X2705896Y-6589984D01*
X2705896Y-6589984D02*
X2724944Y-6599508D01*
X2724944Y-6599508D02*
X2734468Y-6609031D01*
X2734468Y-6609031D02*
X2743991Y-6628079D01*
X2743991Y-6628079D02*
X2743991Y-6647127D01*
X2743991Y-6647127D02*
X2734468Y-6675698D01*
X2734468Y-6675698D02*
X2620182Y-6789984D01*
X2620182Y-6789984D02*
X2743991Y-6789984D01*
X2915420Y-6589984D02*
X2877325Y-6589984D01*
X2877325Y-6589984D02*
X2858277Y-6599508D01*
X2858277Y-6599508D02*
X2848753Y-6609031D01*
X2848753Y-6609031D02*
X2829706Y-6637603D01*
X2829706Y-6637603D02*
X2820182Y-6675698D01*
X2820182Y-6675698D02*
X2820182Y-6751888D01*
X2820182Y-6751888D02*
X2829706Y-6770936D01*
X2829706Y-6770936D02*
X2839229Y-6780460D01*
X2839229Y-6780460D02*
X2858277Y-6789984D01*
X2858277Y-6789984D02*
X2896372Y-6789984D01*
X2896372Y-6789984D02*
X2915420Y-6780460D01*
X2915420Y-6780460D02*
X2924944Y-6770936D01*
X2924944Y-6770936D02*
X2934467Y-6751888D01*
X2934467Y-6751888D02*
X2934467Y-6704269D01*
X2934467Y-6704269D02*
X2924944Y-6685222D01*
X2924944Y-6685222D02*
X2915420Y-6675698D01*
X2915420Y-6675698D02*
X2896372Y-6666174D01*
X2896372Y-6666174D02*
X2858277Y-6666174D01*
X2858277Y-6666174D02*
X2839229Y-6675698D01*
X2839229Y-6675698D02*
X2829706Y-6685222D01*
X2829706Y-6685222D02*
X2820182Y-6704269D01*
X3058277Y-6589984D02*
X3077325Y-6589984D01*
X3077325Y-6589984D02*
X3096372Y-6599508D01*
X3096372Y-6599508D02*
X3105896Y-6609031D01*
X3105896Y-6609031D02*
X3115420Y-6628079D01*
X3115420Y-6628079D02*
X3124944Y-6666174D01*
X3124944Y-6666174D02*
X3124944Y-6713793D01*
X3124944Y-6713793D02*
X3115420Y-6751888D01*
X3115420Y-6751888D02*
X3105896Y-6770936D01*
X3105896Y-6770936D02*
X3096372Y-6780460D01*
X3096372Y-6780460D02*
X3077325Y-6789984D01*
X3077325Y-6789984D02*
X3058277Y-6789984D01*
X3058277Y-6789984D02*
X3039229Y-6780460D01*
X3039229Y-6780460D02*
X3029706Y-6770936D01*
X3029706Y-6770936D02*
X3020182Y-6751888D01*
X3020182Y-6751888D02*
X3010658Y-6713793D01*
X3010658Y-6713793D02*
X3010658Y-6666174D01*
X3010658Y-6666174D02*
X3020182Y-6628079D01*
X3020182Y-6628079D02*
X3029706Y-6609031D01*
X3029706Y-6609031D02*
X3039229Y-6599508D01*
X3039229Y-6599508D02*
X3058277Y-6589984D01*
X3201134Y-6589984D02*
X3201134Y-6628079D01*
X3277325Y-6589984D02*
X3277325Y-6628079D01*
X3572563Y-6866174D02*
X3563039Y-6856650D01*
X3563039Y-6856650D02*
X3543991Y-6828079D01*
X3543991Y-6828079D02*
X3534468Y-6809031D01*
X3534468Y-6809031D02*
X3524944Y-6780460D01*
X3524944Y-6780460D02*
X3515420Y-6732841D01*
X3515420Y-6732841D02*
X3515420Y-6694746D01*
X3515420Y-6694746D02*
X3524944Y-6647127D01*
X3524944Y-6647127D02*
X3534468Y-6618555D01*
X3534468Y-6618555D02*
X3543991Y-6599508D01*
X3543991Y-6599508D02*
X3563039Y-6570936D01*
X3563039Y-6570936D02*
X3572563Y-6561412D01*
X3639229Y-6609031D02*
X3648753Y-6599508D01*
X3648753Y-6599508D02*
X3667801Y-6589984D01*
X3667801Y-6589984D02*
X3715420Y-6589984D01*
X3715420Y-6589984D02*
X3734468Y-6599508D01*
X3734468Y-6599508D02*
X3743991Y-6609031D01*
X3743991Y-6609031D02*
X3753515Y-6628079D01*
X3753515Y-6628079D02*
X3753515Y-6647127D01*
X3753515Y-6647127D02*
X3743991Y-6675698D01*
X3743991Y-6675698D02*
X3629706Y-6789984D01*
X3629706Y-6789984D02*
X3753515Y-6789984D01*
X3991610Y-6789984D02*
X3991610Y-6589984D01*
X4077325Y-6789984D02*
X4077325Y-6685222D01*
X4077325Y-6685222D02*
X4067801Y-6666174D01*
X4067801Y-6666174D02*
X4048753Y-6656650D01*
X4048753Y-6656650D02*
X4020182Y-6656650D01*
X4020182Y-6656650D02*
X4001134Y-6666174D01*
X4001134Y-6666174D02*
X3991610Y-6675698D01*
X4201134Y-6789984D02*
X4182087Y-6780460D01*
X4182087Y-6780460D02*
X4172563Y-6770936D01*
X4172563Y-6770936D02*
X4163039Y-6751888D01*
X4163039Y-6751888D02*
X4163039Y-6694746D01*
X4163039Y-6694746D02*
X4172563Y-6675698D01*
X4172563Y-6675698D02*
X4182087Y-6666174D01*
X4182087Y-6666174D02*
X4201134Y-6656650D01*
X4201134Y-6656650D02*
X4229706Y-6656650D01*
X4229706Y-6656650D02*
X4248753Y-6666174D01*
X4248753Y-6666174D02*
X4258277Y-6675698D01*
X4258277Y-6675698D02*
X4267801Y-6694746D01*
X4267801Y-6694746D02*
X4267801Y-6751888D01*
X4267801Y-6751888D02*
X4258277Y-6770936D01*
X4258277Y-6770936D02*
X4248753Y-6780460D01*
X4248753Y-6780460D02*
X4229706Y-6789984D01*
X4229706Y-6789984D02*
X4201134Y-6789984D01*
X4382087Y-6789984D02*
X4363039Y-6780460D01*
X4363039Y-6780460D02*
X4353515Y-6761412D01*
X4353515Y-6761412D02*
X4353515Y-6589984D01*
X4534468Y-6780460D02*
X4515420Y-6789984D01*
X4515420Y-6789984D02*
X4477325Y-6789984D01*
X4477325Y-6789984D02*
X4458277Y-6780460D01*
X4458277Y-6780460D02*
X4448753Y-6761412D01*
X4448753Y-6761412D02*
X4448753Y-6685222D01*
X4448753Y-6685222D02*
X4458277Y-6666174D01*
X4458277Y-6666174D02*
X4477325Y-6656650D01*
X4477325Y-6656650D02*
X4515420Y-6656650D01*
X4515420Y-6656650D02*
X4534468Y-6666174D01*
X4534468Y-6666174D02*
X4543992Y-6685222D01*
X4543992Y-6685222D02*
X4543992Y-6704269D01*
X4543992Y-6704269D02*
X4448753Y-6723317D01*
X4620182Y-6780460D02*
X4639230Y-6789984D01*
X4639230Y-6789984D02*
X4677325Y-6789984D01*
X4677325Y-6789984D02*
X4696373Y-6780460D01*
X4696373Y-6780460D02*
X4705896Y-6761412D01*
X4705896Y-6761412D02*
X4705896Y-6751888D01*
X4705896Y-6751888D02*
X4696373Y-6732841D01*
X4696373Y-6732841D02*
X4677325Y-6723317D01*
X4677325Y-6723317D02*
X4648753Y-6723317D01*
X4648753Y-6723317D02*
X4629706Y-6713793D01*
X4629706Y-6713793D02*
X4620182Y-6694746D01*
X4620182Y-6694746D02*
X4620182Y-6685222D01*
X4620182Y-6685222D02*
X4629706Y-6666174D01*
X4629706Y-6666174D02*
X4648753Y-6656650D01*
X4648753Y-6656650D02*
X4677325Y-6656650D01*
X4677325Y-6656650D02*
X4696373Y-6666174D01*
X4772563Y-6866174D02*
X4782087Y-6856650D01*
X4782087Y-6856650D02*
X4801134Y-6828079D01*
X4801134Y-6828079D02*
X4810658Y-6809031D01*
X4810658Y-6809031D02*
X4820182Y-6780460D01*
X4820182Y-6780460D02*
X4829706Y-6732841D01*
X4829706Y-6732841D02*
X4829706Y-6694746D01*
X4829706Y-6694746D02*
X4820182Y-6647127D01*
X4820182Y-6647127D02*
X4810658Y-6618555D01*
X4810658Y-6618555D02*
X4801134Y-6599508D01*
X4801134Y-6599508D02*
X4782087Y-6570936D01*
X4782087Y-6570936D02*
X4772563Y-6561412D01*
X5134468Y-6866174D02*
X5124944Y-6856650D01*
X5124944Y-6856650D02*
X5105896Y-6828079D01*
X5105896Y-6828079D02*
X5096373Y-6809031D01*
X5096373Y-6809031D02*
X5086849Y-6780460D01*
X5086849Y-6780460D02*
X5077325Y-6732841D01*
X5077325Y-6732841D02*
X5077325Y-6694746D01*
X5077325Y-6694746D02*
X5086849Y-6647127D01*
X5086849Y-6647127D02*
X5096373Y-6618555D01*
X5096373Y-6618555D02*
X5105896Y-6599508D01*
X5105896Y-6599508D02*
X5124944Y-6570936D01*
X5124944Y-6570936D02*
X5134468Y-6561412D01*
X5210658Y-6656650D02*
X5210658Y-6789984D01*
X5210658Y-6675698D02*
X5220182Y-6666174D01*
X5220182Y-6666174D02*
X5239230Y-6656650D01*
X5239230Y-6656650D02*
X5267801Y-6656650D01*
X5267801Y-6656650D02*
X5286849Y-6666174D01*
X5286849Y-6666174D02*
X5296373Y-6685222D01*
X5296373Y-6685222D02*
X5296373Y-6789984D01*
X5420182Y-6789984D02*
X5401134Y-6780460D01*
X5401134Y-6780460D02*
X5391611Y-6770936D01*
X5391611Y-6770936D02*
X5382087Y-6751888D01*
X5382087Y-6751888D02*
X5382087Y-6694746D01*
X5382087Y-6694746D02*
X5391611Y-6675698D01*
X5391611Y-6675698D02*
X5401134Y-6666174D01*
X5401134Y-6666174D02*
X5420182Y-6656650D01*
X5420182Y-6656650D02*
X5448754Y-6656650D01*
X5448754Y-6656650D02*
X5467801Y-6666174D01*
X5467801Y-6666174D02*
X5477325Y-6675698D01*
X5477325Y-6675698D02*
X5486849Y-6694746D01*
X5486849Y-6694746D02*
X5486849Y-6751888D01*
X5486849Y-6751888D02*
X5477325Y-6770936D01*
X5477325Y-6770936D02*
X5467801Y-6780460D01*
X5467801Y-6780460D02*
X5448754Y-6789984D01*
X5448754Y-6789984D02*
X5420182Y-6789984D01*
X5543992Y-6656650D02*
X5620182Y-6656650D01*
X5572563Y-6589984D02*
X5572563Y-6761412D01*
X5572563Y-6761412D02*
X5582087Y-6780460D01*
X5582087Y-6780460D02*
X5601134Y-6789984D01*
X5601134Y-6789984D02*
X5620182Y-6789984D01*
X5839230Y-6656650D02*
X5839230Y-6856650D01*
X5839230Y-6666174D02*
X5858277Y-6656650D01*
X5858277Y-6656650D02*
X5896373Y-6656650D01*
X5896373Y-6656650D02*
X5915420Y-6666174D01*
X5915420Y-6666174D02*
X5924944Y-6675698D01*
X5924944Y-6675698D02*
X5934468Y-6694746D01*
X5934468Y-6694746D02*
X5934468Y-6751888D01*
X5934468Y-6751888D02*
X5924944Y-6770936D01*
X5924944Y-6770936D02*
X5915420Y-6780460D01*
X5915420Y-6780460D02*
X5896373Y-6789984D01*
X5896373Y-6789984D02*
X5858277Y-6789984D01*
X5858277Y-6789984D02*
X5839230Y-6780460D01*
X6048753Y-6789984D02*
X6029706Y-6780460D01*
X6029706Y-6780460D02*
X6020182Y-6761412D01*
X6020182Y-6761412D02*
X6020182Y-6589984D01*
X6210658Y-6789984D02*
X6210658Y-6685222D01*
X6210658Y-6685222D02*
X6201134Y-6666174D01*
X6201134Y-6666174D02*
X6182087Y-6656650D01*
X6182087Y-6656650D02*
X6143992Y-6656650D01*
X6143992Y-6656650D02*
X6124944Y-6666174D01*
X6210658Y-6780460D02*
X6191611Y-6789984D01*
X6191611Y-6789984D02*
X6143992Y-6789984D01*
X6143992Y-6789984D02*
X6124944Y-6780460D01*
X6124944Y-6780460D02*
X6115420Y-6761412D01*
X6115420Y-6761412D02*
X6115420Y-6742365D01*
X6115420Y-6742365D02*
X6124944Y-6723317D01*
X6124944Y-6723317D02*
X6143992Y-6713793D01*
X6143992Y-6713793D02*
X6191611Y-6713793D01*
X6191611Y-6713793D02*
X6210658Y-6704269D01*
X6277325Y-6656650D02*
X6353515Y-6656650D01*
X6305896Y-6589984D02*
X6305896Y-6761412D01*
X6305896Y-6761412D02*
X6315420Y-6780460D01*
X6315420Y-6780460D02*
X6334468Y-6789984D01*
X6334468Y-6789984D02*
X6353515Y-6789984D01*
X6496373Y-6780460D02*
X6477325Y-6789984D01*
X6477325Y-6789984D02*
X6439230Y-6789984D01*
X6439230Y-6789984D02*
X6420182Y-6780460D01*
X6420182Y-6780460D02*
X6410658Y-6761412D01*
X6410658Y-6761412D02*
X6410658Y-6685222D01*
X6410658Y-6685222D02*
X6420182Y-6666174D01*
X6420182Y-6666174D02*
X6439230Y-6656650D01*
X6439230Y-6656650D02*
X6477325Y-6656650D01*
X6477325Y-6656650D02*
X6496373Y-6666174D01*
X6496373Y-6666174D02*
X6505896Y-6685222D01*
X6505896Y-6685222D02*
X6505896Y-6704269D01*
X6505896Y-6704269D02*
X6410658Y-6723317D01*
X6677325Y-6789984D02*
X6677325Y-6589984D01*
X6677325Y-6780460D02*
X6658277Y-6789984D01*
X6658277Y-6789984D02*
X6620182Y-6789984D01*
X6620182Y-6789984D02*
X6601134Y-6780460D01*
X6601134Y-6780460D02*
X6591611Y-6770936D01*
X6591611Y-6770936D02*
X6582087Y-6751888D01*
X6582087Y-6751888D02*
X6582087Y-6694746D01*
X6582087Y-6694746D02*
X6591611Y-6675698D01*
X6591611Y-6675698D02*
X6601134Y-6666174D01*
X6601134Y-6666174D02*
X6620182Y-6656650D01*
X6620182Y-6656650D02*
X6658277Y-6656650D01*
X6658277Y-6656650D02*
X6677325Y-6666174D01*
X6753515Y-6866174D02*
X6763039Y-6856650D01*
X6763039Y-6856650D02*
X6782087Y-6828079D01*
X6782087Y-6828079D02*
X6791611Y-6809031D01*
X6791611Y-6809031D02*
X6801134Y-6780460D01*
X6801134Y-6780460D02*
X6810658Y-6732841D01*
X6810658Y-6732841D02*
X6810658Y-6694746D01*
X6810658Y-6694746D02*
X6801134Y-6647127D01*
X6801134Y-6647127D02*
X6791611Y-6618555D01*
X6791611Y-6618555D02*
X6782087Y-6599508D01*
X6782087Y-6599508D02*
X6763039Y-6570936D01*
X6763039Y-6570936D02*
X6753515Y-6561412D01*
M02*
