G04 #@! TF.GenerationSoftware,KiCad,Pcbnew,10.0.5*
G04 #@! TF.CreationDate,2026-08-26T16:38:23+09:00*
G04 #@! TF.ProjectId,bc250-front-mini,62633235-302d-4667-926f-6e742d6d696e,1.0*
G04 #@! TF.SameCoordinates,Original*
G04 #@! TF.FileFunction,Legend,Top*
G04 #@! TF.FilePolarity,Positive*
%FSLAX46Y46*%
G04 Gerber Fmt 4.6, Leading zero omitted, Abs format (unit mm)*
G04 Created by KiCad (PCBNEW 10.0.5) date 2026-08-26 16:38:23*
%MOMM*%
%LPD*%
G01*
G04 APERTURE LIST*
G04 Aperture macros list*
%AMRoundRect*
0 Rectangle with rounded corners*
0 $1 Rounding radius*
0 $2 $3 $4 $5 $6 $7 $8 $9 X,Y pos of 4 corners*
0 Add a 4 corners polygon primitive as box body*
4,1,4,$2,$3,$4,$5,$6,$7,$8,$9,$2,$3,0*
0 Add four circle primitives for the rounded corners*
1,1,$1+$1,$2,$3*
1,1,$1+$1,$4,$5*
1,1,$1+$1,$6,$7*
1,1,$1+$1,$8,$9*
0 Add four rect primitives between the rounded corners*
20,1,$1+$1,$2,$3,$4,$5,0*
20,1,$1+$1,$4,$5,$6,$7,0*
20,1,$1+$1,$6,$7,$8,$9,0*
20,1,$1+$1,$8,$9,$2,$3,0*%
G04 Aperture macros list end*
%ADD10C,0.120000*%
%ADD11C,0.140000*%
%ADD12C,0.150000*%
%ADD13R,1.700000X1.700000*%
%ADD14C,1.700000*%
%ADD15C,3.200000*%
%ADD16RoundRect,0.200000X-0.200000X-0.275000X0.200000X-0.275000X0.200000X0.275000X-0.200000X0.275000X0*%
%ADD17RoundRect,0.250001X1.099999X1.399999X-1.099999X1.399999X-1.099999X-1.399999X1.099999X-1.399999X0*%
%ADD18O,2.700000X3.300000*%
%ADD19RoundRect,0.250000X-0.250000X-0.475000X0.250000X-0.475000X0.250000X0.475000X-0.250000X0.475000X0*%
%ADD20O,1.700000X1.700000*%
%ADD21RoundRect,0.150000X-0.587500X-0.150000X0.587500X-0.150000X0.587500X0.150000X-0.587500X0.150000X0*%
%ADD22RoundRect,0.225000X-0.225000X-0.250000X0.225000X-0.250000X0.225000X0.250000X-0.225000X0.250000X0*%
%ADD23RoundRect,0.225000X-0.225000X-0.375000X0.225000X-0.375000X0.225000X0.375000X-0.225000X0.375000X0*%
G04 APERTURE END LIST*
D10*
X6152381Y-9944807D02*
X5885715Y-9944807D01*
X5885715Y-10363855D02*
X5885715Y-9563855D01*
X5885715Y-9563855D02*
X6266667Y-9563855D01*
X6533333Y-10135283D02*
X6914286Y-10135283D01*
X6457143Y-10363855D02*
X6723810Y-9563855D01*
X6723810Y-9563855D02*
X6990476Y-10363855D01*
X7257143Y-10363855D02*
X7257143Y-9563855D01*
X7257143Y-9563855D02*
X7714286Y-10363855D01*
X7714286Y-10363855D02*
X7714286Y-9563855D01*
X6142857Y-49463855D02*
X6142857Y-48663855D01*
X6142857Y-48663855D02*
X6447619Y-48663855D01*
X6447619Y-48663855D02*
X6523809Y-48701950D01*
X6523809Y-48701950D02*
X6561904Y-48740045D01*
X6561904Y-48740045D02*
X6600000Y-48816236D01*
X6600000Y-48816236D02*
X6600000Y-48930521D01*
X6600000Y-48930521D02*
X6561904Y-49006712D01*
X6561904Y-49006712D02*
X6523809Y-49044807D01*
X6523809Y-49044807D02*
X6447619Y-49082902D01*
X6447619Y-49082902D02*
X6142857Y-49082902D01*
X6904761Y-49235283D02*
X7285714Y-49235283D01*
X6828571Y-49463855D02*
X7095238Y-48663855D01*
X7095238Y-48663855D02*
X7361904Y-49463855D01*
X7628571Y-49463855D02*
X7628571Y-48663855D01*
X7628571Y-48663855D02*
X8085714Y-49463855D01*
X8085714Y-49463855D02*
X8085714Y-48663855D01*
X8466666Y-49044807D02*
X8733332Y-49044807D01*
X8847618Y-49463855D02*
X8466666Y-49463855D01*
X8466666Y-49463855D02*
X8466666Y-48663855D01*
X8466666Y-48663855D02*
X8847618Y-48663855D01*
X9571428Y-49463855D02*
X9190476Y-49463855D01*
X9190476Y-49463855D02*
X9190476Y-48663855D01*
X17485714Y-49463855D02*
X17104762Y-49463855D01*
X17104762Y-49463855D02*
X17104762Y-48663855D01*
X17752381Y-49044807D02*
X18019047Y-49044807D01*
X18133333Y-49463855D02*
X17752381Y-49463855D01*
X17752381Y-49463855D02*
X17752381Y-48663855D01*
X17752381Y-48663855D02*
X18133333Y-48663855D01*
X18476191Y-49463855D02*
X18476191Y-48663855D01*
X18476191Y-48663855D02*
X18666667Y-48663855D01*
X18666667Y-48663855D02*
X18780953Y-48701950D01*
X18780953Y-48701950D02*
X18857143Y-48778140D01*
X18857143Y-48778140D02*
X18895238Y-48854331D01*
X18895238Y-48854331D02*
X18933334Y-49006712D01*
X18933334Y-49006712D02*
X18933334Y-49120998D01*
X18933334Y-49120998D02*
X18895238Y-49273379D01*
X18895238Y-49273379D02*
X18857143Y-49349569D01*
X18857143Y-49349569D02*
X18780953Y-49425760D01*
X18780953Y-49425760D02*
X18666667Y-49463855D01*
X18666667Y-49463855D02*
X18476191Y-49463855D01*
X26390476Y-48663855D02*
X26847619Y-48663855D01*
X26619047Y-49463855D02*
X26619047Y-48663855D01*
X27533333Y-49463855D02*
X27076190Y-49463855D01*
X27304762Y-49463855D02*
X27304762Y-48663855D01*
X27304762Y-48663855D02*
X27228571Y-48778140D01*
X27228571Y-48778140D02*
X27152381Y-48854331D01*
X27152381Y-48854331D02*
X27076190Y-48892426D01*
X35390476Y-48663855D02*
X35847619Y-48663855D01*
X35619047Y-49463855D02*
X35619047Y-48663855D01*
X36076190Y-48740045D02*
X36114286Y-48701950D01*
X36114286Y-48701950D02*
X36190476Y-48663855D01*
X36190476Y-48663855D02*
X36380952Y-48663855D01*
X36380952Y-48663855D02*
X36457143Y-48701950D01*
X36457143Y-48701950D02*
X36495238Y-48740045D01*
X36495238Y-48740045D02*
X36533333Y-48816236D01*
X36533333Y-48816236D02*
X36533333Y-48892426D01*
X36533333Y-48892426D02*
X36495238Y-49006712D01*
X36495238Y-49006712D02*
X36038095Y-49463855D01*
X36038095Y-49463855D02*
X36533333Y-49463855D01*
X47557142Y-49463855D02*
X47176190Y-49463855D01*
X47176190Y-49463855D02*
X47176190Y-48663855D01*
X48280952Y-49387664D02*
X48242856Y-49425760D01*
X48242856Y-49425760D02*
X48128571Y-49463855D01*
X48128571Y-49463855D02*
X48052380Y-49463855D01*
X48052380Y-49463855D02*
X47938094Y-49425760D01*
X47938094Y-49425760D02*
X47861904Y-49349569D01*
X47861904Y-49349569D02*
X47823809Y-49273379D01*
X47823809Y-49273379D02*
X47785713Y-49120998D01*
X47785713Y-49120998D02*
X47785713Y-49006712D01*
X47785713Y-49006712D02*
X47823809Y-48854331D01*
X47823809Y-48854331D02*
X47861904Y-48778140D01*
X47861904Y-48778140D02*
X47938094Y-48701950D01*
X47938094Y-48701950D02*
X48052380Y-48663855D01*
X48052380Y-48663855D02*
X48128571Y-48663855D01*
X48128571Y-48663855D02*
X48242856Y-48701950D01*
X48242856Y-48701950D02*
X48280952Y-48740045D01*
X48623809Y-49463855D02*
X48623809Y-48663855D01*
X48623809Y-48663855D02*
X48814285Y-48663855D01*
X48814285Y-48663855D02*
X48928571Y-48701950D01*
X48928571Y-48701950D02*
X49004761Y-48778140D01*
X49004761Y-48778140D02*
X49042856Y-48854331D01*
X49042856Y-48854331D02*
X49080952Y-49006712D01*
X49080952Y-49006712D02*
X49080952Y-49120998D01*
X49080952Y-49120998D02*
X49042856Y-49273379D01*
X49042856Y-49273379D02*
X49004761Y-49349569D01*
X49004761Y-49349569D02*
X48928571Y-49425760D01*
X48928571Y-49425760D02*
X48814285Y-49463855D01*
X48814285Y-49463855D02*
X48623809Y-49463855D01*
X49995237Y-49425760D02*
X50109523Y-49463855D01*
X50109523Y-49463855D02*
X50299999Y-49463855D01*
X50299999Y-49463855D02*
X50376190Y-49425760D01*
X50376190Y-49425760D02*
X50414285Y-49387664D01*
X50414285Y-49387664D02*
X50452380Y-49311474D01*
X50452380Y-49311474D02*
X50452380Y-49235283D01*
X50452380Y-49235283D02*
X50414285Y-49159093D01*
X50414285Y-49159093D02*
X50376190Y-49120998D01*
X50376190Y-49120998D02*
X50299999Y-49082902D01*
X50299999Y-49082902D02*
X50147618Y-49044807D01*
X50147618Y-49044807D02*
X50071428Y-49006712D01*
X50071428Y-49006712D02*
X50033333Y-48968617D01*
X50033333Y-48968617D02*
X49995237Y-48892426D01*
X49995237Y-48892426D02*
X49995237Y-48816236D01*
X49995237Y-48816236D02*
X50033333Y-48740045D01*
X50033333Y-48740045D02*
X50071428Y-48701950D01*
X50071428Y-48701950D02*
X50147618Y-48663855D01*
X50147618Y-48663855D02*
X50338095Y-48663855D01*
X50338095Y-48663855D02*
X50452380Y-48701950D01*
X50680952Y-48663855D02*
X51138095Y-48663855D01*
X50909523Y-49463855D02*
X50909523Y-48663855D01*
X51328571Y-48663855D02*
X51861905Y-48663855D01*
X51861905Y-48663855D02*
X51519047Y-49463855D01*
X52090476Y-48663855D02*
X52623810Y-48663855D01*
X52623810Y-48663855D02*
X52280952Y-49463855D01*
X53042857Y-49006712D02*
X52966667Y-48968617D01*
X52966667Y-48968617D02*
X52928572Y-48930521D01*
X52928572Y-48930521D02*
X52890476Y-48854331D01*
X52890476Y-48854331D02*
X52890476Y-48816236D01*
X52890476Y-48816236D02*
X52928572Y-48740045D01*
X52928572Y-48740045D02*
X52966667Y-48701950D01*
X52966667Y-48701950D02*
X53042857Y-48663855D01*
X53042857Y-48663855D02*
X53195238Y-48663855D01*
X53195238Y-48663855D02*
X53271429Y-48701950D01*
X53271429Y-48701950D02*
X53309524Y-48740045D01*
X53309524Y-48740045D02*
X53347619Y-48816236D01*
X53347619Y-48816236D02*
X53347619Y-48854331D01*
X53347619Y-48854331D02*
X53309524Y-48930521D01*
X53309524Y-48930521D02*
X53271429Y-48968617D01*
X53271429Y-48968617D02*
X53195238Y-49006712D01*
X53195238Y-49006712D02*
X53042857Y-49006712D01*
X53042857Y-49006712D02*
X52966667Y-49044807D01*
X52966667Y-49044807D02*
X52928572Y-49082902D01*
X52928572Y-49082902D02*
X52890476Y-49159093D01*
X52890476Y-49159093D02*
X52890476Y-49311474D01*
X52890476Y-49311474D02*
X52928572Y-49387664D01*
X52928572Y-49387664D02*
X52966667Y-49425760D01*
X52966667Y-49425760D02*
X53042857Y-49463855D01*
X53042857Y-49463855D02*
X53195238Y-49463855D01*
X53195238Y-49463855D02*
X53271429Y-49425760D01*
X53271429Y-49425760D02*
X53309524Y-49387664D01*
X53309524Y-49387664D02*
X53347619Y-49311474D01*
X53347619Y-49311474D02*
X53347619Y-49159093D01*
X53347619Y-49159093D02*
X53309524Y-49082902D01*
X53309524Y-49082902D02*
X53271429Y-49044807D01*
X53271429Y-49044807D02*
X53195238Y-49006712D01*
X53728572Y-49463855D02*
X53880953Y-49463855D01*
X53880953Y-49463855D02*
X53957143Y-49425760D01*
X53957143Y-49425760D02*
X53995239Y-49387664D01*
X53995239Y-49387664D02*
X54071429Y-49273379D01*
X54071429Y-49273379D02*
X54109524Y-49120998D01*
X54109524Y-49120998D02*
X54109524Y-48816236D01*
X54109524Y-48816236D02*
X54071429Y-48740045D01*
X54071429Y-48740045D02*
X54033334Y-48701950D01*
X54033334Y-48701950D02*
X53957143Y-48663855D01*
X53957143Y-48663855D02*
X53804762Y-48663855D01*
X53804762Y-48663855D02*
X53728572Y-48701950D01*
X53728572Y-48701950D02*
X53690477Y-48740045D01*
X53690477Y-48740045D02*
X53652381Y-48816236D01*
X53652381Y-48816236D02*
X53652381Y-49006712D01*
X53652381Y-49006712D02*
X53690477Y-49082902D01*
X53690477Y-49082902D02*
X53728572Y-49120998D01*
X53728572Y-49120998D02*
X53804762Y-49159093D01*
X53804762Y-49159093D02*
X53957143Y-49159093D01*
X53957143Y-49159093D02*
X54033334Y-49120998D01*
X54033334Y-49120998D02*
X54071429Y-49082902D01*
X54071429Y-49082902D02*
X54109524Y-49006712D01*
X55023810Y-49425760D02*
X55138096Y-49463855D01*
X55138096Y-49463855D02*
X55328572Y-49463855D01*
X55328572Y-49463855D02*
X55404763Y-49425760D01*
X55404763Y-49425760D02*
X55442858Y-49387664D01*
X55442858Y-49387664D02*
X55480953Y-49311474D01*
X55480953Y-49311474D02*
X55480953Y-49235283D01*
X55480953Y-49235283D02*
X55442858Y-49159093D01*
X55442858Y-49159093D02*
X55404763Y-49120998D01*
X55404763Y-49120998D02*
X55328572Y-49082902D01*
X55328572Y-49082902D02*
X55176191Y-49044807D01*
X55176191Y-49044807D02*
X55100001Y-49006712D01*
X55100001Y-49006712D02*
X55061906Y-48968617D01*
X55061906Y-48968617D02*
X55023810Y-48892426D01*
X55023810Y-48892426D02*
X55023810Y-48816236D01*
X55023810Y-48816236D02*
X55061906Y-48740045D01*
X55061906Y-48740045D02*
X55100001Y-48701950D01*
X55100001Y-48701950D02*
X55176191Y-48663855D01*
X55176191Y-48663855D02*
X55366668Y-48663855D01*
X55366668Y-48663855D02*
X55480953Y-48701950D01*
X55823811Y-49463855D02*
X55823811Y-48663855D01*
X55823811Y-48663855D02*
X56128573Y-48663855D01*
X56128573Y-48663855D02*
X56204763Y-48701950D01*
X56204763Y-48701950D02*
X56242858Y-48740045D01*
X56242858Y-48740045D02*
X56280954Y-48816236D01*
X56280954Y-48816236D02*
X56280954Y-48930521D01*
X56280954Y-48930521D02*
X56242858Y-49006712D01*
X56242858Y-49006712D02*
X56204763Y-49044807D01*
X56204763Y-49044807D02*
X56128573Y-49082902D01*
X56128573Y-49082902D02*
X55823811Y-49082902D01*
X56623811Y-49463855D02*
X56623811Y-48663855D01*
X2601950Y-7509523D02*
X2563855Y-7585713D01*
X2563855Y-7585713D02*
X2563855Y-7699999D01*
X2563855Y-7699999D02*
X2601950Y-7814285D01*
X2601950Y-7814285D02*
X2678140Y-7890475D01*
X2678140Y-7890475D02*
X2754331Y-7928570D01*
X2754331Y-7928570D02*
X2906712Y-7966666D01*
X2906712Y-7966666D02*
X3020998Y-7966666D01*
X3020998Y-7966666D02*
X3173379Y-7928570D01*
X3173379Y-7928570D02*
X3249569Y-7890475D01*
X3249569Y-7890475D02*
X3325760Y-7814285D01*
X3325760Y-7814285D02*
X3363855Y-7699999D01*
X3363855Y-7699999D02*
X3363855Y-7623808D01*
X3363855Y-7623808D02*
X3325760Y-7509523D01*
X3325760Y-7509523D02*
X3287664Y-7471427D01*
X3287664Y-7471427D02*
X3020998Y-7471427D01*
X3020998Y-7471427D02*
X3020998Y-7623808D01*
X3363855Y-7128570D02*
X2563855Y-7128570D01*
X2563855Y-7128570D02*
X3363855Y-6671427D01*
X3363855Y-6671427D02*
X2563855Y-6671427D01*
X3363855Y-6290475D02*
X2563855Y-6290475D01*
X2563855Y-6290475D02*
X2563855Y-6099999D01*
X2563855Y-6099999D02*
X2601950Y-5985713D01*
X2601950Y-5985713D02*
X2678140Y-5909523D01*
X2678140Y-5909523D02*
X2754331Y-5871428D01*
X2754331Y-5871428D02*
X2906712Y-5833332D01*
X2906712Y-5833332D02*
X3020998Y-5833332D01*
X3020998Y-5833332D02*
X3173379Y-5871428D01*
X3173379Y-5871428D02*
X3249569Y-5909523D01*
X3249569Y-5909523D02*
X3325760Y-5985713D01*
X3325760Y-5985713D02*
X3363855Y-6099999D01*
X3363855Y-6099999D02*
X3363855Y-6290475D01*
X4363855Y-44266666D02*
X3563855Y-44266666D01*
X3563855Y-44266666D02*
X3563855Y-43961904D01*
X3563855Y-43961904D02*
X3601950Y-43885714D01*
X3601950Y-43885714D02*
X3640045Y-43847619D01*
X3640045Y-43847619D02*
X3716236Y-43809523D01*
X3716236Y-43809523D02*
X3830521Y-43809523D01*
X3830521Y-43809523D02*
X3906712Y-43847619D01*
X3906712Y-43847619D02*
X3944807Y-43885714D01*
X3944807Y-43885714D02*
X3982902Y-43961904D01*
X3982902Y-43961904D02*
X3982902Y-44266666D01*
X3563855Y-43542857D02*
X4363855Y-43352381D01*
X4363855Y-43352381D02*
X3792426Y-43200000D01*
X3792426Y-43200000D02*
X4363855Y-43047619D01*
X4363855Y-43047619D02*
X3563855Y-42857143D01*
X4363855Y-42095237D02*
X3982902Y-42361904D01*
X4363855Y-42552380D02*
X3563855Y-42552380D01*
X3563855Y-42552380D02*
X3563855Y-42247618D01*
X3563855Y-42247618D02*
X3601950Y-42171428D01*
X3601950Y-42171428D02*
X3640045Y-42133333D01*
X3640045Y-42133333D02*
X3716236Y-42095237D01*
X3716236Y-42095237D02*
X3830521Y-42095237D01*
X3830521Y-42095237D02*
X3906712Y-42133333D01*
X3906712Y-42133333D02*
X3944807Y-42171428D01*
X3944807Y-42171428D02*
X3982902Y-42247618D01*
X3982902Y-42247618D02*
X3982902Y-42552380D01*
X5903855Y-7395238D02*
X5903855Y-7852381D01*
X5903855Y-7623809D02*
X5103855Y-7623809D01*
X5103855Y-7623809D02*
X5218140Y-7700000D01*
X5218140Y-7700000D02*
X5294331Y-7776190D01*
X5294331Y-7776190D02*
X5332426Y-7852381D01*
X5180045Y-7090476D02*
X5141950Y-7052380D01*
X5141950Y-7052380D02*
X5103855Y-6976190D01*
X5103855Y-6976190D02*
X5103855Y-6785714D01*
X5103855Y-6785714D02*
X5141950Y-6709523D01*
X5141950Y-6709523D02*
X5180045Y-6671428D01*
X5180045Y-6671428D02*
X5256236Y-6633333D01*
X5256236Y-6633333D02*
X5332426Y-6633333D01*
X5332426Y-6633333D02*
X5446712Y-6671428D01*
X5446712Y-6671428D02*
X5903855Y-7128571D01*
X5903855Y-7128571D02*
X5903855Y-6633333D01*
X5103855Y-6404761D02*
X5903855Y-6138094D01*
X5903855Y-6138094D02*
X5103855Y-5871428D01*
X6675283Y-43390476D02*
X6675283Y-43009523D01*
X6903855Y-43466666D02*
X6103855Y-43199999D01*
X6103855Y-43199999D02*
X6903855Y-42933333D01*
X7643855Y-7871428D02*
X7643855Y-7414285D01*
X8443855Y-7642857D02*
X7643855Y-7642857D01*
X8215283Y-7185714D02*
X8215283Y-6804761D01*
X8443855Y-7261904D02*
X7643855Y-6995237D01*
X7643855Y-6995237D02*
X8443855Y-6728571D01*
X8367664Y-6004761D02*
X8405760Y-6042857D01*
X8405760Y-6042857D02*
X8443855Y-6157142D01*
X8443855Y-6157142D02*
X8443855Y-6233333D01*
X8443855Y-6233333D02*
X8405760Y-6347619D01*
X8405760Y-6347619D02*
X8329569Y-6423809D01*
X8329569Y-6423809D02*
X8253379Y-6461904D01*
X8253379Y-6461904D02*
X8100998Y-6500000D01*
X8100998Y-6500000D02*
X7986712Y-6500000D01*
X7986712Y-6500000D02*
X7834331Y-6461904D01*
X7834331Y-6461904D02*
X7758140Y-6423809D01*
X7758140Y-6423809D02*
X7681950Y-6347619D01*
X7681950Y-6347619D02*
X7643855Y-6233333D01*
X7643855Y-6233333D02*
X7643855Y-6157142D01*
X7643855Y-6157142D02*
X7681950Y-6042857D01*
X7681950Y-6042857D02*
X7720045Y-6004761D01*
X8261950Y-20909523D02*
X8223855Y-20985713D01*
X8223855Y-20985713D02*
X8223855Y-21099999D01*
X8223855Y-21099999D02*
X8261950Y-21214285D01*
X8261950Y-21214285D02*
X8338140Y-21290475D01*
X8338140Y-21290475D02*
X8414331Y-21328570D01*
X8414331Y-21328570D02*
X8566712Y-21366666D01*
X8566712Y-21366666D02*
X8680998Y-21366666D01*
X8680998Y-21366666D02*
X8833379Y-21328570D01*
X8833379Y-21328570D02*
X8909569Y-21290475D01*
X8909569Y-21290475D02*
X8985760Y-21214285D01*
X8985760Y-21214285D02*
X9023855Y-21099999D01*
X9023855Y-21099999D02*
X9023855Y-21023808D01*
X9023855Y-21023808D02*
X8985760Y-20909523D01*
X8985760Y-20909523D02*
X8947664Y-20871427D01*
X8947664Y-20871427D02*
X8680998Y-20871427D01*
X8680998Y-20871427D02*
X8680998Y-21023808D01*
X9023855Y-20528570D02*
X8223855Y-20528570D01*
X8223855Y-20528570D02*
X9023855Y-20071427D01*
X9023855Y-20071427D02*
X8223855Y-20071427D01*
X9023855Y-19690475D02*
X8223855Y-19690475D01*
X8223855Y-19690475D02*
X8223855Y-19499999D01*
X8223855Y-19499999D02*
X8261950Y-19385713D01*
X8261950Y-19385713D02*
X8338140Y-19309523D01*
X8338140Y-19309523D02*
X8414331Y-19271428D01*
X8414331Y-19271428D02*
X8566712Y-19233332D01*
X8566712Y-19233332D02*
X8680998Y-19233332D01*
X8680998Y-19233332D02*
X8833379Y-19271428D01*
X8833379Y-19271428D02*
X8909569Y-19309523D01*
X8909569Y-19309523D02*
X8985760Y-19385713D01*
X8985760Y-19385713D02*
X9023855Y-19499999D01*
X9023855Y-19499999D02*
X9023855Y-19690475D01*
X8261950Y-37769523D02*
X8223855Y-37845713D01*
X8223855Y-37845713D02*
X8223855Y-37959999D01*
X8223855Y-37959999D02*
X8261950Y-38074285D01*
X8261950Y-38074285D02*
X8338140Y-38150475D01*
X8338140Y-38150475D02*
X8414331Y-38188570D01*
X8414331Y-38188570D02*
X8566712Y-38226666D01*
X8566712Y-38226666D02*
X8680998Y-38226666D01*
X8680998Y-38226666D02*
X8833379Y-38188570D01*
X8833379Y-38188570D02*
X8909569Y-38150475D01*
X8909569Y-38150475D02*
X8985760Y-38074285D01*
X8985760Y-38074285D02*
X9023855Y-37959999D01*
X9023855Y-37959999D02*
X9023855Y-37883808D01*
X9023855Y-37883808D02*
X8985760Y-37769523D01*
X8985760Y-37769523D02*
X8947664Y-37731427D01*
X8947664Y-37731427D02*
X8680998Y-37731427D01*
X8680998Y-37731427D02*
X8680998Y-37883808D01*
X9023855Y-37388570D02*
X8223855Y-37388570D01*
X8223855Y-37388570D02*
X9023855Y-36931427D01*
X9023855Y-36931427D02*
X8223855Y-36931427D01*
X9023855Y-36550475D02*
X8223855Y-36550475D01*
X8223855Y-36550475D02*
X8223855Y-36359999D01*
X8223855Y-36359999D02*
X8261950Y-36245713D01*
X8261950Y-36245713D02*
X8338140Y-36169523D01*
X8338140Y-36169523D02*
X8414331Y-36131428D01*
X8414331Y-36131428D02*
X8566712Y-36093332D01*
X8566712Y-36093332D02*
X8680998Y-36093332D01*
X8680998Y-36093332D02*
X8833379Y-36131428D01*
X8833379Y-36131428D02*
X8909569Y-36169523D01*
X8909569Y-36169523D02*
X8985760Y-36245713D01*
X8985760Y-36245713D02*
X9023855Y-36359999D01*
X9023855Y-36359999D02*
X9023855Y-36550475D01*
X9024807Y-43142857D02*
X9062902Y-43028571D01*
X9062902Y-43028571D02*
X9100998Y-42990476D01*
X9100998Y-42990476D02*
X9177188Y-42952380D01*
X9177188Y-42952380D02*
X9291474Y-42952380D01*
X9291474Y-42952380D02*
X9367664Y-42990476D01*
X9367664Y-42990476D02*
X9405760Y-43028571D01*
X9405760Y-43028571D02*
X9443855Y-43104761D01*
X9443855Y-43104761D02*
X9443855Y-43409523D01*
X9443855Y-43409523D02*
X8643855Y-43409523D01*
X8643855Y-43409523D02*
X8643855Y-43142857D01*
X8643855Y-43142857D02*
X8681950Y-43066666D01*
X8681950Y-43066666D02*
X8720045Y-43028571D01*
X8720045Y-43028571D02*
X8796236Y-42990476D01*
X8796236Y-42990476D02*
X8872426Y-42990476D01*
X8872426Y-42990476D02*
X8948617Y-43028571D01*
X8948617Y-43028571D02*
X8986712Y-43066666D01*
X8986712Y-43066666D02*
X9024807Y-43142857D01*
X9024807Y-43142857D02*
X9024807Y-43409523D01*
X10983855Y-8023809D02*
X10183855Y-8023809D01*
X10183855Y-8023809D02*
X10183855Y-7719047D01*
X10183855Y-7719047D02*
X10221950Y-7642857D01*
X10221950Y-7642857D02*
X10260045Y-7604762D01*
X10260045Y-7604762D02*
X10336236Y-7566666D01*
X10336236Y-7566666D02*
X10450521Y-7566666D01*
X10450521Y-7566666D02*
X10526712Y-7604762D01*
X10526712Y-7604762D02*
X10564807Y-7642857D01*
X10564807Y-7642857D02*
X10602902Y-7719047D01*
X10602902Y-7719047D02*
X10602902Y-8023809D01*
X10183855Y-7300000D02*
X10983855Y-7109524D01*
X10983855Y-7109524D02*
X10412426Y-6957143D01*
X10412426Y-6957143D02*
X10983855Y-6804762D01*
X10983855Y-6804762D02*
X10183855Y-6614286D01*
X10983855Y-6309523D02*
X10183855Y-6309523D01*
X10183855Y-6309523D02*
X10755283Y-6042857D01*
X10755283Y-6042857D02*
X10183855Y-5776190D01*
X10183855Y-5776190D02*
X10983855Y-5776190D01*
X10763855Y-20452380D02*
X10763855Y-20833332D01*
X10763855Y-20833332D02*
X11144807Y-20871428D01*
X11144807Y-20871428D02*
X11106712Y-20833332D01*
X11106712Y-20833332D02*
X11068617Y-20757142D01*
X11068617Y-20757142D02*
X11068617Y-20566666D01*
X11068617Y-20566666D02*
X11106712Y-20490475D01*
X11106712Y-20490475D02*
X11144807Y-20452380D01*
X11144807Y-20452380D02*
X11220998Y-20414285D01*
X11220998Y-20414285D02*
X11411474Y-20414285D01*
X11411474Y-20414285D02*
X11487664Y-20452380D01*
X11487664Y-20452380D02*
X11525760Y-20490475D01*
X11525760Y-20490475D02*
X11563855Y-20566666D01*
X11563855Y-20566666D02*
X11563855Y-20757142D01*
X11563855Y-20757142D02*
X11525760Y-20833332D01*
X11525760Y-20833332D02*
X11487664Y-20871428D01*
X10763855Y-20185713D02*
X11563855Y-19919046D01*
X11563855Y-19919046D02*
X10763855Y-19652380D01*
X10801950Y-37769523D02*
X10763855Y-37845713D01*
X10763855Y-37845713D02*
X10763855Y-37959999D01*
X10763855Y-37959999D02*
X10801950Y-38074285D01*
X10801950Y-38074285D02*
X10878140Y-38150475D01*
X10878140Y-38150475D02*
X10954331Y-38188570D01*
X10954331Y-38188570D02*
X11106712Y-38226666D01*
X11106712Y-38226666D02*
X11220998Y-38226666D01*
X11220998Y-38226666D02*
X11373379Y-38188570D01*
X11373379Y-38188570D02*
X11449569Y-38150475D01*
X11449569Y-38150475D02*
X11525760Y-38074285D01*
X11525760Y-38074285D02*
X11563855Y-37959999D01*
X11563855Y-37959999D02*
X11563855Y-37883808D01*
X11563855Y-37883808D02*
X11525760Y-37769523D01*
X11525760Y-37769523D02*
X11487664Y-37731427D01*
X11487664Y-37731427D02*
X11220998Y-37731427D01*
X11220998Y-37731427D02*
X11220998Y-37883808D01*
X11563855Y-37388570D02*
X10763855Y-37388570D01*
X10763855Y-37388570D02*
X11563855Y-36931427D01*
X11563855Y-36931427D02*
X10763855Y-36931427D01*
X11563855Y-36550475D02*
X10763855Y-36550475D01*
X10763855Y-36550475D02*
X10763855Y-36359999D01*
X10763855Y-36359999D02*
X10801950Y-36245713D01*
X10801950Y-36245713D02*
X10878140Y-36169523D01*
X10878140Y-36169523D02*
X10954331Y-36131428D01*
X10954331Y-36131428D02*
X11106712Y-36093332D01*
X11106712Y-36093332D02*
X11220998Y-36093332D01*
X11220998Y-36093332D02*
X11373379Y-36131428D01*
X11373379Y-36131428D02*
X11449569Y-36169523D01*
X11449569Y-36169523D02*
X11525760Y-36245713D01*
X11525760Y-36245713D02*
X11563855Y-36359999D01*
X11563855Y-36359999D02*
X11563855Y-36550475D01*
X11221950Y-43809523D02*
X11183855Y-43885713D01*
X11183855Y-43885713D02*
X11183855Y-43999999D01*
X11183855Y-43999999D02*
X11221950Y-44114285D01*
X11221950Y-44114285D02*
X11298140Y-44190475D01*
X11298140Y-44190475D02*
X11374331Y-44228570D01*
X11374331Y-44228570D02*
X11526712Y-44266666D01*
X11526712Y-44266666D02*
X11640998Y-44266666D01*
X11640998Y-44266666D02*
X11793379Y-44228570D01*
X11793379Y-44228570D02*
X11869569Y-44190475D01*
X11869569Y-44190475D02*
X11945760Y-44114285D01*
X11945760Y-44114285D02*
X11983855Y-43999999D01*
X11983855Y-43999999D02*
X11983855Y-43923808D01*
X11983855Y-43923808D02*
X11945760Y-43809523D01*
X11945760Y-43809523D02*
X11907664Y-43771427D01*
X11907664Y-43771427D02*
X11640998Y-43771427D01*
X11640998Y-43771427D02*
X11640998Y-43923808D01*
X11983855Y-43428570D02*
X11183855Y-43428570D01*
X11183855Y-43428570D02*
X11983855Y-42971427D01*
X11983855Y-42971427D02*
X11183855Y-42971427D01*
X11983855Y-42590475D02*
X11183855Y-42590475D01*
X11183855Y-42590475D02*
X11183855Y-42399999D01*
X11183855Y-42399999D02*
X11221950Y-42285713D01*
X11221950Y-42285713D02*
X11298140Y-42209523D01*
X11298140Y-42209523D02*
X11374331Y-42171428D01*
X11374331Y-42171428D02*
X11526712Y-42133332D01*
X11526712Y-42133332D02*
X11640998Y-42133332D01*
X11640998Y-42133332D02*
X11793379Y-42171428D01*
X11793379Y-42171428D02*
X11869569Y-42209523D01*
X11869569Y-42209523D02*
X11945760Y-42285713D01*
X11945760Y-42285713D02*
X11983855Y-42399999D01*
X11983855Y-42399999D02*
X11983855Y-42590475D01*
X14103855Y-20452381D02*
X14103855Y-20909524D01*
X14103855Y-20680952D02*
X13303855Y-20680952D01*
X13303855Y-20680952D02*
X13418140Y-20757143D01*
X13418140Y-20757143D02*
X13494331Y-20833333D01*
X13494331Y-20833333D02*
X13532426Y-20909524D01*
X13570521Y-19766666D02*
X14103855Y-19766666D01*
X13265760Y-19957142D02*
X13837188Y-20147619D01*
X13837188Y-20147619D02*
X13837188Y-19652380D01*
X14103855Y-37312381D02*
X14103855Y-37769524D01*
X14103855Y-37540952D02*
X13303855Y-37540952D01*
X13303855Y-37540952D02*
X13418140Y-37617143D01*
X13418140Y-37617143D02*
X13494331Y-37693333D01*
X13494331Y-37693333D02*
X13532426Y-37769524D01*
X14103855Y-36931428D02*
X14103855Y-36779047D01*
X14103855Y-36779047D02*
X14065760Y-36702857D01*
X14065760Y-36702857D02*
X14027664Y-36664761D01*
X14027664Y-36664761D02*
X13913379Y-36588571D01*
X13913379Y-36588571D02*
X13760998Y-36550476D01*
X13760998Y-36550476D02*
X13456236Y-36550476D01*
X13456236Y-36550476D02*
X13380045Y-36588571D01*
X13380045Y-36588571D02*
X13341950Y-36626666D01*
X13341950Y-36626666D02*
X13303855Y-36702857D01*
X13303855Y-36702857D02*
X13303855Y-36855238D01*
X13303855Y-36855238D02*
X13341950Y-36931428D01*
X13341950Y-36931428D02*
X13380045Y-36969523D01*
X13380045Y-36969523D02*
X13456236Y-37007619D01*
X13456236Y-37007619D02*
X13646712Y-37007619D01*
X13646712Y-37007619D02*
X13722902Y-36969523D01*
X13722902Y-36969523D02*
X13760998Y-36931428D01*
X13760998Y-36931428D02*
X13799093Y-36855238D01*
X13799093Y-36855238D02*
X13799093Y-36702857D01*
X13799093Y-36702857D02*
X13760998Y-36626666D01*
X13760998Y-36626666D02*
X13722902Y-36588571D01*
X13722902Y-36588571D02*
X13646712Y-36550476D01*
X15063855Y-43352380D02*
X15063855Y-43733332D01*
X15063855Y-43733332D02*
X15444807Y-43771428D01*
X15444807Y-43771428D02*
X15406712Y-43733332D01*
X15406712Y-43733332D02*
X15368617Y-43657142D01*
X15368617Y-43657142D02*
X15368617Y-43466666D01*
X15368617Y-43466666D02*
X15406712Y-43390475D01*
X15406712Y-43390475D02*
X15444807Y-43352380D01*
X15444807Y-43352380D02*
X15520998Y-43314285D01*
X15520998Y-43314285D02*
X15711474Y-43314285D01*
X15711474Y-43314285D02*
X15787664Y-43352380D01*
X15787664Y-43352380D02*
X15825760Y-43390475D01*
X15825760Y-43390475D02*
X15863855Y-43466666D01*
X15863855Y-43466666D02*
X15863855Y-43657142D01*
X15863855Y-43657142D02*
X15825760Y-43733332D01*
X15825760Y-43733332D02*
X15787664Y-43771428D01*
X15063855Y-43085713D02*
X15863855Y-42819046D01*
X15863855Y-42819046D02*
X15063855Y-42552380D01*
X16643855Y-20452381D02*
X16643855Y-20909524D01*
X16643855Y-20680952D02*
X15843855Y-20680952D01*
X15843855Y-20680952D02*
X15958140Y-20757143D01*
X15958140Y-20757143D02*
X16034331Y-20833333D01*
X16034331Y-20833333D02*
X16072426Y-20909524D01*
X15843855Y-20185714D02*
X15843855Y-19690476D01*
X15843855Y-19690476D02*
X16148617Y-19957142D01*
X16148617Y-19957142D02*
X16148617Y-19842857D01*
X16148617Y-19842857D02*
X16186712Y-19766666D01*
X16186712Y-19766666D02*
X16224807Y-19728571D01*
X16224807Y-19728571D02*
X16300998Y-19690476D01*
X16300998Y-19690476D02*
X16491474Y-19690476D01*
X16491474Y-19690476D02*
X16567664Y-19728571D01*
X16567664Y-19728571D02*
X16605760Y-19766666D01*
X16605760Y-19766666D02*
X16643855Y-19842857D01*
X16643855Y-19842857D02*
X16643855Y-20071428D01*
X16643855Y-20071428D02*
X16605760Y-20147619D01*
X16605760Y-20147619D02*
X16567664Y-20185714D01*
X15920045Y-37769524D02*
X15881950Y-37731428D01*
X15881950Y-37731428D02*
X15843855Y-37655238D01*
X15843855Y-37655238D02*
X15843855Y-37464762D01*
X15843855Y-37464762D02*
X15881950Y-37388571D01*
X15881950Y-37388571D02*
X15920045Y-37350476D01*
X15920045Y-37350476D02*
X15996236Y-37312381D01*
X15996236Y-37312381D02*
X16072426Y-37312381D01*
X16072426Y-37312381D02*
X16186712Y-37350476D01*
X16186712Y-37350476D02*
X16643855Y-37807619D01*
X16643855Y-37807619D02*
X16643855Y-37312381D01*
X15843855Y-36817142D02*
X15843855Y-36740952D01*
X15843855Y-36740952D02*
X15881950Y-36664761D01*
X15881950Y-36664761D02*
X15920045Y-36626666D01*
X15920045Y-36626666D02*
X15996236Y-36588571D01*
X15996236Y-36588571D02*
X16148617Y-36550476D01*
X16148617Y-36550476D02*
X16339093Y-36550476D01*
X16339093Y-36550476D02*
X16491474Y-36588571D01*
X16491474Y-36588571D02*
X16567664Y-36626666D01*
X16567664Y-36626666D02*
X16605760Y-36664761D01*
X16605760Y-36664761D02*
X16643855Y-36740952D01*
X16643855Y-36740952D02*
X16643855Y-36817142D01*
X16643855Y-36817142D02*
X16605760Y-36893333D01*
X16605760Y-36893333D02*
X16567664Y-36931428D01*
X16567664Y-36931428D02*
X16491474Y-36969523D01*
X16491474Y-36969523D02*
X16339093Y-37007619D01*
X16339093Y-37007619D02*
X16148617Y-37007619D01*
X16148617Y-37007619D02*
X15996236Y-36969523D01*
X15996236Y-36969523D02*
X15920045Y-36931428D01*
X15920045Y-36931428D02*
X15881950Y-36893333D01*
X15881950Y-36893333D02*
X15843855Y-36817142D01*
X18403855Y-44019046D02*
X17603855Y-44019046D01*
X17603855Y-44019046D02*
X17603855Y-43828570D01*
X17603855Y-43828570D02*
X17641950Y-43714284D01*
X17641950Y-43714284D02*
X17718140Y-43638094D01*
X17718140Y-43638094D02*
X17794331Y-43599999D01*
X17794331Y-43599999D02*
X17946712Y-43561903D01*
X17946712Y-43561903D02*
X18060998Y-43561903D01*
X18060998Y-43561903D02*
X18213379Y-43599999D01*
X18213379Y-43599999D02*
X18289569Y-43638094D01*
X18289569Y-43638094D02*
X18365760Y-43714284D01*
X18365760Y-43714284D02*
X18403855Y-43828570D01*
X18403855Y-43828570D02*
X18403855Y-44019046D01*
X18403855Y-43219046D02*
X17603855Y-43219046D01*
X18403855Y-42838094D02*
X17603855Y-42838094D01*
X17603855Y-42838094D02*
X18403855Y-42380951D01*
X18403855Y-42380951D02*
X17603855Y-42380951D01*
X19183855Y-20452381D02*
X19183855Y-20909524D01*
X19183855Y-20680952D02*
X18383855Y-20680952D01*
X18383855Y-20680952D02*
X18498140Y-20757143D01*
X18498140Y-20757143D02*
X18574331Y-20833333D01*
X18574331Y-20833333D02*
X18612426Y-20909524D01*
X18460045Y-20147619D02*
X18421950Y-20109523D01*
X18421950Y-20109523D02*
X18383855Y-20033333D01*
X18383855Y-20033333D02*
X18383855Y-19842857D01*
X18383855Y-19842857D02*
X18421950Y-19766666D01*
X18421950Y-19766666D02*
X18460045Y-19728571D01*
X18460045Y-19728571D02*
X18536236Y-19690476D01*
X18536236Y-19690476D02*
X18612426Y-19690476D01*
X18612426Y-19690476D02*
X18726712Y-19728571D01*
X18726712Y-19728571D02*
X19183855Y-20185714D01*
X19183855Y-20185714D02*
X19183855Y-19690476D01*
X18460045Y-37769524D02*
X18421950Y-37731428D01*
X18421950Y-37731428D02*
X18383855Y-37655238D01*
X18383855Y-37655238D02*
X18383855Y-37464762D01*
X18383855Y-37464762D02*
X18421950Y-37388571D01*
X18421950Y-37388571D02*
X18460045Y-37350476D01*
X18460045Y-37350476D02*
X18536236Y-37312381D01*
X18536236Y-37312381D02*
X18612426Y-37312381D01*
X18612426Y-37312381D02*
X18726712Y-37350476D01*
X18726712Y-37350476D02*
X19183855Y-37807619D01*
X19183855Y-37807619D02*
X19183855Y-37312381D01*
X19183855Y-36550476D02*
X19183855Y-37007619D01*
X19183855Y-36779047D02*
X18383855Y-36779047D01*
X18383855Y-36779047D02*
X18498140Y-36855238D01*
X18498140Y-36855238D02*
X18574331Y-36931428D01*
X18574331Y-36931428D02*
X18612426Y-37007619D01*
X20181950Y-43809523D02*
X20143855Y-43885713D01*
X20143855Y-43885713D02*
X20143855Y-43999999D01*
X20143855Y-43999999D02*
X20181950Y-44114285D01*
X20181950Y-44114285D02*
X20258140Y-44190475D01*
X20258140Y-44190475D02*
X20334331Y-44228570D01*
X20334331Y-44228570D02*
X20486712Y-44266666D01*
X20486712Y-44266666D02*
X20600998Y-44266666D01*
X20600998Y-44266666D02*
X20753379Y-44228570D01*
X20753379Y-44228570D02*
X20829569Y-44190475D01*
X20829569Y-44190475D02*
X20905760Y-44114285D01*
X20905760Y-44114285D02*
X20943855Y-43999999D01*
X20943855Y-43999999D02*
X20943855Y-43923808D01*
X20943855Y-43923808D02*
X20905760Y-43809523D01*
X20905760Y-43809523D02*
X20867664Y-43771427D01*
X20867664Y-43771427D02*
X20600998Y-43771427D01*
X20600998Y-43771427D02*
X20600998Y-43923808D01*
X20943855Y-43428570D02*
X20143855Y-43428570D01*
X20143855Y-43428570D02*
X20943855Y-42971427D01*
X20943855Y-42971427D02*
X20143855Y-42971427D01*
X20943855Y-42590475D02*
X20143855Y-42590475D01*
X20143855Y-42590475D02*
X20143855Y-42399999D01*
X20143855Y-42399999D02*
X20181950Y-42285713D01*
X20181950Y-42285713D02*
X20258140Y-42209523D01*
X20258140Y-42209523D02*
X20334331Y-42171428D01*
X20334331Y-42171428D02*
X20486712Y-42133332D01*
X20486712Y-42133332D02*
X20600998Y-42133332D01*
X20600998Y-42133332D02*
X20753379Y-42171428D01*
X20753379Y-42171428D02*
X20829569Y-42209523D01*
X20829569Y-42209523D02*
X20905760Y-42285713D01*
X20905760Y-42285713D02*
X20943855Y-42399999D01*
X20943855Y-42399999D02*
X20943855Y-42590475D01*
X21723855Y-20452381D02*
X21723855Y-20909524D01*
X21723855Y-20680952D02*
X20923855Y-20680952D01*
X20923855Y-20680952D02*
X21038140Y-20757143D01*
X21038140Y-20757143D02*
X21114331Y-20833333D01*
X21114331Y-20833333D02*
X21152426Y-20909524D01*
X21723855Y-19690476D02*
X21723855Y-20147619D01*
X21723855Y-19919047D02*
X20923855Y-19919047D01*
X20923855Y-19919047D02*
X21038140Y-19995238D01*
X21038140Y-19995238D02*
X21114331Y-20071428D01*
X21114331Y-20071428D02*
X21152426Y-20147619D01*
X21190521Y-37388571D02*
X21723855Y-37388571D01*
X20885760Y-37579047D02*
X21457188Y-37769524D01*
X21457188Y-37769524D02*
X21457188Y-37274285D01*
X20923855Y-37045714D02*
X20923855Y-36512380D01*
X20923855Y-36512380D02*
X21723855Y-36855238D01*
X24263855Y-20452381D02*
X24263855Y-20909524D01*
X24263855Y-20680952D02*
X23463855Y-20680952D01*
X23463855Y-20680952D02*
X23578140Y-20757143D01*
X23578140Y-20757143D02*
X23654331Y-20833333D01*
X23654331Y-20833333D02*
X23692426Y-20909524D01*
X23463855Y-19957142D02*
X23463855Y-19880952D01*
X23463855Y-19880952D02*
X23501950Y-19804761D01*
X23501950Y-19804761D02*
X23540045Y-19766666D01*
X23540045Y-19766666D02*
X23616236Y-19728571D01*
X23616236Y-19728571D02*
X23768617Y-19690476D01*
X23768617Y-19690476D02*
X23959093Y-19690476D01*
X23959093Y-19690476D02*
X24111474Y-19728571D01*
X24111474Y-19728571D02*
X24187664Y-19766666D01*
X24187664Y-19766666D02*
X24225760Y-19804761D01*
X24225760Y-19804761D02*
X24263855Y-19880952D01*
X24263855Y-19880952D02*
X24263855Y-19957142D01*
X24263855Y-19957142D02*
X24225760Y-20033333D01*
X24225760Y-20033333D02*
X24187664Y-20071428D01*
X24187664Y-20071428D02*
X24111474Y-20109523D01*
X24111474Y-20109523D02*
X23959093Y-20147619D01*
X23959093Y-20147619D02*
X23768617Y-20147619D01*
X23768617Y-20147619D02*
X23616236Y-20109523D01*
X23616236Y-20109523D02*
X23540045Y-20071428D01*
X23540045Y-20071428D02*
X23501950Y-20033333D01*
X23501950Y-20033333D02*
X23463855Y-19957142D01*
X23730521Y-37388571D02*
X24263855Y-37388571D01*
X23425760Y-37579047D02*
X23997188Y-37769524D01*
X23997188Y-37769524D02*
X23997188Y-37274285D01*
X23806712Y-36855238D02*
X23768617Y-36931428D01*
X23768617Y-36931428D02*
X23730521Y-36969523D01*
X23730521Y-36969523D02*
X23654331Y-37007619D01*
X23654331Y-37007619D02*
X23616236Y-37007619D01*
X23616236Y-37007619D02*
X23540045Y-36969523D01*
X23540045Y-36969523D02*
X23501950Y-36931428D01*
X23501950Y-36931428D02*
X23463855Y-36855238D01*
X23463855Y-36855238D02*
X23463855Y-36702857D01*
X23463855Y-36702857D02*
X23501950Y-36626666D01*
X23501950Y-36626666D02*
X23540045Y-36588571D01*
X23540045Y-36588571D02*
X23616236Y-36550476D01*
X23616236Y-36550476D02*
X23654331Y-36550476D01*
X23654331Y-36550476D02*
X23730521Y-36588571D01*
X23730521Y-36588571D02*
X23768617Y-36626666D01*
X23768617Y-36626666D02*
X23806712Y-36702857D01*
X23806712Y-36702857D02*
X23806712Y-36855238D01*
X23806712Y-36855238D02*
X23844807Y-36931428D01*
X23844807Y-36931428D02*
X23882902Y-36969523D01*
X23882902Y-36969523D02*
X23959093Y-37007619D01*
X23959093Y-37007619D02*
X24111474Y-37007619D01*
X24111474Y-37007619D02*
X24187664Y-36969523D01*
X24187664Y-36969523D02*
X24225760Y-36931428D01*
X24225760Y-36931428D02*
X24263855Y-36855238D01*
X24263855Y-36855238D02*
X24263855Y-36702857D01*
X24263855Y-36702857D02*
X24225760Y-36626666D01*
X24225760Y-36626666D02*
X24187664Y-36588571D01*
X24187664Y-36588571D02*
X24111474Y-36550476D01*
X24111474Y-36550476D02*
X23959093Y-36550476D01*
X23959093Y-36550476D02*
X23882902Y-36588571D01*
X23882902Y-36588571D02*
X23844807Y-36626666D01*
X23844807Y-36626666D02*
X23806712Y-36702857D01*
X24101950Y-43809523D02*
X24063855Y-43885713D01*
X24063855Y-43885713D02*
X24063855Y-43999999D01*
X24063855Y-43999999D02*
X24101950Y-44114285D01*
X24101950Y-44114285D02*
X24178140Y-44190475D01*
X24178140Y-44190475D02*
X24254331Y-44228570D01*
X24254331Y-44228570D02*
X24406712Y-44266666D01*
X24406712Y-44266666D02*
X24520998Y-44266666D01*
X24520998Y-44266666D02*
X24673379Y-44228570D01*
X24673379Y-44228570D02*
X24749569Y-44190475D01*
X24749569Y-44190475D02*
X24825760Y-44114285D01*
X24825760Y-44114285D02*
X24863855Y-43999999D01*
X24863855Y-43999999D02*
X24863855Y-43923808D01*
X24863855Y-43923808D02*
X24825760Y-43809523D01*
X24825760Y-43809523D02*
X24787664Y-43771427D01*
X24787664Y-43771427D02*
X24520998Y-43771427D01*
X24520998Y-43771427D02*
X24520998Y-43923808D01*
X24863855Y-43428570D02*
X24063855Y-43428570D01*
X24063855Y-43428570D02*
X24863855Y-42971427D01*
X24863855Y-42971427D02*
X24063855Y-42971427D01*
X24863855Y-42590475D02*
X24063855Y-42590475D01*
X24063855Y-42590475D02*
X24063855Y-42399999D01*
X24063855Y-42399999D02*
X24101950Y-42285713D01*
X24101950Y-42285713D02*
X24178140Y-42209523D01*
X24178140Y-42209523D02*
X24254331Y-42171428D01*
X24254331Y-42171428D02*
X24406712Y-42133332D01*
X24406712Y-42133332D02*
X24520998Y-42133332D01*
X24520998Y-42133332D02*
X24673379Y-42171428D01*
X24673379Y-42171428D02*
X24749569Y-42209523D01*
X24749569Y-42209523D02*
X24825760Y-42285713D01*
X24825760Y-42285713D02*
X24863855Y-42399999D01*
X24863855Y-42399999D02*
X24863855Y-42590475D01*
X26803855Y-20452380D02*
X26803855Y-20299999D01*
X26803855Y-20299999D02*
X26765760Y-20223809D01*
X26765760Y-20223809D02*
X26727664Y-20185713D01*
X26727664Y-20185713D02*
X26613379Y-20109523D01*
X26613379Y-20109523D02*
X26460998Y-20071428D01*
X26460998Y-20071428D02*
X26156236Y-20071428D01*
X26156236Y-20071428D02*
X26080045Y-20109523D01*
X26080045Y-20109523D02*
X26041950Y-20147618D01*
X26041950Y-20147618D02*
X26003855Y-20223809D01*
X26003855Y-20223809D02*
X26003855Y-20376190D01*
X26003855Y-20376190D02*
X26041950Y-20452380D01*
X26041950Y-20452380D02*
X26080045Y-20490475D01*
X26080045Y-20490475D02*
X26156236Y-20528571D01*
X26156236Y-20528571D02*
X26346712Y-20528571D01*
X26346712Y-20528571D02*
X26422902Y-20490475D01*
X26422902Y-20490475D02*
X26460998Y-20452380D01*
X26460998Y-20452380D02*
X26499093Y-20376190D01*
X26499093Y-20376190D02*
X26499093Y-20223809D01*
X26499093Y-20223809D02*
X26460998Y-20147618D01*
X26460998Y-20147618D02*
X26422902Y-20109523D01*
X26422902Y-20109523D02*
X26346712Y-20071428D01*
X26270521Y-37388571D02*
X26803855Y-37388571D01*
X25965760Y-37579047D02*
X26537188Y-37769524D01*
X26537188Y-37769524D02*
X26537188Y-37274285D01*
X26003855Y-36588571D02*
X26003855Y-36969523D01*
X26003855Y-36969523D02*
X26384807Y-37007619D01*
X26384807Y-37007619D02*
X26346712Y-36969523D01*
X26346712Y-36969523D02*
X26308617Y-36893333D01*
X26308617Y-36893333D02*
X26308617Y-36702857D01*
X26308617Y-36702857D02*
X26346712Y-36626666D01*
X26346712Y-36626666D02*
X26384807Y-36588571D01*
X26384807Y-36588571D02*
X26460998Y-36550476D01*
X26460998Y-36550476D02*
X26651474Y-36550476D01*
X26651474Y-36550476D02*
X26727664Y-36588571D01*
X26727664Y-36588571D02*
X26765760Y-36626666D01*
X26765760Y-36626666D02*
X26803855Y-36702857D01*
X26803855Y-36702857D02*
X26803855Y-36893333D01*
X26803855Y-36893333D02*
X26765760Y-36969523D01*
X26765760Y-36969523D02*
X26727664Y-37007619D01*
X27403855Y-43828570D02*
X26603855Y-43828570D01*
X26603855Y-43828570D02*
X26603855Y-43638094D01*
X26603855Y-43638094D02*
X26641950Y-43523808D01*
X26641950Y-43523808D02*
X26718140Y-43447618D01*
X26718140Y-43447618D02*
X26794331Y-43409523D01*
X26794331Y-43409523D02*
X26946712Y-43371427D01*
X26946712Y-43371427D02*
X27060998Y-43371427D01*
X27060998Y-43371427D02*
X27213379Y-43409523D01*
X27213379Y-43409523D02*
X27289569Y-43447618D01*
X27289569Y-43447618D02*
X27365760Y-43523808D01*
X27365760Y-43523808D02*
X27403855Y-43638094D01*
X27403855Y-43638094D02*
X27403855Y-43828570D01*
X27480045Y-42495237D02*
X27441950Y-42571427D01*
X27441950Y-42571427D02*
X27365760Y-42647618D01*
X27365760Y-42647618D02*
X27251474Y-42761904D01*
X27251474Y-42761904D02*
X27213379Y-42838094D01*
X27213379Y-42838094D02*
X27213379Y-42914285D01*
X27403855Y-42876189D02*
X27365760Y-42952380D01*
X27365760Y-42952380D02*
X27289569Y-43028570D01*
X27289569Y-43028570D02*
X27137188Y-43066666D01*
X27137188Y-43066666D02*
X26870521Y-43066666D01*
X26870521Y-43066666D02*
X26718140Y-43028570D01*
X26718140Y-43028570D02*
X26641950Y-42952380D01*
X26641950Y-42952380D02*
X26603855Y-42876189D01*
X26603855Y-42876189D02*
X26603855Y-42723808D01*
X26603855Y-42723808D02*
X26641950Y-42647618D01*
X26641950Y-42647618D02*
X26718140Y-42571427D01*
X26718140Y-42571427D02*
X26870521Y-42533332D01*
X26870521Y-42533332D02*
X27137188Y-42533332D01*
X27137188Y-42533332D02*
X27289569Y-42571427D01*
X27289569Y-42571427D02*
X27365760Y-42647618D01*
X27365760Y-42647618D02*
X27403855Y-42723808D01*
X27403855Y-42723808D02*
X27403855Y-42876189D01*
X28810521Y-20528571D02*
X29343855Y-20528571D01*
X28505760Y-20719047D02*
X29077188Y-20909524D01*
X29077188Y-20909524D02*
X29077188Y-20414285D01*
X28543855Y-19766666D02*
X28543855Y-19919047D01*
X28543855Y-19919047D02*
X28581950Y-19995238D01*
X28581950Y-19995238D02*
X28620045Y-20033333D01*
X28620045Y-20033333D02*
X28734331Y-20109523D01*
X28734331Y-20109523D02*
X28886712Y-20147619D01*
X28886712Y-20147619D02*
X29191474Y-20147619D01*
X29191474Y-20147619D02*
X29267664Y-20109523D01*
X29267664Y-20109523D02*
X29305760Y-20071428D01*
X29305760Y-20071428D02*
X29343855Y-19995238D01*
X29343855Y-19995238D02*
X29343855Y-19842857D01*
X29343855Y-19842857D02*
X29305760Y-19766666D01*
X29305760Y-19766666D02*
X29267664Y-19728571D01*
X29267664Y-19728571D02*
X29191474Y-19690476D01*
X29191474Y-19690476D02*
X29000998Y-19690476D01*
X29000998Y-19690476D02*
X28924807Y-19728571D01*
X28924807Y-19728571D02*
X28886712Y-19766666D01*
X28886712Y-19766666D02*
X28848617Y-19842857D01*
X28848617Y-19842857D02*
X28848617Y-19995238D01*
X28848617Y-19995238D02*
X28886712Y-20071428D01*
X28886712Y-20071428D02*
X28924807Y-20109523D01*
X28924807Y-20109523D02*
X29000998Y-20147619D01*
X28543855Y-37198094D02*
X28543855Y-37121904D01*
X28543855Y-37121904D02*
X28581950Y-37045713D01*
X28581950Y-37045713D02*
X28620045Y-37007618D01*
X28620045Y-37007618D02*
X28696236Y-36969523D01*
X28696236Y-36969523D02*
X28848617Y-36931428D01*
X28848617Y-36931428D02*
X29039093Y-36931428D01*
X29039093Y-36931428D02*
X29191474Y-36969523D01*
X29191474Y-36969523D02*
X29267664Y-37007618D01*
X29267664Y-37007618D02*
X29305760Y-37045713D01*
X29305760Y-37045713D02*
X29343855Y-37121904D01*
X29343855Y-37121904D02*
X29343855Y-37198094D01*
X29343855Y-37198094D02*
X29305760Y-37274285D01*
X29305760Y-37274285D02*
X29267664Y-37312380D01*
X29267664Y-37312380D02*
X29191474Y-37350475D01*
X29191474Y-37350475D02*
X29039093Y-37388571D01*
X29039093Y-37388571D02*
X28848617Y-37388571D01*
X28848617Y-37388571D02*
X28696236Y-37350475D01*
X28696236Y-37350475D02*
X28620045Y-37312380D01*
X28620045Y-37312380D02*
X28581950Y-37274285D01*
X28581950Y-37274285D02*
X28543855Y-37198094D01*
X29143855Y-44190476D02*
X29143855Y-43695238D01*
X29143855Y-43695238D02*
X29448617Y-43961904D01*
X29448617Y-43961904D02*
X29448617Y-43847619D01*
X29448617Y-43847619D02*
X29486712Y-43771428D01*
X29486712Y-43771428D02*
X29524807Y-43733333D01*
X29524807Y-43733333D02*
X29600998Y-43695238D01*
X29600998Y-43695238D02*
X29791474Y-43695238D01*
X29791474Y-43695238D02*
X29867664Y-43733333D01*
X29867664Y-43733333D02*
X29905760Y-43771428D01*
X29905760Y-43771428D02*
X29943855Y-43847619D01*
X29943855Y-43847619D02*
X29943855Y-44076190D01*
X29943855Y-44076190D02*
X29905760Y-44152381D01*
X29905760Y-44152381D02*
X29867664Y-44190476D01*
X29143855Y-43466666D02*
X29943855Y-43199999D01*
X29943855Y-43199999D02*
X29143855Y-42933333D01*
X29143855Y-42742857D02*
X29143855Y-42247619D01*
X29143855Y-42247619D02*
X29448617Y-42514285D01*
X29448617Y-42514285D02*
X29448617Y-42400000D01*
X29448617Y-42400000D02*
X29486712Y-42323809D01*
X29486712Y-42323809D02*
X29524807Y-42285714D01*
X29524807Y-42285714D02*
X29600998Y-42247619D01*
X29600998Y-42247619D02*
X29791474Y-42247619D01*
X29791474Y-42247619D02*
X29867664Y-42285714D01*
X29867664Y-42285714D02*
X29905760Y-42323809D01*
X29905760Y-42323809D02*
X29943855Y-42400000D01*
X29943855Y-42400000D02*
X29943855Y-42628571D01*
X29943855Y-42628571D02*
X29905760Y-42704762D01*
X29905760Y-42704762D02*
X29867664Y-42742857D01*
X31083855Y-20566666D02*
X31083855Y-20071428D01*
X31083855Y-20071428D02*
X31388617Y-20338094D01*
X31388617Y-20338094D02*
X31388617Y-20223809D01*
X31388617Y-20223809D02*
X31426712Y-20147618D01*
X31426712Y-20147618D02*
X31464807Y-20109523D01*
X31464807Y-20109523D02*
X31540998Y-20071428D01*
X31540998Y-20071428D02*
X31731474Y-20071428D01*
X31731474Y-20071428D02*
X31807664Y-20109523D01*
X31807664Y-20109523D02*
X31845760Y-20147618D01*
X31845760Y-20147618D02*
X31883855Y-20223809D01*
X31883855Y-20223809D02*
X31883855Y-20452380D01*
X31883855Y-20452380D02*
X31845760Y-20528571D01*
X31845760Y-20528571D02*
X31807664Y-20566666D01*
X31083855Y-37807619D02*
X31083855Y-37312381D01*
X31083855Y-37312381D02*
X31388617Y-37579047D01*
X31388617Y-37579047D02*
X31388617Y-37464762D01*
X31388617Y-37464762D02*
X31426712Y-37388571D01*
X31426712Y-37388571D02*
X31464807Y-37350476D01*
X31464807Y-37350476D02*
X31540998Y-37312381D01*
X31540998Y-37312381D02*
X31731474Y-37312381D01*
X31731474Y-37312381D02*
X31807664Y-37350476D01*
X31807664Y-37350476D02*
X31845760Y-37388571D01*
X31845760Y-37388571D02*
X31883855Y-37464762D01*
X31883855Y-37464762D02*
X31883855Y-37693333D01*
X31883855Y-37693333D02*
X31845760Y-37769524D01*
X31845760Y-37769524D02*
X31807664Y-37807619D01*
X31083855Y-36588571D02*
X31083855Y-36969523D01*
X31083855Y-36969523D02*
X31464807Y-37007619D01*
X31464807Y-37007619D02*
X31426712Y-36969523D01*
X31426712Y-36969523D02*
X31388617Y-36893333D01*
X31388617Y-36893333D02*
X31388617Y-36702857D01*
X31388617Y-36702857D02*
X31426712Y-36626666D01*
X31426712Y-36626666D02*
X31464807Y-36588571D01*
X31464807Y-36588571D02*
X31540998Y-36550476D01*
X31540998Y-36550476D02*
X31731474Y-36550476D01*
X31731474Y-36550476D02*
X31807664Y-36588571D01*
X31807664Y-36588571D02*
X31845760Y-36626666D01*
X31845760Y-36626666D02*
X31883855Y-36702857D01*
X31883855Y-36702857D02*
X31883855Y-36893333D01*
X31883855Y-36893333D02*
X31845760Y-36969523D01*
X31845760Y-36969523D02*
X31807664Y-37007619D01*
X33101950Y-43809523D02*
X33063855Y-43885713D01*
X33063855Y-43885713D02*
X33063855Y-43999999D01*
X33063855Y-43999999D02*
X33101950Y-44114285D01*
X33101950Y-44114285D02*
X33178140Y-44190475D01*
X33178140Y-44190475D02*
X33254331Y-44228570D01*
X33254331Y-44228570D02*
X33406712Y-44266666D01*
X33406712Y-44266666D02*
X33520998Y-44266666D01*
X33520998Y-44266666D02*
X33673379Y-44228570D01*
X33673379Y-44228570D02*
X33749569Y-44190475D01*
X33749569Y-44190475D02*
X33825760Y-44114285D01*
X33825760Y-44114285D02*
X33863855Y-43999999D01*
X33863855Y-43999999D02*
X33863855Y-43923808D01*
X33863855Y-43923808D02*
X33825760Y-43809523D01*
X33825760Y-43809523D02*
X33787664Y-43771427D01*
X33787664Y-43771427D02*
X33520998Y-43771427D01*
X33520998Y-43771427D02*
X33520998Y-43923808D01*
X33863855Y-43428570D02*
X33063855Y-43428570D01*
X33063855Y-43428570D02*
X33863855Y-42971427D01*
X33863855Y-42971427D02*
X33063855Y-42971427D01*
X33863855Y-42590475D02*
X33063855Y-42590475D01*
X33063855Y-42590475D02*
X33063855Y-42399999D01*
X33063855Y-42399999D02*
X33101950Y-42285713D01*
X33101950Y-42285713D02*
X33178140Y-42209523D01*
X33178140Y-42209523D02*
X33254331Y-42171428D01*
X33254331Y-42171428D02*
X33406712Y-42133332D01*
X33406712Y-42133332D02*
X33520998Y-42133332D01*
X33520998Y-42133332D02*
X33673379Y-42171428D01*
X33673379Y-42171428D02*
X33749569Y-42209523D01*
X33749569Y-42209523D02*
X33825760Y-42285713D01*
X33825760Y-42285713D02*
X33863855Y-42399999D01*
X33863855Y-42399999D02*
X33863855Y-42590475D01*
X33966712Y-20376190D02*
X33928617Y-20452380D01*
X33928617Y-20452380D02*
X33890521Y-20490475D01*
X33890521Y-20490475D02*
X33814331Y-20528571D01*
X33814331Y-20528571D02*
X33776236Y-20528571D01*
X33776236Y-20528571D02*
X33700045Y-20490475D01*
X33700045Y-20490475D02*
X33661950Y-20452380D01*
X33661950Y-20452380D02*
X33623855Y-20376190D01*
X33623855Y-20376190D02*
X33623855Y-20223809D01*
X33623855Y-20223809D02*
X33661950Y-20147618D01*
X33661950Y-20147618D02*
X33700045Y-20109523D01*
X33700045Y-20109523D02*
X33776236Y-20071428D01*
X33776236Y-20071428D02*
X33814331Y-20071428D01*
X33814331Y-20071428D02*
X33890521Y-20109523D01*
X33890521Y-20109523D02*
X33928617Y-20147618D01*
X33928617Y-20147618D02*
X33966712Y-20223809D01*
X33966712Y-20223809D02*
X33966712Y-20376190D01*
X33966712Y-20376190D02*
X34004807Y-20452380D01*
X34004807Y-20452380D02*
X34042902Y-20490475D01*
X34042902Y-20490475D02*
X34119093Y-20528571D01*
X34119093Y-20528571D02*
X34271474Y-20528571D01*
X34271474Y-20528571D02*
X34347664Y-20490475D01*
X34347664Y-20490475D02*
X34385760Y-20452380D01*
X34385760Y-20452380D02*
X34423855Y-20376190D01*
X34423855Y-20376190D02*
X34423855Y-20223809D01*
X34423855Y-20223809D02*
X34385760Y-20147618D01*
X34385760Y-20147618D02*
X34347664Y-20109523D01*
X34347664Y-20109523D02*
X34271474Y-20071428D01*
X34271474Y-20071428D02*
X34119093Y-20071428D01*
X34119093Y-20071428D02*
X34042902Y-20109523D01*
X34042902Y-20109523D02*
X34004807Y-20147618D01*
X34004807Y-20147618D02*
X33966712Y-20223809D01*
X33623855Y-37807619D02*
X33623855Y-37312381D01*
X33623855Y-37312381D02*
X33928617Y-37579047D01*
X33928617Y-37579047D02*
X33928617Y-37464762D01*
X33928617Y-37464762D02*
X33966712Y-37388571D01*
X33966712Y-37388571D02*
X34004807Y-37350476D01*
X34004807Y-37350476D02*
X34080998Y-37312381D01*
X34080998Y-37312381D02*
X34271474Y-37312381D01*
X34271474Y-37312381D02*
X34347664Y-37350476D01*
X34347664Y-37350476D02*
X34385760Y-37388571D01*
X34385760Y-37388571D02*
X34423855Y-37464762D01*
X34423855Y-37464762D02*
X34423855Y-37693333D01*
X34423855Y-37693333D02*
X34385760Y-37769524D01*
X34385760Y-37769524D02*
X34347664Y-37807619D01*
X33623855Y-36626666D02*
X33623855Y-36779047D01*
X33623855Y-36779047D02*
X33661950Y-36855238D01*
X33661950Y-36855238D02*
X33700045Y-36893333D01*
X33700045Y-36893333D02*
X33814331Y-36969523D01*
X33814331Y-36969523D02*
X33966712Y-37007619D01*
X33966712Y-37007619D02*
X34271474Y-37007619D01*
X34271474Y-37007619D02*
X34347664Y-36969523D01*
X34347664Y-36969523D02*
X34385760Y-36931428D01*
X34385760Y-36931428D02*
X34423855Y-36855238D01*
X34423855Y-36855238D02*
X34423855Y-36702857D01*
X34423855Y-36702857D02*
X34385760Y-36626666D01*
X34385760Y-36626666D02*
X34347664Y-36588571D01*
X34347664Y-36588571D02*
X34271474Y-36550476D01*
X34271474Y-36550476D02*
X34080998Y-36550476D01*
X34080998Y-36550476D02*
X34004807Y-36588571D01*
X34004807Y-36588571D02*
X33966712Y-36626666D01*
X33966712Y-36626666D02*
X33928617Y-36702857D01*
X33928617Y-36702857D02*
X33928617Y-36855238D01*
X33928617Y-36855238D02*
X33966712Y-36931428D01*
X33966712Y-36931428D02*
X34004807Y-36969523D01*
X34004807Y-36969523D02*
X34080998Y-37007619D01*
X36403855Y-43828570D02*
X35603855Y-43828570D01*
X35603855Y-43828570D02*
X35603855Y-43638094D01*
X35603855Y-43638094D02*
X35641950Y-43523808D01*
X35641950Y-43523808D02*
X35718140Y-43447618D01*
X35718140Y-43447618D02*
X35794331Y-43409523D01*
X35794331Y-43409523D02*
X35946712Y-43371427D01*
X35946712Y-43371427D02*
X36060998Y-43371427D01*
X36060998Y-43371427D02*
X36213379Y-43409523D01*
X36213379Y-43409523D02*
X36289569Y-43447618D01*
X36289569Y-43447618D02*
X36365760Y-43523808D01*
X36365760Y-43523808D02*
X36403855Y-43638094D01*
X36403855Y-43638094D02*
X36403855Y-43828570D01*
X36480045Y-42495237D02*
X36441950Y-42571427D01*
X36441950Y-42571427D02*
X36365760Y-42647618D01*
X36365760Y-42647618D02*
X36251474Y-42761904D01*
X36251474Y-42761904D02*
X36213379Y-42838094D01*
X36213379Y-42838094D02*
X36213379Y-42914285D01*
X36403855Y-42876189D02*
X36365760Y-42952380D01*
X36365760Y-42952380D02*
X36289569Y-43028570D01*
X36289569Y-43028570D02*
X36137188Y-43066666D01*
X36137188Y-43066666D02*
X35870521Y-43066666D01*
X35870521Y-43066666D02*
X35718140Y-43028570D01*
X35718140Y-43028570D02*
X35641950Y-42952380D01*
X35641950Y-42952380D02*
X35603855Y-42876189D01*
X35603855Y-42876189D02*
X35603855Y-42723808D01*
X35603855Y-42723808D02*
X35641950Y-42647618D01*
X35641950Y-42647618D02*
X35718140Y-42571427D01*
X35718140Y-42571427D02*
X35870521Y-42533332D01*
X35870521Y-42533332D02*
X36137188Y-42533332D01*
X36137188Y-42533332D02*
X36289569Y-42571427D01*
X36289569Y-42571427D02*
X36365760Y-42647618D01*
X36365760Y-42647618D02*
X36403855Y-42723808D01*
X36403855Y-42723808D02*
X36403855Y-42876189D01*
X36963855Y-20452381D02*
X36963855Y-20909524D01*
X36963855Y-20680952D02*
X36163855Y-20680952D01*
X36163855Y-20680952D02*
X36278140Y-20757143D01*
X36278140Y-20757143D02*
X36354331Y-20833333D01*
X36354331Y-20833333D02*
X36392426Y-20909524D01*
X36506712Y-19995238D02*
X36468617Y-20071428D01*
X36468617Y-20071428D02*
X36430521Y-20109523D01*
X36430521Y-20109523D02*
X36354331Y-20147619D01*
X36354331Y-20147619D02*
X36316236Y-20147619D01*
X36316236Y-20147619D02*
X36240045Y-20109523D01*
X36240045Y-20109523D02*
X36201950Y-20071428D01*
X36201950Y-20071428D02*
X36163855Y-19995238D01*
X36163855Y-19995238D02*
X36163855Y-19842857D01*
X36163855Y-19842857D02*
X36201950Y-19766666D01*
X36201950Y-19766666D02*
X36240045Y-19728571D01*
X36240045Y-19728571D02*
X36316236Y-19690476D01*
X36316236Y-19690476D02*
X36354331Y-19690476D01*
X36354331Y-19690476D02*
X36430521Y-19728571D01*
X36430521Y-19728571D02*
X36468617Y-19766666D01*
X36468617Y-19766666D02*
X36506712Y-19842857D01*
X36506712Y-19842857D02*
X36506712Y-19995238D01*
X36506712Y-19995238D02*
X36544807Y-20071428D01*
X36544807Y-20071428D02*
X36582902Y-20109523D01*
X36582902Y-20109523D02*
X36659093Y-20147619D01*
X36659093Y-20147619D02*
X36811474Y-20147619D01*
X36811474Y-20147619D02*
X36887664Y-20109523D01*
X36887664Y-20109523D02*
X36925760Y-20071428D01*
X36925760Y-20071428D02*
X36963855Y-19995238D01*
X36963855Y-19995238D02*
X36963855Y-19842857D01*
X36963855Y-19842857D02*
X36925760Y-19766666D01*
X36925760Y-19766666D02*
X36887664Y-19728571D01*
X36887664Y-19728571D02*
X36811474Y-19690476D01*
X36811474Y-19690476D02*
X36659093Y-19690476D01*
X36659093Y-19690476D02*
X36582902Y-19728571D01*
X36582902Y-19728571D02*
X36544807Y-19766666D01*
X36544807Y-19766666D02*
X36506712Y-19842857D01*
X36163855Y-37807619D02*
X36163855Y-37312381D01*
X36163855Y-37312381D02*
X36468617Y-37579047D01*
X36468617Y-37579047D02*
X36468617Y-37464762D01*
X36468617Y-37464762D02*
X36506712Y-37388571D01*
X36506712Y-37388571D02*
X36544807Y-37350476D01*
X36544807Y-37350476D02*
X36620998Y-37312381D01*
X36620998Y-37312381D02*
X36811474Y-37312381D01*
X36811474Y-37312381D02*
X36887664Y-37350476D01*
X36887664Y-37350476D02*
X36925760Y-37388571D01*
X36925760Y-37388571D02*
X36963855Y-37464762D01*
X36963855Y-37464762D02*
X36963855Y-37693333D01*
X36963855Y-37693333D02*
X36925760Y-37769524D01*
X36925760Y-37769524D02*
X36887664Y-37807619D01*
X36163855Y-37045714D02*
X36163855Y-36512380D01*
X36163855Y-36512380D02*
X36963855Y-36855238D01*
X38143855Y-44190476D02*
X38143855Y-43695238D01*
X38143855Y-43695238D02*
X38448617Y-43961904D01*
X38448617Y-43961904D02*
X38448617Y-43847619D01*
X38448617Y-43847619D02*
X38486712Y-43771428D01*
X38486712Y-43771428D02*
X38524807Y-43733333D01*
X38524807Y-43733333D02*
X38600998Y-43695238D01*
X38600998Y-43695238D02*
X38791474Y-43695238D01*
X38791474Y-43695238D02*
X38867664Y-43733333D01*
X38867664Y-43733333D02*
X38905760Y-43771428D01*
X38905760Y-43771428D02*
X38943855Y-43847619D01*
X38943855Y-43847619D02*
X38943855Y-44076190D01*
X38943855Y-44076190D02*
X38905760Y-44152381D01*
X38905760Y-44152381D02*
X38867664Y-44190476D01*
X38143855Y-43466666D02*
X38943855Y-43199999D01*
X38943855Y-43199999D02*
X38143855Y-42933333D01*
X38143855Y-42742857D02*
X38143855Y-42247619D01*
X38143855Y-42247619D02*
X38448617Y-42514285D01*
X38448617Y-42514285D02*
X38448617Y-42400000D01*
X38448617Y-42400000D02*
X38486712Y-42323809D01*
X38486712Y-42323809D02*
X38524807Y-42285714D01*
X38524807Y-42285714D02*
X38600998Y-42247619D01*
X38600998Y-42247619D02*
X38791474Y-42247619D01*
X38791474Y-42247619D02*
X38867664Y-42285714D01*
X38867664Y-42285714D02*
X38905760Y-42323809D01*
X38905760Y-42323809D02*
X38943855Y-42400000D01*
X38943855Y-42400000D02*
X38943855Y-42628571D01*
X38943855Y-42628571D02*
X38905760Y-42704762D01*
X38905760Y-42704762D02*
X38867664Y-42742857D01*
X39503855Y-20452381D02*
X39503855Y-20909524D01*
X39503855Y-20680952D02*
X38703855Y-20680952D01*
X38703855Y-20680952D02*
X38818140Y-20757143D01*
X38818140Y-20757143D02*
X38894331Y-20833333D01*
X38894331Y-20833333D02*
X38932426Y-20909524D01*
X38703855Y-20185714D02*
X38703855Y-19652380D01*
X38703855Y-19652380D02*
X39503855Y-19995238D01*
X38703855Y-37807619D02*
X38703855Y-37312381D01*
X38703855Y-37312381D02*
X39008617Y-37579047D01*
X39008617Y-37579047D02*
X39008617Y-37464762D01*
X39008617Y-37464762D02*
X39046712Y-37388571D01*
X39046712Y-37388571D02*
X39084807Y-37350476D01*
X39084807Y-37350476D02*
X39160998Y-37312381D01*
X39160998Y-37312381D02*
X39351474Y-37312381D01*
X39351474Y-37312381D02*
X39427664Y-37350476D01*
X39427664Y-37350476D02*
X39465760Y-37388571D01*
X39465760Y-37388571D02*
X39503855Y-37464762D01*
X39503855Y-37464762D02*
X39503855Y-37693333D01*
X39503855Y-37693333D02*
X39465760Y-37769524D01*
X39465760Y-37769524D02*
X39427664Y-37807619D01*
X39046712Y-36855238D02*
X39008617Y-36931428D01*
X39008617Y-36931428D02*
X38970521Y-36969523D01*
X38970521Y-36969523D02*
X38894331Y-37007619D01*
X38894331Y-37007619D02*
X38856236Y-37007619D01*
X38856236Y-37007619D02*
X38780045Y-36969523D01*
X38780045Y-36969523D02*
X38741950Y-36931428D01*
X38741950Y-36931428D02*
X38703855Y-36855238D01*
X38703855Y-36855238D02*
X38703855Y-36702857D01*
X38703855Y-36702857D02*
X38741950Y-36626666D01*
X38741950Y-36626666D02*
X38780045Y-36588571D01*
X38780045Y-36588571D02*
X38856236Y-36550476D01*
X38856236Y-36550476D02*
X38894331Y-36550476D01*
X38894331Y-36550476D02*
X38970521Y-36588571D01*
X38970521Y-36588571D02*
X39008617Y-36626666D01*
X39008617Y-36626666D02*
X39046712Y-36702857D01*
X39046712Y-36702857D02*
X39046712Y-36855238D01*
X39046712Y-36855238D02*
X39084807Y-36931428D01*
X39084807Y-36931428D02*
X39122902Y-36969523D01*
X39122902Y-36969523D02*
X39199093Y-37007619D01*
X39199093Y-37007619D02*
X39351474Y-37007619D01*
X39351474Y-37007619D02*
X39427664Y-36969523D01*
X39427664Y-36969523D02*
X39465760Y-36931428D01*
X39465760Y-36931428D02*
X39503855Y-36855238D01*
X39503855Y-36855238D02*
X39503855Y-36702857D01*
X39503855Y-36702857D02*
X39465760Y-36626666D01*
X39465760Y-36626666D02*
X39427664Y-36588571D01*
X39427664Y-36588571D02*
X39351474Y-36550476D01*
X39351474Y-36550476D02*
X39199093Y-36550476D01*
X39199093Y-36550476D02*
X39122902Y-36588571D01*
X39122902Y-36588571D02*
X39084807Y-36626666D01*
X39084807Y-36626666D02*
X39046712Y-36702857D01*
X42043855Y-20452381D02*
X42043855Y-20909524D01*
X42043855Y-20680952D02*
X41243855Y-20680952D01*
X41243855Y-20680952D02*
X41358140Y-20757143D01*
X41358140Y-20757143D02*
X41434331Y-20833333D01*
X41434331Y-20833333D02*
X41472426Y-20909524D01*
X41243855Y-19766666D02*
X41243855Y-19919047D01*
X41243855Y-19919047D02*
X41281950Y-19995238D01*
X41281950Y-19995238D02*
X41320045Y-20033333D01*
X41320045Y-20033333D02*
X41434331Y-20109523D01*
X41434331Y-20109523D02*
X41586712Y-20147619D01*
X41586712Y-20147619D02*
X41891474Y-20147619D01*
X41891474Y-20147619D02*
X41967664Y-20109523D01*
X41967664Y-20109523D02*
X42005760Y-20071428D01*
X42005760Y-20071428D02*
X42043855Y-19995238D01*
X42043855Y-19995238D02*
X42043855Y-19842857D01*
X42043855Y-19842857D02*
X42005760Y-19766666D01*
X42005760Y-19766666D02*
X41967664Y-19728571D01*
X41967664Y-19728571D02*
X41891474Y-19690476D01*
X41891474Y-19690476D02*
X41700998Y-19690476D01*
X41700998Y-19690476D02*
X41624807Y-19728571D01*
X41624807Y-19728571D02*
X41586712Y-19766666D01*
X41586712Y-19766666D02*
X41548617Y-19842857D01*
X41548617Y-19842857D02*
X41548617Y-19995238D01*
X41548617Y-19995238D02*
X41586712Y-20071428D01*
X41586712Y-20071428D02*
X41624807Y-20109523D01*
X41624807Y-20109523D02*
X41700998Y-20147619D01*
X41243855Y-37807619D02*
X41243855Y-37312381D01*
X41243855Y-37312381D02*
X41548617Y-37579047D01*
X41548617Y-37579047D02*
X41548617Y-37464762D01*
X41548617Y-37464762D02*
X41586712Y-37388571D01*
X41586712Y-37388571D02*
X41624807Y-37350476D01*
X41624807Y-37350476D02*
X41700998Y-37312381D01*
X41700998Y-37312381D02*
X41891474Y-37312381D01*
X41891474Y-37312381D02*
X41967664Y-37350476D01*
X41967664Y-37350476D02*
X42005760Y-37388571D01*
X42005760Y-37388571D02*
X42043855Y-37464762D01*
X42043855Y-37464762D02*
X42043855Y-37693333D01*
X42043855Y-37693333D02*
X42005760Y-37769524D01*
X42005760Y-37769524D02*
X41967664Y-37807619D01*
X42043855Y-36931428D02*
X42043855Y-36779047D01*
X42043855Y-36779047D02*
X42005760Y-36702857D01*
X42005760Y-36702857D02*
X41967664Y-36664761D01*
X41967664Y-36664761D02*
X41853379Y-36588571D01*
X41853379Y-36588571D02*
X41700998Y-36550476D01*
X41700998Y-36550476D02*
X41396236Y-36550476D01*
X41396236Y-36550476D02*
X41320045Y-36588571D01*
X41320045Y-36588571D02*
X41281950Y-36626666D01*
X41281950Y-36626666D02*
X41243855Y-36702857D01*
X41243855Y-36702857D02*
X41243855Y-36855238D01*
X41243855Y-36855238D02*
X41281950Y-36931428D01*
X41281950Y-36931428D02*
X41320045Y-36969523D01*
X41320045Y-36969523D02*
X41396236Y-37007619D01*
X41396236Y-37007619D02*
X41586712Y-37007619D01*
X41586712Y-37007619D02*
X41662902Y-36969523D01*
X41662902Y-36969523D02*
X41700998Y-36931428D01*
X41700998Y-36931428D02*
X41739093Y-36855238D01*
X41739093Y-36855238D02*
X41739093Y-36702857D01*
X41739093Y-36702857D02*
X41700998Y-36626666D01*
X41700998Y-36626666D02*
X41662902Y-36588571D01*
X41662902Y-36588571D02*
X41586712Y-36550476D01*
X42601950Y-43809523D02*
X42563855Y-43885713D01*
X42563855Y-43885713D02*
X42563855Y-43999999D01*
X42563855Y-43999999D02*
X42601950Y-44114285D01*
X42601950Y-44114285D02*
X42678140Y-44190475D01*
X42678140Y-44190475D02*
X42754331Y-44228570D01*
X42754331Y-44228570D02*
X42906712Y-44266666D01*
X42906712Y-44266666D02*
X43020998Y-44266666D01*
X43020998Y-44266666D02*
X43173379Y-44228570D01*
X43173379Y-44228570D02*
X43249569Y-44190475D01*
X43249569Y-44190475D02*
X43325760Y-44114285D01*
X43325760Y-44114285D02*
X43363855Y-43999999D01*
X43363855Y-43999999D02*
X43363855Y-43923808D01*
X43363855Y-43923808D02*
X43325760Y-43809523D01*
X43325760Y-43809523D02*
X43287664Y-43771427D01*
X43287664Y-43771427D02*
X43020998Y-43771427D01*
X43020998Y-43771427D02*
X43020998Y-43923808D01*
X43363855Y-43428570D02*
X42563855Y-43428570D01*
X42563855Y-43428570D02*
X43363855Y-42971427D01*
X43363855Y-42971427D02*
X42563855Y-42971427D01*
X43363855Y-42590475D02*
X42563855Y-42590475D01*
X42563855Y-42590475D02*
X42563855Y-42399999D01*
X42563855Y-42399999D02*
X42601950Y-42285713D01*
X42601950Y-42285713D02*
X42678140Y-42209523D01*
X42678140Y-42209523D02*
X42754331Y-42171428D01*
X42754331Y-42171428D02*
X42906712Y-42133332D01*
X42906712Y-42133332D02*
X43020998Y-42133332D01*
X43020998Y-42133332D02*
X43173379Y-42171428D01*
X43173379Y-42171428D02*
X43249569Y-42209523D01*
X43249569Y-42209523D02*
X43325760Y-42285713D01*
X43325760Y-42285713D02*
X43363855Y-42399999D01*
X43363855Y-42399999D02*
X43363855Y-42590475D01*
X44583855Y-20452381D02*
X44583855Y-20909524D01*
X44583855Y-20680952D02*
X43783855Y-20680952D01*
X43783855Y-20680952D02*
X43898140Y-20757143D01*
X43898140Y-20757143D02*
X43974331Y-20833333D01*
X43974331Y-20833333D02*
X44012426Y-20909524D01*
X43783855Y-19728571D02*
X43783855Y-20109523D01*
X43783855Y-20109523D02*
X44164807Y-20147619D01*
X44164807Y-20147619D02*
X44126712Y-20109523D01*
X44126712Y-20109523D02*
X44088617Y-20033333D01*
X44088617Y-20033333D02*
X44088617Y-19842857D01*
X44088617Y-19842857D02*
X44126712Y-19766666D01*
X44126712Y-19766666D02*
X44164807Y-19728571D01*
X44164807Y-19728571D02*
X44240998Y-19690476D01*
X44240998Y-19690476D02*
X44431474Y-19690476D01*
X44431474Y-19690476D02*
X44507664Y-19728571D01*
X44507664Y-19728571D02*
X44545760Y-19766666D01*
X44545760Y-19766666D02*
X44583855Y-19842857D01*
X44583855Y-19842857D02*
X44583855Y-20033333D01*
X44583855Y-20033333D02*
X44545760Y-20109523D01*
X44545760Y-20109523D02*
X44507664Y-20147619D01*
X44050521Y-37388571D02*
X44583855Y-37388571D01*
X43745760Y-37579047D02*
X44317188Y-37769524D01*
X44317188Y-37769524D02*
X44317188Y-37274285D01*
X43783855Y-36817142D02*
X43783855Y-36740952D01*
X43783855Y-36740952D02*
X43821950Y-36664761D01*
X43821950Y-36664761D02*
X43860045Y-36626666D01*
X43860045Y-36626666D02*
X43936236Y-36588571D01*
X43936236Y-36588571D02*
X44088617Y-36550476D01*
X44088617Y-36550476D02*
X44279093Y-36550476D01*
X44279093Y-36550476D02*
X44431474Y-36588571D01*
X44431474Y-36588571D02*
X44507664Y-36626666D01*
X44507664Y-36626666D02*
X44545760Y-36664761D01*
X44545760Y-36664761D02*
X44583855Y-36740952D01*
X44583855Y-36740952D02*
X44583855Y-36817142D01*
X44583855Y-36817142D02*
X44545760Y-36893333D01*
X44545760Y-36893333D02*
X44507664Y-36931428D01*
X44507664Y-36931428D02*
X44431474Y-36969523D01*
X44431474Y-36969523D02*
X44279093Y-37007619D01*
X44279093Y-37007619D02*
X44088617Y-37007619D01*
X44088617Y-37007619D02*
X43936236Y-36969523D01*
X43936236Y-36969523D02*
X43860045Y-36931428D01*
X43860045Y-36931428D02*
X43821950Y-36893333D01*
X43821950Y-36893333D02*
X43783855Y-36817142D01*
X45103855Y-44266666D02*
X45903855Y-43999999D01*
X45903855Y-43999999D02*
X45103855Y-43733333D01*
X45827664Y-43009523D02*
X45865760Y-43047619D01*
X45865760Y-43047619D02*
X45903855Y-43161904D01*
X45903855Y-43161904D02*
X45903855Y-43238095D01*
X45903855Y-43238095D02*
X45865760Y-43352381D01*
X45865760Y-43352381D02*
X45789569Y-43428571D01*
X45789569Y-43428571D02*
X45713379Y-43466666D01*
X45713379Y-43466666D02*
X45560998Y-43504762D01*
X45560998Y-43504762D02*
X45446712Y-43504762D01*
X45446712Y-43504762D02*
X45294331Y-43466666D01*
X45294331Y-43466666D02*
X45218140Y-43428571D01*
X45218140Y-43428571D02*
X45141950Y-43352381D01*
X45141950Y-43352381D02*
X45103855Y-43238095D01*
X45103855Y-43238095D02*
X45103855Y-43161904D01*
X45103855Y-43161904D02*
X45141950Y-43047619D01*
X45141950Y-43047619D02*
X45180045Y-43009523D01*
X45827664Y-42209523D02*
X45865760Y-42247619D01*
X45865760Y-42247619D02*
X45903855Y-42361904D01*
X45903855Y-42361904D02*
X45903855Y-42438095D01*
X45903855Y-42438095D02*
X45865760Y-42552381D01*
X45865760Y-42552381D02*
X45789569Y-42628571D01*
X45789569Y-42628571D02*
X45713379Y-42666666D01*
X45713379Y-42666666D02*
X45560998Y-42704762D01*
X45560998Y-42704762D02*
X45446712Y-42704762D01*
X45446712Y-42704762D02*
X45294331Y-42666666D01*
X45294331Y-42666666D02*
X45218140Y-42628571D01*
X45218140Y-42628571D02*
X45141950Y-42552381D01*
X45141950Y-42552381D02*
X45103855Y-42438095D01*
X45103855Y-42438095D02*
X45103855Y-42361904D01*
X45103855Y-42361904D02*
X45141950Y-42247619D01*
X45141950Y-42247619D02*
X45180045Y-42209523D01*
X46323855Y-20566666D02*
X46323855Y-20033332D01*
X46323855Y-20033332D02*
X47123855Y-20376190D01*
X46590521Y-37388571D02*
X47123855Y-37388571D01*
X46285760Y-37579047D02*
X46857188Y-37769524D01*
X46857188Y-37769524D02*
X46857188Y-37274285D01*
X47123855Y-36550476D02*
X47123855Y-37007619D01*
X47123855Y-36779047D02*
X46323855Y-36779047D01*
X46323855Y-36779047D02*
X46438140Y-36855238D01*
X46438140Y-36855238D02*
X46514331Y-36931428D01*
X46514331Y-36931428D02*
X46552426Y-37007619D01*
X48405760Y-44152381D02*
X48443855Y-44038095D01*
X48443855Y-44038095D02*
X48443855Y-43847619D01*
X48443855Y-43847619D02*
X48405760Y-43771428D01*
X48405760Y-43771428D02*
X48367664Y-43733333D01*
X48367664Y-43733333D02*
X48291474Y-43695238D01*
X48291474Y-43695238D02*
X48215283Y-43695238D01*
X48215283Y-43695238D02*
X48139093Y-43733333D01*
X48139093Y-43733333D02*
X48100998Y-43771428D01*
X48100998Y-43771428D02*
X48062902Y-43847619D01*
X48062902Y-43847619D02*
X48024807Y-44000000D01*
X48024807Y-44000000D02*
X47986712Y-44076190D01*
X47986712Y-44076190D02*
X47948617Y-44114285D01*
X47948617Y-44114285D02*
X47872426Y-44152381D01*
X47872426Y-44152381D02*
X47796236Y-44152381D01*
X47796236Y-44152381D02*
X47720045Y-44114285D01*
X47720045Y-44114285D02*
X47681950Y-44076190D01*
X47681950Y-44076190D02*
X47643855Y-44000000D01*
X47643855Y-44000000D02*
X47643855Y-43809523D01*
X47643855Y-43809523D02*
X47681950Y-43695238D01*
X48367664Y-42895237D02*
X48405760Y-42933333D01*
X48405760Y-42933333D02*
X48443855Y-43047618D01*
X48443855Y-43047618D02*
X48443855Y-43123809D01*
X48443855Y-43123809D02*
X48405760Y-43238095D01*
X48405760Y-43238095D02*
X48329569Y-43314285D01*
X48329569Y-43314285D02*
X48253379Y-43352380D01*
X48253379Y-43352380D02*
X48100998Y-43390476D01*
X48100998Y-43390476D02*
X47986712Y-43390476D01*
X47986712Y-43390476D02*
X47834331Y-43352380D01*
X47834331Y-43352380D02*
X47758140Y-43314285D01*
X47758140Y-43314285D02*
X47681950Y-43238095D01*
X47681950Y-43238095D02*
X47643855Y-43123809D01*
X47643855Y-43123809D02*
X47643855Y-43047618D01*
X47643855Y-43047618D02*
X47681950Y-42933333D01*
X47681950Y-42933333D02*
X47720045Y-42895237D01*
X48443855Y-42171428D02*
X48443855Y-42552380D01*
X48443855Y-42552380D02*
X47643855Y-42552380D01*
X48863855Y-20147618D02*
X48863855Y-20299999D01*
X48863855Y-20299999D02*
X48901950Y-20376190D01*
X48901950Y-20376190D02*
X48940045Y-20414285D01*
X48940045Y-20414285D02*
X49054331Y-20490475D01*
X49054331Y-20490475D02*
X49206712Y-20528571D01*
X49206712Y-20528571D02*
X49511474Y-20528571D01*
X49511474Y-20528571D02*
X49587664Y-20490475D01*
X49587664Y-20490475D02*
X49625760Y-20452380D01*
X49625760Y-20452380D02*
X49663855Y-20376190D01*
X49663855Y-20376190D02*
X49663855Y-20223809D01*
X49663855Y-20223809D02*
X49625760Y-20147618D01*
X49625760Y-20147618D02*
X49587664Y-20109523D01*
X49587664Y-20109523D02*
X49511474Y-20071428D01*
X49511474Y-20071428D02*
X49320998Y-20071428D01*
X49320998Y-20071428D02*
X49244807Y-20109523D01*
X49244807Y-20109523D02*
X49206712Y-20147618D01*
X49206712Y-20147618D02*
X49168617Y-20223809D01*
X49168617Y-20223809D02*
X49168617Y-20376190D01*
X49168617Y-20376190D02*
X49206712Y-20452380D01*
X49206712Y-20452380D02*
X49244807Y-20490475D01*
X49244807Y-20490475D02*
X49320998Y-20528571D01*
X49130521Y-37388571D02*
X49663855Y-37388571D01*
X48825760Y-37579047D02*
X49397188Y-37769524D01*
X49397188Y-37769524D02*
X49397188Y-37274285D01*
X48940045Y-37007619D02*
X48901950Y-36969523D01*
X48901950Y-36969523D02*
X48863855Y-36893333D01*
X48863855Y-36893333D02*
X48863855Y-36702857D01*
X48863855Y-36702857D02*
X48901950Y-36626666D01*
X48901950Y-36626666D02*
X48940045Y-36588571D01*
X48940045Y-36588571D02*
X49016236Y-36550476D01*
X49016236Y-36550476D02*
X49092426Y-36550476D01*
X49092426Y-36550476D02*
X49206712Y-36588571D01*
X49206712Y-36588571D02*
X49663855Y-37045714D01*
X49663855Y-37045714D02*
X49663855Y-36550476D01*
X50945760Y-44171428D02*
X50983855Y-44057142D01*
X50983855Y-44057142D02*
X50983855Y-43866666D01*
X50983855Y-43866666D02*
X50945760Y-43790475D01*
X50945760Y-43790475D02*
X50907664Y-43752380D01*
X50907664Y-43752380D02*
X50831474Y-43714285D01*
X50831474Y-43714285D02*
X50755283Y-43714285D01*
X50755283Y-43714285D02*
X50679093Y-43752380D01*
X50679093Y-43752380D02*
X50640998Y-43790475D01*
X50640998Y-43790475D02*
X50602902Y-43866666D01*
X50602902Y-43866666D02*
X50564807Y-44019047D01*
X50564807Y-44019047D02*
X50526712Y-44095237D01*
X50526712Y-44095237D02*
X50488617Y-44133332D01*
X50488617Y-44133332D02*
X50412426Y-44171428D01*
X50412426Y-44171428D02*
X50336236Y-44171428D01*
X50336236Y-44171428D02*
X50260045Y-44133332D01*
X50260045Y-44133332D02*
X50221950Y-44095237D01*
X50221950Y-44095237D02*
X50183855Y-44019047D01*
X50183855Y-44019047D02*
X50183855Y-43828570D01*
X50183855Y-43828570D02*
X50221950Y-43714285D01*
X50983855Y-43371427D02*
X50183855Y-43371427D01*
X50183855Y-43371427D02*
X50183855Y-43180951D01*
X50183855Y-43180951D02*
X50221950Y-43066665D01*
X50221950Y-43066665D02*
X50298140Y-42990475D01*
X50298140Y-42990475D02*
X50374331Y-42952380D01*
X50374331Y-42952380D02*
X50526712Y-42914284D01*
X50526712Y-42914284D02*
X50640998Y-42914284D01*
X50640998Y-42914284D02*
X50793379Y-42952380D01*
X50793379Y-42952380D02*
X50869569Y-42990475D01*
X50869569Y-42990475D02*
X50945760Y-43066665D01*
X50945760Y-43066665D02*
X50983855Y-43180951D01*
X50983855Y-43180951D02*
X50983855Y-43371427D01*
X50755283Y-42609523D02*
X50755283Y-42228570D01*
X50983855Y-42685713D02*
X50183855Y-42419046D01*
X50183855Y-42419046D02*
X50983855Y-42152380D01*
X51403855Y-20109523D02*
X51403855Y-20490475D01*
X51403855Y-20490475D02*
X51784807Y-20528571D01*
X51784807Y-20528571D02*
X51746712Y-20490475D01*
X51746712Y-20490475D02*
X51708617Y-20414285D01*
X51708617Y-20414285D02*
X51708617Y-20223809D01*
X51708617Y-20223809D02*
X51746712Y-20147618D01*
X51746712Y-20147618D02*
X51784807Y-20109523D01*
X51784807Y-20109523D02*
X51860998Y-20071428D01*
X51860998Y-20071428D02*
X52051474Y-20071428D01*
X52051474Y-20071428D02*
X52127664Y-20109523D01*
X52127664Y-20109523D02*
X52165760Y-20147618D01*
X52165760Y-20147618D02*
X52203855Y-20223809D01*
X52203855Y-20223809D02*
X52203855Y-20414285D01*
X52203855Y-20414285D02*
X52165760Y-20490475D01*
X52165760Y-20490475D02*
X52127664Y-20528571D01*
X51480045Y-37388571D02*
X51441950Y-37350475D01*
X51441950Y-37350475D02*
X51403855Y-37274285D01*
X51403855Y-37274285D02*
X51403855Y-37083809D01*
X51403855Y-37083809D02*
X51441950Y-37007618D01*
X51441950Y-37007618D02*
X51480045Y-36969523D01*
X51480045Y-36969523D02*
X51556236Y-36931428D01*
X51556236Y-36931428D02*
X51632426Y-36931428D01*
X51632426Y-36931428D02*
X51746712Y-36969523D01*
X51746712Y-36969523D02*
X52203855Y-37426666D01*
X52203855Y-37426666D02*
X52203855Y-36931428D01*
X53523855Y-43695237D02*
X53142902Y-43961904D01*
X53523855Y-44152380D02*
X52723855Y-44152380D01*
X52723855Y-44152380D02*
X52723855Y-43847618D01*
X52723855Y-43847618D02*
X52761950Y-43771428D01*
X52761950Y-43771428D02*
X52800045Y-43733333D01*
X52800045Y-43733333D02*
X52876236Y-43695237D01*
X52876236Y-43695237D02*
X52990521Y-43695237D01*
X52990521Y-43695237D02*
X53066712Y-43733333D01*
X53066712Y-43733333D02*
X53104807Y-43771428D01*
X53104807Y-43771428D02*
X53142902Y-43847618D01*
X53142902Y-43847618D02*
X53142902Y-44152380D01*
X53104807Y-43352380D02*
X53104807Y-43085714D01*
X53523855Y-42971428D02*
X53523855Y-43352380D01*
X53523855Y-43352380D02*
X52723855Y-43352380D01*
X52723855Y-43352380D02*
X52723855Y-42971428D01*
X53485760Y-42666666D02*
X53523855Y-42552380D01*
X53523855Y-42552380D02*
X53523855Y-42361904D01*
X53523855Y-42361904D02*
X53485760Y-42285713D01*
X53485760Y-42285713D02*
X53447664Y-42247618D01*
X53447664Y-42247618D02*
X53371474Y-42209523D01*
X53371474Y-42209523D02*
X53295283Y-42209523D01*
X53295283Y-42209523D02*
X53219093Y-42247618D01*
X53219093Y-42247618D02*
X53180998Y-42285713D01*
X53180998Y-42285713D02*
X53142902Y-42361904D01*
X53142902Y-42361904D02*
X53104807Y-42514285D01*
X53104807Y-42514285D02*
X53066712Y-42590475D01*
X53066712Y-42590475D02*
X53028617Y-42628570D01*
X53028617Y-42628570D02*
X52952426Y-42666666D01*
X52952426Y-42666666D02*
X52876236Y-42666666D01*
X52876236Y-42666666D02*
X52800045Y-42628570D01*
X52800045Y-42628570D02*
X52761950Y-42590475D01*
X52761950Y-42590475D02*
X52723855Y-42514285D01*
X52723855Y-42514285D02*
X52723855Y-42323808D01*
X52723855Y-42323808D02*
X52761950Y-42209523D01*
X54210521Y-20147618D02*
X54743855Y-20147618D01*
X53905760Y-20338094D02*
X54477188Y-20528571D01*
X54477188Y-20528571D02*
X54477188Y-20033332D01*
X54743855Y-36931428D02*
X54743855Y-37388571D01*
X54743855Y-37159999D02*
X53943855Y-37159999D01*
X53943855Y-37159999D02*
X54058140Y-37236190D01*
X54058140Y-37236190D02*
X54134331Y-37312380D01*
X54134331Y-37312380D02*
X54172426Y-37388571D01*
X56063855Y-43809523D02*
X55263855Y-43809523D01*
X55263855Y-43809523D02*
X55263855Y-43619047D01*
X55263855Y-43619047D02*
X55301950Y-43504761D01*
X55301950Y-43504761D02*
X55378140Y-43428571D01*
X55378140Y-43428571D02*
X55454331Y-43390476D01*
X55454331Y-43390476D02*
X55606712Y-43352380D01*
X55606712Y-43352380D02*
X55720998Y-43352380D01*
X55720998Y-43352380D02*
X55873379Y-43390476D01*
X55873379Y-43390476D02*
X55949569Y-43428571D01*
X55949569Y-43428571D02*
X56025760Y-43504761D01*
X56025760Y-43504761D02*
X56063855Y-43619047D01*
X56063855Y-43619047D02*
X56063855Y-43809523D01*
X55987664Y-42552380D02*
X56025760Y-42590476D01*
X56025760Y-42590476D02*
X56063855Y-42704761D01*
X56063855Y-42704761D02*
X56063855Y-42780952D01*
X56063855Y-42780952D02*
X56025760Y-42895238D01*
X56025760Y-42895238D02*
X55949569Y-42971428D01*
X55949569Y-42971428D02*
X55873379Y-43009523D01*
X55873379Y-43009523D02*
X55720998Y-43047619D01*
X55720998Y-43047619D02*
X55606712Y-43047619D01*
X55606712Y-43047619D02*
X55454331Y-43009523D01*
X55454331Y-43009523D02*
X55378140Y-42971428D01*
X55378140Y-42971428D02*
X55301950Y-42895238D01*
X55301950Y-42895238D02*
X55263855Y-42780952D01*
X55263855Y-42780952D02*
X55263855Y-42704761D01*
X55263855Y-42704761D02*
X55301950Y-42590476D01*
X55301950Y-42590476D02*
X55340045Y-42552380D01*
X57283855Y-20738094D02*
X56902902Y-21004761D01*
X57283855Y-21195237D02*
X56483855Y-21195237D01*
X56483855Y-21195237D02*
X56483855Y-20890475D01*
X56483855Y-20890475D02*
X56521950Y-20814285D01*
X56521950Y-20814285D02*
X56560045Y-20776190D01*
X56560045Y-20776190D02*
X56636236Y-20738094D01*
X56636236Y-20738094D02*
X56750521Y-20738094D01*
X56750521Y-20738094D02*
X56826712Y-20776190D01*
X56826712Y-20776190D02*
X56864807Y-20814285D01*
X56864807Y-20814285D02*
X56902902Y-20890475D01*
X56902902Y-20890475D02*
X56902902Y-21195237D01*
X57245760Y-20433333D02*
X57283855Y-20319047D01*
X57283855Y-20319047D02*
X57283855Y-20128571D01*
X57283855Y-20128571D02*
X57245760Y-20052380D01*
X57245760Y-20052380D02*
X57207664Y-20014285D01*
X57207664Y-20014285D02*
X57131474Y-19976190D01*
X57131474Y-19976190D02*
X57055283Y-19976190D01*
X57055283Y-19976190D02*
X56979093Y-20014285D01*
X56979093Y-20014285D02*
X56940998Y-20052380D01*
X56940998Y-20052380D02*
X56902902Y-20128571D01*
X56902902Y-20128571D02*
X56864807Y-20280952D01*
X56864807Y-20280952D02*
X56826712Y-20357142D01*
X56826712Y-20357142D02*
X56788617Y-20395237D01*
X56788617Y-20395237D02*
X56712426Y-20433333D01*
X56712426Y-20433333D02*
X56636236Y-20433333D01*
X56636236Y-20433333D02*
X56560045Y-20395237D01*
X56560045Y-20395237D02*
X56521950Y-20357142D01*
X56521950Y-20357142D02*
X56483855Y-20280952D01*
X56483855Y-20280952D02*
X56483855Y-20090475D01*
X56483855Y-20090475D02*
X56521950Y-19976190D01*
X56483855Y-19747618D02*
X56483855Y-19290475D01*
X57283855Y-19519047D02*
X56483855Y-19519047D01*
X57283855Y-37293332D02*
X56902902Y-37559999D01*
X57283855Y-37750475D02*
X56483855Y-37750475D01*
X56483855Y-37750475D02*
X56483855Y-37445713D01*
X56483855Y-37445713D02*
X56521950Y-37369523D01*
X56521950Y-37369523D02*
X56560045Y-37331428D01*
X56560045Y-37331428D02*
X56636236Y-37293332D01*
X56636236Y-37293332D02*
X56750521Y-37293332D01*
X56750521Y-37293332D02*
X56826712Y-37331428D01*
X56826712Y-37331428D02*
X56864807Y-37369523D01*
X56864807Y-37369523D02*
X56902902Y-37445713D01*
X56902902Y-37445713D02*
X56902902Y-37750475D01*
X56483855Y-37026666D02*
X57283855Y-36493332D01*
X56483855Y-36493332D02*
X57283855Y-37026666D01*
X58527664Y-43333332D02*
X58565760Y-43371428D01*
X58565760Y-43371428D02*
X58603855Y-43485713D01*
X58603855Y-43485713D02*
X58603855Y-43561904D01*
X58603855Y-43561904D02*
X58565760Y-43676190D01*
X58565760Y-43676190D02*
X58489569Y-43752380D01*
X58489569Y-43752380D02*
X58413379Y-43790475D01*
X58413379Y-43790475D02*
X58260998Y-43828571D01*
X58260998Y-43828571D02*
X58146712Y-43828571D01*
X58146712Y-43828571D02*
X57994331Y-43790475D01*
X57994331Y-43790475D02*
X57918140Y-43752380D01*
X57918140Y-43752380D02*
X57841950Y-43676190D01*
X57841950Y-43676190D02*
X57803855Y-43561904D01*
X57803855Y-43561904D02*
X57803855Y-43485713D01*
X57803855Y-43485713D02*
X57841950Y-43371428D01*
X57841950Y-43371428D02*
X57880045Y-43333332D01*
X58565760Y-43028571D02*
X58603855Y-42914285D01*
X58603855Y-42914285D02*
X58603855Y-42723809D01*
X58603855Y-42723809D02*
X58565760Y-42647618D01*
X58565760Y-42647618D02*
X58527664Y-42609523D01*
X58527664Y-42609523D02*
X58451474Y-42571428D01*
X58451474Y-42571428D02*
X58375283Y-42571428D01*
X58375283Y-42571428D02*
X58299093Y-42609523D01*
X58299093Y-42609523D02*
X58260998Y-42647618D01*
X58260998Y-42647618D02*
X58222902Y-42723809D01*
X58222902Y-42723809D02*
X58184807Y-42876190D01*
X58184807Y-42876190D02*
X58146712Y-42952380D01*
X58146712Y-42952380D02*
X58108617Y-42990475D01*
X58108617Y-42990475D02*
X58032426Y-43028571D01*
X58032426Y-43028571D02*
X57956236Y-43028571D01*
X57956236Y-43028571D02*
X57880045Y-42990475D01*
X57880045Y-42990475D02*
X57841950Y-42952380D01*
X57841950Y-42952380D02*
X57803855Y-42876190D01*
X57803855Y-42876190D02*
X57803855Y-42685713D01*
X57803855Y-42685713D02*
X57841950Y-42571428D01*
X59023855Y-21290476D02*
X59023855Y-20795238D01*
X59023855Y-20795238D02*
X59328617Y-21061904D01*
X59328617Y-21061904D02*
X59328617Y-20947619D01*
X59328617Y-20947619D02*
X59366712Y-20871428D01*
X59366712Y-20871428D02*
X59404807Y-20833333D01*
X59404807Y-20833333D02*
X59480998Y-20795238D01*
X59480998Y-20795238D02*
X59671474Y-20795238D01*
X59671474Y-20795238D02*
X59747664Y-20833333D01*
X59747664Y-20833333D02*
X59785760Y-20871428D01*
X59785760Y-20871428D02*
X59823855Y-20947619D01*
X59823855Y-20947619D02*
X59823855Y-21176190D01*
X59823855Y-21176190D02*
X59785760Y-21252381D01*
X59785760Y-21252381D02*
X59747664Y-21290476D01*
X59023855Y-20566666D02*
X59823855Y-20299999D01*
X59823855Y-20299999D02*
X59023855Y-20033333D01*
X59023855Y-19842857D02*
X59023855Y-19347619D01*
X59023855Y-19347619D02*
X59328617Y-19614285D01*
X59328617Y-19614285D02*
X59328617Y-19500000D01*
X59328617Y-19500000D02*
X59366712Y-19423809D01*
X59366712Y-19423809D02*
X59404807Y-19385714D01*
X59404807Y-19385714D02*
X59480998Y-19347619D01*
X59480998Y-19347619D02*
X59671474Y-19347619D01*
X59671474Y-19347619D02*
X59747664Y-19385714D01*
X59747664Y-19385714D02*
X59785760Y-19423809D01*
X59785760Y-19423809D02*
X59823855Y-19500000D01*
X59823855Y-19500000D02*
X59823855Y-19728571D01*
X59823855Y-19728571D02*
X59785760Y-19804762D01*
X59785760Y-19804762D02*
X59747664Y-19842857D01*
X59023855Y-37769523D02*
X59023855Y-37312380D01*
X59823855Y-37540952D02*
X59023855Y-37540952D01*
X59023855Y-37121904D02*
X59823855Y-36588570D01*
X59023855Y-36588570D02*
X59823855Y-37121904D01*
X60724807Y-43466666D02*
X60762902Y-43352380D01*
X60762902Y-43352380D02*
X60800998Y-43314285D01*
X60800998Y-43314285D02*
X60877188Y-43276189D01*
X60877188Y-43276189D02*
X60991474Y-43276189D01*
X60991474Y-43276189D02*
X61067664Y-43314285D01*
X61067664Y-43314285D02*
X61105760Y-43352380D01*
X61105760Y-43352380D02*
X61143855Y-43428570D01*
X61143855Y-43428570D02*
X61143855Y-43733332D01*
X61143855Y-43733332D02*
X60343855Y-43733332D01*
X60343855Y-43733332D02*
X60343855Y-43466666D01*
X60343855Y-43466666D02*
X60381950Y-43390475D01*
X60381950Y-43390475D02*
X60420045Y-43352380D01*
X60420045Y-43352380D02*
X60496236Y-43314285D01*
X60496236Y-43314285D02*
X60572426Y-43314285D01*
X60572426Y-43314285D02*
X60648617Y-43352380D01*
X60648617Y-43352380D02*
X60686712Y-43390475D01*
X60686712Y-43390475D02*
X60724807Y-43466666D01*
X60724807Y-43466666D02*
X60724807Y-43733332D01*
X61143855Y-42552380D02*
X61143855Y-42933332D01*
X61143855Y-42933332D02*
X60343855Y-42933332D01*
X61563855Y-21290476D02*
X61563855Y-20795238D01*
X61563855Y-20795238D02*
X61868617Y-21061904D01*
X61868617Y-21061904D02*
X61868617Y-20947619D01*
X61868617Y-20947619D02*
X61906712Y-20871428D01*
X61906712Y-20871428D02*
X61944807Y-20833333D01*
X61944807Y-20833333D02*
X62020998Y-20795238D01*
X62020998Y-20795238D02*
X62211474Y-20795238D01*
X62211474Y-20795238D02*
X62287664Y-20833333D01*
X62287664Y-20833333D02*
X62325760Y-20871428D01*
X62325760Y-20871428D02*
X62363855Y-20947619D01*
X62363855Y-20947619D02*
X62363855Y-21176190D01*
X62363855Y-21176190D02*
X62325760Y-21252381D01*
X62325760Y-21252381D02*
X62287664Y-21290476D01*
X61563855Y-20566666D02*
X62363855Y-20299999D01*
X62363855Y-20299999D02*
X61563855Y-20033333D01*
X61563855Y-19842857D02*
X61563855Y-19347619D01*
X61563855Y-19347619D02*
X61868617Y-19614285D01*
X61868617Y-19614285D02*
X61868617Y-19500000D01*
X61868617Y-19500000D02*
X61906712Y-19423809D01*
X61906712Y-19423809D02*
X61944807Y-19385714D01*
X61944807Y-19385714D02*
X62020998Y-19347619D01*
X62020998Y-19347619D02*
X62211474Y-19347619D01*
X62211474Y-19347619D02*
X62287664Y-19385714D01*
X62287664Y-19385714D02*
X62325760Y-19423809D01*
X62325760Y-19423809D02*
X62363855Y-19500000D01*
X62363855Y-19500000D02*
X62363855Y-19728571D01*
X62363855Y-19728571D02*
X62325760Y-19804762D01*
X62325760Y-19804762D02*
X62287664Y-19842857D01*
X61601950Y-37769523D02*
X61563855Y-37845713D01*
X61563855Y-37845713D02*
X61563855Y-37959999D01*
X61563855Y-37959999D02*
X61601950Y-38074285D01*
X61601950Y-38074285D02*
X61678140Y-38150475D01*
X61678140Y-38150475D02*
X61754331Y-38188570D01*
X61754331Y-38188570D02*
X61906712Y-38226666D01*
X61906712Y-38226666D02*
X62020998Y-38226666D01*
X62020998Y-38226666D02*
X62173379Y-38188570D01*
X62173379Y-38188570D02*
X62249569Y-38150475D01*
X62249569Y-38150475D02*
X62325760Y-38074285D01*
X62325760Y-38074285D02*
X62363855Y-37959999D01*
X62363855Y-37959999D02*
X62363855Y-37883808D01*
X62363855Y-37883808D02*
X62325760Y-37769523D01*
X62325760Y-37769523D02*
X62287664Y-37731427D01*
X62287664Y-37731427D02*
X62020998Y-37731427D01*
X62020998Y-37731427D02*
X62020998Y-37883808D01*
X62363855Y-37388570D02*
X61563855Y-37388570D01*
X61563855Y-37388570D02*
X62363855Y-36931427D01*
X62363855Y-36931427D02*
X61563855Y-36931427D01*
X62363855Y-36550475D02*
X61563855Y-36550475D01*
X61563855Y-36550475D02*
X61563855Y-36359999D01*
X61563855Y-36359999D02*
X61601950Y-36245713D01*
X61601950Y-36245713D02*
X61678140Y-36169523D01*
X61678140Y-36169523D02*
X61754331Y-36131428D01*
X61754331Y-36131428D02*
X61906712Y-36093332D01*
X61906712Y-36093332D02*
X62020998Y-36093332D01*
X62020998Y-36093332D02*
X62173379Y-36131428D01*
X62173379Y-36131428D02*
X62249569Y-36169523D01*
X62249569Y-36169523D02*
X62325760Y-36245713D01*
X62325760Y-36245713D02*
X62363855Y-36359999D01*
X62363855Y-36359999D02*
X62363855Y-36550475D01*
D11*
X29935713Y-1651934D02*
X30364285Y-1651934D01*
X29849999Y-1909077D02*
X30149999Y-1009077D01*
X30149999Y-1009077D02*
X30449999Y-1909077D01*
X30621428Y-1009077D02*
X31135714Y-1009077D01*
X30878571Y-1909077D02*
X30878571Y-1009077D01*
X31349999Y-1009077D02*
X31949999Y-1909077D01*
X31949999Y-1009077D02*
X31349999Y-1909077D01*
X32935713Y-1094791D02*
X32978570Y-1051934D01*
X32978570Y-1051934D02*
X33064285Y-1009077D01*
X33064285Y-1009077D02*
X33278570Y-1009077D01*
X33278570Y-1009077D02*
X33364285Y-1051934D01*
X33364285Y-1051934D02*
X33407142Y-1094791D01*
X33407142Y-1094791D02*
X33449999Y-1180505D01*
X33449999Y-1180505D02*
X33449999Y-1266220D01*
X33449999Y-1266220D02*
X33407142Y-1394791D01*
X33407142Y-1394791D02*
X32892856Y-1909077D01*
X32892856Y-1909077D02*
X33449999Y-1909077D01*
X34221428Y-1309077D02*
X34221428Y-1909077D01*
X34007142Y-966220D02*
X33792856Y-1609077D01*
X33792856Y-1609077D02*
X34349999Y-1609077D01*
X34692856Y-1566220D02*
X35378571Y-1566220D01*
X35807142Y-1309077D02*
X35807142Y-2209077D01*
X35807142Y-1351934D02*
X35892857Y-1309077D01*
X35892857Y-1309077D02*
X36064285Y-1309077D01*
X36064285Y-1309077D02*
X36149999Y-1351934D01*
X36149999Y-1351934D02*
X36192857Y-1394791D01*
X36192857Y-1394791D02*
X36235714Y-1480505D01*
X36235714Y-1480505D02*
X36235714Y-1737648D01*
X36235714Y-1737648D02*
X36192857Y-1823362D01*
X36192857Y-1823362D02*
X36149999Y-1866220D01*
X36149999Y-1866220D02*
X36064285Y-1909077D01*
X36064285Y-1909077D02*
X35892857Y-1909077D01*
X35892857Y-1909077D02*
X35807142Y-1866220D01*
X36621428Y-1909077D02*
X36621428Y-1309077D01*
X36621428Y-1009077D02*
X36578571Y-1051934D01*
X36578571Y-1051934D02*
X36621428Y-1094791D01*
X36621428Y-1094791D02*
X36664285Y-1051934D01*
X36664285Y-1051934D02*
X36621428Y-1009077D01*
X36621428Y-1009077D02*
X36621428Y-1094791D01*
X37049999Y-1309077D02*
X37049999Y-1909077D01*
X37049999Y-1394791D02*
X37092856Y-1351934D01*
X37092856Y-1351934D02*
X37178571Y-1309077D01*
X37178571Y-1309077D02*
X37307142Y-1309077D01*
X37307142Y-1309077D02*
X37392856Y-1351934D01*
X37392856Y-1351934D02*
X37435714Y-1437648D01*
X37435714Y-1437648D02*
X37435714Y-1909077D01*
X39921428Y-1309077D02*
X39235713Y-1566220D01*
X39235713Y-1566220D02*
X39921428Y-1823362D01*
X40349999Y-1566220D02*
X41035714Y-1566220D01*
X42149999Y-1909077D02*
X42149999Y-1009077D01*
X42149999Y-1009077D02*
X42492856Y-1009077D01*
X42492856Y-1009077D02*
X42578571Y-1051934D01*
X42578571Y-1051934D02*
X42621428Y-1094791D01*
X42621428Y-1094791D02*
X42664285Y-1180505D01*
X42664285Y-1180505D02*
X42664285Y-1309077D01*
X42664285Y-1309077D02*
X42621428Y-1394791D01*
X42621428Y-1394791D02*
X42578571Y-1437648D01*
X42578571Y-1437648D02*
X42492856Y-1480505D01*
X42492856Y-1480505D02*
X42149999Y-1480505D01*
X43007142Y-1866220D02*
X43135714Y-1909077D01*
X43135714Y-1909077D02*
X43349999Y-1909077D01*
X43349999Y-1909077D02*
X43435714Y-1866220D01*
X43435714Y-1866220D02*
X43478571Y-1823362D01*
X43478571Y-1823362D02*
X43521428Y-1737648D01*
X43521428Y-1737648D02*
X43521428Y-1651934D01*
X43521428Y-1651934D02*
X43478571Y-1566220D01*
X43478571Y-1566220D02*
X43435714Y-1523362D01*
X43435714Y-1523362D02*
X43349999Y-1480505D01*
X43349999Y-1480505D02*
X43178571Y-1437648D01*
X43178571Y-1437648D02*
X43092856Y-1394791D01*
X43092856Y-1394791D02*
X43049999Y-1351934D01*
X43049999Y-1351934D02*
X43007142Y-1266220D01*
X43007142Y-1266220D02*
X43007142Y-1180505D01*
X43007142Y-1180505D02*
X43049999Y-1094791D01*
X43049999Y-1094791D02*
X43092856Y-1051934D01*
X43092856Y-1051934D02*
X43178571Y-1009077D01*
X43178571Y-1009077D02*
X43392856Y-1009077D01*
X43392856Y-1009077D02*
X43521428Y-1051934D01*
X43907142Y-1009077D02*
X43907142Y-1737648D01*
X43907142Y-1737648D02*
X43949999Y-1823362D01*
X43949999Y-1823362D02*
X43992857Y-1866220D01*
X43992857Y-1866220D02*
X44078571Y-1909077D01*
X44078571Y-1909077D02*
X44249999Y-1909077D01*
X44249999Y-1909077D02*
X44335714Y-1866220D01*
X44335714Y-1866220D02*
X44378571Y-1823362D01*
X44378571Y-1823362D02*
X44421428Y-1737648D01*
X44421428Y-1737648D02*
X44421428Y-1009077D01*
X45535713Y-1309077D02*
X45535713Y-2209077D01*
X45535713Y-1351934D02*
X45621428Y-1309077D01*
X45621428Y-1309077D02*
X45792856Y-1309077D01*
X45792856Y-1309077D02*
X45878570Y-1351934D01*
X45878570Y-1351934D02*
X45921428Y-1394791D01*
X45921428Y-1394791D02*
X45964285Y-1480505D01*
X45964285Y-1480505D02*
X45964285Y-1737648D01*
X45964285Y-1737648D02*
X45921428Y-1823362D01*
X45921428Y-1823362D02*
X45878570Y-1866220D01*
X45878570Y-1866220D02*
X45792856Y-1909077D01*
X45792856Y-1909077D02*
X45621428Y-1909077D01*
X45621428Y-1909077D02*
X45535713Y-1866220D01*
X46478571Y-1909077D02*
X46392856Y-1866220D01*
X46392856Y-1866220D02*
X46349999Y-1780505D01*
X46349999Y-1780505D02*
X46349999Y-1009077D01*
X47207143Y-1309077D02*
X47207143Y-1909077D01*
X46821428Y-1309077D02*
X46821428Y-1780505D01*
X46821428Y-1780505D02*
X46864285Y-1866220D01*
X46864285Y-1866220D02*
X46950000Y-1909077D01*
X46950000Y-1909077D02*
X47078571Y-1909077D01*
X47078571Y-1909077D02*
X47164285Y-1866220D01*
X47164285Y-1866220D02*
X47207143Y-1823362D01*
X48021429Y-1309077D02*
X48021429Y-2037648D01*
X48021429Y-2037648D02*
X47978571Y-2123362D01*
X47978571Y-2123362D02*
X47935714Y-2166220D01*
X47935714Y-2166220D02*
X47850000Y-2209077D01*
X47850000Y-2209077D02*
X47721429Y-2209077D01*
X47721429Y-2209077D02*
X47635714Y-2166220D01*
X48021429Y-1866220D02*
X47935714Y-1909077D01*
X47935714Y-1909077D02*
X47764286Y-1909077D01*
X47764286Y-1909077D02*
X47678571Y-1866220D01*
X47678571Y-1866220D02*
X47635714Y-1823362D01*
X47635714Y-1823362D02*
X47592857Y-1737648D01*
X47592857Y-1737648D02*
X47592857Y-1480505D01*
X47592857Y-1480505D02*
X47635714Y-1394791D01*
X47635714Y-1394791D02*
X47678571Y-1351934D01*
X47678571Y-1351934D02*
X47764286Y-1309077D01*
X47764286Y-1309077D02*
X47935714Y-1309077D01*
X47935714Y-1309077D02*
X48021429Y-1351934D01*
X2109077Y-29835714D02*
X2837648Y-29835714D01*
X2837648Y-29835714D02*
X2923362Y-29792857D01*
X2923362Y-29792857D02*
X2966220Y-29750000D01*
X2966220Y-29750000D02*
X3009077Y-29664285D01*
X3009077Y-29664285D02*
X3009077Y-29492857D01*
X3009077Y-29492857D02*
X2966220Y-29407142D01*
X2966220Y-29407142D02*
X2923362Y-29364285D01*
X2923362Y-29364285D02*
X2837648Y-29321428D01*
X2837648Y-29321428D02*
X2109077Y-29321428D01*
X2966220Y-28935714D02*
X3009077Y-28807143D01*
X3009077Y-28807143D02*
X3009077Y-28592857D01*
X3009077Y-28592857D02*
X2966220Y-28507143D01*
X2966220Y-28507143D02*
X2923362Y-28464285D01*
X2923362Y-28464285D02*
X2837648Y-28421428D01*
X2837648Y-28421428D02*
X2751934Y-28421428D01*
X2751934Y-28421428D02*
X2666220Y-28464285D01*
X2666220Y-28464285D02*
X2623362Y-28507143D01*
X2623362Y-28507143D02*
X2580505Y-28592857D01*
X2580505Y-28592857D02*
X2537648Y-28764285D01*
X2537648Y-28764285D02*
X2494791Y-28850000D01*
X2494791Y-28850000D02*
X2451934Y-28892857D01*
X2451934Y-28892857D02*
X2366220Y-28935714D01*
X2366220Y-28935714D02*
X2280505Y-28935714D01*
X2280505Y-28935714D02*
X2194791Y-28892857D01*
X2194791Y-28892857D02*
X2151934Y-28850000D01*
X2151934Y-28850000D02*
X2109077Y-28764285D01*
X2109077Y-28764285D02*
X2109077Y-28550000D01*
X2109077Y-28550000D02*
X2151934Y-28421428D01*
X2537648Y-27735714D02*
X2580505Y-27607142D01*
X2580505Y-27607142D02*
X2623362Y-27564285D01*
X2623362Y-27564285D02*
X2709077Y-27521428D01*
X2709077Y-27521428D02*
X2837648Y-27521428D01*
X2837648Y-27521428D02*
X2923362Y-27564285D01*
X2923362Y-27564285D02*
X2966220Y-27607142D01*
X2966220Y-27607142D02*
X3009077Y-27692857D01*
X3009077Y-27692857D02*
X3009077Y-28035714D01*
X3009077Y-28035714D02*
X2109077Y-28035714D01*
X2109077Y-28035714D02*
X2109077Y-27735714D01*
X2109077Y-27735714D02*
X2151934Y-27650000D01*
X2151934Y-27650000D02*
X2194791Y-27607142D01*
X2194791Y-27607142D02*
X2280505Y-27564285D01*
X2280505Y-27564285D02*
X2366220Y-27564285D01*
X2366220Y-27564285D02*
X2451934Y-27607142D01*
X2451934Y-27607142D02*
X2494791Y-27650000D01*
X2494791Y-27650000D02*
X2537648Y-27735714D01*
X2537648Y-27735714D02*
X2537648Y-28035714D01*
D12*
X42333333Y-23524819D02*
X42000000Y-23048628D01*
X41761905Y-23524819D02*
X41761905Y-22524819D01*
X41761905Y-22524819D02*
X42142857Y-22524819D01*
X42142857Y-22524819D02*
X42238095Y-22572438D01*
X42238095Y-22572438D02*
X42285714Y-22620057D01*
X42285714Y-22620057D02*
X42333333Y-22715295D01*
X42333333Y-22715295D02*
X42333333Y-22858152D01*
X42333333Y-22858152D02*
X42285714Y-22953390D01*
X42285714Y-22953390D02*
X42238095Y-23001009D01*
X42238095Y-23001009D02*
X42142857Y-23048628D01*
X42142857Y-23048628D02*
X41761905Y-23048628D01*
X43190476Y-22858152D02*
X43190476Y-23524819D01*
X42952381Y-22477200D02*
X42714286Y-23191485D01*
X42714286Y-23191485D02*
X43333333Y-23191485D01*
X39066666Y-7704819D02*
X39066666Y-8419104D01*
X39066666Y-8419104D02*
X39019047Y-8561961D01*
X39019047Y-8561961D02*
X38923809Y-8657200D01*
X38923809Y-8657200D02*
X38780952Y-8704819D01*
X38780952Y-8704819D02*
X38685714Y-8704819D01*
X40066666Y-8704819D02*
X39495238Y-8704819D01*
X39780952Y-8704819D02*
X39780952Y-7704819D01*
X39780952Y-7704819D02*
X39685714Y-7847676D01*
X39685714Y-7847676D02*
X39590476Y-7942914D01*
X39590476Y-7942914D02*
X39495238Y-7990533D01*
X12333333Y-22179580D02*
X12285714Y-22227200D01*
X12285714Y-22227200D02*
X12142857Y-22274819D01*
X12142857Y-22274819D02*
X12047619Y-22274819D01*
X12047619Y-22274819D02*
X11904762Y-22227200D01*
X11904762Y-22227200D02*
X11809524Y-22131961D01*
X11809524Y-22131961D02*
X11761905Y-22036723D01*
X11761905Y-22036723D02*
X11714286Y-21846247D01*
X11714286Y-21846247D02*
X11714286Y-21703390D01*
X11714286Y-21703390D02*
X11761905Y-21512914D01*
X11761905Y-21512914D02*
X11809524Y-21417676D01*
X11809524Y-21417676D02*
X11904762Y-21322438D01*
X11904762Y-21322438D02*
X12047619Y-21274819D01*
X12047619Y-21274819D02*
X12142857Y-21274819D01*
X12142857Y-21274819D02*
X12285714Y-21322438D01*
X12285714Y-21322438D02*
X12333333Y-21370057D01*
X13285714Y-22274819D02*
X12714286Y-22274819D01*
X13000000Y-22274819D02*
X13000000Y-21274819D01*
X13000000Y-21274819D02*
X12904762Y-21417676D01*
X12904762Y-21417676D02*
X12809524Y-21512914D01*
X12809524Y-21512914D02*
X12714286Y-21560533D01*
X22333333Y-22524819D02*
X22000000Y-22048628D01*
X21761905Y-22524819D02*
X21761905Y-21524819D01*
X21761905Y-21524819D02*
X22142857Y-21524819D01*
X22142857Y-21524819D02*
X22238095Y-21572438D01*
X22238095Y-21572438D02*
X22285714Y-21620057D01*
X22285714Y-21620057D02*
X22333333Y-21715295D01*
X22333333Y-21715295D02*
X22333333Y-21858152D01*
X22333333Y-21858152D02*
X22285714Y-21953390D01*
X22285714Y-21953390D02*
X22238095Y-22001009D01*
X22238095Y-22001009D02*
X22142857Y-22048628D01*
X22142857Y-22048628D02*
X21761905Y-22048628D01*
X23190476Y-21524819D02*
X23000000Y-21524819D01*
X23000000Y-21524819D02*
X22904762Y-21572438D01*
X22904762Y-21572438D02*
X22857143Y-21620057D01*
X22857143Y-21620057D02*
X22761905Y-21762914D01*
X22761905Y-21762914D02*
X22714286Y-21953390D01*
X22714286Y-21953390D02*
X22714286Y-22334342D01*
X22714286Y-22334342D02*
X22761905Y-22429580D01*
X22761905Y-22429580D02*
X22809524Y-22477200D01*
X22809524Y-22477200D02*
X22904762Y-22524819D01*
X22904762Y-22524819D02*
X23095238Y-22524819D01*
X23095238Y-22524819D02*
X23190476Y-22477200D01*
X23190476Y-22477200D02*
X23238095Y-22429580D01*
X23238095Y-22429580D02*
X23285714Y-22334342D01*
X23285714Y-22334342D02*
X23285714Y-22096247D01*
X23285714Y-22096247D02*
X23238095Y-22001009D01*
X23238095Y-22001009D02*
X23190476Y-21953390D01*
X23190476Y-21953390D02*
X23095238Y-21905771D01*
X23095238Y-21905771D02*
X22904762Y-21905771D01*
X22904762Y-21905771D02*
X22809524Y-21953390D01*
X22809524Y-21953390D02*
X22761905Y-22001009D01*
X22761905Y-22001009D02*
X22714286Y-22096247D01*
X47333333Y-23524819D02*
X47000000Y-23048628D01*
X46761905Y-23524819D02*
X46761905Y-22524819D01*
X46761905Y-22524819D02*
X47142857Y-22524819D01*
X47142857Y-22524819D02*
X47238095Y-22572438D01*
X47238095Y-22572438D02*
X47285714Y-22620057D01*
X47285714Y-22620057D02*
X47333333Y-22715295D01*
X47333333Y-22715295D02*
X47333333Y-22858152D01*
X47333333Y-22858152D02*
X47285714Y-22953390D01*
X47285714Y-22953390D02*
X47238095Y-23001009D01*
X47238095Y-23001009D02*
X47142857Y-23048628D01*
X47142857Y-23048628D02*
X46761905Y-23048628D01*
X47714286Y-22620057D02*
X47761905Y-22572438D01*
X47761905Y-22572438D02*
X47857143Y-22524819D01*
X47857143Y-22524819D02*
X48095238Y-22524819D01*
X48095238Y-22524819D02*
X48190476Y-22572438D01*
X48190476Y-22572438D02*
X48238095Y-22620057D01*
X48238095Y-22620057D02*
X48285714Y-22715295D01*
X48285714Y-22715295D02*
X48285714Y-22810533D01*
X48285714Y-22810533D02*
X48238095Y-22953390D01*
X48238095Y-22953390D02*
X47666667Y-23524819D01*
X47666667Y-23524819D02*
X48285714Y-23524819D01*
X52904761Y-23650057D02*
X52809523Y-23602438D01*
X52809523Y-23602438D02*
X52714285Y-23507200D01*
X52714285Y-23507200D02*
X52571428Y-23364342D01*
X52571428Y-23364342D02*
X52476190Y-23316723D01*
X52476190Y-23316723D02*
X52380952Y-23316723D01*
X52428571Y-23554819D02*
X52333333Y-23507200D01*
X52333333Y-23507200D02*
X52238095Y-23411961D01*
X52238095Y-23411961D02*
X52190476Y-23221485D01*
X52190476Y-23221485D02*
X52190476Y-22888152D01*
X52190476Y-22888152D02*
X52238095Y-22697676D01*
X52238095Y-22697676D02*
X52333333Y-22602438D01*
X52333333Y-22602438D02*
X52428571Y-22554819D01*
X52428571Y-22554819D02*
X52619047Y-22554819D01*
X52619047Y-22554819D02*
X52714285Y-22602438D01*
X52714285Y-22602438D02*
X52809523Y-22697676D01*
X52809523Y-22697676D02*
X52857142Y-22888152D01*
X52857142Y-22888152D02*
X52857142Y-23221485D01*
X52857142Y-23221485D02*
X52809523Y-23411961D01*
X52809523Y-23411961D02*
X52714285Y-23507200D01*
X52714285Y-23507200D02*
X52619047Y-23554819D01*
X52619047Y-23554819D02*
X52428571Y-23554819D01*
X53809523Y-23554819D02*
X53238095Y-23554819D01*
X53523809Y-23554819D02*
X53523809Y-22554819D01*
X53523809Y-22554819D02*
X53428571Y-22697676D01*
X53428571Y-22697676D02*
X53333333Y-22792914D01*
X53333333Y-22792914D02*
X53238095Y-22840533D01*
X52833333Y-29524819D02*
X52500000Y-29048628D01*
X52261905Y-29524819D02*
X52261905Y-28524819D01*
X52261905Y-28524819D02*
X52642857Y-28524819D01*
X52642857Y-28524819D02*
X52738095Y-28572438D01*
X52738095Y-28572438D02*
X52785714Y-28620057D01*
X52785714Y-28620057D02*
X52833333Y-28715295D01*
X52833333Y-28715295D02*
X52833333Y-28858152D01*
X52833333Y-28858152D02*
X52785714Y-28953390D01*
X52785714Y-28953390D02*
X52738095Y-29001009D01*
X52738095Y-29001009D02*
X52642857Y-29048628D01*
X52642857Y-29048628D02*
X52261905Y-29048628D01*
X53785714Y-29524819D02*
X53214286Y-29524819D01*
X53500000Y-29524819D02*
X53500000Y-28524819D01*
X53500000Y-28524819D02*
X53404762Y-28667676D01*
X53404762Y-28667676D02*
X53309524Y-28762914D01*
X53309524Y-28762914D02*
X53214286Y-28810533D01*
X17333333Y-28929580D02*
X17285714Y-28977200D01*
X17285714Y-28977200D02*
X17142857Y-29024819D01*
X17142857Y-29024819D02*
X17047619Y-29024819D01*
X17047619Y-29024819D02*
X16904762Y-28977200D01*
X16904762Y-28977200D02*
X16809524Y-28881961D01*
X16809524Y-28881961D02*
X16761905Y-28786723D01*
X16761905Y-28786723D02*
X16714286Y-28596247D01*
X16714286Y-28596247D02*
X16714286Y-28453390D01*
X16714286Y-28453390D02*
X16761905Y-28262914D01*
X16761905Y-28262914D02*
X16809524Y-28167676D01*
X16809524Y-28167676D02*
X16904762Y-28072438D01*
X16904762Y-28072438D02*
X17047619Y-28024819D01*
X17047619Y-28024819D02*
X17142857Y-28024819D01*
X17142857Y-28024819D02*
X17285714Y-28072438D01*
X17285714Y-28072438D02*
X17333333Y-28120057D01*
X18190476Y-28358152D02*
X18190476Y-29024819D01*
X17952381Y-27977200D02*
X17714286Y-28691485D01*
X17714286Y-28691485D02*
X18333333Y-28691485D01*
X47333333Y-27024819D02*
X47000000Y-26548628D01*
X46761905Y-27024819D02*
X46761905Y-26024819D01*
X46761905Y-26024819D02*
X47142857Y-26024819D01*
X47142857Y-26024819D02*
X47238095Y-26072438D01*
X47238095Y-26072438D02*
X47285714Y-26120057D01*
X47285714Y-26120057D02*
X47333333Y-26215295D01*
X47333333Y-26215295D02*
X47333333Y-26358152D01*
X47333333Y-26358152D02*
X47285714Y-26453390D01*
X47285714Y-26453390D02*
X47238095Y-26501009D01*
X47238095Y-26501009D02*
X47142857Y-26548628D01*
X47142857Y-26548628D02*
X46761905Y-26548628D01*
X47666667Y-26024819D02*
X48285714Y-26024819D01*
X48285714Y-26024819D02*
X47952381Y-26405771D01*
X47952381Y-26405771D02*
X48095238Y-26405771D01*
X48095238Y-26405771D02*
X48190476Y-26453390D01*
X48190476Y-26453390D02*
X48238095Y-26501009D01*
X48238095Y-26501009D02*
X48285714Y-26596247D01*
X48285714Y-26596247D02*
X48285714Y-26834342D01*
X48285714Y-26834342D02*
X48238095Y-26929580D01*
X48238095Y-26929580D02*
X48190476Y-26977200D01*
X48190476Y-26977200D02*
X48095238Y-27024819D01*
X48095238Y-27024819D02*
X47809524Y-27024819D01*
X47809524Y-27024819D02*
X47714286Y-26977200D01*
X47714286Y-26977200D02*
X47666667Y-26929580D01*
X16761905Y-24954819D02*
X16761905Y-23954819D01*
X16761905Y-23954819D02*
X17000000Y-23954819D01*
X17000000Y-23954819D02*
X17142857Y-24002438D01*
X17142857Y-24002438D02*
X17238095Y-24097676D01*
X17238095Y-24097676D02*
X17285714Y-24192914D01*
X17285714Y-24192914D02*
X17333333Y-24383390D01*
X17333333Y-24383390D02*
X17333333Y-24526247D01*
X17333333Y-24526247D02*
X17285714Y-24716723D01*
X17285714Y-24716723D02*
X17238095Y-24811961D01*
X17238095Y-24811961D02*
X17142857Y-24907200D01*
X17142857Y-24907200D02*
X17000000Y-24954819D01*
X17000000Y-24954819D02*
X16761905Y-24954819D01*
X17714286Y-24050057D02*
X17761905Y-24002438D01*
X17761905Y-24002438D02*
X17857143Y-23954819D01*
X17857143Y-23954819D02*
X18095238Y-23954819D01*
X18095238Y-23954819D02*
X18190476Y-24002438D01*
X18190476Y-24002438D02*
X18238095Y-24050057D01*
X18238095Y-24050057D02*
X18285714Y-24145295D01*
X18285714Y-24145295D02*
X18285714Y-24240533D01*
X18285714Y-24240533D02*
X18238095Y-24383390D01*
X18238095Y-24383390D02*
X17666667Y-24954819D01*
X17666667Y-24954819D02*
X18285714Y-24954819D01*
D10*
X1620000Y-4980000D02*
X1620000Y-3600000D01*
X3000000Y-4980000D02*
X1620000Y-4980000D01*
X4270000Y-2220000D02*
X12000000Y-2220000D01*
X4270000Y-4980000D02*
X4270000Y-2220000D01*
X4270000Y-4980000D02*
X12000000Y-4980000D01*
X12000000Y-4980000D02*
X12000000Y-2220000D01*
X32120000Y-47880000D02*
X32120000Y-46500000D01*
X33500000Y-47880000D02*
X32120000Y-47880000D01*
X34770000Y-45120000D02*
X39960000Y-45120000D01*
X34770000Y-47880000D02*
X34770000Y-45120000D01*
X34770000Y-47880000D02*
X39960000Y-47880000D01*
X39960000Y-47880000D02*
X39960000Y-45120000D01*
X2620000Y-47880000D02*
X2620000Y-46500000D01*
X4000000Y-47880000D02*
X2620000Y-47880000D01*
X5270000Y-45120000D02*
X13000000Y-45120000D01*
X5270000Y-47880000D02*
X5270000Y-45120000D01*
X5270000Y-47880000D02*
X13000000Y-47880000D01*
X13000000Y-47880000D02*
X13000000Y-45120000D01*
X42262742Y-23977500D02*
X42737258Y-23977500D01*
X42262742Y-25022500D02*
X42737258Y-25022500D01*
X13490000Y-3540000D02*
X37590000Y-3540000D01*
X13490000Y-13360000D02*
X13490000Y-3540000D01*
X37590000Y-2140000D02*
X39400000Y-2140000D01*
X37590000Y-3540000D02*
X37590000Y-2140000D01*
X39400000Y-13360000D02*
X13490000Y-13360000D01*
X39400000Y-13360000D02*
X65310000Y-13360000D01*
X41210000Y-2140000D02*
X39400000Y-2140000D01*
X41210000Y-3540000D02*
X41210000Y-2140000D01*
X62700000Y-13600000D02*
X65550000Y-13600000D01*
X65310000Y-3540000D02*
X41210000Y-3540000D01*
X65310000Y-13360000D02*
X65310000Y-3540000D01*
X65550000Y-13600000D02*
X65550000Y-10750000D01*
X14120000Y-47880000D02*
X14120000Y-46500000D01*
X15500000Y-47880000D02*
X14120000Y-47880000D01*
X16770000Y-45120000D02*
X21960000Y-45120000D01*
X16770000Y-47880000D02*
X16770000Y-45120000D01*
X16770000Y-47880000D02*
X21960000Y-47880000D01*
X21960000Y-47880000D02*
X21960000Y-45120000D01*
X12238748Y-22765000D02*
X12761252Y-22765000D01*
X12238748Y-24235000D02*
X12761252Y-24235000D01*
X22262742Y-22977500D02*
X22737258Y-22977500D01*
X22262742Y-24022500D02*
X22737258Y-24022500D01*
D12*
X63900000Y-15400000D02*
X61400000Y-15400000D01*
D10*
X7330000Y-15970000D02*
X63330000Y-15970000D01*
X63330000Y-18630000D01*
X7330000Y-18630000D01*
X7330000Y-15970000D01*
X7330000Y-38830000D02*
X63330000Y-38830000D01*
X63330000Y-41490000D01*
X7330000Y-41490000D01*
X7330000Y-38830000D01*
X660000Y-16030000D02*
X63400000Y-16030000D01*
X63400000Y-41430000D01*
X660000Y-41430000D01*
X660000Y-16030000D01*
X23120000Y-47880000D02*
X23120000Y-46500000D01*
X24500000Y-47880000D02*
X23120000Y-47880000D01*
X25770000Y-45120000D02*
X30960000Y-45120000D01*
X25770000Y-47880000D02*
X25770000Y-45120000D01*
X25770000Y-47880000D02*
X30960000Y-47880000D01*
X30960000Y-47880000D02*
X30960000Y-45120000D01*
X47262742Y-23977500D02*
X47737258Y-23977500D01*
X47262742Y-25022500D02*
X47737258Y-25022500D01*
X52240000Y-23940000D02*
X53760000Y-23940000D01*
X52240000Y-23990000D02*
X52240000Y-23940000D01*
X52240000Y-25890000D02*
X52240000Y-25110000D01*
X52240000Y-27060000D02*
X52240000Y-27010000D01*
X53760000Y-23940000D02*
X53760000Y-24940000D01*
X53760000Y-26060000D02*
X53760000Y-27060000D01*
X53760000Y-27060000D02*
X52240000Y-27060000D01*
X51700000Y-25120000D02*
X51940000Y-25450000D01*
X51460000Y-25450000D01*
X51700000Y-25120000D01*
G36*
X51940000Y-25450000D02*
G01*
X51460000Y-25450000D01*
X51700000Y-25120000D01*
X51940000Y-25450000D01*
G37*
X52762742Y-29977500D02*
X53237258Y-29977500D01*
X52762742Y-31022500D02*
X53237258Y-31022500D01*
X41620000Y-47880000D02*
X41620000Y-46500000D01*
X43000000Y-47880000D02*
X41620000Y-47880000D01*
X44270000Y-45120000D02*
X62160000Y-45120000D01*
X44270000Y-47880000D02*
X44270000Y-45120000D01*
X44270000Y-47880000D02*
X62160000Y-47880000D01*
X62160000Y-47880000D02*
X62160000Y-45120000D01*
X17359420Y-29490000D02*
X17640580Y-29490000D01*
X17359420Y-30510000D02*
X17640580Y-30510000D01*
X47262742Y-27477500D02*
X47737258Y-27477500D01*
X47262742Y-28522500D02*
X47737258Y-28522500D01*
X15140000Y-25500000D02*
X15140000Y-27500000D01*
X15140000Y-25500000D02*
X19150000Y-25500000D01*
X15140000Y-27500000D02*
X19150000Y-27500000D01*
%LPC*%
D13*
X3000000Y-3600000D03*
D14*
X5540000Y-3600000D03*
X8080000Y-3600000D03*
X10620000Y-3600000D03*
D13*
X33500000Y-46500000D03*
D14*
X36040000Y-46500000D03*
X38580000Y-46500000D03*
D15*
X38000000Y-29000000D03*
D13*
X4000000Y-46500000D03*
D14*
X6540000Y-46500000D03*
X9080000Y-46500000D03*
X11620000Y-46500000D03*
D16*
X41675000Y-24500000D03*
X43325000Y-24500000D03*
D17*
X62500000Y-11000000D03*
D18*
X58300000Y-11000000D03*
X54100000Y-11000000D03*
X49900000Y-11000000D03*
X45700000Y-11000000D03*
X41500000Y-11000000D03*
X37300000Y-11000000D03*
X33100000Y-11000000D03*
X28900000Y-11000000D03*
X24700000Y-11000000D03*
X20500000Y-11000000D03*
X16300000Y-11000000D03*
X62500000Y-5500000D03*
X58300000Y-5500000D03*
X54100000Y-5500000D03*
X49900000Y-5500000D03*
X45700000Y-5500000D03*
X41500000Y-5500000D03*
X37300000Y-5500000D03*
X33100000Y-5500000D03*
X28900000Y-5500000D03*
X24700000Y-5500000D03*
X20500000Y-5500000D03*
X16300000Y-5500000D03*
D13*
X15500000Y-46500000D03*
D14*
X18040000Y-46500000D03*
X20580000Y-46500000D03*
D19*
X11550000Y-23500000D03*
X13450000Y-23500000D03*
D16*
X21675000Y-23500000D03*
X23325000Y-23500000D03*
D13*
X62000000Y-17300000D03*
D20*
X59460000Y-17300000D03*
X56920000Y-17300000D03*
X54380000Y-17300000D03*
X51840000Y-17300000D03*
X49300000Y-17300000D03*
X46760000Y-17300000D03*
X44220000Y-17300000D03*
X41680000Y-17300000D03*
X39140000Y-17300000D03*
X36600000Y-17300000D03*
X34060000Y-17300000D03*
X31520000Y-17300000D03*
X28980000Y-17300000D03*
X26440000Y-17300000D03*
X23900000Y-17300000D03*
X21360000Y-17300000D03*
X18820000Y-17300000D03*
X16280000Y-17300000D03*
X13740000Y-17300000D03*
X11200000Y-17300000D03*
X8660000Y-17300000D03*
X8660000Y-40160000D03*
X11200000Y-40160000D03*
X13740000Y-40160000D03*
X16280000Y-40160000D03*
X18820000Y-40160000D03*
X21360000Y-40160000D03*
X23900000Y-40160000D03*
X26440000Y-40160000D03*
X28980000Y-40160000D03*
X31520000Y-40160000D03*
X34060000Y-40160000D03*
X36600000Y-40160000D03*
X39140000Y-40160000D03*
X41680000Y-40160000D03*
X44220000Y-40160000D03*
X46760000Y-40160000D03*
X49300000Y-40160000D03*
X51840000Y-40160000D03*
X54380000Y-40160000D03*
X56920000Y-40160000D03*
X59460000Y-40160000D03*
X62000000Y-40160000D03*
D13*
X24500000Y-46500000D03*
D14*
X27040000Y-46500000D03*
X29580000Y-46500000D03*
D16*
X46675000Y-24500000D03*
X48325000Y-24500000D03*
D21*
X52062500Y-24550000D03*
X52062500Y-26450000D03*
X53937500Y-25500000D03*
D16*
X52175000Y-30500000D03*
X53825000Y-30500000D03*
D13*
X43000000Y-46500000D03*
D14*
X45540000Y-46500000D03*
X48080000Y-46500000D03*
X50620000Y-46500000D03*
X53160000Y-46500000D03*
X55700000Y-46500000D03*
X58240000Y-46500000D03*
X60780000Y-46500000D03*
D15*
X7000000Y-28500000D03*
D22*
X16725000Y-30000000D03*
X18275000Y-30000000D03*
D16*
X46675000Y-28000000D03*
X48325000Y-28000000D03*
D23*
X15850000Y-26500000D03*
X19150000Y-26500000D03*
%LPD*%
M02*
