G04 #@! TF.GenerationSoftware,KiCad,Pcbnew,10.0.5*
G04 #@! TF.CreationDate,2026-08-26T16:38:23+09:00*
G04 #@! TF.ProjectId,bc250-front-mini,62633235-302d-4667-926f-6e742d6d696e,1.0*
G04 #@! TF.SameCoordinates,Original*
G04 #@! TF.FileFunction,Legend,Bot*
G04 #@! TF.FilePolarity,Positive*
%FSLAX46Y46*%
G04 Gerber Fmt 4.6, Leading zero omitted, Abs format (unit mm)*
G04 Created by KiCad (PCBNEW 10.0.5) date 2026-08-26 16:38:23*
%MOMM*%
%LPD*%
G01*
G04 APERTURE LIST*
G04 Aperture macros list*
%AMRoundRect*
0 Rectangle with rounded corners*
0 $1 Rounding radius*
0 $2 $3 $4 $5 $6 $7 $8 $9 X,Y pos of 4 corners*
0 Add a 4 corners polygon primitive as box body*
4,1,4,$2,$3,$4,$5,$6,$7,$8,$9,$2,$3,0*
0 Add four circle primitives for the rounded corners*
1,1,$1+$1,$2,$3*
1,1,$1+$1,$4,$5*
1,1,$1+$1,$6,$7*
1,1,$1+$1,$8,$9*
0 Add four rect primitives between the rounded corners*
20,1,$1+$1,$2,$3,$4,$5,0*
20,1,$1+$1,$4,$5,$6,$7,0*
20,1,$1+$1,$6,$7,$8,$9,0*
20,1,$1+$1,$8,$9,$2,$3,0*%
G04 Aperture macros list end*
%ADD10C,0.140000*%
%ADD11C,0.150000*%
%ADD12R,1.700000X1.700000*%
%ADD13C,1.700000*%
%ADD14C,3.200000*%
%ADD15RoundRect,0.250001X1.099999X1.399999X-1.099999X1.399999X-1.099999X-1.399999X1.099999X-1.399999X0*%
%ADD16O,2.700000X3.300000*%
%ADD17O,1.700000X1.700000*%
G04 APERTURE END LIST*
D10*
X48471428Y-36323362D02*
X48514285Y-36366220D01*
X48514285Y-36366220D02*
X48642857Y-36409077D01*
X48642857Y-36409077D02*
X48728571Y-36409077D01*
X48728571Y-36409077D02*
X48857142Y-36366220D01*
X48857142Y-36366220D02*
X48942857Y-36280505D01*
X48942857Y-36280505D02*
X48985714Y-36194791D01*
X48985714Y-36194791D02*
X49028571Y-36023362D01*
X49028571Y-36023362D02*
X49028571Y-35894791D01*
X49028571Y-35894791D02*
X48985714Y-35723362D01*
X48985714Y-35723362D02*
X48942857Y-35637648D01*
X48942857Y-35637648D02*
X48857142Y-35551934D01*
X48857142Y-35551934D02*
X48728571Y-35509077D01*
X48728571Y-35509077D02*
X48642857Y-35509077D01*
X48642857Y-35509077D02*
X48514285Y-35551934D01*
X48514285Y-35551934D02*
X48471428Y-35594791D01*
X48085714Y-36409077D02*
X48085714Y-35509077D01*
X48085714Y-35937648D02*
X47571428Y-35937648D01*
X47571428Y-36409077D02*
X47571428Y-35509077D01*
X47142857Y-35937648D02*
X46842857Y-35937648D01*
X46714285Y-36409077D02*
X47142857Y-36409077D01*
X47142857Y-36409077D02*
X47142857Y-35509077D01*
X47142857Y-35509077D02*
X46714285Y-35509077D01*
X45814285Y-36323362D02*
X45857142Y-36366220D01*
X45857142Y-36366220D02*
X45985714Y-36409077D01*
X45985714Y-36409077D02*
X46071428Y-36409077D01*
X46071428Y-36409077D02*
X46199999Y-36366220D01*
X46199999Y-36366220D02*
X46285714Y-36280505D01*
X46285714Y-36280505D02*
X46328571Y-36194791D01*
X46328571Y-36194791D02*
X46371428Y-36023362D01*
X46371428Y-36023362D02*
X46371428Y-35894791D01*
X46371428Y-35894791D02*
X46328571Y-35723362D01*
X46328571Y-35723362D02*
X46285714Y-35637648D01*
X46285714Y-35637648D02*
X46199999Y-35551934D01*
X46199999Y-35551934D02*
X46071428Y-35509077D01*
X46071428Y-35509077D02*
X45985714Y-35509077D01*
X45985714Y-35509077D02*
X45857142Y-35551934D01*
X45857142Y-35551934D02*
X45814285Y-35594791D01*
X45428571Y-36409077D02*
X45428571Y-35509077D01*
X44914285Y-36409077D02*
X45299999Y-35894791D01*
X44914285Y-35509077D02*
X45428571Y-36023362D01*
X43414285Y-35509077D02*
X43842857Y-35509077D01*
X43842857Y-35509077D02*
X43885714Y-35937648D01*
X43885714Y-35937648D02*
X43842857Y-35894791D01*
X43842857Y-35894791D02*
X43757143Y-35851934D01*
X43757143Y-35851934D02*
X43542857Y-35851934D01*
X43542857Y-35851934D02*
X43457143Y-35894791D01*
X43457143Y-35894791D02*
X43414285Y-35937648D01*
X43414285Y-35937648D02*
X43371428Y-36023362D01*
X43371428Y-36023362D02*
X43371428Y-36237648D01*
X43371428Y-36237648D02*
X43414285Y-36323362D01*
X43414285Y-36323362D02*
X43457143Y-36366220D01*
X43457143Y-36366220D02*
X43542857Y-36409077D01*
X43542857Y-36409077D02*
X43757143Y-36409077D01*
X43757143Y-36409077D02*
X43842857Y-36366220D01*
X43842857Y-36366220D02*
X43885714Y-36323362D01*
X43114285Y-35509077D02*
X42814285Y-36409077D01*
X42814285Y-36409077D02*
X42514285Y-35509077D01*
X42257142Y-36366220D02*
X42128571Y-36409077D01*
X42128571Y-36409077D02*
X41914285Y-36409077D01*
X41914285Y-36409077D02*
X41828571Y-36366220D01*
X41828571Y-36366220D02*
X41785713Y-36323362D01*
X41785713Y-36323362D02*
X41742856Y-36237648D01*
X41742856Y-36237648D02*
X41742856Y-36151934D01*
X41742856Y-36151934D02*
X41785713Y-36066220D01*
X41785713Y-36066220D02*
X41828571Y-36023362D01*
X41828571Y-36023362D02*
X41914285Y-35980505D01*
X41914285Y-35980505D02*
X42085713Y-35937648D01*
X42085713Y-35937648D02*
X42171428Y-35894791D01*
X42171428Y-35894791D02*
X42214285Y-35851934D01*
X42214285Y-35851934D02*
X42257142Y-35766220D01*
X42257142Y-35766220D02*
X42257142Y-35680505D01*
X42257142Y-35680505D02*
X42214285Y-35594791D01*
X42214285Y-35594791D02*
X42171428Y-35551934D01*
X42171428Y-35551934D02*
X42085713Y-35509077D01*
X42085713Y-35509077D02*
X41871428Y-35509077D01*
X41871428Y-35509077D02*
X41742856Y-35551934D01*
X41057142Y-35937648D02*
X40928570Y-35980505D01*
X40928570Y-35980505D02*
X40885713Y-36023362D01*
X40885713Y-36023362D02*
X40842856Y-36109077D01*
X40842856Y-36109077D02*
X40842856Y-36237648D01*
X40842856Y-36237648D02*
X40885713Y-36323362D01*
X40885713Y-36323362D02*
X40928570Y-36366220D01*
X40928570Y-36366220D02*
X41014285Y-36409077D01*
X41014285Y-36409077D02*
X41357142Y-36409077D01*
X41357142Y-36409077D02*
X41357142Y-35509077D01*
X41357142Y-35509077D02*
X41057142Y-35509077D01*
X41057142Y-35509077D02*
X40971428Y-35551934D01*
X40971428Y-35551934D02*
X40928570Y-35594791D01*
X40928570Y-35594791D02*
X40885713Y-35680505D01*
X40885713Y-35680505D02*
X40885713Y-35766220D01*
X40885713Y-35766220D02*
X40928570Y-35851934D01*
X40928570Y-35851934D02*
X40971428Y-35894791D01*
X40971428Y-35894791D02*
X41057142Y-35937648D01*
X41057142Y-35937648D02*
X41357142Y-35937648D01*
X40457142Y-35937648D02*
X39771428Y-35937648D01*
X39771428Y-36194791D02*
X40457142Y-36194791D01*
X38914284Y-35509077D02*
X39342856Y-35509077D01*
X39342856Y-35509077D02*
X39385713Y-35937648D01*
X39385713Y-35937648D02*
X39342856Y-35894791D01*
X39342856Y-35894791D02*
X39257142Y-35851934D01*
X39257142Y-35851934D02*
X39042856Y-35851934D01*
X39042856Y-35851934D02*
X38957142Y-35894791D01*
X38957142Y-35894791D02*
X38914284Y-35937648D01*
X38914284Y-35937648D02*
X38871427Y-36023362D01*
X38871427Y-36023362D02*
X38871427Y-36237648D01*
X38871427Y-36237648D02*
X38914284Y-36323362D01*
X38914284Y-36323362D02*
X38957142Y-36366220D01*
X38957142Y-36366220D02*
X39042856Y-36409077D01*
X39042856Y-36409077D02*
X39257142Y-36409077D01*
X39257142Y-36409077D02*
X39342856Y-36366220D01*
X39342856Y-36366220D02*
X39385713Y-36323362D01*
X38614284Y-35509077D02*
X38314284Y-36409077D01*
X38314284Y-36409077D02*
X38014284Y-35509077D01*
X36385713Y-35466220D02*
X37157141Y-36623362D01*
X34928570Y-36409077D02*
X35442856Y-36409077D01*
X35185713Y-36409077D02*
X35185713Y-35509077D01*
X35185713Y-35509077D02*
X35271427Y-35637648D01*
X35271427Y-35637648D02*
X35357142Y-35723362D01*
X35357142Y-35723362D02*
X35442856Y-35766220D01*
X34585713Y-35594791D02*
X34542856Y-35551934D01*
X34542856Y-35551934D02*
X34457142Y-35509077D01*
X34457142Y-35509077D02*
X34242856Y-35509077D01*
X34242856Y-35509077D02*
X34157142Y-35551934D01*
X34157142Y-35551934D02*
X34114284Y-35594791D01*
X34114284Y-35594791D02*
X34071427Y-35680505D01*
X34071427Y-35680505D02*
X34071427Y-35766220D01*
X34071427Y-35766220D02*
X34114284Y-35894791D01*
X34114284Y-35894791D02*
X34628570Y-36409077D01*
X34628570Y-36409077D02*
X34071427Y-36409077D01*
X33814284Y-35509077D02*
X33514284Y-36409077D01*
X33514284Y-36409077D02*
X33214284Y-35509077D01*
X31928570Y-35937648D02*
X31799998Y-35980505D01*
X31799998Y-35980505D02*
X31757141Y-36023362D01*
X31757141Y-36023362D02*
X31714284Y-36109077D01*
X31714284Y-36109077D02*
X31714284Y-36237648D01*
X31714284Y-36237648D02*
X31757141Y-36323362D01*
X31757141Y-36323362D02*
X31799998Y-36366220D01*
X31799998Y-36366220D02*
X31885713Y-36409077D01*
X31885713Y-36409077D02*
X32228570Y-36409077D01*
X32228570Y-36409077D02*
X32228570Y-35509077D01*
X32228570Y-35509077D02*
X31928570Y-35509077D01*
X31928570Y-35509077D02*
X31842856Y-35551934D01*
X31842856Y-35551934D02*
X31799998Y-35594791D01*
X31799998Y-35594791D02*
X31757141Y-35680505D01*
X31757141Y-35680505D02*
X31757141Y-35766220D01*
X31757141Y-35766220D02*
X31799998Y-35851934D01*
X31799998Y-35851934D02*
X31842856Y-35894791D01*
X31842856Y-35894791D02*
X31928570Y-35937648D01*
X31928570Y-35937648D02*
X32228570Y-35937648D01*
X31328570Y-35937648D02*
X31028570Y-35937648D01*
X30899998Y-36409077D02*
X31328570Y-36409077D01*
X31328570Y-36409077D02*
X31328570Y-35509077D01*
X31328570Y-35509077D02*
X30899998Y-35509077D01*
X30214284Y-35937648D02*
X30514284Y-35937648D01*
X30514284Y-36409077D02*
X30514284Y-35509077D01*
X30514284Y-35509077D02*
X30085712Y-35509077D01*
X29571426Y-35509077D02*
X29399998Y-35509077D01*
X29399998Y-35509077D02*
X29314283Y-35551934D01*
X29314283Y-35551934D02*
X29228569Y-35637648D01*
X29228569Y-35637648D02*
X29185712Y-35809077D01*
X29185712Y-35809077D02*
X29185712Y-36109077D01*
X29185712Y-36109077D02*
X29228569Y-36280505D01*
X29228569Y-36280505D02*
X29314283Y-36366220D01*
X29314283Y-36366220D02*
X29399998Y-36409077D01*
X29399998Y-36409077D02*
X29571426Y-36409077D01*
X29571426Y-36409077D02*
X29657141Y-36366220D01*
X29657141Y-36366220D02*
X29742855Y-36280505D01*
X29742855Y-36280505D02*
X29785712Y-36109077D01*
X29785712Y-36109077D02*
X29785712Y-35809077D01*
X29785712Y-35809077D02*
X29742855Y-35637648D01*
X29742855Y-35637648D02*
X29657141Y-35551934D01*
X29657141Y-35551934D02*
X29571426Y-35509077D01*
X28285712Y-36409077D02*
X28585712Y-35980505D01*
X28799998Y-36409077D02*
X28799998Y-35509077D01*
X28799998Y-35509077D02*
X28457141Y-35509077D01*
X28457141Y-35509077D02*
X28371426Y-35551934D01*
X28371426Y-35551934D02*
X28328569Y-35594791D01*
X28328569Y-35594791D02*
X28285712Y-35680505D01*
X28285712Y-35680505D02*
X28285712Y-35809077D01*
X28285712Y-35809077D02*
X28328569Y-35894791D01*
X28328569Y-35894791D02*
X28371426Y-35937648D01*
X28371426Y-35937648D02*
X28457141Y-35980505D01*
X28457141Y-35980505D02*
X28799998Y-35980505D01*
X27899998Y-35937648D02*
X27599998Y-35937648D01*
X27471426Y-36409077D02*
X27899998Y-36409077D01*
X27899998Y-36409077D02*
X27899998Y-35509077D01*
X27899998Y-35509077D02*
X27471426Y-35509077D01*
X26099998Y-35937648D02*
X26399998Y-35937648D01*
X26399998Y-36409077D02*
X26399998Y-35509077D01*
X26399998Y-35509077D02*
X25971426Y-35509077D01*
X25628569Y-36409077D02*
X25628569Y-35509077D01*
X25328569Y-35509077D02*
X24814284Y-35509077D01*
X25071426Y-36409077D02*
X25071426Y-35509077D01*
X24642855Y-35509077D02*
X24128570Y-35509077D01*
X24385712Y-36409077D02*
X24385712Y-35509077D01*
X23828570Y-36409077D02*
X23828570Y-35509077D01*
X23399999Y-36409077D02*
X23399999Y-35509077D01*
X23399999Y-35509077D02*
X22885713Y-36409077D01*
X22885713Y-36409077D02*
X22885713Y-35509077D01*
X21985713Y-35551934D02*
X22071428Y-35509077D01*
X22071428Y-35509077D02*
X22199999Y-35509077D01*
X22199999Y-35509077D02*
X22328570Y-35551934D01*
X22328570Y-35551934D02*
X22414285Y-35637648D01*
X22414285Y-35637648D02*
X22457142Y-35723362D01*
X22457142Y-35723362D02*
X22499999Y-35894791D01*
X22499999Y-35894791D02*
X22499999Y-36023362D01*
X22499999Y-36023362D02*
X22457142Y-36194791D01*
X22457142Y-36194791D02*
X22414285Y-36280505D01*
X22414285Y-36280505D02*
X22328570Y-36366220D01*
X22328570Y-36366220D02*
X22199999Y-36409077D01*
X22199999Y-36409077D02*
X22114285Y-36409077D01*
X22114285Y-36409077D02*
X21985713Y-36366220D01*
X21985713Y-36366220D02*
X21942856Y-36323362D01*
X21942856Y-36323362D02*
X21942856Y-36023362D01*
X21942856Y-36023362D02*
X22114285Y-36023362D01*
X20871428Y-35937648D02*
X20571428Y-35937648D01*
X20442856Y-36409077D02*
X20871428Y-36409077D01*
X20871428Y-36409077D02*
X20871428Y-35509077D01*
X20871428Y-35509077D02*
X20442856Y-35509077D01*
X20099999Y-36366220D02*
X19971428Y-36409077D01*
X19971428Y-36409077D02*
X19757142Y-36409077D01*
X19757142Y-36409077D02*
X19671428Y-36366220D01*
X19671428Y-36366220D02*
X19628570Y-36323362D01*
X19628570Y-36323362D02*
X19585713Y-36237648D01*
X19585713Y-36237648D02*
X19585713Y-36151934D01*
X19585713Y-36151934D02*
X19628570Y-36066220D01*
X19628570Y-36066220D02*
X19671428Y-36023362D01*
X19671428Y-36023362D02*
X19757142Y-35980505D01*
X19757142Y-35980505D02*
X19928570Y-35937648D01*
X19928570Y-35937648D02*
X20014285Y-35894791D01*
X20014285Y-35894791D02*
X20057142Y-35851934D01*
X20057142Y-35851934D02*
X20099999Y-35766220D01*
X20099999Y-35766220D02*
X20099999Y-35680505D01*
X20099999Y-35680505D02*
X20057142Y-35594791D01*
X20057142Y-35594791D02*
X20014285Y-35551934D01*
X20014285Y-35551934D02*
X19928570Y-35509077D01*
X19928570Y-35509077D02*
X19714285Y-35509077D01*
X19714285Y-35509077D02*
X19585713Y-35551934D01*
X19199999Y-36409077D02*
X19199999Y-35509077D01*
X19199999Y-35509077D02*
X18857142Y-35509077D01*
X18857142Y-35509077D02*
X18771427Y-35551934D01*
X18771427Y-35551934D02*
X18728570Y-35594791D01*
X18728570Y-35594791D02*
X18685713Y-35680505D01*
X18685713Y-35680505D02*
X18685713Y-35809077D01*
X18685713Y-35809077D02*
X18728570Y-35894791D01*
X18728570Y-35894791D02*
X18771427Y-35937648D01*
X18771427Y-35937648D02*
X18857142Y-35980505D01*
X18857142Y-35980505D02*
X19199999Y-35980505D01*
X18385713Y-35509077D02*
X17828570Y-35509077D01*
X17828570Y-35509077D02*
X18128570Y-35851934D01*
X18128570Y-35851934D02*
X17999999Y-35851934D01*
X17999999Y-35851934D02*
X17914285Y-35894791D01*
X17914285Y-35894791D02*
X17871427Y-35937648D01*
X17871427Y-35937648D02*
X17828570Y-36023362D01*
X17828570Y-36023362D02*
X17828570Y-36237648D01*
X17828570Y-36237648D02*
X17871427Y-36323362D01*
X17871427Y-36323362D02*
X17914285Y-36366220D01*
X17914285Y-36366220D02*
X17999999Y-36409077D01*
X17999999Y-36409077D02*
X18257142Y-36409077D01*
X18257142Y-36409077D02*
X18342856Y-36366220D01*
X18342856Y-36366220D02*
X18385713Y-36323362D01*
X17485713Y-35594791D02*
X17442856Y-35551934D01*
X17442856Y-35551934D02*
X17357142Y-35509077D01*
X17357142Y-35509077D02*
X17142856Y-35509077D01*
X17142856Y-35509077D02*
X17057142Y-35551934D01*
X17057142Y-35551934D02*
X17014284Y-35594791D01*
X17014284Y-35594791D02*
X16971427Y-35680505D01*
X16971427Y-35680505D02*
X16971427Y-35766220D01*
X16971427Y-35766220D02*
X17014284Y-35894791D01*
X17014284Y-35894791D02*
X17528570Y-36409077D01*
X17528570Y-36409077D02*
X16971427Y-36409077D01*
D11*
X45190477Y-21931009D02*
X45047620Y-21978628D01*
X45047620Y-21978628D02*
X45000001Y-22026247D01*
X45000001Y-22026247D02*
X44952382Y-22121485D01*
X44952382Y-22121485D02*
X44952382Y-22264342D01*
X44952382Y-22264342D02*
X45000001Y-22359580D01*
X45000001Y-22359580D02*
X45047620Y-22407200D01*
X45047620Y-22407200D02*
X45142858Y-22454819D01*
X45142858Y-22454819D02*
X45523810Y-22454819D01*
X45523810Y-22454819D02*
X45523810Y-21454819D01*
X45523810Y-21454819D02*
X45190477Y-21454819D01*
X45190477Y-21454819D02*
X45095239Y-21502438D01*
X45095239Y-21502438D02*
X45047620Y-21550057D01*
X45047620Y-21550057D02*
X45000001Y-21645295D01*
X45000001Y-21645295D02*
X45000001Y-21740533D01*
X45000001Y-21740533D02*
X45047620Y-21835771D01*
X45047620Y-21835771D02*
X45095239Y-21883390D01*
X45095239Y-21883390D02*
X45190477Y-21931009D01*
X45190477Y-21931009D02*
X45523810Y-21931009D01*
X43952382Y-22359580D02*
X44000001Y-22407200D01*
X44000001Y-22407200D02*
X44142858Y-22454819D01*
X44142858Y-22454819D02*
X44238096Y-22454819D01*
X44238096Y-22454819D02*
X44380953Y-22407200D01*
X44380953Y-22407200D02*
X44476191Y-22311961D01*
X44476191Y-22311961D02*
X44523810Y-22216723D01*
X44523810Y-22216723D02*
X44571429Y-22026247D01*
X44571429Y-22026247D02*
X44571429Y-21883390D01*
X44571429Y-21883390D02*
X44523810Y-21692914D01*
X44523810Y-21692914D02*
X44476191Y-21597676D01*
X44476191Y-21597676D02*
X44380953Y-21502438D01*
X44380953Y-21502438D02*
X44238096Y-21454819D01*
X44238096Y-21454819D02*
X44142858Y-21454819D01*
X44142858Y-21454819D02*
X44000001Y-21502438D01*
X44000001Y-21502438D02*
X43952382Y-21550057D01*
X43571429Y-21550057D02*
X43523810Y-21502438D01*
X43523810Y-21502438D02*
X43428572Y-21454819D01*
X43428572Y-21454819D02*
X43190477Y-21454819D01*
X43190477Y-21454819D02*
X43095239Y-21502438D01*
X43095239Y-21502438D02*
X43047620Y-21550057D01*
X43047620Y-21550057D02*
X43000001Y-21645295D01*
X43000001Y-21645295D02*
X43000001Y-21740533D01*
X43000001Y-21740533D02*
X43047620Y-21883390D01*
X43047620Y-21883390D02*
X43619048Y-22454819D01*
X43619048Y-22454819D02*
X43000001Y-22454819D01*
X42095239Y-21454819D02*
X42571429Y-21454819D01*
X42571429Y-21454819D02*
X42619048Y-21931009D01*
X42619048Y-21931009D02*
X42571429Y-21883390D01*
X42571429Y-21883390D02*
X42476191Y-21835771D01*
X42476191Y-21835771D02*
X42238096Y-21835771D01*
X42238096Y-21835771D02*
X42142858Y-21883390D01*
X42142858Y-21883390D02*
X42095239Y-21931009D01*
X42095239Y-21931009D02*
X42047620Y-22026247D01*
X42047620Y-22026247D02*
X42047620Y-22264342D01*
X42047620Y-22264342D02*
X42095239Y-22359580D01*
X42095239Y-22359580D02*
X42142858Y-22407200D01*
X42142858Y-22407200D02*
X42238096Y-22454819D01*
X42238096Y-22454819D02*
X42476191Y-22454819D01*
X42476191Y-22454819D02*
X42571429Y-22407200D01*
X42571429Y-22407200D02*
X42619048Y-22359580D01*
X41428572Y-21454819D02*
X41333334Y-21454819D01*
X41333334Y-21454819D02*
X41238096Y-21502438D01*
X41238096Y-21502438D02*
X41190477Y-21550057D01*
X41190477Y-21550057D02*
X41142858Y-21645295D01*
X41142858Y-21645295D02*
X41095239Y-21835771D01*
X41095239Y-21835771D02*
X41095239Y-22073866D01*
X41095239Y-22073866D02*
X41142858Y-22264342D01*
X41142858Y-22264342D02*
X41190477Y-22359580D01*
X41190477Y-22359580D02*
X41238096Y-22407200D01*
X41238096Y-22407200D02*
X41333334Y-22454819D01*
X41333334Y-22454819D02*
X41428572Y-22454819D01*
X41428572Y-22454819D02*
X41523810Y-22407200D01*
X41523810Y-22407200D02*
X41571429Y-22359580D01*
X41571429Y-22359580D02*
X41619048Y-22264342D01*
X41619048Y-22264342D02*
X41666667Y-22073866D01*
X41666667Y-22073866D02*
X41666667Y-21835771D01*
X41666667Y-21835771D02*
X41619048Y-21645295D01*
X41619048Y-21645295D02*
X41571429Y-21550057D01*
X41571429Y-21550057D02*
X41523810Y-21502438D01*
X41523810Y-21502438D02*
X41428572Y-21454819D01*
X39571429Y-21931009D02*
X39904762Y-21931009D01*
X39904762Y-22454819D02*
X39904762Y-21454819D01*
X39904762Y-21454819D02*
X39428572Y-21454819D01*
X39047619Y-22454819D02*
X39047619Y-21788152D01*
X39047619Y-21978628D02*
X39000000Y-21883390D01*
X39000000Y-21883390D02*
X38952381Y-21835771D01*
X38952381Y-21835771D02*
X38857143Y-21788152D01*
X38857143Y-21788152D02*
X38761905Y-21788152D01*
X38285714Y-22454819D02*
X38380952Y-22407200D01*
X38380952Y-22407200D02*
X38428571Y-22359580D01*
X38428571Y-22359580D02*
X38476190Y-22264342D01*
X38476190Y-22264342D02*
X38476190Y-21978628D01*
X38476190Y-21978628D02*
X38428571Y-21883390D01*
X38428571Y-21883390D02*
X38380952Y-21835771D01*
X38380952Y-21835771D02*
X38285714Y-21788152D01*
X38285714Y-21788152D02*
X38142857Y-21788152D01*
X38142857Y-21788152D02*
X38047619Y-21835771D01*
X38047619Y-21835771D02*
X38000000Y-21883390D01*
X38000000Y-21883390D02*
X37952381Y-21978628D01*
X37952381Y-21978628D02*
X37952381Y-22264342D01*
X37952381Y-22264342D02*
X38000000Y-22359580D01*
X38000000Y-22359580D02*
X38047619Y-22407200D01*
X38047619Y-22407200D02*
X38142857Y-22454819D01*
X38142857Y-22454819D02*
X38285714Y-22454819D01*
X37523809Y-21788152D02*
X37523809Y-22454819D01*
X37523809Y-21883390D02*
X37476190Y-21835771D01*
X37476190Y-21835771D02*
X37380952Y-21788152D01*
X37380952Y-21788152D02*
X37238095Y-21788152D01*
X37238095Y-21788152D02*
X37142857Y-21835771D01*
X37142857Y-21835771D02*
X37095238Y-21931009D01*
X37095238Y-21931009D02*
X37095238Y-22454819D01*
X36761904Y-21788152D02*
X36380952Y-21788152D01*
X36619047Y-21454819D02*
X36619047Y-22311961D01*
X36619047Y-22311961D02*
X36571428Y-22407200D01*
X36571428Y-22407200D02*
X36476190Y-22454819D01*
X36476190Y-22454819D02*
X36380952Y-22454819D01*
X34714285Y-22359580D02*
X34761904Y-22407200D01*
X34761904Y-22407200D02*
X34904761Y-22454819D01*
X34904761Y-22454819D02*
X34999999Y-22454819D01*
X34999999Y-22454819D02*
X35142856Y-22407200D01*
X35142856Y-22407200D02*
X35238094Y-22311961D01*
X35238094Y-22311961D02*
X35285713Y-22216723D01*
X35285713Y-22216723D02*
X35333332Y-22026247D01*
X35333332Y-22026247D02*
X35333332Y-21883390D01*
X35333332Y-21883390D02*
X35285713Y-21692914D01*
X35285713Y-21692914D02*
X35238094Y-21597676D01*
X35238094Y-21597676D02*
X35142856Y-21502438D01*
X35142856Y-21502438D02*
X34999999Y-21454819D01*
X34999999Y-21454819D02*
X34904761Y-21454819D01*
X34904761Y-21454819D02*
X34761904Y-21502438D01*
X34761904Y-21502438D02*
X34714285Y-21550057D01*
X34142856Y-22454819D02*
X34238094Y-22407200D01*
X34238094Y-22407200D02*
X34285713Y-22359580D01*
X34285713Y-22359580D02*
X34333332Y-22264342D01*
X34333332Y-22264342D02*
X34333332Y-21978628D01*
X34333332Y-21978628D02*
X34285713Y-21883390D01*
X34285713Y-21883390D02*
X34238094Y-21835771D01*
X34238094Y-21835771D02*
X34142856Y-21788152D01*
X34142856Y-21788152D02*
X33999999Y-21788152D01*
X33999999Y-21788152D02*
X33904761Y-21835771D01*
X33904761Y-21835771D02*
X33857142Y-21883390D01*
X33857142Y-21883390D02*
X33809523Y-21978628D01*
X33809523Y-21978628D02*
X33809523Y-22264342D01*
X33809523Y-22264342D02*
X33857142Y-22359580D01*
X33857142Y-22359580D02*
X33904761Y-22407200D01*
X33904761Y-22407200D02*
X33999999Y-22454819D01*
X33999999Y-22454819D02*
X34142856Y-22454819D01*
X33380951Y-21788152D02*
X33380951Y-22454819D01*
X33380951Y-21883390D02*
X33333332Y-21835771D01*
X33333332Y-21835771D02*
X33238094Y-21788152D01*
X33238094Y-21788152D02*
X33095237Y-21788152D01*
X33095237Y-21788152D02*
X32999999Y-21835771D01*
X32999999Y-21835771D02*
X32952380Y-21931009D01*
X32952380Y-21931009D02*
X32952380Y-22454819D01*
X32619046Y-21788152D02*
X32238094Y-21788152D01*
X32476189Y-21454819D02*
X32476189Y-22311961D01*
X32476189Y-22311961D02*
X32428570Y-22407200D01*
X32428570Y-22407200D02*
X32333332Y-22454819D01*
X32333332Y-22454819D02*
X32238094Y-22454819D01*
X31904760Y-22454819D02*
X31904760Y-21788152D01*
X31904760Y-21978628D02*
X31857141Y-21883390D01*
X31857141Y-21883390D02*
X31809522Y-21835771D01*
X31809522Y-21835771D02*
X31714284Y-21788152D01*
X31714284Y-21788152D02*
X31619046Y-21788152D01*
X31142855Y-22454819D02*
X31238093Y-22407200D01*
X31238093Y-22407200D02*
X31285712Y-22359580D01*
X31285712Y-22359580D02*
X31333331Y-22264342D01*
X31333331Y-22264342D02*
X31333331Y-21978628D01*
X31333331Y-21978628D02*
X31285712Y-21883390D01*
X31285712Y-21883390D02*
X31238093Y-21835771D01*
X31238093Y-21835771D02*
X31142855Y-21788152D01*
X31142855Y-21788152D02*
X30999998Y-21788152D01*
X30999998Y-21788152D02*
X30904760Y-21835771D01*
X30904760Y-21835771D02*
X30857141Y-21883390D01*
X30857141Y-21883390D02*
X30809522Y-21978628D01*
X30809522Y-21978628D02*
X30809522Y-22264342D01*
X30809522Y-22264342D02*
X30857141Y-22359580D01*
X30857141Y-22359580D02*
X30904760Y-22407200D01*
X30904760Y-22407200D02*
X30999998Y-22454819D01*
X30999998Y-22454819D02*
X31142855Y-22454819D01*
X30238093Y-22454819D02*
X30333331Y-22407200D01*
X30333331Y-22407200D02*
X30380950Y-22311961D01*
X30380950Y-22311961D02*
X30380950Y-21454819D01*
X29714283Y-22454819D02*
X29809521Y-22407200D01*
X29809521Y-22407200D02*
X29857140Y-22311961D01*
X29857140Y-22311961D02*
X29857140Y-21454819D01*
X28952378Y-22407200D02*
X29047616Y-22454819D01*
X29047616Y-22454819D02*
X29238092Y-22454819D01*
X29238092Y-22454819D02*
X29333330Y-22407200D01*
X29333330Y-22407200D02*
X29380949Y-22311961D01*
X29380949Y-22311961D02*
X29380949Y-21931009D01*
X29380949Y-21931009D02*
X29333330Y-21835771D01*
X29333330Y-21835771D02*
X29238092Y-21788152D01*
X29238092Y-21788152D02*
X29047616Y-21788152D01*
X29047616Y-21788152D02*
X28952378Y-21835771D01*
X28952378Y-21835771D02*
X28904759Y-21931009D01*
X28904759Y-21931009D02*
X28904759Y-22026247D01*
X28904759Y-22026247D02*
X29380949Y-22121485D01*
X28476187Y-22454819D02*
X28476187Y-21788152D01*
X28476187Y-21978628D02*
X28428568Y-21883390D01*
X28428568Y-21883390D02*
X28380949Y-21835771D01*
X28380949Y-21835771D02*
X28285711Y-21788152D01*
X28285711Y-21788152D02*
X28190473Y-21788152D01*
X27095234Y-22454819D02*
X27095234Y-21788152D01*
X27095234Y-21883390D02*
X27047615Y-21835771D01*
X27047615Y-21835771D02*
X26952377Y-21788152D01*
X26952377Y-21788152D02*
X26809520Y-21788152D01*
X26809520Y-21788152D02*
X26714282Y-21835771D01*
X26714282Y-21835771D02*
X26666663Y-21931009D01*
X26666663Y-21931009D02*
X26666663Y-22454819D01*
X26666663Y-21931009D02*
X26619044Y-21835771D01*
X26619044Y-21835771D02*
X26523806Y-21788152D01*
X26523806Y-21788152D02*
X26380949Y-21788152D01*
X26380949Y-21788152D02*
X26285710Y-21835771D01*
X26285710Y-21835771D02*
X26238091Y-21931009D01*
X26238091Y-21931009D02*
X26238091Y-22454819D01*
X25761901Y-22454819D02*
X25761901Y-21788152D01*
X25761901Y-21454819D02*
X25809520Y-21502438D01*
X25809520Y-21502438D02*
X25761901Y-21550057D01*
X25761901Y-21550057D02*
X25714282Y-21502438D01*
X25714282Y-21502438D02*
X25761901Y-21454819D01*
X25761901Y-21454819D02*
X25761901Y-21550057D01*
X25285711Y-21788152D02*
X25285711Y-22454819D01*
X25285711Y-21883390D02*
X25238092Y-21835771D01*
X25238092Y-21835771D02*
X25142854Y-21788152D01*
X25142854Y-21788152D02*
X24999997Y-21788152D01*
X24999997Y-21788152D02*
X24904759Y-21835771D01*
X24904759Y-21835771D02*
X24857140Y-21931009D01*
X24857140Y-21931009D02*
X24857140Y-22454819D01*
X24380949Y-22454819D02*
X24380949Y-21788152D01*
X24380949Y-21454819D02*
X24428568Y-21502438D01*
X24428568Y-21502438D02*
X24380949Y-21550057D01*
X24380949Y-21550057D02*
X24333330Y-21502438D01*
X24333330Y-21502438D02*
X24380949Y-21454819D01*
X24380949Y-21454819D02*
X24380949Y-21550057D01*
X23238092Y-21788152D02*
X22999997Y-22454819D01*
X22999997Y-22454819D02*
X22761902Y-21788152D01*
X21857140Y-22454819D02*
X22428568Y-22454819D01*
X22142854Y-22454819D02*
X22142854Y-21454819D01*
X22142854Y-21454819D02*
X22238092Y-21597676D01*
X22238092Y-21597676D02*
X22333330Y-21692914D01*
X22333330Y-21692914D02*
X22428568Y-21740533D01*
X21428568Y-22359580D02*
X21380949Y-22407200D01*
X21380949Y-22407200D02*
X21428568Y-22454819D01*
X21428568Y-22454819D02*
X21476187Y-22407200D01*
X21476187Y-22407200D02*
X21428568Y-22359580D01*
X21428568Y-22359580D02*
X21428568Y-22454819D01*
X20761902Y-21454819D02*
X20666664Y-21454819D01*
X20666664Y-21454819D02*
X20571426Y-21502438D01*
X20571426Y-21502438D02*
X20523807Y-21550057D01*
X20523807Y-21550057D02*
X20476188Y-21645295D01*
X20476188Y-21645295D02*
X20428569Y-21835771D01*
X20428569Y-21835771D02*
X20428569Y-22073866D01*
X20428569Y-22073866D02*
X20476188Y-22264342D01*
X20476188Y-22264342D02*
X20523807Y-22359580D01*
X20523807Y-22359580D02*
X20571426Y-22407200D01*
X20571426Y-22407200D02*
X20666664Y-22454819D01*
X20666664Y-22454819D02*
X20761902Y-22454819D01*
X20761902Y-22454819D02*
X20857140Y-22407200D01*
X20857140Y-22407200D02*
X20904759Y-22359580D01*
X20904759Y-22359580D02*
X20952378Y-22264342D01*
X20952378Y-22264342D02*
X20999997Y-22073866D01*
X20999997Y-22073866D02*
X20999997Y-21835771D01*
X20999997Y-21835771D02*
X20952378Y-21645295D01*
X20952378Y-21645295D02*
X20904759Y-21550057D01*
X20904759Y-21550057D02*
X20857140Y-21502438D01*
X20857140Y-21502438D02*
X20761902Y-21454819D01*
X50476192Y-33288152D02*
X50476192Y-34097676D01*
X50476192Y-34097676D02*
X50523811Y-34192914D01*
X50523811Y-34192914D02*
X50571430Y-34240533D01*
X50571430Y-34240533D02*
X50666668Y-34288152D01*
X50666668Y-34288152D02*
X50809525Y-34288152D01*
X50809525Y-34288152D02*
X50904763Y-34240533D01*
X50476192Y-33907200D02*
X50571430Y-33954819D01*
X50571430Y-33954819D02*
X50761906Y-33954819D01*
X50761906Y-33954819D02*
X50857144Y-33907200D01*
X50857144Y-33907200D02*
X50904763Y-33859580D01*
X50904763Y-33859580D02*
X50952382Y-33764342D01*
X50952382Y-33764342D02*
X50952382Y-33478628D01*
X50952382Y-33478628D02*
X50904763Y-33383390D01*
X50904763Y-33383390D02*
X50857144Y-33335771D01*
X50857144Y-33335771D02*
X50761906Y-33288152D01*
X50761906Y-33288152D02*
X50571430Y-33288152D01*
X50571430Y-33288152D02*
X50476192Y-33335771D01*
X50000001Y-33954819D02*
X50000001Y-33288152D01*
X50000001Y-32954819D02*
X50047620Y-33002438D01*
X50047620Y-33002438D02*
X50000001Y-33050057D01*
X50000001Y-33050057D02*
X49952382Y-33002438D01*
X49952382Y-33002438D02*
X50000001Y-32954819D01*
X50000001Y-32954819D02*
X50000001Y-33050057D01*
X49666668Y-33288152D02*
X49285716Y-33288152D01*
X49523811Y-32954819D02*
X49523811Y-33811961D01*
X49523811Y-33811961D02*
X49476192Y-33907200D01*
X49476192Y-33907200D02*
X49380954Y-33954819D01*
X49380954Y-33954819D02*
X49285716Y-33954819D01*
X48952382Y-33954819D02*
X48952382Y-32954819D01*
X48523811Y-33954819D02*
X48523811Y-33431009D01*
X48523811Y-33431009D02*
X48571430Y-33335771D01*
X48571430Y-33335771D02*
X48666668Y-33288152D01*
X48666668Y-33288152D02*
X48809525Y-33288152D01*
X48809525Y-33288152D02*
X48904763Y-33335771D01*
X48904763Y-33335771D02*
X48952382Y-33383390D01*
X47619049Y-33288152D02*
X47619049Y-33954819D01*
X48047620Y-33288152D02*
X48047620Y-33811961D01*
X48047620Y-33811961D02*
X48000001Y-33907200D01*
X48000001Y-33907200D02*
X47904763Y-33954819D01*
X47904763Y-33954819D02*
X47761906Y-33954819D01*
X47761906Y-33954819D02*
X47666668Y-33907200D01*
X47666668Y-33907200D02*
X47619049Y-33859580D01*
X47142858Y-33954819D02*
X47142858Y-32954819D01*
X47142858Y-33335771D02*
X47047620Y-33288152D01*
X47047620Y-33288152D02*
X46857144Y-33288152D01*
X46857144Y-33288152D02*
X46761906Y-33335771D01*
X46761906Y-33335771D02*
X46714287Y-33383390D01*
X46714287Y-33383390D02*
X46666668Y-33478628D01*
X46666668Y-33478628D02*
X46666668Y-33764342D01*
X46666668Y-33764342D02*
X46714287Y-33859580D01*
X46714287Y-33859580D02*
X46761906Y-33907200D01*
X46761906Y-33907200D02*
X46857144Y-33954819D01*
X46857144Y-33954819D02*
X47047620Y-33954819D01*
X47047620Y-33954819D02*
X47142858Y-33907200D01*
X46238096Y-33859580D02*
X46190477Y-33907200D01*
X46190477Y-33907200D02*
X46238096Y-33954819D01*
X46238096Y-33954819D02*
X46285715Y-33907200D01*
X46285715Y-33907200D02*
X46238096Y-33859580D01*
X46238096Y-33859580D02*
X46238096Y-33954819D01*
X45333335Y-33907200D02*
X45428573Y-33954819D01*
X45428573Y-33954819D02*
X45619049Y-33954819D01*
X45619049Y-33954819D02*
X45714287Y-33907200D01*
X45714287Y-33907200D02*
X45761906Y-33859580D01*
X45761906Y-33859580D02*
X45809525Y-33764342D01*
X45809525Y-33764342D02*
X45809525Y-33478628D01*
X45809525Y-33478628D02*
X45761906Y-33383390D01*
X45761906Y-33383390D02*
X45714287Y-33335771D01*
X45714287Y-33335771D02*
X45619049Y-33288152D01*
X45619049Y-33288152D02*
X45428573Y-33288152D01*
X45428573Y-33288152D02*
X45333335Y-33335771D01*
X44761906Y-33954819D02*
X44857144Y-33907200D01*
X44857144Y-33907200D02*
X44904763Y-33859580D01*
X44904763Y-33859580D02*
X44952382Y-33764342D01*
X44952382Y-33764342D02*
X44952382Y-33478628D01*
X44952382Y-33478628D02*
X44904763Y-33383390D01*
X44904763Y-33383390D02*
X44857144Y-33335771D01*
X44857144Y-33335771D02*
X44761906Y-33288152D01*
X44761906Y-33288152D02*
X44619049Y-33288152D01*
X44619049Y-33288152D02*
X44523811Y-33335771D01*
X44523811Y-33335771D02*
X44476192Y-33383390D01*
X44476192Y-33383390D02*
X44428573Y-33478628D01*
X44428573Y-33478628D02*
X44428573Y-33764342D01*
X44428573Y-33764342D02*
X44476192Y-33859580D01*
X44476192Y-33859580D02*
X44523811Y-33907200D01*
X44523811Y-33907200D02*
X44619049Y-33954819D01*
X44619049Y-33954819D02*
X44761906Y-33954819D01*
X44000001Y-33954819D02*
X44000001Y-33288152D01*
X44000001Y-33383390D02*
X43952382Y-33335771D01*
X43952382Y-33335771D02*
X43857144Y-33288152D01*
X43857144Y-33288152D02*
X43714287Y-33288152D01*
X43714287Y-33288152D02*
X43619049Y-33335771D01*
X43619049Y-33335771D02*
X43571430Y-33431009D01*
X43571430Y-33431009D02*
X43571430Y-33954819D01*
X43571430Y-33431009D02*
X43523811Y-33335771D01*
X43523811Y-33335771D02*
X43428573Y-33288152D01*
X43428573Y-33288152D02*
X43285716Y-33288152D01*
X43285716Y-33288152D02*
X43190477Y-33335771D01*
X43190477Y-33335771D02*
X43142858Y-33431009D01*
X43142858Y-33431009D02*
X43142858Y-33954819D01*
X41952383Y-32907200D02*
X42809525Y-34192914D01*
X41142859Y-33954819D02*
X41619049Y-33954819D01*
X41619049Y-33954819D02*
X41619049Y-32954819D01*
X40428573Y-33907200D02*
X40523811Y-33954819D01*
X40523811Y-33954819D02*
X40714287Y-33954819D01*
X40714287Y-33954819D02*
X40809525Y-33907200D01*
X40809525Y-33907200D02*
X40857144Y-33811961D01*
X40857144Y-33811961D02*
X40857144Y-33431009D01*
X40857144Y-33431009D02*
X40809525Y-33335771D01*
X40809525Y-33335771D02*
X40714287Y-33288152D01*
X40714287Y-33288152D02*
X40523811Y-33288152D01*
X40523811Y-33288152D02*
X40428573Y-33335771D01*
X40428573Y-33335771D02*
X40380954Y-33431009D01*
X40380954Y-33431009D02*
X40380954Y-33526247D01*
X40380954Y-33526247D02*
X40857144Y-33621485D01*
X39571430Y-33907200D02*
X39666668Y-33954819D01*
X39666668Y-33954819D02*
X39857144Y-33954819D01*
X39857144Y-33954819D02*
X39952382Y-33907200D01*
X39952382Y-33907200D02*
X40000001Y-33811961D01*
X40000001Y-33811961D02*
X40000001Y-33431009D01*
X40000001Y-33431009D02*
X39952382Y-33335771D01*
X39952382Y-33335771D02*
X39857144Y-33288152D01*
X39857144Y-33288152D02*
X39666668Y-33288152D01*
X39666668Y-33288152D02*
X39571430Y-33335771D01*
X39571430Y-33335771D02*
X39523811Y-33431009D01*
X39523811Y-33431009D02*
X39523811Y-33526247D01*
X39523811Y-33526247D02*
X40000001Y-33621485D01*
X39095239Y-33954819D02*
X39095239Y-32954819D01*
X39095239Y-33431009D02*
X38523811Y-33431009D01*
X38523811Y-33954819D02*
X38523811Y-32954819D01*
X37619049Y-33288152D02*
X37619049Y-33954819D01*
X38047620Y-33288152D02*
X38047620Y-33811961D01*
X38047620Y-33811961D02*
X38000001Y-33907200D01*
X38000001Y-33907200D02*
X37904763Y-33954819D01*
X37904763Y-33954819D02*
X37761906Y-33954819D01*
X37761906Y-33954819D02*
X37666668Y-33907200D01*
X37666668Y-33907200D02*
X37619049Y-33859580D01*
X36761906Y-33907200D02*
X36857144Y-33954819D01*
X36857144Y-33954819D02*
X37047620Y-33954819D01*
X37047620Y-33954819D02*
X37142858Y-33907200D01*
X37142858Y-33907200D02*
X37190477Y-33811961D01*
X37190477Y-33811961D02*
X37190477Y-33431009D01*
X37190477Y-33431009D02*
X37142858Y-33335771D01*
X37142858Y-33335771D02*
X37047620Y-33288152D01*
X37047620Y-33288152D02*
X36857144Y-33288152D01*
X36857144Y-33288152D02*
X36761906Y-33335771D01*
X36761906Y-33335771D02*
X36714287Y-33431009D01*
X36714287Y-33431009D02*
X36714287Y-33526247D01*
X36714287Y-33526247D02*
X37190477Y-33621485D01*
X35904763Y-33907200D02*
X36000001Y-33954819D01*
X36000001Y-33954819D02*
X36190477Y-33954819D01*
X36190477Y-33954819D02*
X36285715Y-33907200D01*
X36285715Y-33907200D02*
X36333334Y-33811961D01*
X36333334Y-33811961D02*
X36333334Y-33431009D01*
X36333334Y-33431009D02*
X36285715Y-33335771D01*
X36285715Y-33335771D02*
X36190477Y-33288152D01*
X36190477Y-33288152D02*
X36000001Y-33288152D01*
X36000001Y-33288152D02*
X35904763Y-33335771D01*
X35904763Y-33335771D02*
X35857144Y-33431009D01*
X35857144Y-33431009D02*
X35857144Y-33526247D01*
X35857144Y-33526247D02*
X36333334Y-33621485D01*
X35428572Y-33288152D02*
X35428572Y-33954819D01*
X35428572Y-33383390D02*
X35380953Y-33335771D01*
X35380953Y-33335771D02*
X35285715Y-33288152D01*
X35285715Y-33288152D02*
X35142858Y-33288152D01*
X35142858Y-33288152D02*
X35047620Y-33335771D01*
X35047620Y-33335771D02*
X35000001Y-33431009D01*
X35000001Y-33431009D02*
X35000001Y-33954819D01*
X34095239Y-33288152D02*
X34095239Y-34097676D01*
X34095239Y-34097676D02*
X34142858Y-34192914D01*
X34142858Y-34192914D02*
X34190477Y-34240533D01*
X34190477Y-34240533D02*
X34285715Y-34288152D01*
X34285715Y-34288152D02*
X34428572Y-34288152D01*
X34428572Y-34288152D02*
X34523810Y-34240533D01*
X34095239Y-33907200D02*
X34190477Y-33954819D01*
X34190477Y-33954819D02*
X34380953Y-33954819D01*
X34380953Y-33954819D02*
X34476191Y-33907200D01*
X34476191Y-33907200D02*
X34523810Y-33859580D01*
X34523810Y-33859580D02*
X34571429Y-33764342D01*
X34571429Y-33764342D02*
X34571429Y-33478628D01*
X34571429Y-33478628D02*
X34523810Y-33383390D01*
X34523810Y-33383390D02*
X34476191Y-33335771D01*
X34476191Y-33335771D02*
X34380953Y-33288152D01*
X34380953Y-33288152D02*
X34190477Y-33288152D01*
X34190477Y-33288152D02*
X34095239Y-33335771D01*
X32904763Y-32907200D02*
X33761905Y-34192914D01*
X32571429Y-33954819D02*
X32571429Y-32954819D01*
X32571429Y-33335771D02*
X32476191Y-33288152D01*
X32476191Y-33288152D02*
X32285715Y-33288152D01*
X32285715Y-33288152D02*
X32190477Y-33335771D01*
X32190477Y-33335771D02*
X32142858Y-33383390D01*
X32142858Y-33383390D02*
X32095239Y-33478628D01*
X32095239Y-33478628D02*
X32095239Y-33764342D01*
X32095239Y-33764342D02*
X32142858Y-33859580D01*
X32142858Y-33859580D02*
X32190477Y-33907200D01*
X32190477Y-33907200D02*
X32285715Y-33954819D01*
X32285715Y-33954819D02*
X32476191Y-33954819D01*
X32476191Y-33954819D02*
X32571429Y-33907200D01*
X31238096Y-33907200D02*
X31333334Y-33954819D01*
X31333334Y-33954819D02*
X31523810Y-33954819D01*
X31523810Y-33954819D02*
X31619048Y-33907200D01*
X31619048Y-33907200D02*
X31666667Y-33859580D01*
X31666667Y-33859580D02*
X31714286Y-33764342D01*
X31714286Y-33764342D02*
X31714286Y-33478628D01*
X31714286Y-33478628D02*
X31666667Y-33383390D01*
X31666667Y-33383390D02*
X31619048Y-33335771D01*
X31619048Y-33335771D02*
X31523810Y-33288152D01*
X31523810Y-33288152D02*
X31333334Y-33288152D01*
X31333334Y-33288152D02*
X31238096Y-33335771D01*
X30857143Y-33050057D02*
X30809524Y-33002438D01*
X30809524Y-33002438D02*
X30714286Y-32954819D01*
X30714286Y-32954819D02*
X30476191Y-32954819D01*
X30476191Y-32954819D02*
X30380953Y-33002438D01*
X30380953Y-33002438D02*
X30333334Y-33050057D01*
X30333334Y-33050057D02*
X30285715Y-33145295D01*
X30285715Y-33145295D02*
X30285715Y-33240533D01*
X30285715Y-33240533D02*
X30333334Y-33383390D01*
X30333334Y-33383390D02*
X30904762Y-33954819D01*
X30904762Y-33954819D02*
X30285715Y-33954819D01*
X29380953Y-32954819D02*
X29857143Y-32954819D01*
X29857143Y-32954819D02*
X29904762Y-33431009D01*
X29904762Y-33431009D02*
X29857143Y-33383390D01*
X29857143Y-33383390D02*
X29761905Y-33335771D01*
X29761905Y-33335771D02*
X29523810Y-33335771D01*
X29523810Y-33335771D02*
X29428572Y-33383390D01*
X29428572Y-33383390D02*
X29380953Y-33431009D01*
X29380953Y-33431009D02*
X29333334Y-33526247D01*
X29333334Y-33526247D02*
X29333334Y-33764342D01*
X29333334Y-33764342D02*
X29380953Y-33859580D01*
X29380953Y-33859580D02*
X29428572Y-33907200D01*
X29428572Y-33907200D02*
X29523810Y-33954819D01*
X29523810Y-33954819D02*
X29761905Y-33954819D01*
X29761905Y-33954819D02*
X29857143Y-33907200D01*
X29857143Y-33907200D02*
X29904762Y-33859580D01*
X28714286Y-32954819D02*
X28619048Y-32954819D01*
X28619048Y-32954819D02*
X28523810Y-33002438D01*
X28523810Y-33002438D02*
X28476191Y-33050057D01*
X28476191Y-33050057D02*
X28428572Y-33145295D01*
X28428572Y-33145295D02*
X28380953Y-33335771D01*
X28380953Y-33335771D02*
X28380953Y-33573866D01*
X28380953Y-33573866D02*
X28428572Y-33764342D01*
X28428572Y-33764342D02*
X28476191Y-33859580D01*
X28476191Y-33859580D02*
X28523810Y-33907200D01*
X28523810Y-33907200D02*
X28619048Y-33954819D01*
X28619048Y-33954819D02*
X28714286Y-33954819D01*
X28714286Y-33954819D02*
X28809524Y-33907200D01*
X28809524Y-33907200D02*
X28857143Y-33859580D01*
X28857143Y-33859580D02*
X28904762Y-33764342D01*
X28904762Y-33764342D02*
X28952381Y-33573866D01*
X28952381Y-33573866D02*
X28952381Y-33335771D01*
X28952381Y-33335771D02*
X28904762Y-33145295D01*
X28904762Y-33145295D02*
X28857143Y-33050057D01*
X28857143Y-33050057D02*
X28809524Y-33002438D01*
X28809524Y-33002438D02*
X28714286Y-32954819D01*
X27952381Y-33573866D02*
X27190477Y-33573866D01*
X26857143Y-33288152D02*
X26476191Y-33288152D01*
X26714286Y-33954819D02*
X26714286Y-33097676D01*
X26714286Y-33097676D02*
X26666667Y-33002438D01*
X26666667Y-33002438D02*
X26571429Y-32954819D01*
X26571429Y-32954819D02*
X26476191Y-32954819D01*
X26142857Y-33954819D02*
X26142857Y-33288152D01*
X26142857Y-33478628D02*
X26095238Y-33383390D01*
X26095238Y-33383390D02*
X26047619Y-33335771D01*
X26047619Y-33335771D02*
X25952381Y-33288152D01*
X25952381Y-33288152D02*
X25857143Y-33288152D01*
X25380952Y-33954819D02*
X25476190Y-33907200D01*
X25476190Y-33907200D02*
X25523809Y-33859580D01*
X25523809Y-33859580D02*
X25571428Y-33764342D01*
X25571428Y-33764342D02*
X25571428Y-33478628D01*
X25571428Y-33478628D02*
X25523809Y-33383390D01*
X25523809Y-33383390D02*
X25476190Y-33335771D01*
X25476190Y-33335771D02*
X25380952Y-33288152D01*
X25380952Y-33288152D02*
X25238095Y-33288152D01*
X25238095Y-33288152D02*
X25142857Y-33335771D01*
X25142857Y-33335771D02*
X25095238Y-33383390D01*
X25095238Y-33383390D02*
X25047619Y-33478628D01*
X25047619Y-33478628D02*
X25047619Y-33764342D01*
X25047619Y-33764342D02*
X25095238Y-33859580D01*
X25095238Y-33859580D02*
X25142857Y-33907200D01*
X25142857Y-33907200D02*
X25238095Y-33954819D01*
X25238095Y-33954819D02*
X25380952Y-33954819D01*
X24619047Y-33288152D02*
X24619047Y-33954819D01*
X24619047Y-33383390D02*
X24571428Y-33335771D01*
X24571428Y-33335771D02*
X24476190Y-33288152D01*
X24476190Y-33288152D02*
X24333333Y-33288152D01*
X24333333Y-33288152D02*
X24238095Y-33335771D01*
X24238095Y-33335771D02*
X24190476Y-33431009D01*
X24190476Y-33431009D02*
X24190476Y-33954819D01*
X23857142Y-33288152D02*
X23476190Y-33288152D01*
X23714285Y-32954819D02*
X23714285Y-33811961D01*
X23714285Y-33811961D02*
X23666666Y-33907200D01*
X23666666Y-33907200D02*
X23571428Y-33954819D01*
X23571428Y-33954819D02*
X23476190Y-33954819D01*
X23142856Y-33573866D02*
X22380952Y-33573866D01*
X21476190Y-33907200D02*
X21571428Y-33954819D01*
X21571428Y-33954819D02*
X21761904Y-33954819D01*
X21761904Y-33954819D02*
X21857142Y-33907200D01*
X21857142Y-33907200D02*
X21904761Y-33859580D01*
X21904761Y-33859580D02*
X21952380Y-33764342D01*
X21952380Y-33764342D02*
X21952380Y-33478628D01*
X21952380Y-33478628D02*
X21904761Y-33383390D01*
X21904761Y-33383390D02*
X21857142Y-33335771D01*
X21857142Y-33335771D02*
X21761904Y-33288152D01*
X21761904Y-33288152D02*
X21571428Y-33288152D01*
X21571428Y-33288152D02*
X21476190Y-33335771D01*
X20904761Y-33954819D02*
X20999999Y-33907200D01*
X20999999Y-33907200D02*
X21047618Y-33859580D01*
X21047618Y-33859580D02*
X21095237Y-33764342D01*
X21095237Y-33764342D02*
X21095237Y-33478628D01*
X21095237Y-33478628D02*
X21047618Y-33383390D01*
X21047618Y-33383390D02*
X20999999Y-33335771D01*
X20999999Y-33335771D02*
X20904761Y-33288152D01*
X20904761Y-33288152D02*
X20761904Y-33288152D01*
X20761904Y-33288152D02*
X20666666Y-33335771D01*
X20666666Y-33335771D02*
X20619047Y-33383390D01*
X20619047Y-33383390D02*
X20571428Y-33478628D01*
X20571428Y-33478628D02*
X20571428Y-33764342D01*
X20571428Y-33764342D02*
X20619047Y-33859580D01*
X20619047Y-33859580D02*
X20666666Y-33907200D01*
X20666666Y-33907200D02*
X20761904Y-33954819D01*
X20761904Y-33954819D02*
X20904761Y-33954819D01*
X20142856Y-33288152D02*
X20142856Y-33954819D01*
X20142856Y-33383390D02*
X20095237Y-33335771D01*
X20095237Y-33335771D02*
X19999999Y-33288152D01*
X19999999Y-33288152D02*
X19857142Y-33288152D01*
X19857142Y-33288152D02*
X19761904Y-33335771D01*
X19761904Y-33335771D02*
X19714285Y-33431009D01*
X19714285Y-33431009D02*
X19714285Y-33954819D01*
X19380951Y-33288152D02*
X18999999Y-33288152D01*
X19238094Y-32954819D02*
X19238094Y-33811961D01*
X19238094Y-33811961D02*
X19190475Y-33907200D01*
X19190475Y-33907200D02*
X19095237Y-33954819D01*
X19095237Y-33954819D02*
X18999999Y-33954819D01*
X18666665Y-33954819D02*
X18666665Y-33288152D01*
X18666665Y-33478628D02*
X18619046Y-33383390D01*
X18619046Y-33383390D02*
X18571427Y-33335771D01*
X18571427Y-33335771D02*
X18476189Y-33288152D01*
X18476189Y-33288152D02*
X18380951Y-33288152D01*
X17904760Y-33954819D02*
X17999998Y-33907200D01*
X17999998Y-33907200D02*
X18047617Y-33859580D01*
X18047617Y-33859580D02*
X18095236Y-33764342D01*
X18095236Y-33764342D02*
X18095236Y-33478628D01*
X18095236Y-33478628D02*
X18047617Y-33383390D01*
X18047617Y-33383390D02*
X17999998Y-33335771D01*
X17999998Y-33335771D02*
X17904760Y-33288152D01*
X17904760Y-33288152D02*
X17761903Y-33288152D01*
X17761903Y-33288152D02*
X17666665Y-33335771D01*
X17666665Y-33335771D02*
X17619046Y-33383390D01*
X17619046Y-33383390D02*
X17571427Y-33478628D01*
X17571427Y-33478628D02*
X17571427Y-33764342D01*
X17571427Y-33764342D02*
X17619046Y-33859580D01*
X17619046Y-33859580D02*
X17666665Y-33907200D01*
X17666665Y-33907200D02*
X17761903Y-33954819D01*
X17761903Y-33954819D02*
X17904760Y-33954819D01*
X16999998Y-33954819D02*
X17095236Y-33907200D01*
X17095236Y-33907200D02*
X17142855Y-33811961D01*
X17142855Y-33811961D02*
X17142855Y-32954819D01*
X16476188Y-33954819D02*
X16571426Y-33907200D01*
X16571426Y-33907200D02*
X16619045Y-33811961D01*
X16619045Y-33811961D02*
X16619045Y-32954819D01*
X15714283Y-33907200D02*
X15809521Y-33954819D01*
X15809521Y-33954819D02*
X15999997Y-33954819D01*
X15999997Y-33954819D02*
X16095235Y-33907200D01*
X16095235Y-33907200D02*
X16142854Y-33811961D01*
X16142854Y-33811961D02*
X16142854Y-33431009D01*
X16142854Y-33431009D02*
X16095235Y-33335771D01*
X16095235Y-33335771D02*
X15999997Y-33288152D01*
X15999997Y-33288152D02*
X15809521Y-33288152D01*
X15809521Y-33288152D02*
X15714283Y-33335771D01*
X15714283Y-33335771D02*
X15666664Y-33431009D01*
X15666664Y-33431009D02*
X15666664Y-33526247D01*
X15666664Y-33526247D02*
X16142854Y-33621485D01*
X15238092Y-33954819D02*
X15238092Y-33288152D01*
X15238092Y-33478628D02*
X15190473Y-33383390D01*
X15190473Y-33383390D02*
X15142854Y-33335771D01*
X15142854Y-33335771D02*
X15047616Y-33288152D01*
X15047616Y-33288152D02*
X14952378Y-33288152D01*
%LPC*%
D12*
X3000000Y-3600000D03*
D13*
X5540000Y-3600000D03*
X8080000Y-3600000D03*
X10620000Y-3600000D03*
D12*
X33500000Y-46500000D03*
D13*
X36040000Y-46500000D03*
X38580000Y-46500000D03*
D14*
X38000000Y-29000000D03*
D12*
X4000000Y-46500000D03*
D13*
X6540000Y-46500000D03*
X9080000Y-46500000D03*
X11620000Y-46500000D03*
D15*
X62500000Y-11000000D03*
D16*
X58300000Y-11000000D03*
X54100000Y-11000000D03*
X49900000Y-11000000D03*
X45700000Y-11000000D03*
X41500000Y-11000000D03*
X37300000Y-11000000D03*
X33100000Y-11000000D03*
X28900000Y-11000000D03*
X24700000Y-11000000D03*
X20500000Y-11000000D03*
X16300000Y-11000000D03*
X62500000Y-5500000D03*
X58300000Y-5500000D03*
X54100000Y-5500000D03*
X49900000Y-5500000D03*
X45700000Y-5500000D03*
X41500000Y-5500000D03*
X37300000Y-5500000D03*
X33100000Y-5500000D03*
X28900000Y-5500000D03*
X24700000Y-5500000D03*
X20500000Y-5500000D03*
X16300000Y-5500000D03*
D12*
X15500000Y-46500000D03*
D13*
X18040000Y-46500000D03*
X20580000Y-46500000D03*
D12*
X62000000Y-17300000D03*
D17*
X59460000Y-17300000D03*
X56920000Y-17300000D03*
X54380000Y-17300000D03*
X51840000Y-17300000D03*
X49300000Y-17300000D03*
X46760000Y-17300000D03*
X44220000Y-17300000D03*
X41680000Y-17300000D03*
X39140000Y-17300000D03*
X36600000Y-17300000D03*
X34060000Y-17300000D03*
X31520000Y-17300000D03*
X28980000Y-17300000D03*
X26440000Y-17300000D03*
X23900000Y-17300000D03*
X21360000Y-17300000D03*
X18820000Y-17300000D03*
X16280000Y-17300000D03*
X13740000Y-17300000D03*
X11200000Y-17300000D03*
X8660000Y-17300000D03*
X8660000Y-40160000D03*
X11200000Y-40160000D03*
X13740000Y-40160000D03*
X16280000Y-40160000D03*
X18820000Y-40160000D03*
X21360000Y-40160000D03*
X23900000Y-40160000D03*
X26440000Y-40160000D03*
X28980000Y-40160000D03*
X31520000Y-40160000D03*
X34060000Y-40160000D03*
X36600000Y-40160000D03*
X39140000Y-40160000D03*
X41680000Y-40160000D03*
X44220000Y-40160000D03*
X46760000Y-40160000D03*
X49300000Y-40160000D03*
X51840000Y-40160000D03*
X54380000Y-40160000D03*
X56920000Y-40160000D03*
X59460000Y-40160000D03*
X62000000Y-40160000D03*
D12*
X24500000Y-46500000D03*
D13*
X27040000Y-46500000D03*
X29580000Y-46500000D03*
D12*
X43000000Y-46500000D03*
D13*
X45540000Y-46500000D03*
X48080000Y-46500000D03*
X50620000Y-46500000D03*
X53160000Y-46500000D03*
X55700000Y-46500000D03*
X58240000Y-46500000D03*
X60780000Y-46500000D03*
D14*
X7000000Y-28500000D03*
%LPD*%
M02*
