G04 #@! TF.GenerationSoftware,KiCad,Pcbnew,10.0.5*
G04 #@! TF.CreationDate,2026-08-25T12:49:40+09:00*
G04 #@! TF.ProjectId,bc250-front-carrier,62633235-302d-4667-926f-6e742d636172,1.0*
G04 #@! TF.SameCoordinates,Original*
G04 #@! TF.FileFunction,Copper,L2,Bot*
G04 #@! TF.FilePolarity,Positive*
%FSLAX46Y46*%
G04 Gerber Fmt 4.6, Leading zero omitted, Abs format (unit mm)*
G04 Created by KiCad (PCBNEW 10.0.5) date 2026-08-25 12:49:40*
%MOMM*%
%LPD*%
G01*
G04 APERTURE LIST*
G04 Aperture macros list*
%AMRoundRect*
0 Rectangle with rounded corners*
0 $1 Rounding radius*
0 $2 $3 $4 $5 $6 $7 $8 $9 X,Y pos of 4 corners*
0 Add a 4 corners polygon primitive as box body*
4,1,4,$2,$3,$4,$5,$6,$7,$8,$9,$2,$3,0*
0 Add four circle primitives for the rounded corners*
1,1,$1+$1,$2,$3*
1,1,$1+$1,$4,$5*
1,1,$1+$1,$6,$7*
1,1,$1+$1,$8,$9*
0 Add four rect primitives between the rounded corners*
20,1,$1+$1,$2,$3,$4,$5,0*
20,1,$1+$1,$4,$5,$6,$7,0*
20,1,$1+$1,$6,$7,$8,$9,0*
20,1,$1+$1,$8,$9,$2,$3,0*%
G04 Aperture macros list end*
G04 #@! TA.AperFunction,ComponentPad*
%ADD10R,1.700000X1.700000*%
G04 #@! TD*
G04 #@! TA.AperFunction,ComponentPad*
%ADD11O,1.700000X1.700000*%
G04 #@! TD*
G04 #@! TA.AperFunction,ComponentPad*
%ADD12C,1.700000*%
G04 #@! TD*
G04 #@! TA.AperFunction,ComponentPad*
%ADD13RoundRect,0.250000X-0.550000X-0.550000X0.550000X-0.550000X0.550000X0.550000X-0.550000X0.550000X0*%
G04 #@! TD*
G04 #@! TA.AperFunction,ComponentPad*
%ADD14C,1.600000*%
G04 #@! TD*
G04 #@! TA.AperFunction,ComponentPad*
%ADD15C,2.000000*%
G04 #@! TD*
G04 #@! TA.AperFunction,ComponentPad*
%ADD16R,1.050000X1.500000*%
G04 #@! TD*
G04 #@! TA.AperFunction,ComponentPad*
%ADD17O,1.050000X1.500000*%
G04 #@! TD*
G04 #@! TA.AperFunction,ComponentPad*
%ADD18C,3.000000*%
G04 #@! TD*
G04 #@! TA.AperFunction,ComponentPad*
%ADD19C,2.500000*%
G04 #@! TD*
G04 #@! TA.AperFunction,ComponentPad*
%ADD20RoundRect,0.250001X1.099999X1.399999X-1.099999X1.399999X-1.099999X-1.399999X1.099999X-1.399999X0*%
G04 #@! TD*
G04 #@! TA.AperFunction,ComponentPad*
%ADD21O,2.700000X3.300000*%
G04 #@! TD*
G04 #@! TA.AperFunction,ViaPad*
%ADD22C,0.800000*%
G04 #@! TD*
G04 #@! TA.AperFunction,ViaPad*
%ADD23C,0.900000*%
G04 #@! TD*
G04 #@! TA.AperFunction,Conductor*
%ADD24C,0.300000*%
G04 #@! TD*
G04 #@! TA.AperFunction,Conductor*
%ADD25C,0.700000*%
G04 #@! TD*
G04 APERTURE END LIST*
D10*
X62000000Y-18000000D03*
D11*
X59460000Y-18000000D03*
X56920000Y-18000000D03*
X54380000Y-18000000D03*
X51840000Y-18000000D03*
X49300000Y-18000000D03*
X46760000Y-18000000D03*
X44220000Y-18000000D03*
X41680000Y-18000000D03*
X39140000Y-18000000D03*
X36600000Y-18000000D03*
X34060000Y-18000000D03*
X31520000Y-18000000D03*
X28980000Y-18000000D03*
X26440000Y-18000000D03*
X23900000Y-18000000D03*
X21360000Y-18000000D03*
X18820000Y-18000000D03*
X16280000Y-18000000D03*
X13740000Y-18000000D03*
X11200000Y-18000000D03*
X8660000Y-18000000D03*
X8660000Y-40860000D03*
X11200000Y-40860000D03*
X13740000Y-40860000D03*
X16280000Y-40860000D03*
X18820000Y-40860000D03*
X21360000Y-40860000D03*
X23900000Y-40860000D03*
X26440000Y-40860000D03*
X28980000Y-40860000D03*
X31520000Y-40860000D03*
X34060000Y-40860000D03*
X36600000Y-40860000D03*
X39140000Y-40860000D03*
X41680000Y-40860000D03*
X44220000Y-40860000D03*
X46760000Y-40860000D03*
X49300000Y-40860000D03*
X51840000Y-40860000D03*
X54380000Y-40860000D03*
X56920000Y-40860000D03*
X59460000Y-40860000D03*
X62000000Y-40860000D03*
D10*
X82000000Y-54000000D03*
D12*
X84540000Y-54000000D03*
X87080000Y-54000000D03*
X89620000Y-54000000D03*
D13*
X76500000Y-21000000D03*
D14*
X84120000Y-21000000D03*
D15*
X25000000Y-49500000D03*
X31500000Y-49500000D03*
X25000000Y-54000000D03*
X31500000Y-54000000D03*
D10*
X64000000Y-54000000D03*
D12*
X66540000Y-54000000D03*
X69080000Y-54000000D03*
D16*
X69000000Y-20400000D03*
D17*
X70270000Y-20400000D03*
X71540000Y-20400000D03*
D10*
X55000000Y-54000000D03*
D12*
X57540000Y-54000000D03*
X60080000Y-54000000D03*
D14*
X66000000Y-25500000D03*
X73620000Y-25500000D03*
D15*
X35000000Y-49500000D03*
X41500000Y-49500000D03*
X35000000Y-54000000D03*
X41500000Y-54000000D03*
D14*
X66000000Y-35500000D03*
X73620000Y-35500000D03*
D13*
X79000000Y-27000000D03*
D14*
X81000000Y-27000000D03*
D18*
X66000000Y-9500000D03*
D19*
X67950000Y-15550000D03*
D18*
X80150000Y-15550000D03*
X80200000Y-3500000D03*
D19*
X67950000Y-3550000D03*
D20*
X57500000Y-11500000D03*
D21*
X53300000Y-11500000D03*
X49100000Y-11500000D03*
X44900000Y-11500000D03*
X40700000Y-11500000D03*
X36500000Y-11500000D03*
X32300000Y-11500000D03*
X28100000Y-11500000D03*
X23900000Y-11500000D03*
X19700000Y-11500000D03*
X15500000Y-11500000D03*
X11300000Y-11500000D03*
X57500000Y-6000000D03*
X53300000Y-6000000D03*
X49100000Y-6000000D03*
X44900000Y-6000000D03*
X40700000Y-6000000D03*
X36500000Y-6000000D03*
X32300000Y-6000000D03*
X28100000Y-6000000D03*
X23900000Y-6000000D03*
X19700000Y-6000000D03*
X15500000Y-6000000D03*
X11300000Y-6000000D03*
D14*
X66000000Y-30500000D03*
X73620000Y-30500000D03*
D10*
X73000000Y-54000000D03*
D12*
X75540000Y-54000000D03*
X78080000Y-54000000D03*
D14*
X66000000Y-40500000D03*
X73620000Y-40500000D03*
X66000000Y-45500000D03*
X73620000Y-45500000D03*
D10*
X92000000Y-19500000D03*
D12*
X92000000Y-22040000D03*
X92000000Y-24580000D03*
X92000000Y-27120000D03*
X92000000Y-29660000D03*
X92000000Y-32200000D03*
X92000000Y-34740000D03*
X92000000Y-37280000D03*
D15*
X45000000Y-49500000D03*
X51500000Y-49500000D03*
X45000000Y-54000000D03*
X51500000Y-54000000D03*
D10*
X9000000Y-54000000D03*
D12*
X11540000Y-54000000D03*
X14080000Y-54000000D03*
X16620000Y-54000000D03*
X19160000Y-54000000D03*
X21700000Y-54000000D03*
D10*
X92000000Y-41000000D03*
D12*
X92000000Y-43540000D03*
X92000000Y-46080000D03*
X92000000Y-48620000D03*
D14*
X78000000Y-34000000D03*
X80500000Y-34000000D03*
D22*
X61083400Y-45500000D03*
D23*
X87245600Y-22210600D03*
D24*
X73540000Y-49540000D02*
X73620000Y-49540000D01*
X92000000Y-43540000D02*
X93256100Y-42283900D01*
X92314800Y-39331400D02*
X90743900Y-37760500D01*
X90743900Y-23296100D02*
X92000000Y-22040000D01*
X93256100Y-42283900D02*
X93256100Y-40056300D01*
X69080000Y-54000000D02*
X73540000Y-49540000D01*
X73620000Y-49540000D02*
X78080000Y-54000000D01*
X73620000Y-49540000D02*
X73620000Y-45500000D01*
X92531200Y-39331400D02*
X92314800Y-39331400D01*
X90743900Y-37760500D02*
X90743900Y-23296100D01*
X93256100Y-40056300D02*
X92531200Y-39331400D01*
X55581700Y-18373500D02*
X55581700Y-18000000D01*
X62708200Y-25500000D02*
X55581700Y-18373500D01*
X66000000Y-25500000D02*
X62708200Y-25500000D01*
X54380000Y-18000000D02*
X55581700Y-18000000D01*
X69569200Y-36930800D02*
X51840000Y-19201700D01*
X69569200Y-36930800D02*
X71000000Y-35500000D01*
X71000000Y-35500000D02*
X73620000Y-35500000D01*
X66000000Y-40500000D02*
X69569200Y-36930800D01*
X51840000Y-18000000D02*
X51840000Y-19201700D01*
X47269100Y-16795300D02*
X46205800Y-16795300D01*
X48098300Y-18000000D02*
X48098300Y-17624500D01*
X45490100Y-17511000D02*
X45490100Y-31646200D01*
X48098300Y-17624500D02*
X47269100Y-16795300D01*
X37870000Y-39266300D02*
X37870000Y-43130000D01*
X46205800Y-16795300D02*
X45490100Y-17511000D01*
X45490100Y-31646200D02*
X37870000Y-39266300D01*
X49300000Y-18000000D02*
X48098300Y-18000000D01*
X37870000Y-43130000D02*
X31500000Y-49500000D01*
X60729900Y-45146500D02*
X61083400Y-45500000D01*
X66540000Y-46040000D02*
X66000000Y-45500000D01*
X66540000Y-54000000D02*
X66540000Y-46040000D01*
X60729900Y-33171600D02*
X60729900Y-45146500D01*
X46760000Y-18000000D02*
X46760000Y-19201700D01*
X46760000Y-19201700D02*
X60729900Y-33171600D01*
X93757800Y-46862200D02*
X93757800Y-28877800D01*
X92000000Y-48620000D02*
X93757800Y-46862200D01*
X93757800Y-28877800D02*
X92000000Y-27120000D01*
X90754500Y-49135200D02*
X90754500Y-47325500D01*
X94259500Y-48093900D02*
X92528700Y-49824700D01*
X92528700Y-49824700D02*
X91444000Y-49824700D01*
X94259500Y-26839500D02*
X94259500Y-48093900D01*
X91444000Y-49824700D02*
X90754500Y-49135200D01*
X90754500Y-47325500D02*
X92000000Y-46080000D01*
X92000000Y-24580000D02*
X94259500Y-26839500D01*
X12520300Y-52440300D02*
X12520300Y-21119700D01*
X16745400Y-16753600D02*
X17618300Y-17626500D01*
X12520300Y-21119700D02*
X15010000Y-18630000D01*
X15821300Y-16753600D02*
X16745400Y-16753600D01*
X15010000Y-17564900D02*
X15821300Y-16753600D01*
X18820000Y-18000000D02*
X17618300Y-18000000D01*
X17618300Y-17626500D02*
X17618300Y-18000000D01*
X14080000Y-54000000D02*
X12520300Y-52440300D01*
X15010000Y-18630000D02*
X15010000Y-17564900D01*
X16280000Y-18000000D02*
X16280000Y-19201700D01*
X15350000Y-43459700D02*
X15010000Y-43119700D01*
X15350000Y-54452500D02*
X15350000Y-43459700D01*
X17909800Y-55250200D02*
X16147700Y-55250200D01*
X15010000Y-43119700D02*
X15010000Y-20471700D01*
X15010000Y-20471700D02*
X16280000Y-19201700D01*
X16147700Y-55250200D02*
X15350000Y-54452500D01*
X19160000Y-54000000D02*
X17909800Y-55250200D01*
D25*
X71000000Y-38000000D02*
X74000000Y-38000000D01*
X78000000Y-28000000D02*
X79000000Y-27000000D01*
X55000000Y-54000000D02*
X71000000Y-38000000D01*
X76500000Y-21000000D02*
X71050000Y-15550000D01*
X79000000Y-27000000D02*
X79000000Y-23500000D01*
X78000000Y-34000000D02*
X78000000Y-28000000D01*
X74000000Y-38000000D02*
X78000000Y-34000000D01*
X79000000Y-23500000D02*
X76500000Y-21000000D01*
X71050000Y-15550000D02*
X67950000Y-15550000D01*
X8660000Y-40860000D02*
X8660000Y-18000000D01*
X73620000Y-40500000D02*
X80120000Y-34000000D01*
X11300000Y-6000000D02*
X9398300Y-6000000D01*
X9398300Y-15860000D02*
X8660000Y-16598300D01*
X21700000Y-54000000D02*
X20247800Y-52547800D01*
X52901700Y-55401700D02*
X51500000Y-54000000D01*
X40700000Y-8750000D02*
X40700000Y-11500000D01*
X20247800Y-52547800D02*
X18072200Y-52547800D01*
X74401700Y-55401700D02*
X79196600Y-55401700D01*
X70179900Y-55418400D02*
X65418400Y-55418400D01*
X81000000Y-27000000D02*
X81000000Y-33500000D01*
X58678300Y-55401700D02*
X52901700Y-55401700D01*
X90598300Y-13898300D02*
X90598300Y-19500000D01*
X8660000Y-18000000D02*
X8660000Y-16598300D01*
X65418400Y-55418400D02*
X64000000Y-54000000D01*
X9398300Y-6000000D02*
X9398300Y-15860000D01*
X71598300Y-54000000D02*
X70179900Y-55418400D01*
X40700000Y-8750000D02*
X49100000Y-8750000D01*
X79196600Y-55401700D02*
X80598300Y-54000000D01*
X80120000Y-34000000D02*
X80500000Y-34000000D01*
X80200000Y-3500000D02*
X90598300Y-13898300D01*
X81000000Y-33500000D02*
X80500000Y-34000000D01*
X32300000Y-11500000D02*
X32300000Y-6000000D01*
X11540000Y-54000000D02*
X11200000Y-53660000D01*
X40700000Y-6000000D02*
X40700000Y-8750000D01*
X11200000Y-53660000D02*
X11200000Y-40860000D01*
X49100000Y-6000000D02*
X49100000Y-8750000D01*
X60080000Y-54000000D02*
X58678300Y-55401700D01*
X73620000Y-40500000D02*
X80598300Y-47478300D01*
X88500000Y-19500000D02*
X81000000Y-27000000D01*
X73000000Y-54000000D02*
X74401700Y-55401700D01*
X80598300Y-47478300D02*
X80598300Y-54000000D01*
X90598300Y-19500000D02*
X88500000Y-19500000D01*
X73000000Y-54000000D02*
X71598300Y-54000000D01*
X73620000Y-30500000D02*
X69000000Y-25880000D01*
X18072200Y-52547800D02*
X16620000Y-54000000D01*
X82000000Y-54000000D02*
X80598300Y-54000000D01*
X92000000Y-19500000D02*
X90598300Y-19500000D01*
X69000000Y-25880000D02*
X69000000Y-20400000D01*
X49100000Y-8750000D02*
X49100000Y-11500000D01*
X87245600Y-51294400D02*
X87245600Y-22210600D01*
X84540000Y-54000000D02*
X87245600Y-51294400D01*
X67950000Y-6338000D02*
X82612000Y-21000000D01*
X67950000Y-3550000D02*
X67950000Y-6338000D01*
X82612000Y-21000000D02*
X84120000Y-21000000D01*
D24*
X68265300Y-19298300D02*
X70270000Y-19298300D01*
X73620000Y-25500000D02*
X70270000Y-22150000D01*
X70270000Y-22150000D02*
X70270000Y-20400000D01*
X67151700Y-29348300D02*
X67151700Y-20411900D01*
X67151700Y-20411900D02*
X68265300Y-19298300D01*
X66000000Y-30500000D02*
X67151700Y-29348300D01*
X70270000Y-20400000D02*
X70270000Y-19298300D01*
X29801700Y-11712700D02*
X29801700Y-11500000D01*
X28100000Y-11500000D02*
X29801700Y-11500000D01*
X66000000Y-35500000D02*
X50638300Y-20138300D01*
X48251100Y-15221900D02*
X33310900Y-15221900D01*
X50638300Y-17609100D02*
X48251100Y-15221900D01*
X33310900Y-15221900D02*
X29801700Y-11712700D01*
X50638300Y-20138300D02*
X50638300Y-17609100D01*
G04 #@! TA.AperFunction,Conductor*
G36*
X10734075Y-40667007D02*
G01*
X10700000Y-40794174D01*
X10700000Y-40925826D01*
X10734075Y-41052993D01*
X10766988Y-41110000D01*
X9093012Y-41110000D01*
X9125925Y-41052993D01*
X9160000Y-40925826D01*
X9160000Y-40794174D01*
X9125925Y-40667007D01*
X9093012Y-40610000D01*
X10766988Y-40610000D01*
X10734075Y-40667007D01*
G37*
G04 #@! TD.AperFunction*
G04 #@! TA.AperFunction,Conductor*
G36*
X94030288Y-509439D02*
G01*
X94164833Y-565169D01*
X94177355Y-571198D01*
X94343443Y-662992D01*
X94430124Y-710899D01*
X94441898Y-718297D01*
X94677439Y-885422D01*
X94688307Y-894090D01*
X94903641Y-1086526D01*
X94913473Y-1096358D01*
X95105909Y-1311692D01*
X95114580Y-1322564D01*
X95281702Y-1558101D01*
X95289100Y-1569875D01*
X95428797Y-1822637D01*
X95434830Y-1835165D01*
X95490561Y-1969710D01*
X95500000Y-2017163D01*
X95500000Y-61982835D01*
X95490561Y-62030288D01*
X95434830Y-62164834D01*
X95428797Y-62177362D01*
X95289100Y-62430124D01*
X95281702Y-62441898D01*
X95114580Y-62677435D01*
X95105909Y-62688307D01*
X94913473Y-62903641D01*
X94903641Y-62913473D01*
X94688307Y-63105909D01*
X94677435Y-63114580D01*
X94441898Y-63281702D01*
X94430124Y-63289100D01*
X94177362Y-63428797D01*
X94164834Y-63434830D01*
X94030289Y-63490561D01*
X93982836Y-63500000D01*
X2017164Y-63500000D01*
X1969711Y-63490561D01*
X1835165Y-63434830D01*
X1822637Y-63428797D01*
X1569875Y-63289100D01*
X1558101Y-63281702D01*
X1322564Y-63114580D01*
X1311692Y-63105909D01*
X1096358Y-62913473D01*
X1086526Y-62903641D01*
X894090Y-62688307D01*
X885419Y-62677435D01*
X718297Y-62441898D01*
X710899Y-62430124D01*
X571202Y-62177362D01*
X565169Y-62164834D01*
X509439Y-62030288D01*
X509439Y-62030287D01*
X500000Y-61982835D01*
X500000Y-59378711D01*
X2649500Y-59378711D01*
X2649500Y-59621288D01*
X2681161Y-59861785D01*
X2743947Y-60096104D01*
X2836773Y-60320205D01*
X2836776Y-60320212D01*
X2958064Y-60530289D01*
X2958066Y-60530292D01*
X2958067Y-60530293D01*
X3105733Y-60722736D01*
X3105739Y-60722743D01*
X3277256Y-60894260D01*
X3277262Y-60894265D01*
X3469711Y-61041936D01*
X3679788Y-61163224D01*
X3903900Y-61256054D01*
X4138211Y-61318838D01*
X4318586Y-61342584D01*
X4378711Y-61350500D01*
X4378712Y-61350500D01*
X4621289Y-61350500D01*
X4669388Y-61344167D01*
X4861789Y-61318838D01*
X5096100Y-61256054D01*
X5320212Y-61163224D01*
X5530289Y-61041936D01*
X5722738Y-60894265D01*
X5894265Y-60722738D01*
X6041936Y-60530289D01*
X6163224Y-60320212D01*
X6256054Y-60096100D01*
X6318838Y-59861789D01*
X6350500Y-59621288D01*
X6350500Y-59378712D01*
X6350500Y-59378711D01*
X89649500Y-59378711D01*
X89649500Y-59621288D01*
X89681161Y-59861785D01*
X89743947Y-60096104D01*
X89836773Y-60320205D01*
X89836776Y-60320212D01*
X89958064Y-60530289D01*
X89958066Y-60530292D01*
X89958067Y-60530293D01*
X90105733Y-60722736D01*
X90105739Y-60722743D01*
X90277256Y-60894260D01*
X90277262Y-60894265D01*
X90469711Y-61041936D01*
X90679788Y-61163224D01*
X90903900Y-61256054D01*
X91138211Y-61318838D01*
X91318586Y-61342584D01*
X91378711Y-61350500D01*
X91378712Y-61350500D01*
X91621289Y-61350500D01*
X91669388Y-61344167D01*
X91861789Y-61318838D01*
X92096100Y-61256054D01*
X92320212Y-61163224D01*
X92530289Y-61041936D01*
X92722738Y-60894265D01*
X92894265Y-60722738D01*
X93041936Y-60530289D01*
X93163224Y-60320212D01*
X93256054Y-60096100D01*
X93318838Y-59861789D01*
X93350500Y-59621288D01*
X93350500Y-59378712D01*
X93318838Y-59138211D01*
X93256054Y-58903900D01*
X93163224Y-58679788D01*
X93041936Y-58469711D01*
X92894265Y-58277262D01*
X92894260Y-58277256D01*
X92722743Y-58105739D01*
X92722736Y-58105733D01*
X92530293Y-57958067D01*
X92530292Y-57958066D01*
X92530289Y-57958064D01*
X92320212Y-57836776D01*
X92320205Y-57836773D01*
X92096104Y-57743947D01*
X91861785Y-57681161D01*
X91621289Y-57649500D01*
X91621288Y-57649500D01*
X91378712Y-57649500D01*
X91378711Y-57649500D01*
X91138214Y-57681161D01*
X90903895Y-57743947D01*
X90679794Y-57836773D01*
X90679785Y-57836777D01*
X90469706Y-57958067D01*
X90277263Y-58105733D01*
X90277256Y-58105739D01*
X90105739Y-58277256D01*
X90105733Y-58277263D01*
X89958067Y-58469706D01*
X89836777Y-58679785D01*
X89836773Y-58679794D01*
X89743947Y-58903895D01*
X89681161Y-59138214D01*
X89649500Y-59378711D01*
X6350500Y-59378711D01*
X6318838Y-59138211D01*
X6256054Y-58903900D01*
X6163224Y-58679788D01*
X6041936Y-58469711D01*
X5894265Y-58277262D01*
X5894260Y-58277256D01*
X5722743Y-58105739D01*
X5722736Y-58105733D01*
X5530293Y-57958067D01*
X5530292Y-57958066D01*
X5530289Y-57958064D01*
X5320212Y-57836776D01*
X5320205Y-57836773D01*
X5096104Y-57743947D01*
X4861785Y-57681161D01*
X4621289Y-57649500D01*
X4621288Y-57649500D01*
X4378712Y-57649500D01*
X4378711Y-57649500D01*
X4138214Y-57681161D01*
X3903895Y-57743947D01*
X3679794Y-57836773D01*
X3679785Y-57836777D01*
X3469706Y-57958067D01*
X3277263Y-58105733D01*
X3277256Y-58105739D01*
X3105739Y-58277256D01*
X3105733Y-58277263D01*
X2958067Y-58469706D01*
X2836777Y-58679785D01*
X2836773Y-58679794D01*
X2743947Y-58903895D01*
X2681161Y-59138214D01*
X2649500Y-59378711D01*
X500000Y-59378711D01*
X500000Y-17750000D01*
X7332769Y-17750000D01*
X8226988Y-17750000D01*
X8194075Y-17807007D01*
X8160000Y-17934174D01*
X8160000Y-18065826D01*
X8194075Y-18192993D01*
X8226988Y-18250000D01*
X7332769Y-18250000D01*
X7343242Y-18316126D01*
X7343242Y-18316129D01*
X7408904Y-18518217D01*
X7505379Y-18707557D01*
X7630272Y-18879459D01*
X7630276Y-18879464D01*
X7780535Y-19029723D01*
X7780540Y-19029727D01*
X7952442Y-19154620D01*
X8141782Y-19251095D01*
X8343871Y-19316757D01*
X8410000Y-19327231D01*
X8410000Y-18433012D01*
X8467007Y-18465925D01*
X8594174Y-18500000D01*
X8725826Y-18500000D01*
X8852993Y-18465925D01*
X8910000Y-18433012D01*
X8910000Y-19327230D01*
X8976126Y-19316757D01*
X8976129Y-19316757D01*
X9178217Y-19251095D01*
X9367557Y-19154620D01*
X9539459Y-19029727D01*
X9539464Y-19029723D01*
X9689723Y-18879464D01*
X9689727Y-18879459D01*
X9814620Y-18707557D01*
X9911095Y-18518217D01*
X9920492Y-18489295D01*
X9959928Y-18431618D01*
X10024286Y-18404419D01*
X10093133Y-18416331D01*
X10144610Y-18463574D01*
X10148908Y-18471314D01*
X10216004Y-18602995D01*
X10322441Y-18749494D01*
X10322445Y-18749499D01*
X10450500Y-18877554D01*
X10450505Y-18877558D01*
X10509085Y-18920118D01*
X10597006Y-18983996D01*
X10686750Y-19029723D01*
X10758360Y-19066211D01*
X10758363Y-19066212D01*
X10844476Y-19094191D01*
X10930591Y-19122171D01*
X11013429Y-19135291D01*
X11109449Y-19150500D01*
X11109454Y-19150500D01*
X11290551Y-19150500D01*
X11377259Y-19136765D01*
X11469409Y-19122171D01*
X11641639Y-19066211D01*
X11802994Y-18983996D01*
X11949501Y-18877553D01*
X12077553Y-18749501D01*
X12183996Y-18602994D01*
X12266211Y-18441639D01*
X12322171Y-18269409D01*
X12336422Y-18179425D01*
X12347527Y-18109321D01*
X12377456Y-18046186D01*
X12436768Y-18009255D01*
X12506630Y-18010253D01*
X12564863Y-18048863D01*
X12592473Y-18109321D01*
X12617829Y-18269410D01*
X12673787Y-18441636D01*
X12673788Y-18441639D01*
X12725242Y-18542620D01*
X12755585Y-18602172D01*
X12756006Y-18602997D01*
X12862441Y-18749494D01*
X12862445Y-18749499D01*
X12990500Y-18877554D01*
X12990505Y-18877558D01*
X13049085Y-18920118D01*
X13137006Y-18983996D01*
X13226750Y-19029723D01*
X13298360Y-19066211D01*
X13298363Y-19066212D01*
X13384476Y-19094191D01*
X13470591Y-19122171D01*
X13535950Y-19132522D01*
X13584280Y-19140178D01*
X13647415Y-19170107D01*
X13684346Y-19229419D01*
X13683348Y-19299281D01*
X13652563Y-19350332D01*
X12159813Y-20843083D01*
X12159809Y-20843089D01*
X12100501Y-20945812D01*
X12100500Y-20945817D01*
X12069800Y-21060391D01*
X12069800Y-39585695D01*
X12050115Y-39652734D01*
X11997311Y-39698489D01*
X11928153Y-39708433D01*
X11889505Y-39696180D01*
X11718214Y-39608903D01*
X11718216Y-39608903D01*
X11516124Y-39543241D01*
X11450000Y-39532768D01*
X11450000Y-40426988D01*
X11392993Y-40394075D01*
X11265826Y-40360000D01*
X11134174Y-40360000D01*
X11007007Y-40394075D01*
X10950000Y-40426988D01*
X10950000Y-39532768D01*
X10949999Y-39532768D01*
X10883875Y-39543241D01*
X10681784Y-39608903D01*
X10492442Y-39705379D01*
X10320540Y-39830272D01*
X10320535Y-39830276D01*
X10170276Y-39980535D01*
X10170272Y-39980540D01*
X10045377Y-40152444D01*
X10040484Y-40162048D01*
X9992509Y-40212844D01*
X9924688Y-40229638D01*
X9858553Y-40207100D01*
X9819516Y-40162048D01*
X9814622Y-40152444D01*
X9689727Y-39980540D01*
X9689723Y-39980535D01*
X9539464Y-39830276D01*
X9539459Y-39830272D01*
X9367557Y-39705379D01*
X9178215Y-39608903D01*
X8976124Y-39543241D01*
X8910000Y-39532768D01*
X8910000Y-40426988D01*
X8852993Y-40394075D01*
X8725826Y-40360000D01*
X8594174Y-40360000D01*
X8467007Y-40394075D01*
X8410000Y-40426988D01*
X8410000Y-39532768D01*
X8409999Y-39532768D01*
X8343875Y-39543241D01*
X8141784Y-39608903D01*
X7952442Y-39705379D01*
X7780540Y-39830272D01*
X7780535Y-39830276D01*
X7630276Y-39980535D01*
X7630272Y-39980540D01*
X7505379Y-40152442D01*
X7408904Y-40341782D01*
X7343242Y-40543870D01*
X7343242Y-40543873D01*
X7332769Y-40610000D01*
X8226988Y-40610000D01*
X8194075Y-40667007D01*
X8160000Y-40794174D01*
X8160000Y-40925826D01*
X8194075Y-41052993D01*
X8226988Y-41110000D01*
X7332769Y-41110000D01*
X7343242Y-41176126D01*
X7343242Y-41176129D01*
X7408904Y-41378217D01*
X7505379Y-41567557D01*
X7630272Y-41739459D01*
X7630276Y-41739464D01*
X7780535Y-41889723D01*
X7780540Y-41889727D01*
X7952442Y-42014620D01*
X8141782Y-42111095D01*
X8343871Y-42176757D01*
X8410000Y-42187231D01*
X8410000Y-41293012D01*
X8467007Y-41325925D01*
X8594174Y-41360000D01*
X8725826Y-41360000D01*
X8852993Y-41325925D01*
X8910000Y-41293012D01*
X8910000Y-42187230D01*
X8976126Y-42176757D01*
X8976129Y-42176757D01*
X9178217Y-42111095D01*
X9367557Y-42014620D01*
X9539459Y-41889727D01*
X9539464Y-41889723D01*
X9689723Y-41739464D01*
X9689727Y-41739459D01*
X9814620Y-41567558D01*
X9819514Y-41557954D01*
X9867488Y-41507157D01*
X9935308Y-41490361D01*
X10001444Y-41512897D01*
X10040486Y-41557954D01*
X10045379Y-41567558D01*
X10170272Y-41739459D01*
X10170276Y-41739464D01*
X10320535Y-41889723D01*
X10320540Y-41889727D01*
X10492442Y-42014620D01*
X10681782Y-42111095D01*
X10883871Y-42176757D01*
X10950000Y-42187231D01*
X10950000Y-41293012D01*
X11007007Y-41325925D01*
X11134174Y-41360000D01*
X11265826Y-41360000D01*
X11392993Y-41325925D01*
X11450000Y-41293012D01*
X11450000Y-42187230D01*
X11516126Y-42176757D01*
X11516129Y-42176757D01*
X11718217Y-42111095D01*
X11889505Y-42023819D01*
X11958174Y-42010923D01*
X12022914Y-42037199D01*
X12063172Y-42094305D01*
X12069800Y-42134304D01*
X12069800Y-52499610D01*
X12084964Y-52556204D01*
X12083301Y-52626054D01*
X12044138Y-52683916D01*
X11979909Y-52711419D01*
X11926872Y-52706227D01*
X11856134Y-52683243D01*
X11856127Y-52683242D01*
X11646246Y-52650000D01*
X11433754Y-52650000D01*
X11223872Y-52683242D01*
X11223869Y-52683242D01*
X11021782Y-52748904D01*
X10832439Y-52845380D01*
X10778282Y-52884727D01*
X10778282Y-52884728D01*
X11410591Y-53517037D01*
X11347007Y-53534075D01*
X11232993Y-53599901D01*
X11139901Y-53692993D01*
X11074075Y-53807007D01*
X11057037Y-53870591D01*
X10424728Y-53238282D01*
X10424727Y-53238282D01*
X10385380Y-53292440D01*
X10385377Y-53292445D01*
X10384981Y-53293223D01*
X10384752Y-53293464D01*
X10382838Y-53296590D01*
X10382180Y-53296187D01*
X10337004Y-53344017D01*
X10269183Y-53360809D01*
X10203049Y-53338268D01*
X10159600Y-53283551D01*
X10150499Y-53236923D01*
X10150499Y-53105143D01*
X10150499Y-53105136D01*
X10150350Y-53103849D01*
X10147586Y-53080012D01*
X10147585Y-53080010D01*
X10147585Y-53080009D01*
X10102206Y-52977235D01*
X10022765Y-52897794D01*
X10022763Y-52897793D01*
X9919992Y-52852415D01*
X9894865Y-52849500D01*
X8105143Y-52849500D01*
X8105117Y-52849502D01*
X8080012Y-52852413D01*
X8080008Y-52852415D01*
X7977235Y-52897793D01*
X7897794Y-52977234D01*
X7852415Y-53080006D01*
X7852415Y-53080008D01*
X7849500Y-53105131D01*
X7849500Y-54894856D01*
X7849502Y-54894882D01*
X7852413Y-54919987D01*
X7852415Y-54919991D01*
X7897793Y-55022764D01*
X7897794Y-55022765D01*
X7977235Y-55102206D01*
X8080009Y-55147585D01*
X8105135Y-55150500D01*
X9894864Y-55150499D01*
X9894879Y-55150497D01*
X9894882Y-55150497D01*
X9919987Y-55147586D01*
X9919988Y-55147585D01*
X9919991Y-55147585D01*
X10022765Y-55102206D01*
X10102206Y-55022765D01*
X10147585Y-54919991D01*
X10150500Y-54894865D01*
X10150499Y-54763076D01*
X10170183Y-54696040D01*
X10222987Y-54650285D01*
X10292145Y-54640341D01*
X10355701Y-54669365D01*
X10382495Y-54703600D01*
X10382829Y-54703396D01*
X10384607Y-54706297D01*
X10384977Y-54706770D01*
X10385373Y-54707547D01*
X10424728Y-54761716D01*
X11057037Y-54129408D01*
X11074075Y-54192993D01*
X11139901Y-54307007D01*
X11232993Y-54400099D01*
X11347007Y-54465925D01*
X11410590Y-54482962D01*
X10778282Y-55115269D01*
X10778282Y-55115270D01*
X10832449Y-55154624D01*
X11021782Y-55251095D01*
X11223870Y-55316757D01*
X11433754Y-55350000D01*
X11646246Y-55350000D01*
X11856127Y-55316757D01*
X11856130Y-55316757D01*
X12058217Y-55251095D01*
X12247554Y-55154622D01*
X12301716Y-55115270D01*
X12301717Y-55115270D01*
X11669408Y-54482962D01*
X11732993Y-54465925D01*
X11847007Y-54400099D01*
X11940099Y-54307007D01*
X12005925Y-54192993D01*
X12022962Y-54129408D01*
X12655270Y-54761717D01*
X12655270Y-54761716D01*
X12694622Y-54707554D01*
X12791095Y-54518217D01*
X12800492Y-54489295D01*
X12839928Y-54431618D01*
X12904286Y-54404419D01*
X12973133Y-54416331D01*
X13024610Y-54463574D01*
X13028908Y-54471314D01*
X13096004Y-54602995D01*
X13202441Y-54749494D01*
X13202445Y-54749499D01*
X13330500Y-54877554D01*
X13330505Y-54877558D01*
X13440361Y-54957372D01*
X13477006Y-54983996D01*
X13553094Y-55022765D01*
X13638360Y-55066211D01*
X13638363Y-55066212D01*
X13710131Y-55089530D01*
X13810591Y-55122171D01*
X13893429Y-55135291D01*
X13989449Y-55150500D01*
X13989454Y-55150500D01*
X14170551Y-55150500D01*
X14257259Y-55136765D01*
X14349409Y-55122171D01*
X14521639Y-55066211D01*
X14682994Y-54983996D01*
X14829501Y-54877553D01*
X14896047Y-54811006D01*
X14957366Y-54777524D01*
X15027058Y-54782508D01*
X15071406Y-54811009D01*
X15871086Y-55610689D01*
X15973813Y-55669999D01*
X15998021Y-55676484D01*
X15998024Y-55676486D01*
X15998025Y-55676486D01*
X16028147Y-55684557D01*
X16088391Y-55700700D01*
X16088393Y-55700700D01*
X17969108Y-55700700D01*
X17969109Y-55700700D01*
X18059473Y-55676486D01*
X18083687Y-55669999D01*
X18186414Y-55610689D01*
X18674089Y-55123013D01*
X18735410Y-55089530D01*
X18800086Y-55092765D01*
X18829141Y-55102205D01*
X18890591Y-55122171D01*
X18973429Y-55135291D01*
X19069449Y-55150500D01*
X19069454Y-55150500D01*
X19250551Y-55150500D01*
X19337259Y-55136765D01*
X19429409Y-55122171D01*
X19601639Y-55066211D01*
X19762994Y-54983996D01*
X19881573Y-54897844D01*
X19909495Y-54877558D01*
X19909497Y-54877555D01*
X19909501Y-54877553D01*
X20037553Y-54749501D01*
X20143996Y-54602994D01*
X20211090Y-54471314D01*
X20259065Y-54420519D01*
X20326886Y-54403724D01*
X20393021Y-54426262D01*
X20436472Y-54480977D01*
X20439506Y-54489292D01*
X20448904Y-54518217D01*
X20545375Y-54707550D01*
X20584728Y-54761716D01*
X21217037Y-54129408D01*
X21234075Y-54192993D01*
X21299901Y-54307007D01*
X21392993Y-54400099D01*
X21507007Y-54465925D01*
X21570590Y-54482962D01*
X20938282Y-55115269D01*
X20938282Y-55115270D01*
X20992449Y-55154624D01*
X21181782Y-55251095D01*
X21383870Y-55316757D01*
X21593754Y-55350000D01*
X21806246Y-55350000D01*
X22016127Y-55316757D01*
X22016130Y-55316757D01*
X22218217Y-55251095D01*
X22407554Y-55154622D01*
X22461717Y-55115270D01*
X21829408Y-54482962D01*
X21892993Y-54465925D01*
X22007007Y-54400099D01*
X22100099Y-54307007D01*
X22165925Y-54192993D01*
X22182962Y-54129408D01*
X22815270Y-54761717D01*
X22815270Y-54761716D01*
X22854622Y-54707554D01*
X22951095Y-54518217D01*
X23016757Y-54316130D01*
X23016757Y-54316127D01*
X23050000Y-54106246D01*
X23050000Y-53893752D01*
X23049999Y-53893750D01*
X23048130Y-53881947D01*
X23500000Y-53881947D01*
X23500000Y-54118052D01*
X23536934Y-54351247D01*
X23609897Y-54575802D01*
X23717087Y-54786174D01*
X23777338Y-54869104D01*
X23777340Y-54869105D01*
X24476212Y-54170233D01*
X24487482Y-54212292D01*
X24559890Y-54337708D01*
X24662292Y-54440110D01*
X24787708Y-54512518D01*
X24829765Y-54523787D01*
X24130893Y-55222658D01*
X24213828Y-55282914D01*
X24424197Y-55390102D01*
X24648752Y-55463065D01*
X24648751Y-55463065D01*
X24881948Y-55500000D01*
X25118052Y-55500000D01*
X25351247Y-55463065D01*
X25575802Y-55390102D01*
X25786163Y-55282918D01*
X25786169Y-55282914D01*
X25869104Y-55222658D01*
X25869105Y-55222658D01*
X25170233Y-54523787D01*
X25212292Y-54512518D01*
X25337708Y-54440110D01*
X25440110Y-54337708D01*
X25512518Y-54212292D01*
X25523787Y-54170233D01*
X26222658Y-54869105D01*
X26222658Y-54869104D01*
X26282914Y-54786169D01*
X26282918Y-54786163D01*
X26390102Y-54575802D01*
X26463065Y-54351247D01*
X26500000Y-54118052D01*
X26500000Y-53881947D01*
X30000000Y-53881947D01*
X30000000Y-54118052D01*
X30036934Y-54351247D01*
X30109897Y-54575802D01*
X30217087Y-54786174D01*
X30277338Y-54869104D01*
X30277340Y-54869105D01*
X30976212Y-54170233D01*
X30987482Y-54212292D01*
X31059890Y-54337708D01*
X31162292Y-54440110D01*
X31287708Y-54512518D01*
X31329765Y-54523787D01*
X30630893Y-55222658D01*
X30713828Y-55282914D01*
X30924197Y-55390102D01*
X31148752Y-55463065D01*
X31148751Y-55463065D01*
X31381948Y-55500000D01*
X31618052Y-55500000D01*
X31851247Y-55463065D01*
X32075802Y-55390102D01*
X32286163Y-55282918D01*
X32286169Y-55282914D01*
X32369104Y-55222658D01*
X32369105Y-55222658D01*
X31670233Y-54523787D01*
X31712292Y-54512518D01*
X31837708Y-54440110D01*
X31940110Y-54337708D01*
X32012518Y-54212292D01*
X32023787Y-54170234D01*
X32722658Y-54869105D01*
X32722658Y-54869104D01*
X32782914Y-54786169D01*
X32782918Y-54786163D01*
X32890102Y-54575802D01*
X32963065Y-54351247D01*
X33000000Y-54118052D01*
X33000000Y-53881947D01*
X33500000Y-53881947D01*
X33500000Y-54118052D01*
X33536934Y-54351247D01*
X33609897Y-54575802D01*
X33717087Y-54786174D01*
X33777338Y-54869104D01*
X33777340Y-54869105D01*
X34476212Y-54170233D01*
X34487482Y-54212292D01*
X34559890Y-54337708D01*
X34662292Y-54440110D01*
X34787708Y-54512518D01*
X34829765Y-54523787D01*
X34130893Y-55222658D01*
X34213828Y-55282914D01*
X34424197Y-55390102D01*
X34648752Y-55463065D01*
X34648751Y-55463065D01*
X34881948Y-55500000D01*
X35118052Y-55500000D01*
X35351247Y-55463065D01*
X35575802Y-55390102D01*
X35786163Y-55282918D01*
X35786169Y-55282914D01*
X35869104Y-55222658D01*
X35869105Y-55222658D01*
X35170233Y-54523787D01*
X35212292Y-54512518D01*
X35337708Y-54440110D01*
X35440110Y-54337708D01*
X35512518Y-54212292D01*
X35523787Y-54170233D01*
X36222658Y-54869105D01*
X36222658Y-54869104D01*
X36282914Y-54786169D01*
X36282918Y-54786163D01*
X36390102Y-54575802D01*
X36463065Y-54351247D01*
X36500000Y-54118052D01*
X36500000Y-53881947D01*
X40000000Y-53881947D01*
X40000000Y-54118052D01*
X40036934Y-54351247D01*
X40109897Y-54575802D01*
X40217087Y-54786174D01*
X40277338Y-54869104D01*
X40277340Y-54869105D01*
X40976212Y-54170233D01*
X40987482Y-54212292D01*
X41059890Y-54337708D01*
X41162292Y-54440110D01*
X41287708Y-54512518D01*
X41329765Y-54523787D01*
X40630893Y-55222658D01*
X40713828Y-55282914D01*
X40924197Y-55390102D01*
X41148752Y-55463065D01*
X41148751Y-55463065D01*
X41381948Y-55500000D01*
X41618052Y-55500000D01*
X41851247Y-55463065D01*
X42075802Y-55390102D01*
X42286163Y-55282918D01*
X42286169Y-55282914D01*
X42369104Y-55222658D01*
X42369105Y-55222658D01*
X41670233Y-54523787D01*
X41712292Y-54512518D01*
X41837708Y-54440110D01*
X41940110Y-54337708D01*
X42012518Y-54212292D01*
X42023787Y-54170234D01*
X42722658Y-54869105D01*
X42722658Y-54869104D01*
X42782914Y-54786169D01*
X42782918Y-54786163D01*
X42890102Y-54575802D01*
X42963065Y-54351247D01*
X43000000Y-54118052D01*
X43000000Y-53881947D01*
X43500000Y-53881947D01*
X43500000Y-54118052D01*
X43536934Y-54351247D01*
X43609897Y-54575802D01*
X43717087Y-54786174D01*
X43777338Y-54869104D01*
X43777340Y-54869105D01*
X44476212Y-54170233D01*
X44487482Y-54212292D01*
X44559890Y-54337708D01*
X44662292Y-54440110D01*
X44787708Y-54512518D01*
X44829765Y-54523787D01*
X44130893Y-55222658D01*
X44213828Y-55282914D01*
X44424197Y-55390102D01*
X44648752Y-55463065D01*
X44648751Y-55463065D01*
X44881948Y-55500000D01*
X45118052Y-55500000D01*
X45351247Y-55463065D01*
X45575802Y-55390102D01*
X45786163Y-55282918D01*
X45786169Y-55282914D01*
X45869104Y-55222658D01*
X45869105Y-55222658D01*
X45170233Y-54523787D01*
X45212292Y-54512518D01*
X45337708Y-54440110D01*
X45440110Y-54337708D01*
X45512518Y-54212292D01*
X45523787Y-54170234D01*
X46222658Y-54869105D01*
X46222658Y-54869104D01*
X46282914Y-54786169D01*
X46282918Y-54786163D01*
X46390102Y-54575802D01*
X46463065Y-54351247D01*
X46500000Y-54118052D01*
X46500000Y-53881947D01*
X50000000Y-53881947D01*
X50000000Y-54118052D01*
X50036934Y-54351247D01*
X50109897Y-54575802D01*
X50217087Y-54786174D01*
X50277338Y-54869104D01*
X50277340Y-54869105D01*
X50976212Y-54170233D01*
X50987482Y-54212292D01*
X51059890Y-54337708D01*
X51162292Y-54440110D01*
X51287708Y-54512518D01*
X51329765Y-54523787D01*
X50630893Y-55222658D01*
X50713828Y-55282914D01*
X50924197Y-55390102D01*
X51148752Y-55463065D01*
X51148751Y-55463065D01*
X51381948Y-55500000D01*
X51618052Y-55500000D01*
X51851247Y-55463065D01*
X52075802Y-55390102D01*
X52286163Y-55282918D01*
X52286169Y-55282914D01*
X52369104Y-55222658D01*
X52369105Y-55222658D01*
X51670233Y-54523787D01*
X51712292Y-54512518D01*
X51837708Y-54440110D01*
X51940110Y-54337708D01*
X52012518Y-54212292D01*
X52023787Y-54170233D01*
X52722658Y-54869105D01*
X52722658Y-54869104D01*
X52782914Y-54786169D01*
X52782918Y-54786163D01*
X52890102Y-54575802D01*
X52963065Y-54351247D01*
X53000000Y-54118052D01*
X53000000Y-53881947D01*
X52963065Y-53648752D01*
X52890102Y-53424197D01*
X52782914Y-53213828D01*
X52722658Y-53130894D01*
X52722658Y-53130893D01*
X52023787Y-53829765D01*
X52012518Y-53787708D01*
X51940110Y-53662292D01*
X51837708Y-53559890D01*
X51712292Y-53487482D01*
X51670234Y-53476212D01*
X52369105Y-52777340D01*
X52369104Y-52777338D01*
X52286174Y-52717087D01*
X52075802Y-52609897D01*
X51851247Y-52536934D01*
X51851248Y-52536934D01*
X51618052Y-52500000D01*
X51381948Y-52500000D01*
X51148752Y-52536934D01*
X50924197Y-52609897D01*
X50713830Y-52717084D01*
X50630894Y-52777340D01*
X51329766Y-53476212D01*
X51287708Y-53487482D01*
X51162292Y-53559890D01*
X51059890Y-53662292D01*
X50987482Y-53787708D01*
X50976212Y-53829766D01*
X50277340Y-53130894D01*
X50217084Y-53213830D01*
X50109897Y-53424197D01*
X50036934Y-53648752D01*
X50000000Y-53881947D01*
X46500000Y-53881947D01*
X46463065Y-53648752D01*
X46390102Y-53424197D01*
X46282914Y-53213828D01*
X46222658Y-53130894D01*
X46222658Y-53130893D01*
X45523787Y-53829765D01*
X45512518Y-53787708D01*
X45440110Y-53662292D01*
X45337708Y-53559890D01*
X45212292Y-53487482D01*
X45170234Y-53476212D01*
X45869105Y-52777340D01*
X45869104Y-52777339D01*
X45786174Y-52717087D01*
X45575802Y-52609897D01*
X45351247Y-52536934D01*
X45351248Y-52536934D01*
X45118052Y-52500000D01*
X44881948Y-52500000D01*
X44648752Y-52536934D01*
X44424197Y-52609897D01*
X44213830Y-52717084D01*
X44130894Y-52777340D01*
X44829766Y-53476212D01*
X44787708Y-53487482D01*
X44662292Y-53559890D01*
X44559890Y-53662292D01*
X44487482Y-53787708D01*
X44476212Y-53829766D01*
X43777340Y-53130894D01*
X43717084Y-53213830D01*
X43609897Y-53424197D01*
X43536934Y-53648752D01*
X43500000Y-53881947D01*
X43000000Y-53881947D01*
X42963065Y-53648752D01*
X42890102Y-53424197D01*
X42782914Y-53213828D01*
X42722658Y-53130894D01*
X42722658Y-53130893D01*
X42023787Y-53829765D01*
X42012518Y-53787708D01*
X41940110Y-53662292D01*
X41837708Y-53559890D01*
X41712292Y-53487482D01*
X41670234Y-53476212D01*
X42369105Y-52777340D01*
X42369104Y-52777339D01*
X42286174Y-52717087D01*
X42075802Y-52609897D01*
X41851247Y-52536934D01*
X41851248Y-52536934D01*
X41618052Y-52500000D01*
X41381948Y-52500000D01*
X41148752Y-52536934D01*
X40924197Y-52609897D01*
X40713830Y-52717084D01*
X40630894Y-52777340D01*
X41329766Y-53476212D01*
X41287708Y-53487482D01*
X41162292Y-53559890D01*
X41059890Y-53662292D01*
X40987482Y-53787708D01*
X40976212Y-53829766D01*
X40277340Y-53130894D01*
X40217084Y-53213830D01*
X40109897Y-53424197D01*
X40036934Y-53648752D01*
X40000000Y-53881947D01*
X36500000Y-53881947D01*
X36463065Y-53648752D01*
X36390102Y-53424197D01*
X36282914Y-53213828D01*
X36222658Y-53130894D01*
X36222658Y-53130893D01*
X35523787Y-53829765D01*
X35512518Y-53787708D01*
X35440110Y-53662292D01*
X35337708Y-53559890D01*
X35212292Y-53487482D01*
X35170234Y-53476212D01*
X35869105Y-52777340D01*
X35869104Y-52777339D01*
X35786174Y-52717087D01*
X35575802Y-52609897D01*
X35351247Y-52536934D01*
X35351248Y-52536934D01*
X35118052Y-52500000D01*
X34881948Y-52500000D01*
X34648752Y-52536934D01*
X34424197Y-52609897D01*
X34213830Y-52717084D01*
X34130894Y-52777340D01*
X34829766Y-53476212D01*
X34787708Y-53487482D01*
X34662292Y-53559890D01*
X34559890Y-53662292D01*
X34487482Y-53787708D01*
X34476212Y-53829766D01*
X33777340Y-53130894D01*
X33717084Y-53213830D01*
X33609897Y-53424197D01*
X33536934Y-53648752D01*
X33500000Y-53881947D01*
X33000000Y-53881947D01*
X32963065Y-53648752D01*
X32890102Y-53424197D01*
X32782914Y-53213828D01*
X32722658Y-53130894D01*
X32722658Y-53130893D01*
X32023787Y-53829765D01*
X32012518Y-53787708D01*
X31940110Y-53662292D01*
X31837708Y-53559890D01*
X31712292Y-53487482D01*
X31670234Y-53476212D01*
X32369105Y-52777340D01*
X32369104Y-52777339D01*
X32286174Y-52717087D01*
X32075802Y-52609897D01*
X31851247Y-52536934D01*
X31851248Y-52536934D01*
X31618052Y-52500000D01*
X31381948Y-52500000D01*
X31148752Y-52536934D01*
X30924197Y-52609897D01*
X30713830Y-52717084D01*
X30630894Y-52777340D01*
X31329766Y-53476212D01*
X31287708Y-53487482D01*
X31162292Y-53559890D01*
X31059890Y-53662292D01*
X30987482Y-53787708D01*
X30976212Y-53829766D01*
X30277340Y-53130894D01*
X30217084Y-53213830D01*
X30109897Y-53424197D01*
X30036934Y-53648752D01*
X30000000Y-53881947D01*
X26500000Y-53881947D01*
X26463065Y-53648752D01*
X26390102Y-53424197D01*
X26282914Y-53213828D01*
X26222658Y-53130894D01*
X26222658Y-53130893D01*
X25523787Y-53829765D01*
X25512518Y-53787708D01*
X25440110Y-53662292D01*
X25337708Y-53559890D01*
X25212292Y-53487482D01*
X25170234Y-53476212D01*
X25869105Y-52777340D01*
X25869104Y-52777339D01*
X25786174Y-52717087D01*
X25575802Y-52609897D01*
X25351247Y-52536934D01*
X25351248Y-52536934D01*
X25118052Y-52500000D01*
X24881948Y-52500000D01*
X24648752Y-52536934D01*
X24424197Y-52609897D01*
X24213830Y-52717084D01*
X24130894Y-52777340D01*
X24829766Y-53476212D01*
X24787708Y-53487482D01*
X24662292Y-53559890D01*
X24559890Y-53662292D01*
X24487482Y-53787708D01*
X24476212Y-53829766D01*
X23777340Y-53130894D01*
X23717084Y-53213830D01*
X23609897Y-53424197D01*
X23536934Y-53648752D01*
X23500000Y-53881947D01*
X23048130Y-53881947D01*
X23016757Y-53683872D01*
X23016757Y-53683869D01*
X22951095Y-53481782D01*
X22854624Y-53292449D01*
X22815270Y-53238282D01*
X22815269Y-53238282D01*
X22182962Y-53870590D01*
X22165925Y-53807007D01*
X22100099Y-53692993D01*
X22007007Y-53599901D01*
X21892993Y-53534075D01*
X21829409Y-53517037D01*
X22461716Y-52884728D01*
X22407550Y-52845375D01*
X22218217Y-52748904D01*
X22016129Y-52683242D01*
X21806246Y-52650000D01*
X21593754Y-52650000D01*
X21383872Y-52683242D01*
X21383869Y-52683242D01*
X21181782Y-52748904D01*
X20992439Y-52845380D01*
X20938282Y-52884727D01*
X20938282Y-52884728D01*
X21570591Y-53517037D01*
X21507007Y-53534075D01*
X21392993Y-53599901D01*
X21299901Y-53692993D01*
X21234075Y-53807007D01*
X21217037Y-53870591D01*
X20584728Y-53238282D01*
X20584727Y-53238282D01*
X20545380Y-53292439D01*
X20448905Y-53481781D01*
X20439506Y-53510708D01*
X20400068Y-53568383D01*
X20335709Y-53595581D01*
X20266862Y-53583666D01*
X20215387Y-53536421D01*
X20211090Y-53528684D01*
X20170998Y-53450000D01*
X20143996Y-53397006D01*
X20125681Y-53371797D01*
X20037558Y-53250505D01*
X20037554Y-53250500D01*
X19909499Y-53122445D01*
X19909494Y-53122441D01*
X19785432Y-53032305D01*
X19762996Y-53016005D01*
X19601639Y-52933788D01*
X19601636Y-52933787D01*
X19429410Y-52877829D01*
X19250551Y-52849500D01*
X19250546Y-52849500D01*
X19069454Y-52849500D01*
X19069449Y-52849500D01*
X18890589Y-52877829D01*
X18718363Y-52933787D01*
X18718360Y-52933788D01*
X18557002Y-53016006D01*
X18410505Y-53122441D01*
X18410500Y-53122445D01*
X18282445Y-53250500D01*
X18282441Y-53250505D01*
X18176004Y-53397004D01*
X18108908Y-53528685D01*
X18060933Y-53579480D01*
X17993112Y-53596275D01*
X17926977Y-53573737D01*
X17883527Y-53519021D01*
X17880492Y-53510705D01*
X17871094Y-53481780D01*
X17774624Y-53292449D01*
X17735270Y-53238282D01*
X17735269Y-53238282D01*
X17102962Y-53870589D01*
X17085925Y-53807007D01*
X17020099Y-53692993D01*
X16927007Y-53599901D01*
X16812993Y-53534075D01*
X16749407Y-53517036D01*
X17381716Y-52884728D01*
X17327550Y-52845375D01*
X17138217Y-52748904D01*
X16936129Y-52683242D01*
X16726246Y-52650000D01*
X16513754Y-52650000D01*
X16303872Y-52683242D01*
X16303869Y-52683242D01*
X16101782Y-52748904D01*
X15980795Y-52810551D01*
X15912126Y-52823447D01*
X15847385Y-52797171D01*
X15807128Y-52740064D01*
X15800500Y-52700066D01*
X15800500Y-49397648D01*
X23699500Y-49397648D01*
X23699500Y-49602351D01*
X23731522Y-49804534D01*
X23794781Y-49999223D01*
X23887715Y-50181613D01*
X24008028Y-50347213D01*
X24152786Y-50491971D01*
X24307749Y-50604556D01*
X24318390Y-50612287D01*
X24434607Y-50671503D01*
X24500776Y-50705218D01*
X24500778Y-50705218D01*
X24500781Y-50705220D01*
X24605137Y-50739127D01*
X24695465Y-50768477D01*
X24796557Y-50784488D01*
X24897648Y-50800500D01*
X24897649Y-50800500D01*
X25102351Y-50800500D01*
X25102352Y-50800500D01*
X25304534Y-50768477D01*
X25499219Y-50705220D01*
X25681610Y-50612287D01*
X25774590Y-50544732D01*
X25847213Y-50491971D01*
X25847215Y-50491968D01*
X25847219Y-50491966D01*
X25991966Y-50347219D01*
X25991968Y-50347215D01*
X25991971Y-50347213D01*
X26061883Y-50250986D01*
X26112287Y-50181610D01*
X26205220Y-49999219D01*
X26268477Y-49804534D01*
X26300500Y-49602352D01*
X26300500Y-49397648D01*
X26272837Y-49222994D01*
X26268477Y-49195465D01*
X26205218Y-49000776D01*
X26171503Y-48934607D01*
X26112287Y-48818390D01*
X26104556Y-48807749D01*
X25991971Y-48652786D01*
X25847213Y-48508028D01*
X25681613Y-48387715D01*
X25681612Y-48387714D01*
X25681610Y-48387713D01*
X25608754Y-48350591D01*
X25499223Y-48294781D01*
X25304534Y-48231522D01*
X25129995Y-48203878D01*
X25102352Y-48199500D01*
X24897648Y-48199500D01*
X24873329Y-48203351D01*
X24695465Y-48231522D01*
X24500776Y-48294781D01*
X24318386Y-48387715D01*
X24152786Y-48508028D01*
X24008028Y-48652786D01*
X23887715Y-48818386D01*
X23794781Y-49000776D01*
X23731522Y-49195465D01*
X23699500Y-49397648D01*
X15800500Y-49397648D01*
X15800500Y-43400393D01*
X15800500Y-43400391D01*
X15769799Y-43285814D01*
X15756850Y-43263386D01*
X15710490Y-43183086D01*
X15496819Y-42969415D01*
X15463334Y-42908092D01*
X15460500Y-42881734D01*
X15460500Y-41930059D01*
X15480185Y-41863020D01*
X15532989Y-41817265D01*
X15602147Y-41807321D01*
X15657385Y-41829740D01*
X15677006Y-41843996D01*
X15756145Y-41884319D01*
X15838360Y-41926211D01*
X15838363Y-41926212D01*
X15924476Y-41954191D01*
X16010591Y-41982171D01*
X16093429Y-41995291D01*
X16189449Y-42010500D01*
X16189454Y-42010500D01*
X16370551Y-42010500D01*
X16457259Y-41996765D01*
X16549409Y-41982171D01*
X16721639Y-41926211D01*
X16882994Y-41843996D01*
X17029501Y-41737553D01*
X17157553Y-41609501D01*
X17263996Y-41462994D01*
X17346211Y-41301639D01*
X17402171Y-41129409D01*
X17422821Y-40999031D01*
X17427527Y-40969321D01*
X17457456Y-40906186D01*
X17516768Y-40869255D01*
X17586630Y-40870253D01*
X17644863Y-40908863D01*
X17672473Y-40969321D01*
X17697829Y-41129410D01*
X17753787Y-41301636D01*
X17753788Y-41301639D01*
X17836006Y-41462997D01*
X17942441Y-41609494D01*
X17942445Y-41609499D01*
X18070500Y-41737554D01*
X18070505Y-41737558D01*
X18156450Y-41800000D01*
X18217006Y-41843996D01*
X18306750Y-41889723D01*
X18378360Y-41926211D01*
X18378363Y-41926212D01*
X18464476Y-41954191D01*
X18550591Y-41982171D01*
X18633429Y-41995291D01*
X18729449Y-42010500D01*
X18729454Y-42010500D01*
X18910551Y-42010500D01*
X18997259Y-41996765D01*
X19089409Y-41982171D01*
X19261639Y-41926211D01*
X19422994Y-41843996D01*
X19569501Y-41737553D01*
X19697553Y-41609501D01*
X19803996Y-41462994D01*
X19886211Y-41301639D01*
X19942171Y-41129409D01*
X19962821Y-40999031D01*
X19967527Y-40969321D01*
X19997456Y-40906186D01*
X20056768Y-40869255D01*
X20126630Y-40870253D01*
X20184863Y-40908863D01*
X20212473Y-40969321D01*
X20237829Y-41129410D01*
X20293787Y-41301636D01*
X20293788Y-41301639D01*
X20376006Y-41462997D01*
X20482441Y-41609494D01*
X20482445Y-41609499D01*
X20610500Y-41737554D01*
X20610505Y-41737558D01*
X20696450Y-41800000D01*
X20757006Y-41843996D01*
X20846750Y-41889723D01*
X20918360Y-41926211D01*
X20918363Y-41926212D01*
X21004476Y-41954191D01*
X21090591Y-41982171D01*
X21173429Y-41995291D01*
X21269449Y-42010500D01*
X21269454Y-42010500D01*
X21450551Y-42010500D01*
X21537259Y-41996765D01*
X21629409Y-41982171D01*
X21801639Y-41926211D01*
X21962994Y-41843996D01*
X22109501Y-41737553D01*
X22237553Y-41609501D01*
X22343996Y-41462994D01*
X22426211Y-41301639D01*
X22482171Y-41129409D01*
X22502821Y-40999031D01*
X22507527Y-40969321D01*
X22537456Y-40906186D01*
X22596768Y-40869255D01*
X22666630Y-40870253D01*
X22724863Y-40908863D01*
X22752473Y-40969321D01*
X22777829Y-41129410D01*
X22833787Y-41301636D01*
X22833788Y-41301639D01*
X22916006Y-41462997D01*
X23022441Y-41609494D01*
X23022445Y-41609499D01*
X23150500Y-41737554D01*
X23150505Y-41737558D01*
X23236450Y-41800000D01*
X23297006Y-41843996D01*
X23386750Y-41889723D01*
X23458360Y-41926211D01*
X23458363Y-41926212D01*
X23544476Y-41954191D01*
X23630591Y-41982171D01*
X23713429Y-41995291D01*
X23809449Y-42010500D01*
X23809454Y-42010500D01*
X23990551Y-42010500D01*
X24077259Y-41996765D01*
X24169409Y-41982171D01*
X24341639Y-41926211D01*
X24502994Y-41843996D01*
X24649501Y-41737553D01*
X24777553Y-41609501D01*
X24883996Y-41462994D01*
X24966211Y-41301639D01*
X25022171Y-41129409D01*
X25042821Y-40999031D01*
X25047527Y-40969321D01*
X25077456Y-40906186D01*
X25136768Y-40869255D01*
X25206630Y-40870253D01*
X25264863Y-40908863D01*
X25292473Y-40969321D01*
X25317829Y-41129410D01*
X25373787Y-41301636D01*
X25373788Y-41301639D01*
X25456006Y-41462997D01*
X25562441Y-41609494D01*
X25562445Y-41609499D01*
X25690500Y-41737554D01*
X25690505Y-41737558D01*
X25776450Y-41800000D01*
X25837006Y-41843996D01*
X25926750Y-41889723D01*
X25998360Y-41926211D01*
X25998363Y-41926212D01*
X26084476Y-41954191D01*
X26170591Y-41982171D01*
X26253429Y-41995291D01*
X26349449Y-42010500D01*
X26349454Y-42010500D01*
X26530551Y-42010500D01*
X26617259Y-41996765D01*
X26709409Y-41982171D01*
X26881639Y-41926211D01*
X27042994Y-41843996D01*
X27189501Y-41737553D01*
X27317553Y-41609501D01*
X27423996Y-41462994D01*
X27506211Y-41301639D01*
X27562171Y-41129409D01*
X27582821Y-40999031D01*
X27587527Y-40969321D01*
X27617456Y-40906186D01*
X27676768Y-40869255D01*
X27746630Y-40870253D01*
X27804863Y-40908863D01*
X27832473Y-40969321D01*
X27857829Y-41129410D01*
X27913787Y-41301636D01*
X27913788Y-41301639D01*
X27996006Y-41462997D01*
X28102441Y-41609494D01*
X28102445Y-41609499D01*
X28230500Y-41737554D01*
X28230505Y-41737558D01*
X28316450Y-41800000D01*
X28377006Y-41843996D01*
X28466750Y-41889723D01*
X28538360Y-41926211D01*
X28538363Y-41926212D01*
X28624476Y-41954191D01*
X28710591Y-41982171D01*
X28793429Y-41995291D01*
X28889449Y-42010500D01*
X28889454Y-42010500D01*
X29070551Y-42010500D01*
X29157259Y-41996765D01*
X29249409Y-41982171D01*
X29421639Y-41926211D01*
X29582994Y-41843996D01*
X29729501Y-41737553D01*
X29857553Y-41609501D01*
X29963996Y-41462994D01*
X30046211Y-41301639D01*
X30102171Y-41129409D01*
X30122821Y-40999031D01*
X30127527Y-40969321D01*
X30157456Y-40906186D01*
X30216768Y-40869255D01*
X30286630Y-40870253D01*
X30344863Y-40908863D01*
X30372473Y-40969321D01*
X30397829Y-41129410D01*
X30453787Y-41301636D01*
X30453788Y-41301639D01*
X30536006Y-41462997D01*
X30642441Y-41609494D01*
X30642445Y-41609499D01*
X30770500Y-41737554D01*
X30770505Y-41737558D01*
X30856450Y-41800000D01*
X30917006Y-41843996D01*
X31006750Y-41889723D01*
X31078360Y-41926211D01*
X31078363Y-41926212D01*
X31164476Y-41954191D01*
X31250591Y-41982171D01*
X31333429Y-41995291D01*
X31429449Y-42010500D01*
X31429454Y-42010500D01*
X31610551Y-42010500D01*
X31697259Y-41996765D01*
X31789409Y-41982171D01*
X31961639Y-41926211D01*
X32122994Y-41843996D01*
X32269501Y-41737553D01*
X32397553Y-41609501D01*
X32503996Y-41462994D01*
X32586211Y-41301639D01*
X32642171Y-41129409D01*
X32662821Y-40999031D01*
X32667527Y-40969321D01*
X32697456Y-40906186D01*
X32756768Y-40869255D01*
X32826630Y-40870253D01*
X32884863Y-40908863D01*
X32912473Y-40969321D01*
X32937829Y-41129410D01*
X32993787Y-41301636D01*
X32993788Y-41301639D01*
X33076006Y-41462997D01*
X33182441Y-41609494D01*
X33182445Y-41609499D01*
X33310500Y-41737554D01*
X33310505Y-41737558D01*
X33396450Y-41800000D01*
X33457006Y-41843996D01*
X33546750Y-41889723D01*
X33618360Y-41926211D01*
X33618363Y-41926212D01*
X33704476Y-41954191D01*
X33790591Y-41982171D01*
X33873429Y-41995291D01*
X33969449Y-42010500D01*
X33969454Y-42010500D01*
X34150551Y-42010500D01*
X34237259Y-41996765D01*
X34329409Y-41982171D01*
X34501639Y-41926211D01*
X34662994Y-41843996D01*
X34809501Y-41737553D01*
X34937553Y-41609501D01*
X35043996Y-41462994D01*
X35126211Y-41301639D01*
X35182171Y-41129409D01*
X35202821Y-40999031D01*
X35207527Y-40969321D01*
X35237456Y-40906186D01*
X35296768Y-40869255D01*
X35366630Y-40870253D01*
X35424863Y-40908863D01*
X35452473Y-40969321D01*
X35477829Y-41129410D01*
X35533787Y-41301636D01*
X35533788Y-41301639D01*
X35616006Y-41462997D01*
X35722441Y-41609494D01*
X35722445Y-41609499D01*
X35850500Y-41737554D01*
X35850505Y-41737558D01*
X35936450Y-41800000D01*
X35997006Y-41843996D01*
X36086750Y-41889723D01*
X36158360Y-41926211D01*
X36158363Y-41926212D01*
X36244476Y-41954191D01*
X36330591Y-41982171D01*
X36413429Y-41995291D01*
X36509449Y-42010500D01*
X36509454Y-42010500D01*
X36690551Y-42010500D01*
X36777259Y-41996765D01*
X36869409Y-41982171D01*
X37041639Y-41926211D01*
X37202994Y-41843996D01*
X37222614Y-41829740D01*
X37288420Y-41806261D01*
X37356474Y-41822086D01*
X37405169Y-41872192D01*
X37419500Y-41930059D01*
X37419500Y-42892034D01*
X37399815Y-42959073D01*
X37383181Y-42979715D01*
X32104951Y-48257944D01*
X32043628Y-48291429D01*
X31978952Y-48288194D01*
X31804537Y-48231523D01*
X31652897Y-48207505D01*
X31602352Y-48199500D01*
X31397648Y-48199500D01*
X31373329Y-48203351D01*
X31195465Y-48231522D01*
X31000776Y-48294781D01*
X30818386Y-48387715D01*
X30652786Y-48508028D01*
X30508028Y-48652786D01*
X30387715Y-48818386D01*
X30294781Y-49000776D01*
X30231522Y-49195465D01*
X30199500Y-49397648D01*
X30199500Y-49602351D01*
X30231522Y-49804534D01*
X30294781Y-49999223D01*
X30387715Y-50181613D01*
X30508028Y-50347213D01*
X30652786Y-50491971D01*
X30807749Y-50604556D01*
X30818390Y-50612287D01*
X30934607Y-50671503D01*
X31000776Y-50705218D01*
X31000778Y-50705218D01*
X31000781Y-50705220D01*
X31105137Y-50739127D01*
X31195465Y-50768477D01*
X31296557Y-50784488D01*
X31397648Y-50800500D01*
X31397649Y-50800500D01*
X31602351Y-50800500D01*
X31602352Y-50800500D01*
X31804534Y-50768477D01*
X31999219Y-50705220D01*
X32181610Y-50612287D01*
X32274590Y-50544732D01*
X32347213Y-50491971D01*
X32347215Y-50491968D01*
X32347219Y-50491966D01*
X32491966Y-50347219D01*
X32491968Y-50347215D01*
X32491971Y-50347213D01*
X32561883Y-50250986D01*
X32612287Y-50181610D01*
X32705220Y-49999219D01*
X32768477Y-49804534D01*
X32800500Y-49602352D01*
X32800500Y-49397648D01*
X33699500Y-49397648D01*
X33699500Y-49602351D01*
X33731522Y-49804534D01*
X33794781Y-49999223D01*
X33887715Y-50181613D01*
X34008028Y-50347213D01*
X34152786Y-50491971D01*
X34307749Y-50604556D01*
X34318390Y-50612287D01*
X34434607Y-50671503D01*
X34500776Y-50705218D01*
X34500778Y-50705218D01*
X34500781Y-50705220D01*
X34605137Y-50739127D01*
X34695465Y-50768477D01*
X34796557Y-50784488D01*
X34897648Y-50800500D01*
X34897649Y-50800500D01*
X35102351Y-50800500D01*
X35102352Y-50800500D01*
X35304534Y-50768477D01*
X35499219Y-50705220D01*
X35681610Y-50612287D01*
X35774590Y-50544732D01*
X35847213Y-50491971D01*
X35847215Y-50491968D01*
X35847219Y-50491966D01*
X35991966Y-50347219D01*
X35991968Y-50347215D01*
X35991971Y-50347213D01*
X36061883Y-50250986D01*
X36112287Y-50181610D01*
X36205220Y-49999219D01*
X36268477Y-49804534D01*
X36300500Y-49602352D01*
X36300500Y-49397648D01*
X40199500Y-49397648D01*
X40199500Y-49602351D01*
X40231522Y-49804534D01*
X40294781Y-49999223D01*
X40387715Y-50181613D01*
X40508028Y-50347213D01*
X40652786Y-50491971D01*
X40807749Y-50604556D01*
X40818390Y-50612287D01*
X40934607Y-50671503D01*
X41000776Y-50705218D01*
X41000778Y-50705218D01*
X41000781Y-50705220D01*
X41105137Y-50739127D01*
X41195465Y-50768477D01*
X41296557Y-50784488D01*
X41397648Y-50800500D01*
X41397649Y-50800500D01*
X41602351Y-50800500D01*
X41602352Y-50800500D01*
X41804534Y-50768477D01*
X41999219Y-50705220D01*
X42181610Y-50612287D01*
X42274590Y-50544732D01*
X42347213Y-50491971D01*
X42347215Y-50491968D01*
X42347219Y-50491966D01*
X42491966Y-50347219D01*
X42491968Y-50347215D01*
X42491971Y-50347213D01*
X42561883Y-50250986D01*
X42612287Y-50181610D01*
X42705220Y-49999219D01*
X42768477Y-49804534D01*
X42800500Y-49602352D01*
X42800500Y-49397648D01*
X43699500Y-49397648D01*
X43699500Y-49602351D01*
X43731522Y-49804534D01*
X43794781Y-49999223D01*
X43887715Y-50181613D01*
X44008028Y-50347213D01*
X44152786Y-50491971D01*
X44307749Y-50604556D01*
X44318390Y-50612287D01*
X44434607Y-50671503D01*
X44500776Y-50705218D01*
X44500778Y-50705218D01*
X44500781Y-50705220D01*
X44605137Y-50739127D01*
X44695465Y-50768477D01*
X44796557Y-50784488D01*
X44897648Y-50800500D01*
X44897649Y-50800500D01*
X45102351Y-50800500D01*
X45102352Y-50800500D01*
X45304534Y-50768477D01*
X45499219Y-50705220D01*
X45681610Y-50612287D01*
X45774590Y-50544732D01*
X45847213Y-50491971D01*
X45847215Y-50491968D01*
X45847219Y-50491966D01*
X45991966Y-50347219D01*
X45991968Y-50347215D01*
X45991971Y-50347213D01*
X46061883Y-50250986D01*
X46112287Y-50181610D01*
X46205220Y-49999219D01*
X46268477Y-49804534D01*
X46300500Y-49602352D01*
X46300500Y-49397648D01*
X50199500Y-49397648D01*
X50199500Y-49602351D01*
X50231522Y-49804534D01*
X50294781Y-49999223D01*
X50387715Y-50181613D01*
X50508028Y-50347213D01*
X50652786Y-50491971D01*
X50807749Y-50604556D01*
X50818390Y-50612287D01*
X50934607Y-50671503D01*
X51000776Y-50705218D01*
X51000778Y-50705218D01*
X51000781Y-50705220D01*
X51105137Y-50739127D01*
X51195465Y-50768477D01*
X51296557Y-50784488D01*
X51397648Y-50800500D01*
X51397649Y-50800500D01*
X51602351Y-50800500D01*
X51602352Y-50800500D01*
X51804534Y-50768477D01*
X51999219Y-50705220D01*
X52181610Y-50612287D01*
X52274590Y-50544732D01*
X52347213Y-50491971D01*
X52347215Y-50491968D01*
X52347219Y-50491966D01*
X52491966Y-50347219D01*
X52491968Y-50347215D01*
X52491971Y-50347213D01*
X52561883Y-50250986D01*
X52612287Y-50181610D01*
X52705220Y-49999219D01*
X52768477Y-49804534D01*
X52800500Y-49602352D01*
X52800500Y-49397648D01*
X52772837Y-49222994D01*
X52768477Y-49195465D01*
X52705218Y-49000776D01*
X52671503Y-48934607D01*
X52612287Y-48818390D01*
X52604556Y-48807749D01*
X52491971Y-48652786D01*
X52347213Y-48508028D01*
X52181613Y-48387715D01*
X52181612Y-48387714D01*
X52181610Y-48387713D01*
X52108754Y-48350591D01*
X51999223Y-48294781D01*
X51804534Y-48231522D01*
X51629995Y-48203878D01*
X51602352Y-48199500D01*
X51397648Y-48199500D01*
X51373329Y-48203351D01*
X51195465Y-48231522D01*
X51000776Y-48294781D01*
X50818386Y-48387715D01*
X50652786Y-48508028D01*
X50508028Y-48652786D01*
X50387715Y-48818386D01*
X50294781Y-49000776D01*
X50231522Y-49195465D01*
X50199500Y-49397648D01*
X46300500Y-49397648D01*
X46272837Y-49222994D01*
X46268477Y-49195465D01*
X46205218Y-49000776D01*
X46171503Y-48934607D01*
X46112287Y-48818390D01*
X46104556Y-48807749D01*
X45991971Y-48652786D01*
X45847213Y-48508028D01*
X45681613Y-48387715D01*
X45681612Y-48387714D01*
X45681610Y-48387713D01*
X45608754Y-48350591D01*
X45499223Y-48294781D01*
X45304534Y-48231522D01*
X45129995Y-48203878D01*
X45102352Y-48199500D01*
X44897648Y-48199500D01*
X44873329Y-48203351D01*
X44695465Y-48231522D01*
X44500776Y-48294781D01*
X44318386Y-48387715D01*
X44152786Y-48508028D01*
X44008028Y-48652786D01*
X43887715Y-48818386D01*
X43794781Y-49000776D01*
X43731522Y-49195465D01*
X43699500Y-49397648D01*
X42800500Y-49397648D01*
X42772837Y-49222994D01*
X42768477Y-49195465D01*
X42705218Y-49000776D01*
X42671503Y-48934607D01*
X42612287Y-48818390D01*
X42604556Y-48807749D01*
X42491971Y-48652786D01*
X42347213Y-48508028D01*
X42181613Y-48387715D01*
X42181612Y-48387714D01*
X42181610Y-48387713D01*
X42108754Y-48350591D01*
X41999223Y-48294781D01*
X41804534Y-48231522D01*
X41629995Y-48203878D01*
X41602352Y-48199500D01*
X41397648Y-48199500D01*
X41373329Y-48203351D01*
X41195465Y-48231522D01*
X41000776Y-48294781D01*
X40818386Y-48387715D01*
X40652786Y-48508028D01*
X40508028Y-48652786D01*
X40387715Y-48818386D01*
X40294781Y-49000776D01*
X40231522Y-49195465D01*
X40199500Y-49397648D01*
X36300500Y-49397648D01*
X36272837Y-49222994D01*
X36268477Y-49195465D01*
X36205218Y-49000776D01*
X36171503Y-48934607D01*
X36112287Y-48818390D01*
X36104556Y-48807749D01*
X35991971Y-48652786D01*
X35847213Y-48508028D01*
X35681613Y-48387715D01*
X35681612Y-48387714D01*
X35681610Y-48387713D01*
X35608754Y-48350591D01*
X35499223Y-48294781D01*
X35304534Y-48231522D01*
X35129995Y-48203878D01*
X35102352Y-48199500D01*
X34897648Y-48199500D01*
X34873329Y-48203351D01*
X34695465Y-48231522D01*
X34500776Y-48294781D01*
X34318386Y-48387715D01*
X34152786Y-48508028D01*
X34008028Y-48652786D01*
X33887715Y-48818386D01*
X33794781Y-49000776D01*
X33731522Y-49195465D01*
X33699500Y-49397648D01*
X32800500Y-49397648D01*
X32772837Y-49222994D01*
X32768477Y-49195465D01*
X32752442Y-49146117D01*
X32711803Y-49021044D01*
X32709809Y-48951206D01*
X32742052Y-48895049D01*
X38230489Y-43406614D01*
X38289798Y-43303887D01*
X38289799Y-43303886D01*
X38320500Y-43189309D01*
X38320500Y-41930059D01*
X38340185Y-41863020D01*
X38392989Y-41817265D01*
X38462147Y-41807321D01*
X38517385Y-41829740D01*
X38537006Y-41843996D01*
X38616145Y-41884319D01*
X38698360Y-41926211D01*
X38698363Y-41926212D01*
X38784476Y-41954191D01*
X38870591Y-41982171D01*
X38953429Y-41995291D01*
X39049449Y-42010500D01*
X39049454Y-42010500D01*
X39230551Y-42010500D01*
X39317259Y-41996765D01*
X39409409Y-41982171D01*
X39581639Y-41926211D01*
X39742994Y-41843996D01*
X39889501Y-41737553D01*
X40017553Y-41609501D01*
X40123996Y-41462994D01*
X40206211Y-41301639D01*
X40262171Y-41129409D01*
X40282821Y-40999031D01*
X40287527Y-40969321D01*
X40317456Y-40906186D01*
X40376768Y-40869255D01*
X40446630Y-40870253D01*
X40504863Y-40908863D01*
X40532473Y-40969321D01*
X40557829Y-41129410D01*
X40613787Y-41301636D01*
X40613788Y-41301639D01*
X40696006Y-41462997D01*
X40802441Y-41609494D01*
X40802445Y-41609499D01*
X40930500Y-41737554D01*
X40930505Y-41737558D01*
X41016450Y-41800000D01*
X41077006Y-41843996D01*
X41166750Y-41889723D01*
X41238360Y-41926211D01*
X41238363Y-41926212D01*
X41324476Y-41954191D01*
X41410591Y-41982171D01*
X41493429Y-41995291D01*
X41589449Y-42010500D01*
X41589454Y-42010500D01*
X41770551Y-42010500D01*
X41857259Y-41996765D01*
X41949409Y-41982171D01*
X42121639Y-41926211D01*
X42282994Y-41843996D01*
X42429501Y-41737553D01*
X42557553Y-41609501D01*
X42663996Y-41462994D01*
X42746211Y-41301639D01*
X42802171Y-41129409D01*
X42822821Y-40999031D01*
X42827527Y-40969321D01*
X42857456Y-40906186D01*
X42916768Y-40869255D01*
X42986630Y-40870253D01*
X43044863Y-40908863D01*
X43072473Y-40969321D01*
X43097829Y-41129410D01*
X43153787Y-41301636D01*
X43153788Y-41301639D01*
X43236006Y-41462997D01*
X43342441Y-41609494D01*
X43342445Y-41609499D01*
X43470500Y-41737554D01*
X43470505Y-41737558D01*
X43556450Y-41800000D01*
X43617006Y-41843996D01*
X43706750Y-41889723D01*
X43778360Y-41926211D01*
X43778363Y-41926212D01*
X43864476Y-41954191D01*
X43950591Y-41982171D01*
X44033429Y-41995291D01*
X44129449Y-42010500D01*
X44129454Y-42010500D01*
X44310551Y-42010500D01*
X44397259Y-41996765D01*
X44489409Y-41982171D01*
X44661639Y-41926211D01*
X44822994Y-41843996D01*
X44969501Y-41737553D01*
X45097553Y-41609501D01*
X45203996Y-41462994D01*
X45286211Y-41301639D01*
X45342171Y-41129409D01*
X45362821Y-40999031D01*
X45367527Y-40969321D01*
X45397456Y-40906186D01*
X45456768Y-40869255D01*
X45526630Y-40870253D01*
X45584863Y-40908863D01*
X45612473Y-40969321D01*
X45637829Y-41129410D01*
X45693787Y-41301636D01*
X45693788Y-41301639D01*
X45776006Y-41462997D01*
X45882441Y-41609494D01*
X45882445Y-41609499D01*
X46010500Y-41737554D01*
X46010505Y-41737558D01*
X46096450Y-41800000D01*
X46157006Y-41843996D01*
X46246750Y-41889723D01*
X46318360Y-41926211D01*
X46318363Y-41926212D01*
X46404476Y-41954191D01*
X46490591Y-41982171D01*
X46573429Y-41995291D01*
X46669449Y-42010500D01*
X46669454Y-42010500D01*
X46850551Y-42010500D01*
X46937259Y-41996765D01*
X47029409Y-41982171D01*
X47201639Y-41926211D01*
X47362994Y-41843996D01*
X47509501Y-41737553D01*
X47637553Y-41609501D01*
X47743996Y-41462994D01*
X47826211Y-41301639D01*
X47882171Y-41129409D01*
X47902821Y-40999031D01*
X47907527Y-40969321D01*
X47937456Y-40906186D01*
X47996768Y-40869255D01*
X48066630Y-40870253D01*
X48124863Y-40908863D01*
X48152473Y-40969321D01*
X48177829Y-41129410D01*
X48233787Y-41301636D01*
X48233788Y-41301639D01*
X48316006Y-41462997D01*
X48422441Y-41609494D01*
X48422445Y-41609499D01*
X48550500Y-41737554D01*
X48550505Y-41737558D01*
X48636450Y-41800000D01*
X48697006Y-41843996D01*
X48786750Y-41889723D01*
X48858360Y-41926211D01*
X48858363Y-41926212D01*
X48944476Y-41954191D01*
X49030591Y-41982171D01*
X49113429Y-41995291D01*
X49209449Y-42010500D01*
X49209454Y-42010500D01*
X49390551Y-42010500D01*
X49477259Y-41996765D01*
X49569409Y-41982171D01*
X49741639Y-41926211D01*
X49902994Y-41843996D01*
X50049501Y-41737553D01*
X50177553Y-41609501D01*
X50283996Y-41462994D01*
X50366211Y-41301639D01*
X50422171Y-41129409D01*
X50442821Y-40999031D01*
X50447527Y-40969321D01*
X50477456Y-40906186D01*
X50536768Y-40869255D01*
X50606630Y-40870253D01*
X50664863Y-40908863D01*
X50692473Y-40969321D01*
X50717829Y-41129410D01*
X50773787Y-41301636D01*
X50773788Y-41301639D01*
X50856006Y-41462997D01*
X50962441Y-41609494D01*
X50962445Y-41609499D01*
X51090500Y-41737554D01*
X51090505Y-41737558D01*
X51176450Y-41800000D01*
X51237006Y-41843996D01*
X51326750Y-41889723D01*
X51398360Y-41926211D01*
X51398363Y-41926212D01*
X51484476Y-41954191D01*
X51570591Y-41982171D01*
X51653429Y-41995291D01*
X51749449Y-42010500D01*
X51749454Y-42010500D01*
X51930551Y-42010500D01*
X52017259Y-41996765D01*
X52109409Y-41982171D01*
X52281639Y-41926211D01*
X52442994Y-41843996D01*
X52589501Y-41737553D01*
X52717553Y-41609501D01*
X52823996Y-41462994D01*
X52906211Y-41301639D01*
X52962171Y-41129409D01*
X52982821Y-40999031D01*
X52987527Y-40969321D01*
X53017456Y-40906186D01*
X53076768Y-40869255D01*
X53146630Y-40870253D01*
X53204863Y-40908863D01*
X53232473Y-40969321D01*
X53257829Y-41129410D01*
X53313787Y-41301636D01*
X53313788Y-41301639D01*
X53396006Y-41462997D01*
X53502441Y-41609494D01*
X53502445Y-41609499D01*
X53630500Y-41737554D01*
X53630505Y-41737558D01*
X53716450Y-41800000D01*
X53777006Y-41843996D01*
X53866750Y-41889723D01*
X53938360Y-41926211D01*
X53938363Y-41926212D01*
X54024476Y-41954191D01*
X54110591Y-41982171D01*
X54193429Y-41995291D01*
X54289449Y-42010500D01*
X54289454Y-42010500D01*
X54470551Y-42010500D01*
X54557259Y-41996765D01*
X54649409Y-41982171D01*
X54821639Y-41926211D01*
X54982994Y-41843996D01*
X55129501Y-41737553D01*
X55257553Y-41609501D01*
X55363996Y-41462994D01*
X55446211Y-41301639D01*
X55502171Y-41129409D01*
X55522821Y-40999031D01*
X55527527Y-40969321D01*
X55557456Y-40906186D01*
X55616768Y-40869255D01*
X55686630Y-40870253D01*
X55744863Y-40908863D01*
X55772473Y-40969321D01*
X55797829Y-41129410D01*
X55853787Y-41301636D01*
X55853788Y-41301639D01*
X55936006Y-41462997D01*
X56042441Y-41609494D01*
X56042445Y-41609499D01*
X56170500Y-41737554D01*
X56170505Y-41737558D01*
X56256450Y-41800000D01*
X56317006Y-41843996D01*
X56406750Y-41889723D01*
X56478360Y-41926211D01*
X56478363Y-41926212D01*
X56650584Y-41982169D01*
X56650585Y-41982169D01*
X56650591Y-41982171D01*
X56695399Y-41989267D01*
X56758531Y-42019195D01*
X56795463Y-42078506D01*
X56800000Y-42111740D01*
X56800000Y-42560000D01*
X60155400Y-42560000D01*
X60222439Y-42579685D01*
X60268194Y-42632489D01*
X60279400Y-42684000D01*
X60279400Y-45205811D01*
X60289177Y-45242296D01*
X60289177Y-45242298D01*
X60289178Y-45242298D01*
X60289178Y-45242299D01*
X60310101Y-45320387D01*
X60366287Y-45417704D01*
X60382900Y-45479703D01*
X60382900Y-45568993D01*
X60382900Y-45568995D01*
X60382899Y-45568995D01*
X60409818Y-45704322D01*
X60409821Y-45704332D01*
X60462621Y-45831804D01*
X60462628Y-45831817D01*
X60539285Y-45946541D01*
X60539288Y-45946545D01*
X60636854Y-46044111D01*
X60636858Y-46044114D01*
X60751582Y-46120771D01*
X60751595Y-46120778D01*
X60871747Y-46170546D01*
X60879072Y-46173580D01*
X60879076Y-46173580D01*
X60879077Y-46173581D01*
X61014404Y-46200500D01*
X61014407Y-46200500D01*
X61152395Y-46200500D01*
X61243441Y-46182389D01*
X61287728Y-46173580D01*
X61415211Y-46120775D01*
X61529942Y-46044114D01*
X61627514Y-45946542D01*
X61704175Y-45831811D01*
X61756980Y-45704328D01*
X61783900Y-45568993D01*
X61783900Y-45431007D01*
X61783900Y-45431004D01*
X61756981Y-45295677D01*
X61756980Y-45295676D01*
X61756980Y-45295672D01*
X61734874Y-45242302D01*
X61704178Y-45168195D01*
X61704171Y-45168182D01*
X61627514Y-45053458D01*
X61627511Y-45053454D01*
X61529945Y-44955888D01*
X61529941Y-44955885D01*
X61415217Y-44879228D01*
X61415204Y-44879221D01*
X61287730Y-44826420D01*
X61287720Y-44826417D01*
X61280203Y-44824922D01*
X61218293Y-44792534D01*
X61183722Y-44731817D01*
X61180400Y-44703306D01*
X61180400Y-42684000D01*
X61200085Y-42616961D01*
X61252889Y-42571206D01*
X61304400Y-42560000D01*
X63900000Y-42560000D01*
X63900000Y-34336465D01*
X63919685Y-34269426D01*
X63972489Y-34223671D01*
X64041647Y-34213727D01*
X64105203Y-34242752D01*
X64111681Y-34248784D01*
X64916665Y-35053768D01*
X64950150Y-35115091D01*
X64946915Y-35179767D01*
X64926598Y-35242294D01*
X64926598Y-35242297D01*
X64899500Y-35413389D01*
X64899500Y-35586610D01*
X64921259Y-35723996D01*
X64926598Y-35757701D01*
X64980127Y-35922445D01*
X65058768Y-36076788D01*
X65160586Y-36216928D01*
X65283072Y-36339414D01*
X65423212Y-36441232D01*
X65577555Y-36519873D01*
X65742299Y-36573402D01*
X65913389Y-36600500D01*
X65913390Y-36600500D01*
X66086610Y-36600500D01*
X66086611Y-36600500D01*
X66257701Y-36573402D01*
X66422445Y-36519873D01*
X66576788Y-36441232D01*
X66716928Y-36339414D01*
X66839414Y-36216928D01*
X66941232Y-36076788D01*
X67019873Y-35922445D01*
X67073402Y-35757701D01*
X67100500Y-35586611D01*
X67100500Y-35413389D01*
X67100500Y-35413388D01*
X67100118Y-35408538D01*
X67102201Y-35408373D01*
X67110012Y-35347769D01*
X67154990Y-35294302D01*
X67221734Y-35273638D01*
X67289054Y-35292340D01*
X67311229Y-35309944D01*
X68844413Y-36843120D01*
X68877898Y-36904443D01*
X68872914Y-36974134D01*
X68844413Y-37018482D01*
X66446230Y-39416665D01*
X66384907Y-39450150D01*
X66320232Y-39446915D01*
X66257702Y-39426598D01*
X66257698Y-39426597D01*
X66126271Y-39405781D01*
X66086611Y-39399500D01*
X65913389Y-39399500D01*
X65873728Y-39405781D01*
X65742302Y-39426597D01*
X65577552Y-39480128D01*
X65423211Y-39558768D01*
X65386150Y-39585695D01*
X65283072Y-39660586D01*
X65283070Y-39660588D01*
X65283069Y-39660588D01*
X65160588Y-39783069D01*
X65160588Y-39783070D01*
X65160586Y-39783072D01*
X65134737Y-39818650D01*
X65058768Y-39923211D01*
X64980128Y-40077552D01*
X64926597Y-40242302D01*
X64910841Y-40341782D01*
X64899500Y-40413389D01*
X64899500Y-40586611D01*
X64907677Y-40638239D01*
X64925485Y-40750678D01*
X64926598Y-40757701D01*
X64980127Y-40922445D01*
X65058768Y-41076788D01*
X65160586Y-41216928D01*
X65283072Y-41339414D01*
X65423212Y-41441232D01*
X65577555Y-41519873D01*
X65742299Y-41573402D01*
X65913389Y-41600500D01*
X65913390Y-41600500D01*
X66086610Y-41600500D01*
X66086611Y-41600500D01*
X66176568Y-41586252D01*
X66245860Y-41595206D01*
X66299312Y-41640203D01*
X66319952Y-41706954D01*
X66301227Y-41774268D01*
X66283646Y-41796406D01*
X55266871Y-52813181D01*
X55205548Y-52846666D01*
X55179190Y-52849500D01*
X54105143Y-52849500D01*
X54105117Y-52849502D01*
X54080012Y-52852413D01*
X54080008Y-52852415D01*
X53977235Y-52897793D01*
X53897794Y-52977234D01*
X53852415Y-53080006D01*
X53852415Y-53080008D01*
X53849500Y-53105131D01*
X53849500Y-54894856D01*
X53849502Y-54894882D01*
X53852413Y-54919987D01*
X53852415Y-54919991D01*
X53897793Y-55022764D01*
X53897794Y-55022765D01*
X53977235Y-55102206D01*
X54080009Y-55147585D01*
X54105135Y-55150500D01*
X55894864Y-55150499D01*
X55894879Y-55150497D01*
X55894882Y-55150497D01*
X55919987Y-55147586D01*
X55919988Y-55147585D01*
X55919991Y-55147585D01*
X56022765Y-55102206D01*
X56102206Y-55022765D01*
X56147585Y-54919991D01*
X56150500Y-54894865D01*
X56150499Y-54157124D01*
X56170183Y-54090087D01*
X56222987Y-54044332D01*
X56292146Y-54034388D01*
X56355702Y-54063413D01*
X56393476Y-54122191D01*
X56396972Y-54137728D01*
X56417829Y-54269410D01*
X56473787Y-54441636D01*
X56473788Y-54441639D01*
X56529002Y-54550000D01*
X56548513Y-54588293D01*
X56556006Y-54602997D01*
X56662441Y-54749494D01*
X56662445Y-54749499D01*
X56790500Y-54877554D01*
X56790505Y-54877558D01*
X56900361Y-54957372D01*
X56937006Y-54983996D01*
X57013094Y-55022765D01*
X57098360Y-55066211D01*
X57098363Y-55066212D01*
X57170131Y-55089530D01*
X57270591Y-55122171D01*
X57353429Y-55135291D01*
X57449449Y-55150500D01*
X57449454Y-55150500D01*
X57630551Y-55150500D01*
X57717259Y-55136765D01*
X57809409Y-55122171D01*
X57981639Y-55066211D01*
X58142994Y-54983996D01*
X58261573Y-54897844D01*
X58289495Y-54877558D01*
X58289497Y-54877555D01*
X58289501Y-54877553D01*
X58417553Y-54749501D01*
X58523996Y-54602994D01*
X58591090Y-54471314D01*
X58639065Y-54420519D01*
X58706886Y-54403724D01*
X58773021Y-54426262D01*
X58816472Y-54480977D01*
X58819506Y-54489292D01*
X58828904Y-54518217D01*
X58925375Y-54707550D01*
X58964728Y-54761716D01*
X59597037Y-54129408D01*
X59614075Y-54192993D01*
X59679901Y-54307007D01*
X59772993Y-54400099D01*
X59887007Y-54465925D01*
X59950590Y-54482962D01*
X59318282Y-55115269D01*
X59318282Y-55115270D01*
X59372449Y-55154624D01*
X59561782Y-55251095D01*
X59763870Y-55316757D01*
X59973754Y-55350000D01*
X60186246Y-55350000D01*
X60396127Y-55316757D01*
X60396130Y-55316757D01*
X60598217Y-55251095D01*
X60787554Y-55154622D01*
X60841716Y-55115270D01*
X60841717Y-55115270D01*
X60209408Y-54482962D01*
X60272993Y-54465925D01*
X60387007Y-54400099D01*
X60480099Y-54307007D01*
X60545925Y-54192993D01*
X60562962Y-54129408D01*
X61195270Y-54761717D01*
X61195270Y-54761716D01*
X61234622Y-54707554D01*
X61331095Y-54518217D01*
X61396757Y-54316130D01*
X61396757Y-54316127D01*
X61418439Y-54179240D01*
X61430000Y-54106246D01*
X61430000Y-53893753D01*
X61396757Y-53683872D01*
X61396757Y-53683869D01*
X61331095Y-53481782D01*
X61234624Y-53292449D01*
X61195270Y-53238282D01*
X61195269Y-53238282D01*
X60562962Y-53870590D01*
X60545925Y-53807007D01*
X60480099Y-53692993D01*
X60387007Y-53599901D01*
X60272993Y-53534075D01*
X60209409Y-53517037D01*
X60715275Y-53011170D01*
X60841716Y-52884728D01*
X60787550Y-52845375D01*
X60598217Y-52748904D01*
X60396129Y-52683242D01*
X60186246Y-52650000D01*
X59973754Y-52650000D01*
X59763872Y-52683242D01*
X59763869Y-52683242D01*
X59561782Y-52748904D01*
X59372439Y-52845380D01*
X59318282Y-52884727D01*
X59318282Y-52884728D01*
X59950591Y-53517037D01*
X59887007Y-53534075D01*
X59772993Y-53599901D01*
X59679901Y-53692993D01*
X59614075Y-53807007D01*
X59597037Y-53870591D01*
X58964728Y-53238282D01*
X58964727Y-53238282D01*
X58925380Y-53292439D01*
X58828905Y-53481781D01*
X58819506Y-53510708D01*
X58780068Y-53568383D01*
X58715709Y-53595581D01*
X58646862Y-53583666D01*
X58595387Y-53536421D01*
X58591090Y-53528684D01*
X58550998Y-53450000D01*
X58523996Y-53397006D01*
X58505681Y-53371797D01*
X58417558Y-53250505D01*
X58417554Y-53250500D01*
X58289499Y-53122445D01*
X58289494Y-53122441D01*
X58165432Y-53032305D01*
X58142996Y-53016005D01*
X57981639Y-52933788D01*
X57981636Y-52933787D01*
X57809410Y-52877829D01*
X57630551Y-52849500D01*
X57630546Y-52849500D01*
X57449454Y-52849500D01*
X57376052Y-52861125D01*
X57306758Y-52852169D01*
X57253307Y-52807172D01*
X57232668Y-52740421D01*
X57251393Y-52673107D01*
X57268970Y-52650975D01*
X64703595Y-45216350D01*
X64764917Y-45182866D01*
X64834609Y-45187850D01*
X64890542Y-45229722D01*
X64914959Y-45295186D01*
X64913748Y-45323430D01*
X64899500Y-45413389D01*
X64899500Y-45586610D01*
X64920656Y-45720188D01*
X64926598Y-45757701D01*
X64980127Y-45922445D01*
X65058768Y-46076788D01*
X65160586Y-46216928D01*
X65283072Y-46339414D01*
X65423212Y-46441232D01*
X65577555Y-46519873D01*
X65742299Y-46573402D01*
X65913389Y-46600500D01*
X65913390Y-46600500D01*
X65965500Y-46600500D01*
X66032539Y-46620185D01*
X66078294Y-46672989D01*
X66089500Y-46724500D01*
X66089500Y-52862316D01*
X66069815Y-52929355D01*
X66021796Y-52972800D01*
X65937004Y-53016004D01*
X65790505Y-53122441D01*
X65790500Y-53122445D01*
X65662445Y-53250500D01*
X65662441Y-53250505D01*
X65574318Y-53371797D01*
X65518988Y-53414463D01*
X65449375Y-53420442D01*
X65387580Y-53387836D01*
X65353223Y-53326998D01*
X65350000Y-53298912D01*
X65350000Y-53102172D01*
X65349999Y-53102155D01*
X65343598Y-53042627D01*
X65343596Y-53042620D01*
X65293354Y-52907913D01*
X65293350Y-52907906D01*
X65207190Y-52792812D01*
X65207187Y-52792809D01*
X65092093Y-52706649D01*
X65092086Y-52706645D01*
X64957379Y-52656403D01*
X64957372Y-52656401D01*
X64897844Y-52650000D01*
X64250000Y-52650000D01*
X64250000Y-53566988D01*
X64192993Y-53534075D01*
X64065826Y-53500000D01*
X63934174Y-53500000D01*
X63807007Y-53534075D01*
X63750000Y-53566988D01*
X63750000Y-52650000D01*
X63102155Y-52650000D01*
X63042627Y-52656401D01*
X63042620Y-52656403D01*
X62907913Y-52706645D01*
X62907906Y-52706649D01*
X62792812Y-52792809D01*
X62792809Y-52792812D01*
X62706649Y-52907906D01*
X62706645Y-52907913D01*
X62656403Y-53042620D01*
X62656401Y-53042627D01*
X62650000Y-53102155D01*
X62650000Y-53750000D01*
X63566988Y-53750000D01*
X63534075Y-53807007D01*
X63500000Y-53934174D01*
X63500000Y-54065826D01*
X63534075Y-54192993D01*
X63566988Y-54250000D01*
X62650000Y-54250000D01*
X62650000Y-54897844D01*
X62656401Y-54957372D01*
X62656403Y-54957379D01*
X62706645Y-55092086D01*
X62706649Y-55092093D01*
X62792809Y-55207187D01*
X62792812Y-55207190D01*
X62907906Y-55293350D01*
X62907913Y-55293354D01*
X63042620Y-55343596D01*
X63042627Y-55343598D01*
X63102155Y-55349999D01*
X63102172Y-55350000D01*
X63750000Y-55350000D01*
X63750000Y-54433012D01*
X63807007Y-54465925D01*
X63934174Y-54500000D01*
X64065826Y-54500000D01*
X64192993Y-54465925D01*
X64250000Y-54433012D01*
X64250000Y-55350000D01*
X64897828Y-55350000D01*
X64897844Y-55349999D01*
X64957372Y-55343598D01*
X64957379Y-55343596D01*
X65092086Y-55293354D01*
X65092093Y-55293350D01*
X65207187Y-55207190D01*
X65207190Y-55207187D01*
X65293350Y-55092093D01*
X65293354Y-55092086D01*
X65343596Y-54957379D01*
X65343598Y-54957372D01*
X65349999Y-54897844D01*
X65350000Y-54897827D01*
X65350000Y-54701087D01*
X65369685Y-54634048D01*
X65422489Y-54588293D01*
X65491647Y-54578349D01*
X65555203Y-54607374D01*
X65574318Y-54628202D01*
X65662441Y-54749495D01*
X65790500Y-54877554D01*
X65790505Y-54877558D01*
X65900361Y-54957372D01*
X65937006Y-54983996D01*
X66013094Y-55022765D01*
X66098360Y-55066211D01*
X66098363Y-55066212D01*
X66170131Y-55089530D01*
X66270591Y-55122171D01*
X66353429Y-55135291D01*
X66449449Y-55150500D01*
X66449454Y-55150500D01*
X66630551Y-55150500D01*
X66717259Y-55136765D01*
X66809409Y-55122171D01*
X66981639Y-55066211D01*
X67142994Y-54983996D01*
X67289501Y-54877553D01*
X67417553Y-54749501D01*
X67523996Y-54602994D01*
X67606211Y-54441639D01*
X67662171Y-54269409D01*
X67679955Y-54157126D01*
X67687527Y-54109321D01*
X67717456Y-54046186D01*
X67776768Y-54009255D01*
X67846630Y-54010253D01*
X67904863Y-54048863D01*
X67932473Y-54109321D01*
X67957829Y-54269410D01*
X68013787Y-54441636D01*
X68013788Y-54441639D01*
X68069002Y-54550000D01*
X68088513Y-54588293D01*
X68096006Y-54602997D01*
X68202441Y-54749494D01*
X68202445Y-54749499D01*
X68330500Y-54877554D01*
X68330505Y-54877558D01*
X68440361Y-54957372D01*
X68477006Y-54983996D01*
X68553094Y-55022765D01*
X68638360Y-55066211D01*
X68638363Y-55066212D01*
X68710131Y-55089530D01*
X68810591Y-55122171D01*
X68893429Y-55135291D01*
X68989449Y-55150500D01*
X68989454Y-55150500D01*
X69170551Y-55150500D01*
X69257259Y-55136765D01*
X69349409Y-55122171D01*
X69521639Y-55066211D01*
X69682994Y-54983996D01*
X69829501Y-54877553D01*
X69957553Y-54749501D01*
X70063996Y-54602994D01*
X70146211Y-54441639D01*
X70202171Y-54269409D01*
X70205245Y-54250000D01*
X70216453Y-54179240D01*
X70230500Y-54090551D01*
X70230500Y-53909448D01*
X70202171Y-53730592D01*
X70202170Y-53730589D01*
X70172763Y-53640083D01*
X70170769Y-53570245D01*
X70203012Y-53514089D01*
X73492322Y-50224780D01*
X73553641Y-50191298D01*
X73623333Y-50196282D01*
X73667680Y-50224783D01*
X76233480Y-52790583D01*
X76266965Y-52851906D01*
X76261981Y-52921598D01*
X76220109Y-52977531D01*
X76154645Y-53001948D01*
X76089504Y-52988749D01*
X75981639Y-52933788D01*
X75981636Y-52933787D01*
X75809410Y-52877829D01*
X75630551Y-52849500D01*
X75630546Y-52849500D01*
X75449454Y-52849500D01*
X75449449Y-52849500D01*
X75270589Y-52877829D01*
X75098363Y-52933787D01*
X75098360Y-52933788D01*
X74937002Y-53016006D01*
X74790505Y-53122441D01*
X74790500Y-53122445D01*
X74662445Y-53250500D01*
X74662441Y-53250505D01*
X74574318Y-53371797D01*
X74518988Y-53414463D01*
X74449375Y-53420442D01*
X74387580Y-53387836D01*
X74353223Y-53326998D01*
X74350000Y-53298912D01*
X74350000Y-53102172D01*
X74349999Y-53102155D01*
X74343598Y-53042627D01*
X74343596Y-53042620D01*
X74293354Y-52907913D01*
X74293350Y-52907906D01*
X74207190Y-52792812D01*
X74207187Y-52792809D01*
X74092093Y-52706649D01*
X74092086Y-52706645D01*
X73957379Y-52656403D01*
X73957372Y-52656401D01*
X73897844Y-52650000D01*
X73250000Y-52650000D01*
X73250000Y-53566988D01*
X73192993Y-53534075D01*
X73065826Y-53500000D01*
X72934174Y-53500000D01*
X72807007Y-53534075D01*
X72750000Y-53566988D01*
X72750000Y-52650000D01*
X72102155Y-52650000D01*
X72042627Y-52656401D01*
X72042620Y-52656403D01*
X71907913Y-52706645D01*
X71907906Y-52706649D01*
X71792812Y-52792809D01*
X71792809Y-52792812D01*
X71706649Y-52907906D01*
X71706645Y-52907913D01*
X71656403Y-53042620D01*
X71656401Y-53042627D01*
X71650000Y-53102155D01*
X71650000Y-53750000D01*
X72566988Y-53750000D01*
X72534075Y-53807007D01*
X72500000Y-53934174D01*
X72500000Y-54065826D01*
X72534075Y-54192993D01*
X72566988Y-54250000D01*
X71650000Y-54250000D01*
X71650000Y-54897844D01*
X71656401Y-54957372D01*
X71656403Y-54957379D01*
X71706645Y-55092086D01*
X71706649Y-55092093D01*
X71792809Y-55207187D01*
X71792812Y-55207190D01*
X71907906Y-55293350D01*
X71907913Y-55293354D01*
X72042620Y-55343596D01*
X72042627Y-55343598D01*
X72102155Y-55349999D01*
X72102172Y-55350000D01*
X72750000Y-55350000D01*
X72750000Y-54433012D01*
X72807007Y-54465925D01*
X72934174Y-54500000D01*
X73065826Y-54500000D01*
X73192993Y-54465925D01*
X73250000Y-54433012D01*
X73250000Y-55350000D01*
X73897828Y-55350000D01*
X73897844Y-55349999D01*
X73957372Y-55343598D01*
X73957379Y-55343596D01*
X74092086Y-55293354D01*
X74092093Y-55293350D01*
X74207187Y-55207190D01*
X74207190Y-55207187D01*
X74293350Y-55092093D01*
X74293354Y-55092086D01*
X74343596Y-54957379D01*
X74343598Y-54957372D01*
X74349999Y-54897844D01*
X74350000Y-54897827D01*
X74350000Y-54701087D01*
X74369685Y-54634048D01*
X74422489Y-54588293D01*
X74491647Y-54578349D01*
X74555203Y-54607374D01*
X74574318Y-54628202D01*
X74662441Y-54749495D01*
X74790500Y-54877554D01*
X74790505Y-54877558D01*
X74900361Y-54957372D01*
X74937006Y-54983996D01*
X75013094Y-55022765D01*
X75098360Y-55066211D01*
X75098363Y-55066212D01*
X75170131Y-55089530D01*
X75270591Y-55122171D01*
X75353429Y-55135291D01*
X75449449Y-55150500D01*
X75449454Y-55150500D01*
X75630551Y-55150500D01*
X75717259Y-55136765D01*
X75809409Y-55122171D01*
X75981639Y-55066211D01*
X76142994Y-54983996D01*
X76289501Y-54877553D01*
X76417553Y-54749501D01*
X76523996Y-54602994D01*
X76606211Y-54441639D01*
X76662171Y-54269409D01*
X76679955Y-54157126D01*
X76687527Y-54109321D01*
X76717456Y-54046186D01*
X76776768Y-54009255D01*
X76846630Y-54010253D01*
X76904863Y-54048863D01*
X76932473Y-54109321D01*
X76957829Y-54269410D01*
X77013787Y-54441636D01*
X77013788Y-54441639D01*
X77069002Y-54550000D01*
X77088513Y-54588293D01*
X77096006Y-54602997D01*
X77202441Y-54749494D01*
X77202445Y-54749499D01*
X77330500Y-54877554D01*
X77330505Y-54877558D01*
X77440361Y-54957372D01*
X77477006Y-54983996D01*
X77553094Y-55022765D01*
X77638360Y-55066211D01*
X77638363Y-55066212D01*
X77710131Y-55089530D01*
X77810591Y-55122171D01*
X77893429Y-55135291D01*
X77989449Y-55150500D01*
X77989454Y-55150500D01*
X78170551Y-55150500D01*
X78257259Y-55136765D01*
X78349409Y-55122171D01*
X78521639Y-55066211D01*
X78682994Y-54983996D01*
X78829501Y-54877553D01*
X78957553Y-54749501D01*
X79063996Y-54602994D01*
X79146211Y-54441639D01*
X79202171Y-54269409D01*
X79205245Y-54250000D01*
X79216453Y-54179240D01*
X79230500Y-54090551D01*
X79230500Y-53909448D01*
X79205245Y-53750000D01*
X79202171Y-53730591D01*
X79158530Y-53596275D01*
X79146212Y-53558363D01*
X79146211Y-53558360D01*
X79091250Y-53450495D01*
X79063996Y-53397006D01*
X79045681Y-53371797D01*
X78957558Y-53250505D01*
X78957554Y-53250500D01*
X78829499Y-53122445D01*
X78829494Y-53122441D01*
X78801572Y-53102155D01*
X80650000Y-53102155D01*
X80650000Y-53750000D01*
X81566988Y-53750000D01*
X81534075Y-53807007D01*
X81500000Y-53934174D01*
X81500000Y-54065826D01*
X81534075Y-54192993D01*
X81566988Y-54250000D01*
X80650000Y-54250000D01*
X80650000Y-54897844D01*
X80656401Y-54957372D01*
X80656403Y-54957379D01*
X80706645Y-55092086D01*
X80706649Y-55092093D01*
X80792809Y-55207187D01*
X80792812Y-55207190D01*
X80907906Y-55293350D01*
X80907913Y-55293354D01*
X81042620Y-55343596D01*
X81042627Y-55343598D01*
X81102155Y-55349999D01*
X81102172Y-55350000D01*
X81750000Y-55350000D01*
X81750000Y-54433012D01*
X81807007Y-54465925D01*
X81934174Y-54500000D01*
X82065826Y-54500000D01*
X82192993Y-54465925D01*
X82250000Y-54433012D01*
X82250000Y-55350000D01*
X82897828Y-55350000D01*
X82897844Y-55349999D01*
X82957372Y-55343598D01*
X82957379Y-55343596D01*
X83092086Y-55293354D01*
X83092093Y-55293350D01*
X83207187Y-55207190D01*
X83207190Y-55207187D01*
X83293350Y-55092093D01*
X83293354Y-55092086D01*
X83343596Y-54957379D01*
X83343598Y-54957372D01*
X83349999Y-54897844D01*
X83350000Y-54897827D01*
X83350000Y-54701087D01*
X83369685Y-54634048D01*
X83422489Y-54588293D01*
X83491647Y-54578349D01*
X83555203Y-54607374D01*
X83574318Y-54628202D01*
X83662441Y-54749495D01*
X83790500Y-54877554D01*
X83790505Y-54877558D01*
X83900361Y-54957372D01*
X83937006Y-54983996D01*
X84013094Y-55022765D01*
X84098360Y-55066211D01*
X84098363Y-55066212D01*
X84170131Y-55089530D01*
X84270591Y-55122171D01*
X84353429Y-55135291D01*
X84449449Y-55150500D01*
X84449454Y-55150500D01*
X84630551Y-55150500D01*
X84717259Y-55136765D01*
X84809409Y-55122171D01*
X84981639Y-55066211D01*
X85142994Y-54983996D01*
X85289501Y-54877553D01*
X85417553Y-54749501D01*
X85523996Y-54602994D01*
X85606211Y-54441639D01*
X85662171Y-54269409D01*
X85679955Y-54157126D01*
X85687527Y-54109321D01*
X85717456Y-54046186D01*
X85776768Y-54009255D01*
X85846630Y-54010253D01*
X85904863Y-54048863D01*
X85932473Y-54109321D01*
X85957829Y-54269410D01*
X86013787Y-54441636D01*
X86013788Y-54441639D01*
X86069002Y-54550000D01*
X86088513Y-54588293D01*
X86096006Y-54602997D01*
X86202441Y-54749494D01*
X86202445Y-54749499D01*
X86330500Y-54877554D01*
X86330505Y-54877558D01*
X86440361Y-54957372D01*
X86477006Y-54983996D01*
X86553094Y-55022765D01*
X86638360Y-55066211D01*
X86638363Y-55066212D01*
X86710131Y-55089530D01*
X86810591Y-55122171D01*
X86893429Y-55135291D01*
X86989449Y-55150500D01*
X86989454Y-55150500D01*
X87170551Y-55150500D01*
X87257259Y-55136765D01*
X87349409Y-55122171D01*
X87521639Y-55066211D01*
X87682994Y-54983996D01*
X87829501Y-54877553D01*
X87957553Y-54749501D01*
X88063996Y-54602994D01*
X88146211Y-54441639D01*
X88202171Y-54269409D01*
X88219955Y-54157126D01*
X88227527Y-54109321D01*
X88257456Y-54046186D01*
X88316768Y-54009255D01*
X88386630Y-54010253D01*
X88444863Y-54048863D01*
X88472473Y-54109321D01*
X88497829Y-54269410D01*
X88553787Y-54441636D01*
X88553788Y-54441639D01*
X88609002Y-54550000D01*
X88628513Y-54588293D01*
X88636006Y-54602997D01*
X88742441Y-54749494D01*
X88742445Y-54749499D01*
X88870500Y-54877554D01*
X88870505Y-54877558D01*
X88980361Y-54957372D01*
X89017006Y-54983996D01*
X89093094Y-55022765D01*
X89178360Y-55066211D01*
X89178363Y-55066212D01*
X89250131Y-55089530D01*
X89350591Y-55122171D01*
X89433429Y-55135291D01*
X89529449Y-55150500D01*
X89529454Y-55150500D01*
X89710551Y-55150500D01*
X89797259Y-55136765D01*
X89889409Y-55122171D01*
X90061639Y-55066211D01*
X90222994Y-54983996D01*
X90369501Y-54877553D01*
X90497553Y-54749501D01*
X90603996Y-54602994D01*
X90686211Y-54441639D01*
X90742171Y-54269409D01*
X90763027Y-54137728D01*
X90770500Y-54090551D01*
X90770500Y-53909448D01*
X90745245Y-53750000D01*
X90742171Y-53730591D01*
X90698530Y-53596275D01*
X90686212Y-53558363D01*
X90686211Y-53558360D01*
X90631250Y-53450495D01*
X90603996Y-53397006D01*
X90585681Y-53371797D01*
X90497558Y-53250505D01*
X90497554Y-53250500D01*
X90369499Y-53122445D01*
X90369494Y-53122441D01*
X90222997Y-53016006D01*
X90222996Y-53016005D01*
X90222994Y-53016004D01*
X90146906Y-52977235D01*
X90061639Y-52933788D01*
X90061636Y-52933787D01*
X89889410Y-52877829D01*
X89710551Y-52849500D01*
X89710546Y-52849500D01*
X89529454Y-52849500D01*
X89529449Y-52849500D01*
X89350589Y-52877829D01*
X89178363Y-52933787D01*
X89178360Y-52933788D01*
X89017002Y-53016006D01*
X88870505Y-53122441D01*
X88870500Y-53122445D01*
X88742445Y-53250500D01*
X88742441Y-53250505D01*
X88636006Y-53397002D01*
X88553788Y-53558360D01*
X88553787Y-53558363D01*
X88497829Y-53730589D01*
X88472473Y-53890678D01*
X88442544Y-53953813D01*
X88383232Y-53990744D01*
X88313369Y-53989746D01*
X88255137Y-53951136D01*
X88227527Y-53890678D01*
X88205245Y-53750000D01*
X88202171Y-53730591D01*
X88158530Y-53596275D01*
X88146212Y-53558363D01*
X88146211Y-53558360D01*
X88091250Y-53450495D01*
X88063996Y-53397006D01*
X88045681Y-53371797D01*
X87957558Y-53250505D01*
X87957554Y-53250500D01*
X87829499Y-53122445D01*
X87829494Y-53122441D01*
X87682997Y-53016006D01*
X87682996Y-53016005D01*
X87682994Y-53016004D01*
X87606906Y-52977235D01*
X87521639Y-52933788D01*
X87521636Y-52933787D01*
X87349410Y-52877829D01*
X87170551Y-52849500D01*
X87170546Y-52849500D01*
X86989454Y-52849500D01*
X86989449Y-52849500D01*
X86916052Y-52861125D01*
X86846759Y-52852170D01*
X86793307Y-52807174D01*
X86772667Y-52740423D01*
X86791392Y-52673109D01*
X86808973Y-52650971D01*
X87169929Y-52290016D01*
X87750876Y-51709069D01*
X87822065Y-51602527D01*
X87871101Y-51484144D01*
X87896100Y-51358469D01*
X87896100Y-23236791D01*
X90293400Y-23236791D01*
X90293400Y-37819809D01*
X90301655Y-37850616D01*
X90315357Y-37901755D01*
X90315364Y-37901778D01*
X90315367Y-37901789D01*
X90324101Y-37934387D01*
X90383411Y-38037114D01*
X90383413Y-38037116D01*
X91784616Y-39438319D01*
X91818101Y-39499642D01*
X91813117Y-39569334D01*
X91771245Y-39625267D01*
X91705781Y-39649684D01*
X91696935Y-39650000D01*
X91102155Y-39650000D01*
X91042627Y-39656401D01*
X91042620Y-39656403D01*
X90907913Y-39706645D01*
X90907906Y-39706649D01*
X90792812Y-39792809D01*
X90792809Y-39792812D01*
X90706649Y-39907906D01*
X90706645Y-39907913D01*
X90656403Y-40042620D01*
X90656401Y-40042627D01*
X90650000Y-40102155D01*
X90650000Y-40750000D01*
X91566988Y-40750000D01*
X91534075Y-40807007D01*
X91500000Y-40934174D01*
X91500000Y-41065826D01*
X91534075Y-41192993D01*
X91566988Y-41250000D01*
X90650000Y-41250000D01*
X90650000Y-41897844D01*
X90656401Y-41957372D01*
X90656403Y-41957379D01*
X90706645Y-42092086D01*
X90706649Y-42092093D01*
X90792809Y-42207187D01*
X90792812Y-42207190D01*
X90907906Y-42293350D01*
X90907913Y-42293354D01*
X91042620Y-42343596D01*
X91042627Y-42343598D01*
X91102155Y-42349999D01*
X91102172Y-42350000D01*
X91298913Y-42350000D01*
X91365952Y-42369685D01*
X91411707Y-42422489D01*
X91421651Y-42491647D01*
X91392626Y-42555203D01*
X91371798Y-42574318D01*
X91250504Y-42662441D01*
X91122445Y-42790500D01*
X91122441Y-42790505D01*
X91016006Y-42937002D01*
X90933788Y-43098360D01*
X90933787Y-43098363D01*
X90877829Y-43270589D01*
X90849500Y-43449448D01*
X90849500Y-43630551D01*
X90877829Y-43809410D01*
X90933787Y-43981636D01*
X90933788Y-43981639D01*
X91016006Y-44142997D01*
X91122441Y-44289494D01*
X91122445Y-44289499D01*
X91250500Y-44417554D01*
X91250505Y-44417558D01*
X91378287Y-44510396D01*
X91397006Y-44523996D01*
X91502484Y-44577740D01*
X91558360Y-44606211D01*
X91558363Y-44606212D01*
X91644476Y-44634191D01*
X91730591Y-44662171D01*
X91803639Y-44673740D01*
X91890678Y-44687527D01*
X91953813Y-44717456D01*
X91990744Y-44776768D01*
X91989746Y-44846631D01*
X91951136Y-44904863D01*
X91890678Y-44932473D01*
X91730589Y-44957829D01*
X91558363Y-45013787D01*
X91558360Y-45013788D01*
X91397002Y-45096006D01*
X91250505Y-45202441D01*
X91250500Y-45202445D01*
X91122445Y-45330500D01*
X91122441Y-45330505D01*
X91016006Y-45477002D01*
X90933788Y-45638360D01*
X90933787Y-45638363D01*
X90877829Y-45810589D01*
X90849500Y-45989448D01*
X90849500Y-46170551D01*
X90877829Y-46349409D01*
X90877830Y-46349416D01*
X90907234Y-46439913D01*
X90909229Y-46509754D01*
X90876984Y-46565911D01*
X90394013Y-47048883D01*
X90394009Y-47048889D01*
X90334701Y-47151612D01*
X90334700Y-47151617D01*
X90304000Y-47266191D01*
X90304000Y-49194509D01*
X90311632Y-49222990D01*
X90311633Y-49222994D01*
X90334701Y-49309088D01*
X90345847Y-49328393D01*
X90394011Y-49411814D01*
X91167386Y-50185189D01*
X91270113Y-50244499D01*
X91294321Y-50250984D01*
X91294324Y-50250986D01*
X91294325Y-50250986D01*
X91324447Y-50259057D01*
X91384691Y-50275200D01*
X91384693Y-50275200D01*
X92588008Y-50275200D01*
X92588009Y-50275200D01*
X92678373Y-50250986D01*
X92702587Y-50244499D01*
X92805314Y-50185189D01*
X94619990Y-48370514D01*
X94663715Y-48294780D01*
X94679298Y-48267789D01*
X94679299Y-48267786D01*
X94681363Y-48260085D01*
X94697596Y-48199500D01*
X94710000Y-48153209D01*
X94710000Y-26780191D01*
X94679299Y-26665614D01*
X94679295Y-26665607D01*
X94619994Y-26562893D01*
X94619988Y-26562885D01*
X93123015Y-25065912D01*
X93089530Y-25004589D01*
X93092765Y-24939913D01*
X93098193Y-24923207D01*
X93122171Y-24849409D01*
X93136765Y-24757259D01*
X93150500Y-24670551D01*
X93150500Y-24489448D01*
X93134019Y-24385397D01*
X93122171Y-24310591D01*
X93066211Y-24138361D01*
X93066211Y-24138360D01*
X93037740Y-24082484D01*
X92983996Y-23977006D01*
X92970396Y-23958287D01*
X92877558Y-23830505D01*
X92877554Y-23830500D01*
X92749499Y-23702445D01*
X92749494Y-23702441D01*
X92602997Y-23596006D01*
X92602996Y-23596005D01*
X92602994Y-23596004D01*
X92523242Y-23555368D01*
X92441639Y-23513788D01*
X92441636Y-23513787D01*
X92269410Y-23457829D01*
X92109321Y-23432473D01*
X92046186Y-23402544D01*
X92009255Y-23343232D01*
X92010253Y-23273370D01*
X92048863Y-23215137D01*
X92109321Y-23187527D01*
X92179425Y-23176422D01*
X92269409Y-23162171D01*
X92441639Y-23106211D01*
X92602994Y-23023996D01*
X92749501Y-22917553D01*
X92877553Y-22789501D01*
X92983996Y-22642994D01*
X93066211Y-22481639D01*
X93122171Y-22309409D01*
X93138026Y-22209307D01*
X93150500Y-22130551D01*
X93150500Y-21949448D01*
X93133071Y-21839411D01*
X93122171Y-21770591D01*
X93066211Y-21598361D01*
X93066211Y-21598360D01*
X93036219Y-21539499D01*
X92983996Y-21437006D01*
X92925540Y-21356548D01*
X92877558Y-21290505D01*
X92877554Y-21290500D01*
X92749495Y-21162441D01*
X92628202Y-21074318D01*
X92585536Y-21018989D01*
X92579557Y-20949375D01*
X92612162Y-20887580D01*
X92673001Y-20853223D01*
X92701087Y-20850000D01*
X92897828Y-20850000D01*
X92897844Y-20849999D01*
X92957372Y-20843598D01*
X92957379Y-20843596D01*
X93092086Y-20793354D01*
X93092093Y-20793350D01*
X93207187Y-20707190D01*
X93207190Y-20707187D01*
X93293350Y-20592093D01*
X93293354Y-20592086D01*
X93343596Y-20457379D01*
X93343598Y-20457372D01*
X93349999Y-20397844D01*
X93350000Y-20397827D01*
X93350000Y-19750000D01*
X92433012Y-19750000D01*
X92465925Y-19692993D01*
X92500000Y-19565826D01*
X92500000Y-19434174D01*
X92465925Y-19307007D01*
X92433012Y-19250000D01*
X93350000Y-19250000D01*
X93350000Y-18602172D01*
X93349999Y-18602155D01*
X93343598Y-18542627D01*
X93343596Y-18542620D01*
X93293354Y-18407913D01*
X93293350Y-18407906D01*
X93207190Y-18292812D01*
X93207187Y-18292809D01*
X93092093Y-18206649D01*
X93092086Y-18206645D01*
X92957379Y-18156403D01*
X92957372Y-18156401D01*
X92897844Y-18150000D01*
X92250000Y-18150000D01*
X92250000Y-19066988D01*
X92192993Y-19034075D01*
X92065826Y-19000000D01*
X91934174Y-19000000D01*
X91807007Y-19034075D01*
X91750000Y-19066988D01*
X91750000Y-18150000D01*
X91102155Y-18150000D01*
X91042627Y-18156401D01*
X91042620Y-18156403D01*
X90907913Y-18206645D01*
X90907906Y-18206649D01*
X90792812Y-18292809D01*
X90792809Y-18292812D01*
X90706649Y-18407906D01*
X90706645Y-18407913D01*
X90656403Y-18542620D01*
X90656401Y-18542627D01*
X90650000Y-18602155D01*
X90650000Y-19250000D01*
X91566988Y-19250000D01*
X91534075Y-19307007D01*
X91500000Y-19434174D01*
X91500000Y-19565826D01*
X91534075Y-19692993D01*
X91566988Y-19750000D01*
X90650000Y-19750000D01*
X90650000Y-20397844D01*
X90656401Y-20457372D01*
X90656403Y-20457379D01*
X90706645Y-20592086D01*
X90706649Y-20592093D01*
X90792809Y-20707187D01*
X90792812Y-20707190D01*
X90907906Y-20793350D01*
X90907913Y-20793354D01*
X91042620Y-20843596D01*
X91042627Y-20843598D01*
X91102155Y-20849999D01*
X91102172Y-20850000D01*
X91298913Y-20850000D01*
X91365952Y-20869685D01*
X91411707Y-20922489D01*
X91421651Y-20991647D01*
X91392626Y-21055203D01*
X91371798Y-21074318D01*
X91250504Y-21162441D01*
X91122445Y-21290500D01*
X91122441Y-21290505D01*
X91016006Y-21437002D01*
X90933788Y-21598360D01*
X90933787Y-21598363D01*
X90877829Y-21770589D01*
X90849500Y-21949448D01*
X90849500Y-22130551D01*
X90877829Y-22309412D01*
X90907234Y-22399912D01*
X90909229Y-22469753D01*
X90876985Y-22525910D01*
X90383410Y-23019487D01*
X90383409Y-23019489D01*
X90324101Y-23122212D01*
X90324100Y-23122217D01*
X90299202Y-23215137D01*
X90293400Y-23236791D01*
X87896100Y-23236791D01*
X87896100Y-22624440D01*
X87909216Y-22572081D01*
X87908353Y-22571724D01*
X87967256Y-22429517D01*
X87967258Y-22429513D01*
X87996100Y-22284518D01*
X87996100Y-22136682D01*
X87996100Y-22136679D01*
X87967259Y-21991692D01*
X87967258Y-21991691D01*
X87967258Y-21991687D01*
X87946359Y-21941232D01*
X87910687Y-21855111D01*
X87910680Y-21855098D01*
X87828551Y-21732184D01*
X87828548Y-21732180D01*
X87724019Y-21627651D01*
X87724015Y-21627648D01*
X87601101Y-21545519D01*
X87601088Y-21545512D01*
X87464517Y-21488943D01*
X87464507Y-21488940D01*
X87319520Y-21460100D01*
X87319518Y-21460100D01*
X87171682Y-21460100D01*
X87171680Y-21460100D01*
X87026692Y-21488940D01*
X87026682Y-21488943D01*
X86890111Y-21545512D01*
X86890098Y-21545519D01*
X86767184Y-21627648D01*
X86767180Y-21627651D01*
X86662651Y-21732180D01*
X86662648Y-21732184D01*
X86580519Y-21855098D01*
X86580512Y-21855111D01*
X86523943Y-21991682D01*
X86523940Y-21991692D01*
X86495100Y-22136679D01*
X86495100Y-22136682D01*
X86495100Y-22284518D01*
X86495100Y-22284520D01*
X86495099Y-22284520D01*
X86523940Y-22429507D01*
X86523943Y-22429517D01*
X86582847Y-22571724D01*
X86581983Y-22572081D01*
X86595100Y-22624440D01*
X86595100Y-50973592D01*
X86575415Y-51040631D01*
X86558781Y-51061273D01*
X84796087Y-52823966D01*
X84734764Y-52857451D01*
X84689009Y-52858759D01*
X84630546Y-52849500D01*
X84449454Y-52849500D01*
X84449449Y-52849500D01*
X84270589Y-52877829D01*
X84098363Y-52933787D01*
X84098360Y-52933788D01*
X83937002Y-53016006D01*
X83790505Y-53122441D01*
X83790500Y-53122445D01*
X83662445Y-53250500D01*
X83662441Y-53250505D01*
X83574318Y-53371797D01*
X83518988Y-53414463D01*
X83449375Y-53420442D01*
X83387580Y-53387836D01*
X83353223Y-53326998D01*
X83350000Y-53298912D01*
X83350000Y-53102172D01*
X83349999Y-53102155D01*
X83343598Y-53042627D01*
X83343596Y-53042620D01*
X83293354Y-52907913D01*
X83293350Y-52907906D01*
X83207190Y-52792812D01*
X83207187Y-52792809D01*
X83092093Y-52706649D01*
X83092086Y-52706645D01*
X82957379Y-52656403D01*
X82957372Y-52656401D01*
X82897844Y-52650000D01*
X82250000Y-52650000D01*
X82250000Y-53566988D01*
X82192993Y-53534075D01*
X82065826Y-53500000D01*
X81934174Y-53500000D01*
X81807007Y-53534075D01*
X81750000Y-53566988D01*
X81750000Y-52650000D01*
X81102155Y-52650000D01*
X81042627Y-52656401D01*
X81042620Y-52656403D01*
X80907913Y-52706645D01*
X80907906Y-52706649D01*
X80792812Y-52792809D01*
X80792809Y-52792812D01*
X80706649Y-52907906D01*
X80706645Y-52907913D01*
X80656403Y-53042620D01*
X80656401Y-53042627D01*
X80650000Y-53102155D01*
X78801572Y-53102155D01*
X78682997Y-53016006D01*
X78682996Y-53016005D01*
X78682994Y-53016004D01*
X78606906Y-52977235D01*
X78521639Y-52933788D01*
X78521636Y-52933787D01*
X78349410Y-52877829D01*
X78170551Y-52849500D01*
X78170546Y-52849500D01*
X77989454Y-52849500D01*
X77989449Y-52849500D01*
X77810592Y-52877828D01*
X77720084Y-52907235D01*
X77650243Y-52909229D01*
X77594087Y-52876984D01*
X74106819Y-49389716D01*
X74073334Y-49328393D01*
X74070500Y-49302035D01*
X74070500Y-46581565D01*
X74090185Y-46514526D01*
X74138204Y-46471081D01*
X74196788Y-46441232D01*
X74336928Y-46339414D01*
X74459414Y-46216928D01*
X74561232Y-46076788D01*
X74639873Y-45922445D01*
X74693402Y-45757701D01*
X74720500Y-45586611D01*
X74720500Y-45413389D01*
X74693402Y-45242299D01*
X74639873Y-45077555D01*
X74561232Y-44923212D01*
X74459414Y-44783072D01*
X74336928Y-44660586D01*
X74196788Y-44558768D01*
X74042445Y-44480127D01*
X73877701Y-44426598D01*
X73877699Y-44426597D01*
X73877698Y-44426597D01*
X73740030Y-44404793D01*
X73706611Y-44399500D01*
X73533389Y-44399500D01*
X73499970Y-44404793D01*
X73362302Y-44426597D01*
X73197552Y-44480128D01*
X73043211Y-44558768D01*
X72977911Y-44606212D01*
X72903072Y-44660586D01*
X72903070Y-44660588D01*
X72903069Y-44660588D01*
X72780588Y-44783069D01*
X72780588Y-44783070D01*
X72780586Y-44783072D01*
X72750180Y-44824922D01*
X72678768Y-44923211D01*
X72600128Y-45077552D01*
X72546597Y-45242302D01*
X72519500Y-45413389D01*
X72519500Y-45586610D01*
X72540656Y-45720188D01*
X72546598Y-45757701D01*
X72600127Y-45922445D01*
X72678768Y-46076788D01*
X72780586Y-46216928D01*
X72903072Y-46339414D01*
X72916839Y-46349416D01*
X73043207Y-46441229D01*
X73043211Y-46441231D01*
X73043212Y-46441232D01*
X73101795Y-46471081D01*
X73152590Y-46519053D01*
X73169500Y-46581565D01*
X73169500Y-49222034D01*
X73149815Y-49289073D01*
X73133181Y-49309715D01*
X69565911Y-52876984D01*
X69504588Y-52910469D01*
X69439913Y-52907234D01*
X69349416Y-52877830D01*
X69349409Y-52877829D01*
X69170551Y-52849500D01*
X69170546Y-52849500D01*
X68989454Y-52849500D01*
X68989449Y-52849500D01*
X68810589Y-52877829D01*
X68638363Y-52933787D01*
X68638360Y-52933788D01*
X68477002Y-53016006D01*
X68330505Y-53122441D01*
X68330500Y-53122445D01*
X68202445Y-53250500D01*
X68202441Y-53250505D01*
X68096006Y-53397002D01*
X68013788Y-53558360D01*
X68013787Y-53558363D01*
X67957829Y-53730589D01*
X67932473Y-53890678D01*
X67902544Y-53953813D01*
X67843232Y-53990744D01*
X67773369Y-53989746D01*
X67715137Y-53951136D01*
X67687527Y-53890678D01*
X67665245Y-53750000D01*
X67662171Y-53730591D01*
X67618530Y-53596275D01*
X67606212Y-53558363D01*
X67606211Y-53558360D01*
X67551250Y-53450495D01*
X67523996Y-53397006D01*
X67505681Y-53371797D01*
X67417558Y-53250505D01*
X67417554Y-53250500D01*
X67289499Y-53122445D01*
X67289494Y-53122441D01*
X67142995Y-53016004D01*
X67058204Y-52972800D01*
X67007409Y-52924826D01*
X66990500Y-52862316D01*
X66990500Y-46009863D01*
X67004015Y-45953568D01*
X67007595Y-45946542D01*
X67019873Y-45922445D01*
X67073402Y-45757701D01*
X67100500Y-45586611D01*
X67100500Y-45413389D01*
X67073402Y-45242299D01*
X67019873Y-45077555D01*
X66941232Y-44923212D01*
X66839414Y-44783072D01*
X66716928Y-44660586D01*
X66576788Y-44558768D01*
X66422445Y-44480127D01*
X66257701Y-44426598D01*
X66257699Y-44426597D01*
X66257698Y-44426597D01*
X66120030Y-44404793D01*
X66086611Y-44399500D01*
X65913389Y-44399500D01*
X65860117Y-44407937D01*
X65823430Y-44413748D01*
X65754136Y-44404793D01*
X65700684Y-44359797D01*
X65680045Y-44293045D01*
X65698770Y-44225732D01*
X65716348Y-44203596D01*
X69522263Y-40397682D01*
X72320000Y-40397682D01*
X72320000Y-40602317D01*
X72352009Y-40804417D01*
X72415244Y-40999031D01*
X72508141Y-41181350D01*
X72508147Y-41181359D01*
X72540523Y-41225921D01*
X72540524Y-41225922D01*
X73220000Y-40546446D01*
X73220000Y-40552661D01*
X73247259Y-40654394D01*
X73299920Y-40745606D01*
X73374394Y-40820080D01*
X73465606Y-40872741D01*
X73567339Y-40900000D01*
X73573553Y-40900000D01*
X72894076Y-41579474D01*
X72938650Y-41611859D01*
X73120968Y-41704755D01*
X73315582Y-41767990D01*
X73517683Y-41800000D01*
X73722317Y-41800000D01*
X73924417Y-41767990D01*
X74119031Y-41704755D01*
X74301349Y-41611859D01*
X74345921Y-41579474D01*
X73666447Y-40900000D01*
X73672661Y-40900000D01*
X73774394Y-40872741D01*
X73865606Y-40820080D01*
X73940080Y-40745606D01*
X73992741Y-40654394D01*
X74020000Y-40552661D01*
X74020000Y-40546447D01*
X74699474Y-41225921D01*
X74731859Y-41181349D01*
X74824755Y-40999031D01*
X74887990Y-40804417D01*
X74920000Y-40602317D01*
X74920000Y-40397682D01*
X74887990Y-40195582D01*
X74824755Y-40000968D01*
X74731859Y-39818650D01*
X74699474Y-39774077D01*
X74699474Y-39774076D01*
X74020000Y-40453551D01*
X74020000Y-40447339D01*
X73992741Y-40345606D01*
X73940080Y-40254394D01*
X73865606Y-40179920D01*
X73774394Y-40127259D01*
X73672661Y-40100000D01*
X73666446Y-40100000D01*
X74345922Y-39420524D01*
X74345921Y-39420523D01*
X74301359Y-39388147D01*
X74301350Y-39388141D01*
X74119031Y-39295244D01*
X73924417Y-39232009D01*
X73722317Y-39200000D01*
X73517683Y-39200000D01*
X73315582Y-39232009D01*
X73120968Y-39295244D01*
X72938644Y-39388143D01*
X72894077Y-39420523D01*
X72894077Y-39420524D01*
X73573554Y-40100000D01*
X73567339Y-40100000D01*
X73465606Y-40127259D01*
X73374394Y-40179920D01*
X73299920Y-40254394D01*
X73247259Y-40345606D01*
X73220000Y-40447339D01*
X73220000Y-40453553D01*
X72540524Y-39774077D01*
X72540523Y-39774077D01*
X72508143Y-39818644D01*
X72415244Y-40000968D01*
X72352009Y-40195582D01*
X72320000Y-40397682D01*
X69522263Y-40397682D01*
X71233127Y-38686819D01*
X71294450Y-38653334D01*
X71320808Y-38650500D01*
X74064071Y-38650500D01*
X74148615Y-38633682D01*
X74189744Y-38625501D01*
X74308127Y-38576465D01*
X74414669Y-38505277D01*
X77787616Y-35132328D01*
X77848937Y-35098845D01*
X77894689Y-35097538D01*
X77913389Y-35100500D01*
X77913394Y-35100500D01*
X78086610Y-35100500D01*
X78086611Y-35100500D01*
X78257701Y-35073402D01*
X78422445Y-35019873D01*
X78576788Y-34941232D01*
X78716928Y-34839414D01*
X78839414Y-34716928D01*
X78941232Y-34576788D01*
X79019873Y-34422445D01*
X79027185Y-34399938D01*
X79066621Y-34342264D01*
X79130980Y-34315065D01*
X79199826Y-34326979D01*
X79251303Y-34374223D01*
X79263047Y-34399938D01*
X79295244Y-34499031D01*
X79388141Y-34681350D01*
X79388147Y-34681359D01*
X79420523Y-34725921D01*
X79420524Y-34725922D01*
X80100000Y-34046446D01*
X80100000Y-34052661D01*
X80127259Y-34154394D01*
X80179920Y-34245606D01*
X80254394Y-34320080D01*
X80345606Y-34372741D01*
X80447339Y-34400000D01*
X80453553Y-34400000D01*
X79774076Y-35079474D01*
X79818650Y-35111859D01*
X80000968Y-35204755D01*
X80195582Y-35267990D01*
X80397683Y-35300000D01*
X80602317Y-35300000D01*
X80804417Y-35267990D01*
X80999031Y-35204755D01*
X81181349Y-35111859D01*
X81225921Y-35079474D01*
X80546447Y-34400000D01*
X80552661Y-34400000D01*
X80654394Y-34372741D01*
X80745606Y-34320080D01*
X80820080Y-34245606D01*
X80872741Y-34154394D01*
X80900000Y-34052661D01*
X80900000Y-34046447D01*
X81579474Y-34725921D01*
X81611859Y-34681349D01*
X81704755Y-34499031D01*
X81767990Y-34304417D01*
X81800000Y-34102317D01*
X81800000Y-33897682D01*
X81767990Y-33695582D01*
X81704755Y-33500968D01*
X81611859Y-33318650D01*
X81579474Y-33274077D01*
X81579474Y-33274076D01*
X80900000Y-33953551D01*
X80900000Y-33947339D01*
X80872741Y-33845606D01*
X80820080Y-33754394D01*
X80745606Y-33679920D01*
X80654394Y-33627259D01*
X80552661Y-33600000D01*
X80546446Y-33600000D01*
X81225922Y-32920524D01*
X81225921Y-32920523D01*
X81181359Y-32888147D01*
X81181350Y-32888141D01*
X80999031Y-32795244D01*
X80804417Y-32732009D01*
X80602317Y-32700000D01*
X80397683Y-32700000D01*
X80195582Y-32732009D01*
X80000968Y-32795244D01*
X79818644Y-32888143D01*
X79774077Y-32920523D01*
X79774077Y-32920524D01*
X80453554Y-33600000D01*
X80447339Y-33600000D01*
X80345606Y-33627259D01*
X80254394Y-33679920D01*
X80179920Y-33754394D01*
X80127259Y-33845606D01*
X80100000Y-33947339D01*
X80100000Y-33953553D01*
X79420524Y-33274077D01*
X79420523Y-33274077D01*
X79388143Y-33318644D01*
X79295244Y-33500968D01*
X79263047Y-33600061D01*
X79223609Y-33657736D01*
X79159250Y-33684934D01*
X79090404Y-33673019D01*
X79038928Y-33625774D01*
X79027186Y-33600062D01*
X79019873Y-33577555D01*
X78941232Y-33423212D01*
X78839414Y-33283072D01*
X78716928Y-33160586D01*
X78712570Y-33157420D01*
X78701613Y-33149459D01*
X78698273Y-33145127D01*
X78693297Y-33142855D01*
X78677165Y-33117754D01*
X78658948Y-33094128D01*
X78657695Y-33087457D01*
X78655523Y-33084077D01*
X78650500Y-33049142D01*
X78650500Y-28320808D01*
X78670185Y-28253769D01*
X78686819Y-28233127D01*
X78783127Y-28136819D01*
X78844450Y-28103334D01*
X78870808Y-28100500D01*
X79593097Y-28100500D01*
X79593102Y-28100500D01*
X79681564Y-28089877D01*
X79822342Y-28034361D01*
X79942922Y-27942922D01*
X80034361Y-27822342D01*
X80089877Y-27681564D01*
X80100500Y-27593102D01*
X80100500Y-27593085D01*
X80100689Y-27589932D01*
X80124344Y-27524188D01*
X80136787Y-27509658D01*
X80600000Y-27046445D01*
X80600000Y-27052661D01*
X80627259Y-27154394D01*
X80679920Y-27245606D01*
X80754394Y-27320080D01*
X80845606Y-27372741D01*
X80947339Y-27400000D01*
X80953553Y-27400000D01*
X80274076Y-28079474D01*
X80318650Y-28111859D01*
X80500968Y-28204755D01*
X80695582Y-28267990D01*
X80897683Y-28300000D01*
X81102317Y-28300000D01*
X81304417Y-28267990D01*
X81499031Y-28204755D01*
X81681349Y-28111859D01*
X81725921Y-28079474D01*
X81046447Y-27400000D01*
X81052661Y-27400000D01*
X81154394Y-27372741D01*
X81245606Y-27320080D01*
X81320080Y-27245606D01*
X81372741Y-27154394D01*
X81400000Y-27052661D01*
X81400000Y-27046447D01*
X82079474Y-27725921D01*
X82111859Y-27681349D01*
X82204755Y-27499031D01*
X82267990Y-27304417D01*
X82300000Y-27102317D01*
X82300000Y-26897682D01*
X82267990Y-26695582D01*
X82204755Y-26500968D01*
X82111859Y-26318650D01*
X82079474Y-26274077D01*
X82079474Y-26274076D01*
X81400000Y-26953551D01*
X81400000Y-26947339D01*
X81372741Y-26845606D01*
X81320080Y-26754394D01*
X81245606Y-26679920D01*
X81154394Y-26627259D01*
X81052661Y-26600000D01*
X81046446Y-26600000D01*
X81725922Y-25920524D01*
X81725921Y-25920523D01*
X81681359Y-25888147D01*
X81681350Y-25888141D01*
X81499031Y-25795244D01*
X81304417Y-25732009D01*
X81102317Y-25700000D01*
X80897683Y-25700000D01*
X80695582Y-25732009D01*
X80500968Y-25795244D01*
X80318644Y-25888143D01*
X80274077Y-25920523D01*
X80274077Y-25920524D01*
X80953554Y-26600000D01*
X80947339Y-26600000D01*
X80845606Y-26627259D01*
X80754394Y-26679920D01*
X80679920Y-26754394D01*
X80627259Y-26845606D01*
X80600000Y-26947339D01*
X80600000Y-26953553D01*
X80136787Y-26490340D01*
X80103302Y-26429017D01*
X80100690Y-26410068D01*
X80100501Y-26406912D01*
X80100500Y-26406903D01*
X80100500Y-26406898D01*
X80089877Y-26318436D01*
X80034361Y-26177658D01*
X80034360Y-26177657D01*
X80034360Y-26177656D01*
X79942922Y-26057077D01*
X79822341Y-25965638D01*
X79729009Y-25928832D01*
X79673866Y-25885926D01*
X79650673Y-25820018D01*
X79650500Y-25813478D01*
X79650500Y-23435928D01*
X79625502Y-23310261D01*
X79625501Y-23310260D01*
X79625501Y-23310256D01*
X79576465Y-23191873D01*
X79556619Y-23162171D01*
X79556619Y-23162170D01*
X79505275Y-23085328D01*
X77636819Y-21216872D01*
X77603334Y-21155549D01*
X77600500Y-21129191D01*
X77600500Y-20406903D01*
X77600500Y-20406898D01*
X77589877Y-20318436D01*
X77534361Y-20177658D01*
X77534360Y-20177657D01*
X77534360Y-20177656D01*
X77442922Y-20057077D01*
X77322343Y-19965639D01*
X77181561Y-19910122D01*
X77135926Y-19904642D01*
X77093102Y-19899500D01*
X77093097Y-19899500D01*
X76370808Y-19899500D01*
X76303769Y-19879815D01*
X76283127Y-19863181D01*
X71464674Y-15044727D01*
X71464673Y-15044726D01*
X71464669Y-15044723D01*
X71358127Y-14973535D01*
X71349607Y-14970006D01*
X71239744Y-14924499D01*
X71239738Y-14924497D01*
X71114071Y-14899500D01*
X71114069Y-14899500D01*
X69434707Y-14899500D01*
X69367668Y-14879815D01*
X69324222Y-14831794D01*
X69276105Y-14737359D01*
X69132660Y-14539923D01*
X69132656Y-14539918D01*
X68960081Y-14367343D01*
X68960076Y-14367339D01*
X68762642Y-14223896D01*
X68762641Y-14223895D01*
X68762639Y-14223894D01*
X68545185Y-14113096D01*
X68313076Y-14037679D01*
X68313074Y-14037678D01*
X68313072Y-14037678D01*
X68144769Y-14011021D01*
X68072027Y-13999500D01*
X67827973Y-13999500D01*
X67772093Y-14008350D01*
X67586927Y-14037678D01*
X67354812Y-14113097D01*
X67137357Y-14223896D01*
X66939923Y-14367339D01*
X66939918Y-14367343D01*
X66767343Y-14539918D01*
X66767339Y-14539923D01*
X66623896Y-14737357D01*
X66513097Y-14954812D01*
X66513096Y-14954814D01*
X66513096Y-14954815D01*
X66483883Y-15044723D01*
X66437678Y-15186927D01*
X66399500Y-15427973D01*
X66399500Y-15672026D01*
X66426140Y-15840226D01*
X66437679Y-15913076D01*
X66513096Y-16145185D01*
X66614805Y-16344801D01*
X66623896Y-16362642D01*
X66767339Y-16560076D01*
X66767343Y-16560081D01*
X66939918Y-16732656D01*
X66939923Y-16732660D01*
X67095069Y-16845379D01*
X67137361Y-16876106D01*
X67354815Y-16986904D01*
X67586924Y-17062321D01*
X67827973Y-17100500D01*
X67827974Y-17100500D01*
X68072026Y-17100500D01*
X68072027Y-17100500D01*
X68313076Y-17062321D01*
X68545185Y-16986904D01*
X68762639Y-16876106D01*
X68960083Y-16732655D01*
X69132655Y-16560083D01*
X69276106Y-16362639D01*
X69324222Y-16268205D01*
X69372196Y-16217409D01*
X69434707Y-16200500D01*
X70729192Y-16200500D01*
X70796231Y-16220185D01*
X70816873Y-16236819D01*
X75363181Y-20783127D01*
X75396666Y-20844450D01*
X75399500Y-20870808D01*
X75399500Y-21593102D01*
X75405126Y-21639954D01*
X75410122Y-21681561D01*
X75465639Y-21822343D01*
X75557077Y-21942922D01*
X75677656Y-22034360D01*
X75677657Y-22034360D01*
X75677658Y-22034361D01*
X75818436Y-22089877D01*
X75906898Y-22100500D01*
X76629192Y-22100500D01*
X76696231Y-22120185D01*
X76716873Y-22136819D01*
X78313181Y-23733127D01*
X78346666Y-23794450D01*
X78349500Y-23820808D01*
X78349500Y-25813478D01*
X78329815Y-25880517D01*
X78277011Y-25926272D01*
X78270991Y-25928832D01*
X78177658Y-25965638D01*
X78057077Y-26057077D01*
X77965639Y-26177656D01*
X77910122Y-26318438D01*
X77904188Y-26367853D01*
X77899500Y-26406898D01*
X77899500Y-26406903D01*
X77899500Y-27129191D01*
X77879815Y-27196230D01*
X77863181Y-27216872D01*
X77494727Y-27585325D01*
X77494726Y-27585326D01*
X77435759Y-27673579D01*
X77435757Y-27673582D01*
X77423536Y-27691870D01*
X77423533Y-27691875D01*
X77374499Y-27810255D01*
X77374497Y-27810261D01*
X77349500Y-27935928D01*
X77349500Y-33049142D01*
X77329815Y-33116181D01*
X77298387Y-33149459D01*
X77283072Y-33160585D01*
X77160588Y-33283069D01*
X77160588Y-33283070D01*
X77160586Y-33283072D01*
X77134737Y-33318650D01*
X77058768Y-33423211D01*
X76980128Y-33577552D01*
X76926597Y-33742302D01*
X76899500Y-33913389D01*
X76899500Y-34086616D01*
X76902460Y-34105306D01*
X76893505Y-34174599D01*
X76867668Y-34212384D01*
X73766873Y-37313181D01*
X73705550Y-37346666D01*
X73679192Y-37349500D01*
X70935929Y-37349500D01*
X70830129Y-37370546D01*
X70815189Y-37373517D01*
X70810255Y-37374499D01*
X70691874Y-37423534D01*
X70585326Y-37494726D01*
X67296406Y-40783646D01*
X67235083Y-40817131D01*
X67165391Y-40812147D01*
X67109458Y-40770275D01*
X67085041Y-40704811D01*
X67086252Y-40676567D01*
X67087767Y-40667007D01*
X67100500Y-40586611D01*
X67100500Y-40413389D01*
X67073402Y-40242299D01*
X67053082Y-40179764D01*
X67051087Y-40109927D01*
X67083331Y-40053770D01*
X69929689Y-37207414D01*
X69929690Y-37207413D01*
X71150285Y-35986819D01*
X71211608Y-35953334D01*
X71237966Y-35950500D01*
X72538435Y-35950500D01*
X72605474Y-35970185D01*
X72648918Y-36018204D01*
X72665373Y-36050499D01*
X72678766Y-36076785D01*
X72678770Y-36076792D01*
X72717066Y-36129500D01*
X72780586Y-36216928D01*
X72903072Y-36339414D01*
X73043212Y-36441232D01*
X73197555Y-36519873D01*
X73362299Y-36573402D01*
X73533389Y-36600500D01*
X73533390Y-36600500D01*
X73706610Y-36600500D01*
X73706611Y-36600500D01*
X73877701Y-36573402D01*
X74042445Y-36519873D01*
X74196788Y-36441232D01*
X74336928Y-36339414D01*
X74459414Y-36216928D01*
X74561232Y-36076788D01*
X74639873Y-35922445D01*
X74693402Y-35757701D01*
X74720500Y-35586611D01*
X74720500Y-35413389D01*
X74693402Y-35242299D01*
X74639873Y-35077555D01*
X74561232Y-34923212D01*
X74459414Y-34783072D01*
X74336928Y-34660586D01*
X74196788Y-34558768D01*
X74042445Y-34480127D01*
X73877701Y-34426598D01*
X73877699Y-34426597D01*
X73877698Y-34426597D01*
X73746271Y-34405781D01*
X73706611Y-34399500D01*
X73533389Y-34399500D01*
X73493728Y-34405781D01*
X73362302Y-34426597D01*
X73197552Y-34480128D01*
X73043211Y-34558768D01*
X72963256Y-34616859D01*
X72903072Y-34660586D01*
X72903070Y-34660588D01*
X72903069Y-34660588D01*
X72780588Y-34783069D01*
X72780588Y-34783070D01*
X72780586Y-34783072D01*
X72755040Y-34818232D01*
X72678770Y-34923207D01*
X72678766Y-34923214D01*
X72669586Y-34941232D01*
X72648918Y-34981795D01*
X72600947Y-35032590D01*
X72538435Y-35049500D01*
X70940691Y-35049500D01*
X70851487Y-35073402D01*
X70851486Y-35073402D01*
X70826115Y-35080199D01*
X70826110Y-35080201D01*
X70723392Y-35139505D01*
X70723384Y-35139511D01*
X69656878Y-36206016D01*
X69595555Y-36239501D01*
X69525863Y-36234517D01*
X69481517Y-36206016D01*
X66921933Y-33646446D01*
X63936319Y-30660848D01*
X63902834Y-30599525D01*
X63900000Y-30573167D01*
X63900000Y-26074500D01*
X63919685Y-26007461D01*
X63972489Y-25961706D01*
X64024000Y-25950500D01*
X64918435Y-25950500D01*
X64985474Y-25970185D01*
X65028918Y-26018204D01*
X65039943Y-26039841D01*
X65058766Y-26076785D01*
X65058770Y-26076792D01*
X65073962Y-26097701D01*
X65160586Y-26216928D01*
X65283072Y-26339414D01*
X65423212Y-26441232D01*
X65577555Y-26519873D01*
X65742299Y-26573402D01*
X65913389Y-26600500D01*
X65913390Y-26600500D01*
X66086610Y-26600500D01*
X66086611Y-26600500D01*
X66257701Y-26573402D01*
X66422445Y-26519873D01*
X66520906Y-26469704D01*
X66589574Y-26456809D01*
X66654315Y-26483085D01*
X66694572Y-26540192D01*
X66701200Y-26580190D01*
X66701200Y-29110334D01*
X66681515Y-29177373D01*
X66664881Y-29198015D01*
X66446230Y-29416665D01*
X66384907Y-29450150D01*
X66320232Y-29446915D01*
X66257702Y-29426598D01*
X66257698Y-29426597D01*
X66126271Y-29405781D01*
X66086611Y-29399500D01*
X65913389Y-29399500D01*
X65873728Y-29405781D01*
X65742302Y-29426597D01*
X65577552Y-29480128D01*
X65423211Y-29558768D01*
X65343256Y-29616859D01*
X65283072Y-29660586D01*
X65283070Y-29660588D01*
X65283069Y-29660588D01*
X65160588Y-29783069D01*
X65160588Y-29783070D01*
X65160586Y-29783072D01*
X65134737Y-29818650D01*
X65058768Y-29923211D01*
X64980128Y-30077552D01*
X64926597Y-30242302D01*
X64899500Y-30413389D01*
X64899500Y-30586610D01*
X64921610Y-30726212D01*
X64926598Y-30757701D01*
X64980127Y-30922445D01*
X65058768Y-31076788D01*
X65160586Y-31216928D01*
X65283072Y-31339414D01*
X65423212Y-31441232D01*
X65577555Y-31519873D01*
X65742299Y-31573402D01*
X65913389Y-31600500D01*
X65913390Y-31600500D01*
X66086610Y-31600500D01*
X66086611Y-31600500D01*
X66257701Y-31573402D01*
X66422445Y-31519873D01*
X66576788Y-31441232D01*
X66716928Y-31339414D01*
X66839414Y-31216928D01*
X66941232Y-31076788D01*
X67019873Y-30922445D01*
X67073402Y-30757701D01*
X67100500Y-30586611D01*
X67100500Y-30413389D01*
X67098012Y-30397682D01*
X72320000Y-30397682D01*
X72320000Y-30602317D01*
X72352009Y-30804417D01*
X72415244Y-30999031D01*
X72508141Y-31181350D01*
X72508147Y-31181359D01*
X72540523Y-31225921D01*
X72540524Y-31225922D01*
X73220000Y-30546446D01*
X73220000Y-30552661D01*
X73247259Y-30654394D01*
X73299920Y-30745606D01*
X73374394Y-30820080D01*
X73465606Y-30872741D01*
X73567339Y-30900000D01*
X73573553Y-30900000D01*
X72894076Y-31579474D01*
X72938650Y-31611859D01*
X73120968Y-31704755D01*
X73315582Y-31767990D01*
X73517683Y-31800000D01*
X73722317Y-31800000D01*
X73924417Y-31767990D01*
X74119031Y-31704755D01*
X74301349Y-31611859D01*
X74345921Y-31579474D01*
X73666447Y-30900000D01*
X73672661Y-30900000D01*
X73774394Y-30872741D01*
X73865606Y-30820080D01*
X73940080Y-30745606D01*
X73992741Y-30654394D01*
X74020000Y-30552661D01*
X74020000Y-30546447D01*
X74699474Y-31225921D01*
X74731859Y-31181349D01*
X74824755Y-30999031D01*
X74887990Y-30804417D01*
X74920000Y-30602317D01*
X74920000Y-30397682D01*
X74887990Y-30195582D01*
X74824755Y-30000968D01*
X74731859Y-29818650D01*
X74699474Y-29774077D01*
X74699474Y-29774076D01*
X74020000Y-30453551D01*
X74020000Y-30447339D01*
X73992741Y-30345606D01*
X73940080Y-30254394D01*
X73865606Y-30179920D01*
X73774394Y-30127259D01*
X73672661Y-30100000D01*
X73666446Y-30100000D01*
X74345922Y-29420524D01*
X74345921Y-29420523D01*
X74301359Y-29388147D01*
X74301350Y-29388141D01*
X74119031Y-29295244D01*
X73924417Y-29232009D01*
X73722317Y-29200000D01*
X73517683Y-29200000D01*
X73315582Y-29232009D01*
X73120968Y-29295244D01*
X72938644Y-29388143D01*
X72894077Y-29420523D01*
X72894077Y-29420524D01*
X73573554Y-30100000D01*
X73567339Y-30100000D01*
X73465606Y-30127259D01*
X73374394Y-30179920D01*
X73299920Y-30254394D01*
X73247259Y-30345606D01*
X73220000Y-30447339D01*
X73220000Y-30453553D01*
X72540524Y-29774077D01*
X72540523Y-29774077D01*
X72508143Y-29818644D01*
X72415244Y-30000968D01*
X72352009Y-30195582D01*
X72320000Y-30397682D01*
X67098012Y-30397682D01*
X67073402Y-30242299D01*
X67053082Y-30179764D01*
X67051087Y-30109927D01*
X67083330Y-30053772D01*
X67512190Y-29624914D01*
X67571499Y-29522187D01*
X67582769Y-29480128D01*
X67582770Y-29480126D01*
X67594676Y-29435690D01*
X67594676Y-29435688D01*
X67602199Y-29407613D01*
X67602200Y-29407607D01*
X67602200Y-20649865D01*
X67610844Y-20620424D01*
X67617368Y-20590438D01*
X67621122Y-20585422D01*
X67621885Y-20582826D01*
X67638519Y-20562184D01*
X68014384Y-20186319D01*
X68075707Y-20152834D01*
X68102065Y-20150000D01*
X68719670Y-20150000D01*
X68699925Y-20169745D01*
X68650556Y-20255255D01*
X68625000Y-20350630D01*
X68625000Y-20449370D01*
X68650556Y-20544745D01*
X68699925Y-20630255D01*
X68719670Y-20650000D01*
X67975000Y-20650000D01*
X67975000Y-21197844D01*
X67981401Y-21257372D01*
X67981403Y-21257379D01*
X68031645Y-21392086D01*
X68031649Y-21392093D01*
X68117809Y-21507187D01*
X68117812Y-21507190D01*
X68232906Y-21593350D01*
X68232913Y-21593354D01*
X68367620Y-21643596D01*
X68367627Y-21643598D01*
X68427155Y-21649999D01*
X68427172Y-21650000D01*
X68750000Y-21650000D01*
X68750000Y-20680330D01*
X68769745Y-20700075D01*
X68855255Y-20749444D01*
X68950630Y-20775000D01*
X69049370Y-20775000D01*
X69144745Y-20749444D01*
X69230255Y-20700075D01*
X69250000Y-20680330D01*
X69250000Y-21650000D01*
X69572828Y-21650000D01*
X69572844Y-21649999D01*
X69632372Y-21643598D01*
X69632380Y-21643596D01*
X69652165Y-21636217D01*
X69721856Y-21631231D01*
X69783180Y-21664715D01*
X69816666Y-21726038D01*
X69819500Y-21752398D01*
X69819500Y-22209309D01*
X69839266Y-22283075D01*
X69839265Y-22283075D01*
X69839266Y-22283077D01*
X69850199Y-22323883D01*
X69850200Y-22323885D01*
X69850201Y-22323887D01*
X69909511Y-22426614D01*
X69909513Y-22426616D01*
X72536665Y-25053768D01*
X72570150Y-25115091D01*
X72566915Y-25179767D01*
X72546598Y-25242294D01*
X72546598Y-25242297D01*
X72519500Y-25413389D01*
X72519500Y-25586610D01*
X72542528Y-25732009D01*
X72546598Y-25757701D01*
X72599502Y-25920523D01*
X72600128Y-25922447D01*
X72624452Y-25970185D01*
X72678768Y-26076788D01*
X72780586Y-26216928D01*
X72903072Y-26339414D01*
X73043212Y-26441232D01*
X73197555Y-26519873D01*
X73362299Y-26573402D01*
X73533389Y-26600500D01*
X73533390Y-26600500D01*
X73706610Y-26600500D01*
X73706611Y-26600500D01*
X73877701Y-26573402D01*
X74042445Y-26519873D01*
X74196788Y-26441232D01*
X74336928Y-26339414D01*
X74459414Y-26216928D01*
X74561232Y-26076788D01*
X74639873Y-25922445D01*
X74693402Y-25757701D01*
X74720500Y-25586611D01*
X74720500Y-25413389D01*
X74693402Y-25242299D01*
X74639873Y-25077555D01*
X74561232Y-24923212D01*
X74459414Y-24783072D01*
X74336928Y-24660586D01*
X74196788Y-24558768D01*
X74042445Y-24480127D01*
X73877701Y-24426598D01*
X73877699Y-24426597D01*
X73877698Y-24426597D01*
X73746271Y-24405781D01*
X73706611Y-24399500D01*
X73533389Y-24399500D01*
X73476359Y-24408532D01*
X73362297Y-24426598D01*
X73362294Y-24426598D01*
X73299767Y-24446915D01*
X73229926Y-24448910D01*
X73173768Y-24416665D01*
X70756819Y-21999716D01*
X70723334Y-21938393D01*
X70720500Y-21912035D01*
X70720500Y-21383084D01*
X70740185Y-21316045D01*
X70775609Y-21279982D01*
X70796225Y-21266208D01*
X70817319Y-21245113D01*
X70878640Y-21211629D01*
X70948331Y-21216612D01*
X70992680Y-21245113D01*
X71004939Y-21257372D01*
X71013777Y-21266210D01*
X71013779Y-21266211D01*
X71148976Y-21356547D01*
X71148980Y-21356549D01*
X71234792Y-21392093D01*
X71299211Y-21418776D01*
X71299215Y-21418776D01*
X71299216Y-21418777D01*
X71458692Y-21450500D01*
X71458695Y-21450500D01*
X71621307Y-21450500D01*
X71728598Y-21429157D01*
X71780789Y-21418776D01*
X71880943Y-21377290D01*
X71931019Y-21356549D01*
X71931023Y-21356547D01*
X72006218Y-21306303D01*
X72066225Y-21266208D01*
X72181208Y-21151225D01*
X72271548Y-21016021D01*
X72333776Y-20865789D01*
X72350219Y-20783127D01*
X72365500Y-20706307D01*
X72365500Y-20093692D01*
X72333777Y-19934216D01*
X72333776Y-19934215D01*
X72333776Y-19934211D01*
X72330622Y-19926597D01*
X72271549Y-19783980D01*
X72271547Y-19783976D01*
X72181211Y-19648779D01*
X72181205Y-19648771D01*
X72066228Y-19533794D01*
X72066220Y-19533788D01*
X71931023Y-19443452D01*
X71931019Y-19443450D01*
X71780793Y-19381225D01*
X71780783Y-19381222D01*
X71621307Y-19349500D01*
X71621305Y-19349500D01*
X71458695Y-19349500D01*
X71458693Y-19349500D01*
X71299216Y-19381222D01*
X71299206Y-19381225D01*
X71148980Y-19443450D01*
X71148976Y-19443452D01*
X71013779Y-19533788D01*
X71013771Y-19533794D01*
X70992681Y-19554885D01*
X70931358Y-19588370D01*
X70861666Y-19583386D01*
X70817319Y-19554885D01*
X70796228Y-19533794D01*
X70796222Y-19533789D01*
X70775608Y-19520015D01*
X70730804Y-19466402D01*
X70720500Y-19416914D01*
X70720500Y-19238993D01*
X70720500Y-19238991D01*
X70689799Y-19124414D01*
X70630489Y-19021687D01*
X70546613Y-18937811D01*
X70443886Y-18878501D01*
X70329309Y-18847800D01*
X68205991Y-18847800D01*
X68115625Y-18872013D01*
X68115624Y-18872012D01*
X68091416Y-18878499D01*
X68091413Y-18878500D01*
X67988686Y-18937811D01*
X67988683Y-18937813D01*
X66791213Y-20135283D01*
X66791209Y-20135289D01*
X66731902Y-20238011D01*
X66731900Y-20238017D01*
X66701200Y-20352591D01*
X66701200Y-24419809D01*
X66681515Y-24486848D01*
X66628711Y-24532603D01*
X66559553Y-24542547D01*
X66520906Y-24530294D01*
X66422450Y-24480129D01*
X66422447Y-24480128D01*
X66422445Y-24480127D01*
X66257701Y-24426598D01*
X66257699Y-24426597D01*
X66257698Y-24426597D01*
X66126271Y-24405781D01*
X66086611Y-24399500D01*
X65913389Y-24399500D01*
X65873728Y-24405781D01*
X65742302Y-24426597D01*
X65577552Y-24480128D01*
X65423211Y-24558768D01*
X65343256Y-24616859D01*
X65283072Y-24660586D01*
X65283070Y-24660588D01*
X65283069Y-24660588D01*
X65160588Y-24783069D01*
X65160588Y-24783070D01*
X65160586Y-24783072D01*
X65149179Y-24798773D01*
X65058770Y-24923207D01*
X65058766Y-24923214D01*
X65040000Y-24960046D01*
X65028918Y-24981795D01*
X64980947Y-25032590D01*
X64918435Y-25049500D01*
X64024000Y-25049500D01*
X63956961Y-25029815D01*
X63911206Y-24977011D01*
X63900000Y-24925500D01*
X63900000Y-16300000D01*
X56800000Y-16300000D01*
X56800000Y-16748259D01*
X56780315Y-16815298D01*
X56727511Y-16861053D01*
X56695398Y-16870732D01*
X56650589Y-16877829D01*
X56478363Y-16933787D01*
X56478360Y-16933788D01*
X56317002Y-17016006D01*
X56170505Y-17122441D01*
X56170500Y-17122445D01*
X56042445Y-17250500D01*
X56042441Y-17250505D01*
X55936006Y-17397002D01*
X55936005Y-17397004D01*
X55936004Y-17397006D01*
X55883089Y-17500858D01*
X55877788Y-17511261D01*
X55829813Y-17562057D01*
X55761992Y-17578852D01*
X55735210Y-17574741D01*
X55674086Y-17558363D01*
X55641009Y-17549500D01*
X55641008Y-17549500D01*
X55517683Y-17549500D01*
X55450644Y-17529815D01*
X55407198Y-17481795D01*
X55363996Y-17397006D01*
X55363994Y-17397003D01*
X55363993Y-17397001D01*
X55257558Y-17250505D01*
X55257554Y-17250500D01*
X55129499Y-17122445D01*
X55129494Y-17122441D01*
X54982997Y-17016006D01*
X54982996Y-17016005D01*
X54982994Y-17016004D01*
X54925882Y-16986904D01*
X54821639Y-16933788D01*
X54821636Y-16933787D01*
X54649410Y-16877829D01*
X54470551Y-16849500D01*
X54470546Y-16849500D01*
X54289454Y-16849500D01*
X54289449Y-16849500D01*
X54110589Y-16877829D01*
X53938363Y-16933787D01*
X53938360Y-16933788D01*
X53777002Y-17016006D01*
X53630505Y-17122441D01*
X53630500Y-17122445D01*
X53502445Y-17250500D01*
X53502441Y-17250505D01*
X53396006Y-17397002D01*
X53313788Y-17558360D01*
X53313787Y-17558363D01*
X53257829Y-17730589D01*
X53232473Y-17890678D01*
X53202544Y-17953813D01*
X53143232Y-17990744D01*
X53073369Y-17989746D01*
X53015137Y-17951136D01*
X52987527Y-17890678D01*
X52965245Y-17750000D01*
X52962171Y-17730591D01*
X52911207Y-17573737D01*
X52906212Y-17558363D01*
X52906211Y-17558360D01*
X52841401Y-17431166D01*
X52823996Y-17397006D01*
X52767825Y-17319693D01*
X52717558Y-17250505D01*
X52717554Y-17250500D01*
X52589499Y-17122445D01*
X52589494Y-17122441D01*
X52442997Y-17016006D01*
X52442996Y-17016005D01*
X52442994Y-17016004D01*
X52385882Y-16986904D01*
X52281639Y-16933788D01*
X52281636Y-16933787D01*
X52109410Y-16877829D01*
X51930551Y-16849500D01*
X51930546Y-16849500D01*
X51749454Y-16849500D01*
X51749449Y-16849500D01*
X51570589Y-16877829D01*
X51398363Y-16933787D01*
X51398360Y-16933788D01*
X51237002Y-17016006D01*
X51090505Y-17122440D01*
X51027304Y-17185641D01*
X50965980Y-17219125D01*
X50896289Y-17214139D01*
X50851943Y-17185639D01*
X48527716Y-14861413D01*
X48527714Y-14861411D01*
X48476350Y-14831756D01*
X48424988Y-14802101D01*
X48412880Y-14798857D01*
X48400773Y-14795613D01*
X48400770Y-14795612D01*
X48362578Y-14785378D01*
X48310409Y-14771400D01*
X48310408Y-14771400D01*
X33548865Y-14771400D01*
X33481826Y-14751715D01*
X33461184Y-14735081D01*
X32559155Y-13833052D01*
X32525670Y-13771729D01*
X32530654Y-13702037D01*
X32572526Y-13646104D01*
X32630652Y-13622432D01*
X32661686Y-13618346D01*
X32895939Y-13555578D01*
X33119978Y-13462779D01*
X33119993Y-13462772D01*
X33330009Y-13341519D01*
X33522405Y-13193889D01*
X33522412Y-13193883D01*
X33693883Y-13022412D01*
X33693889Y-13022405D01*
X33841519Y-12830009D01*
X33962772Y-12619993D01*
X33962779Y-12619978D01*
X34055578Y-12395939D01*
X34118346Y-12161687D01*
X34149998Y-11921264D01*
X34150000Y-11921248D01*
X34150000Y-11750000D01*
X32954121Y-11750000D01*
X32973099Y-11704182D01*
X33000000Y-11568944D01*
X33000000Y-11431056D01*
X32973099Y-11295818D01*
X32954121Y-11250000D01*
X34150000Y-11250000D01*
X34150000Y-11078751D01*
X34149998Y-11078733D01*
X34148861Y-11070097D01*
X34849500Y-11070097D01*
X34849500Y-11929902D01*
X34890140Y-12186493D01*
X34970422Y-12433576D01*
X35051534Y-12592764D01*
X35088366Y-12665051D01*
X35241069Y-12875229D01*
X35424771Y-13058931D01*
X35634949Y-13211634D01*
X35782445Y-13286787D01*
X35866423Y-13329577D01*
X35866425Y-13329577D01*
X35866428Y-13329579D01*
X36113507Y-13409860D01*
X36245706Y-13430797D01*
X36370098Y-13450500D01*
X36370103Y-13450500D01*
X36629902Y-13450500D01*
X36743298Y-13432539D01*
X36886493Y-13409860D01*
X37133572Y-13329579D01*
X37365051Y-13211634D01*
X37575229Y-13058931D01*
X37758931Y-12875229D01*
X37911634Y-12665051D01*
X38029579Y-12433572D01*
X38109860Y-12186493D01*
X38132539Y-12043298D01*
X38150500Y-11929902D01*
X38150500Y-11078751D01*
X38850000Y-11078751D01*
X38850000Y-11250000D01*
X40045879Y-11250000D01*
X40026901Y-11295818D01*
X40000000Y-11431056D01*
X40000000Y-11568944D01*
X40026901Y-11704182D01*
X40045879Y-11750000D01*
X38850000Y-11750000D01*
X38850000Y-11921248D01*
X38850001Y-11921264D01*
X38881653Y-12161687D01*
X38944421Y-12395939D01*
X39037220Y-12619978D01*
X39037227Y-12619993D01*
X39158480Y-12830009D01*
X39306110Y-13022405D01*
X39306116Y-13022412D01*
X39477587Y-13193883D01*
X39477594Y-13193889D01*
X39669990Y-13341519D01*
X39880006Y-13462772D01*
X39880021Y-13462779D01*
X40104060Y-13555578D01*
X40338312Y-13618346D01*
X40450000Y-13633049D01*
X40450000Y-12154120D01*
X40495818Y-12173099D01*
X40631056Y-12200000D01*
X40768944Y-12200000D01*
X40904182Y-12173099D01*
X40950000Y-12154120D01*
X40950000Y-13633048D01*
X41061687Y-13618346D01*
X41295939Y-13555578D01*
X41519978Y-13462779D01*
X41519993Y-13462772D01*
X41730009Y-13341519D01*
X41922405Y-13193889D01*
X41922412Y-13193883D01*
X42093883Y-13022412D01*
X42093889Y-13022405D01*
X42241519Y-12830009D01*
X42362772Y-12619993D01*
X42362779Y-12619978D01*
X42455578Y-12395939D01*
X42518346Y-12161687D01*
X42549998Y-11921264D01*
X42550000Y-11921248D01*
X42550000Y-11750000D01*
X41354121Y-11750000D01*
X41373099Y-11704182D01*
X41400000Y-11568944D01*
X41400000Y-11431056D01*
X41373099Y-11295818D01*
X41354121Y-11250000D01*
X42550000Y-11250000D01*
X42550000Y-11078751D01*
X42549998Y-11078733D01*
X42548861Y-11070097D01*
X43249500Y-11070097D01*
X43249500Y-11929902D01*
X43290140Y-12186493D01*
X43370422Y-12433576D01*
X43451534Y-12592764D01*
X43488366Y-12665051D01*
X43641069Y-12875229D01*
X43824771Y-13058931D01*
X44034949Y-13211634D01*
X44182445Y-13286787D01*
X44266423Y-13329577D01*
X44266425Y-13329577D01*
X44266428Y-13329579D01*
X44513507Y-13409860D01*
X44645706Y-13430797D01*
X44770098Y-13450500D01*
X44770103Y-13450500D01*
X45029902Y-13450500D01*
X45143298Y-13432539D01*
X45286493Y-13409860D01*
X45533572Y-13329579D01*
X45765051Y-13211634D01*
X45975229Y-13058931D01*
X46158931Y-12875229D01*
X46311634Y-12665051D01*
X46429579Y-12433572D01*
X46509860Y-12186493D01*
X46532539Y-12043298D01*
X46550500Y-11929902D01*
X46550500Y-11078751D01*
X47250000Y-11078751D01*
X47250000Y-11250000D01*
X48445879Y-11250000D01*
X48426901Y-11295818D01*
X48400000Y-11431056D01*
X48400000Y-11568944D01*
X48426901Y-11704182D01*
X48445879Y-11750000D01*
X47250000Y-11750000D01*
X47250000Y-11921248D01*
X47250001Y-11921264D01*
X47281653Y-12161687D01*
X47344421Y-12395939D01*
X47437220Y-12619978D01*
X47437227Y-12619993D01*
X47558480Y-12830009D01*
X47706110Y-13022405D01*
X47706116Y-13022412D01*
X47877587Y-13193883D01*
X47877594Y-13193889D01*
X48069990Y-13341519D01*
X48280006Y-13462772D01*
X48280021Y-13462779D01*
X48504060Y-13555578D01*
X48738312Y-13618346D01*
X48850000Y-13633049D01*
X48850000Y-12154120D01*
X48895818Y-12173099D01*
X49031056Y-12200000D01*
X49168944Y-12200000D01*
X49304182Y-12173099D01*
X49350000Y-12154120D01*
X49350000Y-13633048D01*
X49461687Y-13618346D01*
X49695939Y-13555578D01*
X49919978Y-13462779D01*
X49919993Y-13462772D01*
X50130009Y-13341519D01*
X50322405Y-13193889D01*
X50322412Y-13193883D01*
X50493883Y-13022412D01*
X50493889Y-13022405D01*
X50641519Y-12830009D01*
X50762772Y-12619993D01*
X50762779Y-12619978D01*
X50855578Y-12395939D01*
X50918346Y-12161687D01*
X50949998Y-11921264D01*
X50950000Y-11921248D01*
X50950000Y-11750000D01*
X49754121Y-11750000D01*
X49773099Y-11704182D01*
X49800000Y-11568944D01*
X49800000Y-11431056D01*
X49773099Y-11295818D01*
X49754121Y-11250000D01*
X50950000Y-11250000D01*
X50950000Y-11078751D01*
X50949998Y-11078733D01*
X50948861Y-11070097D01*
X51649500Y-11070097D01*
X51649500Y-11929902D01*
X51690140Y-12186493D01*
X51770422Y-12433576D01*
X51851534Y-12592764D01*
X51888366Y-12665051D01*
X52041069Y-12875229D01*
X52224771Y-13058931D01*
X52434949Y-13211634D01*
X52582445Y-13286787D01*
X52666423Y-13329577D01*
X52666425Y-13329577D01*
X52666428Y-13329579D01*
X52913507Y-13409860D01*
X53045706Y-13430797D01*
X53170098Y-13450500D01*
X53170103Y-13450500D01*
X53429902Y-13450500D01*
X53543298Y-13432539D01*
X53686493Y-13409860D01*
X53933572Y-13329579D01*
X54165051Y-13211634D01*
X54375229Y-13058931D01*
X54558931Y-12875229D01*
X54711634Y-12665051D01*
X54829579Y-12433572D01*
X54909860Y-12186493D01*
X54932539Y-12043298D01*
X54950500Y-11929902D01*
X54950500Y-11070097D01*
X54928947Y-10934021D01*
X54909860Y-10813507D01*
X54829579Y-10566428D01*
X54829577Y-10566425D01*
X54829577Y-10566423D01*
X54711633Y-10334948D01*
X54711631Y-10334945D01*
X54558931Y-10124771D01*
X54491060Y-10056900D01*
X55849500Y-10056900D01*
X55849500Y-12943091D01*
X55860123Y-13031562D01*
X55915639Y-13172342D01*
X55915640Y-13172344D01*
X56007077Y-13292922D01*
X56127655Y-13384359D01*
X56127658Y-13384361D01*
X56268436Y-13439876D01*
X56356901Y-13450500D01*
X58643098Y-13450499D01*
X58731564Y-13439876D01*
X58872342Y-13384361D01*
X58992922Y-13292922D01*
X59084361Y-13172342D01*
X59139876Y-13031564D01*
X59150500Y-12943099D01*
X59150499Y-10056902D01*
X59139876Y-9968436D01*
X59084361Y-9827658D01*
X59068021Y-9806110D01*
X58992922Y-9707077D01*
X58872344Y-9615640D01*
X58872342Y-9615639D01*
X58731564Y-9560124D01*
X58731561Y-9560123D01*
X58643099Y-9549500D01*
X56356908Y-9549500D01*
X56268437Y-9560123D01*
X56127657Y-9615639D01*
X56127655Y-9615640D01*
X56007077Y-9707077D01*
X55915640Y-9827655D01*
X55915639Y-9827658D01*
X55870916Y-9941071D01*
X55860124Y-9968437D01*
X55860123Y-9968438D01*
X55849500Y-10056900D01*
X54491060Y-10056900D01*
X54375229Y-9941069D01*
X54165051Y-9788366D01*
X54092764Y-9751534D01*
X53933576Y-9670422D01*
X53686493Y-9590140D01*
X53429902Y-9549500D01*
X53429897Y-9549500D01*
X53170103Y-9549500D01*
X53170098Y-9549500D01*
X52913506Y-9590140D01*
X52666423Y-9670422D01*
X52434945Y-9788368D01*
X52224774Y-9941066D01*
X52224768Y-9941071D01*
X52041071Y-10124768D01*
X52041066Y-10124774D01*
X51888368Y-10334945D01*
X51770422Y-10566423D01*
X51690140Y-10813506D01*
X51649500Y-11070097D01*
X50948861Y-11070097D01*
X50918346Y-10838312D01*
X50855578Y-10604060D01*
X50762779Y-10380021D01*
X50762772Y-10380006D01*
X50641519Y-10169990D01*
X50493889Y-9977594D01*
X50493883Y-9977587D01*
X50322412Y-9806116D01*
X50322405Y-9806110D01*
X50130009Y-9658480D01*
X49919993Y-9537227D01*
X49919978Y-9537220D01*
X49811991Y-9492491D01*
X49695939Y-9444421D01*
X49462963Y-9381995D01*
X64199500Y-9381995D01*
X64199500Y-9618004D01*
X64199501Y-9618020D01*
X64224263Y-9806110D01*
X64230307Y-9852014D01*
X64285207Y-10056902D01*
X64291394Y-10079993D01*
X64381714Y-10298045D01*
X64381719Y-10298056D01*
X64452677Y-10420957D01*
X64499727Y-10502450D01*
X64499729Y-10502453D01*
X64499730Y-10502454D01*
X64643406Y-10689697D01*
X64643412Y-10689704D01*
X64810295Y-10856587D01*
X64810301Y-10856592D01*
X64997550Y-11000273D01*
X65082814Y-11049500D01*
X65201943Y-11118280D01*
X65201948Y-11118282D01*
X65201951Y-11118284D01*
X65420007Y-11208606D01*
X65647986Y-11269693D01*
X65881989Y-11300500D01*
X65881996Y-11300500D01*
X66118004Y-11300500D01*
X66118011Y-11300500D01*
X66352014Y-11269693D01*
X66579993Y-11208606D01*
X66798049Y-11118284D01*
X67002450Y-11000273D01*
X67189699Y-10856592D01*
X67356592Y-10689699D01*
X67500273Y-10502450D01*
X67618284Y-10298049D01*
X67708606Y-10079993D01*
X67769693Y-9852014D01*
X67800500Y-9618011D01*
X67800500Y-9381989D01*
X67769693Y-9147986D01*
X67708606Y-8920007D01*
X67618284Y-8701951D01*
X67618282Y-8701948D01*
X67618280Y-8701943D01*
X67576118Y-8628918D01*
X67500273Y-8497550D01*
X67356592Y-8310301D01*
X67356587Y-8310295D01*
X67189704Y-8143412D01*
X67189697Y-8143406D01*
X67002454Y-7999730D01*
X67002453Y-7999729D01*
X67002450Y-7999727D01*
X66917186Y-7950500D01*
X66798056Y-7881719D01*
X66798045Y-7881714D01*
X66579993Y-7791394D01*
X66352010Y-7730306D01*
X66118020Y-7699501D01*
X66118017Y-7699500D01*
X66118011Y-7699500D01*
X65881989Y-7699500D01*
X65881983Y-7699500D01*
X65881979Y-7699501D01*
X65647989Y-7730306D01*
X65420006Y-7791394D01*
X65201954Y-7881714D01*
X65201943Y-7881719D01*
X64997545Y-7999730D01*
X64810302Y-8143406D01*
X64810295Y-8143412D01*
X64643412Y-8310295D01*
X64643406Y-8310302D01*
X64499730Y-8497545D01*
X64381719Y-8701943D01*
X64381714Y-8701954D01*
X64291394Y-8920006D01*
X64230306Y-9147989D01*
X64199501Y-9381979D01*
X64199500Y-9381995D01*
X49462963Y-9381995D01*
X49461687Y-9381653D01*
X49350000Y-9366948D01*
X49350000Y-10845879D01*
X49304182Y-10826901D01*
X49168944Y-10800000D01*
X49031056Y-10800000D01*
X48895818Y-10826901D01*
X48850000Y-10845879D01*
X48850000Y-9366948D01*
X48849999Y-9366948D01*
X48738312Y-9381653D01*
X48504060Y-9444421D01*
X48280021Y-9537220D01*
X48280006Y-9537227D01*
X48069990Y-9658480D01*
X47877594Y-9806110D01*
X47877587Y-9806116D01*
X47706116Y-9977587D01*
X47706110Y-9977594D01*
X47558480Y-10169990D01*
X47437227Y-10380006D01*
X47437220Y-10380021D01*
X47344421Y-10604060D01*
X47281653Y-10838312D01*
X47250001Y-11078735D01*
X47250000Y-11078751D01*
X46550500Y-11078751D01*
X46550500Y-11070097D01*
X46528947Y-10934021D01*
X46509860Y-10813507D01*
X46429579Y-10566428D01*
X46429577Y-10566425D01*
X46429577Y-10566423D01*
X46334599Y-10380021D01*
X46311634Y-10334949D01*
X46158931Y-10124771D01*
X45975229Y-9941069D01*
X45765051Y-9788366D01*
X45692764Y-9751534D01*
X45533576Y-9670422D01*
X45286493Y-9590140D01*
X45029902Y-9549500D01*
X45029897Y-9549500D01*
X44770103Y-9549500D01*
X44770098Y-9549500D01*
X44513506Y-9590140D01*
X44266423Y-9670422D01*
X44034945Y-9788368D01*
X43824774Y-9941066D01*
X43824768Y-9941071D01*
X43641071Y-10124768D01*
X43641066Y-10124774D01*
X43488368Y-10334945D01*
X43370422Y-10566423D01*
X43290140Y-10813506D01*
X43249500Y-11070097D01*
X42548861Y-11070097D01*
X42518346Y-10838312D01*
X42455578Y-10604060D01*
X42362779Y-10380021D01*
X42362772Y-10380006D01*
X42241519Y-10169990D01*
X42093889Y-9977594D01*
X42093883Y-9977587D01*
X41922412Y-9806116D01*
X41922405Y-9806110D01*
X41730009Y-9658480D01*
X41519993Y-9537227D01*
X41519978Y-9537220D01*
X41295939Y-9444421D01*
X41061687Y-9381653D01*
X40950000Y-9366948D01*
X40950000Y-10845879D01*
X40904182Y-10826901D01*
X40768944Y-10800000D01*
X40631056Y-10800000D01*
X40495818Y-10826901D01*
X40450000Y-10845879D01*
X40450000Y-9366948D01*
X40449999Y-9366948D01*
X40338312Y-9381653D01*
X40104060Y-9444421D01*
X39880021Y-9537220D01*
X39880006Y-9537227D01*
X39669990Y-9658480D01*
X39477594Y-9806110D01*
X39477587Y-9806116D01*
X39306116Y-9977587D01*
X39306110Y-9977594D01*
X39158480Y-10169990D01*
X39037227Y-10380006D01*
X39037220Y-10380021D01*
X38944421Y-10604060D01*
X38881653Y-10838312D01*
X38850001Y-11078735D01*
X38850000Y-11078751D01*
X38150500Y-11078751D01*
X38150500Y-11070097D01*
X38128947Y-10934021D01*
X38109860Y-10813507D01*
X38029579Y-10566428D01*
X38029577Y-10566425D01*
X38029577Y-10566423D01*
X37934599Y-10380021D01*
X37911634Y-10334949D01*
X37758931Y-10124771D01*
X37575229Y-9941069D01*
X37365051Y-9788366D01*
X37292764Y-9751534D01*
X37133576Y-9670422D01*
X36886493Y-9590140D01*
X36629902Y-9549500D01*
X36629897Y-9549500D01*
X36370103Y-9549500D01*
X36370098Y-9549500D01*
X36113506Y-9590140D01*
X35866423Y-9670422D01*
X35634945Y-9788368D01*
X35424774Y-9941066D01*
X35424768Y-9941071D01*
X35241071Y-10124768D01*
X35241066Y-10124774D01*
X35088368Y-10334945D01*
X34970422Y-10566423D01*
X34890140Y-10813506D01*
X34849500Y-11070097D01*
X34148861Y-11070097D01*
X34118346Y-10838312D01*
X34055578Y-10604060D01*
X33962779Y-10380021D01*
X33962772Y-10380006D01*
X33841519Y-10169990D01*
X33693889Y-9977594D01*
X33693883Y-9977587D01*
X33522412Y-9806116D01*
X33522405Y-9806110D01*
X33330009Y-9658480D01*
X33119993Y-9537227D01*
X33119978Y-9537220D01*
X32895939Y-9444421D01*
X32661687Y-9381653D01*
X32550000Y-9366948D01*
X32550000Y-10845879D01*
X32504182Y-10826901D01*
X32368944Y-10800000D01*
X32231056Y-10800000D01*
X32095818Y-10826901D01*
X32050000Y-10845879D01*
X32050000Y-9366948D01*
X32049999Y-9366948D01*
X31938312Y-9381653D01*
X31704060Y-9444421D01*
X31480021Y-9537220D01*
X31480006Y-9537227D01*
X31269990Y-9658480D01*
X31077594Y-9806110D01*
X31077587Y-9806116D01*
X30906116Y-9977587D01*
X30906110Y-9977594D01*
X30758480Y-10169990D01*
X30637227Y-10380006D01*
X30637220Y-10380021D01*
X30544421Y-10604060D01*
X30481653Y-10838312D01*
X30450001Y-11078735D01*
X30450000Y-11078751D01*
X30450000Y-11259114D01*
X30430315Y-11326153D01*
X30377511Y-11371908D01*
X30308353Y-11381852D01*
X30244797Y-11352827D01*
X30218613Y-11321115D01*
X30182816Y-11259114D01*
X30162189Y-11223387D01*
X30078313Y-11139511D01*
X29975586Y-11080201D01*
X29861009Y-11049500D01*
X29861006Y-11049500D01*
X29853143Y-11049500D01*
X29786104Y-11029815D01*
X29740349Y-10977011D01*
X29730670Y-10944897D01*
X29709860Y-10813507D01*
X29709860Y-10813506D01*
X29629577Y-10566423D01*
X29534599Y-10380021D01*
X29511634Y-10334949D01*
X29358931Y-10124771D01*
X29175229Y-9941069D01*
X28965051Y-9788366D01*
X28892764Y-9751534D01*
X28733576Y-9670422D01*
X28486493Y-9590140D01*
X28229902Y-9549500D01*
X28229897Y-9549500D01*
X27970103Y-9549500D01*
X27970098Y-9549500D01*
X27713506Y-9590140D01*
X27466423Y-9670422D01*
X27234945Y-9788368D01*
X27024774Y-9941066D01*
X27024768Y-9941071D01*
X26841071Y-10124768D01*
X26841066Y-10124774D01*
X26688368Y-10334945D01*
X26570422Y-10566423D01*
X26490140Y-10813506D01*
X26449500Y-11070097D01*
X26449500Y-11929902D01*
X26490140Y-12186493D01*
X26570422Y-12433576D01*
X26651534Y-12592764D01*
X26688366Y-12665051D01*
X26841069Y-12875229D01*
X27024771Y-13058931D01*
X27234949Y-13211634D01*
X27382445Y-13286787D01*
X27466423Y-13329577D01*
X27466425Y-13329577D01*
X27466428Y-13329579D01*
X27713507Y-13409860D01*
X27845706Y-13430797D01*
X27970098Y-13450500D01*
X27970103Y-13450500D01*
X28229902Y-13450500D01*
X28343298Y-13432539D01*
X28486493Y-13409860D01*
X28733572Y-13329579D01*
X28965051Y-13211634D01*
X29175229Y-13058931D01*
X29358931Y-12875229D01*
X29511634Y-12665051D01*
X29629579Y-12433572D01*
X29629798Y-12432895D01*
X29629952Y-12432670D01*
X29631443Y-12429072D01*
X29632198Y-12429384D01*
X29669226Y-12375217D01*
X29733581Y-12348009D01*
X29802429Y-12359913D01*
X29835415Y-12383518D01*
X33034286Y-15582389D01*
X33118458Y-15630986D01*
X33137015Y-15641700D01*
X33144143Y-15643610D01*
X33144156Y-15643612D01*
X33144168Y-15643616D01*
X33251591Y-15672400D01*
X48013135Y-15672400D01*
X48080174Y-15692085D01*
X48100816Y-15708719D01*
X49068148Y-16676052D01*
X49101633Y-16737375D01*
X49096649Y-16807067D01*
X49054777Y-16863000D01*
X49018785Y-16881664D01*
X48858363Y-16933787D01*
X48858360Y-16933788D01*
X48697002Y-17016006D01*
X48550506Y-17122440D01*
X48479605Y-17193341D01*
X48418281Y-17226825D01*
X48348590Y-17221840D01*
X48304243Y-17193340D01*
X47545716Y-16434813D01*
X47545714Y-16434811D01*
X47473490Y-16393112D01*
X47442988Y-16375501D01*
X47430880Y-16372257D01*
X47418773Y-16369013D01*
X47418770Y-16369012D01*
X47380578Y-16358778D01*
X47328409Y-16344800D01*
X46146491Y-16344800D01*
X46060558Y-16367825D01*
X46031913Y-16375501D01*
X45929186Y-16434809D01*
X45929184Y-16434811D01*
X45193206Y-17170790D01*
X45131883Y-17204275D01*
X45062191Y-17199291D01*
X45017844Y-17170790D01*
X44969499Y-17122445D01*
X44969494Y-17122441D01*
X44822997Y-17016006D01*
X44822996Y-17016005D01*
X44822994Y-17016004D01*
X44765882Y-16986904D01*
X44661639Y-16933788D01*
X44661636Y-16933787D01*
X44489410Y-16877829D01*
X44310551Y-16849500D01*
X44310546Y-16849500D01*
X44129454Y-16849500D01*
X44129449Y-16849500D01*
X43950589Y-16877829D01*
X43778363Y-16933787D01*
X43778360Y-16933788D01*
X43617002Y-17016006D01*
X43470505Y-17122441D01*
X43470500Y-17122445D01*
X43342445Y-17250500D01*
X43342441Y-17250505D01*
X43236006Y-17397002D01*
X43153788Y-17558360D01*
X43153787Y-17558363D01*
X43097829Y-17730589D01*
X43072473Y-17890678D01*
X43042544Y-17953813D01*
X42983232Y-17990744D01*
X42913369Y-17989746D01*
X42855137Y-17951136D01*
X42827527Y-17890678D01*
X42805245Y-17750000D01*
X42802171Y-17730591D01*
X42751207Y-17573737D01*
X42746212Y-17558363D01*
X42746211Y-17558360D01*
X42681401Y-17431166D01*
X42663996Y-17397006D01*
X42607825Y-17319693D01*
X42557558Y-17250505D01*
X42557554Y-17250500D01*
X42429499Y-17122445D01*
X42429494Y-17122441D01*
X42282997Y-17016006D01*
X42282996Y-17016005D01*
X42282994Y-17016004D01*
X42225882Y-16986904D01*
X42121639Y-16933788D01*
X42121636Y-16933787D01*
X41949410Y-16877829D01*
X41770551Y-16849500D01*
X41770546Y-16849500D01*
X41589454Y-16849500D01*
X41589449Y-16849500D01*
X41410589Y-16877829D01*
X41238363Y-16933787D01*
X41238360Y-16933788D01*
X41077002Y-17016006D01*
X40930505Y-17122441D01*
X40930500Y-17122445D01*
X40802445Y-17250500D01*
X40802441Y-17250505D01*
X40696006Y-17397002D01*
X40613788Y-17558360D01*
X40613787Y-17558363D01*
X40557829Y-17730589D01*
X40532473Y-17890678D01*
X40502544Y-17953813D01*
X40443232Y-17990744D01*
X40373369Y-17989746D01*
X40315137Y-17951136D01*
X40287527Y-17890678D01*
X40265245Y-17750000D01*
X40262171Y-17730591D01*
X40211207Y-17573737D01*
X40206212Y-17558363D01*
X40206211Y-17558360D01*
X40141401Y-17431166D01*
X40123996Y-17397006D01*
X40067825Y-17319693D01*
X40017558Y-17250505D01*
X40017554Y-17250500D01*
X39889499Y-17122445D01*
X39889494Y-17122441D01*
X39742997Y-17016006D01*
X39742996Y-17016005D01*
X39742994Y-17016004D01*
X39685882Y-16986904D01*
X39581639Y-16933788D01*
X39581636Y-16933787D01*
X39409410Y-16877829D01*
X39230551Y-16849500D01*
X39230546Y-16849500D01*
X39049454Y-16849500D01*
X39049449Y-16849500D01*
X38870589Y-16877829D01*
X38698363Y-16933787D01*
X38698360Y-16933788D01*
X38537002Y-17016006D01*
X38390505Y-17122441D01*
X38390500Y-17122445D01*
X38262445Y-17250500D01*
X38262441Y-17250505D01*
X38156006Y-17397002D01*
X38073788Y-17558360D01*
X38073787Y-17558363D01*
X38017829Y-17730589D01*
X37992473Y-17890678D01*
X37962544Y-17953813D01*
X37903232Y-17990744D01*
X37833369Y-17989746D01*
X37775137Y-17951136D01*
X37747527Y-17890678D01*
X37725245Y-17750000D01*
X37722171Y-17730591D01*
X37671207Y-17573737D01*
X37666212Y-17558363D01*
X37666211Y-17558360D01*
X37601401Y-17431166D01*
X37583996Y-17397006D01*
X37527825Y-17319693D01*
X37477558Y-17250505D01*
X37477554Y-17250500D01*
X37349499Y-17122445D01*
X37349494Y-17122441D01*
X37202997Y-17016006D01*
X37202996Y-17016005D01*
X37202994Y-17016004D01*
X37145882Y-16986904D01*
X37041639Y-16933788D01*
X37041636Y-16933787D01*
X36869410Y-16877829D01*
X36690551Y-16849500D01*
X36690546Y-16849500D01*
X36509454Y-16849500D01*
X36509449Y-16849500D01*
X36330589Y-16877829D01*
X36158363Y-16933787D01*
X36158360Y-16933788D01*
X35997002Y-17016006D01*
X35850505Y-17122441D01*
X35850500Y-17122445D01*
X35722445Y-17250500D01*
X35722441Y-17250505D01*
X35616006Y-17397002D01*
X35533788Y-17558360D01*
X35533787Y-17558363D01*
X35477829Y-17730589D01*
X35452473Y-17890678D01*
X35422544Y-17953813D01*
X35363232Y-17990744D01*
X35293369Y-17989746D01*
X35235137Y-17951136D01*
X35207527Y-17890678D01*
X35185245Y-17750000D01*
X35182171Y-17730591D01*
X35131207Y-17573737D01*
X35126212Y-17558363D01*
X35126211Y-17558360D01*
X35061401Y-17431166D01*
X35043996Y-17397006D01*
X34987825Y-17319693D01*
X34937558Y-17250505D01*
X34937554Y-17250500D01*
X34809499Y-17122445D01*
X34809494Y-17122441D01*
X34662997Y-17016006D01*
X34662996Y-17016005D01*
X34662994Y-17016004D01*
X34605882Y-16986904D01*
X34501639Y-16933788D01*
X34501636Y-16933787D01*
X34329410Y-16877829D01*
X34150551Y-16849500D01*
X34150546Y-16849500D01*
X33969454Y-16849500D01*
X33969449Y-16849500D01*
X33790589Y-16877829D01*
X33618363Y-16933787D01*
X33618360Y-16933788D01*
X33457002Y-17016006D01*
X33310505Y-17122441D01*
X33310500Y-17122445D01*
X33182445Y-17250500D01*
X33182441Y-17250505D01*
X33076006Y-17397002D01*
X32993788Y-17558360D01*
X32993787Y-17558363D01*
X32937829Y-17730589D01*
X32912473Y-17890678D01*
X32882544Y-17953813D01*
X32823232Y-17990744D01*
X32753369Y-17989746D01*
X32695137Y-17951136D01*
X32667527Y-17890678D01*
X32645245Y-17750000D01*
X32642171Y-17730591D01*
X32591207Y-17573737D01*
X32586212Y-17558363D01*
X32586211Y-17558360D01*
X32521401Y-17431166D01*
X32503996Y-17397006D01*
X32447825Y-17319693D01*
X32397558Y-17250505D01*
X32397554Y-17250500D01*
X32269499Y-17122445D01*
X32269494Y-17122441D01*
X32122997Y-17016006D01*
X32122996Y-17016005D01*
X32122994Y-17016004D01*
X32065882Y-16986904D01*
X31961639Y-16933788D01*
X31961636Y-16933787D01*
X31789410Y-16877829D01*
X31610551Y-16849500D01*
X31610546Y-16849500D01*
X31429454Y-16849500D01*
X31429449Y-16849500D01*
X31250589Y-16877829D01*
X31078363Y-16933787D01*
X31078360Y-16933788D01*
X30917002Y-17016006D01*
X30770505Y-17122441D01*
X30770500Y-17122445D01*
X30642445Y-17250500D01*
X30642441Y-17250505D01*
X30536006Y-17397002D01*
X30453788Y-17558360D01*
X30453787Y-17558363D01*
X30397829Y-17730589D01*
X30372473Y-17890678D01*
X30342544Y-17953813D01*
X30283232Y-17990744D01*
X30213369Y-17989746D01*
X30155137Y-17951136D01*
X30127527Y-17890678D01*
X30105245Y-17750000D01*
X30102171Y-17730591D01*
X30051207Y-17573737D01*
X30046212Y-17558363D01*
X30046211Y-17558360D01*
X29981401Y-17431166D01*
X29963996Y-17397006D01*
X29907825Y-17319693D01*
X29857558Y-17250505D01*
X29857554Y-17250500D01*
X29729499Y-17122445D01*
X29729494Y-17122441D01*
X29582997Y-17016006D01*
X29582996Y-17016005D01*
X29582994Y-17016004D01*
X29525882Y-16986904D01*
X29421639Y-16933788D01*
X29421636Y-16933787D01*
X29249410Y-16877829D01*
X29070551Y-16849500D01*
X29070546Y-16849500D01*
X28889454Y-16849500D01*
X28889449Y-16849500D01*
X28710589Y-16877829D01*
X28538363Y-16933787D01*
X28538360Y-16933788D01*
X28377002Y-17016006D01*
X28230505Y-17122441D01*
X28230500Y-17122445D01*
X28102445Y-17250500D01*
X28102441Y-17250505D01*
X27996006Y-17397002D01*
X27913788Y-17558360D01*
X27913787Y-17558363D01*
X27857829Y-17730589D01*
X27832473Y-17890678D01*
X27802544Y-17953813D01*
X27743232Y-17990744D01*
X27673369Y-17989746D01*
X27615137Y-17951136D01*
X27587527Y-17890678D01*
X27565245Y-17750000D01*
X27562171Y-17730591D01*
X27511207Y-17573737D01*
X27506212Y-17558363D01*
X27506211Y-17558360D01*
X27441401Y-17431166D01*
X27423996Y-17397006D01*
X27367825Y-17319693D01*
X27317558Y-17250505D01*
X27317554Y-17250500D01*
X27189499Y-17122445D01*
X27189494Y-17122441D01*
X27042997Y-17016006D01*
X27042996Y-17016005D01*
X27042994Y-17016004D01*
X26985882Y-16986904D01*
X26881639Y-16933788D01*
X26881636Y-16933787D01*
X26709410Y-16877829D01*
X26530551Y-16849500D01*
X26530546Y-16849500D01*
X26349454Y-16849500D01*
X26349449Y-16849500D01*
X26170589Y-16877829D01*
X25998363Y-16933787D01*
X25998360Y-16933788D01*
X25837002Y-17016006D01*
X25690505Y-17122441D01*
X25690500Y-17122445D01*
X25562445Y-17250500D01*
X25562441Y-17250505D01*
X25456006Y-17397002D01*
X25373788Y-17558360D01*
X25373787Y-17558363D01*
X25317829Y-17730589D01*
X25292473Y-17890678D01*
X25262544Y-17953813D01*
X25203232Y-17990744D01*
X25133369Y-17989746D01*
X25075137Y-17951136D01*
X25047527Y-17890678D01*
X25025245Y-17750000D01*
X25022171Y-17730591D01*
X24971207Y-17573737D01*
X24966212Y-17558363D01*
X24966211Y-17558360D01*
X24901401Y-17431166D01*
X24883996Y-17397006D01*
X24827825Y-17319693D01*
X24777558Y-17250505D01*
X24777554Y-17250500D01*
X24649499Y-17122445D01*
X24649494Y-17122441D01*
X24502997Y-17016006D01*
X24502996Y-17016005D01*
X24502994Y-17016004D01*
X24445882Y-16986904D01*
X24341639Y-16933788D01*
X24341636Y-16933787D01*
X24169410Y-16877829D01*
X23990551Y-16849500D01*
X23990546Y-16849500D01*
X23809454Y-16849500D01*
X23809449Y-16849500D01*
X23630589Y-16877829D01*
X23458363Y-16933787D01*
X23458360Y-16933788D01*
X23297002Y-17016006D01*
X23150505Y-17122441D01*
X23150500Y-17122445D01*
X23022445Y-17250500D01*
X23022441Y-17250505D01*
X22916006Y-17397002D01*
X22833788Y-17558360D01*
X22833787Y-17558363D01*
X22777829Y-17730589D01*
X22752473Y-17890678D01*
X22722544Y-17953813D01*
X22663232Y-17990744D01*
X22593369Y-17989746D01*
X22535137Y-17951136D01*
X22507527Y-17890678D01*
X22485245Y-17750000D01*
X22482171Y-17730591D01*
X22431207Y-17573737D01*
X22426212Y-17558363D01*
X22426211Y-17558360D01*
X22361401Y-17431166D01*
X22343996Y-17397006D01*
X22287825Y-17319693D01*
X22237558Y-17250505D01*
X22237554Y-17250500D01*
X22109499Y-17122445D01*
X22109494Y-17122441D01*
X21962997Y-17016006D01*
X21962996Y-17016005D01*
X21962994Y-17016004D01*
X21905882Y-16986904D01*
X21801639Y-16933788D01*
X21801636Y-16933787D01*
X21629410Y-16877829D01*
X21450551Y-16849500D01*
X21450546Y-16849500D01*
X21269454Y-16849500D01*
X21269449Y-16849500D01*
X21090589Y-16877829D01*
X20918363Y-16933787D01*
X20918360Y-16933788D01*
X20757002Y-17016006D01*
X20610505Y-17122441D01*
X20610500Y-17122445D01*
X20482445Y-17250500D01*
X20482441Y-17250505D01*
X20376006Y-17397002D01*
X20293788Y-17558360D01*
X20293787Y-17558363D01*
X20237829Y-17730589D01*
X20212473Y-17890678D01*
X20182544Y-17953813D01*
X20123232Y-17990744D01*
X20053369Y-17989746D01*
X19995137Y-17951136D01*
X19967527Y-17890678D01*
X19945245Y-17750000D01*
X19942171Y-17730591D01*
X19891207Y-17573737D01*
X19886212Y-17558363D01*
X19886211Y-17558360D01*
X19821401Y-17431166D01*
X19803996Y-17397006D01*
X19747825Y-17319693D01*
X19697558Y-17250505D01*
X19697554Y-17250500D01*
X19569499Y-17122445D01*
X19569494Y-17122441D01*
X19422997Y-17016006D01*
X19422996Y-17016005D01*
X19422994Y-17016004D01*
X19365882Y-16986904D01*
X19261639Y-16933788D01*
X19261636Y-16933787D01*
X19089410Y-16877829D01*
X18910551Y-16849500D01*
X18910546Y-16849500D01*
X18729454Y-16849500D01*
X18729449Y-16849500D01*
X18550589Y-16877829D01*
X18378363Y-16933787D01*
X18378360Y-16933788D01*
X18217002Y-17016006D01*
X18070506Y-17122440D01*
X17998605Y-17194341D01*
X17937281Y-17227825D01*
X17867590Y-17222840D01*
X17823243Y-17194340D01*
X17022016Y-16393113D01*
X17022014Y-16393111D01*
X16969235Y-16362639D01*
X16919288Y-16333801D01*
X16907180Y-16330557D01*
X16895073Y-16327313D01*
X16895070Y-16327312D01*
X16856878Y-16317078D01*
X16804709Y-16303100D01*
X15761991Y-16303100D01*
X15647414Y-16333801D01*
X15628362Y-16344801D01*
X15597464Y-16362640D01*
X15544687Y-16393110D01*
X15544684Y-16393112D01*
X14740106Y-17197690D01*
X14678783Y-17231175D01*
X14609091Y-17226191D01*
X14564744Y-17197690D01*
X14489499Y-17122445D01*
X14489494Y-17122441D01*
X14342997Y-17016006D01*
X14342996Y-17016005D01*
X14342994Y-17016004D01*
X14285882Y-16986904D01*
X14181639Y-16933788D01*
X14181636Y-16933787D01*
X14009410Y-16877829D01*
X13830551Y-16849500D01*
X13830546Y-16849500D01*
X13649454Y-16849500D01*
X13649449Y-16849500D01*
X13470589Y-16877829D01*
X13298363Y-16933787D01*
X13298360Y-16933788D01*
X13137002Y-17016006D01*
X12990505Y-17122441D01*
X12990500Y-17122445D01*
X12862445Y-17250500D01*
X12862441Y-17250505D01*
X12756006Y-17397002D01*
X12673788Y-17558360D01*
X12673787Y-17558363D01*
X12617829Y-17730589D01*
X12592473Y-17890678D01*
X12562544Y-17953813D01*
X12503232Y-17990744D01*
X12433369Y-17989746D01*
X12375137Y-17951136D01*
X12347527Y-17890678D01*
X12325245Y-17750000D01*
X12322171Y-17730591D01*
X12271207Y-17573737D01*
X12266212Y-17558363D01*
X12266211Y-17558360D01*
X12201401Y-17431166D01*
X12183996Y-17397006D01*
X12127825Y-17319693D01*
X12077558Y-17250505D01*
X12077554Y-17250500D01*
X11949499Y-17122445D01*
X11949494Y-17122441D01*
X11802997Y-17016006D01*
X11802996Y-17016005D01*
X11802994Y-17016004D01*
X11745882Y-16986904D01*
X11641639Y-16933788D01*
X11641636Y-16933787D01*
X11469410Y-16877829D01*
X11290551Y-16849500D01*
X11290546Y-16849500D01*
X11109454Y-16849500D01*
X11109449Y-16849500D01*
X10930589Y-16877829D01*
X10758363Y-16933787D01*
X10758360Y-16933788D01*
X10597002Y-17016006D01*
X10450505Y-17122441D01*
X10450500Y-17122445D01*
X10322445Y-17250500D01*
X10322441Y-17250505D01*
X10216004Y-17397004D01*
X10148908Y-17528685D01*
X10100933Y-17579480D01*
X10033112Y-17596275D01*
X9966977Y-17573737D01*
X9923527Y-17519021D01*
X9920492Y-17510705D01*
X9911094Y-17481780D01*
X9814620Y-17292442D01*
X9689727Y-17120540D01*
X9689723Y-17120535D01*
X9539464Y-16970276D01*
X9539459Y-16970272D01*
X9367557Y-16845379D01*
X9178215Y-16748903D01*
X8976124Y-16683241D01*
X8910000Y-16672768D01*
X8910000Y-17566988D01*
X8852993Y-17534075D01*
X8725826Y-17500000D01*
X8594174Y-17500000D01*
X8467007Y-17534075D01*
X8410000Y-17566988D01*
X8410000Y-16672768D01*
X8409999Y-16672768D01*
X8343875Y-16683241D01*
X8141784Y-16748903D01*
X7952442Y-16845379D01*
X7780540Y-16970272D01*
X7780535Y-16970276D01*
X7630276Y-17120535D01*
X7630272Y-17120540D01*
X7505379Y-17292442D01*
X7408904Y-17481782D01*
X7343242Y-17683870D01*
X7343242Y-17683873D01*
X7332769Y-17750000D01*
X500000Y-17750000D01*
X500000Y-11070097D01*
X9649500Y-11070097D01*
X9649500Y-11929902D01*
X9690140Y-12186493D01*
X9770422Y-12433576D01*
X9851534Y-12592764D01*
X9888366Y-12665051D01*
X10041069Y-12875229D01*
X10224771Y-13058931D01*
X10434949Y-13211634D01*
X10582445Y-13286787D01*
X10666423Y-13329577D01*
X10666425Y-13329577D01*
X10666428Y-13329579D01*
X10913507Y-13409860D01*
X11045706Y-13430797D01*
X11170098Y-13450500D01*
X11170103Y-13450500D01*
X11429902Y-13450500D01*
X11543298Y-13432539D01*
X11686493Y-13409860D01*
X11933572Y-13329579D01*
X12165051Y-13211634D01*
X12375229Y-13058931D01*
X12558931Y-12875229D01*
X12711634Y-12665051D01*
X12829579Y-12433572D01*
X12909860Y-12186493D01*
X12932539Y-12043298D01*
X12950500Y-11929902D01*
X12950500Y-11070097D01*
X13849500Y-11070097D01*
X13849500Y-11929902D01*
X13890140Y-12186493D01*
X13970422Y-12433576D01*
X14051534Y-12592764D01*
X14088366Y-12665051D01*
X14241069Y-12875229D01*
X14424771Y-13058931D01*
X14634949Y-13211634D01*
X14782445Y-13286787D01*
X14866423Y-13329577D01*
X14866425Y-13329577D01*
X14866428Y-13329579D01*
X15113507Y-13409860D01*
X15245706Y-13430797D01*
X15370098Y-13450500D01*
X15370103Y-13450500D01*
X15629902Y-13450500D01*
X15743298Y-13432539D01*
X15886493Y-13409860D01*
X16133572Y-13329579D01*
X16365051Y-13211634D01*
X16575229Y-13058931D01*
X16758931Y-12875229D01*
X16911634Y-12665051D01*
X17029579Y-12433572D01*
X17109860Y-12186493D01*
X17132539Y-12043298D01*
X17150500Y-11929902D01*
X17150500Y-11070097D01*
X18049500Y-11070097D01*
X18049500Y-11929902D01*
X18090140Y-12186493D01*
X18170422Y-12433576D01*
X18251534Y-12592764D01*
X18288366Y-12665051D01*
X18441069Y-12875229D01*
X18624771Y-13058931D01*
X18834949Y-13211634D01*
X18982445Y-13286787D01*
X19066423Y-13329577D01*
X19066425Y-13329577D01*
X19066428Y-13329579D01*
X19313507Y-13409860D01*
X19445706Y-13430797D01*
X19570098Y-13450500D01*
X19570103Y-13450500D01*
X19829902Y-13450500D01*
X19943298Y-13432539D01*
X20086493Y-13409860D01*
X20333572Y-13329579D01*
X20565051Y-13211634D01*
X20775229Y-13058931D01*
X20958931Y-12875229D01*
X21111634Y-12665051D01*
X21229579Y-12433572D01*
X21309860Y-12186493D01*
X21332539Y-12043298D01*
X21350500Y-11929902D01*
X21350500Y-11070097D01*
X22249500Y-11070097D01*
X22249500Y-11929902D01*
X22290140Y-12186493D01*
X22370422Y-12433576D01*
X22451534Y-12592764D01*
X22488366Y-12665051D01*
X22641069Y-12875229D01*
X22824771Y-13058931D01*
X23034949Y-13211634D01*
X23182445Y-13286787D01*
X23266423Y-13329577D01*
X23266425Y-13329577D01*
X23266428Y-13329579D01*
X23513507Y-13409860D01*
X23645706Y-13430797D01*
X23770098Y-13450500D01*
X23770103Y-13450500D01*
X24029902Y-13450500D01*
X24143298Y-13432539D01*
X24286493Y-13409860D01*
X24533572Y-13329579D01*
X24765051Y-13211634D01*
X24975229Y-13058931D01*
X25158931Y-12875229D01*
X25311634Y-12665051D01*
X25429579Y-12433572D01*
X25509860Y-12186493D01*
X25532539Y-12043298D01*
X25550500Y-11929902D01*
X25550500Y-11070097D01*
X25528947Y-10934021D01*
X25509860Y-10813507D01*
X25429579Y-10566428D01*
X25429577Y-10566425D01*
X25429577Y-10566423D01*
X25334599Y-10380021D01*
X25311634Y-10334949D01*
X25158931Y-10124771D01*
X24975229Y-9941069D01*
X24765051Y-9788366D01*
X24692764Y-9751534D01*
X24533576Y-9670422D01*
X24286493Y-9590140D01*
X24029902Y-9549500D01*
X24029897Y-9549500D01*
X23770103Y-9549500D01*
X23770098Y-9549500D01*
X23513506Y-9590140D01*
X23266423Y-9670422D01*
X23034945Y-9788368D01*
X22824774Y-9941066D01*
X22824768Y-9941071D01*
X22641071Y-10124768D01*
X22641066Y-10124774D01*
X22488368Y-10334945D01*
X22370422Y-10566423D01*
X22290140Y-10813506D01*
X22249500Y-11070097D01*
X21350500Y-11070097D01*
X21328947Y-10934021D01*
X21309860Y-10813507D01*
X21229579Y-10566428D01*
X21229577Y-10566425D01*
X21229577Y-10566423D01*
X21134599Y-10380021D01*
X21111634Y-10334949D01*
X20958931Y-10124771D01*
X20775229Y-9941069D01*
X20565051Y-9788366D01*
X20492764Y-9751534D01*
X20333576Y-9670422D01*
X20086493Y-9590140D01*
X19829902Y-9549500D01*
X19829897Y-9549500D01*
X19570103Y-9549500D01*
X19570098Y-9549500D01*
X19313506Y-9590140D01*
X19066423Y-9670422D01*
X18834945Y-9788368D01*
X18624774Y-9941066D01*
X18624768Y-9941071D01*
X18441071Y-10124768D01*
X18441066Y-10124774D01*
X18288368Y-10334945D01*
X18170422Y-10566423D01*
X18090140Y-10813506D01*
X18049500Y-11070097D01*
X17150500Y-11070097D01*
X17128947Y-10934021D01*
X17109860Y-10813507D01*
X17029579Y-10566428D01*
X17029577Y-10566425D01*
X17029577Y-10566423D01*
X16934599Y-10380021D01*
X16911634Y-10334949D01*
X16758931Y-10124771D01*
X16575229Y-9941069D01*
X16365051Y-9788366D01*
X16292764Y-9751534D01*
X16133576Y-9670422D01*
X15886493Y-9590140D01*
X15629902Y-9549500D01*
X15629897Y-9549500D01*
X15370103Y-9549500D01*
X15370098Y-9549500D01*
X15113506Y-9590140D01*
X14866423Y-9670422D01*
X14634945Y-9788368D01*
X14424774Y-9941066D01*
X14424768Y-9941071D01*
X14241071Y-10124768D01*
X14241066Y-10124774D01*
X14088368Y-10334945D01*
X13970422Y-10566423D01*
X13890140Y-10813506D01*
X13849500Y-11070097D01*
X12950500Y-11070097D01*
X12928947Y-10934021D01*
X12909860Y-10813507D01*
X12829579Y-10566428D01*
X12829577Y-10566425D01*
X12829577Y-10566423D01*
X12734599Y-10380021D01*
X12711634Y-10334949D01*
X12558931Y-10124771D01*
X12375229Y-9941069D01*
X12165051Y-9788366D01*
X12092764Y-9751534D01*
X11933576Y-9670422D01*
X11686493Y-9590140D01*
X11429902Y-9549500D01*
X11429897Y-9549500D01*
X11170103Y-9549500D01*
X11170098Y-9549500D01*
X10913506Y-9590140D01*
X10666423Y-9670422D01*
X10434945Y-9788368D01*
X10224774Y-9941066D01*
X10224768Y-9941071D01*
X10041071Y-10124768D01*
X10041066Y-10124774D01*
X9888368Y-10334945D01*
X9770422Y-10566423D01*
X9690140Y-10813506D01*
X9649500Y-11070097D01*
X500000Y-11070097D01*
X500000Y-4378711D01*
X2649500Y-4378711D01*
X2649500Y-4621288D01*
X2677628Y-4834949D01*
X2681162Y-4861789D01*
X2697156Y-4921478D01*
X2743947Y-5096104D01*
X2773111Y-5166511D01*
X2836776Y-5320212D01*
X2958064Y-5530289D01*
X2958066Y-5530292D01*
X2958067Y-5530293D01*
X3105733Y-5722736D01*
X3105739Y-5722743D01*
X3277256Y-5894260D01*
X3277262Y-5894265D01*
X3469711Y-6041936D01*
X3679788Y-6163224D01*
X3903900Y-6256054D01*
X4138211Y-6318838D01*
X4318586Y-6342584D01*
X4378711Y-6350500D01*
X4378712Y-6350500D01*
X4621289Y-6350500D01*
X4669388Y-6344167D01*
X4861789Y-6318838D01*
X5096100Y-6256054D01*
X5320212Y-6163224D01*
X5530289Y-6041936D01*
X5722738Y-5894265D01*
X5894265Y-5722738D01*
X6004750Y-5578751D01*
X9450000Y-5578751D01*
X9450000Y-5750000D01*
X10645879Y-5750000D01*
X10626901Y-5795818D01*
X10600000Y-5931056D01*
X10600000Y-6068944D01*
X10626901Y-6204182D01*
X10645879Y-6250000D01*
X9450000Y-6250000D01*
X9450000Y-6421248D01*
X9450001Y-6421264D01*
X9481653Y-6661687D01*
X9544421Y-6895939D01*
X9637220Y-7119978D01*
X9637227Y-7119993D01*
X9758480Y-7330009D01*
X9906110Y-7522405D01*
X9906116Y-7522412D01*
X10077587Y-7693883D01*
X10077594Y-7693889D01*
X10269990Y-7841519D01*
X10480006Y-7962772D01*
X10480021Y-7962779D01*
X10704060Y-8055578D01*
X10938312Y-8118346D01*
X11050000Y-8133049D01*
X11050000Y-6654120D01*
X11095818Y-6673099D01*
X11231056Y-6700000D01*
X11368944Y-6700000D01*
X11504182Y-6673099D01*
X11550000Y-6654120D01*
X11550000Y-8133048D01*
X11661687Y-8118346D01*
X11895939Y-8055578D01*
X12119978Y-7962779D01*
X12119993Y-7962772D01*
X12330009Y-7841519D01*
X12522405Y-7693889D01*
X12522412Y-7693883D01*
X12693883Y-7522412D01*
X12693889Y-7522405D01*
X12841519Y-7330009D01*
X12962772Y-7119993D01*
X12962779Y-7119978D01*
X13055578Y-6895939D01*
X13118346Y-6661687D01*
X13149998Y-6421264D01*
X13150000Y-6421248D01*
X13150000Y-6250000D01*
X11954121Y-6250000D01*
X11973099Y-6204182D01*
X12000000Y-6068944D01*
X12000000Y-5931056D01*
X11973099Y-5795818D01*
X11954121Y-5750000D01*
X13150000Y-5750000D01*
X13150000Y-5578751D01*
X13149998Y-5578733D01*
X13148861Y-5570097D01*
X13849500Y-5570097D01*
X13849500Y-6429902D01*
X13890140Y-6686493D01*
X13970422Y-6933576D01*
X14051534Y-7092764D01*
X14088366Y-7165051D01*
X14241069Y-7375229D01*
X14424771Y-7558931D01*
X14634949Y-7711634D01*
X14782445Y-7786787D01*
X14866423Y-7829577D01*
X14866425Y-7829577D01*
X14866428Y-7829579D01*
X15113507Y-7909860D01*
X15245706Y-7930797D01*
X15370098Y-7950500D01*
X15370103Y-7950500D01*
X15629902Y-7950500D01*
X15743298Y-7932539D01*
X15886493Y-7909860D01*
X16133572Y-7829579D01*
X16365051Y-7711634D01*
X16575229Y-7558931D01*
X16758931Y-7375229D01*
X16911634Y-7165051D01*
X17029579Y-6933572D01*
X17109860Y-6686493D01*
X17135004Y-6527738D01*
X17150500Y-6429902D01*
X17150500Y-5570097D01*
X18049500Y-5570097D01*
X18049500Y-6429902D01*
X18090140Y-6686493D01*
X18170422Y-6933576D01*
X18251534Y-7092764D01*
X18288366Y-7165051D01*
X18441069Y-7375229D01*
X18624771Y-7558931D01*
X18834949Y-7711634D01*
X18982445Y-7786787D01*
X19066423Y-7829577D01*
X19066425Y-7829577D01*
X19066428Y-7829579D01*
X19313507Y-7909860D01*
X19445706Y-7930797D01*
X19570098Y-7950500D01*
X19570103Y-7950500D01*
X19829902Y-7950500D01*
X19943298Y-7932539D01*
X20086493Y-7909860D01*
X20333572Y-7829579D01*
X20565051Y-7711634D01*
X20775229Y-7558931D01*
X20958931Y-7375229D01*
X21111634Y-7165051D01*
X21229579Y-6933572D01*
X21309860Y-6686493D01*
X21335004Y-6527738D01*
X21350500Y-6429902D01*
X21350500Y-5570097D01*
X22249500Y-5570097D01*
X22249500Y-6429902D01*
X22290140Y-6686493D01*
X22370422Y-6933576D01*
X22451534Y-7092764D01*
X22488366Y-7165051D01*
X22641069Y-7375229D01*
X22824771Y-7558931D01*
X23034949Y-7711634D01*
X23182445Y-7786787D01*
X23266423Y-7829577D01*
X23266425Y-7829577D01*
X23266428Y-7829579D01*
X23513507Y-7909860D01*
X23645706Y-7930797D01*
X23770098Y-7950500D01*
X23770103Y-7950500D01*
X24029902Y-7950500D01*
X24143298Y-7932539D01*
X24286493Y-7909860D01*
X24533572Y-7829579D01*
X24765051Y-7711634D01*
X24975229Y-7558931D01*
X25158931Y-7375229D01*
X25311634Y-7165051D01*
X25429579Y-6933572D01*
X25509860Y-6686493D01*
X25535004Y-6527738D01*
X25550500Y-6429902D01*
X25550500Y-5570097D01*
X26449500Y-5570097D01*
X26449500Y-6429902D01*
X26490140Y-6686493D01*
X26570422Y-6933576D01*
X26651534Y-7092764D01*
X26688366Y-7165051D01*
X26841069Y-7375229D01*
X27024771Y-7558931D01*
X27234949Y-7711634D01*
X27382445Y-7786787D01*
X27466423Y-7829577D01*
X27466425Y-7829577D01*
X27466428Y-7829579D01*
X27713507Y-7909860D01*
X27845706Y-7930797D01*
X27970098Y-7950500D01*
X27970103Y-7950500D01*
X28229902Y-7950500D01*
X28343298Y-7932539D01*
X28486493Y-7909860D01*
X28733572Y-7829579D01*
X28965051Y-7711634D01*
X29175229Y-7558931D01*
X29358931Y-7375229D01*
X29511634Y-7165051D01*
X29629579Y-6933572D01*
X29709860Y-6686493D01*
X29735004Y-6527738D01*
X29750500Y-6429902D01*
X29750500Y-5578751D01*
X30450000Y-5578751D01*
X30450000Y-5750000D01*
X31645879Y-5750000D01*
X31626901Y-5795818D01*
X31600000Y-5931056D01*
X31600000Y-6068944D01*
X31626901Y-6204182D01*
X31645879Y-6250000D01*
X30450000Y-6250000D01*
X30450000Y-6421248D01*
X30450001Y-6421264D01*
X30481653Y-6661687D01*
X30544421Y-6895939D01*
X30637220Y-7119978D01*
X30637227Y-7119993D01*
X30758480Y-7330009D01*
X30906110Y-7522405D01*
X30906116Y-7522412D01*
X31077587Y-7693883D01*
X31077594Y-7693889D01*
X31269990Y-7841519D01*
X31480006Y-7962772D01*
X31480021Y-7962779D01*
X31704060Y-8055578D01*
X31938312Y-8118346D01*
X32050000Y-8133049D01*
X32050000Y-6654120D01*
X32095818Y-6673099D01*
X32231056Y-6700000D01*
X32368944Y-6700000D01*
X32504182Y-6673099D01*
X32550000Y-6654120D01*
X32550000Y-8133048D01*
X32661687Y-8118346D01*
X32895939Y-8055578D01*
X33119978Y-7962779D01*
X33119993Y-7962772D01*
X33330009Y-7841519D01*
X33522405Y-7693889D01*
X33522412Y-7693883D01*
X33693883Y-7522412D01*
X33693889Y-7522405D01*
X33841519Y-7330009D01*
X33962772Y-7119993D01*
X33962779Y-7119978D01*
X34055578Y-6895939D01*
X34118346Y-6661687D01*
X34149998Y-6421264D01*
X34150000Y-6421248D01*
X34150000Y-6250000D01*
X32954121Y-6250000D01*
X32973099Y-6204182D01*
X33000000Y-6068944D01*
X33000000Y-5931056D01*
X32973099Y-5795818D01*
X32954121Y-5750000D01*
X34150000Y-5750000D01*
X34150000Y-5578751D01*
X34650000Y-5578751D01*
X34650000Y-5750000D01*
X35845879Y-5750000D01*
X35826901Y-5795818D01*
X35800000Y-5931056D01*
X35800000Y-6068944D01*
X35826901Y-6204182D01*
X35845879Y-6250000D01*
X34650000Y-6250000D01*
X34650000Y-6421248D01*
X34650001Y-6421264D01*
X34681653Y-6661687D01*
X34744421Y-6895939D01*
X34837220Y-7119978D01*
X34837227Y-7119993D01*
X34958480Y-7330009D01*
X35106110Y-7522405D01*
X35106116Y-7522412D01*
X35277587Y-7693883D01*
X35277594Y-7693889D01*
X35469990Y-7841519D01*
X35680006Y-7962772D01*
X35680021Y-7962779D01*
X35904060Y-8055578D01*
X36138312Y-8118346D01*
X36250000Y-8133049D01*
X36250000Y-6654120D01*
X36295818Y-6673099D01*
X36431056Y-6700000D01*
X36568944Y-6700000D01*
X36704182Y-6673099D01*
X36750000Y-6654120D01*
X36750000Y-8133048D01*
X36861687Y-8118346D01*
X37095939Y-8055578D01*
X37319978Y-7962779D01*
X37319993Y-7962772D01*
X37530009Y-7841519D01*
X37722405Y-7693889D01*
X37722412Y-7693883D01*
X37893883Y-7522412D01*
X37893889Y-7522405D01*
X38041519Y-7330009D01*
X38162772Y-7119993D01*
X38162779Y-7119978D01*
X38255578Y-6895939D01*
X38318346Y-6661687D01*
X38349998Y-6421264D01*
X38350000Y-6421248D01*
X38350000Y-6250000D01*
X37154121Y-6250000D01*
X37173099Y-6204182D01*
X37200000Y-6068944D01*
X37200000Y-5931056D01*
X37173099Y-5795818D01*
X37154121Y-5750000D01*
X38350000Y-5750000D01*
X38350000Y-5578751D01*
X38850000Y-5578751D01*
X38850000Y-5750000D01*
X40045879Y-5750000D01*
X40026901Y-5795818D01*
X40000000Y-5931056D01*
X40000000Y-6068944D01*
X40026901Y-6204182D01*
X40045879Y-6250000D01*
X38850000Y-6250000D01*
X38850000Y-6421248D01*
X38850001Y-6421264D01*
X38881653Y-6661687D01*
X38944421Y-6895939D01*
X39037220Y-7119978D01*
X39037227Y-7119993D01*
X39158480Y-7330009D01*
X39306110Y-7522405D01*
X39306116Y-7522412D01*
X39477587Y-7693883D01*
X39477594Y-7693889D01*
X39669990Y-7841519D01*
X39880006Y-7962772D01*
X39880021Y-7962779D01*
X40104060Y-8055578D01*
X40338312Y-8118346D01*
X40450000Y-8133049D01*
X40450000Y-6654120D01*
X40495818Y-6673099D01*
X40631056Y-6700000D01*
X40768944Y-6700000D01*
X40904182Y-6673099D01*
X40950000Y-6654120D01*
X40950000Y-8133048D01*
X41061687Y-8118346D01*
X41295939Y-8055578D01*
X41519978Y-7962779D01*
X41519993Y-7962772D01*
X41730009Y-7841519D01*
X41922405Y-7693889D01*
X41922412Y-7693883D01*
X42093883Y-7522412D01*
X42093889Y-7522405D01*
X42241519Y-7330009D01*
X42362772Y-7119993D01*
X42362779Y-7119978D01*
X42455578Y-6895939D01*
X42518346Y-6661687D01*
X42549998Y-6421264D01*
X42550000Y-6421248D01*
X42550000Y-6250000D01*
X41354121Y-6250000D01*
X41373099Y-6204182D01*
X41400000Y-6068944D01*
X41400000Y-5931056D01*
X41373099Y-5795818D01*
X41354121Y-5750000D01*
X42550000Y-5750000D01*
X42550000Y-5578751D01*
X42549998Y-5578733D01*
X42548861Y-5570097D01*
X43249500Y-5570097D01*
X43249500Y-6429902D01*
X43290140Y-6686493D01*
X43370422Y-6933576D01*
X43451534Y-7092764D01*
X43488366Y-7165051D01*
X43641069Y-7375229D01*
X43824771Y-7558931D01*
X44034949Y-7711634D01*
X44182445Y-7786787D01*
X44266423Y-7829577D01*
X44266425Y-7829577D01*
X44266428Y-7829579D01*
X44513507Y-7909860D01*
X44645706Y-7930797D01*
X44770098Y-7950500D01*
X44770103Y-7950500D01*
X45029902Y-7950500D01*
X45143298Y-7932539D01*
X45286493Y-7909860D01*
X45533572Y-7829579D01*
X45765051Y-7711634D01*
X45975229Y-7558931D01*
X46158931Y-7375229D01*
X46311634Y-7165051D01*
X46429579Y-6933572D01*
X46509860Y-6686493D01*
X46535004Y-6527738D01*
X46550500Y-6429902D01*
X46550500Y-5578751D01*
X47250000Y-5578751D01*
X47250000Y-5750000D01*
X48445879Y-5750000D01*
X48426901Y-5795818D01*
X48400000Y-5931056D01*
X48400000Y-6068944D01*
X48426901Y-6204182D01*
X48445879Y-6250000D01*
X47250000Y-6250000D01*
X47250000Y-6421248D01*
X47250001Y-6421264D01*
X47281653Y-6661687D01*
X47344421Y-6895939D01*
X47437220Y-7119978D01*
X47437227Y-7119993D01*
X47558480Y-7330009D01*
X47706110Y-7522405D01*
X47706116Y-7522412D01*
X47877587Y-7693883D01*
X47877594Y-7693889D01*
X48069990Y-7841519D01*
X48280006Y-7962772D01*
X48280021Y-7962779D01*
X48504060Y-8055578D01*
X48738312Y-8118346D01*
X48850000Y-8133049D01*
X48850000Y-6654120D01*
X48895818Y-6673099D01*
X49031056Y-6700000D01*
X49168944Y-6700000D01*
X49304182Y-6673099D01*
X49350000Y-6654120D01*
X49350000Y-8133048D01*
X49461687Y-8118346D01*
X49695939Y-8055578D01*
X49919978Y-7962779D01*
X49919993Y-7962772D01*
X50130009Y-7841519D01*
X50322405Y-7693889D01*
X50322412Y-7693883D01*
X50493883Y-7522412D01*
X50493889Y-7522405D01*
X50641519Y-7330009D01*
X50762772Y-7119993D01*
X50762779Y-7119978D01*
X50855578Y-6895939D01*
X50918346Y-6661687D01*
X50949998Y-6421264D01*
X50950000Y-6421248D01*
X50950000Y-6250000D01*
X49754121Y-6250000D01*
X49773099Y-6204182D01*
X49800000Y-6068944D01*
X49800000Y-5931056D01*
X49773099Y-5795818D01*
X49754121Y-5750000D01*
X50950000Y-5750000D01*
X50950000Y-5578751D01*
X50949998Y-5578733D01*
X50948861Y-5570097D01*
X51649500Y-5570097D01*
X51649500Y-6429902D01*
X51690140Y-6686493D01*
X51770422Y-6933576D01*
X51851534Y-7092764D01*
X51888366Y-7165051D01*
X52041069Y-7375229D01*
X52224771Y-7558931D01*
X52434949Y-7711634D01*
X52582445Y-7786787D01*
X52666423Y-7829577D01*
X52666425Y-7829577D01*
X52666428Y-7829579D01*
X52913507Y-7909860D01*
X53045706Y-7930797D01*
X53170098Y-7950500D01*
X53170103Y-7950500D01*
X53429902Y-7950500D01*
X53543298Y-7932539D01*
X53686493Y-7909860D01*
X53933572Y-7829579D01*
X54165051Y-7711634D01*
X54375229Y-7558931D01*
X54558931Y-7375229D01*
X54711634Y-7165051D01*
X54829579Y-6933572D01*
X54909860Y-6686493D01*
X54935004Y-6527738D01*
X54950500Y-6429902D01*
X54950500Y-5570097D01*
X55849500Y-5570097D01*
X55849500Y-6429902D01*
X55890140Y-6686493D01*
X55970422Y-6933576D01*
X56051534Y-7092764D01*
X56088366Y-7165051D01*
X56241069Y-7375229D01*
X56424771Y-7558931D01*
X56634949Y-7711634D01*
X56782445Y-7786787D01*
X56866423Y-7829577D01*
X56866425Y-7829577D01*
X56866428Y-7829579D01*
X57113507Y-7909860D01*
X57245706Y-7930797D01*
X57370098Y-7950500D01*
X57370103Y-7950500D01*
X57629902Y-7950500D01*
X57743298Y-7932539D01*
X57886493Y-7909860D01*
X58133572Y-7829579D01*
X58365051Y-7711634D01*
X58575229Y-7558931D01*
X58758931Y-7375229D01*
X58911634Y-7165051D01*
X59029579Y-6933572D01*
X59109860Y-6686493D01*
X59135004Y-6527738D01*
X59150500Y-6429902D01*
X59150500Y-5570097D01*
X59123230Y-5397924D01*
X59109860Y-5313507D01*
X59029579Y-5066428D01*
X59029577Y-5066425D01*
X59029577Y-5066423D01*
X58981565Y-4972195D01*
X58911634Y-4834949D01*
X58758931Y-4624771D01*
X58575229Y-4441069D01*
X58489402Y-4378712D01*
X58365054Y-4288368D01*
X58365053Y-4288367D01*
X58365051Y-4288366D01*
X58292764Y-4251534D01*
X58133576Y-4170422D01*
X57886493Y-4090140D01*
X57629902Y-4049500D01*
X57629897Y-4049500D01*
X57370103Y-4049500D01*
X57370098Y-4049500D01*
X57113506Y-4090140D01*
X56866423Y-4170422D01*
X56634945Y-4288368D01*
X56424774Y-4441066D01*
X56424768Y-4441071D01*
X56241071Y-4624768D01*
X56241066Y-4624774D01*
X56088368Y-4834945D01*
X55970422Y-5066423D01*
X55890140Y-5313506D01*
X55849500Y-5570097D01*
X54950500Y-5570097D01*
X54923230Y-5397924D01*
X54909860Y-5313507D01*
X54829579Y-5066428D01*
X54829577Y-5066425D01*
X54829577Y-5066423D01*
X54781565Y-4972195D01*
X54711634Y-4834949D01*
X54558931Y-4624771D01*
X54375229Y-4441069D01*
X54289402Y-4378712D01*
X54165054Y-4288368D01*
X54165053Y-4288367D01*
X54165051Y-4288366D01*
X54092764Y-4251534D01*
X53933576Y-4170422D01*
X53686493Y-4090140D01*
X53429902Y-4049500D01*
X53429897Y-4049500D01*
X53170103Y-4049500D01*
X53170098Y-4049500D01*
X52913506Y-4090140D01*
X52666423Y-4170422D01*
X52434945Y-4288368D01*
X52224774Y-4441066D01*
X52224768Y-4441071D01*
X52041071Y-4624768D01*
X52041066Y-4624774D01*
X51888368Y-4834945D01*
X51770422Y-5066423D01*
X51690140Y-5313506D01*
X51649500Y-5570097D01*
X50948861Y-5570097D01*
X50918346Y-5338312D01*
X50855578Y-5104060D01*
X50762779Y-4880021D01*
X50762772Y-4880006D01*
X50641519Y-4669990D01*
X50493889Y-4477594D01*
X50493883Y-4477587D01*
X50322412Y-4306116D01*
X50322405Y-4306110D01*
X50130009Y-4158480D01*
X49919993Y-4037227D01*
X49919978Y-4037220D01*
X49695939Y-3944421D01*
X49461687Y-3881653D01*
X49350000Y-3866948D01*
X49350000Y-5345879D01*
X49304182Y-5326901D01*
X49168944Y-5300000D01*
X49031056Y-5300000D01*
X48895818Y-5326901D01*
X48850000Y-5345879D01*
X48850000Y-3866948D01*
X48849999Y-3866948D01*
X48738312Y-3881653D01*
X48504060Y-3944421D01*
X48280021Y-4037220D01*
X48280006Y-4037227D01*
X48069990Y-4158480D01*
X47877594Y-4306110D01*
X47877587Y-4306116D01*
X47706116Y-4477587D01*
X47706110Y-4477594D01*
X47558480Y-4669990D01*
X47437227Y-4880006D01*
X47437220Y-4880021D01*
X47344421Y-5104060D01*
X47281653Y-5338312D01*
X47250001Y-5578735D01*
X47250000Y-5578751D01*
X46550500Y-5578751D01*
X46550500Y-5570097D01*
X46523230Y-5397924D01*
X46509860Y-5313507D01*
X46429579Y-5066428D01*
X46429577Y-5066425D01*
X46429577Y-5066423D01*
X46381565Y-4972195D01*
X46311634Y-4834949D01*
X46158931Y-4624771D01*
X45975229Y-4441069D01*
X45889402Y-4378712D01*
X45765054Y-4288368D01*
X45765053Y-4288367D01*
X45765051Y-4288366D01*
X45692764Y-4251534D01*
X45533576Y-4170422D01*
X45286493Y-4090140D01*
X45029902Y-4049500D01*
X45029897Y-4049500D01*
X44770103Y-4049500D01*
X44770098Y-4049500D01*
X44513506Y-4090140D01*
X44266423Y-4170422D01*
X44034945Y-4288368D01*
X43824774Y-4441066D01*
X43824768Y-4441071D01*
X43641071Y-4624768D01*
X43641066Y-4624774D01*
X43488368Y-4834945D01*
X43370422Y-5066423D01*
X43290140Y-5313506D01*
X43249500Y-5570097D01*
X42548861Y-5570097D01*
X42518346Y-5338312D01*
X42455578Y-5104060D01*
X42362779Y-4880021D01*
X42362772Y-4880006D01*
X42241519Y-4669990D01*
X42093889Y-4477594D01*
X42093883Y-4477587D01*
X41922412Y-4306116D01*
X41922405Y-4306110D01*
X41730009Y-4158480D01*
X41519993Y-4037227D01*
X41519978Y-4037220D01*
X41295939Y-3944421D01*
X41061687Y-3881653D01*
X40950000Y-3866948D01*
X40950000Y-5345879D01*
X40904182Y-5326901D01*
X40768944Y-5300000D01*
X40631056Y-5300000D01*
X40495818Y-5326901D01*
X40450000Y-5345879D01*
X40450000Y-3866948D01*
X40449999Y-3866948D01*
X40338312Y-3881653D01*
X40104060Y-3944421D01*
X39880021Y-4037220D01*
X39880006Y-4037227D01*
X39669990Y-4158480D01*
X39477594Y-4306110D01*
X39477587Y-4306116D01*
X39306116Y-4477587D01*
X39306110Y-4477594D01*
X39158480Y-4669990D01*
X39037227Y-4880006D01*
X39037220Y-4880021D01*
X38944421Y-5104060D01*
X38881653Y-5338312D01*
X38850001Y-5578735D01*
X38850000Y-5578751D01*
X38350000Y-5578751D01*
X38349998Y-5578735D01*
X38318346Y-5338312D01*
X38255578Y-5104060D01*
X38162779Y-4880021D01*
X38162772Y-4880006D01*
X38041519Y-4669990D01*
X37893889Y-4477594D01*
X37893883Y-4477587D01*
X37722412Y-4306116D01*
X37722405Y-4306110D01*
X37530009Y-4158480D01*
X37319993Y-4037227D01*
X37319978Y-4037220D01*
X37095939Y-3944421D01*
X36861687Y-3881653D01*
X36750000Y-3866948D01*
X36750000Y-5345879D01*
X36704182Y-5326901D01*
X36568944Y-5300000D01*
X36431056Y-5300000D01*
X36295818Y-5326901D01*
X36250000Y-5345879D01*
X36250000Y-3866948D01*
X36249999Y-3866948D01*
X36138312Y-3881653D01*
X35904060Y-3944421D01*
X35680021Y-4037220D01*
X35680006Y-4037227D01*
X35469990Y-4158480D01*
X35277594Y-4306110D01*
X35277587Y-4306116D01*
X35106116Y-4477587D01*
X35106110Y-4477594D01*
X34958480Y-4669990D01*
X34837227Y-4880006D01*
X34837220Y-4880021D01*
X34744421Y-5104060D01*
X34681653Y-5338312D01*
X34650001Y-5578735D01*
X34650000Y-5578751D01*
X34150000Y-5578751D01*
X34149998Y-5578735D01*
X34118346Y-5338312D01*
X34055578Y-5104060D01*
X33962779Y-4880021D01*
X33962772Y-4880006D01*
X33841519Y-4669990D01*
X33693889Y-4477594D01*
X33693883Y-4477587D01*
X33522412Y-4306116D01*
X33522405Y-4306110D01*
X33330009Y-4158480D01*
X33119993Y-4037227D01*
X33119978Y-4037220D01*
X32895939Y-3944421D01*
X32661687Y-3881653D01*
X32550000Y-3866948D01*
X32550000Y-5345879D01*
X32504182Y-5326901D01*
X32368944Y-5300000D01*
X32231056Y-5300000D01*
X32095818Y-5326901D01*
X32050000Y-5345879D01*
X32050000Y-3866948D01*
X32049999Y-3866948D01*
X31938312Y-3881653D01*
X31704060Y-3944421D01*
X31480021Y-4037220D01*
X31480006Y-4037227D01*
X31269990Y-4158480D01*
X31077594Y-4306110D01*
X31077587Y-4306116D01*
X30906116Y-4477587D01*
X30906110Y-4477594D01*
X30758480Y-4669990D01*
X30637227Y-4880006D01*
X30637220Y-4880021D01*
X30544421Y-5104060D01*
X30481653Y-5338312D01*
X30450001Y-5578735D01*
X30450000Y-5578751D01*
X29750500Y-5578751D01*
X29750500Y-5570097D01*
X29723230Y-5397924D01*
X29709860Y-5313507D01*
X29629579Y-5066428D01*
X29629577Y-5066425D01*
X29629577Y-5066423D01*
X29581565Y-4972195D01*
X29511634Y-4834949D01*
X29358931Y-4624771D01*
X29175229Y-4441069D01*
X29089402Y-4378712D01*
X28965054Y-4288368D01*
X28965053Y-4288367D01*
X28965051Y-4288366D01*
X28892764Y-4251534D01*
X28733576Y-4170422D01*
X28486493Y-4090140D01*
X28229902Y-4049500D01*
X28229897Y-4049500D01*
X27970103Y-4049500D01*
X27970098Y-4049500D01*
X27713506Y-4090140D01*
X27466423Y-4170422D01*
X27234945Y-4288368D01*
X27024774Y-4441066D01*
X27024768Y-4441071D01*
X26841071Y-4624768D01*
X26841066Y-4624774D01*
X26688368Y-4834945D01*
X26570422Y-5066423D01*
X26490140Y-5313506D01*
X26449500Y-5570097D01*
X25550500Y-5570097D01*
X25523230Y-5397924D01*
X25509860Y-5313507D01*
X25429579Y-5066428D01*
X25429577Y-5066425D01*
X25429577Y-5066423D01*
X25381565Y-4972195D01*
X25311634Y-4834949D01*
X25158931Y-4624771D01*
X24975229Y-4441069D01*
X24889402Y-4378712D01*
X24765054Y-4288368D01*
X24765053Y-4288367D01*
X24765051Y-4288366D01*
X24692764Y-4251534D01*
X24533576Y-4170422D01*
X24286493Y-4090140D01*
X24029902Y-4049500D01*
X24029897Y-4049500D01*
X23770103Y-4049500D01*
X23770098Y-4049500D01*
X23513506Y-4090140D01*
X23266423Y-4170422D01*
X23034945Y-4288368D01*
X22824774Y-4441066D01*
X22824768Y-4441071D01*
X22641071Y-4624768D01*
X22641066Y-4624774D01*
X22488368Y-4834945D01*
X22370422Y-5066423D01*
X22290140Y-5313506D01*
X22249500Y-5570097D01*
X21350500Y-5570097D01*
X21323230Y-5397924D01*
X21309860Y-5313507D01*
X21229579Y-5066428D01*
X21229577Y-5066425D01*
X21229577Y-5066423D01*
X21181565Y-4972195D01*
X21111634Y-4834949D01*
X20958931Y-4624771D01*
X20775229Y-4441069D01*
X20689402Y-4378712D01*
X20565054Y-4288368D01*
X20565053Y-4288367D01*
X20565051Y-4288366D01*
X20492764Y-4251534D01*
X20333576Y-4170422D01*
X20086493Y-4090140D01*
X19829902Y-4049500D01*
X19829897Y-4049500D01*
X19570103Y-4049500D01*
X19570098Y-4049500D01*
X19313506Y-4090140D01*
X19066423Y-4170422D01*
X18834945Y-4288368D01*
X18624774Y-4441066D01*
X18624768Y-4441071D01*
X18441071Y-4624768D01*
X18441066Y-4624774D01*
X18288368Y-4834945D01*
X18170422Y-5066423D01*
X18090140Y-5313506D01*
X18049500Y-5570097D01*
X17150500Y-5570097D01*
X17123230Y-5397924D01*
X17109860Y-5313507D01*
X17029579Y-5066428D01*
X17029577Y-5066425D01*
X17029577Y-5066423D01*
X16981565Y-4972195D01*
X16911634Y-4834949D01*
X16758931Y-4624771D01*
X16575229Y-4441069D01*
X16489402Y-4378712D01*
X16365054Y-4288368D01*
X16365053Y-4288367D01*
X16365051Y-4288366D01*
X16292764Y-4251534D01*
X16133576Y-4170422D01*
X15886493Y-4090140D01*
X15629902Y-4049500D01*
X15629897Y-4049500D01*
X15370103Y-4049500D01*
X15370098Y-4049500D01*
X15113506Y-4090140D01*
X14866423Y-4170422D01*
X14634945Y-4288368D01*
X14424774Y-4441066D01*
X14424768Y-4441071D01*
X14241071Y-4624768D01*
X14241066Y-4624774D01*
X14088368Y-4834945D01*
X13970422Y-5066423D01*
X13890140Y-5313506D01*
X13849500Y-5570097D01*
X13148861Y-5570097D01*
X13118346Y-5338312D01*
X13055578Y-5104060D01*
X12962779Y-4880021D01*
X12962772Y-4880006D01*
X12841519Y-4669990D01*
X12693889Y-4477594D01*
X12693883Y-4477587D01*
X12522412Y-4306116D01*
X12522405Y-4306110D01*
X12330009Y-4158480D01*
X12119993Y-4037227D01*
X12119978Y-4037220D01*
X11895939Y-3944421D01*
X11661687Y-3881653D01*
X11550000Y-3866948D01*
X11550000Y-5345879D01*
X11504182Y-5326901D01*
X11368944Y-5300000D01*
X11231056Y-5300000D01*
X11095818Y-5326901D01*
X11050000Y-5345879D01*
X11050000Y-3866948D01*
X11049999Y-3866948D01*
X10938312Y-3881653D01*
X10704060Y-3944421D01*
X10480021Y-4037220D01*
X10480006Y-4037227D01*
X10269990Y-4158480D01*
X10077594Y-4306110D01*
X10077587Y-4306116D01*
X9906116Y-4477587D01*
X9906110Y-4477594D01*
X9758480Y-4669990D01*
X9637227Y-4880006D01*
X9637220Y-4880021D01*
X9544421Y-5104060D01*
X9481653Y-5338312D01*
X9450001Y-5578735D01*
X9450000Y-5578751D01*
X6004750Y-5578751D01*
X6041936Y-5530289D01*
X6163224Y-5320212D01*
X6256054Y-5096100D01*
X6318838Y-4861789D01*
X6350500Y-4621288D01*
X6350500Y-4378712D01*
X6318838Y-4138211D01*
X6256054Y-3903900D01*
X6163224Y-3679788D01*
X6041936Y-3469711D01*
X6009910Y-3427974D01*
X6009909Y-3427973D01*
X66399500Y-3427973D01*
X66399500Y-3672026D01*
X66436225Y-3903900D01*
X66437679Y-3913076D01*
X66513096Y-4145185D01*
X66595094Y-4306116D01*
X66623896Y-4362642D01*
X66767339Y-4560076D01*
X66767343Y-4560081D01*
X66939918Y-4732656D01*
X66939923Y-4732660D01*
X67080713Y-4834949D01*
X67137361Y-4876106D01*
X67231795Y-4924222D01*
X67282590Y-4972195D01*
X67299500Y-5034706D01*
X67299500Y-6402069D01*
X67299500Y-6402071D01*
X67299499Y-6402071D01*
X67324497Y-6527738D01*
X67324499Y-6527744D01*
X67373535Y-6646127D01*
X67444723Y-6752669D01*
X67444726Y-6752673D01*
X82197327Y-21505274D01*
X82197330Y-21505276D01*
X82248549Y-21539499D01*
X82303873Y-21576465D01*
X82422256Y-21625501D01*
X82422260Y-21625501D01*
X82422261Y-21625502D01*
X82547928Y-21650500D01*
X82547931Y-21650500D01*
X83169142Y-21650500D01*
X83236181Y-21670185D01*
X83269458Y-21701612D01*
X83280586Y-21716928D01*
X83403072Y-21839414D01*
X83543212Y-21941232D01*
X83697555Y-22019873D01*
X83862299Y-22073402D01*
X84033389Y-22100500D01*
X84033390Y-22100500D01*
X84206610Y-22100500D01*
X84206611Y-22100500D01*
X84377701Y-22073402D01*
X84542445Y-22019873D01*
X84696788Y-21941232D01*
X84836928Y-21839414D01*
X84959414Y-21716928D01*
X85061232Y-21576788D01*
X85139873Y-21422445D01*
X85193402Y-21257701D01*
X85220500Y-21086611D01*
X85220500Y-20913389D01*
X85193402Y-20742299D01*
X85139873Y-20577555D01*
X85061232Y-20423212D01*
X84959414Y-20283072D01*
X84836928Y-20160586D01*
X84696788Y-20058768D01*
X84542445Y-19980127D01*
X84377701Y-19926598D01*
X84377699Y-19926597D01*
X84377698Y-19926597D01*
X84246271Y-19905781D01*
X84206611Y-19899500D01*
X84033389Y-19899500D01*
X83993728Y-19905781D01*
X83862302Y-19926597D01*
X83697552Y-19980128D01*
X83543211Y-20058768D01*
X83495143Y-20093692D01*
X83403072Y-20160586D01*
X83403070Y-20160588D01*
X83403069Y-20160588D01*
X83280585Y-20283072D01*
X83269459Y-20298387D01*
X83214128Y-20341052D01*
X83169142Y-20349500D01*
X82932808Y-20349500D01*
X82865769Y-20329815D01*
X82845127Y-20313181D01*
X80094127Y-17562181D01*
X80060642Y-17500858D01*
X80065626Y-17431166D01*
X80107498Y-17375233D01*
X80172962Y-17350816D01*
X80181808Y-17350500D01*
X80268004Y-17350500D01*
X80268011Y-17350500D01*
X80502014Y-17319693D01*
X80729993Y-17258606D01*
X80948049Y-17168284D01*
X81152450Y-17050273D01*
X81339699Y-16906592D01*
X81506592Y-16739699D01*
X81650273Y-16552450D01*
X81768284Y-16348049D01*
X81858606Y-16129993D01*
X81919693Y-15902014D01*
X81950500Y-15668011D01*
X81950500Y-15431989D01*
X81919693Y-15197986D01*
X81858606Y-14970007D01*
X81768284Y-14751951D01*
X81768282Y-14751948D01*
X81768280Y-14751943D01*
X81726118Y-14678918D01*
X81650273Y-14547550D01*
X81511996Y-14367343D01*
X81506593Y-14360302D01*
X81506587Y-14360295D01*
X81339704Y-14193412D01*
X81339697Y-14193406D01*
X81152454Y-14049730D01*
X81152453Y-14049729D01*
X81152450Y-14049727D01*
X81065454Y-13999500D01*
X80948056Y-13931719D01*
X80948045Y-13931714D01*
X80729993Y-13841394D01*
X80502010Y-13780306D01*
X80268020Y-13749501D01*
X80268017Y-13749500D01*
X80268011Y-13749500D01*
X80031989Y-13749500D01*
X80031983Y-13749500D01*
X80031979Y-13749501D01*
X79797989Y-13780306D01*
X79570006Y-13841394D01*
X79351954Y-13931714D01*
X79351943Y-13931719D01*
X79147545Y-14049730D01*
X78960302Y-14193406D01*
X78960295Y-14193412D01*
X78793412Y-14360295D01*
X78793406Y-14360302D01*
X78649730Y-14547545D01*
X78531719Y-14751943D01*
X78531714Y-14751954D01*
X78441394Y-14970006D01*
X78380306Y-15197989D01*
X78349501Y-15431979D01*
X78349500Y-15431995D01*
X78349500Y-15518192D01*
X78329815Y-15585231D01*
X78277011Y-15630986D01*
X78207853Y-15640930D01*
X78144297Y-15611905D01*
X78137819Y-15605873D01*
X68636819Y-6104873D01*
X68603334Y-6043550D01*
X68600500Y-6017192D01*
X68600500Y-5034706D01*
X68604788Y-5020101D01*
X68604137Y-5004894D01*
X68614432Y-4987258D01*
X68620185Y-4967667D01*
X68632231Y-4956768D01*
X68639362Y-4944554D01*
X68668204Y-4924222D01*
X68762639Y-4876106D01*
X68960083Y-4732655D01*
X69132655Y-4560083D01*
X69276106Y-4362639D01*
X69386904Y-4145185D01*
X69462321Y-3913076D01*
X69500500Y-3672027D01*
X69500500Y-3427973D01*
X69491144Y-3368905D01*
X78200000Y-3368905D01*
X78200000Y-3631094D01*
X78234220Y-3891009D01*
X78234222Y-3891020D01*
X78302075Y-4144255D01*
X78402404Y-4386471D01*
X78402409Y-4386482D01*
X78533488Y-4613516D01*
X78533494Y-4613524D01*
X78620080Y-4726365D01*
X79598958Y-3747487D01*
X79623978Y-3807890D01*
X79695112Y-3914351D01*
X79785649Y-4004888D01*
X79892110Y-4076022D01*
X79952511Y-4101041D01*
X78973633Y-5079917D01*
X78973633Y-5079918D01*
X79086475Y-5166505D01*
X79086483Y-5166511D01*
X79313517Y-5297590D01*
X79313528Y-5297595D01*
X79555744Y-5397924D01*
X79808979Y-5465777D01*
X79808990Y-5465779D01*
X80068905Y-5499999D01*
X80068920Y-5500000D01*
X80331080Y-5500000D01*
X80331094Y-5499999D01*
X80591009Y-5465779D01*
X80591020Y-5465777D01*
X80844255Y-5397924D01*
X81086471Y-5297595D01*
X81086482Y-5297590D01*
X81313516Y-5166511D01*
X81313534Y-5166499D01*
X81426365Y-5079919D01*
X81426365Y-5079917D01*
X80447488Y-4101041D01*
X80507890Y-4076022D01*
X80614351Y-4004888D01*
X80704888Y-3914351D01*
X80776022Y-3807890D01*
X80801041Y-3747489D01*
X81779917Y-4726365D01*
X81779919Y-4726365D01*
X81866499Y-4613534D01*
X81866511Y-4613516D01*
X81997590Y-4386482D01*
X81997595Y-4386470D01*
X82000809Y-4378711D01*
X89649500Y-4378711D01*
X89649500Y-4621288D01*
X89677628Y-4834949D01*
X89681162Y-4861789D01*
X89697156Y-4921478D01*
X89743947Y-5096104D01*
X89773111Y-5166511D01*
X89836776Y-5320212D01*
X89958064Y-5530289D01*
X89958066Y-5530292D01*
X89958067Y-5530293D01*
X90105733Y-5722736D01*
X90105739Y-5722743D01*
X90277256Y-5894260D01*
X90277262Y-5894265D01*
X90469711Y-6041936D01*
X90679788Y-6163224D01*
X90903900Y-6256054D01*
X91138211Y-6318838D01*
X91318586Y-6342584D01*
X91378711Y-6350500D01*
X91378712Y-6350500D01*
X91621289Y-6350500D01*
X91669388Y-6344167D01*
X91861789Y-6318838D01*
X92096100Y-6256054D01*
X92320212Y-6163224D01*
X92530289Y-6041936D01*
X92722738Y-5894265D01*
X92894265Y-5722738D01*
X93041936Y-5530289D01*
X93163224Y-5320212D01*
X93256054Y-5096100D01*
X93318838Y-4861789D01*
X93350500Y-4621288D01*
X93350500Y-4378712D01*
X93318838Y-4138211D01*
X93256054Y-3903900D01*
X93163224Y-3679788D01*
X93041936Y-3469711D01*
X92894265Y-3277262D01*
X92894260Y-3277256D01*
X92722743Y-3105739D01*
X92722736Y-3105733D01*
X92530293Y-2958067D01*
X92530292Y-2958066D01*
X92530289Y-2958064D01*
X92320212Y-2836776D01*
X92320205Y-2836773D01*
X92096104Y-2743947D01*
X91861785Y-2681161D01*
X91621289Y-2649500D01*
X91621288Y-2649500D01*
X91378712Y-2649500D01*
X91378711Y-2649500D01*
X91138214Y-2681161D01*
X90903895Y-2743947D01*
X90679794Y-2836773D01*
X90679785Y-2836777D01*
X90497851Y-2941817D01*
X90475339Y-2954815D01*
X90469706Y-2958067D01*
X90277263Y-3105733D01*
X90277256Y-3105739D01*
X90105739Y-3277256D01*
X90105733Y-3277263D01*
X89958067Y-3469706D01*
X89836777Y-3679785D01*
X89836773Y-3679794D01*
X89743947Y-3903895D01*
X89681161Y-4138214D01*
X89649500Y-4378711D01*
X82000809Y-4378711D01*
X82022147Y-4327200D01*
X82022147Y-4327198D01*
X82097923Y-4144258D01*
X82165777Y-3891020D01*
X82165779Y-3891009D01*
X82199999Y-3631094D01*
X82200000Y-3631080D01*
X82200000Y-3368919D01*
X82199999Y-3368905D01*
X82165779Y-3108990D01*
X82165777Y-3108979D01*
X82097924Y-2855744D01*
X81997595Y-2613528D01*
X81997590Y-2613517D01*
X81866511Y-2386483D01*
X81866505Y-2386475D01*
X81779918Y-2273633D01*
X81779917Y-2273633D01*
X80801041Y-3252510D01*
X80776022Y-3192110D01*
X80704888Y-3085649D01*
X80614351Y-2995112D01*
X80507890Y-2923978D01*
X80447487Y-2898957D01*
X81426365Y-1920080D01*
X81313524Y-1833494D01*
X81313516Y-1833488D01*
X81086482Y-1702409D01*
X81086471Y-1702404D01*
X80844255Y-1602075D01*
X80591020Y-1534222D01*
X80591009Y-1534220D01*
X80331094Y-1500000D01*
X80068905Y-1500000D01*
X79808990Y-1534220D01*
X79808979Y-1534222D01*
X79555744Y-1602075D01*
X79313528Y-1702404D01*
X79313517Y-1702409D01*
X79086471Y-1833496D01*
X78973633Y-1920079D01*
X78973633Y-1920080D01*
X79952511Y-2898958D01*
X79892110Y-2923978D01*
X79785649Y-2995112D01*
X79695112Y-3085649D01*
X79623978Y-3192110D01*
X79598958Y-3252511D01*
X78620080Y-2273633D01*
X78620079Y-2273633D01*
X78533496Y-2386471D01*
X78402409Y-2613517D01*
X78402404Y-2613528D01*
X78302075Y-2855744D01*
X78234222Y-3108979D01*
X78234220Y-3108990D01*
X78200000Y-3368905D01*
X69491144Y-3368905D01*
X69462321Y-3186924D01*
X69386904Y-2954815D01*
X69276106Y-2737361D01*
X69257779Y-2712136D01*
X69132660Y-2539923D01*
X69132656Y-2539918D01*
X68960081Y-2367343D01*
X68960076Y-2367339D01*
X68762642Y-2223896D01*
X68762641Y-2223895D01*
X68762639Y-2223894D01*
X68545185Y-2113096D01*
X68313076Y-2037679D01*
X68313074Y-2037678D01*
X68313072Y-2037678D01*
X68144769Y-2011021D01*
X68072027Y-1999500D01*
X67827973Y-1999500D01*
X67772093Y-2008350D01*
X67586927Y-2037678D01*
X67354812Y-2113097D01*
X67137357Y-2223896D01*
X66939923Y-2367339D01*
X66939918Y-2367343D01*
X66767343Y-2539918D01*
X66767339Y-2539923D01*
X66623896Y-2737357D01*
X66513097Y-2954812D01*
X66437678Y-3186927D01*
X66399500Y-3427973D01*
X6009909Y-3427973D01*
X5894266Y-3277263D01*
X5894260Y-3277256D01*
X5722743Y-3105739D01*
X5722736Y-3105733D01*
X5530293Y-2958067D01*
X5530292Y-2958066D01*
X5530289Y-2958064D01*
X5320212Y-2836776D01*
X5320205Y-2836773D01*
X5096104Y-2743947D01*
X4861785Y-2681161D01*
X4621289Y-2649500D01*
X4621288Y-2649500D01*
X4378712Y-2649500D01*
X4378711Y-2649500D01*
X4138214Y-2681161D01*
X3903895Y-2743947D01*
X3679794Y-2836773D01*
X3679785Y-2836777D01*
X3497851Y-2941817D01*
X3475339Y-2954815D01*
X3469706Y-2958067D01*
X3277263Y-3105733D01*
X3277256Y-3105739D01*
X3105739Y-3277256D01*
X3105733Y-3277263D01*
X2958067Y-3469706D01*
X2836777Y-3679785D01*
X2836773Y-3679794D01*
X2743947Y-3903895D01*
X2681161Y-4138214D01*
X2649500Y-4378711D01*
X500000Y-4378711D01*
X500000Y-2017163D01*
X509439Y-1969711D01*
X529997Y-1920079D01*
X565172Y-1835158D01*
X571195Y-1822651D01*
X710902Y-1569869D01*
X718297Y-1558101D01*
X885428Y-1322551D01*
X894079Y-1311704D01*
X1086527Y-1096356D01*
X1096358Y-1086526D01*
X1311704Y-894079D01*
X1322551Y-885428D01*
X1558106Y-718293D01*
X1569869Y-710902D01*
X1822651Y-571195D01*
X1835158Y-565172D01*
X1910744Y-533863D01*
X1969712Y-509439D01*
X2017164Y-500000D01*
X93982836Y-500000D01*
X94030288Y-509439D01*
G37*
G04 #@! TD.AperFunction*
M02*
