G04 #@! TF.GenerationSoftware,KiCad,Pcbnew,10.0.5*
G04 #@! TF.CreationDate,2026-08-25T12:49:40+09:00*
G04 #@! TF.ProjectId,bc250-front-carrier,62633235-302d-4667-926f-6e742d636172,1.0*
G04 #@! TF.SameCoordinates,Original*
G04 #@! TF.FileFunction,Legend,Top*
G04 #@! TF.FilePolarity,Positive*
%FSLAX46Y46*%
G04 Gerber Fmt 4.6, Leading zero omitted, Abs format (unit mm)*
G04 Created by KiCad (PCBNEW 10.0.5) date 2026-08-25 12:49:40*
%MOMM*%
%LPD*%
G01*
G04 APERTURE LIST*
G04 Aperture macros list*
%AMRoundRect*
0 Rectangle with rounded corners*
0 $1 Rounding radius*
0 $2 $3 $4 $5 $6 $7 $8 $9 X,Y pos of 4 corners*
0 Add a 4 corners polygon primitive as box body*
4,1,4,$2,$3,$4,$5,$6,$7,$8,$9,$2,$3,0*
0 Add four circle primitives for the rounded corners*
1,1,$1+$1,$2,$3*
1,1,$1+$1,$4,$5*
1,1,$1+$1,$6,$7*
1,1,$1+$1,$8,$9*
0 Add four rect primitives between the rounded corners*
20,1,$1+$1,$2,$3,$4,$5,0*
20,1,$1+$1,$4,$5,$6,$7,0*
20,1,$1+$1,$6,$7,$8,$9,0*
20,1,$1+$1,$8,$9,$2,$3,0*%
G04 Aperture macros list end*
%ADD10C,0.120000*%
%ADD11C,0.140000*%
%ADD12C,0.150000*%
%ADD13R,1.700000X1.700000*%
%ADD14O,1.700000X1.700000*%
%ADD15C,1.700000*%
%ADD16RoundRect,0.250000X-0.550000X-0.550000X0.550000X-0.550000X0.550000X0.550000X-0.550000X0.550000X0*%
%ADD17C,1.600000*%
%ADD18C,2.000000*%
%ADD19R,1.050000X1.500000*%
%ADD20O,1.050000X1.500000*%
%ADD21C,3.200000*%
%ADD22C,3.000000*%
%ADD23C,2.500000*%
%ADD24RoundRect,0.250001X1.099999X1.399999X-1.099999X1.399999X-1.099999X-1.399999X1.099999X-1.399999X0*%
%ADD25O,2.700000X3.300000*%
G04 APERTURE END LIST*
D10*
X65371429Y-18887664D02*
X65333333Y-18925760D01*
X65333333Y-18925760D02*
X65219048Y-18963855D01*
X65219048Y-18963855D02*
X65142857Y-18963855D01*
X65142857Y-18963855D02*
X65028571Y-18925760D01*
X65028571Y-18925760D02*
X64952381Y-18849569D01*
X64952381Y-18849569D02*
X64914286Y-18773379D01*
X64914286Y-18773379D02*
X64876190Y-18620998D01*
X64876190Y-18620998D02*
X64876190Y-18506712D01*
X64876190Y-18506712D02*
X64914286Y-18354331D01*
X64914286Y-18354331D02*
X64952381Y-18278140D01*
X64952381Y-18278140D02*
X65028571Y-18201950D01*
X65028571Y-18201950D02*
X65142857Y-18163855D01*
X65142857Y-18163855D02*
X65219048Y-18163855D01*
X65219048Y-18163855D02*
X65333333Y-18201950D01*
X65333333Y-18201950D02*
X65371429Y-18240045D01*
X65866667Y-18163855D02*
X66019048Y-18163855D01*
X66019048Y-18163855D02*
X66095238Y-18201950D01*
X66095238Y-18201950D02*
X66171429Y-18278140D01*
X66171429Y-18278140D02*
X66209524Y-18430521D01*
X66209524Y-18430521D02*
X66209524Y-18697188D01*
X66209524Y-18697188D02*
X66171429Y-18849569D01*
X66171429Y-18849569D02*
X66095238Y-18925760D01*
X66095238Y-18925760D02*
X66019048Y-18963855D01*
X66019048Y-18963855D02*
X65866667Y-18963855D01*
X65866667Y-18963855D02*
X65790476Y-18925760D01*
X65790476Y-18925760D02*
X65714286Y-18849569D01*
X65714286Y-18849569D02*
X65676190Y-18697188D01*
X65676190Y-18697188D02*
X65676190Y-18430521D01*
X65676190Y-18430521D02*
X65714286Y-18278140D01*
X65714286Y-18278140D02*
X65790476Y-18201950D01*
X65790476Y-18201950D02*
X65866667Y-18163855D01*
X66552381Y-18963855D02*
X66552381Y-18163855D01*
X66552381Y-18163855D02*
X66819047Y-18735283D01*
X66819047Y-18735283D02*
X67085714Y-18163855D01*
X67085714Y-18163855D02*
X67085714Y-18963855D01*
X85671429Y-3863855D02*
X85671429Y-3063855D01*
X85671429Y-3063855D02*
X86128572Y-3863855D01*
X86128572Y-3863855D02*
X86128572Y-3063855D01*
X86966667Y-3787664D02*
X86928571Y-3825760D01*
X86928571Y-3825760D02*
X86814286Y-3863855D01*
X86814286Y-3863855D02*
X86738095Y-3863855D01*
X86738095Y-3863855D02*
X86623809Y-3825760D01*
X86623809Y-3825760D02*
X86547619Y-3749569D01*
X86547619Y-3749569D02*
X86509524Y-3673379D01*
X86509524Y-3673379D02*
X86471428Y-3520998D01*
X86471428Y-3520998D02*
X86471428Y-3406712D01*
X86471428Y-3406712D02*
X86509524Y-3254331D01*
X86509524Y-3254331D02*
X86547619Y-3178140D01*
X86547619Y-3178140D02*
X86623809Y-3101950D01*
X86623809Y-3101950D02*
X86738095Y-3063855D01*
X86738095Y-3063855D02*
X86814286Y-3063855D01*
X86814286Y-3063855D02*
X86928571Y-3101950D01*
X86928571Y-3101950D02*
X86966667Y-3140045D01*
X85652381Y-15913855D02*
X85652381Y-15113855D01*
X85652381Y-15113855D02*
X86109524Y-15913855D01*
X86109524Y-15913855D02*
X86109524Y-15113855D01*
X86642857Y-15113855D02*
X86795238Y-15113855D01*
X86795238Y-15113855D02*
X86871428Y-15151950D01*
X86871428Y-15151950D02*
X86947619Y-15228140D01*
X86947619Y-15228140D02*
X86985714Y-15380521D01*
X86985714Y-15380521D02*
X86985714Y-15647188D01*
X86985714Y-15647188D02*
X86947619Y-15799569D01*
X86947619Y-15799569D02*
X86871428Y-15875760D01*
X86871428Y-15875760D02*
X86795238Y-15913855D01*
X86795238Y-15913855D02*
X86642857Y-15913855D01*
X86642857Y-15913855D02*
X86566666Y-15875760D01*
X86566666Y-15875760D02*
X86490476Y-15799569D01*
X86490476Y-15799569D02*
X86452380Y-15647188D01*
X86452380Y-15647188D02*
X86452380Y-15380521D01*
X86452380Y-15380521D02*
X86490476Y-15228140D01*
X86490476Y-15228140D02*
X86566666Y-15151950D01*
X86566666Y-15151950D02*
X86642857Y-15113855D01*
X86738095Y-39163855D02*
X86890476Y-39163855D01*
X86890476Y-39163855D02*
X86966666Y-39201950D01*
X86966666Y-39201950D02*
X87042857Y-39278140D01*
X87042857Y-39278140D02*
X87080952Y-39430521D01*
X87080952Y-39430521D02*
X87080952Y-39697188D01*
X87080952Y-39697188D02*
X87042857Y-39849569D01*
X87042857Y-39849569D02*
X86966666Y-39925760D01*
X86966666Y-39925760D02*
X86890476Y-39963855D01*
X86890476Y-39963855D02*
X86738095Y-39963855D01*
X86738095Y-39963855D02*
X86661904Y-39925760D01*
X86661904Y-39925760D02*
X86585714Y-39849569D01*
X86585714Y-39849569D02*
X86547618Y-39697188D01*
X86547618Y-39697188D02*
X86547618Y-39430521D01*
X86547618Y-39430521D02*
X86585714Y-39278140D01*
X86585714Y-39278140D02*
X86661904Y-39201950D01*
X86661904Y-39201950D02*
X86738095Y-39163855D01*
X87804761Y-39963855D02*
X87423809Y-39963855D01*
X87423809Y-39963855D02*
X87423809Y-39163855D01*
X88071428Y-39544807D02*
X88338094Y-39544807D01*
X88452380Y-39963855D02*
X88071428Y-39963855D01*
X88071428Y-39963855D02*
X88071428Y-39163855D01*
X88071428Y-39163855D02*
X88452380Y-39163855D01*
X88795238Y-39963855D02*
X88795238Y-39163855D01*
X88795238Y-39163855D02*
X88985714Y-39163855D01*
X88985714Y-39163855D02*
X89100000Y-39201950D01*
X89100000Y-39201950D02*
X89176190Y-39278140D01*
X89176190Y-39278140D02*
X89214285Y-39354331D01*
X89214285Y-39354331D02*
X89252381Y-39506712D01*
X89252381Y-39506712D02*
X89252381Y-39620998D01*
X89252381Y-39620998D02*
X89214285Y-39773379D01*
X89214285Y-39773379D02*
X89176190Y-39849569D01*
X89176190Y-39849569D02*
X89100000Y-39925760D01*
X89100000Y-39925760D02*
X88985714Y-39963855D01*
X88985714Y-39963855D02*
X88795238Y-39963855D01*
X86142856Y-17825760D02*
X86257142Y-17863855D01*
X86257142Y-17863855D02*
X86447618Y-17863855D01*
X86447618Y-17863855D02*
X86523809Y-17825760D01*
X86523809Y-17825760D02*
X86561904Y-17787664D01*
X86561904Y-17787664D02*
X86599999Y-17711474D01*
X86599999Y-17711474D02*
X86599999Y-17635283D01*
X86599999Y-17635283D02*
X86561904Y-17559093D01*
X86561904Y-17559093D02*
X86523809Y-17520998D01*
X86523809Y-17520998D02*
X86447618Y-17482902D01*
X86447618Y-17482902D02*
X86295237Y-17444807D01*
X86295237Y-17444807D02*
X86219047Y-17406712D01*
X86219047Y-17406712D02*
X86180952Y-17368617D01*
X86180952Y-17368617D02*
X86142856Y-17292426D01*
X86142856Y-17292426D02*
X86142856Y-17216236D01*
X86142856Y-17216236D02*
X86180952Y-17140045D01*
X86180952Y-17140045D02*
X86219047Y-17101950D01*
X86219047Y-17101950D02*
X86295237Y-17063855D01*
X86295237Y-17063855D02*
X86485714Y-17063855D01*
X86485714Y-17063855D02*
X86599999Y-17101950D01*
X86828571Y-17063855D02*
X87285714Y-17063855D01*
X87057142Y-17863855D02*
X87057142Y-17063855D01*
X87476190Y-17063855D02*
X88009524Y-17063855D01*
X88009524Y-17063855D02*
X87666666Y-17863855D01*
X88238095Y-17063855D02*
X88771429Y-17063855D01*
X88771429Y-17063855D02*
X88428571Y-17863855D01*
X89190476Y-17406712D02*
X89114286Y-17368617D01*
X89114286Y-17368617D02*
X89076191Y-17330521D01*
X89076191Y-17330521D02*
X89038095Y-17254331D01*
X89038095Y-17254331D02*
X89038095Y-17216236D01*
X89038095Y-17216236D02*
X89076191Y-17140045D01*
X89076191Y-17140045D02*
X89114286Y-17101950D01*
X89114286Y-17101950D02*
X89190476Y-17063855D01*
X89190476Y-17063855D02*
X89342857Y-17063855D01*
X89342857Y-17063855D02*
X89419048Y-17101950D01*
X89419048Y-17101950D02*
X89457143Y-17140045D01*
X89457143Y-17140045D02*
X89495238Y-17216236D01*
X89495238Y-17216236D02*
X89495238Y-17254331D01*
X89495238Y-17254331D02*
X89457143Y-17330521D01*
X89457143Y-17330521D02*
X89419048Y-17368617D01*
X89419048Y-17368617D02*
X89342857Y-17406712D01*
X89342857Y-17406712D02*
X89190476Y-17406712D01*
X89190476Y-17406712D02*
X89114286Y-17444807D01*
X89114286Y-17444807D02*
X89076191Y-17482902D01*
X89076191Y-17482902D02*
X89038095Y-17559093D01*
X89038095Y-17559093D02*
X89038095Y-17711474D01*
X89038095Y-17711474D02*
X89076191Y-17787664D01*
X89076191Y-17787664D02*
X89114286Y-17825760D01*
X89114286Y-17825760D02*
X89190476Y-17863855D01*
X89190476Y-17863855D02*
X89342857Y-17863855D01*
X89342857Y-17863855D02*
X89419048Y-17825760D01*
X89419048Y-17825760D02*
X89457143Y-17787664D01*
X89457143Y-17787664D02*
X89495238Y-17711474D01*
X89495238Y-17711474D02*
X89495238Y-17559093D01*
X89495238Y-17559093D02*
X89457143Y-17482902D01*
X89457143Y-17482902D02*
X89419048Y-17444807D01*
X89419048Y-17444807D02*
X89342857Y-17406712D01*
X89876191Y-17863855D02*
X90028572Y-17863855D01*
X90028572Y-17863855D02*
X90104762Y-17825760D01*
X90104762Y-17825760D02*
X90142858Y-17787664D01*
X90142858Y-17787664D02*
X90219048Y-17673379D01*
X90219048Y-17673379D02*
X90257143Y-17520998D01*
X90257143Y-17520998D02*
X90257143Y-17216236D01*
X90257143Y-17216236D02*
X90219048Y-17140045D01*
X90219048Y-17140045D02*
X90180953Y-17101950D01*
X90180953Y-17101950D02*
X90104762Y-17063855D01*
X90104762Y-17063855D02*
X89952381Y-17063855D01*
X89952381Y-17063855D02*
X89876191Y-17101950D01*
X89876191Y-17101950D02*
X89838096Y-17140045D01*
X89838096Y-17140045D02*
X89800000Y-17216236D01*
X89800000Y-17216236D02*
X89800000Y-17406712D01*
X89800000Y-17406712D02*
X89838096Y-17482902D01*
X89838096Y-17482902D02*
X89876191Y-17520998D01*
X89876191Y-17520998D02*
X89952381Y-17559093D01*
X89952381Y-17559093D02*
X90104762Y-17559093D01*
X90104762Y-17559093D02*
X90180953Y-17520998D01*
X90180953Y-17520998D02*
X90219048Y-17482902D01*
X90219048Y-17482902D02*
X90257143Y-17406712D01*
X88490476Y-19101950D02*
X88414286Y-19063855D01*
X88414286Y-19063855D02*
X88300000Y-19063855D01*
X88300000Y-19063855D02*
X88185714Y-19101950D01*
X88185714Y-19101950D02*
X88109524Y-19178140D01*
X88109524Y-19178140D02*
X88071429Y-19254331D01*
X88071429Y-19254331D02*
X88033333Y-19406712D01*
X88033333Y-19406712D02*
X88033333Y-19520998D01*
X88033333Y-19520998D02*
X88071429Y-19673379D01*
X88071429Y-19673379D02*
X88109524Y-19749569D01*
X88109524Y-19749569D02*
X88185714Y-19825760D01*
X88185714Y-19825760D02*
X88300000Y-19863855D01*
X88300000Y-19863855D02*
X88376191Y-19863855D01*
X88376191Y-19863855D02*
X88490476Y-19825760D01*
X88490476Y-19825760D02*
X88528572Y-19787664D01*
X88528572Y-19787664D02*
X88528572Y-19520998D01*
X88528572Y-19520998D02*
X88376191Y-19520998D01*
X88871429Y-19863855D02*
X88871429Y-19063855D01*
X88871429Y-19063855D02*
X89328572Y-19863855D01*
X89328572Y-19863855D02*
X89328572Y-19063855D01*
X89709524Y-19863855D02*
X89709524Y-19063855D01*
X89709524Y-19063855D02*
X89900000Y-19063855D01*
X89900000Y-19063855D02*
X90014286Y-19101950D01*
X90014286Y-19101950D02*
X90090476Y-19178140D01*
X90090476Y-19178140D02*
X90128571Y-19254331D01*
X90128571Y-19254331D02*
X90166667Y-19406712D01*
X90166667Y-19406712D02*
X90166667Y-19520998D01*
X90166667Y-19520998D02*
X90128571Y-19673379D01*
X90128571Y-19673379D02*
X90090476Y-19749569D01*
X90090476Y-19749569D02*
X90014286Y-19825760D01*
X90014286Y-19825760D02*
X89900000Y-19863855D01*
X89900000Y-19863855D02*
X89709524Y-19863855D01*
X88033333Y-21603855D02*
X88300000Y-22403855D01*
X88300000Y-22403855D02*
X88566666Y-21603855D01*
X89290476Y-22327664D02*
X89252380Y-22365760D01*
X89252380Y-22365760D02*
X89138095Y-22403855D01*
X89138095Y-22403855D02*
X89061904Y-22403855D01*
X89061904Y-22403855D02*
X88947618Y-22365760D01*
X88947618Y-22365760D02*
X88871428Y-22289569D01*
X88871428Y-22289569D02*
X88833333Y-22213379D01*
X88833333Y-22213379D02*
X88795237Y-22060998D01*
X88795237Y-22060998D02*
X88795237Y-21946712D01*
X88795237Y-21946712D02*
X88833333Y-21794331D01*
X88833333Y-21794331D02*
X88871428Y-21718140D01*
X88871428Y-21718140D02*
X88947618Y-21641950D01*
X88947618Y-21641950D02*
X89061904Y-21603855D01*
X89061904Y-21603855D02*
X89138095Y-21603855D01*
X89138095Y-21603855D02*
X89252380Y-21641950D01*
X89252380Y-21641950D02*
X89290476Y-21680045D01*
X90090476Y-22327664D02*
X90052380Y-22365760D01*
X90052380Y-22365760D02*
X89938095Y-22403855D01*
X89938095Y-22403855D02*
X89861904Y-22403855D01*
X89861904Y-22403855D02*
X89747618Y-22365760D01*
X89747618Y-22365760D02*
X89671428Y-22289569D01*
X89671428Y-22289569D02*
X89633333Y-22213379D01*
X89633333Y-22213379D02*
X89595237Y-22060998D01*
X89595237Y-22060998D02*
X89595237Y-21946712D01*
X89595237Y-21946712D02*
X89633333Y-21794331D01*
X89633333Y-21794331D02*
X89671428Y-21718140D01*
X89671428Y-21718140D02*
X89747618Y-21641950D01*
X89747618Y-21641950D02*
X89861904Y-21603855D01*
X89861904Y-21603855D02*
X89938095Y-21603855D01*
X89938095Y-21603855D02*
X90052380Y-21641950D01*
X90052380Y-21641950D02*
X90090476Y-21680045D01*
X88147618Y-24905760D02*
X88261904Y-24943855D01*
X88261904Y-24943855D02*
X88452380Y-24943855D01*
X88452380Y-24943855D02*
X88528571Y-24905760D01*
X88528571Y-24905760D02*
X88566666Y-24867664D01*
X88566666Y-24867664D02*
X88604761Y-24791474D01*
X88604761Y-24791474D02*
X88604761Y-24715283D01*
X88604761Y-24715283D02*
X88566666Y-24639093D01*
X88566666Y-24639093D02*
X88528571Y-24600998D01*
X88528571Y-24600998D02*
X88452380Y-24562902D01*
X88452380Y-24562902D02*
X88299999Y-24524807D01*
X88299999Y-24524807D02*
X88223809Y-24486712D01*
X88223809Y-24486712D02*
X88185714Y-24448617D01*
X88185714Y-24448617D02*
X88147618Y-24372426D01*
X88147618Y-24372426D02*
X88147618Y-24296236D01*
X88147618Y-24296236D02*
X88185714Y-24220045D01*
X88185714Y-24220045D02*
X88223809Y-24181950D01*
X88223809Y-24181950D02*
X88299999Y-24143855D01*
X88299999Y-24143855D02*
X88490476Y-24143855D01*
X88490476Y-24143855D02*
X88604761Y-24181950D01*
X89404762Y-24867664D02*
X89366666Y-24905760D01*
X89366666Y-24905760D02*
X89252381Y-24943855D01*
X89252381Y-24943855D02*
X89176190Y-24943855D01*
X89176190Y-24943855D02*
X89061904Y-24905760D01*
X89061904Y-24905760D02*
X88985714Y-24829569D01*
X88985714Y-24829569D02*
X88947619Y-24753379D01*
X88947619Y-24753379D02*
X88909523Y-24600998D01*
X88909523Y-24600998D02*
X88909523Y-24486712D01*
X88909523Y-24486712D02*
X88947619Y-24334331D01*
X88947619Y-24334331D02*
X88985714Y-24258140D01*
X88985714Y-24258140D02*
X89061904Y-24181950D01*
X89061904Y-24181950D02*
X89176190Y-24143855D01*
X89176190Y-24143855D02*
X89252381Y-24143855D01*
X89252381Y-24143855D02*
X89366666Y-24181950D01*
X89366666Y-24181950D02*
X89404762Y-24220045D01*
X90128571Y-24943855D02*
X89747619Y-24943855D01*
X89747619Y-24943855D02*
X89747619Y-24143855D01*
X88128571Y-27445760D02*
X88242857Y-27483855D01*
X88242857Y-27483855D02*
X88433333Y-27483855D01*
X88433333Y-27483855D02*
X88509524Y-27445760D01*
X88509524Y-27445760D02*
X88547619Y-27407664D01*
X88547619Y-27407664D02*
X88585714Y-27331474D01*
X88585714Y-27331474D02*
X88585714Y-27255283D01*
X88585714Y-27255283D02*
X88547619Y-27179093D01*
X88547619Y-27179093D02*
X88509524Y-27140998D01*
X88509524Y-27140998D02*
X88433333Y-27102902D01*
X88433333Y-27102902D02*
X88280952Y-27064807D01*
X88280952Y-27064807D02*
X88204762Y-27026712D01*
X88204762Y-27026712D02*
X88166667Y-26988617D01*
X88166667Y-26988617D02*
X88128571Y-26912426D01*
X88128571Y-26912426D02*
X88128571Y-26836236D01*
X88128571Y-26836236D02*
X88166667Y-26760045D01*
X88166667Y-26760045D02*
X88204762Y-26721950D01*
X88204762Y-26721950D02*
X88280952Y-26683855D01*
X88280952Y-26683855D02*
X88471429Y-26683855D01*
X88471429Y-26683855D02*
X88585714Y-26721950D01*
X88928572Y-27483855D02*
X88928572Y-26683855D01*
X88928572Y-26683855D02*
X89119048Y-26683855D01*
X89119048Y-26683855D02*
X89233334Y-26721950D01*
X89233334Y-26721950D02*
X89309524Y-26798140D01*
X89309524Y-26798140D02*
X89347619Y-26874331D01*
X89347619Y-26874331D02*
X89385715Y-27026712D01*
X89385715Y-27026712D02*
X89385715Y-27140998D01*
X89385715Y-27140998D02*
X89347619Y-27293379D01*
X89347619Y-27293379D02*
X89309524Y-27369569D01*
X89309524Y-27369569D02*
X89233334Y-27445760D01*
X89233334Y-27445760D02*
X89119048Y-27483855D01*
X89119048Y-27483855D02*
X88928572Y-27483855D01*
X89690476Y-27255283D02*
X90071429Y-27255283D01*
X89614286Y-27483855D02*
X89880953Y-26683855D01*
X89880953Y-26683855D02*
X90147619Y-27483855D01*
X88604762Y-30023855D02*
X88338095Y-29642902D01*
X88147619Y-30023855D02*
X88147619Y-29223855D01*
X88147619Y-29223855D02*
X88452381Y-29223855D01*
X88452381Y-29223855D02*
X88528571Y-29261950D01*
X88528571Y-29261950D02*
X88566666Y-29300045D01*
X88566666Y-29300045D02*
X88604762Y-29376236D01*
X88604762Y-29376236D02*
X88604762Y-29490521D01*
X88604762Y-29490521D02*
X88566666Y-29566712D01*
X88566666Y-29566712D02*
X88528571Y-29604807D01*
X88528571Y-29604807D02*
X88452381Y-29642902D01*
X88452381Y-29642902D02*
X88147619Y-29642902D01*
X88947619Y-29604807D02*
X89214285Y-29604807D01*
X89328571Y-30023855D02*
X88947619Y-30023855D01*
X88947619Y-30023855D02*
X88947619Y-29223855D01*
X88947619Y-29223855D02*
X89328571Y-29223855D01*
X89633333Y-29985760D02*
X89747619Y-30023855D01*
X89747619Y-30023855D02*
X89938095Y-30023855D01*
X89938095Y-30023855D02*
X90014286Y-29985760D01*
X90014286Y-29985760D02*
X90052381Y-29947664D01*
X90052381Y-29947664D02*
X90090476Y-29871474D01*
X90090476Y-29871474D02*
X90090476Y-29795283D01*
X90090476Y-29795283D02*
X90052381Y-29719093D01*
X90052381Y-29719093D02*
X90014286Y-29680998D01*
X90014286Y-29680998D02*
X89938095Y-29642902D01*
X89938095Y-29642902D02*
X89785714Y-29604807D01*
X89785714Y-29604807D02*
X89709524Y-29566712D01*
X89709524Y-29566712D02*
X89671429Y-29528617D01*
X89671429Y-29528617D02*
X89633333Y-29452426D01*
X89633333Y-29452426D02*
X89633333Y-29376236D01*
X89633333Y-29376236D02*
X89671429Y-29300045D01*
X89671429Y-29300045D02*
X89709524Y-29261950D01*
X89709524Y-29261950D02*
X89785714Y-29223855D01*
X89785714Y-29223855D02*
X89976191Y-29223855D01*
X89976191Y-29223855D02*
X90090476Y-29261950D01*
X88490476Y-32563855D02*
X88490476Y-31763855D01*
X88490476Y-31763855D02*
X88680952Y-31763855D01*
X88680952Y-31763855D02*
X88795238Y-31801950D01*
X88795238Y-31801950D02*
X88871428Y-31878140D01*
X88871428Y-31878140D02*
X88909523Y-31954331D01*
X88909523Y-31954331D02*
X88947619Y-32106712D01*
X88947619Y-32106712D02*
X88947619Y-32220998D01*
X88947619Y-32220998D02*
X88909523Y-32373379D01*
X88909523Y-32373379D02*
X88871428Y-32449569D01*
X88871428Y-32449569D02*
X88795238Y-32525760D01*
X88795238Y-32525760D02*
X88680952Y-32563855D01*
X88680952Y-32563855D02*
X88490476Y-32563855D01*
X89747619Y-32487664D02*
X89709523Y-32525760D01*
X89709523Y-32525760D02*
X89595238Y-32563855D01*
X89595238Y-32563855D02*
X89519047Y-32563855D01*
X89519047Y-32563855D02*
X89404761Y-32525760D01*
X89404761Y-32525760D02*
X89328571Y-32449569D01*
X89328571Y-32449569D02*
X89290476Y-32373379D01*
X89290476Y-32373379D02*
X89252380Y-32220998D01*
X89252380Y-32220998D02*
X89252380Y-32106712D01*
X89252380Y-32106712D02*
X89290476Y-31954331D01*
X89290476Y-31954331D02*
X89328571Y-31878140D01*
X89328571Y-31878140D02*
X89404761Y-31801950D01*
X89404761Y-31801950D02*
X89519047Y-31763855D01*
X89519047Y-31763855D02*
X89595238Y-31763855D01*
X89595238Y-31763855D02*
X89709523Y-31801950D01*
X89709523Y-31801950D02*
X89747619Y-31840045D01*
X88966667Y-35027664D02*
X88928571Y-35065760D01*
X88928571Y-35065760D02*
X88814286Y-35103855D01*
X88814286Y-35103855D02*
X88738095Y-35103855D01*
X88738095Y-35103855D02*
X88623809Y-35065760D01*
X88623809Y-35065760D02*
X88547619Y-34989569D01*
X88547619Y-34989569D02*
X88509524Y-34913379D01*
X88509524Y-34913379D02*
X88471428Y-34760998D01*
X88471428Y-34760998D02*
X88471428Y-34646712D01*
X88471428Y-34646712D02*
X88509524Y-34494331D01*
X88509524Y-34494331D02*
X88547619Y-34418140D01*
X88547619Y-34418140D02*
X88623809Y-34341950D01*
X88623809Y-34341950D02*
X88738095Y-34303855D01*
X88738095Y-34303855D02*
X88814286Y-34303855D01*
X88814286Y-34303855D02*
X88928571Y-34341950D01*
X88928571Y-34341950D02*
X88966667Y-34380045D01*
X89271428Y-35065760D02*
X89385714Y-35103855D01*
X89385714Y-35103855D02*
X89576190Y-35103855D01*
X89576190Y-35103855D02*
X89652381Y-35065760D01*
X89652381Y-35065760D02*
X89690476Y-35027664D01*
X89690476Y-35027664D02*
X89728571Y-34951474D01*
X89728571Y-34951474D02*
X89728571Y-34875283D01*
X89728571Y-34875283D02*
X89690476Y-34799093D01*
X89690476Y-34799093D02*
X89652381Y-34760998D01*
X89652381Y-34760998D02*
X89576190Y-34722902D01*
X89576190Y-34722902D02*
X89423809Y-34684807D01*
X89423809Y-34684807D02*
X89347619Y-34646712D01*
X89347619Y-34646712D02*
X89309524Y-34608617D01*
X89309524Y-34608617D02*
X89271428Y-34532426D01*
X89271428Y-34532426D02*
X89271428Y-34456236D01*
X89271428Y-34456236D02*
X89309524Y-34380045D01*
X89309524Y-34380045D02*
X89347619Y-34341950D01*
X89347619Y-34341950D02*
X89423809Y-34303855D01*
X89423809Y-34303855D02*
X89614286Y-34303855D01*
X89614286Y-34303855D02*
X89728571Y-34341950D01*
X88833333Y-37224807D02*
X88947619Y-37262902D01*
X88947619Y-37262902D02*
X88985714Y-37300998D01*
X88985714Y-37300998D02*
X89023810Y-37377188D01*
X89023810Y-37377188D02*
X89023810Y-37491474D01*
X89023810Y-37491474D02*
X88985714Y-37567664D01*
X88985714Y-37567664D02*
X88947619Y-37605760D01*
X88947619Y-37605760D02*
X88871429Y-37643855D01*
X88871429Y-37643855D02*
X88566667Y-37643855D01*
X88566667Y-37643855D02*
X88566667Y-36843855D01*
X88566667Y-36843855D02*
X88833333Y-36843855D01*
X88833333Y-36843855D02*
X88909524Y-36881950D01*
X88909524Y-36881950D02*
X88947619Y-36920045D01*
X88947619Y-36920045D02*
X88985714Y-36996236D01*
X88985714Y-36996236D02*
X88985714Y-37072426D01*
X88985714Y-37072426D02*
X88947619Y-37148617D01*
X88947619Y-37148617D02*
X88909524Y-37186712D01*
X88909524Y-37186712D02*
X88833333Y-37224807D01*
X88833333Y-37224807D02*
X88566667Y-37224807D01*
X89747619Y-37643855D02*
X89366667Y-37643855D01*
X89366667Y-37643855D02*
X89366667Y-36843855D01*
X88490476Y-40601950D02*
X88414286Y-40563855D01*
X88414286Y-40563855D02*
X88300000Y-40563855D01*
X88300000Y-40563855D02*
X88185714Y-40601950D01*
X88185714Y-40601950D02*
X88109524Y-40678140D01*
X88109524Y-40678140D02*
X88071429Y-40754331D01*
X88071429Y-40754331D02*
X88033333Y-40906712D01*
X88033333Y-40906712D02*
X88033333Y-41020998D01*
X88033333Y-41020998D02*
X88071429Y-41173379D01*
X88071429Y-41173379D02*
X88109524Y-41249569D01*
X88109524Y-41249569D02*
X88185714Y-41325760D01*
X88185714Y-41325760D02*
X88300000Y-41363855D01*
X88300000Y-41363855D02*
X88376191Y-41363855D01*
X88376191Y-41363855D02*
X88490476Y-41325760D01*
X88490476Y-41325760D02*
X88528572Y-41287664D01*
X88528572Y-41287664D02*
X88528572Y-41020998D01*
X88528572Y-41020998D02*
X88376191Y-41020998D01*
X88871429Y-41363855D02*
X88871429Y-40563855D01*
X88871429Y-40563855D02*
X89328572Y-41363855D01*
X89328572Y-41363855D02*
X89328572Y-40563855D01*
X89709524Y-41363855D02*
X89709524Y-40563855D01*
X89709524Y-40563855D02*
X89900000Y-40563855D01*
X89900000Y-40563855D02*
X90014286Y-40601950D01*
X90014286Y-40601950D02*
X90090476Y-40678140D01*
X90090476Y-40678140D02*
X90128571Y-40754331D01*
X90128571Y-40754331D02*
X90166667Y-40906712D01*
X90166667Y-40906712D02*
X90166667Y-41020998D01*
X90166667Y-41020998D02*
X90128571Y-41173379D01*
X90128571Y-41173379D02*
X90090476Y-41249569D01*
X90090476Y-41249569D02*
X90014286Y-41325760D01*
X90014286Y-41325760D02*
X89900000Y-41363855D01*
X89900000Y-41363855D02*
X89709524Y-41363855D01*
X88033333Y-43103855D02*
X88300000Y-43903855D01*
X88300000Y-43903855D02*
X88566666Y-43103855D01*
X89290476Y-43827664D02*
X89252380Y-43865760D01*
X89252380Y-43865760D02*
X89138095Y-43903855D01*
X89138095Y-43903855D02*
X89061904Y-43903855D01*
X89061904Y-43903855D02*
X88947618Y-43865760D01*
X88947618Y-43865760D02*
X88871428Y-43789569D01*
X88871428Y-43789569D02*
X88833333Y-43713379D01*
X88833333Y-43713379D02*
X88795237Y-43560998D01*
X88795237Y-43560998D02*
X88795237Y-43446712D01*
X88795237Y-43446712D02*
X88833333Y-43294331D01*
X88833333Y-43294331D02*
X88871428Y-43218140D01*
X88871428Y-43218140D02*
X88947618Y-43141950D01*
X88947618Y-43141950D02*
X89061904Y-43103855D01*
X89061904Y-43103855D02*
X89138095Y-43103855D01*
X89138095Y-43103855D02*
X89252380Y-43141950D01*
X89252380Y-43141950D02*
X89290476Y-43180045D01*
X90090476Y-43827664D02*
X90052380Y-43865760D01*
X90052380Y-43865760D02*
X89938095Y-43903855D01*
X89938095Y-43903855D02*
X89861904Y-43903855D01*
X89861904Y-43903855D02*
X89747618Y-43865760D01*
X89747618Y-43865760D02*
X89671428Y-43789569D01*
X89671428Y-43789569D02*
X89633333Y-43713379D01*
X89633333Y-43713379D02*
X89595237Y-43560998D01*
X89595237Y-43560998D02*
X89595237Y-43446712D01*
X89595237Y-43446712D02*
X89633333Y-43294331D01*
X89633333Y-43294331D02*
X89671428Y-43218140D01*
X89671428Y-43218140D02*
X89747618Y-43141950D01*
X89747618Y-43141950D02*
X89861904Y-43103855D01*
X89861904Y-43103855D02*
X89938095Y-43103855D01*
X89938095Y-43103855D02*
X90052380Y-43141950D01*
X90052380Y-43141950D02*
X90090476Y-43180045D01*
X88147618Y-46405760D02*
X88261904Y-46443855D01*
X88261904Y-46443855D02*
X88452380Y-46443855D01*
X88452380Y-46443855D02*
X88528571Y-46405760D01*
X88528571Y-46405760D02*
X88566666Y-46367664D01*
X88566666Y-46367664D02*
X88604761Y-46291474D01*
X88604761Y-46291474D02*
X88604761Y-46215283D01*
X88604761Y-46215283D02*
X88566666Y-46139093D01*
X88566666Y-46139093D02*
X88528571Y-46100998D01*
X88528571Y-46100998D02*
X88452380Y-46062902D01*
X88452380Y-46062902D02*
X88299999Y-46024807D01*
X88299999Y-46024807D02*
X88223809Y-45986712D01*
X88223809Y-45986712D02*
X88185714Y-45948617D01*
X88185714Y-45948617D02*
X88147618Y-45872426D01*
X88147618Y-45872426D02*
X88147618Y-45796236D01*
X88147618Y-45796236D02*
X88185714Y-45720045D01*
X88185714Y-45720045D02*
X88223809Y-45681950D01*
X88223809Y-45681950D02*
X88299999Y-45643855D01*
X88299999Y-45643855D02*
X88490476Y-45643855D01*
X88490476Y-45643855D02*
X88604761Y-45681950D01*
X89404762Y-46367664D02*
X89366666Y-46405760D01*
X89366666Y-46405760D02*
X89252381Y-46443855D01*
X89252381Y-46443855D02*
X89176190Y-46443855D01*
X89176190Y-46443855D02*
X89061904Y-46405760D01*
X89061904Y-46405760D02*
X88985714Y-46329569D01*
X88985714Y-46329569D02*
X88947619Y-46253379D01*
X88947619Y-46253379D02*
X88909523Y-46100998D01*
X88909523Y-46100998D02*
X88909523Y-45986712D01*
X88909523Y-45986712D02*
X88947619Y-45834331D01*
X88947619Y-45834331D02*
X88985714Y-45758140D01*
X88985714Y-45758140D02*
X89061904Y-45681950D01*
X89061904Y-45681950D02*
X89176190Y-45643855D01*
X89176190Y-45643855D02*
X89252381Y-45643855D01*
X89252381Y-45643855D02*
X89366666Y-45681950D01*
X89366666Y-45681950D02*
X89404762Y-45720045D01*
X90128571Y-46443855D02*
X89747619Y-46443855D01*
X89747619Y-46443855D02*
X89747619Y-45643855D01*
X88128571Y-48945760D02*
X88242857Y-48983855D01*
X88242857Y-48983855D02*
X88433333Y-48983855D01*
X88433333Y-48983855D02*
X88509524Y-48945760D01*
X88509524Y-48945760D02*
X88547619Y-48907664D01*
X88547619Y-48907664D02*
X88585714Y-48831474D01*
X88585714Y-48831474D02*
X88585714Y-48755283D01*
X88585714Y-48755283D02*
X88547619Y-48679093D01*
X88547619Y-48679093D02*
X88509524Y-48640998D01*
X88509524Y-48640998D02*
X88433333Y-48602902D01*
X88433333Y-48602902D02*
X88280952Y-48564807D01*
X88280952Y-48564807D02*
X88204762Y-48526712D01*
X88204762Y-48526712D02*
X88166667Y-48488617D01*
X88166667Y-48488617D02*
X88128571Y-48412426D01*
X88128571Y-48412426D02*
X88128571Y-48336236D01*
X88128571Y-48336236D02*
X88166667Y-48260045D01*
X88166667Y-48260045D02*
X88204762Y-48221950D01*
X88204762Y-48221950D02*
X88280952Y-48183855D01*
X88280952Y-48183855D02*
X88471429Y-48183855D01*
X88471429Y-48183855D02*
X88585714Y-48221950D01*
X88928572Y-48983855D02*
X88928572Y-48183855D01*
X88928572Y-48183855D02*
X89119048Y-48183855D01*
X89119048Y-48183855D02*
X89233334Y-48221950D01*
X89233334Y-48221950D02*
X89309524Y-48298140D01*
X89309524Y-48298140D02*
X89347619Y-48374331D01*
X89347619Y-48374331D02*
X89385715Y-48526712D01*
X89385715Y-48526712D02*
X89385715Y-48640998D01*
X89385715Y-48640998D02*
X89347619Y-48793379D01*
X89347619Y-48793379D02*
X89309524Y-48869569D01*
X89309524Y-48869569D02*
X89233334Y-48945760D01*
X89233334Y-48945760D02*
X89119048Y-48983855D01*
X89119048Y-48983855D02*
X88928572Y-48983855D01*
X89690476Y-48755283D02*
X90071429Y-48755283D01*
X89614286Y-48983855D02*
X89880953Y-48183855D01*
X89880953Y-48183855D02*
X90147619Y-48983855D01*
X8261950Y-21609523D02*
X8223855Y-21685713D01*
X8223855Y-21685713D02*
X8223855Y-21799999D01*
X8223855Y-21799999D02*
X8261950Y-21914285D01*
X8261950Y-21914285D02*
X8338140Y-21990475D01*
X8338140Y-21990475D02*
X8414331Y-22028570D01*
X8414331Y-22028570D02*
X8566712Y-22066666D01*
X8566712Y-22066666D02*
X8680998Y-22066666D01*
X8680998Y-22066666D02*
X8833379Y-22028570D01*
X8833379Y-22028570D02*
X8909569Y-21990475D01*
X8909569Y-21990475D02*
X8985760Y-21914285D01*
X8985760Y-21914285D02*
X9023855Y-21799999D01*
X9023855Y-21799999D02*
X9023855Y-21723808D01*
X9023855Y-21723808D02*
X8985760Y-21609523D01*
X8985760Y-21609523D02*
X8947664Y-21571427D01*
X8947664Y-21571427D02*
X8680998Y-21571427D01*
X8680998Y-21571427D02*
X8680998Y-21723808D01*
X9023855Y-21228570D02*
X8223855Y-21228570D01*
X8223855Y-21228570D02*
X9023855Y-20771427D01*
X9023855Y-20771427D02*
X8223855Y-20771427D01*
X9023855Y-20390475D02*
X8223855Y-20390475D01*
X8223855Y-20390475D02*
X8223855Y-20199999D01*
X8223855Y-20199999D02*
X8261950Y-20085713D01*
X8261950Y-20085713D02*
X8338140Y-20009523D01*
X8338140Y-20009523D02*
X8414331Y-19971428D01*
X8414331Y-19971428D02*
X8566712Y-19933332D01*
X8566712Y-19933332D02*
X8680998Y-19933332D01*
X8680998Y-19933332D02*
X8833379Y-19971428D01*
X8833379Y-19971428D02*
X8909569Y-20009523D01*
X8909569Y-20009523D02*
X8985760Y-20085713D01*
X8985760Y-20085713D02*
X9023855Y-20199999D01*
X9023855Y-20199999D02*
X9023855Y-20390475D01*
X8261950Y-38469523D02*
X8223855Y-38545713D01*
X8223855Y-38545713D02*
X8223855Y-38659999D01*
X8223855Y-38659999D02*
X8261950Y-38774285D01*
X8261950Y-38774285D02*
X8338140Y-38850475D01*
X8338140Y-38850475D02*
X8414331Y-38888570D01*
X8414331Y-38888570D02*
X8566712Y-38926666D01*
X8566712Y-38926666D02*
X8680998Y-38926666D01*
X8680998Y-38926666D02*
X8833379Y-38888570D01*
X8833379Y-38888570D02*
X8909569Y-38850475D01*
X8909569Y-38850475D02*
X8985760Y-38774285D01*
X8985760Y-38774285D02*
X9023855Y-38659999D01*
X9023855Y-38659999D02*
X9023855Y-38583808D01*
X9023855Y-38583808D02*
X8985760Y-38469523D01*
X8985760Y-38469523D02*
X8947664Y-38431427D01*
X8947664Y-38431427D02*
X8680998Y-38431427D01*
X8680998Y-38431427D02*
X8680998Y-38583808D01*
X9023855Y-38088570D02*
X8223855Y-38088570D01*
X8223855Y-38088570D02*
X9023855Y-37631427D01*
X9023855Y-37631427D02*
X8223855Y-37631427D01*
X9023855Y-37250475D02*
X8223855Y-37250475D01*
X8223855Y-37250475D02*
X8223855Y-37059999D01*
X8223855Y-37059999D02*
X8261950Y-36945713D01*
X8261950Y-36945713D02*
X8338140Y-36869523D01*
X8338140Y-36869523D02*
X8414331Y-36831428D01*
X8414331Y-36831428D02*
X8566712Y-36793332D01*
X8566712Y-36793332D02*
X8680998Y-36793332D01*
X8680998Y-36793332D02*
X8833379Y-36831428D01*
X8833379Y-36831428D02*
X8909569Y-36869523D01*
X8909569Y-36869523D02*
X8985760Y-36945713D01*
X8985760Y-36945713D02*
X9023855Y-37059999D01*
X9023855Y-37059999D02*
X9023855Y-37250475D01*
X9363855Y-51766666D02*
X8563855Y-51766666D01*
X8563855Y-51766666D02*
X8563855Y-51461904D01*
X8563855Y-51461904D02*
X8601950Y-51385714D01*
X8601950Y-51385714D02*
X8640045Y-51347619D01*
X8640045Y-51347619D02*
X8716236Y-51309523D01*
X8716236Y-51309523D02*
X8830521Y-51309523D01*
X8830521Y-51309523D02*
X8906712Y-51347619D01*
X8906712Y-51347619D02*
X8944807Y-51385714D01*
X8944807Y-51385714D02*
X8982902Y-51461904D01*
X8982902Y-51461904D02*
X8982902Y-51766666D01*
X8563855Y-51042857D02*
X9363855Y-50852381D01*
X9363855Y-50852381D02*
X8792426Y-50700000D01*
X8792426Y-50700000D02*
X9363855Y-50547619D01*
X9363855Y-50547619D02*
X8563855Y-50357143D01*
X9363855Y-49595237D02*
X8982902Y-49861904D01*
X9363855Y-50052380D02*
X8563855Y-50052380D01*
X8563855Y-50052380D02*
X8563855Y-49747618D01*
X8563855Y-49747618D02*
X8601950Y-49671428D01*
X8601950Y-49671428D02*
X8640045Y-49633333D01*
X8640045Y-49633333D02*
X8716236Y-49595237D01*
X8716236Y-49595237D02*
X8830521Y-49595237D01*
X8830521Y-49595237D02*
X8906712Y-49633333D01*
X8906712Y-49633333D02*
X8944807Y-49671428D01*
X8944807Y-49671428D02*
X8982902Y-49747618D01*
X8982902Y-49747618D02*
X8982902Y-50052380D01*
X10763855Y-21152380D02*
X10763855Y-21533332D01*
X10763855Y-21533332D02*
X11144807Y-21571428D01*
X11144807Y-21571428D02*
X11106712Y-21533332D01*
X11106712Y-21533332D02*
X11068617Y-21457142D01*
X11068617Y-21457142D02*
X11068617Y-21266666D01*
X11068617Y-21266666D02*
X11106712Y-21190475D01*
X11106712Y-21190475D02*
X11144807Y-21152380D01*
X11144807Y-21152380D02*
X11220998Y-21114285D01*
X11220998Y-21114285D02*
X11411474Y-21114285D01*
X11411474Y-21114285D02*
X11487664Y-21152380D01*
X11487664Y-21152380D02*
X11525760Y-21190475D01*
X11525760Y-21190475D02*
X11563855Y-21266666D01*
X11563855Y-21266666D02*
X11563855Y-21457142D01*
X11563855Y-21457142D02*
X11525760Y-21533332D01*
X11525760Y-21533332D02*
X11487664Y-21571428D01*
X10763855Y-20885713D02*
X11563855Y-20619046D01*
X11563855Y-20619046D02*
X10763855Y-20352380D01*
X10801950Y-38469523D02*
X10763855Y-38545713D01*
X10763855Y-38545713D02*
X10763855Y-38659999D01*
X10763855Y-38659999D02*
X10801950Y-38774285D01*
X10801950Y-38774285D02*
X10878140Y-38850475D01*
X10878140Y-38850475D02*
X10954331Y-38888570D01*
X10954331Y-38888570D02*
X11106712Y-38926666D01*
X11106712Y-38926666D02*
X11220998Y-38926666D01*
X11220998Y-38926666D02*
X11373379Y-38888570D01*
X11373379Y-38888570D02*
X11449569Y-38850475D01*
X11449569Y-38850475D02*
X11525760Y-38774285D01*
X11525760Y-38774285D02*
X11563855Y-38659999D01*
X11563855Y-38659999D02*
X11563855Y-38583808D01*
X11563855Y-38583808D02*
X11525760Y-38469523D01*
X11525760Y-38469523D02*
X11487664Y-38431427D01*
X11487664Y-38431427D02*
X11220998Y-38431427D01*
X11220998Y-38431427D02*
X11220998Y-38583808D01*
X11563855Y-38088570D02*
X10763855Y-38088570D01*
X10763855Y-38088570D02*
X11563855Y-37631427D01*
X11563855Y-37631427D02*
X10763855Y-37631427D01*
X11563855Y-37250475D02*
X10763855Y-37250475D01*
X10763855Y-37250475D02*
X10763855Y-37059999D01*
X10763855Y-37059999D02*
X10801950Y-36945713D01*
X10801950Y-36945713D02*
X10878140Y-36869523D01*
X10878140Y-36869523D02*
X10954331Y-36831428D01*
X10954331Y-36831428D02*
X11106712Y-36793332D01*
X11106712Y-36793332D02*
X11220998Y-36793332D01*
X11220998Y-36793332D02*
X11373379Y-36831428D01*
X11373379Y-36831428D02*
X11449569Y-36869523D01*
X11449569Y-36869523D02*
X11525760Y-36945713D01*
X11525760Y-36945713D02*
X11563855Y-37059999D01*
X11563855Y-37059999D02*
X11563855Y-37250475D01*
X11141950Y-51309523D02*
X11103855Y-51385713D01*
X11103855Y-51385713D02*
X11103855Y-51499999D01*
X11103855Y-51499999D02*
X11141950Y-51614285D01*
X11141950Y-51614285D02*
X11218140Y-51690475D01*
X11218140Y-51690475D02*
X11294331Y-51728570D01*
X11294331Y-51728570D02*
X11446712Y-51766666D01*
X11446712Y-51766666D02*
X11560998Y-51766666D01*
X11560998Y-51766666D02*
X11713379Y-51728570D01*
X11713379Y-51728570D02*
X11789569Y-51690475D01*
X11789569Y-51690475D02*
X11865760Y-51614285D01*
X11865760Y-51614285D02*
X11903855Y-51499999D01*
X11903855Y-51499999D02*
X11903855Y-51423808D01*
X11903855Y-51423808D02*
X11865760Y-51309523D01*
X11865760Y-51309523D02*
X11827664Y-51271427D01*
X11827664Y-51271427D02*
X11560998Y-51271427D01*
X11560998Y-51271427D02*
X11560998Y-51423808D01*
X11903855Y-50928570D02*
X11103855Y-50928570D01*
X11103855Y-50928570D02*
X11903855Y-50471427D01*
X11903855Y-50471427D02*
X11103855Y-50471427D01*
X11903855Y-50090475D02*
X11103855Y-50090475D01*
X11103855Y-50090475D02*
X11103855Y-49899999D01*
X11103855Y-49899999D02*
X11141950Y-49785713D01*
X11141950Y-49785713D02*
X11218140Y-49709523D01*
X11218140Y-49709523D02*
X11294331Y-49671428D01*
X11294331Y-49671428D02*
X11446712Y-49633332D01*
X11446712Y-49633332D02*
X11560998Y-49633332D01*
X11560998Y-49633332D02*
X11713379Y-49671428D01*
X11713379Y-49671428D02*
X11789569Y-49709523D01*
X11789569Y-49709523D02*
X11865760Y-49785713D01*
X11865760Y-49785713D02*
X11903855Y-49899999D01*
X11903855Y-49899999D02*
X11903855Y-50090475D01*
X14103855Y-21152381D02*
X14103855Y-21609524D01*
X14103855Y-21380952D02*
X13303855Y-21380952D01*
X13303855Y-21380952D02*
X13418140Y-21457143D01*
X13418140Y-21457143D02*
X13494331Y-21533333D01*
X13494331Y-21533333D02*
X13532426Y-21609524D01*
X13570521Y-20466666D02*
X14103855Y-20466666D01*
X13265760Y-20657142D02*
X13837188Y-20847619D01*
X13837188Y-20847619D02*
X13837188Y-20352380D01*
X14103855Y-38012381D02*
X14103855Y-38469524D01*
X14103855Y-38240952D02*
X13303855Y-38240952D01*
X13303855Y-38240952D02*
X13418140Y-38317143D01*
X13418140Y-38317143D02*
X13494331Y-38393333D01*
X13494331Y-38393333D02*
X13532426Y-38469524D01*
X14103855Y-37631428D02*
X14103855Y-37479047D01*
X14103855Y-37479047D02*
X14065760Y-37402857D01*
X14065760Y-37402857D02*
X14027664Y-37364761D01*
X14027664Y-37364761D02*
X13913379Y-37288571D01*
X13913379Y-37288571D02*
X13760998Y-37250476D01*
X13760998Y-37250476D02*
X13456236Y-37250476D01*
X13456236Y-37250476D02*
X13380045Y-37288571D01*
X13380045Y-37288571D02*
X13341950Y-37326666D01*
X13341950Y-37326666D02*
X13303855Y-37402857D01*
X13303855Y-37402857D02*
X13303855Y-37555238D01*
X13303855Y-37555238D02*
X13341950Y-37631428D01*
X13341950Y-37631428D02*
X13380045Y-37669523D01*
X13380045Y-37669523D02*
X13456236Y-37707619D01*
X13456236Y-37707619D02*
X13646712Y-37707619D01*
X13646712Y-37707619D02*
X13722902Y-37669523D01*
X13722902Y-37669523D02*
X13760998Y-37631428D01*
X13760998Y-37631428D02*
X13799093Y-37555238D01*
X13799093Y-37555238D02*
X13799093Y-37402857D01*
X13799093Y-37402857D02*
X13760998Y-37326666D01*
X13760998Y-37326666D02*
X13722902Y-37288571D01*
X13722902Y-37288571D02*
X13646712Y-37250476D01*
X14215283Y-50890476D02*
X14215283Y-50509523D01*
X14443855Y-50966666D02*
X13643855Y-50699999D01*
X13643855Y-50699999D02*
X14443855Y-50433333D01*
X16643855Y-21152381D02*
X16643855Y-21609524D01*
X16643855Y-21380952D02*
X15843855Y-21380952D01*
X15843855Y-21380952D02*
X15958140Y-21457143D01*
X15958140Y-21457143D02*
X16034331Y-21533333D01*
X16034331Y-21533333D02*
X16072426Y-21609524D01*
X15843855Y-20885714D02*
X15843855Y-20390476D01*
X15843855Y-20390476D02*
X16148617Y-20657142D01*
X16148617Y-20657142D02*
X16148617Y-20542857D01*
X16148617Y-20542857D02*
X16186712Y-20466666D01*
X16186712Y-20466666D02*
X16224807Y-20428571D01*
X16224807Y-20428571D02*
X16300998Y-20390476D01*
X16300998Y-20390476D02*
X16491474Y-20390476D01*
X16491474Y-20390476D02*
X16567664Y-20428571D01*
X16567664Y-20428571D02*
X16605760Y-20466666D01*
X16605760Y-20466666D02*
X16643855Y-20542857D01*
X16643855Y-20542857D02*
X16643855Y-20771428D01*
X16643855Y-20771428D02*
X16605760Y-20847619D01*
X16605760Y-20847619D02*
X16567664Y-20885714D01*
X15920045Y-38469524D02*
X15881950Y-38431428D01*
X15881950Y-38431428D02*
X15843855Y-38355238D01*
X15843855Y-38355238D02*
X15843855Y-38164762D01*
X15843855Y-38164762D02*
X15881950Y-38088571D01*
X15881950Y-38088571D02*
X15920045Y-38050476D01*
X15920045Y-38050476D02*
X15996236Y-38012381D01*
X15996236Y-38012381D02*
X16072426Y-38012381D01*
X16072426Y-38012381D02*
X16186712Y-38050476D01*
X16186712Y-38050476D02*
X16643855Y-38507619D01*
X16643855Y-38507619D02*
X16643855Y-38012381D01*
X15843855Y-37517142D02*
X15843855Y-37440952D01*
X15843855Y-37440952D02*
X15881950Y-37364761D01*
X15881950Y-37364761D02*
X15920045Y-37326666D01*
X15920045Y-37326666D02*
X15996236Y-37288571D01*
X15996236Y-37288571D02*
X16148617Y-37250476D01*
X16148617Y-37250476D02*
X16339093Y-37250476D01*
X16339093Y-37250476D02*
X16491474Y-37288571D01*
X16491474Y-37288571D02*
X16567664Y-37326666D01*
X16567664Y-37326666D02*
X16605760Y-37364761D01*
X16605760Y-37364761D02*
X16643855Y-37440952D01*
X16643855Y-37440952D02*
X16643855Y-37517142D01*
X16643855Y-37517142D02*
X16605760Y-37593333D01*
X16605760Y-37593333D02*
X16567664Y-37631428D01*
X16567664Y-37631428D02*
X16491474Y-37669523D01*
X16491474Y-37669523D02*
X16339093Y-37707619D01*
X16339093Y-37707619D02*
X16148617Y-37707619D01*
X16148617Y-37707619D02*
X15996236Y-37669523D01*
X15996236Y-37669523D02*
X15920045Y-37631428D01*
X15920045Y-37631428D02*
X15881950Y-37593333D01*
X15881950Y-37593333D02*
X15843855Y-37517142D01*
X16221950Y-51309523D02*
X16183855Y-51385713D01*
X16183855Y-51385713D02*
X16183855Y-51499999D01*
X16183855Y-51499999D02*
X16221950Y-51614285D01*
X16221950Y-51614285D02*
X16298140Y-51690475D01*
X16298140Y-51690475D02*
X16374331Y-51728570D01*
X16374331Y-51728570D02*
X16526712Y-51766666D01*
X16526712Y-51766666D02*
X16640998Y-51766666D01*
X16640998Y-51766666D02*
X16793379Y-51728570D01*
X16793379Y-51728570D02*
X16869569Y-51690475D01*
X16869569Y-51690475D02*
X16945760Y-51614285D01*
X16945760Y-51614285D02*
X16983855Y-51499999D01*
X16983855Y-51499999D02*
X16983855Y-51423808D01*
X16983855Y-51423808D02*
X16945760Y-51309523D01*
X16945760Y-51309523D02*
X16907664Y-51271427D01*
X16907664Y-51271427D02*
X16640998Y-51271427D01*
X16640998Y-51271427D02*
X16640998Y-51423808D01*
X16983855Y-50928570D02*
X16183855Y-50928570D01*
X16183855Y-50928570D02*
X16983855Y-50471427D01*
X16983855Y-50471427D02*
X16183855Y-50471427D01*
X16983855Y-50090475D02*
X16183855Y-50090475D01*
X16183855Y-50090475D02*
X16183855Y-49899999D01*
X16183855Y-49899999D02*
X16221950Y-49785713D01*
X16221950Y-49785713D02*
X16298140Y-49709523D01*
X16298140Y-49709523D02*
X16374331Y-49671428D01*
X16374331Y-49671428D02*
X16526712Y-49633332D01*
X16526712Y-49633332D02*
X16640998Y-49633332D01*
X16640998Y-49633332D02*
X16793379Y-49671428D01*
X16793379Y-49671428D02*
X16869569Y-49709523D01*
X16869569Y-49709523D02*
X16945760Y-49785713D01*
X16945760Y-49785713D02*
X16983855Y-49899999D01*
X16983855Y-49899999D02*
X16983855Y-50090475D01*
X19183855Y-21152381D02*
X19183855Y-21609524D01*
X19183855Y-21380952D02*
X18383855Y-21380952D01*
X18383855Y-21380952D02*
X18498140Y-21457143D01*
X18498140Y-21457143D02*
X18574331Y-21533333D01*
X18574331Y-21533333D02*
X18612426Y-21609524D01*
X18460045Y-20847619D02*
X18421950Y-20809523D01*
X18421950Y-20809523D02*
X18383855Y-20733333D01*
X18383855Y-20733333D02*
X18383855Y-20542857D01*
X18383855Y-20542857D02*
X18421950Y-20466666D01*
X18421950Y-20466666D02*
X18460045Y-20428571D01*
X18460045Y-20428571D02*
X18536236Y-20390476D01*
X18536236Y-20390476D02*
X18612426Y-20390476D01*
X18612426Y-20390476D02*
X18726712Y-20428571D01*
X18726712Y-20428571D02*
X19183855Y-20885714D01*
X19183855Y-20885714D02*
X19183855Y-20390476D01*
X18460045Y-38469524D02*
X18421950Y-38431428D01*
X18421950Y-38431428D02*
X18383855Y-38355238D01*
X18383855Y-38355238D02*
X18383855Y-38164762D01*
X18383855Y-38164762D02*
X18421950Y-38088571D01*
X18421950Y-38088571D02*
X18460045Y-38050476D01*
X18460045Y-38050476D02*
X18536236Y-38012381D01*
X18536236Y-38012381D02*
X18612426Y-38012381D01*
X18612426Y-38012381D02*
X18726712Y-38050476D01*
X18726712Y-38050476D02*
X19183855Y-38507619D01*
X19183855Y-38507619D02*
X19183855Y-38012381D01*
X19183855Y-37250476D02*
X19183855Y-37707619D01*
X19183855Y-37479047D02*
X18383855Y-37479047D01*
X18383855Y-37479047D02*
X18498140Y-37555238D01*
X18498140Y-37555238D02*
X18574331Y-37631428D01*
X18574331Y-37631428D02*
X18612426Y-37707619D01*
X19104807Y-50642857D02*
X19142902Y-50528571D01*
X19142902Y-50528571D02*
X19180998Y-50490476D01*
X19180998Y-50490476D02*
X19257188Y-50452380D01*
X19257188Y-50452380D02*
X19371474Y-50452380D01*
X19371474Y-50452380D02*
X19447664Y-50490476D01*
X19447664Y-50490476D02*
X19485760Y-50528571D01*
X19485760Y-50528571D02*
X19523855Y-50604761D01*
X19523855Y-50604761D02*
X19523855Y-50909523D01*
X19523855Y-50909523D02*
X18723855Y-50909523D01*
X18723855Y-50909523D02*
X18723855Y-50642857D01*
X18723855Y-50642857D02*
X18761950Y-50566666D01*
X18761950Y-50566666D02*
X18800045Y-50528571D01*
X18800045Y-50528571D02*
X18876236Y-50490476D01*
X18876236Y-50490476D02*
X18952426Y-50490476D01*
X18952426Y-50490476D02*
X19028617Y-50528571D01*
X19028617Y-50528571D02*
X19066712Y-50566666D01*
X19066712Y-50566666D02*
X19104807Y-50642857D01*
X19104807Y-50642857D02*
X19104807Y-50909523D01*
X21723855Y-21152381D02*
X21723855Y-21609524D01*
X21723855Y-21380952D02*
X20923855Y-21380952D01*
X20923855Y-21380952D02*
X21038140Y-21457143D01*
X21038140Y-21457143D02*
X21114331Y-21533333D01*
X21114331Y-21533333D02*
X21152426Y-21609524D01*
X21723855Y-20390476D02*
X21723855Y-20847619D01*
X21723855Y-20619047D02*
X20923855Y-20619047D01*
X20923855Y-20619047D02*
X21038140Y-20695238D01*
X21038140Y-20695238D02*
X21114331Y-20771428D01*
X21114331Y-20771428D02*
X21152426Y-20847619D01*
X21190521Y-38088571D02*
X21723855Y-38088571D01*
X20885760Y-38279047D02*
X21457188Y-38469524D01*
X21457188Y-38469524D02*
X21457188Y-37974285D01*
X20923855Y-37745714D02*
X20923855Y-37212380D01*
X20923855Y-37212380D02*
X21723855Y-37555238D01*
X21301950Y-51309523D02*
X21263855Y-51385713D01*
X21263855Y-51385713D02*
X21263855Y-51499999D01*
X21263855Y-51499999D02*
X21301950Y-51614285D01*
X21301950Y-51614285D02*
X21378140Y-51690475D01*
X21378140Y-51690475D02*
X21454331Y-51728570D01*
X21454331Y-51728570D02*
X21606712Y-51766666D01*
X21606712Y-51766666D02*
X21720998Y-51766666D01*
X21720998Y-51766666D02*
X21873379Y-51728570D01*
X21873379Y-51728570D02*
X21949569Y-51690475D01*
X21949569Y-51690475D02*
X22025760Y-51614285D01*
X22025760Y-51614285D02*
X22063855Y-51499999D01*
X22063855Y-51499999D02*
X22063855Y-51423808D01*
X22063855Y-51423808D02*
X22025760Y-51309523D01*
X22025760Y-51309523D02*
X21987664Y-51271427D01*
X21987664Y-51271427D02*
X21720998Y-51271427D01*
X21720998Y-51271427D02*
X21720998Y-51423808D01*
X22063855Y-50928570D02*
X21263855Y-50928570D01*
X21263855Y-50928570D02*
X22063855Y-50471427D01*
X22063855Y-50471427D02*
X21263855Y-50471427D01*
X22063855Y-50090475D02*
X21263855Y-50090475D01*
X21263855Y-50090475D02*
X21263855Y-49899999D01*
X21263855Y-49899999D02*
X21301950Y-49785713D01*
X21301950Y-49785713D02*
X21378140Y-49709523D01*
X21378140Y-49709523D02*
X21454331Y-49671428D01*
X21454331Y-49671428D02*
X21606712Y-49633332D01*
X21606712Y-49633332D02*
X21720998Y-49633332D01*
X21720998Y-49633332D02*
X21873379Y-49671428D01*
X21873379Y-49671428D02*
X21949569Y-49709523D01*
X21949569Y-49709523D02*
X22025760Y-49785713D01*
X22025760Y-49785713D02*
X22063855Y-49899999D01*
X22063855Y-49899999D02*
X22063855Y-50090475D01*
X24263855Y-21152381D02*
X24263855Y-21609524D01*
X24263855Y-21380952D02*
X23463855Y-21380952D01*
X23463855Y-21380952D02*
X23578140Y-21457143D01*
X23578140Y-21457143D02*
X23654331Y-21533333D01*
X23654331Y-21533333D02*
X23692426Y-21609524D01*
X23463855Y-20657142D02*
X23463855Y-20580952D01*
X23463855Y-20580952D02*
X23501950Y-20504761D01*
X23501950Y-20504761D02*
X23540045Y-20466666D01*
X23540045Y-20466666D02*
X23616236Y-20428571D01*
X23616236Y-20428571D02*
X23768617Y-20390476D01*
X23768617Y-20390476D02*
X23959093Y-20390476D01*
X23959093Y-20390476D02*
X24111474Y-20428571D01*
X24111474Y-20428571D02*
X24187664Y-20466666D01*
X24187664Y-20466666D02*
X24225760Y-20504761D01*
X24225760Y-20504761D02*
X24263855Y-20580952D01*
X24263855Y-20580952D02*
X24263855Y-20657142D01*
X24263855Y-20657142D02*
X24225760Y-20733333D01*
X24225760Y-20733333D02*
X24187664Y-20771428D01*
X24187664Y-20771428D02*
X24111474Y-20809523D01*
X24111474Y-20809523D02*
X23959093Y-20847619D01*
X23959093Y-20847619D02*
X23768617Y-20847619D01*
X23768617Y-20847619D02*
X23616236Y-20809523D01*
X23616236Y-20809523D02*
X23540045Y-20771428D01*
X23540045Y-20771428D02*
X23501950Y-20733333D01*
X23501950Y-20733333D02*
X23463855Y-20657142D01*
X23730521Y-38088571D02*
X24263855Y-38088571D01*
X23425760Y-38279047D02*
X23997188Y-38469524D01*
X23997188Y-38469524D02*
X23997188Y-37974285D01*
X23806712Y-37555238D02*
X23768617Y-37631428D01*
X23768617Y-37631428D02*
X23730521Y-37669523D01*
X23730521Y-37669523D02*
X23654331Y-37707619D01*
X23654331Y-37707619D02*
X23616236Y-37707619D01*
X23616236Y-37707619D02*
X23540045Y-37669523D01*
X23540045Y-37669523D02*
X23501950Y-37631428D01*
X23501950Y-37631428D02*
X23463855Y-37555238D01*
X23463855Y-37555238D02*
X23463855Y-37402857D01*
X23463855Y-37402857D02*
X23501950Y-37326666D01*
X23501950Y-37326666D02*
X23540045Y-37288571D01*
X23540045Y-37288571D02*
X23616236Y-37250476D01*
X23616236Y-37250476D02*
X23654331Y-37250476D01*
X23654331Y-37250476D02*
X23730521Y-37288571D01*
X23730521Y-37288571D02*
X23768617Y-37326666D01*
X23768617Y-37326666D02*
X23806712Y-37402857D01*
X23806712Y-37402857D02*
X23806712Y-37555238D01*
X23806712Y-37555238D02*
X23844807Y-37631428D01*
X23844807Y-37631428D02*
X23882902Y-37669523D01*
X23882902Y-37669523D02*
X23959093Y-37707619D01*
X23959093Y-37707619D02*
X24111474Y-37707619D01*
X24111474Y-37707619D02*
X24187664Y-37669523D01*
X24187664Y-37669523D02*
X24225760Y-37631428D01*
X24225760Y-37631428D02*
X24263855Y-37555238D01*
X24263855Y-37555238D02*
X24263855Y-37402857D01*
X24263855Y-37402857D02*
X24225760Y-37326666D01*
X24225760Y-37326666D02*
X24187664Y-37288571D01*
X24187664Y-37288571D02*
X24111474Y-37250476D01*
X24111474Y-37250476D02*
X23959093Y-37250476D01*
X23959093Y-37250476D02*
X23882902Y-37288571D01*
X23882902Y-37288571D02*
X23844807Y-37326666D01*
X23844807Y-37326666D02*
X23806712Y-37402857D01*
X26803855Y-21152380D02*
X26803855Y-20999999D01*
X26803855Y-20999999D02*
X26765760Y-20923809D01*
X26765760Y-20923809D02*
X26727664Y-20885713D01*
X26727664Y-20885713D02*
X26613379Y-20809523D01*
X26613379Y-20809523D02*
X26460998Y-20771428D01*
X26460998Y-20771428D02*
X26156236Y-20771428D01*
X26156236Y-20771428D02*
X26080045Y-20809523D01*
X26080045Y-20809523D02*
X26041950Y-20847618D01*
X26041950Y-20847618D02*
X26003855Y-20923809D01*
X26003855Y-20923809D02*
X26003855Y-21076190D01*
X26003855Y-21076190D02*
X26041950Y-21152380D01*
X26041950Y-21152380D02*
X26080045Y-21190475D01*
X26080045Y-21190475D02*
X26156236Y-21228571D01*
X26156236Y-21228571D02*
X26346712Y-21228571D01*
X26346712Y-21228571D02*
X26422902Y-21190475D01*
X26422902Y-21190475D02*
X26460998Y-21152380D01*
X26460998Y-21152380D02*
X26499093Y-21076190D01*
X26499093Y-21076190D02*
X26499093Y-20923809D01*
X26499093Y-20923809D02*
X26460998Y-20847618D01*
X26460998Y-20847618D02*
X26422902Y-20809523D01*
X26422902Y-20809523D02*
X26346712Y-20771428D01*
X26270521Y-38088571D02*
X26803855Y-38088571D01*
X25965760Y-38279047D02*
X26537188Y-38469524D01*
X26537188Y-38469524D02*
X26537188Y-37974285D01*
X26003855Y-37288571D02*
X26003855Y-37669523D01*
X26003855Y-37669523D02*
X26384807Y-37707619D01*
X26384807Y-37707619D02*
X26346712Y-37669523D01*
X26346712Y-37669523D02*
X26308617Y-37593333D01*
X26308617Y-37593333D02*
X26308617Y-37402857D01*
X26308617Y-37402857D02*
X26346712Y-37326666D01*
X26346712Y-37326666D02*
X26384807Y-37288571D01*
X26384807Y-37288571D02*
X26460998Y-37250476D01*
X26460998Y-37250476D02*
X26651474Y-37250476D01*
X26651474Y-37250476D02*
X26727664Y-37288571D01*
X26727664Y-37288571D02*
X26765760Y-37326666D01*
X26765760Y-37326666D02*
X26803855Y-37402857D01*
X26803855Y-37402857D02*
X26803855Y-37593333D01*
X26803855Y-37593333D02*
X26765760Y-37669523D01*
X26765760Y-37669523D02*
X26727664Y-37707619D01*
X28810521Y-21228571D02*
X29343855Y-21228571D01*
X28505760Y-21419047D02*
X29077188Y-21609524D01*
X29077188Y-21609524D02*
X29077188Y-21114285D01*
X28543855Y-20466666D02*
X28543855Y-20619047D01*
X28543855Y-20619047D02*
X28581950Y-20695238D01*
X28581950Y-20695238D02*
X28620045Y-20733333D01*
X28620045Y-20733333D02*
X28734331Y-20809523D01*
X28734331Y-20809523D02*
X28886712Y-20847619D01*
X28886712Y-20847619D02*
X29191474Y-20847619D01*
X29191474Y-20847619D02*
X29267664Y-20809523D01*
X29267664Y-20809523D02*
X29305760Y-20771428D01*
X29305760Y-20771428D02*
X29343855Y-20695238D01*
X29343855Y-20695238D02*
X29343855Y-20542857D01*
X29343855Y-20542857D02*
X29305760Y-20466666D01*
X29305760Y-20466666D02*
X29267664Y-20428571D01*
X29267664Y-20428571D02*
X29191474Y-20390476D01*
X29191474Y-20390476D02*
X29000998Y-20390476D01*
X29000998Y-20390476D02*
X28924807Y-20428571D01*
X28924807Y-20428571D02*
X28886712Y-20466666D01*
X28886712Y-20466666D02*
X28848617Y-20542857D01*
X28848617Y-20542857D02*
X28848617Y-20695238D01*
X28848617Y-20695238D02*
X28886712Y-20771428D01*
X28886712Y-20771428D02*
X28924807Y-20809523D01*
X28924807Y-20809523D02*
X29000998Y-20847619D01*
X28543855Y-37898094D02*
X28543855Y-37821904D01*
X28543855Y-37821904D02*
X28581950Y-37745713D01*
X28581950Y-37745713D02*
X28620045Y-37707618D01*
X28620045Y-37707618D02*
X28696236Y-37669523D01*
X28696236Y-37669523D02*
X28848617Y-37631428D01*
X28848617Y-37631428D02*
X29039093Y-37631428D01*
X29039093Y-37631428D02*
X29191474Y-37669523D01*
X29191474Y-37669523D02*
X29267664Y-37707618D01*
X29267664Y-37707618D02*
X29305760Y-37745713D01*
X29305760Y-37745713D02*
X29343855Y-37821904D01*
X29343855Y-37821904D02*
X29343855Y-37898094D01*
X29343855Y-37898094D02*
X29305760Y-37974285D01*
X29305760Y-37974285D02*
X29267664Y-38012380D01*
X29267664Y-38012380D02*
X29191474Y-38050475D01*
X29191474Y-38050475D02*
X29039093Y-38088571D01*
X29039093Y-38088571D02*
X28848617Y-38088571D01*
X28848617Y-38088571D02*
X28696236Y-38050475D01*
X28696236Y-38050475D02*
X28620045Y-38012380D01*
X28620045Y-38012380D02*
X28581950Y-37974285D01*
X28581950Y-37974285D02*
X28543855Y-37898094D01*
X31083855Y-21266666D02*
X31083855Y-20771428D01*
X31083855Y-20771428D02*
X31388617Y-21038094D01*
X31388617Y-21038094D02*
X31388617Y-20923809D01*
X31388617Y-20923809D02*
X31426712Y-20847618D01*
X31426712Y-20847618D02*
X31464807Y-20809523D01*
X31464807Y-20809523D02*
X31540998Y-20771428D01*
X31540998Y-20771428D02*
X31731474Y-20771428D01*
X31731474Y-20771428D02*
X31807664Y-20809523D01*
X31807664Y-20809523D02*
X31845760Y-20847618D01*
X31845760Y-20847618D02*
X31883855Y-20923809D01*
X31883855Y-20923809D02*
X31883855Y-21152380D01*
X31883855Y-21152380D02*
X31845760Y-21228571D01*
X31845760Y-21228571D02*
X31807664Y-21266666D01*
X31083855Y-38507619D02*
X31083855Y-38012381D01*
X31083855Y-38012381D02*
X31388617Y-38279047D01*
X31388617Y-38279047D02*
X31388617Y-38164762D01*
X31388617Y-38164762D02*
X31426712Y-38088571D01*
X31426712Y-38088571D02*
X31464807Y-38050476D01*
X31464807Y-38050476D02*
X31540998Y-38012381D01*
X31540998Y-38012381D02*
X31731474Y-38012381D01*
X31731474Y-38012381D02*
X31807664Y-38050476D01*
X31807664Y-38050476D02*
X31845760Y-38088571D01*
X31845760Y-38088571D02*
X31883855Y-38164762D01*
X31883855Y-38164762D02*
X31883855Y-38393333D01*
X31883855Y-38393333D02*
X31845760Y-38469524D01*
X31845760Y-38469524D02*
X31807664Y-38507619D01*
X31083855Y-37288571D02*
X31083855Y-37669523D01*
X31083855Y-37669523D02*
X31464807Y-37707619D01*
X31464807Y-37707619D02*
X31426712Y-37669523D01*
X31426712Y-37669523D02*
X31388617Y-37593333D01*
X31388617Y-37593333D02*
X31388617Y-37402857D01*
X31388617Y-37402857D02*
X31426712Y-37326666D01*
X31426712Y-37326666D02*
X31464807Y-37288571D01*
X31464807Y-37288571D02*
X31540998Y-37250476D01*
X31540998Y-37250476D02*
X31731474Y-37250476D01*
X31731474Y-37250476D02*
X31807664Y-37288571D01*
X31807664Y-37288571D02*
X31845760Y-37326666D01*
X31845760Y-37326666D02*
X31883855Y-37402857D01*
X31883855Y-37402857D02*
X31883855Y-37593333D01*
X31883855Y-37593333D02*
X31845760Y-37669523D01*
X31845760Y-37669523D02*
X31807664Y-37707619D01*
X33966712Y-21076190D02*
X33928617Y-21152380D01*
X33928617Y-21152380D02*
X33890521Y-21190475D01*
X33890521Y-21190475D02*
X33814331Y-21228571D01*
X33814331Y-21228571D02*
X33776236Y-21228571D01*
X33776236Y-21228571D02*
X33700045Y-21190475D01*
X33700045Y-21190475D02*
X33661950Y-21152380D01*
X33661950Y-21152380D02*
X33623855Y-21076190D01*
X33623855Y-21076190D02*
X33623855Y-20923809D01*
X33623855Y-20923809D02*
X33661950Y-20847618D01*
X33661950Y-20847618D02*
X33700045Y-20809523D01*
X33700045Y-20809523D02*
X33776236Y-20771428D01*
X33776236Y-20771428D02*
X33814331Y-20771428D01*
X33814331Y-20771428D02*
X33890521Y-20809523D01*
X33890521Y-20809523D02*
X33928617Y-20847618D01*
X33928617Y-20847618D02*
X33966712Y-20923809D01*
X33966712Y-20923809D02*
X33966712Y-21076190D01*
X33966712Y-21076190D02*
X34004807Y-21152380D01*
X34004807Y-21152380D02*
X34042902Y-21190475D01*
X34042902Y-21190475D02*
X34119093Y-21228571D01*
X34119093Y-21228571D02*
X34271474Y-21228571D01*
X34271474Y-21228571D02*
X34347664Y-21190475D01*
X34347664Y-21190475D02*
X34385760Y-21152380D01*
X34385760Y-21152380D02*
X34423855Y-21076190D01*
X34423855Y-21076190D02*
X34423855Y-20923809D01*
X34423855Y-20923809D02*
X34385760Y-20847618D01*
X34385760Y-20847618D02*
X34347664Y-20809523D01*
X34347664Y-20809523D02*
X34271474Y-20771428D01*
X34271474Y-20771428D02*
X34119093Y-20771428D01*
X34119093Y-20771428D02*
X34042902Y-20809523D01*
X34042902Y-20809523D02*
X34004807Y-20847618D01*
X34004807Y-20847618D02*
X33966712Y-20923809D01*
X33623855Y-38507619D02*
X33623855Y-38012381D01*
X33623855Y-38012381D02*
X33928617Y-38279047D01*
X33928617Y-38279047D02*
X33928617Y-38164762D01*
X33928617Y-38164762D02*
X33966712Y-38088571D01*
X33966712Y-38088571D02*
X34004807Y-38050476D01*
X34004807Y-38050476D02*
X34080998Y-38012381D01*
X34080998Y-38012381D02*
X34271474Y-38012381D01*
X34271474Y-38012381D02*
X34347664Y-38050476D01*
X34347664Y-38050476D02*
X34385760Y-38088571D01*
X34385760Y-38088571D02*
X34423855Y-38164762D01*
X34423855Y-38164762D02*
X34423855Y-38393333D01*
X34423855Y-38393333D02*
X34385760Y-38469524D01*
X34385760Y-38469524D02*
X34347664Y-38507619D01*
X33623855Y-37326666D02*
X33623855Y-37479047D01*
X33623855Y-37479047D02*
X33661950Y-37555238D01*
X33661950Y-37555238D02*
X33700045Y-37593333D01*
X33700045Y-37593333D02*
X33814331Y-37669523D01*
X33814331Y-37669523D02*
X33966712Y-37707619D01*
X33966712Y-37707619D02*
X34271474Y-37707619D01*
X34271474Y-37707619D02*
X34347664Y-37669523D01*
X34347664Y-37669523D02*
X34385760Y-37631428D01*
X34385760Y-37631428D02*
X34423855Y-37555238D01*
X34423855Y-37555238D02*
X34423855Y-37402857D01*
X34423855Y-37402857D02*
X34385760Y-37326666D01*
X34385760Y-37326666D02*
X34347664Y-37288571D01*
X34347664Y-37288571D02*
X34271474Y-37250476D01*
X34271474Y-37250476D02*
X34080998Y-37250476D01*
X34080998Y-37250476D02*
X34004807Y-37288571D01*
X34004807Y-37288571D02*
X33966712Y-37326666D01*
X33966712Y-37326666D02*
X33928617Y-37402857D01*
X33928617Y-37402857D02*
X33928617Y-37555238D01*
X33928617Y-37555238D02*
X33966712Y-37631428D01*
X33966712Y-37631428D02*
X34004807Y-37669523D01*
X34004807Y-37669523D02*
X34080998Y-37707619D01*
X36963855Y-21152381D02*
X36963855Y-21609524D01*
X36963855Y-21380952D02*
X36163855Y-21380952D01*
X36163855Y-21380952D02*
X36278140Y-21457143D01*
X36278140Y-21457143D02*
X36354331Y-21533333D01*
X36354331Y-21533333D02*
X36392426Y-21609524D01*
X36506712Y-20695238D02*
X36468617Y-20771428D01*
X36468617Y-20771428D02*
X36430521Y-20809523D01*
X36430521Y-20809523D02*
X36354331Y-20847619D01*
X36354331Y-20847619D02*
X36316236Y-20847619D01*
X36316236Y-20847619D02*
X36240045Y-20809523D01*
X36240045Y-20809523D02*
X36201950Y-20771428D01*
X36201950Y-20771428D02*
X36163855Y-20695238D01*
X36163855Y-20695238D02*
X36163855Y-20542857D01*
X36163855Y-20542857D02*
X36201950Y-20466666D01*
X36201950Y-20466666D02*
X36240045Y-20428571D01*
X36240045Y-20428571D02*
X36316236Y-20390476D01*
X36316236Y-20390476D02*
X36354331Y-20390476D01*
X36354331Y-20390476D02*
X36430521Y-20428571D01*
X36430521Y-20428571D02*
X36468617Y-20466666D01*
X36468617Y-20466666D02*
X36506712Y-20542857D01*
X36506712Y-20542857D02*
X36506712Y-20695238D01*
X36506712Y-20695238D02*
X36544807Y-20771428D01*
X36544807Y-20771428D02*
X36582902Y-20809523D01*
X36582902Y-20809523D02*
X36659093Y-20847619D01*
X36659093Y-20847619D02*
X36811474Y-20847619D01*
X36811474Y-20847619D02*
X36887664Y-20809523D01*
X36887664Y-20809523D02*
X36925760Y-20771428D01*
X36925760Y-20771428D02*
X36963855Y-20695238D01*
X36963855Y-20695238D02*
X36963855Y-20542857D01*
X36963855Y-20542857D02*
X36925760Y-20466666D01*
X36925760Y-20466666D02*
X36887664Y-20428571D01*
X36887664Y-20428571D02*
X36811474Y-20390476D01*
X36811474Y-20390476D02*
X36659093Y-20390476D01*
X36659093Y-20390476D02*
X36582902Y-20428571D01*
X36582902Y-20428571D02*
X36544807Y-20466666D01*
X36544807Y-20466666D02*
X36506712Y-20542857D01*
X36163855Y-38507619D02*
X36163855Y-38012381D01*
X36163855Y-38012381D02*
X36468617Y-38279047D01*
X36468617Y-38279047D02*
X36468617Y-38164762D01*
X36468617Y-38164762D02*
X36506712Y-38088571D01*
X36506712Y-38088571D02*
X36544807Y-38050476D01*
X36544807Y-38050476D02*
X36620998Y-38012381D01*
X36620998Y-38012381D02*
X36811474Y-38012381D01*
X36811474Y-38012381D02*
X36887664Y-38050476D01*
X36887664Y-38050476D02*
X36925760Y-38088571D01*
X36925760Y-38088571D02*
X36963855Y-38164762D01*
X36963855Y-38164762D02*
X36963855Y-38393333D01*
X36963855Y-38393333D02*
X36925760Y-38469524D01*
X36925760Y-38469524D02*
X36887664Y-38507619D01*
X36163855Y-37745714D02*
X36163855Y-37212380D01*
X36163855Y-37212380D02*
X36963855Y-37555238D01*
X39503855Y-21152381D02*
X39503855Y-21609524D01*
X39503855Y-21380952D02*
X38703855Y-21380952D01*
X38703855Y-21380952D02*
X38818140Y-21457143D01*
X38818140Y-21457143D02*
X38894331Y-21533333D01*
X38894331Y-21533333D02*
X38932426Y-21609524D01*
X38703855Y-20885714D02*
X38703855Y-20352380D01*
X38703855Y-20352380D02*
X39503855Y-20695238D01*
X38703855Y-38507619D02*
X38703855Y-38012381D01*
X38703855Y-38012381D02*
X39008617Y-38279047D01*
X39008617Y-38279047D02*
X39008617Y-38164762D01*
X39008617Y-38164762D02*
X39046712Y-38088571D01*
X39046712Y-38088571D02*
X39084807Y-38050476D01*
X39084807Y-38050476D02*
X39160998Y-38012381D01*
X39160998Y-38012381D02*
X39351474Y-38012381D01*
X39351474Y-38012381D02*
X39427664Y-38050476D01*
X39427664Y-38050476D02*
X39465760Y-38088571D01*
X39465760Y-38088571D02*
X39503855Y-38164762D01*
X39503855Y-38164762D02*
X39503855Y-38393333D01*
X39503855Y-38393333D02*
X39465760Y-38469524D01*
X39465760Y-38469524D02*
X39427664Y-38507619D01*
X39046712Y-37555238D02*
X39008617Y-37631428D01*
X39008617Y-37631428D02*
X38970521Y-37669523D01*
X38970521Y-37669523D02*
X38894331Y-37707619D01*
X38894331Y-37707619D02*
X38856236Y-37707619D01*
X38856236Y-37707619D02*
X38780045Y-37669523D01*
X38780045Y-37669523D02*
X38741950Y-37631428D01*
X38741950Y-37631428D02*
X38703855Y-37555238D01*
X38703855Y-37555238D02*
X38703855Y-37402857D01*
X38703855Y-37402857D02*
X38741950Y-37326666D01*
X38741950Y-37326666D02*
X38780045Y-37288571D01*
X38780045Y-37288571D02*
X38856236Y-37250476D01*
X38856236Y-37250476D02*
X38894331Y-37250476D01*
X38894331Y-37250476D02*
X38970521Y-37288571D01*
X38970521Y-37288571D02*
X39008617Y-37326666D01*
X39008617Y-37326666D02*
X39046712Y-37402857D01*
X39046712Y-37402857D02*
X39046712Y-37555238D01*
X39046712Y-37555238D02*
X39084807Y-37631428D01*
X39084807Y-37631428D02*
X39122902Y-37669523D01*
X39122902Y-37669523D02*
X39199093Y-37707619D01*
X39199093Y-37707619D02*
X39351474Y-37707619D01*
X39351474Y-37707619D02*
X39427664Y-37669523D01*
X39427664Y-37669523D02*
X39465760Y-37631428D01*
X39465760Y-37631428D02*
X39503855Y-37555238D01*
X39503855Y-37555238D02*
X39503855Y-37402857D01*
X39503855Y-37402857D02*
X39465760Y-37326666D01*
X39465760Y-37326666D02*
X39427664Y-37288571D01*
X39427664Y-37288571D02*
X39351474Y-37250476D01*
X39351474Y-37250476D02*
X39199093Y-37250476D01*
X39199093Y-37250476D02*
X39122902Y-37288571D01*
X39122902Y-37288571D02*
X39084807Y-37326666D01*
X39084807Y-37326666D02*
X39046712Y-37402857D01*
X42043855Y-21152381D02*
X42043855Y-21609524D01*
X42043855Y-21380952D02*
X41243855Y-21380952D01*
X41243855Y-21380952D02*
X41358140Y-21457143D01*
X41358140Y-21457143D02*
X41434331Y-21533333D01*
X41434331Y-21533333D02*
X41472426Y-21609524D01*
X41243855Y-20466666D02*
X41243855Y-20619047D01*
X41243855Y-20619047D02*
X41281950Y-20695238D01*
X41281950Y-20695238D02*
X41320045Y-20733333D01*
X41320045Y-20733333D02*
X41434331Y-20809523D01*
X41434331Y-20809523D02*
X41586712Y-20847619D01*
X41586712Y-20847619D02*
X41891474Y-20847619D01*
X41891474Y-20847619D02*
X41967664Y-20809523D01*
X41967664Y-20809523D02*
X42005760Y-20771428D01*
X42005760Y-20771428D02*
X42043855Y-20695238D01*
X42043855Y-20695238D02*
X42043855Y-20542857D01*
X42043855Y-20542857D02*
X42005760Y-20466666D01*
X42005760Y-20466666D02*
X41967664Y-20428571D01*
X41967664Y-20428571D02*
X41891474Y-20390476D01*
X41891474Y-20390476D02*
X41700998Y-20390476D01*
X41700998Y-20390476D02*
X41624807Y-20428571D01*
X41624807Y-20428571D02*
X41586712Y-20466666D01*
X41586712Y-20466666D02*
X41548617Y-20542857D01*
X41548617Y-20542857D02*
X41548617Y-20695238D01*
X41548617Y-20695238D02*
X41586712Y-20771428D01*
X41586712Y-20771428D02*
X41624807Y-20809523D01*
X41624807Y-20809523D02*
X41700998Y-20847619D01*
X41243855Y-38507619D02*
X41243855Y-38012381D01*
X41243855Y-38012381D02*
X41548617Y-38279047D01*
X41548617Y-38279047D02*
X41548617Y-38164762D01*
X41548617Y-38164762D02*
X41586712Y-38088571D01*
X41586712Y-38088571D02*
X41624807Y-38050476D01*
X41624807Y-38050476D02*
X41700998Y-38012381D01*
X41700998Y-38012381D02*
X41891474Y-38012381D01*
X41891474Y-38012381D02*
X41967664Y-38050476D01*
X41967664Y-38050476D02*
X42005760Y-38088571D01*
X42005760Y-38088571D02*
X42043855Y-38164762D01*
X42043855Y-38164762D02*
X42043855Y-38393333D01*
X42043855Y-38393333D02*
X42005760Y-38469524D01*
X42005760Y-38469524D02*
X41967664Y-38507619D01*
X42043855Y-37631428D02*
X42043855Y-37479047D01*
X42043855Y-37479047D02*
X42005760Y-37402857D01*
X42005760Y-37402857D02*
X41967664Y-37364761D01*
X41967664Y-37364761D02*
X41853379Y-37288571D01*
X41853379Y-37288571D02*
X41700998Y-37250476D01*
X41700998Y-37250476D02*
X41396236Y-37250476D01*
X41396236Y-37250476D02*
X41320045Y-37288571D01*
X41320045Y-37288571D02*
X41281950Y-37326666D01*
X41281950Y-37326666D02*
X41243855Y-37402857D01*
X41243855Y-37402857D02*
X41243855Y-37555238D01*
X41243855Y-37555238D02*
X41281950Y-37631428D01*
X41281950Y-37631428D02*
X41320045Y-37669523D01*
X41320045Y-37669523D02*
X41396236Y-37707619D01*
X41396236Y-37707619D02*
X41586712Y-37707619D01*
X41586712Y-37707619D02*
X41662902Y-37669523D01*
X41662902Y-37669523D02*
X41700998Y-37631428D01*
X41700998Y-37631428D02*
X41739093Y-37555238D01*
X41739093Y-37555238D02*
X41739093Y-37402857D01*
X41739093Y-37402857D02*
X41700998Y-37326666D01*
X41700998Y-37326666D02*
X41662902Y-37288571D01*
X41662902Y-37288571D02*
X41586712Y-37250476D01*
X44583855Y-21152381D02*
X44583855Y-21609524D01*
X44583855Y-21380952D02*
X43783855Y-21380952D01*
X43783855Y-21380952D02*
X43898140Y-21457143D01*
X43898140Y-21457143D02*
X43974331Y-21533333D01*
X43974331Y-21533333D02*
X44012426Y-21609524D01*
X43783855Y-20428571D02*
X43783855Y-20809523D01*
X43783855Y-20809523D02*
X44164807Y-20847619D01*
X44164807Y-20847619D02*
X44126712Y-20809523D01*
X44126712Y-20809523D02*
X44088617Y-20733333D01*
X44088617Y-20733333D02*
X44088617Y-20542857D01*
X44088617Y-20542857D02*
X44126712Y-20466666D01*
X44126712Y-20466666D02*
X44164807Y-20428571D01*
X44164807Y-20428571D02*
X44240998Y-20390476D01*
X44240998Y-20390476D02*
X44431474Y-20390476D01*
X44431474Y-20390476D02*
X44507664Y-20428571D01*
X44507664Y-20428571D02*
X44545760Y-20466666D01*
X44545760Y-20466666D02*
X44583855Y-20542857D01*
X44583855Y-20542857D02*
X44583855Y-20733333D01*
X44583855Y-20733333D02*
X44545760Y-20809523D01*
X44545760Y-20809523D02*
X44507664Y-20847619D01*
X44050521Y-38088571D02*
X44583855Y-38088571D01*
X43745760Y-38279047D02*
X44317188Y-38469524D01*
X44317188Y-38469524D02*
X44317188Y-37974285D01*
X43783855Y-37517142D02*
X43783855Y-37440952D01*
X43783855Y-37440952D02*
X43821950Y-37364761D01*
X43821950Y-37364761D02*
X43860045Y-37326666D01*
X43860045Y-37326666D02*
X43936236Y-37288571D01*
X43936236Y-37288571D02*
X44088617Y-37250476D01*
X44088617Y-37250476D02*
X44279093Y-37250476D01*
X44279093Y-37250476D02*
X44431474Y-37288571D01*
X44431474Y-37288571D02*
X44507664Y-37326666D01*
X44507664Y-37326666D02*
X44545760Y-37364761D01*
X44545760Y-37364761D02*
X44583855Y-37440952D01*
X44583855Y-37440952D02*
X44583855Y-37517142D01*
X44583855Y-37517142D02*
X44545760Y-37593333D01*
X44545760Y-37593333D02*
X44507664Y-37631428D01*
X44507664Y-37631428D02*
X44431474Y-37669523D01*
X44431474Y-37669523D02*
X44279093Y-37707619D01*
X44279093Y-37707619D02*
X44088617Y-37707619D01*
X44088617Y-37707619D02*
X43936236Y-37669523D01*
X43936236Y-37669523D02*
X43860045Y-37631428D01*
X43860045Y-37631428D02*
X43821950Y-37593333D01*
X43821950Y-37593333D02*
X43783855Y-37517142D01*
X46323855Y-21266666D02*
X46323855Y-20733332D01*
X46323855Y-20733332D02*
X47123855Y-21076190D01*
X46590521Y-38088571D02*
X47123855Y-38088571D01*
X46285760Y-38279047D02*
X46857188Y-38469524D01*
X46857188Y-38469524D02*
X46857188Y-37974285D01*
X47123855Y-37250476D02*
X47123855Y-37707619D01*
X47123855Y-37479047D02*
X46323855Y-37479047D01*
X46323855Y-37479047D02*
X46438140Y-37555238D01*
X46438140Y-37555238D02*
X46514331Y-37631428D01*
X46514331Y-37631428D02*
X46552426Y-37707619D01*
X48863855Y-20847618D02*
X48863855Y-20999999D01*
X48863855Y-20999999D02*
X48901950Y-21076190D01*
X48901950Y-21076190D02*
X48940045Y-21114285D01*
X48940045Y-21114285D02*
X49054331Y-21190475D01*
X49054331Y-21190475D02*
X49206712Y-21228571D01*
X49206712Y-21228571D02*
X49511474Y-21228571D01*
X49511474Y-21228571D02*
X49587664Y-21190475D01*
X49587664Y-21190475D02*
X49625760Y-21152380D01*
X49625760Y-21152380D02*
X49663855Y-21076190D01*
X49663855Y-21076190D02*
X49663855Y-20923809D01*
X49663855Y-20923809D02*
X49625760Y-20847618D01*
X49625760Y-20847618D02*
X49587664Y-20809523D01*
X49587664Y-20809523D02*
X49511474Y-20771428D01*
X49511474Y-20771428D02*
X49320998Y-20771428D01*
X49320998Y-20771428D02*
X49244807Y-20809523D01*
X49244807Y-20809523D02*
X49206712Y-20847618D01*
X49206712Y-20847618D02*
X49168617Y-20923809D01*
X49168617Y-20923809D02*
X49168617Y-21076190D01*
X49168617Y-21076190D02*
X49206712Y-21152380D01*
X49206712Y-21152380D02*
X49244807Y-21190475D01*
X49244807Y-21190475D02*
X49320998Y-21228571D01*
X49130521Y-38088571D02*
X49663855Y-38088571D01*
X48825760Y-38279047D02*
X49397188Y-38469524D01*
X49397188Y-38469524D02*
X49397188Y-37974285D01*
X48940045Y-37707619D02*
X48901950Y-37669523D01*
X48901950Y-37669523D02*
X48863855Y-37593333D01*
X48863855Y-37593333D02*
X48863855Y-37402857D01*
X48863855Y-37402857D02*
X48901950Y-37326666D01*
X48901950Y-37326666D02*
X48940045Y-37288571D01*
X48940045Y-37288571D02*
X49016236Y-37250476D01*
X49016236Y-37250476D02*
X49092426Y-37250476D01*
X49092426Y-37250476D02*
X49206712Y-37288571D01*
X49206712Y-37288571D02*
X49663855Y-37745714D01*
X49663855Y-37745714D02*
X49663855Y-37250476D01*
X51403855Y-20809523D02*
X51403855Y-21190475D01*
X51403855Y-21190475D02*
X51784807Y-21228571D01*
X51784807Y-21228571D02*
X51746712Y-21190475D01*
X51746712Y-21190475D02*
X51708617Y-21114285D01*
X51708617Y-21114285D02*
X51708617Y-20923809D01*
X51708617Y-20923809D02*
X51746712Y-20847618D01*
X51746712Y-20847618D02*
X51784807Y-20809523D01*
X51784807Y-20809523D02*
X51860998Y-20771428D01*
X51860998Y-20771428D02*
X52051474Y-20771428D01*
X52051474Y-20771428D02*
X52127664Y-20809523D01*
X52127664Y-20809523D02*
X52165760Y-20847618D01*
X52165760Y-20847618D02*
X52203855Y-20923809D01*
X52203855Y-20923809D02*
X52203855Y-21114285D01*
X52203855Y-21114285D02*
X52165760Y-21190475D01*
X52165760Y-21190475D02*
X52127664Y-21228571D01*
X51480045Y-38088571D02*
X51441950Y-38050475D01*
X51441950Y-38050475D02*
X51403855Y-37974285D01*
X51403855Y-37974285D02*
X51403855Y-37783809D01*
X51403855Y-37783809D02*
X51441950Y-37707618D01*
X51441950Y-37707618D02*
X51480045Y-37669523D01*
X51480045Y-37669523D02*
X51556236Y-37631428D01*
X51556236Y-37631428D02*
X51632426Y-37631428D01*
X51632426Y-37631428D02*
X51746712Y-37669523D01*
X51746712Y-37669523D02*
X52203855Y-38126666D01*
X52203855Y-38126666D02*
X52203855Y-37631428D01*
X54210521Y-20847618D02*
X54743855Y-20847618D01*
X53905760Y-21038094D02*
X54477188Y-21228571D01*
X54477188Y-21228571D02*
X54477188Y-20733332D01*
X54743855Y-37631428D02*
X54743855Y-38088571D01*
X54743855Y-37859999D02*
X53943855Y-37859999D01*
X53943855Y-37859999D02*
X54058140Y-37936190D01*
X54058140Y-37936190D02*
X54134331Y-38012380D01*
X54134331Y-38012380D02*
X54172426Y-38088571D01*
X54563855Y-50852380D02*
X54563855Y-51233332D01*
X54563855Y-51233332D02*
X54944807Y-51271428D01*
X54944807Y-51271428D02*
X54906712Y-51233332D01*
X54906712Y-51233332D02*
X54868617Y-51157142D01*
X54868617Y-51157142D02*
X54868617Y-50966666D01*
X54868617Y-50966666D02*
X54906712Y-50890475D01*
X54906712Y-50890475D02*
X54944807Y-50852380D01*
X54944807Y-50852380D02*
X55020998Y-50814285D01*
X55020998Y-50814285D02*
X55211474Y-50814285D01*
X55211474Y-50814285D02*
X55287664Y-50852380D01*
X55287664Y-50852380D02*
X55325760Y-50890475D01*
X55325760Y-50890475D02*
X55363855Y-50966666D01*
X55363855Y-50966666D02*
X55363855Y-51157142D01*
X55363855Y-51157142D02*
X55325760Y-51233332D01*
X55325760Y-51233332D02*
X55287664Y-51271428D01*
X54563855Y-50585713D02*
X55363855Y-50319046D01*
X55363855Y-50319046D02*
X54563855Y-50052380D01*
X57283855Y-21438094D02*
X56902902Y-21704761D01*
X57283855Y-21895237D02*
X56483855Y-21895237D01*
X56483855Y-21895237D02*
X56483855Y-21590475D01*
X56483855Y-21590475D02*
X56521950Y-21514285D01*
X56521950Y-21514285D02*
X56560045Y-21476190D01*
X56560045Y-21476190D02*
X56636236Y-21438094D01*
X56636236Y-21438094D02*
X56750521Y-21438094D01*
X56750521Y-21438094D02*
X56826712Y-21476190D01*
X56826712Y-21476190D02*
X56864807Y-21514285D01*
X56864807Y-21514285D02*
X56902902Y-21590475D01*
X56902902Y-21590475D02*
X56902902Y-21895237D01*
X57245760Y-21133333D02*
X57283855Y-21019047D01*
X57283855Y-21019047D02*
X57283855Y-20828571D01*
X57283855Y-20828571D02*
X57245760Y-20752380D01*
X57245760Y-20752380D02*
X57207664Y-20714285D01*
X57207664Y-20714285D02*
X57131474Y-20676190D01*
X57131474Y-20676190D02*
X57055283Y-20676190D01*
X57055283Y-20676190D02*
X56979093Y-20714285D01*
X56979093Y-20714285D02*
X56940998Y-20752380D01*
X56940998Y-20752380D02*
X56902902Y-20828571D01*
X56902902Y-20828571D02*
X56864807Y-20980952D01*
X56864807Y-20980952D02*
X56826712Y-21057142D01*
X56826712Y-21057142D02*
X56788617Y-21095237D01*
X56788617Y-21095237D02*
X56712426Y-21133333D01*
X56712426Y-21133333D02*
X56636236Y-21133333D01*
X56636236Y-21133333D02*
X56560045Y-21095237D01*
X56560045Y-21095237D02*
X56521950Y-21057142D01*
X56521950Y-21057142D02*
X56483855Y-20980952D01*
X56483855Y-20980952D02*
X56483855Y-20790475D01*
X56483855Y-20790475D02*
X56521950Y-20676190D01*
X56483855Y-20447618D02*
X56483855Y-19990475D01*
X57283855Y-20219047D02*
X56483855Y-20219047D01*
X57283855Y-37993332D02*
X56902902Y-38259999D01*
X57283855Y-38450475D02*
X56483855Y-38450475D01*
X56483855Y-38450475D02*
X56483855Y-38145713D01*
X56483855Y-38145713D02*
X56521950Y-38069523D01*
X56521950Y-38069523D02*
X56560045Y-38031428D01*
X56560045Y-38031428D02*
X56636236Y-37993332D01*
X56636236Y-37993332D02*
X56750521Y-37993332D01*
X56750521Y-37993332D02*
X56826712Y-38031428D01*
X56826712Y-38031428D02*
X56864807Y-38069523D01*
X56864807Y-38069523D02*
X56902902Y-38145713D01*
X56902902Y-38145713D02*
X56902902Y-38450475D01*
X56483855Y-37726666D02*
X57283855Y-37193332D01*
X56483855Y-37193332D02*
X57283855Y-37726666D01*
X57903855Y-51519046D02*
X57103855Y-51519046D01*
X57103855Y-51519046D02*
X57103855Y-51328570D01*
X57103855Y-51328570D02*
X57141950Y-51214284D01*
X57141950Y-51214284D02*
X57218140Y-51138094D01*
X57218140Y-51138094D02*
X57294331Y-51099999D01*
X57294331Y-51099999D02*
X57446712Y-51061903D01*
X57446712Y-51061903D02*
X57560998Y-51061903D01*
X57560998Y-51061903D02*
X57713379Y-51099999D01*
X57713379Y-51099999D02*
X57789569Y-51138094D01*
X57789569Y-51138094D02*
X57865760Y-51214284D01*
X57865760Y-51214284D02*
X57903855Y-51328570D01*
X57903855Y-51328570D02*
X57903855Y-51519046D01*
X57903855Y-50719046D02*
X57103855Y-50719046D01*
X57903855Y-50338094D02*
X57103855Y-50338094D01*
X57103855Y-50338094D02*
X57903855Y-49880951D01*
X57903855Y-49880951D02*
X57103855Y-49880951D01*
X59023855Y-21990476D02*
X59023855Y-21495238D01*
X59023855Y-21495238D02*
X59328617Y-21761904D01*
X59328617Y-21761904D02*
X59328617Y-21647619D01*
X59328617Y-21647619D02*
X59366712Y-21571428D01*
X59366712Y-21571428D02*
X59404807Y-21533333D01*
X59404807Y-21533333D02*
X59480998Y-21495238D01*
X59480998Y-21495238D02*
X59671474Y-21495238D01*
X59671474Y-21495238D02*
X59747664Y-21533333D01*
X59747664Y-21533333D02*
X59785760Y-21571428D01*
X59785760Y-21571428D02*
X59823855Y-21647619D01*
X59823855Y-21647619D02*
X59823855Y-21876190D01*
X59823855Y-21876190D02*
X59785760Y-21952381D01*
X59785760Y-21952381D02*
X59747664Y-21990476D01*
X59023855Y-21266666D02*
X59823855Y-20999999D01*
X59823855Y-20999999D02*
X59023855Y-20733333D01*
X59023855Y-20542857D02*
X59023855Y-20047619D01*
X59023855Y-20047619D02*
X59328617Y-20314285D01*
X59328617Y-20314285D02*
X59328617Y-20200000D01*
X59328617Y-20200000D02*
X59366712Y-20123809D01*
X59366712Y-20123809D02*
X59404807Y-20085714D01*
X59404807Y-20085714D02*
X59480998Y-20047619D01*
X59480998Y-20047619D02*
X59671474Y-20047619D01*
X59671474Y-20047619D02*
X59747664Y-20085714D01*
X59747664Y-20085714D02*
X59785760Y-20123809D01*
X59785760Y-20123809D02*
X59823855Y-20200000D01*
X59823855Y-20200000D02*
X59823855Y-20428571D01*
X59823855Y-20428571D02*
X59785760Y-20504762D01*
X59785760Y-20504762D02*
X59747664Y-20542857D01*
X59023855Y-38469523D02*
X59023855Y-38012380D01*
X59823855Y-38240952D02*
X59023855Y-38240952D01*
X59023855Y-37821904D02*
X59823855Y-37288570D01*
X59023855Y-37288570D02*
X59823855Y-37821904D01*
X59681950Y-51309523D02*
X59643855Y-51385713D01*
X59643855Y-51385713D02*
X59643855Y-51499999D01*
X59643855Y-51499999D02*
X59681950Y-51614285D01*
X59681950Y-51614285D02*
X59758140Y-51690475D01*
X59758140Y-51690475D02*
X59834331Y-51728570D01*
X59834331Y-51728570D02*
X59986712Y-51766666D01*
X59986712Y-51766666D02*
X60100998Y-51766666D01*
X60100998Y-51766666D02*
X60253379Y-51728570D01*
X60253379Y-51728570D02*
X60329569Y-51690475D01*
X60329569Y-51690475D02*
X60405760Y-51614285D01*
X60405760Y-51614285D02*
X60443855Y-51499999D01*
X60443855Y-51499999D02*
X60443855Y-51423808D01*
X60443855Y-51423808D02*
X60405760Y-51309523D01*
X60405760Y-51309523D02*
X60367664Y-51271427D01*
X60367664Y-51271427D02*
X60100998Y-51271427D01*
X60100998Y-51271427D02*
X60100998Y-51423808D01*
X60443855Y-50928570D02*
X59643855Y-50928570D01*
X59643855Y-50928570D02*
X60443855Y-50471427D01*
X60443855Y-50471427D02*
X59643855Y-50471427D01*
X60443855Y-50090475D02*
X59643855Y-50090475D01*
X59643855Y-50090475D02*
X59643855Y-49899999D01*
X59643855Y-49899999D02*
X59681950Y-49785713D01*
X59681950Y-49785713D02*
X59758140Y-49709523D01*
X59758140Y-49709523D02*
X59834331Y-49671428D01*
X59834331Y-49671428D02*
X59986712Y-49633332D01*
X59986712Y-49633332D02*
X60100998Y-49633332D01*
X60100998Y-49633332D02*
X60253379Y-49671428D01*
X60253379Y-49671428D02*
X60329569Y-49709523D01*
X60329569Y-49709523D02*
X60405760Y-49785713D01*
X60405760Y-49785713D02*
X60443855Y-49899999D01*
X60443855Y-49899999D02*
X60443855Y-50090475D01*
X61563855Y-21990476D02*
X61563855Y-21495238D01*
X61563855Y-21495238D02*
X61868617Y-21761904D01*
X61868617Y-21761904D02*
X61868617Y-21647619D01*
X61868617Y-21647619D02*
X61906712Y-21571428D01*
X61906712Y-21571428D02*
X61944807Y-21533333D01*
X61944807Y-21533333D02*
X62020998Y-21495238D01*
X62020998Y-21495238D02*
X62211474Y-21495238D01*
X62211474Y-21495238D02*
X62287664Y-21533333D01*
X62287664Y-21533333D02*
X62325760Y-21571428D01*
X62325760Y-21571428D02*
X62363855Y-21647619D01*
X62363855Y-21647619D02*
X62363855Y-21876190D01*
X62363855Y-21876190D02*
X62325760Y-21952381D01*
X62325760Y-21952381D02*
X62287664Y-21990476D01*
X61563855Y-21266666D02*
X62363855Y-20999999D01*
X62363855Y-20999999D02*
X61563855Y-20733333D01*
X61563855Y-20542857D02*
X61563855Y-20047619D01*
X61563855Y-20047619D02*
X61868617Y-20314285D01*
X61868617Y-20314285D02*
X61868617Y-20200000D01*
X61868617Y-20200000D02*
X61906712Y-20123809D01*
X61906712Y-20123809D02*
X61944807Y-20085714D01*
X61944807Y-20085714D02*
X62020998Y-20047619D01*
X62020998Y-20047619D02*
X62211474Y-20047619D01*
X62211474Y-20047619D02*
X62287664Y-20085714D01*
X62287664Y-20085714D02*
X62325760Y-20123809D01*
X62325760Y-20123809D02*
X62363855Y-20200000D01*
X62363855Y-20200000D02*
X62363855Y-20428571D01*
X62363855Y-20428571D02*
X62325760Y-20504762D01*
X62325760Y-20504762D02*
X62287664Y-20542857D01*
X61601950Y-38469523D02*
X61563855Y-38545713D01*
X61563855Y-38545713D02*
X61563855Y-38659999D01*
X61563855Y-38659999D02*
X61601950Y-38774285D01*
X61601950Y-38774285D02*
X61678140Y-38850475D01*
X61678140Y-38850475D02*
X61754331Y-38888570D01*
X61754331Y-38888570D02*
X61906712Y-38926666D01*
X61906712Y-38926666D02*
X62020998Y-38926666D01*
X62020998Y-38926666D02*
X62173379Y-38888570D01*
X62173379Y-38888570D02*
X62249569Y-38850475D01*
X62249569Y-38850475D02*
X62325760Y-38774285D01*
X62325760Y-38774285D02*
X62363855Y-38659999D01*
X62363855Y-38659999D02*
X62363855Y-38583808D01*
X62363855Y-38583808D02*
X62325760Y-38469523D01*
X62325760Y-38469523D02*
X62287664Y-38431427D01*
X62287664Y-38431427D02*
X62020998Y-38431427D01*
X62020998Y-38431427D02*
X62020998Y-38583808D01*
X62363855Y-38088570D02*
X61563855Y-38088570D01*
X61563855Y-38088570D02*
X62363855Y-37631427D01*
X62363855Y-37631427D02*
X61563855Y-37631427D01*
X62363855Y-37250475D02*
X61563855Y-37250475D01*
X61563855Y-37250475D02*
X61563855Y-37059999D01*
X61563855Y-37059999D02*
X61601950Y-36945713D01*
X61601950Y-36945713D02*
X61678140Y-36869523D01*
X61678140Y-36869523D02*
X61754331Y-36831428D01*
X61754331Y-36831428D02*
X61906712Y-36793332D01*
X61906712Y-36793332D02*
X62020998Y-36793332D01*
X62020998Y-36793332D02*
X62173379Y-36831428D01*
X62173379Y-36831428D02*
X62249569Y-36869523D01*
X62249569Y-36869523D02*
X62325760Y-36945713D01*
X62325760Y-36945713D02*
X62363855Y-37059999D01*
X62363855Y-37059999D02*
X62363855Y-37250475D01*
X63601950Y-51309523D02*
X63563855Y-51385713D01*
X63563855Y-51385713D02*
X63563855Y-51499999D01*
X63563855Y-51499999D02*
X63601950Y-51614285D01*
X63601950Y-51614285D02*
X63678140Y-51690475D01*
X63678140Y-51690475D02*
X63754331Y-51728570D01*
X63754331Y-51728570D02*
X63906712Y-51766666D01*
X63906712Y-51766666D02*
X64020998Y-51766666D01*
X64020998Y-51766666D02*
X64173379Y-51728570D01*
X64173379Y-51728570D02*
X64249569Y-51690475D01*
X64249569Y-51690475D02*
X64325760Y-51614285D01*
X64325760Y-51614285D02*
X64363855Y-51499999D01*
X64363855Y-51499999D02*
X64363855Y-51423808D01*
X64363855Y-51423808D02*
X64325760Y-51309523D01*
X64325760Y-51309523D02*
X64287664Y-51271427D01*
X64287664Y-51271427D02*
X64020998Y-51271427D01*
X64020998Y-51271427D02*
X64020998Y-51423808D01*
X64363855Y-50928570D02*
X63563855Y-50928570D01*
X63563855Y-50928570D02*
X64363855Y-50471427D01*
X64363855Y-50471427D02*
X63563855Y-50471427D01*
X64363855Y-50090475D02*
X63563855Y-50090475D01*
X63563855Y-50090475D02*
X63563855Y-49899999D01*
X63563855Y-49899999D02*
X63601950Y-49785713D01*
X63601950Y-49785713D02*
X63678140Y-49709523D01*
X63678140Y-49709523D02*
X63754331Y-49671428D01*
X63754331Y-49671428D02*
X63906712Y-49633332D01*
X63906712Y-49633332D02*
X64020998Y-49633332D01*
X64020998Y-49633332D02*
X64173379Y-49671428D01*
X64173379Y-49671428D02*
X64249569Y-49709523D01*
X64249569Y-49709523D02*
X64325760Y-49785713D01*
X64325760Y-49785713D02*
X64363855Y-49899999D01*
X64363855Y-49899999D02*
X64363855Y-50090475D01*
X66903855Y-51328570D02*
X66103855Y-51328570D01*
X66103855Y-51328570D02*
X66103855Y-51138094D01*
X66103855Y-51138094D02*
X66141950Y-51023808D01*
X66141950Y-51023808D02*
X66218140Y-50947618D01*
X66218140Y-50947618D02*
X66294331Y-50909523D01*
X66294331Y-50909523D02*
X66446712Y-50871427D01*
X66446712Y-50871427D02*
X66560998Y-50871427D01*
X66560998Y-50871427D02*
X66713379Y-50909523D01*
X66713379Y-50909523D02*
X66789569Y-50947618D01*
X66789569Y-50947618D02*
X66865760Y-51023808D01*
X66865760Y-51023808D02*
X66903855Y-51138094D01*
X66903855Y-51138094D02*
X66903855Y-51328570D01*
X66980045Y-49995237D02*
X66941950Y-50071427D01*
X66941950Y-50071427D02*
X66865760Y-50147618D01*
X66865760Y-50147618D02*
X66751474Y-50261904D01*
X66751474Y-50261904D02*
X66713379Y-50338094D01*
X66713379Y-50338094D02*
X66713379Y-50414285D01*
X66903855Y-50376189D02*
X66865760Y-50452380D01*
X66865760Y-50452380D02*
X66789569Y-50528570D01*
X66789569Y-50528570D02*
X66637188Y-50566666D01*
X66637188Y-50566666D02*
X66370521Y-50566666D01*
X66370521Y-50566666D02*
X66218140Y-50528570D01*
X66218140Y-50528570D02*
X66141950Y-50452380D01*
X66141950Y-50452380D02*
X66103855Y-50376189D01*
X66103855Y-50376189D02*
X66103855Y-50223808D01*
X66103855Y-50223808D02*
X66141950Y-50147618D01*
X66141950Y-50147618D02*
X66218140Y-50071427D01*
X66218140Y-50071427D02*
X66370521Y-50033332D01*
X66370521Y-50033332D02*
X66637188Y-50033332D01*
X66637188Y-50033332D02*
X66789569Y-50071427D01*
X66789569Y-50071427D02*
X66865760Y-50147618D01*
X66865760Y-50147618D02*
X66903855Y-50223808D01*
X66903855Y-50223808D02*
X66903855Y-50376189D01*
X68643855Y-51690476D02*
X68643855Y-51195238D01*
X68643855Y-51195238D02*
X68948617Y-51461904D01*
X68948617Y-51461904D02*
X68948617Y-51347619D01*
X68948617Y-51347619D02*
X68986712Y-51271428D01*
X68986712Y-51271428D02*
X69024807Y-51233333D01*
X69024807Y-51233333D02*
X69100998Y-51195238D01*
X69100998Y-51195238D02*
X69291474Y-51195238D01*
X69291474Y-51195238D02*
X69367664Y-51233333D01*
X69367664Y-51233333D02*
X69405760Y-51271428D01*
X69405760Y-51271428D02*
X69443855Y-51347619D01*
X69443855Y-51347619D02*
X69443855Y-51576190D01*
X69443855Y-51576190D02*
X69405760Y-51652381D01*
X69405760Y-51652381D02*
X69367664Y-51690476D01*
X68643855Y-50966666D02*
X69443855Y-50699999D01*
X69443855Y-50699999D02*
X68643855Y-50433333D01*
X68643855Y-50242857D02*
X68643855Y-49747619D01*
X68643855Y-49747619D02*
X68948617Y-50014285D01*
X68948617Y-50014285D02*
X68948617Y-49900000D01*
X68948617Y-49900000D02*
X68986712Y-49823809D01*
X68986712Y-49823809D02*
X69024807Y-49785714D01*
X69024807Y-49785714D02*
X69100998Y-49747619D01*
X69100998Y-49747619D02*
X69291474Y-49747619D01*
X69291474Y-49747619D02*
X69367664Y-49785714D01*
X69367664Y-49785714D02*
X69405760Y-49823809D01*
X69405760Y-49823809D02*
X69443855Y-49900000D01*
X69443855Y-49900000D02*
X69443855Y-50128571D01*
X69443855Y-50128571D02*
X69405760Y-50204762D01*
X69405760Y-50204762D02*
X69367664Y-50242857D01*
X72601950Y-51309523D02*
X72563855Y-51385713D01*
X72563855Y-51385713D02*
X72563855Y-51499999D01*
X72563855Y-51499999D02*
X72601950Y-51614285D01*
X72601950Y-51614285D02*
X72678140Y-51690475D01*
X72678140Y-51690475D02*
X72754331Y-51728570D01*
X72754331Y-51728570D02*
X72906712Y-51766666D01*
X72906712Y-51766666D02*
X73020998Y-51766666D01*
X73020998Y-51766666D02*
X73173379Y-51728570D01*
X73173379Y-51728570D02*
X73249569Y-51690475D01*
X73249569Y-51690475D02*
X73325760Y-51614285D01*
X73325760Y-51614285D02*
X73363855Y-51499999D01*
X73363855Y-51499999D02*
X73363855Y-51423808D01*
X73363855Y-51423808D02*
X73325760Y-51309523D01*
X73325760Y-51309523D02*
X73287664Y-51271427D01*
X73287664Y-51271427D02*
X73020998Y-51271427D01*
X73020998Y-51271427D02*
X73020998Y-51423808D01*
X73363855Y-50928570D02*
X72563855Y-50928570D01*
X72563855Y-50928570D02*
X73363855Y-50471427D01*
X73363855Y-50471427D02*
X72563855Y-50471427D01*
X73363855Y-50090475D02*
X72563855Y-50090475D01*
X72563855Y-50090475D02*
X72563855Y-49899999D01*
X72563855Y-49899999D02*
X72601950Y-49785713D01*
X72601950Y-49785713D02*
X72678140Y-49709523D01*
X72678140Y-49709523D02*
X72754331Y-49671428D01*
X72754331Y-49671428D02*
X72906712Y-49633332D01*
X72906712Y-49633332D02*
X73020998Y-49633332D01*
X73020998Y-49633332D02*
X73173379Y-49671428D01*
X73173379Y-49671428D02*
X73249569Y-49709523D01*
X73249569Y-49709523D02*
X73325760Y-49785713D01*
X73325760Y-49785713D02*
X73363855Y-49899999D01*
X73363855Y-49899999D02*
X73363855Y-50090475D01*
X75903855Y-51328570D02*
X75103855Y-51328570D01*
X75103855Y-51328570D02*
X75103855Y-51138094D01*
X75103855Y-51138094D02*
X75141950Y-51023808D01*
X75141950Y-51023808D02*
X75218140Y-50947618D01*
X75218140Y-50947618D02*
X75294331Y-50909523D01*
X75294331Y-50909523D02*
X75446712Y-50871427D01*
X75446712Y-50871427D02*
X75560998Y-50871427D01*
X75560998Y-50871427D02*
X75713379Y-50909523D01*
X75713379Y-50909523D02*
X75789569Y-50947618D01*
X75789569Y-50947618D02*
X75865760Y-51023808D01*
X75865760Y-51023808D02*
X75903855Y-51138094D01*
X75903855Y-51138094D02*
X75903855Y-51328570D01*
X75980045Y-49995237D02*
X75941950Y-50071427D01*
X75941950Y-50071427D02*
X75865760Y-50147618D01*
X75865760Y-50147618D02*
X75751474Y-50261904D01*
X75751474Y-50261904D02*
X75713379Y-50338094D01*
X75713379Y-50338094D02*
X75713379Y-50414285D01*
X75903855Y-50376189D02*
X75865760Y-50452380D01*
X75865760Y-50452380D02*
X75789569Y-50528570D01*
X75789569Y-50528570D02*
X75637188Y-50566666D01*
X75637188Y-50566666D02*
X75370521Y-50566666D01*
X75370521Y-50566666D02*
X75218140Y-50528570D01*
X75218140Y-50528570D02*
X75141950Y-50452380D01*
X75141950Y-50452380D02*
X75103855Y-50376189D01*
X75103855Y-50376189D02*
X75103855Y-50223808D01*
X75103855Y-50223808D02*
X75141950Y-50147618D01*
X75141950Y-50147618D02*
X75218140Y-50071427D01*
X75218140Y-50071427D02*
X75370521Y-50033332D01*
X75370521Y-50033332D02*
X75637188Y-50033332D01*
X75637188Y-50033332D02*
X75789569Y-50071427D01*
X75789569Y-50071427D02*
X75865760Y-50147618D01*
X75865760Y-50147618D02*
X75903855Y-50223808D01*
X75903855Y-50223808D02*
X75903855Y-50376189D01*
X77643855Y-51690476D02*
X77643855Y-51195238D01*
X77643855Y-51195238D02*
X77948617Y-51461904D01*
X77948617Y-51461904D02*
X77948617Y-51347619D01*
X77948617Y-51347619D02*
X77986712Y-51271428D01*
X77986712Y-51271428D02*
X78024807Y-51233333D01*
X78024807Y-51233333D02*
X78100998Y-51195238D01*
X78100998Y-51195238D02*
X78291474Y-51195238D01*
X78291474Y-51195238D02*
X78367664Y-51233333D01*
X78367664Y-51233333D02*
X78405760Y-51271428D01*
X78405760Y-51271428D02*
X78443855Y-51347619D01*
X78443855Y-51347619D02*
X78443855Y-51576190D01*
X78443855Y-51576190D02*
X78405760Y-51652381D01*
X78405760Y-51652381D02*
X78367664Y-51690476D01*
X77643855Y-50966666D02*
X78443855Y-50699999D01*
X78443855Y-50699999D02*
X77643855Y-50433333D01*
X77643855Y-50242857D02*
X77643855Y-49747619D01*
X77643855Y-49747619D02*
X77948617Y-50014285D01*
X77948617Y-50014285D02*
X77948617Y-49900000D01*
X77948617Y-49900000D02*
X77986712Y-49823809D01*
X77986712Y-49823809D02*
X78024807Y-49785714D01*
X78024807Y-49785714D02*
X78100998Y-49747619D01*
X78100998Y-49747619D02*
X78291474Y-49747619D01*
X78291474Y-49747619D02*
X78367664Y-49785714D01*
X78367664Y-49785714D02*
X78405760Y-49823809D01*
X78405760Y-49823809D02*
X78443855Y-49900000D01*
X78443855Y-49900000D02*
X78443855Y-50128571D01*
X78443855Y-50128571D02*
X78405760Y-50204762D01*
X78405760Y-50204762D02*
X78367664Y-50242857D01*
X81601950Y-51309523D02*
X81563855Y-51385713D01*
X81563855Y-51385713D02*
X81563855Y-51499999D01*
X81563855Y-51499999D02*
X81601950Y-51614285D01*
X81601950Y-51614285D02*
X81678140Y-51690475D01*
X81678140Y-51690475D02*
X81754331Y-51728570D01*
X81754331Y-51728570D02*
X81906712Y-51766666D01*
X81906712Y-51766666D02*
X82020998Y-51766666D01*
X82020998Y-51766666D02*
X82173379Y-51728570D01*
X82173379Y-51728570D02*
X82249569Y-51690475D01*
X82249569Y-51690475D02*
X82325760Y-51614285D01*
X82325760Y-51614285D02*
X82363855Y-51499999D01*
X82363855Y-51499999D02*
X82363855Y-51423808D01*
X82363855Y-51423808D02*
X82325760Y-51309523D01*
X82325760Y-51309523D02*
X82287664Y-51271427D01*
X82287664Y-51271427D02*
X82020998Y-51271427D01*
X82020998Y-51271427D02*
X82020998Y-51423808D01*
X82363855Y-50928570D02*
X81563855Y-50928570D01*
X81563855Y-50928570D02*
X82363855Y-50471427D01*
X82363855Y-50471427D02*
X81563855Y-50471427D01*
X82363855Y-50090475D02*
X81563855Y-50090475D01*
X81563855Y-50090475D02*
X81563855Y-49899999D01*
X81563855Y-49899999D02*
X81601950Y-49785713D01*
X81601950Y-49785713D02*
X81678140Y-49709523D01*
X81678140Y-49709523D02*
X81754331Y-49671428D01*
X81754331Y-49671428D02*
X81906712Y-49633332D01*
X81906712Y-49633332D02*
X82020998Y-49633332D01*
X82020998Y-49633332D02*
X82173379Y-49671428D01*
X82173379Y-49671428D02*
X82249569Y-49709523D01*
X82249569Y-49709523D02*
X82325760Y-49785713D01*
X82325760Y-49785713D02*
X82363855Y-49899999D01*
X82363855Y-49899999D02*
X82363855Y-50090475D01*
X84903855Y-51195238D02*
X84903855Y-51652381D01*
X84903855Y-51423809D02*
X84103855Y-51423809D01*
X84103855Y-51423809D02*
X84218140Y-51500000D01*
X84218140Y-51500000D02*
X84294331Y-51576190D01*
X84294331Y-51576190D02*
X84332426Y-51652381D01*
X84180045Y-50890476D02*
X84141950Y-50852380D01*
X84141950Y-50852380D02*
X84103855Y-50776190D01*
X84103855Y-50776190D02*
X84103855Y-50585714D01*
X84103855Y-50585714D02*
X84141950Y-50509523D01*
X84141950Y-50509523D02*
X84180045Y-50471428D01*
X84180045Y-50471428D02*
X84256236Y-50433333D01*
X84256236Y-50433333D02*
X84332426Y-50433333D01*
X84332426Y-50433333D02*
X84446712Y-50471428D01*
X84446712Y-50471428D02*
X84903855Y-50928571D01*
X84903855Y-50928571D02*
X84903855Y-50433333D01*
X84103855Y-50204761D02*
X84903855Y-49938094D01*
X84903855Y-49938094D02*
X84103855Y-49671428D01*
X86643855Y-51671428D02*
X86643855Y-51214285D01*
X87443855Y-51442857D02*
X86643855Y-51442857D01*
X87215283Y-50985714D02*
X87215283Y-50604761D01*
X87443855Y-51061904D02*
X86643855Y-50795237D01*
X86643855Y-50795237D02*
X87443855Y-50528571D01*
X87367664Y-49804761D02*
X87405760Y-49842857D01*
X87405760Y-49842857D02*
X87443855Y-49957142D01*
X87443855Y-49957142D02*
X87443855Y-50033333D01*
X87443855Y-50033333D02*
X87405760Y-50147619D01*
X87405760Y-50147619D02*
X87329569Y-50223809D01*
X87329569Y-50223809D02*
X87253379Y-50261904D01*
X87253379Y-50261904D02*
X87100998Y-50300000D01*
X87100998Y-50300000D02*
X86986712Y-50300000D01*
X86986712Y-50300000D02*
X86834331Y-50261904D01*
X86834331Y-50261904D02*
X86758140Y-50223809D01*
X86758140Y-50223809D02*
X86681950Y-50147619D01*
X86681950Y-50147619D02*
X86643855Y-50033333D01*
X86643855Y-50033333D02*
X86643855Y-49957142D01*
X86643855Y-49957142D02*
X86681950Y-49842857D01*
X86681950Y-49842857D02*
X86720045Y-49804761D01*
X89983855Y-51823809D02*
X89183855Y-51823809D01*
X89183855Y-51823809D02*
X89183855Y-51519047D01*
X89183855Y-51519047D02*
X89221950Y-51442857D01*
X89221950Y-51442857D02*
X89260045Y-51404762D01*
X89260045Y-51404762D02*
X89336236Y-51366666D01*
X89336236Y-51366666D02*
X89450521Y-51366666D01*
X89450521Y-51366666D02*
X89526712Y-51404762D01*
X89526712Y-51404762D02*
X89564807Y-51442857D01*
X89564807Y-51442857D02*
X89602902Y-51519047D01*
X89602902Y-51519047D02*
X89602902Y-51823809D01*
X89183855Y-51100000D02*
X89983855Y-50909524D01*
X89983855Y-50909524D02*
X89412426Y-50757143D01*
X89412426Y-50757143D02*
X89983855Y-50604762D01*
X89983855Y-50604762D02*
X89183855Y-50414286D01*
X89983855Y-50109523D02*
X89183855Y-50109523D01*
X89183855Y-50109523D02*
X89755283Y-49842857D01*
X89755283Y-49842857D02*
X89183855Y-49576190D01*
X89183855Y-49576190D02*
X89983855Y-49576190D01*
D11*
X24935713Y-1651934D02*
X25364285Y-1651934D01*
X24849999Y-1909077D02*
X25149999Y-1009077D01*
X25149999Y-1009077D02*
X25449999Y-1909077D01*
X25621428Y-1009077D02*
X26135714Y-1009077D01*
X25878571Y-1909077D02*
X25878571Y-1009077D01*
X26349999Y-1009077D02*
X26949999Y-1909077D01*
X26949999Y-1009077D02*
X26349999Y-1909077D01*
X27935713Y-1094791D02*
X27978570Y-1051934D01*
X27978570Y-1051934D02*
X28064285Y-1009077D01*
X28064285Y-1009077D02*
X28278570Y-1009077D01*
X28278570Y-1009077D02*
X28364285Y-1051934D01*
X28364285Y-1051934D02*
X28407142Y-1094791D01*
X28407142Y-1094791D02*
X28449999Y-1180505D01*
X28449999Y-1180505D02*
X28449999Y-1266220D01*
X28449999Y-1266220D02*
X28407142Y-1394791D01*
X28407142Y-1394791D02*
X27892856Y-1909077D01*
X27892856Y-1909077D02*
X28449999Y-1909077D01*
X29221428Y-1309077D02*
X29221428Y-1909077D01*
X29007142Y-966220D02*
X28792856Y-1609077D01*
X28792856Y-1609077D02*
X29349999Y-1609077D01*
X29692856Y-1566220D02*
X30378571Y-1566220D01*
X30807142Y-1309077D02*
X30807142Y-2209077D01*
X30807142Y-1351934D02*
X30892857Y-1309077D01*
X30892857Y-1309077D02*
X31064285Y-1309077D01*
X31064285Y-1309077D02*
X31149999Y-1351934D01*
X31149999Y-1351934D02*
X31192857Y-1394791D01*
X31192857Y-1394791D02*
X31235714Y-1480505D01*
X31235714Y-1480505D02*
X31235714Y-1737648D01*
X31235714Y-1737648D02*
X31192857Y-1823362D01*
X31192857Y-1823362D02*
X31149999Y-1866220D01*
X31149999Y-1866220D02*
X31064285Y-1909077D01*
X31064285Y-1909077D02*
X30892857Y-1909077D01*
X30892857Y-1909077D02*
X30807142Y-1866220D01*
X31621428Y-1909077D02*
X31621428Y-1309077D01*
X31621428Y-1009077D02*
X31578571Y-1051934D01*
X31578571Y-1051934D02*
X31621428Y-1094791D01*
X31621428Y-1094791D02*
X31664285Y-1051934D01*
X31664285Y-1051934D02*
X31621428Y-1009077D01*
X31621428Y-1009077D02*
X31621428Y-1094791D01*
X32049999Y-1309077D02*
X32049999Y-1909077D01*
X32049999Y-1394791D02*
X32092856Y-1351934D01*
X32092856Y-1351934D02*
X32178571Y-1309077D01*
X32178571Y-1309077D02*
X32307142Y-1309077D01*
X32307142Y-1309077D02*
X32392856Y-1351934D01*
X32392856Y-1351934D02*
X32435714Y-1437648D01*
X32435714Y-1437648D02*
X32435714Y-1909077D01*
X34921428Y-1309077D02*
X34235713Y-1566220D01*
X34235713Y-1566220D02*
X34921428Y-1823362D01*
X35349999Y-1566220D02*
X36035714Y-1566220D01*
X37149999Y-1909077D02*
X37149999Y-1009077D01*
X37149999Y-1009077D02*
X37492856Y-1009077D01*
X37492856Y-1009077D02*
X37578571Y-1051934D01*
X37578571Y-1051934D02*
X37621428Y-1094791D01*
X37621428Y-1094791D02*
X37664285Y-1180505D01*
X37664285Y-1180505D02*
X37664285Y-1309077D01*
X37664285Y-1309077D02*
X37621428Y-1394791D01*
X37621428Y-1394791D02*
X37578571Y-1437648D01*
X37578571Y-1437648D02*
X37492856Y-1480505D01*
X37492856Y-1480505D02*
X37149999Y-1480505D01*
X38007142Y-1866220D02*
X38135714Y-1909077D01*
X38135714Y-1909077D02*
X38349999Y-1909077D01*
X38349999Y-1909077D02*
X38435714Y-1866220D01*
X38435714Y-1866220D02*
X38478571Y-1823362D01*
X38478571Y-1823362D02*
X38521428Y-1737648D01*
X38521428Y-1737648D02*
X38521428Y-1651934D01*
X38521428Y-1651934D02*
X38478571Y-1566220D01*
X38478571Y-1566220D02*
X38435714Y-1523362D01*
X38435714Y-1523362D02*
X38349999Y-1480505D01*
X38349999Y-1480505D02*
X38178571Y-1437648D01*
X38178571Y-1437648D02*
X38092856Y-1394791D01*
X38092856Y-1394791D02*
X38049999Y-1351934D01*
X38049999Y-1351934D02*
X38007142Y-1266220D01*
X38007142Y-1266220D02*
X38007142Y-1180505D01*
X38007142Y-1180505D02*
X38049999Y-1094791D01*
X38049999Y-1094791D02*
X38092856Y-1051934D01*
X38092856Y-1051934D02*
X38178571Y-1009077D01*
X38178571Y-1009077D02*
X38392856Y-1009077D01*
X38392856Y-1009077D02*
X38521428Y-1051934D01*
X38907142Y-1009077D02*
X38907142Y-1737648D01*
X38907142Y-1737648D02*
X38949999Y-1823362D01*
X38949999Y-1823362D02*
X38992857Y-1866220D01*
X38992857Y-1866220D02*
X39078571Y-1909077D01*
X39078571Y-1909077D02*
X39249999Y-1909077D01*
X39249999Y-1909077D02*
X39335714Y-1866220D01*
X39335714Y-1866220D02*
X39378571Y-1823362D01*
X39378571Y-1823362D02*
X39421428Y-1737648D01*
X39421428Y-1737648D02*
X39421428Y-1009077D01*
X40535713Y-1309077D02*
X40535713Y-2209077D01*
X40535713Y-1351934D02*
X40621428Y-1309077D01*
X40621428Y-1309077D02*
X40792856Y-1309077D01*
X40792856Y-1309077D02*
X40878570Y-1351934D01*
X40878570Y-1351934D02*
X40921428Y-1394791D01*
X40921428Y-1394791D02*
X40964285Y-1480505D01*
X40964285Y-1480505D02*
X40964285Y-1737648D01*
X40964285Y-1737648D02*
X40921428Y-1823362D01*
X40921428Y-1823362D02*
X40878570Y-1866220D01*
X40878570Y-1866220D02*
X40792856Y-1909077D01*
X40792856Y-1909077D02*
X40621428Y-1909077D01*
X40621428Y-1909077D02*
X40535713Y-1866220D01*
X41478571Y-1909077D02*
X41392856Y-1866220D01*
X41392856Y-1866220D02*
X41349999Y-1780505D01*
X41349999Y-1780505D02*
X41349999Y-1009077D01*
X42207143Y-1309077D02*
X42207143Y-1909077D01*
X41821428Y-1309077D02*
X41821428Y-1780505D01*
X41821428Y-1780505D02*
X41864285Y-1866220D01*
X41864285Y-1866220D02*
X41950000Y-1909077D01*
X41950000Y-1909077D02*
X42078571Y-1909077D01*
X42078571Y-1909077D02*
X42164285Y-1866220D01*
X42164285Y-1866220D02*
X42207143Y-1823362D01*
X43021429Y-1309077D02*
X43021429Y-2037648D01*
X43021429Y-2037648D02*
X42978571Y-2123362D01*
X42978571Y-2123362D02*
X42935714Y-2166220D01*
X42935714Y-2166220D02*
X42850000Y-2209077D01*
X42850000Y-2209077D02*
X42721429Y-2209077D01*
X42721429Y-2209077D02*
X42635714Y-2166220D01*
X43021429Y-1866220D02*
X42935714Y-1909077D01*
X42935714Y-1909077D02*
X42764286Y-1909077D01*
X42764286Y-1909077D02*
X42678571Y-1866220D01*
X42678571Y-1866220D02*
X42635714Y-1823362D01*
X42635714Y-1823362D02*
X42592857Y-1737648D01*
X42592857Y-1737648D02*
X42592857Y-1480505D01*
X42592857Y-1480505D02*
X42635714Y-1394791D01*
X42635714Y-1394791D02*
X42678571Y-1351934D01*
X42678571Y-1351934D02*
X42764286Y-1309077D01*
X42764286Y-1309077D02*
X42935714Y-1309077D01*
X42935714Y-1309077D02*
X43021429Y-1351934D01*
D12*
X13328571Y-58054819D02*
X13328571Y-57054819D01*
X13328571Y-57054819D02*
X13709523Y-57054819D01*
X13709523Y-57054819D02*
X13804761Y-57102438D01*
X13804761Y-57102438D02*
X13852380Y-57150057D01*
X13852380Y-57150057D02*
X13899999Y-57245295D01*
X13899999Y-57245295D02*
X13899999Y-57388152D01*
X13899999Y-57388152D02*
X13852380Y-57483390D01*
X13852380Y-57483390D02*
X13804761Y-57531009D01*
X13804761Y-57531009D02*
X13709523Y-57578628D01*
X13709523Y-57578628D02*
X13328571Y-57578628D01*
X14280952Y-57769104D02*
X14757142Y-57769104D01*
X14185714Y-58054819D02*
X14519047Y-57054819D01*
X14519047Y-57054819D02*
X14852380Y-58054819D01*
X15185714Y-58054819D02*
X15185714Y-57054819D01*
X15185714Y-57054819D02*
X15757142Y-58054819D01*
X15757142Y-58054819D02*
X15757142Y-57054819D01*
X16233333Y-57531009D02*
X16566666Y-57531009D01*
X16709523Y-58054819D02*
X16233333Y-58054819D01*
X16233333Y-58054819D02*
X16233333Y-57054819D01*
X16233333Y-57054819D02*
X16709523Y-57054819D01*
X17614285Y-58054819D02*
X17138095Y-58054819D01*
X17138095Y-58054819D02*
X17138095Y-57054819D01*
X26916667Y-45854819D02*
X26916667Y-44854819D01*
X26916667Y-44854819D02*
X27297619Y-44854819D01*
X27297619Y-44854819D02*
X27392857Y-44902438D01*
X27392857Y-44902438D02*
X27440476Y-44950057D01*
X27440476Y-44950057D02*
X27488095Y-45045295D01*
X27488095Y-45045295D02*
X27488095Y-45188152D01*
X27488095Y-45188152D02*
X27440476Y-45283390D01*
X27440476Y-45283390D02*
X27392857Y-45331009D01*
X27392857Y-45331009D02*
X27297619Y-45378628D01*
X27297619Y-45378628D02*
X26916667Y-45378628D01*
X27821429Y-44854819D02*
X28059524Y-45854819D01*
X28059524Y-45854819D02*
X28250000Y-45140533D01*
X28250000Y-45140533D02*
X28440476Y-45854819D01*
X28440476Y-45854819D02*
X28678572Y-44854819D01*
X29630952Y-45854819D02*
X29297619Y-45378628D01*
X29059524Y-45854819D02*
X29059524Y-44854819D01*
X29059524Y-44854819D02*
X29440476Y-44854819D01*
X29440476Y-44854819D02*
X29535714Y-44902438D01*
X29535714Y-44902438D02*
X29583333Y-44950057D01*
X29583333Y-44950057D02*
X29630952Y-45045295D01*
X29630952Y-45045295D02*
X29630952Y-45188152D01*
X29630952Y-45188152D02*
X29583333Y-45283390D01*
X29583333Y-45283390D02*
X29535714Y-45331009D01*
X29535714Y-45331009D02*
X29440476Y-45378628D01*
X29440476Y-45378628D02*
X29059524Y-45378628D01*
X19785712Y-43431009D02*
X19928569Y-43478628D01*
X19928569Y-43478628D02*
X19976188Y-43526247D01*
X19976188Y-43526247D02*
X20023807Y-43621485D01*
X20023807Y-43621485D02*
X20023807Y-43764342D01*
X20023807Y-43764342D02*
X19976188Y-43859580D01*
X19976188Y-43859580D02*
X19928569Y-43907200D01*
X19928569Y-43907200D02*
X19833331Y-43954819D01*
X19833331Y-43954819D02*
X19452379Y-43954819D01*
X19452379Y-43954819D02*
X19452379Y-42954819D01*
X19452379Y-42954819D02*
X19785712Y-42954819D01*
X19785712Y-42954819D02*
X19880950Y-43002438D01*
X19880950Y-43002438D02*
X19928569Y-43050057D01*
X19928569Y-43050057D02*
X19976188Y-43145295D01*
X19976188Y-43145295D02*
X19976188Y-43240533D01*
X19976188Y-43240533D02*
X19928569Y-43335771D01*
X19928569Y-43335771D02*
X19880950Y-43383390D01*
X19880950Y-43383390D02*
X19785712Y-43431009D01*
X19785712Y-43431009D02*
X19452379Y-43431009D01*
X21023807Y-43859580D02*
X20976188Y-43907200D01*
X20976188Y-43907200D02*
X20833331Y-43954819D01*
X20833331Y-43954819D02*
X20738093Y-43954819D01*
X20738093Y-43954819D02*
X20595236Y-43907200D01*
X20595236Y-43907200D02*
X20499998Y-43811961D01*
X20499998Y-43811961D02*
X20452379Y-43716723D01*
X20452379Y-43716723D02*
X20404760Y-43526247D01*
X20404760Y-43526247D02*
X20404760Y-43383390D01*
X20404760Y-43383390D02*
X20452379Y-43192914D01*
X20452379Y-43192914D02*
X20499998Y-43097676D01*
X20499998Y-43097676D02*
X20595236Y-43002438D01*
X20595236Y-43002438D02*
X20738093Y-42954819D01*
X20738093Y-42954819D02*
X20833331Y-42954819D01*
X20833331Y-42954819D02*
X20976188Y-43002438D01*
X20976188Y-43002438D02*
X21023807Y-43050057D01*
X21404760Y-43050057D02*
X21452379Y-43002438D01*
X21452379Y-43002438D02*
X21547617Y-42954819D01*
X21547617Y-42954819D02*
X21785712Y-42954819D01*
X21785712Y-42954819D02*
X21880950Y-43002438D01*
X21880950Y-43002438D02*
X21928569Y-43050057D01*
X21928569Y-43050057D02*
X21976188Y-43145295D01*
X21976188Y-43145295D02*
X21976188Y-43240533D01*
X21976188Y-43240533D02*
X21928569Y-43383390D01*
X21928569Y-43383390D02*
X21357141Y-43954819D01*
X21357141Y-43954819D02*
X21976188Y-43954819D01*
X22880950Y-42954819D02*
X22404760Y-42954819D01*
X22404760Y-42954819D02*
X22357141Y-43431009D01*
X22357141Y-43431009D02*
X22404760Y-43383390D01*
X22404760Y-43383390D02*
X22499998Y-43335771D01*
X22499998Y-43335771D02*
X22738093Y-43335771D01*
X22738093Y-43335771D02*
X22833331Y-43383390D01*
X22833331Y-43383390D02*
X22880950Y-43431009D01*
X22880950Y-43431009D02*
X22928569Y-43526247D01*
X22928569Y-43526247D02*
X22928569Y-43764342D01*
X22928569Y-43764342D02*
X22880950Y-43859580D01*
X22880950Y-43859580D02*
X22833331Y-43907200D01*
X22833331Y-43907200D02*
X22738093Y-43954819D01*
X22738093Y-43954819D02*
X22499998Y-43954819D01*
X22499998Y-43954819D02*
X22404760Y-43907200D01*
X22404760Y-43907200D02*
X22357141Y-43859580D01*
X23547617Y-42954819D02*
X23642855Y-42954819D01*
X23642855Y-42954819D02*
X23738093Y-43002438D01*
X23738093Y-43002438D02*
X23785712Y-43050057D01*
X23785712Y-43050057D02*
X23833331Y-43145295D01*
X23833331Y-43145295D02*
X23880950Y-43335771D01*
X23880950Y-43335771D02*
X23880950Y-43573866D01*
X23880950Y-43573866D02*
X23833331Y-43764342D01*
X23833331Y-43764342D02*
X23785712Y-43859580D01*
X23785712Y-43859580D02*
X23738093Y-43907200D01*
X23738093Y-43907200D02*
X23642855Y-43954819D01*
X23642855Y-43954819D02*
X23547617Y-43954819D01*
X23547617Y-43954819D02*
X23452379Y-43907200D01*
X23452379Y-43907200D02*
X23404760Y-43859580D01*
X23404760Y-43859580D02*
X23357141Y-43764342D01*
X23357141Y-43764342D02*
X23309522Y-43573866D01*
X23309522Y-43573866D02*
X23309522Y-43335771D01*
X23309522Y-43335771D02*
X23357141Y-43145295D01*
X23357141Y-43145295D02*
X23404760Y-43050057D01*
X23404760Y-43050057D02*
X23452379Y-43002438D01*
X23452379Y-43002438D02*
X23547617Y-42954819D01*
X25404760Y-43431009D02*
X25071427Y-43431009D01*
X25071427Y-43954819D02*
X25071427Y-42954819D01*
X25071427Y-42954819D02*
X25547617Y-42954819D01*
X25928570Y-43954819D02*
X25928570Y-43288152D01*
X25928570Y-43478628D02*
X25976189Y-43383390D01*
X25976189Y-43383390D02*
X26023808Y-43335771D01*
X26023808Y-43335771D02*
X26119046Y-43288152D01*
X26119046Y-43288152D02*
X26214284Y-43288152D01*
X26690475Y-43954819D02*
X26595237Y-43907200D01*
X26595237Y-43907200D02*
X26547618Y-43859580D01*
X26547618Y-43859580D02*
X26499999Y-43764342D01*
X26499999Y-43764342D02*
X26499999Y-43478628D01*
X26499999Y-43478628D02*
X26547618Y-43383390D01*
X26547618Y-43383390D02*
X26595237Y-43335771D01*
X26595237Y-43335771D02*
X26690475Y-43288152D01*
X26690475Y-43288152D02*
X26833332Y-43288152D01*
X26833332Y-43288152D02*
X26928570Y-43335771D01*
X26928570Y-43335771D02*
X26976189Y-43383390D01*
X26976189Y-43383390D02*
X27023808Y-43478628D01*
X27023808Y-43478628D02*
X27023808Y-43764342D01*
X27023808Y-43764342D02*
X26976189Y-43859580D01*
X26976189Y-43859580D02*
X26928570Y-43907200D01*
X26928570Y-43907200D02*
X26833332Y-43954819D01*
X26833332Y-43954819D02*
X26690475Y-43954819D01*
X27452380Y-43288152D02*
X27452380Y-43954819D01*
X27452380Y-43383390D02*
X27499999Y-43335771D01*
X27499999Y-43335771D02*
X27595237Y-43288152D01*
X27595237Y-43288152D02*
X27738094Y-43288152D01*
X27738094Y-43288152D02*
X27833332Y-43335771D01*
X27833332Y-43335771D02*
X27880951Y-43431009D01*
X27880951Y-43431009D02*
X27880951Y-43954819D01*
X28214285Y-43288152D02*
X28595237Y-43288152D01*
X28357142Y-42954819D02*
X28357142Y-43811961D01*
X28357142Y-43811961D02*
X28404761Y-43907200D01*
X28404761Y-43907200D02*
X28499999Y-43954819D01*
X28499999Y-43954819D02*
X28595237Y-43954819D01*
X30261904Y-43859580D02*
X30214285Y-43907200D01*
X30214285Y-43907200D02*
X30071428Y-43954819D01*
X30071428Y-43954819D02*
X29976190Y-43954819D01*
X29976190Y-43954819D02*
X29833333Y-43907200D01*
X29833333Y-43907200D02*
X29738095Y-43811961D01*
X29738095Y-43811961D02*
X29690476Y-43716723D01*
X29690476Y-43716723D02*
X29642857Y-43526247D01*
X29642857Y-43526247D02*
X29642857Y-43383390D01*
X29642857Y-43383390D02*
X29690476Y-43192914D01*
X29690476Y-43192914D02*
X29738095Y-43097676D01*
X29738095Y-43097676D02*
X29833333Y-43002438D01*
X29833333Y-43002438D02*
X29976190Y-42954819D01*
X29976190Y-42954819D02*
X30071428Y-42954819D01*
X30071428Y-42954819D02*
X30214285Y-43002438D01*
X30214285Y-43002438D02*
X30261904Y-43050057D01*
X30833333Y-43954819D02*
X30738095Y-43907200D01*
X30738095Y-43907200D02*
X30690476Y-43859580D01*
X30690476Y-43859580D02*
X30642857Y-43764342D01*
X30642857Y-43764342D02*
X30642857Y-43478628D01*
X30642857Y-43478628D02*
X30690476Y-43383390D01*
X30690476Y-43383390D02*
X30738095Y-43335771D01*
X30738095Y-43335771D02*
X30833333Y-43288152D01*
X30833333Y-43288152D02*
X30976190Y-43288152D01*
X30976190Y-43288152D02*
X31071428Y-43335771D01*
X31071428Y-43335771D02*
X31119047Y-43383390D01*
X31119047Y-43383390D02*
X31166666Y-43478628D01*
X31166666Y-43478628D02*
X31166666Y-43764342D01*
X31166666Y-43764342D02*
X31119047Y-43859580D01*
X31119047Y-43859580D02*
X31071428Y-43907200D01*
X31071428Y-43907200D02*
X30976190Y-43954819D01*
X30976190Y-43954819D02*
X30833333Y-43954819D01*
X31595238Y-43288152D02*
X31595238Y-43954819D01*
X31595238Y-43383390D02*
X31642857Y-43335771D01*
X31642857Y-43335771D02*
X31738095Y-43288152D01*
X31738095Y-43288152D02*
X31880952Y-43288152D01*
X31880952Y-43288152D02*
X31976190Y-43335771D01*
X31976190Y-43335771D02*
X32023809Y-43431009D01*
X32023809Y-43431009D02*
X32023809Y-43954819D01*
X32357143Y-43288152D02*
X32738095Y-43288152D01*
X32500000Y-42954819D02*
X32500000Y-43811961D01*
X32500000Y-43811961D02*
X32547619Y-43907200D01*
X32547619Y-43907200D02*
X32642857Y-43954819D01*
X32642857Y-43954819D02*
X32738095Y-43954819D01*
X33071429Y-43954819D02*
X33071429Y-43288152D01*
X33071429Y-43478628D02*
X33119048Y-43383390D01*
X33119048Y-43383390D02*
X33166667Y-43335771D01*
X33166667Y-43335771D02*
X33261905Y-43288152D01*
X33261905Y-43288152D02*
X33357143Y-43288152D01*
X33833334Y-43954819D02*
X33738096Y-43907200D01*
X33738096Y-43907200D02*
X33690477Y-43859580D01*
X33690477Y-43859580D02*
X33642858Y-43764342D01*
X33642858Y-43764342D02*
X33642858Y-43478628D01*
X33642858Y-43478628D02*
X33690477Y-43383390D01*
X33690477Y-43383390D02*
X33738096Y-43335771D01*
X33738096Y-43335771D02*
X33833334Y-43288152D01*
X33833334Y-43288152D02*
X33976191Y-43288152D01*
X33976191Y-43288152D02*
X34071429Y-43335771D01*
X34071429Y-43335771D02*
X34119048Y-43383390D01*
X34119048Y-43383390D02*
X34166667Y-43478628D01*
X34166667Y-43478628D02*
X34166667Y-43764342D01*
X34166667Y-43764342D02*
X34119048Y-43859580D01*
X34119048Y-43859580D02*
X34071429Y-43907200D01*
X34071429Y-43907200D02*
X33976191Y-43954819D01*
X33976191Y-43954819D02*
X33833334Y-43954819D01*
X34738096Y-43954819D02*
X34642858Y-43907200D01*
X34642858Y-43907200D02*
X34595239Y-43811961D01*
X34595239Y-43811961D02*
X34595239Y-42954819D01*
X35261906Y-43954819D02*
X35166668Y-43907200D01*
X35166668Y-43907200D02*
X35119049Y-43811961D01*
X35119049Y-43811961D02*
X35119049Y-42954819D01*
X36023811Y-43907200D02*
X35928573Y-43954819D01*
X35928573Y-43954819D02*
X35738097Y-43954819D01*
X35738097Y-43954819D02*
X35642859Y-43907200D01*
X35642859Y-43907200D02*
X35595240Y-43811961D01*
X35595240Y-43811961D02*
X35595240Y-43431009D01*
X35595240Y-43431009D02*
X35642859Y-43335771D01*
X35642859Y-43335771D02*
X35738097Y-43288152D01*
X35738097Y-43288152D02*
X35928573Y-43288152D01*
X35928573Y-43288152D02*
X36023811Y-43335771D01*
X36023811Y-43335771D02*
X36071430Y-43431009D01*
X36071430Y-43431009D02*
X36071430Y-43526247D01*
X36071430Y-43526247D02*
X35595240Y-43621485D01*
X36500002Y-43954819D02*
X36500002Y-43288152D01*
X36500002Y-43478628D02*
X36547621Y-43383390D01*
X36547621Y-43383390D02*
X36595240Y-43335771D01*
X36595240Y-43335771D02*
X36690478Y-43288152D01*
X36690478Y-43288152D02*
X36785716Y-43288152D01*
X37785717Y-43288152D02*
X38023812Y-43954819D01*
X38023812Y-43954819D02*
X38261907Y-43288152D01*
X39166669Y-43954819D02*
X38595241Y-43954819D01*
X38880955Y-43954819D02*
X38880955Y-42954819D01*
X38880955Y-42954819D02*
X38785717Y-43097676D01*
X38785717Y-43097676D02*
X38690479Y-43192914D01*
X38690479Y-43192914D02*
X38595241Y-43240533D01*
X39595241Y-43859580D02*
X39642860Y-43907200D01*
X39642860Y-43907200D02*
X39595241Y-43954819D01*
X39595241Y-43954819D02*
X39547622Y-43907200D01*
X39547622Y-43907200D02*
X39595241Y-43859580D01*
X39595241Y-43859580D02*
X39595241Y-43954819D01*
X40261907Y-42954819D02*
X40357145Y-42954819D01*
X40357145Y-42954819D02*
X40452383Y-43002438D01*
X40452383Y-43002438D02*
X40500002Y-43050057D01*
X40500002Y-43050057D02*
X40547621Y-43145295D01*
X40547621Y-43145295D02*
X40595240Y-43335771D01*
X40595240Y-43335771D02*
X40595240Y-43573866D01*
X40595240Y-43573866D02*
X40547621Y-43764342D01*
X40547621Y-43764342D02*
X40500002Y-43859580D01*
X40500002Y-43859580D02*
X40452383Y-43907200D01*
X40452383Y-43907200D02*
X40357145Y-43954819D01*
X40357145Y-43954819D02*
X40261907Y-43954819D01*
X40261907Y-43954819D02*
X40166669Y-43907200D01*
X40166669Y-43907200D02*
X40119050Y-43859580D01*
X40119050Y-43859580D02*
X40071431Y-43764342D01*
X40071431Y-43764342D02*
X40023812Y-43573866D01*
X40023812Y-43573866D02*
X40023812Y-43335771D01*
X40023812Y-43335771D02*
X40071431Y-43145295D01*
X40071431Y-43145295D02*
X40119050Y-43050057D01*
X40119050Y-43050057D02*
X40166669Y-43002438D01*
X40166669Y-43002438D02*
X40261907Y-42954819D01*
X38011905Y-45569104D02*
X38488095Y-45569104D01*
X37916667Y-45854819D02*
X38250000Y-44854819D01*
X38250000Y-44854819D02*
X38583333Y-45854819D01*
X48321428Y-45331009D02*
X48464285Y-45378628D01*
X48464285Y-45378628D02*
X48511904Y-45426247D01*
X48511904Y-45426247D02*
X48559523Y-45521485D01*
X48559523Y-45521485D02*
X48559523Y-45664342D01*
X48559523Y-45664342D02*
X48511904Y-45759580D01*
X48511904Y-45759580D02*
X48464285Y-45807200D01*
X48464285Y-45807200D02*
X48369047Y-45854819D01*
X48369047Y-45854819D02*
X47988095Y-45854819D01*
X47988095Y-45854819D02*
X47988095Y-44854819D01*
X47988095Y-44854819D02*
X48321428Y-44854819D01*
X48321428Y-44854819D02*
X48416666Y-44902438D01*
X48416666Y-44902438D02*
X48464285Y-44950057D01*
X48464285Y-44950057D02*
X48511904Y-45045295D01*
X48511904Y-45045295D02*
X48511904Y-45140533D01*
X48511904Y-45140533D02*
X48464285Y-45235771D01*
X48464285Y-45235771D02*
X48416666Y-45283390D01*
X48416666Y-45283390D02*
X48321428Y-45331009D01*
X48321428Y-45331009D02*
X47988095Y-45331009D01*
X56897142Y-58054819D02*
X56420952Y-58054819D01*
X56420952Y-58054819D02*
X56420952Y-57054819D01*
X57230476Y-57531009D02*
X57563809Y-57531009D01*
X57706666Y-58054819D02*
X57230476Y-58054819D01*
X57230476Y-58054819D02*
X57230476Y-57054819D01*
X57230476Y-57054819D02*
X57706666Y-57054819D01*
X58135238Y-58054819D02*
X58135238Y-57054819D01*
X58135238Y-57054819D02*
X58373333Y-57054819D01*
X58373333Y-57054819D02*
X58516190Y-57102438D01*
X58516190Y-57102438D02*
X58611428Y-57197676D01*
X58611428Y-57197676D02*
X58659047Y-57292914D01*
X58659047Y-57292914D02*
X58706666Y-57483390D01*
X58706666Y-57483390D02*
X58706666Y-57626247D01*
X58706666Y-57626247D02*
X58659047Y-57816723D01*
X58659047Y-57816723D02*
X58611428Y-57911961D01*
X58611428Y-57911961D02*
X58516190Y-58007200D01*
X58516190Y-58007200D02*
X58373333Y-58054819D01*
X58373333Y-58054819D02*
X58135238Y-58054819D01*
X63873333Y-57054819D02*
X64444761Y-57054819D01*
X64159047Y-58054819D02*
X64159047Y-57054819D01*
X65301904Y-58054819D02*
X64730476Y-58054819D01*
X65016190Y-58054819D02*
X65016190Y-57054819D01*
X65016190Y-57054819D02*
X64920952Y-57197676D01*
X64920952Y-57197676D02*
X64825714Y-57292914D01*
X64825714Y-57292914D02*
X64730476Y-57340533D01*
X67016190Y-57102438D02*
X66920952Y-57054819D01*
X66920952Y-57054819D02*
X66778095Y-57054819D01*
X66778095Y-57054819D02*
X66635238Y-57102438D01*
X66635238Y-57102438D02*
X66540000Y-57197676D01*
X66540000Y-57197676D02*
X66492381Y-57292914D01*
X66492381Y-57292914D02*
X66444762Y-57483390D01*
X66444762Y-57483390D02*
X66444762Y-57626247D01*
X66444762Y-57626247D02*
X66492381Y-57816723D01*
X66492381Y-57816723D02*
X66540000Y-57911961D01*
X66540000Y-57911961D02*
X66635238Y-58007200D01*
X66635238Y-58007200D02*
X66778095Y-58054819D01*
X66778095Y-58054819D02*
X66873333Y-58054819D01*
X66873333Y-58054819D02*
X67016190Y-58007200D01*
X67016190Y-58007200D02*
X67063809Y-57959580D01*
X67063809Y-57959580D02*
X67063809Y-57626247D01*
X67063809Y-57626247D02*
X66873333Y-57626247D01*
X67492381Y-58054819D02*
X67492381Y-57054819D01*
X67492381Y-57054819D02*
X67873333Y-57054819D01*
X67873333Y-57054819D02*
X67968571Y-57102438D01*
X67968571Y-57102438D02*
X68016190Y-57150057D01*
X68016190Y-57150057D02*
X68063809Y-57245295D01*
X68063809Y-57245295D02*
X68063809Y-57388152D01*
X68063809Y-57388152D02*
X68016190Y-57483390D01*
X68016190Y-57483390D02*
X67968571Y-57531009D01*
X67968571Y-57531009D02*
X67873333Y-57578628D01*
X67873333Y-57578628D02*
X67492381Y-57578628D01*
X68492381Y-57054819D02*
X68492381Y-57864342D01*
X68492381Y-57864342D02*
X68540000Y-57959580D01*
X68540000Y-57959580D02*
X68587619Y-58007200D01*
X68587619Y-58007200D02*
X68682857Y-58054819D01*
X68682857Y-58054819D02*
X68873333Y-58054819D01*
X68873333Y-58054819D02*
X68968571Y-58007200D01*
X68968571Y-58007200D02*
X69016190Y-57959580D01*
X69016190Y-57959580D02*
X69063809Y-57864342D01*
X69063809Y-57864342D02*
X69063809Y-57054819D01*
X72540000Y-57054819D02*
X73111428Y-57054819D01*
X72825714Y-58054819D02*
X72825714Y-57054819D01*
X73397143Y-57150057D02*
X73444762Y-57102438D01*
X73444762Y-57102438D02*
X73540000Y-57054819D01*
X73540000Y-57054819D02*
X73778095Y-57054819D01*
X73778095Y-57054819D02*
X73873333Y-57102438D01*
X73873333Y-57102438D02*
X73920952Y-57150057D01*
X73920952Y-57150057D02*
X73968571Y-57245295D01*
X73968571Y-57245295D02*
X73968571Y-57340533D01*
X73968571Y-57340533D02*
X73920952Y-57483390D01*
X73920952Y-57483390D02*
X73349524Y-58054819D01*
X73349524Y-58054819D02*
X73968571Y-58054819D01*
X75730476Y-57959580D02*
X75682857Y-58007200D01*
X75682857Y-58007200D02*
X75540000Y-58054819D01*
X75540000Y-58054819D02*
X75444762Y-58054819D01*
X75444762Y-58054819D02*
X75301905Y-58007200D01*
X75301905Y-58007200D02*
X75206667Y-57911961D01*
X75206667Y-57911961D02*
X75159048Y-57816723D01*
X75159048Y-57816723D02*
X75111429Y-57626247D01*
X75111429Y-57626247D02*
X75111429Y-57483390D01*
X75111429Y-57483390D02*
X75159048Y-57292914D01*
X75159048Y-57292914D02*
X75206667Y-57197676D01*
X75206667Y-57197676D02*
X75301905Y-57102438D01*
X75301905Y-57102438D02*
X75444762Y-57054819D01*
X75444762Y-57054819D02*
X75540000Y-57054819D01*
X75540000Y-57054819D02*
X75682857Y-57102438D01*
X75682857Y-57102438D02*
X75730476Y-57150057D01*
X76111429Y-57769104D02*
X76587619Y-57769104D01*
X76016191Y-58054819D02*
X76349524Y-57054819D01*
X76349524Y-57054819D02*
X76682857Y-58054819D01*
X76968572Y-58007200D02*
X77111429Y-58054819D01*
X77111429Y-58054819D02*
X77349524Y-58054819D01*
X77349524Y-58054819D02*
X77444762Y-58007200D01*
X77444762Y-58007200D02*
X77492381Y-57959580D01*
X77492381Y-57959580D02*
X77540000Y-57864342D01*
X77540000Y-57864342D02*
X77540000Y-57769104D01*
X77540000Y-57769104D02*
X77492381Y-57673866D01*
X77492381Y-57673866D02*
X77444762Y-57626247D01*
X77444762Y-57626247D02*
X77349524Y-57578628D01*
X77349524Y-57578628D02*
X77159048Y-57531009D01*
X77159048Y-57531009D02*
X77063810Y-57483390D01*
X77063810Y-57483390D02*
X77016191Y-57435771D01*
X77016191Y-57435771D02*
X76968572Y-57340533D01*
X76968572Y-57340533D02*
X76968572Y-57245295D01*
X76968572Y-57245295D02*
X77016191Y-57150057D01*
X77016191Y-57150057D02*
X77063810Y-57102438D01*
X77063810Y-57102438D02*
X77159048Y-57054819D01*
X77159048Y-57054819D02*
X77397143Y-57054819D01*
X77397143Y-57054819D02*
X77540000Y-57102438D01*
X77968572Y-57531009D02*
X78301905Y-57531009D01*
X78444762Y-58054819D02*
X77968572Y-58054819D01*
X77968572Y-58054819D02*
X77968572Y-57054819D01*
X77968572Y-57054819D02*
X78444762Y-57054819D01*
X84990476Y-57531009D02*
X84657143Y-57531009D01*
X84657143Y-58054819D02*
X84657143Y-57054819D01*
X84657143Y-57054819D02*
X85133333Y-57054819D01*
X85466667Y-57769104D02*
X85942857Y-57769104D01*
X85371429Y-58054819D02*
X85704762Y-57054819D01*
X85704762Y-57054819D02*
X86038095Y-58054819D01*
X86371429Y-58054819D02*
X86371429Y-57054819D01*
X86371429Y-57054819D02*
X86942857Y-58054819D01*
X86942857Y-58054819D02*
X86942857Y-57054819D01*
X2654819Y-30661904D02*
X3464342Y-30661904D01*
X3464342Y-30661904D02*
X3559580Y-30614285D01*
X3559580Y-30614285D02*
X3607200Y-30566666D01*
X3607200Y-30566666D02*
X3654819Y-30471428D01*
X3654819Y-30471428D02*
X3654819Y-30280952D01*
X3654819Y-30280952D02*
X3607200Y-30185714D01*
X3607200Y-30185714D02*
X3559580Y-30138095D01*
X3559580Y-30138095D02*
X3464342Y-30090476D01*
X3464342Y-30090476D02*
X2654819Y-30090476D01*
X3607200Y-29661904D02*
X3654819Y-29519047D01*
X3654819Y-29519047D02*
X3654819Y-29280952D01*
X3654819Y-29280952D02*
X3607200Y-29185714D01*
X3607200Y-29185714D02*
X3559580Y-29138095D01*
X3559580Y-29138095D02*
X3464342Y-29090476D01*
X3464342Y-29090476D02*
X3369104Y-29090476D01*
X3369104Y-29090476D02*
X3273866Y-29138095D01*
X3273866Y-29138095D02*
X3226247Y-29185714D01*
X3226247Y-29185714D02*
X3178628Y-29280952D01*
X3178628Y-29280952D02*
X3131009Y-29471428D01*
X3131009Y-29471428D02*
X3083390Y-29566666D01*
X3083390Y-29566666D02*
X3035771Y-29614285D01*
X3035771Y-29614285D02*
X2940533Y-29661904D01*
X2940533Y-29661904D02*
X2845295Y-29661904D01*
X2845295Y-29661904D02*
X2750057Y-29614285D01*
X2750057Y-29614285D02*
X2702438Y-29566666D01*
X2702438Y-29566666D02*
X2654819Y-29471428D01*
X2654819Y-29471428D02*
X2654819Y-29233333D01*
X2654819Y-29233333D02*
X2702438Y-29090476D01*
X3131009Y-28328571D02*
X3178628Y-28185714D01*
X3178628Y-28185714D02*
X3226247Y-28138095D01*
X3226247Y-28138095D02*
X3321485Y-28090476D01*
X3321485Y-28090476D02*
X3464342Y-28090476D01*
X3464342Y-28090476D02*
X3559580Y-28138095D01*
X3559580Y-28138095D02*
X3607200Y-28185714D01*
X3607200Y-28185714D02*
X3654819Y-28280952D01*
X3654819Y-28280952D02*
X3654819Y-28661904D01*
X3654819Y-28661904D02*
X2654819Y-28661904D01*
X2654819Y-28661904D02*
X2654819Y-28328571D01*
X2654819Y-28328571D02*
X2702438Y-28233333D01*
X2702438Y-28233333D02*
X2750057Y-28185714D01*
X2750057Y-28185714D02*
X2845295Y-28138095D01*
X2845295Y-28138095D02*
X2940533Y-28138095D01*
X2940533Y-28138095D02*
X3035771Y-28185714D01*
X3035771Y-28185714D02*
X3083390Y-28233333D01*
X3083390Y-28233333D02*
X3131009Y-28328571D01*
X3131009Y-28328571D02*
X3131009Y-28661904D01*
X31238095Y-28884819D02*
X31238095Y-29694342D01*
X31238095Y-29694342D02*
X31285714Y-29789580D01*
X31285714Y-29789580D02*
X31333333Y-29837200D01*
X31333333Y-29837200D02*
X31428571Y-29884819D01*
X31428571Y-29884819D02*
X31619047Y-29884819D01*
X31619047Y-29884819D02*
X31714285Y-29837200D01*
X31714285Y-29837200D02*
X31761904Y-29789580D01*
X31761904Y-29789580D02*
X31809523Y-29694342D01*
X31809523Y-29694342D02*
X31809523Y-28884819D01*
X32809523Y-29884819D02*
X32238095Y-29884819D01*
X32523809Y-29884819D02*
X32523809Y-28884819D01*
X32523809Y-28884819D02*
X32428571Y-29027676D01*
X32428571Y-29027676D02*
X32333333Y-29122914D01*
X32333333Y-29122914D02*
X32238095Y-29170533D01*
X79571905Y-19334819D02*
X79571905Y-18334819D01*
X79571905Y-18334819D02*
X79810000Y-18334819D01*
X79810000Y-18334819D02*
X79952857Y-18382438D01*
X79952857Y-18382438D02*
X80048095Y-18477676D01*
X80048095Y-18477676D02*
X80095714Y-18572914D01*
X80095714Y-18572914D02*
X80143333Y-18763390D01*
X80143333Y-18763390D02*
X80143333Y-18906247D01*
X80143333Y-18906247D02*
X80095714Y-19096723D01*
X80095714Y-19096723D02*
X80048095Y-19191961D01*
X80048095Y-19191961D02*
X79952857Y-19287200D01*
X79952857Y-19287200D02*
X79810000Y-19334819D01*
X79810000Y-19334819D02*
X79571905Y-19334819D01*
X81095714Y-19334819D02*
X80524286Y-19334819D01*
X80810000Y-19334819D02*
X80810000Y-18334819D01*
X80810000Y-18334819D02*
X80714762Y-18477676D01*
X80714762Y-18477676D02*
X80619524Y-18572914D01*
X80619524Y-18572914D02*
X80524286Y-18620533D01*
X76238095Y-19654819D02*
X76238095Y-18654819D01*
X76809523Y-19654819D02*
X76380952Y-19083390D01*
X76809523Y-18654819D02*
X76238095Y-19226247D01*
X26916667Y-47907200D02*
X27059524Y-47954819D01*
X27059524Y-47954819D02*
X27297619Y-47954819D01*
X27297619Y-47954819D02*
X27392857Y-47907200D01*
X27392857Y-47907200D02*
X27440476Y-47859580D01*
X27440476Y-47859580D02*
X27488095Y-47764342D01*
X27488095Y-47764342D02*
X27488095Y-47669104D01*
X27488095Y-47669104D02*
X27440476Y-47573866D01*
X27440476Y-47573866D02*
X27392857Y-47526247D01*
X27392857Y-47526247D02*
X27297619Y-47478628D01*
X27297619Y-47478628D02*
X27107143Y-47431009D01*
X27107143Y-47431009D02*
X27011905Y-47383390D01*
X27011905Y-47383390D02*
X26964286Y-47335771D01*
X26964286Y-47335771D02*
X26916667Y-47240533D01*
X26916667Y-47240533D02*
X26916667Y-47145295D01*
X26916667Y-47145295D02*
X26964286Y-47050057D01*
X26964286Y-47050057D02*
X27011905Y-47002438D01*
X27011905Y-47002438D02*
X27107143Y-46954819D01*
X27107143Y-46954819D02*
X27345238Y-46954819D01*
X27345238Y-46954819D02*
X27488095Y-47002438D01*
X27821429Y-46954819D02*
X28059524Y-47954819D01*
X28059524Y-47954819D02*
X28250000Y-47240533D01*
X28250000Y-47240533D02*
X28440476Y-47954819D01*
X28440476Y-47954819D02*
X28678572Y-46954819D01*
X29583333Y-47954819D02*
X29011905Y-47954819D01*
X29297619Y-47954819D02*
X29297619Y-46954819D01*
X29297619Y-46954819D02*
X29202381Y-47097676D01*
X29202381Y-47097676D02*
X29107143Y-47192914D01*
X29107143Y-47192914D02*
X29011905Y-47240533D01*
X74304761Y-20950057D02*
X74209523Y-20902438D01*
X74209523Y-20902438D02*
X74114285Y-20807200D01*
X74114285Y-20807200D02*
X73971428Y-20664342D01*
X73971428Y-20664342D02*
X73876190Y-20616723D01*
X73876190Y-20616723D02*
X73780952Y-20616723D01*
X73828571Y-20854819D02*
X73733333Y-20807200D01*
X73733333Y-20807200D02*
X73638095Y-20711961D01*
X73638095Y-20711961D02*
X73590476Y-20521485D01*
X73590476Y-20521485D02*
X73590476Y-20188152D01*
X73590476Y-20188152D02*
X73638095Y-19997676D01*
X73638095Y-19997676D02*
X73733333Y-19902438D01*
X73733333Y-19902438D02*
X73828571Y-19854819D01*
X73828571Y-19854819D02*
X74019047Y-19854819D01*
X74019047Y-19854819D02*
X74114285Y-19902438D01*
X74114285Y-19902438D02*
X74209523Y-19997676D01*
X74209523Y-19997676D02*
X74257142Y-20188152D01*
X74257142Y-20188152D02*
X74257142Y-20521485D01*
X74257142Y-20521485D02*
X74209523Y-20711961D01*
X74209523Y-20711961D02*
X74114285Y-20807200D01*
X74114285Y-20807200D02*
X74019047Y-20854819D01*
X74019047Y-20854819D02*
X73828571Y-20854819D01*
X75209523Y-20854819D02*
X74638095Y-20854819D01*
X74923809Y-20854819D02*
X74923809Y-19854819D01*
X74923809Y-19854819D02*
X74828571Y-19997676D01*
X74828571Y-19997676D02*
X74733333Y-20092914D01*
X74733333Y-20092914D02*
X74638095Y-20140533D01*
X69643333Y-23584819D02*
X69310000Y-23108628D01*
X69071905Y-23584819D02*
X69071905Y-22584819D01*
X69071905Y-22584819D02*
X69452857Y-22584819D01*
X69452857Y-22584819D02*
X69548095Y-22632438D01*
X69548095Y-22632438D02*
X69595714Y-22680057D01*
X69595714Y-22680057D02*
X69643333Y-22775295D01*
X69643333Y-22775295D02*
X69643333Y-22918152D01*
X69643333Y-22918152D02*
X69595714Y-23013390D01*
X69595714Y-23013390D02*
X69548095Y-23061009D01*
X69548095Y-23061009D02*
X69452857Y-23108628D01*
X69452857Y-23108628D02*
X69071905Y-23108628D01*
X70595714Y-23584819D02*
X70024286Y-23584819D01*
X70310000Y-23584819D02*
X70310000Y-22584819D01*
X70310000Y-22584819D02*
X70214762Y-22727676D01*
X70214762Y-22727676D02*
X70119524Y-22822914D01*
X70119524Y-22822914D02*
X70024286Y-22870533D01*
X36916667Y-47907200D02*
X37059524Y-47954819D01*
X37059524Y-47954819D02*
X37297619Y-47954819D01*
X37297619Y-47954819D02*
X37392857Y-47907200D01*
X37392857Y-47907200D02*
X37440476Y-47859580D01*
X37440476Y-47859580D02*
X37488095Y-47764342D01*
X37488095Y-47764342D02*
X37488095Y-47669104D01*
X37488095Y-47669104D02*
X37440476Y-47573866D01*
X37440476Y-47573866D02*
X37392857Y-47526247D01*
X37392857Y-47526247D02*
X37297619Y-47478628D01*
X37297619Y-47478628D02*
X37107143Y-47431009D01*
X37107143Y-47431009D02*
X37011905Y-47383390D01*
X37011905Y-47383390D02*
X36964286Y-47335771D01*
X36964286Y-47335771D02*
X36916667Y-47240533D01*
X36916667Y-47240533D02*
X36916667Y-47145295D01*
X36916667Y-47145295D02*
X36964286Y-47050057D01*
X36964286Y-47050057D02*
X37011905Y-47002438D01*
X37011905Y-47002438D02*
X37107143Y-46954819D01*
X37107143Y-46954819D02*
X37345238Y-46954819D01*
X37345238Y-46954819D02*
X37488095Y-47002438D01*
X37821429Y-46954819D02*
X38059524Y-47954819D01*
X38059524Y-47954819D02*
X38250000Y-47240533D01*
X38250000Y-47240533D02*
X38440476Y-47954819D01*
X38440476Y-47954819D02*
X38678572Y-46954819D01*
X39011905Y-47050057D02*
X39059524Y-47002438D01*
X39059524Y-47002438D02*
X39154762Y-46954819D01*
X39154762Y-46954819D02*
X39392857Y-46954819D01*
X39392857Y-46954819D02*
X39488095Y-47002438D01*
X39488095Y-47002438D02*
X39535714Y-47050057D01*
X39535714Y-47050057D02*
X39583333Y-47145295D01*
X39583333Y-47145295D02*
X39583333Y-47240533D01*
X39583333Y-47240533D02*
X39535714Y-47383390D01*
X39535714Y-47383390D02*
X38964286Y-47954819D01*
X38964286Y-47954819D02*
X39583333Y-47954819D01*
X69643333Y-33584819D02*
X69310000Y-33108628D01*
X69071905Y-33584819D02*
X69071905Y-32584819D01*
X69071905Y-32584819D02*
X69452857Y-32584819D01*
X69452857Y-32584819D02*
X69548095Y-32632438D01*
X69548095Y-32632438D02*
X69595714Y-32680057D01*
X69595714Y-32680057D02*
X69643333Y-32775295D01*
X69643333Y-32775295D02*
X69643333Y-32918152D01*
X69643333Y-32918152D02*
X69595714Y-33013390D01*
X69595714Y-33013390D02*
X69548095Y-33061009D01*
X69548095Y-33061009D02*
X69452857Y-33108628D01*
X69452857Y-33108628D02*
X69071905Y-33108628D01*
X69976667Y-32584819D02*
X70595714Y-32584819D01*
X70595714Y-32584819D02*
X70262381Y-32965771D01*
X70262381Y-32965771D02*
X70405238Y-32965771D01*
X70405238Y-32965771D02*
X70500476Y-33013390D01*
X70500476Y-33013390D02*
X70548095Y-33061009D01*
X70548095Y-33061009D02*
X70595714Y-33156247D01*
X70595714Y-33156247D02*
X70595714Y-33394342D01*
X70595714Y-33394342D02*
X70548095Y-33489580D01*
X70548095Y-33489580D02*
X70500476Y-33537200D01*
X70500476Y-33537200D02*
X70405238Y-33584819D01*
X70405238Y-33584819D02*
X70119524Y-33584819D01*
X70119524Y-33584819D02*
X70024286Y-33537200D01*
X70024286Y-33537200D02*
X69976667Y-33489580D01*
X79833333Y-23609580D02*
X79785714Y-23657200D01*
X79785714Y-23657200D02*
X79642857Y-23704819D01*
X79642857Y-23704819D02*
X79547619Y-23704819D01*
X79547619Y-23704819D02*
X79404762Y-23657200D01*
X79404762Y-23657200D02*
X79309524Y-23561961D01*
X79309524Y-23561961D02*
X79261905Y-23466723D01*
X79261905Y-23466723D02*
X79214286Y-23276247D01*
X79214286Y-23276247D02*
X79214286Y-23133390D01*
X79214286Y-23133390D02*
X79261905Y-22942914D01*
X79261905Y-22942914D02*
X79309524Y-22847676D01*
X79309524Y-22847676D02*
X79404762Y-22752438D01*
X79404762Y-22752438D02*
X79547619Y-22704819D01*
X79547619Y-22704819D02*
X79642857Y-22704819D01*
X79642857Y-22704819D02*
X79785714Y-22752438D01*
X79785714Y-22752438D02*
X79833333Y-22800057D01*
X80785714Y-23704819D02*
X80214286Y-23704819D01*
X80500000Y-23704819D02*
X80500000Y-22704819D01*
X80500000Y-22704819D02*
X80404762Y-22847676D01*
X80404762Y-22847676D02*
X80309524Y-22942914D01*
X80309524Y-22942914D02*
X80214286Y-22990533D01*
X73361905Y-19154819D02*
X73361905Y-18154819D01*
X73933333Y-19154819D02*
X73504762Y-18583390D01*
X73933333Y-18154819D02*
X73361905Y-18726247D01*
X74885714Y-19154819D02*
X74314286Y-19154819D01*
X74600000Y-19154819D02*
X74600000Y-18154819D01*
X74600000Y-18154819D02*
X74504762Y-18297676D01*
X74504762Y-18297676D02*
X74409524Y-18392914D01*
X74409524Y-18392914D02*
X74314286Y-18440533D01*
X34066666Y-8204819D02*
X34066666Y-8919104D01*
X34066666Y-8919104D02*
X34019047Y-9061961D01*
X34019047Y-9061961D02*
X33923809Y-9157200D01*
X33923809Y-9157200D02*
X33780952Y-9204819D01*
X33780952Y-9204819D02*
X33685714Y-9204819D01*
X35066666Y-9204819D02*
X34495238Y-9204819D01*
X34780952Y-9204819D02*
X34780952Y-8204819D01*
X34780952Y-8204819D02*
X34685714Y-8347676D01*
X34685714Y-8347676D02*
X34590476Y-8442914D01*
X34590476Y-8442914D02*
X34495238Y-8490533D01*
X69643333Y-28584819D02*
X69310000Y-28108628D01*
X69071905Y-28584819D02*
X69071905Y-27584819D01*
X69071905Y-27584819D02*
X69452857Y-27584819D01*
X69452857Y-27584819D02*
X69548095Y-27632438D01*
X69548095Y-27632438D02*
X69595714Y-27680057D01*
X69595714Y-27680057D02*
X69643333Y-27775295D01*
X69643333Y-27775295D02*
X69643333Y-27918152D01*
X69643333Y-27918152D02*
X69595714Y-28013390D01*
X69595714Y-28013390D02*
X69548095Y-28061009D01*
X69548095Y-28061009D02*
X69452857Y-28108628D01*
X69452857Y-28108628D02*
X69071905Y-28108628D01*
X70024286Y-27680057D02*
X70071905Y-27632438D01*
X70071905Y-27632438D02*
X70167143Y-27584819D01*
X70167143Y-27584819D02*
X70405238Y-27584819D01*
X70405238Y-27584819D02*
X70500476Y-27632438D01*
X70500476Y-27632438D02*
X70548095Y-27680057D01*
X70548095Y-27680057D02*
X70595714Y-27775295D01*
X70595714Y-27775295D02*
X70595714Y-27870533D01*
X70595714Y-27870533D02*
X70548095Y-28013390D01*
X70548095Y-28013390D02*
X69976667Y-28584819D01*
X69976667Y-28584819D02*
X70595714Y-28584819D01*
X69643333Y-38584819D02*
X69310000Y-38108628D01*
X69071905Y-38584819D02*
X69071905Y-37584819D01*
X69071905Y-37584819D02*
X69452857Y-37584819D01*
X69452857Y-37584819D02*
X69548095Y-37632438D01*
X69548095Y-37632438D02*
X69595714Y-37680057D01*
X69595714Y-37680057D02*
X69643333Y-37775295D01*
X69643333Y-37775295D02*
X69643333Y-37918152D01*
X69643333Y-37918152D02*
X69595714Y-38013390D01*
X69595714Y-38013390D02*
X69548095Y-38061009D01*
X69548095Y-38061009D02*
X69452857Y-38108628D01*
X69452857Y-38108628D02*
X69071905Y-38108628D01*
X70500476Y-37918152D02*
X70500476Y-38584819D01*
X70262381Y-37537200D02*
X70024286Y-38251485D01*
X70024286Y-38251485D02*
X70643333Y-38251485D01*
X69643333Y-43584819D02*
X69310000Y-43108628D01*
X69071905Y-43584819D02*
X69071905Y-42584819D01*
X69071905Y-42584819D02*
X69452857Y-42584819D01*
X69452857Y-42584819D02*
X69548095Y-42632438D01*
X69548095Y-42632438D02*
X69595714Y-42680057D01*
X69595714Y-42680057D02*
X69643333Y-42775295D01*
X69643333Y-42775295D02*
X69643333Y-42918152D01*
X69643333Y-42918152D02*
X69595714Y-43013390D01*
X69595714Y-43013390D02*
X69548095Y-43061009D01*
X69548095Y-43061009D02*
X69452857Y-43108628D01*
X69452857Y-43108628D02*
X69071905Y-43108628D01*
X70548095Y-42584819D02*
X70071905Y-42584819D01*
X70071905Y-42584819D02*
X70024286Y-43061009D01*
X70024286Y-43061009D02*
X70071905Y-43013390D01*
X70071905Y-43013390D02*
X70167143Y-42965771D01*
X70167143Y-42965771D02*
X70405238Y-42965771D01*
X70405238Y-42965771D02*
X70500476Y-43013390D01*
X70500476Y-43013390D02*
X70548095Y-43061009D01*
X70548095Y-43061009D02*
X70595714Y-43156247D01*
X70595714Y-43156247D02*
X70595714Y-43394342D01*
X70595714Y-43394342D02*
X70548095Y-43489580D01*
X70548095Y-43489580D02*
X70500476Y-43537200D01*
X70500476Y-43537200D02*
X70405238Y-43584819D01*
X70405238Y-43584819D02*
X70167143Y-43584819D01*
X70167143Y-43584819D02*
X70071905Y-43537200D01*
X70071905Y-43537200D02*
X70024286Y-43489580D01*
X94154819Y-28723333D02*
X94869104Y-28723333D01*
X94869104Y-28723333D02*
X95011961Y-28770952D01*
X95011961Y-28770952D02*
X95107200Y-28866190D01*
X95107200Y-28866190D02*
X95154819Y-29009047D01*
X95154819Y-29009047D02*
X95154819Y-29104285D01*
X94250057Y-28294761D02*
X94202438Y-28247142D01*
X94202438Y-28247142D02*
X94154819Y-28151904D01*
X94154819Y-28151904D02*
X94154819Y-27913809D01*
X94154819Y-27913809D02*
X94202438Y-27818571D01*
X94202438Y-27818571D02*
X94250057Y-27770952D01*
X94250057Y-27770952D02*
X94345295Y-27723333D01*
X94345295Y-27723333D02*
X94440533Y-27723333D01*
X94440533Y-27723333D02*
X94583390Y-27770952D01*
X94583390Y-27770952D02*
X95154819Y-28342380D01*
X95154819Y-28342380D02*
X95154819Y-27723333D01*
X46916667Y-47907200D02*
X47059524Y-47954819D01*
X47059524Y-47954819D02*
X47297619Y-47954819D01*
X47297619Y-47954819D02*
X47392857Y-47907200D01*
X47392857Y-47907200D02*
X47440476Y-47859580D01*
X47440476Y-47859580D02*
X47488095Y-47764342D01*
X47488095Y-47764342D02*
X47488095Y-47669104D01*
X47488095Y-47669104D02*
X47440476Y-47573866D01*
X47440476Y-47573866D02*
X47392857Y-47526247D01*
X47392857Y-47526247D02*
X47297619Y-47478628D01*
X47297619Y-47478628D02*
X47107143Y-47431009D01*
X47107143Y-47431009D02*
X47011905Y-47383390D01*
X47011905Y-47383390D02*
X46964286Y-47335771D01*
X46964286Y-47335771D02*
X46916667Y-47240533D01*
X46916667Y-47240533D02*
X46916667Y-47145295D01*
X46916667Y-47145295D02*
X46964286Y-47050057D01*
X46964286Y-47050057D02*
X47011905Y-47002438D01*
X47011905Y-47002438D02*
X47107143Y-46954819D01*
X47107143Y-46954819D02*
X47345238Y-46954819D01*
X47345238Y-46954819D02*
X47488095Y-47002438D01*
X47821429Y-46954819D02*
X48059524Y-47954819D01*
X48059524Y-47954819D02*
X48250000Y-47240533D01*
X48250000Y-47240533D02*
X48440476Y-47954819D01*
X48440476Y-47954819D02*
X48678572Y-46954819D01*
X48964286Y-46954819D02*
X49583333Y-46954819D01*
X49583333Y-46954819D02*
X49250000Y-47335771D01*
X49250000Y-47335771D02*
X49392857Y-47335771D01*
X49392857Y-47335771D02*
X49488095Y-47383390D01*
X49488095Y-47383390D02*
X49535714Y-47431009D01*
X49535714Y-47431009D02*
X49583333Y-47526247D01*
X49583333Y-47526247D02*
X49583333Y-47764342D01*
X49583333Y-47764342D02*
X49535714Y-47859580D01*
X49535714Y-47859580D02*
X49488095Y-47907200D01*
X49488095Y-47907200D02*
X49392857Y-47954819D01*
X49392857Y-47954819D02*
X49107143Y-47954819D01*
X49107143Y-47954819D02*
X49011905Y-47907200D01*
X49011905Y-47907200D02*
X48964286Y-47859580D01*
X94154819Y-45143333D02*
X94869104Y-45143333D01*
X94869104Y-45143333D02*
X95011961Y-45190952D01*
X95011961Y-45190952D02*
X95107200Y-45286190D01*
X95107200Y-45286190D02*
X95154819Y-45429047D01*
X95154819Y-45429047D02*
X95154819Y-45524285D01*
X94154819Y-44762380D02*
X94154819Y-44143333D01*
X94154819Y-44143333D02*
X94535771Y-44476666D01*
X94535771Y-44476666D02*
X94535771Y-44333809D01*
X94535771Y-44333809D02*
X94583390Y-44238571D01*
X94583390Y-44238571D02*
X94631009Y-44190952D01*
X94631009Y-44190952D02*
X94726247Y-44143333D01*
X94726247Y-44143333D02*
X94964342Y-44143333D01*
X94964342Y-44143333D02*
X95059580Y-44190952D01*
X95059580Y-44190952D02*
X95107200Y-44238571D01*
X95107200Y-44238571D02*
X95154819Y-44333809D01*
X95154819Y-44333809D02*
X95154819Y-44619523D01*
X95154819Y-44619523D02*
X95107200Y-44714761D01*
X95107200Y-44714761D02*
X95059580Y-44762380D01*
X79083333Y-31859580D02*
X79035714Y-31907200D01*
X79035714Y-31907200D02*
X78892857Y-31954819D01*
X78892857Y-31954819D02*
X78797619Y-31954819D01*
X78797619Y-31954819D02*
X78654762Y-31907200D01*
X78654762Y-31907200D02*
X78559524Y-31811961D01*
X78559524Y-31811961D02*
X78511905Y-31716723D01*
X78511905Y-31716723D02*
X78464286Y-31526247D01*
X78464286Y-31526247D02*
X78464286Y-31383390D01*
X78464286Y-31383390D02*
X78511905Y-31192914D01*
X78511905Y-31192914D02*
X78559524Y-31097676D01*
X78559524Y-31097676D02*
X78654762Y-31002438D01*
X78654762Y-31002438D02*
X78797619Y-30954819D01*
X78797619Y-30954819D02*
X78892857Y-30954819D01*
X78892857Y-30954819D02*
X79035714Y-31002438D01*
X79035714Y-31002438D02*
X79083333Y-31050057D01*
X79464286Y-31050057D02*
X79511905Y-31002438D01*
X79511905Y-31002438D02*
X79607143Y-30954819D01*
X79607143Y-30954819D02*
X79845238Y-30954819D01*
X79845238Y-30954819D02*
X79940476Y-31002438D01*
X79940476Y-31002438D02*
X79988095Y-31050057D01*
X79988095Y-31050057D02*
X80035714Y-31145295D01*
X80035714Y-31145295D02*
X80035714Y-31240533D01*
X80035714Y-31240533D02*
X79988095Y-31383390D01*
X79988095Y-31383390D02*
X79416667Y-31954819D01*
X79416667Y-31954819D02*
X80035714Y-31954819D01*
X63900000Y-16100000D02*
X61400000Y-16100000D01*
D10*
X7330000Y-16670000D02*
X63330000Y-16670000D01*
X63330000Y-19330000D01*
X7330000Y-19330000D01*
X7330000Y-16670000D01*
X7330000Y-39530000D02*
X63330000Y-39530000D01*
X63330000Y-42190000D01*
X7330000Y-42190000D01*
X7330000Y-39530000D01*
X660000Y-16730000D02*
X63400000Y-16730000D01*
X63400000Y-42130000D01*
X660000Y-42130000D01*
X660000Y-16730000D01*
X80620000Y-55380000D02*
X80620000Y-54000000D01*
X82000000Y-55380000D02*
X80620000Y-55380000D01*
X83270000Y-52620000D02*
X91000000Y-52620000D01*
X83270000Y-55380000D02*
X83270000Y-52620000D01*
X83270000Y-55380000D02*
X91000000Y-55380000D01*
X91000000Y-55380000D02*
X91000000Y-52620000D01*
X77540000Y-21000000D02*
X78190000Y-21000000D01*
X78790000Y-19880000D02*
X78790000Y-22120000D01*
X78910000Y-19880000D02*
X78910000Y-22120000D01*
X79030000Y-19880000D02*
X79030000Y-22120000D01*
X83080000Y-21000000D02*
X82430000Y-21000000D01*
X78190000Y-19880000D02*
X82430000Y-19880000D01*
X82430000Y-22120000D01*
X78190000Y-22120000D01*
X78190000Y-19880000D01*
X24750000Y-51000000D02*
X24750000Y-52500000D01*
X26000000Y-55000000D02*
X30500000Y-55000000D01*
X30500000Y-48500000D02*
X26000000Y-48500000D01*
X31750000Y-52500000D02*
X31750000Y-51000000D01*
X62620000Y-55380000D02*
X62620000Y-54000000D01*
X64000000Y-55380000D02*
X62620000Y-55380000D01*
X65270000Y-52620000D02*
X70460000Y-52620000D01*
X65270000Y-55380000D02*
X65270000Y-52620000D01*
X65270000Y-55380000D02*
X70460000Y-55380000D01*
X70460000Y-55380000D02*
X70460000Y-52620000D01*
X68470000Y-22250000D02*
X72070000Y-22250000D01*
X68431522Y-22238478D02*
G75*
G02*
X70270000Y-17799999I1838478J1838478D01*
G01*
X70270000Y-17800000D02*
G75*
G02*
X72108478Y-22238478I0J-2600000D01*
G01*
X53620000Y-55380000D02*
X53620000Y-54000000D01*
X55000000Y-55380000D02*
X53620000Y-55380000D01*
X56270000Y-52620000D02*
X61460000Y-52620000D01*
X56270000Y-55380000D02*
X56270000Y-52620000D01*
X56270000Y-55380000D02*
X61460000Y-55380000D01*
X61460000Y-55380000D02*
X61460000Y-52620000D01*
X66540000Y-24130000D02*
X73080000Y-24130000D01*
X66540000Y-24460000D02*
X66540000Y-24130000D01*
X66540000Y-26540000D02*
X66540000Y-26870000D01*
X66540000Y-26870000D02*
X73080000Y-26870000D01*
X73080000Y-24130000D02*
X73080000Y-24460000D01*
X73080000Y-26870000D02*
X73080000Y-26540000D01*
X34750000Y-51000000D02*
X34750000Y-52500000D01*
X36000000Y-55000000D02*
X40500000Y-55000000D01*
X40500000Y-48500000D02*
X36000000Y-48500000D01*
X41750000Y-52500000D02*
X41750000Y-51000000D01*
X66540000Y-34130000D02*
X73080000Y-34130000D01*
X66540000Y-34460000D02*
X66540000Y-34130000D01*
X66540000Y-36540000D02*
X66540000Y-36870000D01*
X66540000Y-36870000D02*
X73080000Y-36870000D01*
X73080000Y-34130000D02*
X73080000Y-34460000D01*
X73080000Y-36870000D02*
X73080000Y-36540000D01*
X77195225Y-25525000D02*
X77695225Y-25525000D01*
X77445225Y-25275000D02*
X77445225Y-25775000D01*
X80000000Y-24420000D02*
X80000000Y-25960000D01*
X80000000Y-28040000D02*
X80000000Y-29580000D01*
X80040000Y-24420000D02*
X80040000Y-25960000D01*
X80040000Y-28040000D02*
X80040000Y-29580000D01*
X80080000Y-24421000D02*
X80080000Y-25960000D01*
X80080000Y-28040000D02*
X80080000Y-29579000D01*
X80120000Y-24423000D02*
X80120000Y-25960000D01*
X80120000Y-28040000D02*
X80120000Y-29577000D01*
X80160000Y-24425000D02*
X80160000Y-25960000D01*
X80160000Y-28040000D02*
X80160000Y-29575000D01*
X80200000Y-24428000D02*
X80200000Y-25960000D01*
X80200000Y-28040000D02*
X80200000Y-29572000D01*
X80240000Y-24431000D02*
X80240000Y-25960000D01*
X80240000Y-28040000D02*
X80240000Y-29569000D01*
X80280000Y-24435000D02*
X80280000Y-25960000D01*
X80280000Y-28040000D02*
X80280000Y-29565000D01*
X80320000Y-24440000D02*
X80320000Y-25960000D01*
X80320000Y-28040000D02*
X80320000Y-29560000D01*
X80360000Y-24445000D02*
X80360000Y-25960000D01*
X80360000Y-28040000D02*
X80360000Y-29555000D01*
X80400000Y-24451000D02*
X80400000Y-25960000D01*
X80400000Y-28040000D02*
X80400000Y-29549000D01*
X80440000Y-24457000D02*
X80440000Y-25960000D01*
X80440000Y-28040000D02*
X80440000Y-29543000D01*
X80480000Y-24464000D02*
X80480000Y-25960000D01*
X80480000Y-28040000D02*
X80480000Y-29536000D01*
X80520000Y-24472000D02*
X80520000Y-25960000D01*
X80520000Y-28040000D02*
X80520000Y-29528000D01*
X80560000Y-24481000D02*
X80560000Y-25960000D01*
X80560000Y-28040000D02*
X80560000Y-29519000D01*
X80600000Y-24490000D02*
X80600000Y-25960000D01*
X80600000Y-28040000D02*
X80600000Y-29510000D01*
X80640000Y-24499000D02*
X80640000Y-25960000D01*
X80640000Y-28040000D02*
X80640000Y-29501000D01*
X80680000Y-24510000D02*
X80680000Y-25960000D01*
X80680000Y-28040000D02*
X80680000Y-29490000D01*
X80720000Y-24521000D02*
X80720000Y-25960000D01*
X80720000Y-28040000D02*
X80720000Y-29479000D01*
X80760000Y-24533000D02*
X80760000Y-25960000D01*
X80760000Y-28040000D02*
X80760000Y-29467000D01*
X80800000Y-24545000D02*
X80800000Y-25960000D01*
X80800000Y-28040000D02*
X80800000Y-29455000D01*
X80840000Y-24558000D02*
X80840000Y-25960000D01*
X80840000Y-28040000D02*
X80840000Y-29442000D01*
X80880000Y-24572000D02*
X80880000Y-25960000D01*
X80880000Y-28040000D02*
X80880000Y-29428000D01*
X80920000Y-24587000D02*
X80920000Y-25960000D01*
X80920000Y-28040000D02*
X80920000Y-29413000D01*
X80960000Y-24602000D02*
X80960000Y-25960000D01*
X80960000Y-28040000D02*
X80960000Y-29398000D01*
X81000000Y-24618000D02*
X81000000Y-25960000D01*
X81000000Y-28040000D02*
X81000000Y-29382000D01*
X81040000Y-24635000D02*
X81040000Y-25960000D01*
X81040000Y-28040000D02*
X81040000Y-29365000D01*
X81080000Y-24653000D02*
X81080000Y-25960000D01*
X81080000Y-28040000D02*
X81080000Y-29347000D01*
X81120000Y-24671000D02*
X81120000Y-25960000D01*
X81120000Y-28040000D02*
X81120000Y-29329000D01*
X81160000Y-24691000D02*
X81160000Y-25960000D01*
X81160000Y-28040000D02*
X81160000Y-29309000D01*
X81200000Y-24711000D02*
X81200000Y-25960000D01*
X81200000Y-28040000D02*
X81200000Y-29289000D01*
X81240000Y-24732000D02*
X81240000Y-25960000D01*
X81240000Y-28040000D02*
X81240000Y-29268000D01*
X81280000Y-24754000D02*
X81280000Y-25960000D01*
X81280000Y-28040000D02*
X81280000Y-29246000D01*
X81320000Y-24777000D02*
X81320000Y-25960000D01*
X81320000Y-28040000D02*
X81320000Y-29223000D01*
X81360000Y-24801000D02*
X81360000Y-25960000D01*
X81360000Y-28040000D02*
X81360000Y-29199000D01*
X81400000Y-24825000D02*
X81400000Y-25960000D01*
X81400000Y-28040000D02*
X81400000Y-29175000D01*
X81440000Y-24851000D02*
X81440000Y-25960000D01*
X81440000Y-28040000D02*
X81440000Y-29149000D01*
X81480000Y-24878000D02*
X81480000Y-25960000D01*
X81480000Y-28040000D02*
X81480000Y-29122000D01*
X81520000Y-24906000D02*
X81520000Y-25960000D01*
X81520000Y-28040000D02*
X81520000Y-29094000D01*
X81560000Y-24935000D02*
X81560000Y-25960000D01*
X81560000Y-28040000D02*
X81560000Y-29065000D01*
X81600000Y-24965000D02*
X81600000Y-25960000D01*
X81600000Y-28040000D02*
X81600000Y-29035000D01*
X81640000Y-24997000D02*
X81640000Y-25960000D01*
X81640000Y-28040000D02*
X81640000Y-29003000D01*
X81680000Y-25030000D02*
X81680000Y-25960000D01*
X81680000Y-28040000D02*
X81680000Y-28970000D01*
X81720000Y-25064000D02*
X81720000Y-25960000D01*
X81720000Y-28040000D02*
X81720000Y-28936000D01*
X81760000Y-25099000D02*
X81760000Y-25960000D01*
X81760000Y-28040000D02*
X81760000Y-28901000D01*
X81800000Y-25136000D02*
X81800000Y-25960000D01*
X81800000Y-28040000D02*
X81800000Y-28864000D01*
X81840000Y-25175000D02*
X81840000Y-25960000D01*
X81840000Y-28040000D02*
X81840000Y-28825000D01*
X81880000Y-25215000D02*
X81880000Y-25960000D01*
X81880000Y-28040000D02*
X81880000Y-28785000D01*
X81920000Y-25257000D02*
X81920000Y-25960000D01*
X81920000Y-28040000D02*
X81920000Y-28743000D01*
X81960000Y-25301000D02*
X81960000Y-25960000D01*
X81960000Y-28040000D02*
X81960000Y-28699000D01*
X82000000Y-25348000D02*
X82000000Y-25960000D01*
X82000000Y-28040000D02*
X82000000Y-28652000D01*
X82040000Y-25396000D02*
X82040000Y-28604000D01*
X82080000Y-25447000D02*
X82080000Y-28553000D01*
X82120000Y-25501000D02*
X82120000Y-28499000D01*
X82160000Y-25557000D02*
X82160000Y-28443000D01*
X82200000Y-25617000D02*
X82200000Y-28383000D01*
X82240000Y-25681000D02*
X82240000Y-28319000D01*
X82280000Y-25749000D02*
X82280000Y-28251000D01*
X82320000Y-25823000D02*
X82320000Y-28177000D01*
X82360000Y-25902000D02*
X82360000Y-28098000D01*
X82400000Y-25989000D02*
X82400000Y-28011000D01*
X82440000Y-26086000D02*
X82440000Y-27914000D01*
X82480000Y-26195000D02*
X82480000Y-27805000D01*
X82520000Y-26323000D02*
X82520000Y-27677000D01*
X82560000Y-26483000D02*
X82560000Y-27517000D01*
X82600000Y-26717000D02*
X82600000Y-27283000D01*
X82620000Y-27000000D02*
G75*
G02*
X77380000Y-27000000I-2620000J0D01*
G01*
X77380000Y-27000000D02*
G75*
G02*
X82620000Y-27000000I2620000J0D01*
G01*
X64600000Y-1700000D02*
X64600000Y-8300000D01*
X64600000Y-1700000D02*
X84400000Y-1700000D01*
X64600000Y-10700000D02*
X64600000Y-17300000D01*
X68650000Y-9550000D02*
X67850000Y-9550000D01*
X68650000Y-9550000D02*
X68650000Y-13150000D01*
X69550000Y-15550000D02*
X72050000Y-15550000D01*
X70050000Y-7750000D02*
X74050000Y-7750000D01*
X70050000Y-11350000D02*
X70050000Y-7750000D01*
X72050000Y-3550000D02*
X69550000Y-3550000D01*
X72050000Y-3550000D02*
X72050000Y-7750000D01*
X72050000Y-11350000D02*
X72050000Y-15550000D01*
X74050000Y-7750000D02*
X74050000Y-11350000D01*
X74050000Y-11350000D02*
X70050000Y-7750000D01*
X74050000Y-11350000D02*
X70050000Y-11350000D01*
X75450000Y-9550000D02*
X75450000Y-13150000D01*
X75450000Y-9550000D02*
X76950000Y-9550000D01*
X75450000Y-13150000D02*
X68650000Y-13150000D01*
X76950000Y-9550000D02*
X81550000Y-7050000D01*
X80150000Y-5300000D02*
X80150000Y-7800000D01*
X80150000Y-13700000D02*
X80150000Y-11250000D01*
X84400000Y-1700000D02*
X84400000Y-17300000D01*
X84400000Y-17300000D02*
X64600000Y-17300000D01*
X8490000Y-4040000D02*
X32590000Y-4040000D01*
X8490000Y-13860000D02*
X8490000Y-4040000D01*
X32590000Y-2640000D02*
X34400000Y-2640000D01*
X32590000Y-4040000D02*
X32590000Y-2640000D01*
X34400000Y-13860000D02*
X8490000Y-13860000D01*
X34400000Y-13860000D02*
X60310000Y-13860000D01*
X36210000Y-2640000D02*
X34400000Y-2640000D01*
X36210000Y-4040000D02*
X36210000Y-2640000D01*
X57700000Y-14100000D02*
X60550000Y-14100000D01*
X60310000Y-4040000D02*
X36210000Y-4040000D01*
X60310000Y-13860000D02*
X60310000Y-4040000D01*
X60550000Y-14100000D02*
X60550000Y-11250000D01*
X66540000Y-29130000D02*
X73080000Y-29130000D01*
X66540000Y-29460000D02*
X66540000Y-29130000D01*
X66540000Y-31540000D02*
X66540000Y-31870000D01*
X66540000Y-31870000D02*
X73080000Y-31870000D01*
X73080000Y-29130000D02*
X73080000Y-29460000D01*
X73080000Y-31870000D02*
X73080000Y-31540000D01*
X71620000Y-55380000D02*
X71620000Y-54000000D01*
X73000000Y-55380000D02*
X71620000Y-55380000D01*
X74270000Y-52620000D02*
X79460000Y-52620000D01*
X74270000Y-55380000D02*
X74270000Y-52620000D01*
X74270000Y-55380000D02*
X79460000Y-55380000D01*
X79460000Y-55380000D02*
X79460000Y-52620000D01*
X66540000Y-39130000D02*
X73080000Y-39130000D01*
X66540000Y-39460000D02*
X66540000Y-39130000D01*
X66540000Y-41540000D02*
X66540000Y-41870000D01*
X66540000Y-41870000D02*
X73080000Y-41870000D01*
X73080000Y-39130000D02*
X73080000Y-39460000D01*
X73080000Y-41870000D02*
X73080000Y-41540000D01*
X66540000Y-44130000D02*
X73080000Y-44130000D01*
X66540000Y-44460000D02*
X66540000Y-44130000D01*
X66540000Y-46540000D02*
X66540000Y-46870000D01*
X66540000Y-46870000D02*
X73080000Y-46870000D01*
X73080000Y-44130000D02*
X73080000Y-44460000D01*
X73080000Y-46870000D02*
X73080000Y-46540000D01*
X90670000Y-20770000D02*
X90670000Y-38610000D01*
X90670000Y-20770000D02*
X93330000Y-20770000D01*
X90670000Y-38610000D02*
X93330000Y-38610000D01*
X92000000Y-18170000D02*
X93330000Y-18170000D01*
X93330000Y-18170000D02*
X93330000Y-19500000D01*
X93330000Y-20770000D02*
X93330000Y-38610000D01*
X44750000Y-51000000D02*
X44750000Y-52500000D01*
X46000000Y-55000000D02*
X50500000Y-55000000D01*
X50500000Y-48500000D02*
X46000000Y-48500000D01*
X51750000Y-52500000D02*
X51750000Y-51000000D01*
X7620000Y-55380000D02*
X7620000Y-54000000D01*
X9000000Y-55380000D02*
X7620000Y-55380000D01*
X10270000Y-52620000D02*
X23080000Y-52620000D01*
X10270000Y-55380000D02*
X10270000Y-52620000D01*
X10270000Y-55380000D02*
X23080000Y-55380000D01*
X23080000Y-55380000D02*
X23080000Y-52620000D01*
X90670000Y-42270000D02*
X90670000Y-49950000D01*
X90670000Y-42270000D02*
X93330000Y-42270000D01*
X90670000Y-49950000D02*
X93330000Y-49950000D01*
X92000000Y-39670000D02*
X93330000Y-39670000D01*
X93330000Y-39670000D02*
X93330000Y-41000000D01*
X93330000Y-42270000D02*
X93330000Y-49950000D01*
X76630000Y-32630000D02*
X81870000Y-32630000D01*
X76630000Y-35370000D02*
X76630000Y-32630000D01*
X81870000Y-32630000D02*
X81870000Y-35370000D01*
X81870000Y-35370000D02*
X76630000Y-35370000D01*
%LPC*%
D13*
X62000000Y-18000000D03*
D14*
X59460000Y-18000000D03*
X56920000Y-18000000D03*
X54380000Y-18000000D03*
X51840000Y-18000000D03*
X49300000Y-18000000D03*
X46760000Y-18000000D03*
X44220000Y-18000000D03*
X41680000Y-18000000D03*
X39140000Y-18000000D03*
X36600000Y-18000000D03*
X34060000Y-18000000D03*
X31520000Y-18000000D03*
X28980000Y-18000000D03*
X26440000Y-18000000D03*
X23900000Y-18000000D03*
X21360000Y-18000000D03*
X18820000Y-18000000D03*
X16280000Y-18000000D03*
X13740000Y-18000000D03*
X11200000Y-18000000D03*
X8660000Y-18000000D03*
X8660000Y-40860000D03*
X11200000Y-40860000D03*
X13740000Y-40860000D03*
X16280000Y-40860000D03*
X18820000Y-40860000D03*
X21360000Y-40860000D03*
X23900000Y-40860000D03*
X26440000Y-40860000D03*
X28980000Y-40860000D03*
X31520000Y-40860000D03*
X34060000Y-40860000D03*
X36600000Y-40860000D03*
X39140000Y-40860000D03*
X41680000Y-40860000D03*
X44220000Y-40860000D03*
X46760000Y-40860000D03*
X49300000Y-40860000D03*
X51840000Y-40860000D03*
X54380000Y-40860000D03*
X56920000Y-40860000D03*
X59460000Y-40860000D03*
X62000000Y-40860000D03*
D13*
X82000000Y-54000000D03*
D15*
X84540000Y-54000000D03*
X87080000Y-54000000D03*
X89620000Y-54000000D03*
D16*
X76500000Y-21000000D03*
D17*
X84120000Y-21000000D03*
D18*
X25000000Y-49500000D03*
X31500000Y-49500000D03*
X25000000Y-54000000D03*
X31500000Y-54000000D03*
D13*
X64000000Y-54000000D03*
D15*
X66540000Y-54000000D03*
X69080000Y-54000000D03*
D19*
X69000000Y-20400000D03*
D20*
X70270000Y-20400000D03*
X71540000Y-20400000D03*
D13*
X55000000Y-54000000D03*
D15*
X57540000Y-54000000D03*
X60080000Y-54000000D03*
D21*
X91500000Y-4500000D03*
D17*
X66000000Y-25500000D03*
X73620000Y-25500000D03*
D18*
X35000000Y-49500000D03*
X41500000Y-49500000D03*
X35000000Y-54000000D03*
X41500000Y-54000000D03*
D17*
X66000000Y-35500000D03*
X73620000Y-35500000D03*
D21*
X91500000Y-59500000D03*
D16*
X79000000Y-27000000D03*
D17*
X81000000Y-27000000D03*
D22*
X66000000Y-9500000D03*
D23*
X67950000Y-15550000D03*
D22*
X80150000Y-15550000D03*
X80200000Y-3500000D03*
D23*
X67950000Y-3550000D03*
D24*
X57500000Y-11500000D03*
D25*
X53300000Y-11500000D03*
X49100000Y-11500000D03*
X44900000Y-11500000D03*
X40700000Y-11500000D03*
X36500000Y-11500000D03*
X32300000Y-11500000D03*
X28100000Y-11500000D03*
X23900000Y-11500000D03*
X19700000Y-11500000D03*
X15500000Y-11500000D03*
X11300000Y-11500000D03*
X57500000Y-6000000D03*
X53300000Y-6000000D03*
X49100000Y-6000000D03*
X44900000Y-6000000D03*
X40700000Y-6000000D03*
X36500000Y-6000000D03*
X32300000Y-6000000D03*
X28100000Y-6000000D03*
X23900000Y-6000000D03*
X19700000Y-6000000D03*
X15500000Y-6000000D03*
X11300000Y-6000000D03*
D17*
X66000000Y-30500000D03*
X73620000Y-30500000D03*
D21*
X4500000Y-59500000D03*
X4500000Y-4500000D03*
D13*
X73000000Y-54000000D03*
D15*
X75540000Y-54000000D03*
X78080000Y-54000000D03*
D17*
X66000000Y-40500000D03*
X73620000Y-40500000D03*
X66000000Y-45500000D03*
X73620000Y-45500000D03*
D13*
X92000000Y-19500000D03*
D15*
X92000000Y-22040000D03*
X92000000Y-24580000D03*
X92000000Y-27120000D03*
X92000000Y-29660000D03*
X92000000Y-32200000D03*
X92000000Y-34740000D03*
X92000000Y-37280000D03*
D18*
X45000000Y-49500000D03*
X51500000Y-49500000D03*
X45000000Y-54000000D03*
X51500000Y-54000000D03*
D13*
X9000000Y-54000000D03*
D15*
X11540000Y-54000000D03*
X14080000Y-54000000D03*
X16620000Y-54000000D03*
X19160000Y-54000000D03*
X21700000Y-54000000D03*
D13*
X92000000Y-41000000D03*
D15*
X92000000Y-43540000D03*
X92000000Y-46080000D03*
X92000000Y-48620000D03*
D17*
X78000000Y-34000000D03*
X80500000Y-34000000D03*
%LPD*%
M02*
