M48
; DRILL file KiCad 10.0.5 date 2026-08-25T12:49:40
; FORMAT={-:-/ absolute / metric / decimal}
; #@! TF.CreationDate,2026-08-25T12:49:40+09:00
; #@! TF.GenerationSoftware,Kicad,Pcbnew,10.0.5
; #@! TF.FileFunction,MixedPlating,1,2
FMAT,2
METRIC
; #@! TA.AperFunction,Plated,PTH,ViaDrill
T1C0.400
; #@! TA.AperFunction,Plated,PTH,ViaDrill
T2C0.500
; #@! TA.AperFunction,Plated,PTH,ComponentDrill
T3C0.750
; #@! TA.AperFunction,Plated,PTH,ComponentDrill
T4C0.800
; #@! TA.AperFunction,Plated,PTH,ComponentDrill
T5C1.000
; #@! TA.AperFunction,Plated,PTH,ComponentDrill
T6C1.100
; #@! TA.AperFunction,Plated,PTH,ComponentDrill
T7C1.300
; #@! TA.AperFunction,Plated,PTH,ComponentDrill
T8C1.400
; #@! TA.AperFunction,NonPlated,NPTH,ComponentDrill
T9C3.200
%
G90
G05
T1
X61.083Y-45.5
T2
X87.246Y-22.211
T3
X69.0Y-20.4
X70.27Y-20.4
X71.54Y-20.4
T4
X66.0Y-25.5
X66.0Y-30.5
X66.0Y-35.5
X66.0Y-40.5
X66.0Y-45.5
X73.62Y-25.5
X73.62Y-30.5
X73.62Y-35.5
X73.62Y-40.5
X73.62Y-45.5
X76.5Y-21.0
X78.0Y-34.0
X79.0Y-27.0
X80.5Y-34.0
X81.0Y-27.0
X84.12Y-21.0
T5
X8.66Y-18.0
X8.66Y-40.86
X9.0Y-54.0
X11.2Y-18.0
X11.2Y-40.86
X11.54Y-54.0
X13.74Y-18.0
X13.74Y-40.86
X14.08Y-54.0
X16.28Y-18.0
X16.28Y-40.86
X16.62Y-54.0
X18.82Y-18.0
X18.82Y-40.86
X19.16Y-54.0
X21.36Y-18.0
X21.36Y-40.86
X21.7Y-54.0
X23.9Y-18.0
X23.9Y-40.86
X26.44Y-18.0
X26.44Y-40.86
X28.98Y-18.0
X28.98Y-40.86
X31.52Y-18.0
X31.52Y-40.86
X34.06Y-18.0
X34.06Y-40.86
X36.6Y-18.0
X36.6Y-40.86
X39.14Y-18.0
X39.14Y-40.86
X41.68Y-18.0
X41.68Y-40.86
X44.22Y-18.0
X44.22Y-40.86
X46.76Y-18.0
X46.76Y-40.86
X49.3Y-18.0
X49.3Y-40.86
X51.84Y-18.0
X51.84Y-40.86
X54.38Y-18.0
X54.38Y-40.86
X55.0Y-54.0
X56.92Y-18.0
X56.92Y-40.86
X57.54Y-54.0
X59.46Y-18.0
X59.46Y-40.86
X60.08Y-54.0
X62.0Y-18.0
X62.0Y-40.86
X64.0Y-54.0
X66.54Y-54.0
X67.95Y-3.55
X67.95Y-15.55
X69.08Y-54.0
X73.0Y-54.0
X75.54Y-54.0
X78.08Y-54.0
X82.0Y-54.0
X84.54Y-54.0
X87.08Y-54.0
X89.62Y-54.0
X92.0Y-19.5
X92.0Y-22.04
X92.0Y-24.58
X92.0Y-27.12
X92.0Y-29.66
X92.0Y-32.2
X92.0Y-34.74
X92.0Y-37.28
X92.0Y-41.0
X92.0Y-43.54
X92.0Y-46.08
X92.0Y-48.62
T6
X25.0Y-49.5
X25.0Y-54.0
X31.5Y-49.5
X31.5Y-54.0
X35.0Y-49.5
X35.0Y-54.0
X41.5Y-49.5
X41.5Y-54.0
X45.0Y-49.5
X45.0Y-54.0
X51.5Y-49.5
X51.5Y-54.0
T7
X66.0Y-9.5
X80.15Y-15.55
X80.2Y-3.5
T8
X11.3Y-6.0
X11.3Y-11.5
X15.5Y-6.0
X15.5Y-11.5
X19.7Y-6.0
X19.7Y-11.5
X23.9Y-6.0
X23.9Y-11.5
X28.1Y-6.0
X28.1Y-11.5
X32.3Y-6.0
X32.3Y-11.5
X36.5Y-6.0
X36.5Y-11.5
X40.7Y-6.0
X40.7Y-11.5
X44.9Y-6.0
X44.9Y-11.5
X49.1Y-6.0
X49.1Y-11.5
X53.3Y-6.0
X53.3Y-11.5
X57.5Y-6.0
X57.5Y-11.5
T9
X4.5Y-4.5
X4.5Y-59.5
X91.5Y-4.5
X91.5Y-59.5
M30
