G04 #@! TF.GenerationSoftware,KiCad,Pcbnew,10.0.5*
G04 #@! TF.CreationDate,2026-08-25T12:49:40+09:00*
G04 #@! TF.ProjectId,bc250-front-carrier,62633235-302d-4667-926f-6e742d636172,1.0*
G04 #@! TF.SameCoordinates,Original*
G04 #@! TF.FileFunction,Copper,L1,Top*
G04 #@! TF.FilePolarity,Positive*
%FSLAX46Y46*%
G04 Gerber Fmt 4.6, Leading zero omitted, Abs format (unit mm)*
G04 Created by KiCad (PCBNEW 10.0.5) date 2026-08-25 12:49:40*
%MOMM*%
%LPD*%
G01*
G04 APERTURE LIST*
G04 Aperture macros list*
%AMRoundRect*
0 Rectangle with rounded corners*
0 $1 Rounding radius*
0 $2 $3 $4 $5 $6 $7 $8 $9 X,Y pos of 4 corners*
0 Add a 4 corners polygon primitive as box body*
4,1,4,$2,$3,$4,$5,$6,$7,$8,$9,$2,$3,0*
0 Add four circle primitives for the rounded corners*
1,1,$1+$1,$2,$3*
1,1,$1+$1,$4,$5*
1,1,$1+$1,$6,$7*
1,1,$1+$1,$8,$9*
0 Add four rect primitives between the rounded corners*
20,1,$1+$1,$2,$3,$4,$5,0*
20,1,$1+$1,$4,$5,$6,$7,0*
20,1,$1+$1,$6,$7,$8,$9,0*
20,1,$1+$1,$8,$9,$2,$3,0*%
G04 Aperture macros list end*
G04 #@! TA.AperFunction,ComponentPad*
%ADD10R,1.700000X1.700000*%
G04 #@! TD*
G04 #@! TA.AperFunction,ComponentPad*
%ADD11O,1.700000X1.700000*%
G04 #@! TD*
G04 #@! TA.AperFunction,ComponentPad*
%ADD12C,1.700000*%
G04 #@! TD*
G04 #@! TA.AperFunction,ComponentPad*
%ADD13RoundRect,0.250000X-0.550000X-0.550000X0.550000X-0.550000X0.550000X0.550000X-0.550000X0.550000X0*%
G04 #@! TD*
G04 #@! TA.AperFunction,ComponentPad*
%ADD14C,1.600000*%
G04 #@! TD*
G04 #@! TA.AperFunction,ComponentPad*
%ADD15C,2.000000*%
G04 #@! TD*
G04 #@! TA.AperFunction,ComponentPad*
%ADD16R,1.050000X1.500000*%
G04 #@! TD*
G04 #@! TA.AperFunction,ComponentPad*
%ADD17O,1.050000X1.500000*%
G04 #@! TD*
G04 #@! TA.AperFunction,ComponentPad*
%ADD18C,3.000000*%
G04 #@! TD*
G04 #@! TA.AperFunction,ComponentPad*
%ADD19C,2.500000*%
G04 #@! TD*
G04 #@! TA.AperFunction,ComponentPad*
%ADD20RoundRect,0.250001X1.099999X1.399999X-1.099999X1.399999X-1.099999X-1.399999X1.099999X-1.399999X0*%
G04 #@! TD*
G04 #@! TA.AperFunction,ComponentPad*
%ADD21O,2.700000X3.300000*%
G04 #@! TD*
G04 #@! TA.AperFunction,ViaPad*
%ADD22C,0.800000*%
G04 #@! TD*
G04 #@! TA.AperFunction,ViaPad*
%ADD23C,0.900000*%
G04 #@! TD*
G04 #@! TA.AperFunction,Conductor*
%ADD24C,0.300000*%
G04 #@! TD*
G04 #@! TA.AperFunction,Conductor*
%ADD25C,0.700000*%
G04 #@! TD*
G04 APERTURE END LIST*
D10*
X62000000Y-18000000D03*
D11*
X59460000Y-18000000D03*
X56920000Y-18000000D03*
X54380000Y-18000000D03*
X51840000Y-18000000D03*
X49300000Y-18000000D03*
X46760000Y-18000000D03*
X44220000Y-18000000D03*
X41680000Y-18000000D03*
X39140000Y-18000000D03*
X36600000Y-18000000D03*
X34060000Y-18000000D03*
X31520000Y-18000000D03*
X28980000Y-18000000D03*
X26440000Y-18000000D03*
X23900000Y-18000000D03*
X21360000Y-18000000D03*
X18820000Y-18000000D03*
X16280000Y-18000000D03*
X13740000Y-18000000D03*
X11200000Y-18000000D03*
X8660000Y-18000000D03*
X8660000Y-40860000D03*
X11200000Y-40860000D03*
X13740000Y-40860000D03*
X16280000Y-40860000D03*
X18820000Y-40860000D03*
X21360000Y-40860000D03*
X23900000Y-40860000D03*
X26440000Y-40860000D03*
X28980000Y-40860000D03*
X31520000Y-40860000D03*
X34060000Y-40860000D03*
X36600000Y-40860000D03*
X39140000Y-40860000D03*
X41680000Y-40860000D03*
X44220000Y-40860000D03*
X46760000Y-40860000D03*
X49300000Y-40860000D03*
X51840000Y-40860000D03*
X54380000Y-40860000D03*
X56920000Y-40860000D03*
X59460000Y-40860000D03*
X62000000Y-40860000D03*
D10*
X82000000Y-54000000D03*
D12*
X84540000Y-54000000D03*
X87080000Y-54000000D03*
X89620000Y-54000000D03*
D13*
X76500000Y-21000000D03*
D14*
X84120000Y-21000000D03*
D15*
X25000000Y-49500000D03*
X31500000Y-49500000D03*
X25000000Y-54000000D03*
X31500000Y-54000000D03*
D10*
X64000000Y-54000000D03*
D12*
X66540000Y-54000000D03*
X69080000Y-54000000D03*
D16*
X69000000Y-20400000D03*
D17*
X70270000Y-20400000D03*
X71540000Y-20400000D03*
D10*
X55000000Y-54000000D03*
D12*
X57540000Y-54000000D03*
X60080000Y-54000000D03*
D14*
X66000000Y-25500000D03*
X73620000Y-25500000D03*
D15*
X35000000Y-49500000D03*
X41500000Y-49500000D03*
X35000000Y-54000000D03*
X41500000Y-54000000D03*
D14*
X66000000Y-35500000D03*
X73620000Y-35500000D03*
D13*
X79000000Y-27000000D03*
D14*
X81000000Y-27000000D03*
D18*
X66000000Y-9500000D03*
D19*
X67950000Y-15550000D03*
D18*
X80150000Y-15550000D03*
X80200000Y-3500000D03*
D19*
X67950000Y-3550000D03*
D20*
X57500000Y-11500000D03*
D21*
X53300000Y-11500000D03*
X49100000Y-11500000D03*
X44900000Y-11500000D03*
X40700000Y-11500000D03*
X36500000Y-11500000D03*
X32300000Y-11500000D03*
X28100000Y-11500000D03*
X23900000Y-11500000D03*
X19700000Y-11500000D03*
X15500000Y-11500000D03*
X11300000Y-11500000D03*
X57500000Y-6000000D03*
X53300000Y-6000000D03*
X49100000Y-6000000D03*
X44900000Y-6000000D03*
X40700000Y-6000000D03*
X36500000Y-6000000D03*
X32300000Y-6000000D03*
X28100000Y-6000000D03*
X23900000Y-6000000D03*
X19700000Y-6000000D03*
X15500000Y-6000000D03*
X11300000Y-6000000D03*
D14*
X66000000Y-30500000D03*
X73620000Y-30500000D03*
D10*
X73000000Y-54000000D03*
D12*
X75540000Y-54000000D03*
X78080000Y-54000000D03*
D14*
X66000000Y-40500000D03*
X73620000Y-40500000D03*
X66000000Y-45500000D03*
X73620000Y-45500000D03*
D10*
X92000000Y-19500000D03*
D12*
X92000000Y-22040000D03*
X92000000Y-24580000D03*
X92000000Y-27120000D03*
X92000000Y-29660000D03*
X92000000Y-32200000D03*
X92000000Y-34740000D03*
X92000000Y-37280000D03*
D15*
X45000000Y-49500000D03*
X51500000Y-49500000D03*
X45000000Y-54000000D03*
X51500000Y-54000000D03*
D10*
X9000000Y-54000000D03*
D12*
X11540000Y-54000000D03*
X14080000Y-54000000D03*
X16620000Y-54000000D03*
X19160000Y-54000000D03*
X21700000Y-54000000D03*
D10*
X92000000Y-41000000D03*
D12*
X92000000Y-43540000D03*
X92000000Y-46080000D03*
X92000000Y-48620000D03*
D14*
X78000000Y-34000000D03*
X80500000Y-34000000D03*
D22*
X61083400Y-45500000D03*
D23*
X87245600Y-22210600D03*
D24*
X62000000Y-18000000D02*
X63201700Y-18000000D01*
X59460000Y-18000000D02*
X62000000Y-18000000D01*
X79327000Y-55247000D02*
X90153100Y-55247000D01*
X90857600Y-54542500D02*
X90857600Y-51734300D01*
X92515400Y-28331900D02*
X93251300Y-27596000D01*
X93251300Y-27596000D02*
X93251300Y-23291300D01*
X91447000Y-28331900D02*
X92515400Y-28331900D01*
X90857600Y-51734300D02*
X90758900Y-51635600D01*
X90758900Y-51635600D02*
X90758900Y-44781100D01*
X63201700Y-18000000D02*
X68103400Y-22901700D01*
X93251300Y-23291300D02*
X92000000Y-22040000D01*
X88084100Y-24969000D02*
X91447000Y-28331900D01*
X76750500Y-24969000D02*
X88084100Y-24969000D01*
X74683200Y-22901700D02*
X76750500Y-24969000D01*
X78080000Y-54000000D02*
X79327000Y-55247000D01*
X90758900Y-44781100D02*
X92000000Y-43540000D01*
X90153100Y-55247000D02*
X90857600Y-54542500D01*
X68103400Y-22901700D02*
X74683200Y-22901700D01*
X10201700Y-53624500D02*
X10201700Y-54000000D01*
X25000000Y-49500000D02*
X14326200Y-49500000D01*
X14326200Y-49500000D02*
X10201700Y-53624500D01*
X31500000Y-49500000D02*
X25000000Y-49500000D01*
X9000000Y-54000000D02*
X10201700Y-54000000D01*
X74327700Y-55212300D02*
X67752300Y-55212300D01*
X66000000Y-45500000D02*
X61083400Y-45500000D01*
X75540000Y-54000000D02*
X74327700Y-55212300D01*
X67752300Y-55212300D02*
X66540000Y-54000000D01*
X77153100Y-27105300D02*
X78389900Y-28342100D01*
X45421700Y-18373500D02*
X50953300Y-23905100D01*
X77153100Y-27016800D02*
X77153100Y-27105300D01*
X78389900Y-28342100D02*
X88142100Y-28342100D01*
X45421700Y-18000000D02*
X45421700Y-18373500D01*
X74041400Y-23905100D02*
X77153100Y-27016800D01*
X50953300Y-23905100D02*
X74041400Y-23905100D01*
X88142100Y-28342100D02*
X92000000Y-32200000D01*
X44220000Y-18000000D02*
X45421700Y-18000000D01*
X42881700Y-17626500D02*
X43715200Y-16793000D01*
X57430200Y-16793000D02*
X58190000Y-17552800D01*
X74475500Y-23403400D02*
X76542800Y-25470700D01*
X42881700Y-18000000D02*
X42881700Y-17626500D01*
X43715200Y-16793000D02*
X57430200Y-16793000D01*
X58190000Y-17552800D02*
X58190000Y-18520900D01*
X63072500Y-23403400D02*
X74475500Y-23403400D01*
X58190000Y-18520900D02*
X63072500Y-23403400D01*
X41680000Y-18000000D02*
X42881700Y-18000000D01*
X76542800Y-25470700D02*
X87810700Y-25470700D01*
X87810700Y-25470700D02*
X92000000Y-29660000D01*
X76591800Y-27253400D02*
X78182200Y-28843800D01*
X39140000Y-18000000D02*
X40341700Y-18000000D01*
X49221600Y-27253400D02*
X76591800Y-27253400D01*
X78182200Y-28843800D02*
X86103800Y-28843800D01*
X40341700Y-18373500D02*
X49221600Y-27253400D01*
X86103800Y-28843800D02*
X92000000Y-34740000D01*
X40341700Y-18000000D02*
X40341700Y-18373500D01*
X92000000Y-37280000D02*
X86305900Y-31585900D01*
X47929900Y-28501700D02*
X37801700Y-18373500D01*
X86305900Y-31585900D02*
X80086900Y-31585900D01*
X36600000Y-18000000D02*
X37801700Y-18000000D01*
X37801700Y-18373500D02*
X37801700Y-18000000D01*
X80086900Y-31585900D02*
X77002700Y-28501700D01*
X77002700Y-28501700D02*
X47929900Y-28501700D01*
X89347300Y-24467300D02*
X92000000Y-27120000D01*
X58260000Y-16270700D02*
X58760200Y-16770900D01*
X62664600Y-16582800D02*
X62788600Y-16582800D01*
X35261700Y-18000000D02*
X35261700Y-17624400D01*
X74890900Y-22400000D02*
X76958200Y-24467300D01*
X62788600Y-16582800D02*
X64940900Y-18735100D01*
X76958200Y-24467300D02*
X89347300Y-24467300D01*
X64940900Y-18735100D02*
X64940900Y-18826700D01*
X58760200Y-16770900D02*
X62476500Y-16770900D01*
X62476500Y-16770900D02*
X62664600Y-16582800D01*
X34060000Y-18000000D02*
X35261700Y-18000000D01*
X36615400Y-16270700D02*
X58260000Y-16270700D01*
X68514200Y-22400000D02*
X74890900Y-22400000D01*
X35261700Y-17624400D02*
X36615400Y-16270700D01*
X64940900Y-18826700D02*
X68514200Y-22400000D01*
X75348800Y-21898300D02*
X68724700Y-21898300D01*
X77000500Y-23550000D02*
X75348800Y-21898300D01*
X58717900Y-15769000D02*
X29497200Y-15769000D01*
X68104100Y-21188900D02*
X62934300Y-16019100D01*
X59218100Y-16269200D02*
X58717900Y-15769000D01*
X62518900Y-16019100D02*
X62268800Y-16269200D01*
X62268800Y-16269200D02*
X59218100Y-16269200D01*
X68724700Y-21898300D02*
X68104100Y-21277700D01*
X26440000Y-18000000D02*
X27641700Y-18000000D01*
X92000000Y-24580000D02*
X90970000Y-23550000D01*
X68104100Y-21277700D02*
X68104100Y-21188900D01*
X90970000Y-23550000D02*
X77000500Y-23550000D01*
X29497200Y-15769000D02*
X27641700Y-17624500D01*
X27641700Y-17624500D02*
X27641700Y-18000000D01*
X62934300Y-16019100D02*
X62518900Y-16019100D01*
X89620000Y-54000000D02*
X73118300Y-37498300D01*
X25101700Y-18371800D02*
X25101700Y-18000000D01*
X23900000Y-18000000D02*
X25101700Y-18000000D01*
X73118300Y-37498300D02*
X44228200Y-37498300D01*
X44228200Y-37498300D02*
X25101700Y-18371800D01*
X22561700Y-18373500D02*
X22561700Y-18000000D01*
X21360000Y-18000000D02*
X22561700Y-18000000D01*
X87080000Y-54000000D02*
X75533700Y-42453700D01*
X55650000Y-41381000D02*
X55650000Y-40412800D01*
X54895500Y-39658300D02*
X43846500Y-39658300D01*
X43846500Y-39658300D02*
X22561700Y-18373500D01*
X56722700Y-42453700D02*
X55650000Y-41381000D01*
X75533700Y-42453700D02*
X56722700Y-42453700D01*
X55650000Y-40412800D02*
X54895500Y-39658300D01*
X14080000Y-54000000D02*
X16945200Y-51134800D01*
X33365300Y-51134700D02*
X35000000Y-49500000D01*
X33365300Y-51134800D02*
X33365300Y-51134700D01*
X41500000Y-49500000D02*
X35000000Y-49500000D01*
X16945200Y-51134800D02*
X33365300Y-51134800D01*
X19160000Y-54000000D02*
X21501200Y-51658800D01*
X49341300Y-51658700D02*
X51500000Y-49500000D01*
X45000000Y-49500000D02*
X51500000Y-49500000D01*
X21501200Y-51658800D02*
X49341300Y-51658800D01*
X49341300Y-51658800D02*
X49341300Y-51658700D01*
D25*
X59008500Y-15067300D02*
X26469000Y-15067300D01*
X25801700Y-14400000D02*
X25801700Y-11500000D01*
X14800000Y-14400000D02*
X11200000Y-18000000D01*
X23900000Y-11500000D02*
X25801700Y-11500000D01*
X62228300Y-15317400D02*
X61995700Y-15550000D01*
X59491200Y-15550000D02*
X59008500Y-15067300D01*
X67950000Y-15550000D02*
X67717400Y-15317400D01*
X26469000Y-15067300D02*
X25801700Y-14400000D01*
X61995700Y-15550000D02*
X59491200Y-15550000D01*
X25801700Y-14400000D02*
X14800000Y-14400000D01*
X67717400Y-15317400D02*
X62228300Y-15317400D01*
X16620000Y-54000000D02*
X15167300Y-55452700D01*
X35000000Y-54000000D02*
X31500000Y-54000000D01*
X72212800Y-39092800D02*
X65168900Y-39092800D01*
X32300000Y-6000000D02*
X36500000Y-6000000D01*
X36500000Y-6000000D02*
X40700000Y-6000000D01*
X83598300Y-34000000D02*
X90598300Y-41000000D01*
X62000000Y-40860000D02*
X63401700Y-40860000D01*
X73620000Y-40500000D02*
X72212800Y-39092800D01*
X12992700Y-55452700D02*
X11540000Y-54000000D01*
X80158400Y-32649800D02*
X78799700Y-31291100D01*
X78799700Y-31291000D02*
X74411000Y-31291000D01*
X80158500Y-32649800D02*
X80158400Y-32649800D01*
X32300000Y-6000000D02*
X30398300Y-6000000D01*
X80500000Y-34000000D02*
X80158500Y-33658500D01*
X80158500Y-33658500D02*
X80158500Y-32649800D01*
X41500000Y-54000000D02*
X35000000Y-54000000D01*
X11200000Y-40860000D02*
X8660000Y-40860000D01*
X65168900Y-39092800D02*
X63401700Y-40860000D01*
X31500000Y-54000000D02*
X25000000Y-54000000D01*
X45000000Y-54000000D02*
X41500000Y-54000000D01*
X74411000Y-31291000D02*
X73620000Y-30500000D01*
X30398300Y-5286900D02*
X28872300Y-3760900D01*
X78799700Y-31291100D02*
X78799700Y-31291000D01*
X15167300Y-55452700D02*
X12992700Y-55452700D01*
X14715500Y-3760900D02*
X13201700Y-5274700D01*
X30398300Y-6000000D02*
X30398300Y-5286900D01*
X51500000Y-54000000D02*
X45000000Y-54000000D01*
X13201700Y-5274700D02*
X13201700Y-6000000D01*
X25000000Y-54000000D02*
X21700000Y-54000000D01*
X11300000Y-6000000D02*
X13201700Y-6000000D01*
X60080000Y-54000000D02*
X64000000Y-54000000D01*
X28872300Y-3760900D02*
X14715500Y-3760900D01*
X80500000Y-34000000D02*
X83598300Y-34000000D01*
X92000000Y-41000000D02*
X90598300Y-41000000D01*
D24*
X47488300Y-43491300D02*
X27359500Y-43491300D01*
X23900000Y-40860000D02*
X25101700Y-40860000D01*
X57540000Y-53543000D02*
X47488300Y-43491300D01*
X27359500Y-43491300D02*
X25101700Y-41233500D01*
X57540000Y-54000000D02*
X57540000Y-53543000D01*
X25101700Y-41233500D02*
X25101700Y-40860000D01*
D25*
X31467300Y-13705600D02*
X73254600Y-13705600D01*
X83585000Y-18550000D02*
X87245600Y-22210600D01*
X21601700Y-11500000D02*
X21601700Y-10786900D01*
X19700000Y-11500000D02*
X21601700Y-11500000D01*
X23130500Y-9258100D02*
X28864200Y-9258100D01*
X21601700Y-10786900D02*
X23130500Y-9258100D01*
X28864200Y-9258100D02*
X30200000Y-10593900D01*
X15500000Y-11500000D02*
X19700000Y-11500000D01*
X73254600Y-13705600D02*
X78099000Y-18550000D01*
X30200000Y-12438300D02*
X31467300Y-13705600D01*
X78099000Y-18550000D02*
X83585000Y-18550000D01*
X30200000Y-10593900D02*
X30200000Y-12438300D01*
X84120000Y-21000000D02*
X82737200Y-19617200D01*
X71540000Y-20400000D02*
X72616700Y-20400000D01*
X73399500Y-19617200D02*
X72616700Y-20400000D01*
X82737200Y-19617200D02*
X73399500Y-19617200D01*
X46801700Y-5274700D02*
X46801700Y-6000000D01*
X44900000Y-6000000D02*
X46801700Y-6000000D01*
X60260900Y-3760900D02*
X48315500Y-3760900D01*
X66000000Y-9500000D02*
X60260900Y-3760900D01*
X48315500Y-3760900D02*
X46801700Y-5274700D01*
G04 #@! TA.AperFunction,Conductor*
G36*
X23761008Y-49970185D02*
G01*
X23804453Y-50018204D01*
X23818035Y-50044860D01*
X23887715Y-50181614D01*
X24008028Y-50347213D01*
X24133434Y-50472619D01*
X24166919Y-50533942D01*
X24161935Y-50603634D01*
X24120063Y-50659567D01*
X24054599Y-50683984D01*
X24045753Y-50684300D01*
X16885891Y-50684300D01*
X16807816Y-50705220D01*
X16807815Y-50705219D01*
X16771315Y-50715000D01*
X16771306Y-50715003D01*
X16668592Y-50774305D01*
X16668584Y-50774311D01*
X14565910Y-52876984D01*
X14504587Y-52910469D01*
X14439912Y-52907234D01*
X14349411Y-52877829D01*
X14349412Y-52877829D01*
X14170551Y-52849500D01*
X14170546Y-52849500D01*
X13989454Y-52849500D01*
X13989449Y-52849500D01*
X13810589Y-52877829D01*
X13638363Y-52933787D01*
X13638360Y-52933788D01*
X13477002Y-53016006D01*
X13330505Y-53122441D01*
X13330500Y-53122445D01*
X13202445Y-53250500D01*
X13202441Y-53250505D01*
X13096004Y-53397004D01*
X13028908Y-53528685D01*
X12980933Y-53579480D01*
X12913112Y-53596275D01*
X12846977Y-53573737D01*
X12803527Y-53519021D01*
X12800492Y-53510705D01*
X12791094Y-53481780D01*
X12694624Y-53292449D01*
X12655270Y-53238282D01*
X12655269Y-53238282D01*
X12022962Y-53870590D01*
X12005925Y-53807007D01*
X11940099Y-53692993D01*
X11847007Y-53599901D01*
X11732993Y-53534075D01*
X11669408Y-53517037D01*
X12301716Y-52884728D01*
X12247550Y-52845375D01*
X12058216Y-52748904D01*
X11991160Y-52727116D01*
X11933484Y-52687678D01*
X11906286Y-52623320D01*
X11918201Y-52554473D01*
X11941791Y-52521512D01*
X14476485Y-49986819D01*
X14537808Y-49953334D01*
X14564166Y-49950500D01*
X23693969Y-49950500D01*
X23761008Y-49970185D01*
G37*
G04 #@! TD.AperFunction*
G04 #@! TA.AperFunction,Conductor*
G36*
X20705273Y-51604985D02*
G01*
X20751028Y-51657789D01*
X20760972Y-51726947D01*
X20731947Y-51790503D01*
X20725915Y-51796981D01*
X19645910Y-52876984D01*
X19584587Y-52910469D01*
X19519912Y-52907234D01*
X19429411Y-52877829D01*
X19429412Y-52877829D01*
X19250551Y-52849500D01*
X19250546Y-52849500D01*
X19069454Y-52849500D01*
X19069449Y-52849500D01*
X18890589Y-52877829D01*
X18718363Y-52933787D01*
X18718360Y-52933788D01*
X18557002Y-53016006D01*
X18410505Y-53122441D01*
X18410500Y-53122445D01*
X18282445Y-53250500D01*
X18282441Y-53250505D01*
X18176004Y-53397004D01*
X18108908Y-53528685D01*
X18060933Y-53579480D01*
X17993112Y-53596275D01*
X17926977Y-53573737D01*
X17883527Y-53519021D01*
X17880492Y-53510705D01*
X17871094Y-53481780D01*
X17774624Y-53292449D01*
X17735270Y-53238282D01*
X17735269Y-53238282D01*
X17102962Y-53870590D01*
X17085925Y-53807007D01*
X17020099Y-53692993D01*
X16927007Y-53599901D01*
X16812993Y-53534075D01*
X16749408Y-53517037D01*
X17381716Y-52884728D01*
X17327550Y-52845375D01*
X17138217Y-52748904D01*
X16936129Y-52683242D01*
X16726246Y-52650000D01*
X16513754Y-52650000D01*
X16359980Y-52674355D01*
X16290686Y-52665400D01*
X16237234Y-52620404D01*
X16216595Y-52553652D01*
X16235320Y-52486339D01*
X16252894Y-52464208D01*
X17095485Y-51621619D01*
X17156808Y-51588134D01*
X17183166Y-51585300D01*
X20638234Y-51585300D01*
X20705273Y-51604985D01*
G37*
G04 #@! TD.AperFunction*
G04 #@! TA.AperFunction,Conductor*
G36*
X75081039Y-40102699D02*
G01*
X75103177Y-40120280D01*
X87773480Y-52790583D01*
X87806965Y-52851906D01*
X87801981Y-52921598D01*
X87760109Y-52977531D01*
X87694645Y-53001948D01*
X87629504Y-52988749D01*
X87521639Y-52933788D01*
X87521636Y-52933787D01*
X87349410Y-52877829D01*
X87170551Y-52849500D01*
X87170546Y-52849500D01*
X86989454Y-52849500D01*
X86989449Y-52849500D01*
X86810592Y-52877828D01*
X86720084Y-52907235D01*
X86650243Y-52909229D01*
X86594087Y-52876984D01*
X75810316Y-42093213D01*
X75810314Y-42093211D01*
X75733159Y-42048665D01*
X75707588Y-42033901D01*
X75695480Y-42030657D01*
X75683373Y-42027413D01*
X75683370Y-42027412D01*
X75635629Y-42014620D01*
X75593009Y-42003200D01*
X75593008Y-42003200D01*
X73983422Y-42003200D01*
X73916383Y-41983515D01*
X73870628Y-41930711D01*
X73860684Y-41861553D01*
X73889709Y-41797997D01*
X73945103Y-41761269D01*
X74119031Y-41704755D01*
X74301349Y-41611859D01*
X74345921Y-41579474D01*
X73666447Y-40900000D01*
X73672661Y-40900000D01*
X73774394Y-40872741D01*
X73865606Y-40820080D01*
X73940080Y-40745606D01*
X73992741Y-40654394D01*
X74020000Y-40552661D01*
X74020000Y-40546446D01*
X74699474Y-41225921D01*
X74731859Y-41181349D01*
X74824755Y-40999031D01*
X74887990Y-40804417D01*
X74920000Y-40602317D01*
X74920000Y-40397682D01*
X74893023Y-40227359D01*
X74901977Y-40158066D01*
X74946974Y-40104614D01*
X75013725Y-40083974D01*
X75081039Y-40102699D01*
G37*
G04 #@! TD.AperFunction*
G04 #@! TA.AperFunction,Conductor*
G36*
X72947374Y-37968485D02*
G01*
X72968016Y-37985119D01*
X73999719Y-39016822D01*
X74033204Y-39078145D01*
X74028220Y-39147837D01*
X73986348Y-39203770D01*
X73920884Y-39228187D01*
X73892640Y-39226976D01*
X73722317Y-39200000D01*
X73517683Y-39200000D01*
X73315582Y-39232009D01*
X73120968Y-39295244D01*
X72938644Y-39388143D01*
X72894077Y-39420523D01*
X72894077Y-39420524D01*
X73573554Y-40100000D01*
X73567339Y-40100000D01*
X73465606Y-40127259D01*
X73374394Y-40179920D01*
X73299920Y-40254394D01*
X73247259Y-40345606D01*
X73220000Y-40447339D01*
X73220000Y-40453553D01*
X72540524Y-39774077D01*
X72540523Y-39774077D01*
X72508143Y-39818644D01*
X72415244Y-40000968D01*
X72352009Y-40195582D01*
X72320000Y-40397682D01*
X72320000Y-40602317D01*
X72352009Y-40804417D01*
X72415244Y-40999031D01*
X72508141Y-41181350D01*
X72508147Y-41181359D01*
X72540523Y-41225921D01*
X72540524Y-41225922D01*
X73220000Y-40546446D01*
X73220000Y-40552661D01*
X73247259Y-40654394D01*
X73299920Y-40745606D01*
X73374394Y-40820080D01*
X73465606Y-40872741D01*
X73567339Y-40900000D01*
X73573553Y-40900000D01*
X72894076Y-41579474D01*
X72938650Y-41611859D01*
X73120968Y-41704755D01*
X73294897Y-41761269D01*
X73352572Y-41800707D01*
X73379770Y-41865066D01*
X73367855Y-41933912D01*
X73320611Y-41985388D01*
X73256578Y-42003200D01*
X64024000Y-42003200D01*
X63956961Y-41983515D01*
X63911206Y-41930711D01*
X63900000Y-41879200D01*
X63900000Y-40413389D01*
X64899500Y-40413389D01*
X64899500Y-40586611D01*
X64907677Y-40638239D01*
X64925485Y-40750678D01*
X64926598Y-40757701D01*
X64980127Y-40922445D01*
X65058768Y-41076788D01*
X65160586Y-41216928D01*
X65283072Y-41339414D01*
X65423212Y-41441232D01*
X65577555Y-41519873D01*
X65742299Y-41573402D01*
X65913389Y-41600500D01*
X65913390Y-41600500D01*
X66086610Y-41600500D01*
X66086611Y-41600500D01*
X66257701Y-41573402D01*
X66422445Y-41519873D01*
X66576788Y-41441232D01*
X66716928Y-41339414D01*
X66839414Y-41216928D01*
X66941232Y-41076788D01*
X67019873Y-40922445D01*
X67073402Y-40757701D01*
X67100500Y-40586611D01*
X67100500Y-40413389D01*
X67073402Y-40242299D01*
X67019873Y-40077555D01*
X66941232Y-39923212D01*
X66839414Y-39783072D01*
X66716928Y-39660586D01*
X66576788Y-39558768D01*
X66422445Y-39480127D01*
X66257701Y-39426598D01*
X66257699Y-39426597D01*
X66257698Y-39426597D01*
X66126271Y-39405781D01*
X66086611Y-39399500D01*
X65913389Y-39399500D01*
X65873728Y-39405781D01*
X65742302Y-39426597D01*
X65577552Y-39480128D01*
X65423211Y-39558768D01*
X65355094Y-39608259D01*
X65283072Y-39660586D01*
X65283070Y-39660588D01*
X65283069Y-39660588D01*
X65160588Y-39783069D01*
X65160588Y-39783070D01*
X65160586Y-39783072D01*
X65126293Y-39830272D01*
X65058768Y-39923211D01*
X64980128Y-40077552D01*
X64926597Y-40242302D01*
X64919186Y-40289095D01*
X64899500Y-40413389D01*
X63900000Y-40413389D01*
X63900000Y-38072800D01*
X63919685Y-38005761D01*
X63972489Y-37960006D01*
X64024000Y-37948800D01*
X72880335Y-37948800D01*
X72947374Y-37968485D01*
G37*
G04 #@! TD.AperFunction*
G04 #@! TA.AperFunction,Conductor*
G36*
X10734075Y-40667007D02*
G01*
X10700000Y-40794174D01*
X10700000Y-40925826D01*
X10734075Y-41052993D01*
X10766988Y-41110000D01*
X9093012Y-41110000D01*
X9125925Y-41052993D01*
X9160000Y-40925826D01*
X9160000Y-40794174D01*
X9125925Y-40667007D01*
X9093012Y-40610000D01*
X10766988Y-40610000D01*
X10734075Y-40667007D01*
G37*
G04 #@! TD.AperFunction*
G04 #@! TA.AperFunction,Conductor*
G36*
X87639774Y-25940885D02*
G01*
X87660416Y-25957519D01*
X90876984Y-29174087D01*
X90910469Y-29235410D01*
X90907235Y-29300084D01*
X90877828Y-29390592D01*
X90849500Y-29569448D01*
X90849500Y-29750551D01*
X90877829Y-29929410D01*
X90933787Y-30101636D01*
X90933788Y-30101639D01*
X90988749Y-30209504D01*
X91001645Y-30278173D01*
X90975369Y-30342914D01*
X90918262Y-30383171D01*
X90848457Y-30386163D01*
X90790583Y-30353480D01*
X88418716Y-27981613D01*
X88418714Y-27981611D01*
X88315987Y-27922301D01*
X88277919Y-27912101D01*
X88277916Y-27912100D01*
X88235900Y-27900842D01*
X88201409Y-27891600D01*
X88201408Y-27891600D01*
X82202468Y-27891600D01*
X82135429Y-27871915D01*
X82089674Y-27819111D01*
X82079730Y-27749953D01*
X82102149Y-27694716D01*
X82111858Y-27681351D01*
X82204755Y-27499031D01*
X82267990Y-27304417D01*
X82300000Y-27102317D01*
X82300000Y-26897682D01*
X82267990Y-26695582D01*
X82204755Y-26500968D01*
X82111859Y-26318650D01*
X82079474Y-26274077D01*
X82079474Y-26274076D01*
X81400000Y-26953551D01*
X81400000Y-26947339D01*
X81372741Y-26845606D01*
X81320080Y-26754394D01*
X81245606Y-26679920D01*
X81154394Y-26627259D01*
X81052661Y-26600000D01*
X81046446Y-26600000D01*
X81688928Y-25957519D01*
X81750251Y-25924034D01*
X81776609Y-25921200D01*
X87572735Y-25921200D01*
X87639774Y-25940885D01*
G37*
G04 #@! TD.AperFunction*
G04 #@! TA.AperFunction,Conductor*
G36*
X73000831Y-14375785D02*
G01*
X73021473Y-14392419D01*
X75280024Y-16650970D01*
X77384074Y-18755019D01*
X77417559Y-18816342D01*
X77412575Y-18886034D01*
X77370703Y-18941967D01*
X77305239Y-18966384D01*
X77296393Y-18966700D01*
X73335429Y-18966700D01*
X73209761Y-18991697D01*
X73209755Y-18991699D01*
X73091370Y-19040735D01*
X72984831Y-19111922D01*
X72984824Y-19111928D01*
X72394901Y-19701852D01*
X72333578Y-19735337D01*
X72263886Y-19730353D01*
X72207953Y-19688481D01*
X72204118Y-19683061D01*
X72181211Y-19648779D01*
X72181205Y-19648771D01*
X72066228Y-19533794D01*
X72066220Y-19533788D01*
X71931023Y-19443452D01*
X71931019Y-19443450D01*
X71780793Y-19381225D01*
X71780783Y-19381222D01*
X71621307Y-19349500D01*
X71621305Y-19349500D01*
X71458695Y-19349500D01*
X71458693Y-19349500D01*
X71299216Y-19381222D01*
X71299206Y-19381225D01*
X71148980Y-19443450D01*
X71148976Y-19443452D01*
X71013779Y-19533788D01*
X71013771Y-19533794D01*
X70992681Y-19554885D01*
X70931358Y-19588370D01*
X70861666Y-19583386D01*
X70817319Y-19554885D01*
X70796228Y-19533794D01*
X70796220Y-19533788D01*
X70661023Y-19443452D01*
X70661019Y-19443450D01*
X70510793Y-19381225D01*
X70510783Y-19381222D01*
X70351307Y-19349500D01*
X70351305Y-19349500D01*
X70188695Y-19349500D01*
X70188692Y-19349500D01*
X70035484Y-19379975D01*
X69965893Y-19373748D01*
X69912026Y-19332669D01*
X69882187Y-19292810D01*
X69882186Y-19292809D01*
X69767088Y-19206647D01*
X69767086Y-19206645D01*
X69632379Y-19156403D01*
X69632372Y-19156401D01*
X69572844Y-19150000D01*
X69250000Y-19150000D01*
X69250000Y-20119670D01*
X69230255Y-20099925D01*
X69144745Y-20050556D01*
X69049370Y-20025000D01*
X68950630Y-20025000D01*
X68855255Y-20050556D01*
X68769745Y-20099925D01*
X68750000Y-20119670D01*
X68750000Y-19150000D01*
X68427155Y-19150000D01*
X68367627Y-19156401D01*
X68367620Y-19156403D01*
X68232913Y-19206645D01*
X68232906Y-19206649D01*
X68117812Y-19292809D01*
X68117809Y-19292812D01*
X68031649Y-19407906D01*
X68031645Y-19407913D01*
X67981403Y-19542620D01*
X67981401Y-19542627D01*
X67975000Y-19602155D01*
X67975000Y-20123334D01*
X67955315Y-20190373D01*
X67902511Y-20236128D01*
X67833353Y-20246072D01*
X67769797Y-20217047D01*
X67763319Y-20211015D01*
X63936319Y-16384015D01*
X63902834Y-16322692D01*
X63900441Y-16300441D01*
X63898476Y-16298476D01*
X63836626Y-16280315D01*
X63815984Y-16263681D01*
X63731884Y-16179581D01*
X63698399Y-16118258D01*
X63703383Y-16048566D01*
X63745255Y-15992633D01*
X63810719Y-15968216D01*
X63819565Y-15967900D01*
X66365401Y-15967900D01*
X66432440Y-15987585D01*
X66478195Y-16040389D01*
X66483332Y-16053581D01*
X66513097Y-16145189D01*
X66581948Y-16280315D01*
X66616280Y-16347696D01*
X66623896Y-16362642D01*
X66767339Y-16560076D01*
X66767343Y-16560081D01*
X66939918Y-16732656D01*
X66939923Y-16732660D01*
X67087512Y-16839889D01*
X67137361Y-16876106D01*
X67354815Y-16986904D01*
X67586924Y-17062321D01*
X67827973Y-17100500D01*
X67827974Y-17100500D01*
X68072026Y-17100500D01*
X68072027Y-17100500D01*
X68313076Y-17062321D01*
X68545185Y-16986904D01*
X68762639Y-16876106D01*
X68960083Y-16732655D01*
X69132655Y-16560083D01*
X69276106Y-16362639D01*
X69386904Y-16145185D01*
X69462321Y-15913076D01*
X69500500Y-15672027D01*
X69500500Y-15427973D01*
X69462321Y-15186924D01*
X69386904Y-14954815D01*
X69276106Y-14737361D01*
X69218775Y-14658451D01*
X69142150Y-14552985D01*
X69118670Y-14487179D01*
X69134496Y-14419125D01*
X69184601Y-14370430D01*
X69242468Y-14356100D01*
X72933792Y-14356100D01*
X73000831Y-14375785D01*
G37*
G04 #@! TD.AperFunction*
G04 #@! TA.AperFunction,Conductor*
G36*
X94030288Y-509439D02*
G01*
X94164833Y-565169D01*
X94177355Y-571198D01*
X94343443Y-662992D01*
X94430124Y-710899D01*
X94441898Y-718297D01*
X94677439Y-885422D01*
X94688307Y-894090D01*
X94903641Y-1086526D01*
X94913473Y-1096358D01*
X95105909Y-1311692D01*
X95114580Y-1322564D01*
X95281702Y-1558101D01*
X95289100Y-1569875D01*
X95428797Y-1822637D01*
X95434830Y-1835165D01*
X95490561Y-1969710D01*
X95500000Y-2017163D01*
X95500000Y-61982835D01*
X95490561Y-62030288D01*
X95434830Y-62164834D01*
X95428797Y-62177362D01*
X95289100Y-62430124D01*
X95281702Y-62441898D01*
X95114580Y-62677435D01*
X95105909Y-62688307D01*
X94913473Y-62903641D01*
X94903641Y-62913473D01*
X94688307Y-63105909D01*
X94677435Y-63114580D01*
X94441898Y-63281702D01*
X94430124Y-63289100D01*
X94177362Y-63428797D01*
X94164834Y-63434830D01*
X94030289Y-63490561D01*
X93982836Y-63500000D01*
X2017164Y-63500000D01*
X1969711Y-63490561D01*
X1835165Y-63434830D01*
X1822637Y-63428797D01*
X1569875Y-63289100D01*
X1558101Y-63281702D01*
X1322564Y-63114580D01*
X1311692Y-63105909D01*
X1096358Y-62913473D01*
X1086526Y-62903641D01*
X894090Y-62688307D01*
X885419Y-62677435D01*
X718297Y-62441898D01*
X710899Y-62430124D01*
X571202Y-62177362D01*
X565169Y-62164834D01*
X509439Y-62030288D01*
X509439Y-62030287D01*
X500000Y-61982835D01*
X500000Y-59378711D01*
X2649500Y-59378711D01*
X2649500Y-59621288D01*
X2681161Y-59861785D01*
X2743947Y-60096104D01*
X2836773Y-60320205D01*
X2836776Y-60320212D01*
X2958064Y-60530289D01*
X2958066Y-60530292D01*
X2958067Y-60530293D01*
X3105733Y-60722736D01*
X3105739Y-60722743D01*
X3277256Y-60894260D01*
X3277262Y-60894265D01*
X3469711Y-61041936D01*
X3679788Y-61163224D01*
X3903900Y-61256054D01*
X4138211Y-61318838D01*
X4318586Y-61342584D01*
X4378711Y-61350500D01*
X4378712Y-61350500D01*
X4621289Y-61350500D01*
X4669388Y-61344167D01*
X4861789Y-61318838D01*
X5096100Y-61256054D01*
X5320212Y-61163224D01*
X5530289Y-61041936D01*
X5722738Y-60894265D01*
X5894265Y-60722738D01*
X6041936Y-60530289D01*
X6163224Y-60320212D01*
X6256054Y-60096100D01*
X6318838Y-59861789D01*
X6350500Y-59621288D01*
X6350500Y-59378712D01*
X6350500Y-59378711D01*
X89649500Y-59378711D01*
X89649500Y-59621288D01*
X89681161Y-59861785D01*
X89743947Y-60096104D01*
X89836773Y-60320205D01*
X89836776Y-60320212D01*
X89958064Y-60530289D01*
X89958066Y-60530292D01*
X89958067Y-60530293D01*
X90105733Y-60722736D01*
X90105739Y-60722743D01*
X90277256Y-60894260D01*
X90277262Y-60894265D01*
X90469711Y-61041936D01*
X90679788Y-61163224D01*
X90903900Y-61256054D01*
X91138211Y-61318838D01*
X91318586Y-61342584D01*
X91378711Y-61350500D01*
X91378712Y-61350500D01*
X91621289Y-61350500D01*
X91669388Y-61344167D01*
X91861789Y-61318838D01*
X92096100Y-61256054D01*
X92320212Y-61163224D01*
X92530289Y-61041936D01*
X92722738Y-60894265D01*
X92894265Y-60722738D01*
X93041936Y-60530289D01*
X93163224Y-60320212D01*
X93256054Y-60096100D01*
X93318838Y-59861789D01*
X93350500Y-59621288D01*
X93350500Y-59378712D01*
X93318838Y-59138211D01*
X93256054Y-58903900D01*
X93163224Y-58679788D01*
X93041936Y-58469711D01*
X92894265Y-58277262D01*
X92894260Y-58277256D01*
X92722743Y-58105739D01*
X92722736Y-58105733D01*
X92530293Y-57958067D01*
X92530292Y-57958066D01*
X92530289Y-57958064D01*
X92320212Y-57836776D01*
X92320205Y-57836773D01*
X92096104Y-57743947D01*
X91861785Y-57681161D01*
X91621289Y-57649500D01*
X91621288Y-57649500D01*
X91378712Y-57649500D01*
X91378711Y-57649500D01*
X91138214Y-57681161D01*
X90903895Y-57743947D01*
X90679794Y-57836773D01*
X90679785Y-57836777D01*
X90469706Y-57958067D01*
X90277263Y-58105733D01*
X90277256Y-58105739D01*
X90105739Y-58277256D01*
X90105733Y-58277263D01*
X89958067Y-58469706D01*
X89836777Y-58679785D01*
X89836773Y-58679794D01*
X89743947Y-58903895D01*
X89681161Y-59138214D01*
X89649500Y-59378711D01*
X6350500Y-59378711D01*
X6318838Y-59138211D01*
X6256054Y-58903900D01*
X6163224Y-58679788D01*
X6041936Y-58469711D01*
X5894265Y-58277262D01*
X5894260Y-58277256D01*
X5722743Y-58105739D01*
X5722736Y-58105733D01*
X5530293Y-57958067D01*
X5530292Y-57958066D01*
X5530289Y-57958064D01*
X5320212Y-57836776D01*
X5320205Y-57836773D01*
X5096104Y-57743947D01*
X4861785Y-57681161D01*
X4621289Y-57649500D01*
X4621288Y-57649500D01*
X4378712Y-57649500D01*
X4378711Y-57649500D01*
X4138214Y-57681161D01*
X3903895Y-57743947D01*
X3679794Y-57836773D01*
X3679785Y-57836777D01*
X3469706Y-57958067D01*
X3277263Y-58105733D01*
X3277256Y-58105739D01*
X3105739Y-58277256D01*
X3105733Y-58277263D01*
X2958067Y-58469706D01*
X2836777Y-58679785D01*
X2836773Y-58679794D01*
X2743947Y-58903895D01*
X2681161Y-59138214D01*
X2649500Y-59378711D01*
X500000Y-59378711D01*
X500000Y-17750000D01*
X7332769Y-17750000D01*
X8226988Y-17750000D01*
X8194075Y-17807007D01*
X8160000Y-17934174D01*
X8160000Y-18065826D01*
X8194075Y-18192993D01*
X8226988Y-18250000D01*
X7332769Y-18250000D01*
X7343242Y-18316126D01*
X7343242Y-18316129D01*
X7408904Y-18518217D01*
X7505379Y-18707557D01*
X7630272Y-18879459D01*
X7630276Y-18879464D01*
X7780535Y-19029723D01*
X7780540Y-19029727D01*
X7952442Y-19154620D01*
X8141782Y-19251095D01*
X8343871Y-19316757D01*
X8410000Y-19327231D01*
X8410000Y-18433012D01*
X8467007Y-18465925D01*
X8594174Y-18500000D01*
X8725826Y-18500000D01*
X8852993Y-18465925D01*
X8910000Y-18433012D01*
X8910000Y-19327230D01*
X8976126Y-19316757D01*
X8976129Y-19316757D01*
X9178217Y-19251095D01*
X9367557Y-19154620D01*
X9539459Y-19029727D01*
X9539464Y-19029723D01*
X9689723Y-18879464D01*
X9689727Y-18879459D01*
X9814620Y-18707557D01*
X9911095Y-18518217D01*
X9920492Y-18489295D01*
X9959928Y-18431618D01*
X10024286Y-18404419D01*
X10093133Y-18416331D01*
X10144610Y-18463574D01*
X10148908Y-18471314D01*
X10216004Y-18602995D01*
X10322441Y-18749494D01*
X10322445Y-18749499D01*
X10450500Y-18877554D01*
X10450505Y-18877558D01*
X10572765Y-18966384D01*
X10597006Y-18983996D01*
X10686750Y-19029723D01*
X10758360Y-19066211D01*
X10758363Y-19066212D01*
X10844476Y-19094191D01*
X10930591Y-19122171D01*
X11013429Y-19135291D01*
X11109449Y-19150500D01*
X11109454Y-19150500D01*
X11290551Y-19150500D01*
X11377259Y-19136765D01*
X11469409Y-19122171D01*
X11641639Y-19066211D01*
X11802994Y-18983996D01*
X11949501Y-18877553D01*
X12077553Y-18749501D01*
X12183996Y-18602994D01*
X12266211Y-18441639D01*
X12322171Y-18269409D01*
X12336422Y-18179425D01*
X12347527Y-18109321D01*
X12377456Y-18046186D01*
X12436768Y-18009255D01*
X12506630Y-18010253D01*
X12564863Y-18048863D01*
X12592473Y-18109321D01*
X12617829Y-18269410D01*
X12673787Y-18441636D01*
X12673788Y-18441639D01*
X12725242Y-18542620D01*
X12755585Y-18602172D01*
X12756006Y-18602997D01*
X12862441Y-18749494D01*
X12862445Y-18749499D01*
X12990500Y-18877554D01*
X12990505Y-18877558D01*
X13112765Y-18966384D01*
X13137006Y-18983996D01*
X13226750Y-19029723D01*
X13298360Y-19066211D01*
X13298363Y-19066212D01*
X13384476Y-19094191D01*
X13470591Y-19122171D01*
X13553429Y-19135291D01*
X13649449Y-19150500D01*
X13649454Y-19150500D01*
X13830551Y-19150500D01*
X13917259Y-19136765D01*
X14009409Y-19122171D01*
X14181639Y-19066211D01*
X14342994Y-18983996D01*
X14489501Y-18877553D01*
X14617553Y-18749501D01*
X14723996Y-18602994D01*
X14806211Y-18441639D01*
X14862171Y-18269409D01*
X14876422Y-18179425D01*
X14887527Y-18109321D01*
X14917456Y-18046186D01*
X14976768Y-18009255D01*
X15046630Y-18010253D01*
X15104863Y-18048863D01*
X15132473Y-18109321D01*
X15157829Y-18269410D01*
X15213787Y-18441636D01*
X15213788Y-18441639D01*
X15265242Y-18542620D01*
X15295585Y-18602172D01*
X15296006Y-18602997D01*
X15402441Y-18749494D01*
X15402445Y-18749499D01*
X15530500Y-18877554D01*
X15530505Y-18877558D01*
X15652765Y-18966384D01*
X15677006Y-18983996D01*
X15766750Y-19029723D01*
X15838360Y-19066211D01*
X15838363Y-19066212D01*
X15924476Y-19094191D01*
X16010591Y-19122171D01*
X16093429Y-19135291D01*
X16189449Y-19150500D01*
X16189454Y-19150500D01*
X16370551Y-19150500D01*
X16457259Y-19136765D01*
X16549409Y-19122171D01*
X16721639Y-19066211D01*
X16882994Y-18983996D01*
X17029501Y-18877553D01*
X17157553Y-18749501D01*
X17263996Y-18602994D01*
X17346211Y-18441639D01*
X17402171Y-18269409D01*
X17416422Y-18179425D01*
X17427527Y-18109321D01*
X17457456Y-18046186D01*
X17516768Y-18009255D01*
X17586630Y-18010253D01*
X17644863Y-18048863D01*
X17672473Y-18109321D01*
X17697829Y-18269410D01*
X17753787Y-18441636D01*
X17753788Y-18441639D01*
X17805242Y-18542620D01*
X17835585Y-18602172D01*
X17836006Y-18602997D01*
X17942441Y-18749494D01*
X17942445Y-18749499D01*
X18070500Y-18877554D01*
X18070505Y-18877558D01*
X18192765Y-18966384D01*
X18217006Y-18983996D01*
X18306750Y-19029723D01*
X18378360Y-19066211D01*
X18378363Y-19066212D01*
X18464476Y-19094191D01*
X18550591Y-19122171D01*
X18633429Y-19135291D01*
X18729449Y-19150500D01*
X18729454Y-19150500D01*
X18910551Y-19150500D01*
X18997259Y-19136765D01*
X19089409Y-19122171D01*
X19261639Y-19066211D01*
X19422994Y-18983996D01*
X19569501Y-18877553D01*
X19697553Y-18749501D01*
X19803996Y-18602994D01*
X19886211Y-18441639D01*
X19942171Y-18269409D01*
X19956422Y-18179425D01*
X19967527Y-18109321D01*
X19997456Y-18046186D01*
X20056768Y-18009255D01*
X20126630Y-18010253D01*
X20184863Y-18048863D01*
X20212473Y-18109321D01*
X20237829Y-18269410D01*
X20293787Y-18441636D01*
X20293788Y-18441639D01*
X20345242Y-18542620D01*
X20375585Y-18602172D01*
X20376006Y-18602997D01*
X20482441Y-18749494D01*
X20482445Y-18749499D01*
X20610500Y-18877554D01*
X20610505Y-18877558D01*
X20732765Y-18966384D01*
X20757006Y-18983996D01*
X20846750Y-19029723D01*
X20918360Y-19066211D01*
X20918363Y-19066212D01*
X21004476Y-19094191D01*
X21090591Y-19122171D01*
X21173429Y-19135291D01*
X21269449Y-19150500D01*
X21269454Y-19150500D01*
X21450551Y-19150500D01*
X21537259Y-19136765D01*
X21629409Y-19122171D01*
X21801639Y-19066211D01*
X21962994Y-18983996D01*
X22109501Y-18877553D01*
X22181397Y-18805656D01*
X22242716Y-18772174D01*
X22312408Y-18777158D01*
X22356756Y-18805659D01*
X43414339Y-39863243D01*
X43447824Y-39924566D01*
X43442840Y-39994258D01*
X43414340Y-40038604D01*
X43342445Y-40110500D01*
X43342441Y-40110505D01*
X43236006Y-40257002D01*
X43153788Y-40418360D01*
X43153787Y-40418363D01*
X43097829Y-40590589D01*
X43072473Y-40750678D01*
X43042544Y-40813813D01*
X42983232Y-40850744D01*
X42913369Y-40849746D01*
X42855137Y-40811136D01*
X42827527Y-40750678D01*
X42804028Y-40602317D01*
X42802171Y-40590591D01*
X42758530Y-40456275D01*
X42746212Y-40418363D01*
X42746211Y-40418360D01*
X42680346Y-40289095D01*
X42663996Y-40257006D01*
X42631911Y-40212844D01*
X42557558Y-40110505D01*
X42557554Y-40110500D01*
X42429499Y-39982445D01*
X42429494Y-39982441D01*
X42282997Y-39876006D01*
X42282996Y-39876005D01*
X42282994Y-39876004D01*
X42231300Y-39849664D01*
X42121639Y-39793788D01*
X42121636Y-39793787D01*
X41949410Y-39737829D01*
X41770551Y-39709500D01*
X41770546Y-39709500D01*
X41589454Y-39709500D01*
X41589449Y-39709500D01*
X41410589Y-39737829D01*
X41238363Y-39793787D01*
X41238360Y-39793788D01*
X41077002Y-39876006D01*
X40930505Y-39982441D01*
X40930500Y-39982445D01*
X40802445Y-40110500D01*
X40802441Y-40110505D01*
X40696006Y-40257002D01*
X40613788Y-40418360D01*
X40613787Y-40418363D01*
X40557829Y-40590589D01*
X40532473Y-40750678D01*
X40502544Y-40813813D01*
X40443232Y-40850744D01*
X40373369Y-40849746D01*
X40315137Y-40811136D01*
X40287527Y-40750678D01*
X40264028Y-40602317D01*
X40262171Y-40590591D01*
X40218530Y-40456275D01*
X40206212Y-40418363D01*
X40206211Y-40418360D01*
X40140346Y-40289095D01*
X40123996Y-40257006D01*
X40091911Y-40212844D01*
X40017558Y-40110505D01*
X40017554Y-40110500D01*
X39889499Y-39982445D01*
X39889494Y-39982441D01*
X39742997Y-39876006D01*
X39742996Y-39876005D01*
X39742994Y-39876004D01*
X39691300Y-39849664D01*
X39581639Y-39793788D01*
X39581636Y-39793787D01*
X39409410Y-39737829D01*
X39230551Y-39709500D01*
X39230546Y-39709500D01*
X39049454Y-39709500D01*
X39049449Y-39709500D01*
X38870589Y-39737829D01*
X38698363Y-39793787D01*
X38698360Y-39793788D01*
X38537002Y-39876006D01*
X38390505Y-39982441D01*
X38390500Y-39982445D01*
X38262445Y-40110500D01*
X38262441Y-40110505D01*
X38156006Y-40257002D01*
X38073788Y-40418360D01*
X38073787Y-40418363D01*
X38017829Y-40590589D01*
X37992473Y-40750678D01*
X37962544Y-40813813D01*
X37903232Y-40850744D01*
X37833369Y-40849746D01*
X37775137Y-40811136D01*
X37747527Y-40750678D01*
X37724028Y-40602317D01*
X37722171Y-40590591D01*
X37678530Y-40456275D01*
X37666212Y-40418363D01*
X37666211Y-40418360D01*
X37600346Y-40289095D01*
X37583996Y-40257006D01*
X37551911Y-40212844D01*
X37477558Y-40110505D01*
X37477554Y-40110500D01*
X37349499Y-39982445D01*
X37349494Y-39982441D01*
X37202997Y-39876006D01*
X37202996Y-39876005D01*
X37202994Y-39876004D01*
X37151300Y-39849664D01*
X37041639Y-39793788D01*
X37041636Y-39793787D01*
X36869410Y-39737829D01*
X36690551Y-39709500D01*
X36690546Y-39709500D01*
X36509454Y-39709500D01*
X36509449Y-39709500D01*
X36330589Y-39737829D01*
X36158363Y-39793787D01*
X36158360Y-39793788D01*
X35997002Y-39876006D01*
X35850505Y-39982441D01*
X35850500Y-39982445D01*
X35722445Y-40110500D01*
X35722441Y-40110505D01*
X35616006Y-40257002D01*
X35533788Y-40418360D01*
X35533787Y-40418363D01*
X35477829Y-40590589D01*
X35452473Y-40750678D01*
X35422544Y-40813813D01*
X35363232Y-40850744D01*
X35293369Y-40849746D01*
X35235137Y-40811136D01*
X35207527Y-40750678D01*
X35184028Y-40602317D01*
X35182171Y-40590591D01*
X35138530Y-40456275D01*
X35126212Y-40418363D01*
X35126211Y-40418360D01*
X35060346Y-40289095D01*
X35043996Y-40257006D01*
X35011911Y-40212844D01*
X34937558Y-40110505D01*
X34937554Y-40110500D01*
X34809499Y-39982445D01*
X34809494Y-39982441D01*
X34662997Y-39876006D01*
X34662996Y-39876005D01*
X34662994Y-39876004D01*
X34611300Y-39849664D01*
X34501639Y-39793788D01*
X34501636Y-39793787D01*
X34329410Y-39737829D01*
X34150551Y-39709500D01*
X34150546Y-39709500D01*
X33969454Y-39709500D01*
X33969449Y-39709500D01*
X33790589Y-39737829D01*
X33618363Y-39793787D01*
X33618360Y-39793788D01*
X33457002Y-39876006D01*
X33310505Y-39982441D01*
X33310500Y-39982445D01*
X33182445Y-40110500D01*
X33182441Y-40110505D01*
X33076006Y-40257002D01*
X32993788Y-40418360D01*
X32993787Y-40418363D01*
X32937829Y-40590589D01*
X32912473Y-40750678D01*
X32882544Y-40813813D01*
X32823232Y-40850744D01*
X32753369Y-40849746D01*
X32695137Y-40811136D01*
X32667527Y-40750678D01*
X32644028Y-40602317D01*
X32642171Y-40590591D01*
X32598530Y-40456275D01*
X32586212Y-40418363D01*
X32586211Y-40418360D01*
X32520346Y-40289095D01*
X32503996Y-40257006D01*
X32471911Y-40212844D01*
X32397558Y-40110505D01*
X32397554Y-40110500D01*
X32269499Y-39982445D01*
X32269494Y-39982441D01*
X32122997Y-39876006D01*
X32122996Y-39876005D01*
X32122994Y-39876004D01*
X32071300Y-39849664D01*
X31961639Y-39793788D01*
X31961636Y-39793787D01*
X31789410Y-39737829D01*
X31610551Y-39709500D01*
X31610546Y-39709500D01*
X31429454Y-39709500D01*
X31429449Y-39709500D01*
X31250589Y-39737829D01*
X31078363Y-39793787D01*
X31078360Y-39793788D01*
X30917002Y-39876006D01*
X30770505Y-39982441D01*
X30770500Y-39982445D01*
X30642445Y-40110500D01*
X30642441Y-40110505D01*
X30536006Y-40257002D01*
X30453788Y-40418360D01*
X30453787Y-40418363D01*
X30397829Y-40590589D01*
X30372473Y-40750678D01*
X30342544Y-40813813D01*
X30283232Y-40850744D01*
X30213369Y-40849746D01*
X30155137Y-40811136D01*
X30127527Y-40750678D01*
X30104028Y-40602317D01*
X30102171Y-40590591D01*
X30058530Y-40456275D01*
X30046212Y-40418363D01*
X30046211Y-40418360D01*
X29980346Y-40289095D01*
X29963996Y-40257006D01*
X29931911Y-40212844D01*
X29857558Y-40110505D01*
X29857554Y-40110500D01*
X29729499Y-39982445D01*
X29729494Y-39982441D01*
X29582997Y-39876006D01*
X29582996Y-39876005D01*
X29582994Y-39876004D01*
X29531300Y-39849664D01*
X29421639Y-39793788D01*
X29421636Y-39793787D01*
X29249410Y-39737829D01*
X29070551Y-39709500D01*
X29070546Y-39709500D01*
X28889454Y-39709500D01*
X28889449Y-39709500D01*
X28710589Y-39737829D01*
X28538363Y-39793787D01*
X28538360Y-39793788D01*
X28377002Y-39876006D01*
X28230505Y-39982441D01*
X28230500Y-39982445D01*
X28102445Y-40110500D01*
X28102441Y-40110505D01*
X27996006Y-40257002D01*
X27913788Y-40418360D01*
X27913787Y-40418363D01*
X27857829Y-40590589D01*
X27832473Y-40750678D01*
X27802544Y-40813813D01*
X27743232Y-40850744D01*
X27673369Y-40849746D01*
X27615137Y-40811136D01*
X27587527Y-40750678D01*
X27564028Y-40602317D01*
X27562171Y-40590591D01*
X27518530Y-40456275D01*
X27506212Y-40418363D01*
X27506211Y-40418360D01*
X27440346Y-40289095D01*
X27423996Y-40257006D01*
X27391911Y-40212844D01*
X27317558Y-40110505D01*
X27317554Y-40110500D01*
X27189499Y-39982445D01*
X27189494Y-39982441D01*
X27042997Y-39876006D01*
X27042996Y-39876005D01*
X27042994Y-39876004D01*
X26991300Y-39849664D01*
X26881639Y-39793788D01*
X26881636Y-39793787D01*
X26709410Y-39737829D01*
X26530551Y-39709500D01*
X26530546Y-39709500D01*
X26349454Y-39709500D01*
X26349449Y-39709500D01*
X26170589Y-39737829D01*
X25998363Y-39793787D01*
X25998360Y-39793788D01*
X25837002Y-39876006D01*
X25690505Y-39982441D01*
X25690500Y-39982445D01*
X25562445Y-40110500D01*
X25562441Y-40110505D01*
X25456006Y-40257002D01*
X25397788Y-40371261D01*
X25349813Y-40422057D01*
X25281992Y-40438852D01*
X25255210Y-40434741D01*
X25194086Y-40418363D01*
X25161009Y-40409500D01*
X25161008Y-40409500D01*
X25037683Y-40409500D01*
X24970644Y-40389815D01*
X24927198Y-40341795D01*
X24883996Y-40257006D01*
X24883994Y-40257003D01*
X24883993Y-40257001D01*
X24777558Y-40110505D01*
X24777554Y-40110500D01*
X24649499Y-39982445D01*
X24649494Y-39982441D01*
X24502997Y-39876006D01*
X24502996Y-39876005D01*
X24502994Y-39876004D01*
X24451300Y-39849664D01*
X24341639Y-39793788D01*
X24341636Y-39793787D01*
X24169410Y-39737829D01*
X23990551Y-39709500D01*
X23990546Y-39709500D01*
X23809454Y-39709500D01*
X23809449Y-39709500D01*
X23630589Y-39737829D01*
X23458363Y-39793787D01*
X23458360Y-39793788D01*
X23297002Y-39876006D01*
X23150505Y-39982441D01*
X23150500Y-39982445D01*
X23022445Y-40110500D01*
X23022441Y-40110505D01*
X22916006Y-40257002D01*
X22833788Y-40418360D01*
X22833787Y-40418363D01*
X22777829Y-40590589D01*
X22752473Y-40750678D01*
X22722544Y-40813813D01*
X22663232Y-40850744D01*
X22593369Y-40849746D01*
X22535137Y-40811136D01*
X22507527Y-40750678D01*
X22484028Y-40602317D01*
X22482171Y-40590591D01*
X22438530Y-40456275D01*
X22426212Y-40418363D01*
X22426211Y-40418360D01*
X22360346Y-40289095D01*
X22343996Y-40257006D01*
X22311911Y-40212844D01*
X22237558Y-40110505D01*
X22237554Y-40110500D01*
X22109499Y-39982445D01*
X22109494Y-39982441D01*
X21962997Y-39876006D01*
X21962996Y-39876005D01*
X21962994Y-39876004D01*
X21911300Y-39849664D01*
X21801639Y-39793788D01*
X21801636Y-39793787D01*
X21629410Y-39737829D01*
X21450551Y-39709500D01*
X21450546Y-39709500D01*
X21269454Y-39709500D01*
X21269449Y-39709500D01*
X21090589Y-39737829D01*
X20918363Y-39793787D01*
X20918360Y-39793788D01*
X20757002Y-39876006D01*
X20610505Y-39982441D01*
X20610500Y-39982445D01*
X20482445Y-40110500D01*
X20482441Y-40110505D01*
X20376006Y-40257002D01*
X20293788Y-40418360D01*
X20293787Y-40418363D01*
X20237829Y-40590589D01*
X20212473Y-40750678D01*
X20182544Y-40813813D01*
X20123232Y-40850744D01*
X20053369Y-40849746D01*
X19995137Y-40811136D01*
X19967527Y-40750678D01*
X19944028Y-40602317D01*
X19942171Y-40590591D01*
X19898530Y-40456275D01*
X19886212Y-40418363D01*
X19886211Y-40418360D01*
X19820346Y-40289095D01*
X19803996Y-40257006D01*
X19771911Y-40212844D01*
X19697558Y-40110505D01*
X19697554Y-40110500D01*
X19569499Y-39982445D01*
X19569494Y-39982441D01*
X19422997Y-39876006D01*
X19422996Y-39876005D01*
X19422994Y-39876004D01*
X19371300Y-39849664D01*
X19261639Y-39793788D01*
X19261636Y-39793787D01*
X19089410Y-39737829D01*
X18910551Y-39709500D01*
X18910546Y-39709500D01*
X18729454Y-39709500D01*
X18729449Y-39709500D01*
X18550589Y-39737829D01*
X18378363Y-39793787D01*
X18378360Y-39793788D01*
X18217002Y-39876006D01*
X18070505Y-39982441D01*
X18070500Y-39982445D01*
X17942445Y-40110500D01*
X17942441Y-40110505D01*
X17836006Y-40257002D01*
X17753788Y-40418360D01*
X17753787Y-40418363D01*
X17697829Y-40590589D01*
X17672473Y-40750678D01*
X17642544Y-40813813D01*
X17583232Y-40850744D01*
X17513369Y-40849746D01*
X17455137Y-40811136D01*
X17427527Y-40750678D01*
X17404028Y-40602317D01*
X17402171Y-40590591D01*
X17358530Y-40456275D01*
X17346212Y-40418363D01*
X17346211Y-40418360D01*
X17280346Y-40289095D01*
X17263996Y-40257006D01*
X17231911Y-40212844D01*
X17157558Y-40110505D01*
X17157554Y-40110500D01*
X17029499Y-39982445D01*
X17029494Y-39982441D01*
X16882997Y-39876006D01*
X16882996Y-39876005D01*
X16882994Y-39876004D01*
X16831300Y-39849664D01*
X16721639Y-39793788D01*
X16721636Y-39793787D01*
X16549410Y-39737829D01*
X16370551Y-39709500D01*
X16370546Y-39709500D01*
X16189454Y-39709500D01*
X16189449Y-39709500D01*
X16010589Y-39737829D01*
X15838363Y-39793787D01*
X15838360Y-39793788D01*
X15677002Y-39876006D01*
X15530505Y-39982441D01*
X15530500Y-39982445D01*
X15402445Y-40110500D01*
X15402441Y-40110505D01*
X15296006Y-40257002D01*
X15213788Y-40418360D01*
X15213787Y-40418363D01*
X15157829Y-40590589D01*
X15132473Y-40750678D01*
X15102544Y-40813813D01*
X15043232Y-40850744D01*
X14973369Y-40849746D01*
X14915137Y-40811136D01*
X14887527Y-40750678D01*
X14864028Y-40602317D01*
X14862171Y-40590591D01*
X14818530Y-40456275D01*
X14806212Y-40418363D01*
X14806211Y-40418360D01*
X14740346Y-40289095D01*
X14723996Y-40257006D01*
X14691911Y-40212844D01*
X14617558Y-40110505D01*
X14617554Y-40110500D01*
X14489499Y-39982445D01*
X14489494Y-39982441D01*
X14342997Y-39876006D01*
X14342996Y-39876005D01*
X14342994Y-39876004D01*
X14291300Y-39849664D01*
X14181639Y-39793788D01*
X14181636Y-39793787D01*
X14009410Y-39737829D01*
X13830551Y-39709500D01*
X13830546Y-39709500D01*
X13649454Y-39709500D01*
X13649449Y-39709500D01*
X13470589Y-39737829D01*
X13298363Y-39793787D01*
X13298360Y-39793788D01*
X13137002Y-39876006D01*
X12990505Y-39982441D01*
X12990500Y-39982445D01*
X12862445Y-40110500D01*
X12862441Y-40110505D01*
X12756004Y-40257004D01*
X12688908Y-40388685D01*
X12640933Y-40439480D01*
X12573112Y-40456275D01*
X12506977Y-40433737D01*
X12463527Y-40379021D01*
X12460492Y-40370705D01*
X12451094Y-40341780D01*
X12354620Y-40152442D01*
X12229727Y-39980540D01*
X12229723Y-39980535D01*
X12079464Y-39830276D01*
X12079459Y-39830272D01*
X11907557Y-39705379D01*
X11718215Y-39608903D01*
X11516124Y-39543241D01*
X11450000Y-39532768D01*
X11450000Y-40426988D01*
X11392993Y-40394075D01*
X11265826Y-40360000D01*
X11134174Y-40360000D01*
X11007007Y-40394075D01*
X10950000Y-40426988D01*
X10950000Y-39532768D01*
X10949999Y-39532768D01*
X10883875Y-39543241D01*
X10681784Y-39608903D01*
X10492442Y-39705379D01*
X10320540Y-39830272D01*
X10320535Y-39830276D01*
X10170276Y-39980535D01*
X10170272Y-39980540D01*
X10045377Y-40152444D01*
X10040484Y-40162048D01*
X9992509Y-40212844D01*
X9924688Y-40229638D01*
X9858553Y-40207100D01*
X9819516Y-40162048D01*
X9814622Y-40152444D01*
X9689727Y-39980540D01*
X9689723Y-39980535D01*
X9539464Y-39830276D01*
X9539459Y-39830272D01*
X9367557Y-39705379D01*
X9178215Y-39608903D01*
X8976124Y-39543241D01*
X8910000Y-39532768D01*
X8910000Y-40426988D01*
X8852993Y-40394075D01*
X8725826Y-40360000D01*
X8594174Y-40360000D01*
X8467007Y-40394075D01*
X8410000Y-40426988D01*
X8410000Y-39532768D01*
X8409999Y-39532768D01*
X8343875Y-39543241D01*
X8141784Y-39608903D01*
X7952442Y-39705379D01*
X7780540Y-39830272D01*
X7780535Y-39830276D01*
X7630276Y-39980535D01*
X7630272Y-39980540D01*
X7505379Y-40152442D01*
X7408904Y-40341782D01*
X7343242Y-40543870D01*
X7343242Y-40543873D01*
X7332769Y-40610000D01*
X8226988Y-40610000D01*
X8194075Y-40667007D01*
X8160000Y-40794174D01*
X8160000Y-40925826D01*
X8194075Y-41052993D01*
X8226988Y-41110000D01*
X7332769Y-41110000D01*
X7343242Y-41176126D01*
X7343242Y-41176129D01*
X7408904Y-41378217D01*
X7505379Y-41567557D01*
X7630272Y-41739459D01*
X7630276Y-41739464D01*
X7780535Y-41889723D01*
X7780540Y-41889727D01*
X7952442Y-42014620D01*
X8141782Y-42111095D01*
X8343871Y-42176757D01*
X8410000Y-42187231D01*
X8410000Y-41293012D01*
X8467007Y-41325925D01*
X8594174Y-41360000D01*
X8725826Y-41360000D01*
X8852993Y-41325925D01*
X8910000Y-41293012D01*
X8910000Y-42187230D01*
X8976126Y-42176757D01*
X8976129Y-42176757D01*
X9178217Y-42111095D01*
X9367557Y-42014620D01*
X9539459Y-41889727D01*
X9539464Y-41889723D01*
X9689723Y-41739464D01*
X9689727Y-41739459D01*
X9814620Y-41567558D01*
X9819514Y-41557954D01*
X9867488Y-41507157D01*
X9935308Y-41490361D01*
X10001444Y-41512897D01*
X10040486Y-41557954D01*
X10045379Y-41567558D01*
X10170272Y-41739459D01*
X10170276Y-41739464D01*
X10320535Y-41889723D01*
X10320540Y-41889727D01*
X10492442Y-42014620D01*
X10681782Y-42111095D01*
X10883871Y-42176757D01*
X10950000Y-42187231D01*
X10950000Y-41293012D01*
X11007007Y-41325925D01*
X11134174Y-41360000D01*
X11265826Y-41360000D01*
X11392993Y-41325925D01*
X11450000Y-41293012D01*
X11450000Y-42187230D01*
X11516126Y-42176757D01*
X11516129Y-42176757D01*
X11718217Y-42111095D01*
X11907557Y-42014620D01*
X12079459Y-41889727D01*
X12079464Y-41889723D01*
X12229723Y-41739464D01*
X12229727Y-41739459D01*
X12354620Y-41567557D01*
X12451095Y-41378217D01*
X12460492Y-41349295D01*
X12499928Y-41291618D01*
X12564286Y-41264419D01*
X12633133Y-41276331D01*
X12684610Y-41323574D01*
X12688908Y-41331314D01*
X12756004Y-41462995D01*
X12862441Y-41609494D01*
X12862445Y-41609499D01*
X12990500Y-41737554D01*
X12990505Y-41737558D01*
X13023141Y-41761269D01*
X13137006Y-41843996D01*
X13226750Y-41889723D01*
X13298360Y-41926211D01*
X13298363Y-41926212D01*
X13384476Y-41954191D01*
X13470591Y-41982171D01*
X13553429Y-41995291D01*
X13649449Y-42010500D01*
X13649454Y-42010500D01*
X13830551Y-42010500D01*
X13917259Y-41996765D01*
X14009409Y-41982171D01*
X14181639Y-41926211D01*
X14342994Y-41843996D01*
X14489501Y-41737553D01*
X14617553Y-41609501D01*
X14723996Y-41462994D01*
X14806211Y-41301639D01*
X14862171Y-41129409D01*
X14882821Y-40999031D01*
X14887527Y-40969321D01*
X14917456Y-40906186D01*
X14976768Y-40869255D01*
X15046630Y-40870253D01*
X15104863Y-40908863D01*
X15132473Y-40969321D01*
X15157829Y-41129410D01*
X15213787Y-41301636D01*
X15213788Y-41301639D01*
X15296006Y-41462997D01*
X15402441Y-41609494D01*
X15402445Y-41609499D01*
X15530500Y-41737554D01*
X15530505Y-41737558D01*
X15563141Y-41761269D01*
X15677006Y-41843996D01*
X15766750Y-41889723D01*
X15838360Y-41926211D01*
X15838363Y-41926212D01*
X15924476Y-41954191D01*
X16010591Y-41982171D01*
X16093429Y-41995291D01*
X16189449Y-42010500D01*
X16189454Y-42010500D01*
X16370551Y-42010500D01*
X16457259Y-41996765D01*
X16549409Y-41982171D01*
X16721639Y-41926211D01*
X16882994Y-41843996D01*
X17029501Y-41737553D01*
X17157553Y-41609501D01*
X17263996Y-41462994D01*
X17346211Y-41301639D01*
X17402171Y-41129409D01*
X17422821Y-40999031D01*
X17427527Y-40969321D01*
X17457456Y-40906186D01*
X17516768Y-40869255D01*
X17586630Y-40870253D01*
X17644863Y-40908863D01*
X17672473Y-40969321D01*
X17697829Y-41129410D01*
X17753787Y-41301636D01*
X17753788Y-41301639D01*
X17836006Y-41462997D01*
X17942441Y-41609494D01*
X17942445Y-41609499D01*
X18070500Y-41737554D01*
X18070505Y-41737558D01*
X18103141Y-41761269D01*
X18217006Y-41843996D01*
X18306750Y-41889723D01*
X18378360Y-41926211D01*
X18378363Y-41926212D01*
X18464476Y-41954191D01*
X18550591Y-41982171D01*
X18633429Y-41995291D01*
X18729449Y-42010500D01*
X18729454Y-42010500D01*
X18910551Y-42010500D01*
X18997259Y-41996765D01*
X19089409Y-41982171D01*
X19261639Y-41926211D01*
X19422994Y-41843996D01*
X19569501Y-41737553D01*
X19697553Y-41609501D01*
X19803996Y-41462994D01*
X19886211Y-41301639D01*
X19942171Y-41129409D01*
X19962821Y-40999031D01*
X19967527Y-40969321D01*
X19997456Y-40906186D01*
X20056768Y-40869255D01*
X20126630Y-40870253D01*
X20184863Y-40908863D01*
X20212473Y-40969321D01*
X20237829Y-41129410D01*
X20293787Y-41301636D01*
X20293788Y-41301639D01*
X20376006Y-41462997D01*
X20482441Y-41609494D01*
X20482445Y-41609499D01*
X20610500Y-41737554D01*
X20610505Y-41737558D01*
X20643141Y-41761269D01*
X20757006Y-41843996D01*
X20846750Y-41889723D01*
X20918360Y-41926211D01*
X20918363Y-41926212D01*
X21004476Y-41954191D01*
X21090591Y-41982171D01*
X21173429Y-41995291D01*
X21269449Y-42010500D01*
X21269454Y-42010500D01*
X21450551Y-42010500D01*
X21537259Y-41996765D01*
X21629409Y-41982171D01*
X21801639Y-41926211D01*
X21962994Y-41843996D01*
X22109501Y-41737553D01*
X22237553Y-41609501D01*
X22343996Y-41462994D01*
X22426211Y-41301639D01*
X22482171Y-41129409D01*
X22502821Y-40999031D01*
X22507527Y-40969321D01*
X22537456Y-40906186D01*
X22596768Y-40869255D01*
X22666630Y-40870253D01*
X22724863Y-40908863D01*
X22752473Y-40969321D01*
X22777829Y-41129410D01*
X22833787Y-41301636D01*
X22833788Y-41301639D01*
X22916006Y-41462997D01*
X23022441Y-41609494D01*
X23022445Y-41609499D01*
X23150500Y-41737554D01*
X23150505Y-41737558D01*
X23183141Y-41761269D01*
X23297006Y-41843996D01*
X23386750Y-41889723D01*
X23458360Y-41926211D01*
X23458363Y-41926212D01*
X23544476Y-41954191D01*
X23630591Y-41982171D01*
X23713429Y-41995291D01*
X23809449Y-42010500D01*
X23809454Y-42010500D01*
X23990551Y-42010500D01*
X24077259Y-41996765D01*
X24169409Y-41982171D01*
X24341639Y-41926211D01*
X24502994Y-41843996D01*
X24649501Y-41737553D01*
X24721397Y-41665656D01*
X24782716Y-41632174D01*
X24852408Y-41637158D01*
X24896756Y-41665659D01*
X27082886Y-43851789D01*
X27082887Y-43851790D01*
X27082889Y-43851791D01*
X27142193Y-43886029D01*
X27142196Y-43886032D01*
X27176437Y-43905800D01*
X27185614Y-43911099D01*
X27300191Y-43941800D01*
X47250335Y-43941800D01*
X47317374Y-43961485D01*
X47338016Y-43978119D01*
X51365197Y-48005300D01*
X51398682Y-48066623D01*
X51393698Y-48136315D01*
X51351826Y-48192248D01*
X51296915Y-48215454D01*
X51195464Y-48231523D01*
X51000776Y-48294781D01*
X50818386Y-48387715D01*
X50652786Y-48508028D01*
X50508028Y-48652786D01*
X50387715Y-48818385D01*
X50304454Y-48981795D01*
X50256479Y-49032591D01*
X50193969Y-49049500D01*
X46306031Y-49049500D01*
X46238992Y-49029815D01*
X46195546Y-48981795D01*
X46112287Y-48818390D01*
X46112285Y-48818387D01*
X46112284Y-48818385D01*
X45991971Y-48652786D01*
X45847213Y-48508028D01*
X45681613Y-48387715D01*
X45681612Y-48387714D01*
X45681610Y-48387713D01*
X45608750Y-48350589D01*
X45499223Y-48294781D01*
X45304534Y-48231522D01*
X45129995Y-48203878D01*
X45102352Y-48199500D01*
X44897648Y-48199500D01*
X44873329Y-48203351D01*
X44695465Y-48231522D01*
X44500776Y-48294781D01*
X44318386Y-48387715D01*
X44152786Y-48508028D01*
X44008028Y-48652786D01*
X43887715Y-48818386D01*
X43794781Y-49000776D01*
X43731522Y-49195465D01*
X43703959Y-49369494D01*
X43699500Y-49397648D01*
X43699500Y-49602352D01*
X43699764Y-49604017D01*
X43731522Y-49804534D01*
X43794781Y-49999223D01*
X43820039Y-50048793D01*
X43877813Y-50162181D01*
X43887715Y-50181613D01*
X44008028Y-50347213D01*
X44152786Y-50491971D01*
X44306480Y-50603634D01*
X44318390Y-50612287D01*
X44434607Y-50671503D01*
X44500776Y-50705218D01*
X44500778Y-50705218D01*
X44500781Y-50705220D01*
X44605137Y-50739127D01*
X44695465Y-50768477D01*
X44796557Y-50784488D01*
X44897648Y-50800500D01*
X44897649Y-50800500D01*
X45102351Y-50800500D01*
X45102352Y-50800500D01*
X45304534Y-50768477D01*
X45499219Y-50705220D01*
X45681610Y-50612287D01*
X45789444Y-50533942D01*
X45847213Y-50491971D01*
X45847215Y-50491968D01*
X45847219Y-50491966D01*
X45991966Y-50347219D01*
X45991968Y-50347215D01*
X45991971Y-50347213D01*
X46112284Y-50181614D01*
X46112285Y-50181613D01*
X46112287Y-50181610D01*
X46195546Y-50018204D01*
X46243521Y-49967409D01*
X46306031Y-49950500D01*
X50113033Y-49950500D01*
X50180072Y-49970185D01*
X50225827Y-50022989D01*
X50235771Y-50092147D01*
X50206746Y-50155703D01*
X50200714Y-50162181D01*
X49190916Y-51171981D01*
X49129593Y-51205466D01*
X49103235Y-51208300D01*
X34228165Y-51208300D01*
X34161126Y-51188615D01*
X34115371Y-51135811D01*
X34105427Y-51066653D01*
X34134452Y-51003097D01*
X34140474Y-50996627D01*
X34395050Y-50742051D01*
X34456369Y-50708569D01*
X34521044Y-50711803D01*
X34646117Y-50752442D01*
X34695465Y-50768477D01*
X34796557Y-50784488D01*
X34897648Y-50800500D01*
X34897649Y-50800500D01*
X35102351Y-50800500D01*
X35102352Y-50800500D01*
X35304534Y-50768477D01*
X35499219Y-50705220D01*
X35681610Y-50612287D01*
X35789444Y-50533942D01*
X35847213Y-50491971D01*
X35847215Y-50491968D01*
X35847219Y-50491966D01*
X35991966Y-50347219D01*
X35991968Y-50347215D01*
X35991971Y-50347213D01*
X36112284Y-50181614D01*
X36112285Y-50181613D01*
X36112287Y-50181610D01*
X36195546Y-50018204D01*
X36243521Y-49967409D01*
X36306031Y-49950500D01*
X40193969Y-49950500D01*
X40261008Y-49970185D01*
X40304453Y-50018204D01*
X40318035Y-50044860D01*
X40387715Y-50181614D01*
X40508028Y-50347213D01*
X40652786Y-50491971D01*
X40806480Y-50603634D01*
X40818390Y-50612287D01*
X40934607Y-50671503D01*
X41000776Y-50705218D01*
X41000778Y-50705218D01*
X41000781Y-50705220D01*
X41105137Y-50739127D01*
X41195465Y-50768477D01*
X41296557Y-50784488D01*
X41397648Y-50800500D01*
X41397649Y-50800500D01*
X41602351Y-50800500D01*
X41602352Y-50800500D01*
X41804534Y-50768477D01*
X41999219Y-50705220D01*
X42181610Y-50612287D01*
X42289444Y-50533942D01*
X42347213Y-50491971D01*
X42347215Y-50491968D01*
X42347219Y-50491966D01*
X42491966Y-50347219D01*
X42491968Y-50347215D01*
X42491971Y-50347213D01*
X42544732Y-50274590D01*
X42612287Y-50181610D01*
X42705220Y-49999219D01*
X42768477Y-49804534D01*
X42800500Y-49602352D01*
X42800500Y-49397648D01*
X42768477Y-49195466D01*
X42705220Y-49000781D01*
X42705218Y-49000778D01*
X42705218Y-49000776D01*
X42671503Y-48934607D01*
X42612287Y-48818390D01*
X42604556Y-48807749D01*
X42491971Y-48652786D01*
X42347213Y-48508028D01*
X42181613Y-48387715D01*
X42181612Y-48387714D01*
X42181610Y-48387713D01*
X42108750Y-48350589D01*
X41999223Y-48294781D01*
X41804534Y-48231522D01*
X41629995Y-48203878D01*
X41602352Y-48199500D01*
X41397648Y-48199500D01*
X41373329Y-48203351D01*
X41195465Y-48231522D01*
X41000776Y-48294781D01*
X40818386Y-48387715D01*
X40652786Y-48508028D01*
X40508028Y-48652786D01*
X40387715Y-48818385D01*
X40304454Y-48981795D01*
X40256479Y-49032591D01*
X40193969Y-49049500D01*
X36306031Y-49049500D01*
X36238992Y-49029815D01*
X36195546Y-48981795D01*
X36112287Y-48818390D01*
X36112285Y-48818387D01*
X36112284Y-48818385D01*
X35991971Y-48652786D01*
X35847213Y-48508028D01*
X35681613Y-48387715D01*
X35681612Y-48387714D01*
X35681610Y-48387713D01*
X35608750Y-48350589D01*
X35499223Y-48294781D01*
X35304534Y-48231522D01*
X35129995Y-48203878D01*
X35102352Y-48199500D01*
X34897648Y-48199500D01*
X34873329Y-48203351D01*
X34695465Y-48231522D01*
X34500776Y-48294781D01*
X34318386Y-48387715D01*
X34152786Y-48508028D01*
X34008028Y-48652786D01*
X33887715Y-48818386D01*
X33794781Y-49000776D01*
X33731522Y-49195465D01*
X33703959Y-49369494D01*
X33699500Y-49397648D01*
X33699500Y-49602352D01*
X33699764Y-49604017D01*
X33731523Y-49804535D01*
X33731523Y-49804538D01*
X33788194Y-49978952D01*
X33790189Y-50048793D01*
X33757944Y-50104951D01*
X33214916Y-50647981D01*
X33153593Y-50681466D01*
X33127235Y-50684300D01*
X32454247Y-50684300D01*
X32387208Y-50664615D01*
X32341453Y-50611811D01*
X32331509Y-50542653D01*
X32360534Y-50479097D01*
X32366566Y-50472619D01*
X32491966Y-50347219D01*
X32491968Y-50347215D01*
X32491971Y-50347213D01*
X32544732Y-50274590D01*
X32612287Y-50181610D01*
X32705220Y-49999219D01*
X32768477Y-49804534D01*
X32800500Y-49602352D01*
X32800500Y-49397648D01*
X32768477Y-49195466D01*
X32705220Y-49000781D01*
X32705218Y-49000778D01*
X32705218Y-49000776D01*
X32671503Y-48934607D01*
X32612287Y-48818390D01*
X32604556Y-48807749D01*
X32491971Y-48652786D01*
X32347213Y-48508028D01*
X32181613Y-48387715D01*
X32181612Y-48387714D01*
X32181610Y-48387713D01*
X32108750Y-48350589D01*
X31999223Y-48294781D01*
X31804534Y-48231522D01*
X31629995Y-48203878D01*
X31602352Y-48199500D01*
X31397648Y-48199500D01*
X31373329Y-48203351D01*
X31195465Y-48231522D01*
X31000776Y-48294781D01*
X30818386Y-48387715D01*
X30652786Y-48508028D01*
X30508028Y-48652786D01*
X30387715Y-48818385D01*
X30304454Y-48981795D01*
X30256479Y-49032591D01*
X30193969Y-49049500D01*
X26306031Y-49049500D01*
X26238992Y-49029815D01*
X26195546Y-48981795D01*
X26112287Y-48818390D01*
X26112285Y-48818387D01*
X26112284Y-48818385D01*
X25991971Y-48652786D01*
X25847213Y-48508028D01*
X25681613Y-48387715D01*
X25681612Y-48387714D01*
X25681610Y-48387713D01*
X25608750Y-48350589D01*
X25499223Y-48294781D01*
X25304534Y-48231522D01*
X25129995Y-48203878D01*
X25102352Y-48199500D01*
X24897648Y-48199500D01*
X24873329Y-48203351D01*
X24695465Y-48231522D01*
X24500776Y-48294781D01*
X24318386Y-48387715D01*
X24152786Y-48508028D01*
X24008028Y-48652786D01*
X23887715Y-48818385D01*
X23804454Y-48981795D01*
X23756479Y-49032591D01*
X23693969Y-49049500D01*
X14266891Y-49049500D01*
X14176525Y-49073713D01*
X14176524Y-49073712D01*
X14152315Y-49080200D01*
X14152306Y-49080204D01*
X14049592Y-49139505D01*
X14049584Y-49139511D01*
X10244714Y-52944381D01*
X10183391Y-52977866D01*
X10113699Y-52972882D01*
X10069352Y-52944381D01*
X10022765Y-52897794D01*
X9919992Y-52852415D01*
X9894865Y-52849500D01*
X8105143Y-52849500D01*
X8105117Y-52849502D01*
X8080012Y-52852413D01*
X8080008Y-52852415D01*
X7977235Y-52897793D01*
X7897794Y-52977234D01*
X7852415Y-53080006D01*
X7852415Y-53080008D01*
X7849500Y-53105131D01*
X7849500Y-54894856D01*
X7849502Y-54894882D01*
X7852413Y-54919987D01*
X7852415Y-54919991D01*
X7897793Y-55022764D01*
X7897794Y-55022765D01*
X7977235Y-55102206D01*
X8080009Y-55147585D01*
X8105135Y-55150500D01*
X9894864Y-55150499D01*
X9894879Y-55150497D01*
X9894882Y-55150497D01*
X9919987Y-55147586D01*
X9919988Y-55147585D01*
X9919991Y-55147585D01*
X10022765Y-55102206D01*
X10102206Y-55022765D01*
X10147585Y-54919991D01*
X10150500Y-54894865D01*
X10150500Y-54763079D01*
X10170185Y-54696040D01*
X10222989Y-54650285D01*
X10292147Y-54640341D01*
X10355703Y-54669366D01*
X10382493Y-54703601D01*
X10382829Y-54703396D01*
X10384622Y-54706322D01*
X10384986Y-54706787D01*
X10385373Y-54707548D01*
X10424728Y-54761716D01*
X11057037Y-54129408D01*
X11074075Y-54192993D01*
X11139901Y-54307007D01*
X11232993Y-54400099D01*
X11347007Y-54465925D01*
X11410590Y-54482962D01*
X10778282Y-55115269D01*
X10778282Y-55115270D01*
X10832449Y-55154624D01*
X11021782Y-55251095D01*
X11223870Y-55316757D01*
X11433754Y-55350000D01*
X11646246Y-55350000D01*
X11856127Y-55316757D01*
X11856130Y-55316757D01*
X12058217Y-55251095D01*
X12247554Y-55154622D01*
X12301716Y-55115270D01*
X12301717Y-55115270D01*
X11669408Y-54482962D01*
X11732993Y-54465925D01*
X11847007Y-54400099D01*
X11940099Y-54307007D01*
X12005925Y-54192993D01*
X12022962Y-54129408D01*
X12655270Y-54761717D01*
X12655270Y-54761716D01*
X12694622Y-54707554D01*
X12791095Y-54518217D01*
X12800492Y-54489295D01*
X12839928Y-54431618D01*
X12904286Y-54404419D01*
X12973133Y-54416331D01*
X13024610Y-54463574D01*
X13028908Y-54471314D01*
X13096004Y-54602995D01*
X13202441Y-54749494D01*
X13202445Y-54749499D01*
X13330500Y-54877554D01*
X13330505Y-54877558D01*
X13440361Y-54957372D01*
X13477006Y-54983996D01*
X13553094Y-55022765D01*
X13638360Y-55066211D01*
X13638363Y-55066212D01*
X13713947Y-55090770D01*
X13810591Y-55122171D01*
X13893429Y-55135291D01*
X13989449Y-55150500D01*
X13989454Y-55150500D01*
X14170551Y-55150500D01*
X14257259Y-55136765D01*
X14349409Y-55122171D01*
X14521639Y-55066211D01*
X14682994Y-54983996D01*
X14801573Y-54897844D01*
X14829495Y-54877558D01*
X14829497Y-54877555D01*
X14829501Y-54877553D01*
X14957553Y-54749501D01*
X15063996Y-54602994D01*
X15131090Y-54471314D01*
X15179065Y-54420519D01*
X15246886Y-54403724D01*
X15313021Y-54426262D01*
X15356472Y-54480977D01*
X15359506Y-54489292D01*
X15368904Y-54518217D01*
X15465375Y-54707550D01*
X15504728Y-54761716D01*
X16137037Y-54129408D01*
X16154075Y-54192993D01*
X16219901Y-54307007D01*
X16312993Y-54400099D01*
X16427007Y-54465925D01*
X16490590Y-54482962D01*
X15858282Y-55115269D01*
X15858282Y-55115270D01*
X15912449Y-55154624D01*
X16101782Y-55251095D01*
X16303870Y-55316757D01*
X16513754Y-55350000D01*
X16726246Y-55350000D01*
X16936127Y-55316757D01*
X16936130Y-55316757D01*
X17138217Y-55251095D01*
X17327554Y-55154622D01*
X17381716Y-55115270D01*
X17381717Y-55115270D01*
X16749408Y-54482962D01*
X16812993Y-54465925D01*
X16927007Y-54400099D01*
X17020099Y-54307007D01*
X17085925Y-54192993D01*
X17102962Y-54129408D01*
X17735270Y-54761717D01*
X17735270Y-54761716D01*
X17774622Y-54707554D01*
X17871095Y-54518217D01*
X17880492Y-54489295D01*
X17919928Y-54431618D01*
X17984286Y-54404419D01*
X18053133Y-54416331D01*
X18104610Y-54463574D01*
X18108908Y-54471314D01*
X18176004Y-54602995D01*
X18282441Y-54749494D01*
X18282445Y-54749499D01*
X18410500Y-54877554D01*
X18410505Y-54877558D01*
X18520361Y-54957372D01*
X18557006Y-54983996D01*
X18633094Y-55022765D01*
X18718360Y-55066211D01*
X18718363Y-55066212D01*
X18793947Y-55090770D01*
X18890591Y-55122171D01*
X18973429Y-55135291D01*
X19069449Y-55150500D01*
X19069454Y-55150500D01*
X19250551Y-55150500D01*
X19337259Y-55136765D01*
X19429409Y-55122171D01*
X19601639Y-55066211D01*
X19762994Y-54983996D01*
X19881573Y-54897844D01*
X19909495Y-54877558D01*
X19909497Y-54877555D01*
X19909501Y-54877553D01*
X20037553Y-54749501D01*
X20143996Y-54602994D01*
X20211090Y-54471314D01*
X20259065Y-54420519D01*
X20326886Y-54403724D01*
X20393021Y-54426262D01*
X20436472Y-54480977D01*
X20439506Y-54489292D01*
X20448904Y-54518217D01*
X20545375Y-54707550D01*
X20584728Y-54761716D01*
X21217037Y-54129408D01*
X21234075Y-54192993D01*
X21299901Y-54307007D01*
X21392993Y-54400099D01*
X21507007Y-54465925D01*
X21570590Y-54482962D01*
X20938282Y-55115269D01*
X20938282Y-55115270D01*
X20992449Y-55154624D01*
X21181782Y-55251095D01*
X21383870Y-55316757D01*
X21593754Y-55350000D01*
X21806246Y-55350000D01*
X22016127Y-55316757D01*
X22016130Y-55316757D01*
X22218217Y-55251095D01*
X22407554Y-55154622D01*
X22461717Y-55115270D01*
X21829408Y-54482962D01*
X21892993Y-54465925D01*
X22007007Y-54400099D01*
X22100099Y-54307007D01*
X22165925Y-54192993D01*
X22182962Y-54129408D01*
X22815270Y-54761717D01*
X22815270Y-54761716D01*
X22854622Y-54707554D01*
X22951095Y-54518217D01*
X23016757Y-54316130D01*
X23016757Y-54316127D01*
X23050000Y-54106246D01*
X23050000Y-53893752D01*
X23049999Y-53893750D01*
X23048130Y-53881947D01*
X23500000Y-53881947D01*
X23500000Y-54118052D01*
X23536934Y-54351247D01*
X23609897Y-54575802D01*
X23717087Y-54786174D01*
X23777338Y-54869104D01*
X23777340Y-54869105D01*
X24476212Y-54170233D01*
X24487482Y-54212292D01*
X24559890Y-54337708D01*
X24662292Y-54440110D01*
X24787708Y-54512518D01*
X24829765Y-54523787D01*
X24130893Y-55222658D01*
X24213828Y-55282914D01*
X24424197Y-55390102D01*
X24648752Y-55463065D01*
X24648751Y-55463065D01*
X24881948Y-55500000D01*
X25118052Y-55500000D01*
X25351247Y-55463065D01*
X25575802Y-55390102D01*
X25786163Y-55282918D01*
X25786169Y-55282914D01*
X25869104Y-55222658D01*
X25869105Y-55222658D01*
X25170233Y-54523787D01*
X25212292Y-54512518D01*
X25337708Y-54440110D01*
X25440110Y-54337708D01*
X25512518Y-54212292D01*
X25523787Y-54170233D01*
X26222658Y-54869105D01*
X26222658Y-54869104D01*
X26282914Y-54786169D01*
X26282918Y-54786163D01*
X26390102Y-54575802D01*
X26463065Y-54351247D01*
X26500000Y-54118052D01*
X26500000Y-53881947D01*
X30000000Y-53881947D01*
X30000000Y-54118052D01*
X30036934Y-54351247D01*
X30109897Y-54575802D01*
X30217087Y-54786174D01*
X30277338Y-54869104D01*
X30277340Y-54869105D01*
X30976212Y-54170233D01*
X30987482Y-54212292D01*
X31059890Y-54337708D01*
X31162292Y-54440110D01*
X31287708Y-54512518D01*
X31329765Y-54523787D01*
X30630893Y-55222658D01*
X30713828Y-55282914D01*
X30924197Y-55390102D01*
X31148752Y-55463065D01*
X31148751Y-55463065D01*
X31381948Y-55500000D01*
X31618052Y-55500000D01*
X31851247Y-55463065D01*
X32075802Y-55390102D01*
X32286163Y-55282918D01*
X32286169Y-55282914D01*
X32369104Y-55222658D01*
X32369105Y-55222658D01*
X31670233Y-54523787D01*
X31712292Y-54512518D01*
X31837708Y-54440110D01*
X31940110Y-54337708D01*
X32012518Y-54212292D01*
X32023787Y-54170234D01*
X32722658Y-54869105D01*
X32722658Y-54869104D01*
X32782914Y-54786169D01*
X32782918Y-54786163D01*
X32890102Y-54575802D01*
X32963065Y-54351247D01*
X33000000Y-54118052D01*
X33000000Y-53881947D01*
X33500000Y-53881947D01*
X33500000Y-54118052D01*
X33536934Y-54351247D01*
X33609897Y-54575802D01*
X33717087Y-54786174D01*
X33777338Y-54869104D01*
X33777340Y-54869105D01*
X34476212Y-54170233D01*
X34487482Y-54212292D01*
X34559890Y-54337708D01*
X34662292Y-54440110D01*
X34787708Y-54512518D01*
X34829765Y-54523787D01*
X34130893Y-55222658D01*
X34213828Y-55282914D01*
X34424197Y-55390102D01*
X34648752Y-55463065D01*
X34648751Y-55463065D01*
X34881948Y-55500000D01*
X35118052Y-55500000D01*
X35351247Y-55463065D01*
X35575802Y-55390102D01*
X35786163Y-55282918D01*
X35786169Y-55282914D01*
X35869104Y-55222658D01*
X35869105Y-55222658D01*
X35170233Y-54523787D01*
X35212292Y-54512518D01*
X35337708Y-54440110D01*
X35440110Y-54337708D01*
X35512518Y-54212292D01*
X35523787Y-54170233D01*
X36222658Y-54869105D01*
X36222658Y-54869104D01*
X36282914Y-54786169D01*
X36282918Y-54786163D01*
X36390102Y-54575802D01*
X36463065Y-54351247D01*
X36500000Y-54118052D01*
X36500000Y-53881947D01*
X40000000Y-53881947D01*
X40000000Y-54118052D01*
X40036934Y-54351247D01*
X40109897Y-54575802D01*
X40217087Y-54786174D01*
X40277338Y-54869104D01*
X40277340Y-54869105D01*
X40976212Y-54170233D01*
X40987482Y-54212292D01*
X41059890Y-54337708D01*
X41162292Y-54440110D01*
X41287708Y-54512518D01*
X41329765Y-54523787D01*
X40630893Y-55222658D01*
X40713828Y-55282914D01*
X40924197Y-55390102D01*
X41148752Y-55463065D01*
X41148751Y-55463065D01*
X41381948Y-55500000D01*
X41618052Y-55500000D01*
X41851247Y-55463065D01*
X42075802Y-55390102D01*
X42286163Y-55282918D01*
X42286169Y-55282914D01*
X42369104Y-55222658D01*
X42369105Y-55222658D01*
X41670233Y-54523787D01*
X41712292Y-54512518D01*
X41837708Y-54440110D01*
X41940110Y-54337708D01*
X42012518Y-54212292D01*
X42023787Y-54170234D01*
X42722658Y-54869105D01*
X42722658Y-54869104D01*
X42782914Y-54786169D01*
X42782918Y-54786163D01*
X42890102Y-54575802D01*
X42963065Y-54351247D01*
X43000000Y-54118052D01*
X43000000Y-53881947D01*
X43500000Y-53881947D01*
X43500000Y-54118052D01*
X43536934Y-54351247D01*
X43609897Y-54575802D01*
X43717087Y-54786174D01*
X43777338Y-54869104D01*
X43777340Y-54869105D01*
X44476212Y-54170233D01*
X44487482Y-54212292D01*
X44559890Y-54337708D01*
X44662292Y-54440110D01*
X44787708Y-54512518D01*
X44829765Y-54523787D01*
X44130893Y-55222658D01*
X44213828Y-55282914D01*
X44424197Y-55390102D01*
X44648752Y-55463065D01*
X44648751Y-55463065D01*
X44881948Y-55500000D01*
X45118052Y-55500000D01*
X45351247Y-55463065D01*
X45575802Y-55390102D01*
X45786163Y-55282918D01*
X45786169Y-55282914D01*
X45869104Y-55222658D01*
X45869105Y-55222658D01*
X45170233Y-54523787D01*
X45212292Y-54512518D01*
X45337708Y-54440110D01*
X45440110Y-54337708D01*
X45512518Y-54212292D01*
X45523787Y-54170234D01*
X46222658Y-54869105D01*
X46222658Y-54869104D01*
X46282914Y-54786169D01*
X46282918Y-54786163D01*
X46390102Y-54575802D01*
X46463065Y-54351247D01*
X46500000Y-54118052D01*
X46500000Y-53881947D01*
X50000000Y-53881947D01*
X50000000Y-54118052D01*
X50036934Y-54351247D01*
X50109897Y-54575802D01*
X50217087Y-54786174D01*
X50277338Y-54869104D01*
X50277340Y-54869105D01*
X50976212Y-54170233D01*
X50987482Y-54212292D01*
X51059890Y-54337708D01*
X51162292Y-54440110D01*
X51287708Y-54512518D01*
X51329765Y-54523787D01*
X50630893Y-55222658D01*
X50713828Y-55282914D01*
X50924197Y-55390102D01*
X51148752Y-55463065D01*
X51148751Y-55463065D01*
X51381948Y-55500000D01*
X51618052Y-55500000D01*
X51851247Y-55463065D01*
X52075802Y-55390102D01*
X52286163Y-55282918D01*
X52286169Y-55282914D01*
X52369104Y-55222658D01*
X52369105Y-55222658D01*
X51670233Y-54523787D01*
X51712292Y-54512518D01*
X51837708Y-54440110D01*
X51940110Y-54337708D01*
X52012518Y-54212292D01*
X52023787Y-54170233D01*
X52722658Y-54869105D01*
X52722658Y-54869104D01*
X52782914Y-54786169D01*
X52782918Y-54786163D01*
X52890102Y-54575802D01*
X52963065Y-54351247D01*
X53000000Y-54118052D01*
X53000000Y-53881947D01*
X52963065Y-53648752D01*
X52890102Y-53424197D01*
X52782914Y-53213828D01*
X52722658Y-53130894D01*
X52722658Y-53130893D01*
X52023787Y-53829765D01*
X52012518Y-53787708D01*
X51940110Y-53662292D01*
X51837708Y-53559890D01*
X51712292Y-53487482D01*
X51670234Y-53476212D01*
X52369105Y-52777340D01*
X52369104Y-52777338D01*
X52286174Y-52717087D01*
X52075802Y-52609897D01*
X51851247Y-52536934D01*
X51851248Y-52536934D01*
X51618052Y-52500000D01*
X51381948Y-52500000D01*
X51148752Y-52536934D01*
X50924197Y-52609897D01*
X50713830Y-52717084D01*
X50630894Y-52777340D01*
X51329766Y-53476212D01*
X51287708Y-53487482D01*
X51162292Y-53559890D01*
X51059890Y-53662292D01*
X50987482Y-53787708D01*
X50976212Y-53829766D01*
X50277340Y-53130894D01*
X50217084Y-53213830D01*
X50109897Y-53424197D01*
X50036934Y-53648752D01*
X50000000Y-53881947D01*
X46500000Y-53881947D01*
X46463065Y-53648752D01*
X46390102Y-53424197D01*
X46282914Y-53213828D01*
X46222658Y-53130894D01*
X46222658Y-53130893D01*
X45523787Y-53829765D01*
X45512518Y-53787708D01*
X45440110Y-53662292D01*
X45337708Y-53559890D01*
X45212292Y-53487482D01*
X45170234Y-53476212D01*
X45869105Y-52777340D01*
X45869104Y-52777339D01*
X45786174Y-52717087D01*
X45575802Y-52609897D01*
X45351247Y-52536934D01*
X45351248Y-52536934D01*
X45118052Y-52500000D01*
X44881948Y-52500000D01*
X44648752Y-52536934D01*
X44424197Y-52609897D01*
X44213830Y-52717084D01*
X44130894Y-52777340D01*
X44829766Y-53476212D01*
X44787708Y-53487482D01*
X44662292Y-53559890D01*
X44559890Y-53662292D01*
X44487482Y-53787708D01*
X44476212Y-53829766D01*
X43777340Y-53130894D01*
X43717084Y-53213830D01*
X43609897Y-53424197D01*
X43536934Y-53648752D01*
X43500000Y-53881947D01*
X43000000Y-53881947D01*
X42963065Y-53648752D01*
X42890102Y-53424197D01*
X42782914Y-53213828D01*
X42722658Y-53130894D01*
X42722658Y-53130893D01*
X42023787Y-53829765D01*
X42012518Y-53787708D01*
X41940110Y-53662292D01*
X41837708Y-53559890D01*
X41712292Y-53487482D01*
X41670234Y-53476212D01*
X42369105Y-52777340D01*
X42369104Y-52777339D01*
X42286174Y-52717087D01*
X42075802Y-52609897D01*
X41851247Y-52536934D01*
X41851248Y-52536934D01*
X41618052Y-52500000D01*
X41381948Y-52500000D01*
X41148752Y-52536934D01*
X40924197Y-52609897D01*
X40713830Y-52717084D01*
X40630894Y-52777340D01*
X41329766Y-53476212D01*
X41287708Y-53487482D01*
X41162292Y-53559890D01*
X41059890Y-53662292D01*
X40987482Y-53787708D01*
X40976212Y-53829766D01*
X40277340Y-53130894D01*
X40217084Y-53213830D01*
X40109897Y-53424197D01*
X40036934Y-53648752D01*
X40000000Y-53881947D01*
X36500000Y-53881947D01*
X36463065Y-53648752D01*
X36390102Y-53424197D01*
X36282914Y-53213828D01*
X36222658Y-53130894D01*
X36222658Y-53130893D01*
X35523787Y-53829765D01*
X35512518Y-53787708D01*
X35440110Y-53662292D01*
X35337708Y-53559890D01*
X35212292Y-53487482D01*
X35170234Y-53476212D01*
X35869105Y-52777340D01*
X35869104Y-52777339D01*
X35786174Y-52717087D01*
X35575802Y-52609897D01*
X35351247Y-52536934D01*
X35351248Y-52536934D01*
X35118052Y-52500000D01*
X34881948Y-52500000D01*
X34648752Y-52536934D01*
X34424197Y-52609897D01*
X34213830Y-52717084D01*
X34130894Y-52777340D01*
X34829766Y-53476212D01*
X34787708Y-53487482D01*
X34662292Y-53559890D01*
X34559890Y-53662292D01*
X34487482Y-53787708D01*
X34476212Y-53829766D01*
X33777340Y-53130894D01*
X33717084Y-53213830D01*
X33609897Y-53424197D01*
X33536934Y-53648752D01*
X33500000Y-53881947D01*
X33000000Y-53881947D01*
X32963065Y-53648752D01*
X32890102Y-53424197D01*
X32782914Y-53213828D01*
X32722658Y-53130894D01*
X32722658Y-53130893D01*
X32023787Y-53829765D01*
X32012518Y-53787708D01*
X31940110Y-53662292D01*
X31837708Y-53559890D01*
X31712292Y-53487482D01*
X31670234Y-53476212D01*
X32369105Y-52777340D01*
X32369104Y-52777339D01*
X32286174Y-52717087D01*
X32075802Y-52609897D01*
X31851247Y-52536934D01*
X31851248Y-52536934D01*
X31618052Y-52500000D01*
X31381948Y-52500000D01*
X31148752Y-52536934D01*
X30924197Y-52609897D01*
X30713830Y-52717084D01*
X30630894Y-52777340D01*
X31329766Y-53476212D01*
X31287708Y-53487482D01*
X31162292Y-53559890D01*
X31059890Y-53662292D01*
X30987482Y-53787708D01*
X30976212Y-53829766D01*
X30277340Y-53130894D01*
X30217084Y-53213830D01*
X30109897Y-53424197D01*
X30036934Y-53648752D01*
X30000000Y-53881947D01*
X26500000Y-53881947D01*
X26463065Y-53648752D01*
X26390102Y-53424197D01*
X26282914Y-53213828D01*
X26222658Y-53130894D01*
X26222658Y-53130893D01*
X25523787Y-53829765D01*
X25512518Y-53787708D01*
X25440110Y-53662292D01*
X25337708Y-53559890D01*
X25212292Y-53487482D01*
X25170234Y-53476212D01*
X25869105Y-52777340D01*
X25869104Y-52777339D01*
X25786174Y-52717087D01*
X25575802Y-52609897D01*
X25351247Y-52536934D01*
X25351248Y-52536934D01*
X25118052Y-52500000D01*
X24881948Y-52500000D01*
X24648752Y-52536934D01*
X24424197Y-52609897D01*
X24213830Y-52717084D01*
X24130894Y-52777340D01*
X24829766Y-53476212D01*
X24787708Y-53487482D01*
X24662292Y-53559890D01*
X24559890Y-53662292D01*
X24487482Y-53787708D01*
X24476212Y-53829766D01*
X23777340Y-53130894D01*
X23717084Y-53213830D01*
X23609897Y-53424197D01*
X23536934Y-53648752D01*
X23500000Y-53881947D01*
X23048130Y-53881947D01*
X23016757Y-53683872D01*
X23016757Y-53683869D01*
X22951095Y-53481782D01*
X22854624Y-53292449D01*
X22815270Y-53238282D01*
X22815269Y-53238282D01*
X22182962Y-53870590D01*
X22165925Y-53807007D01*
X22100099Y-53692993D01*
X22007007Y-53599901D01*
X21892993Y-53534075D01*
X21829408Y-53517037D01*
X22461716Y-52884728D01*
X22407550Y-52845375D01*
X22218217Y-52748904D01*
X22016129Y-52683242D01*
X21806246Y-52650000D01*
X21593754Y-52650000D01*
X21439980Y-52674355D01*
X21370686Y-52665400D01*
X21317234Y-52620404D01*
X21296595Y-52553652D01*
X21315320Y-52486339D01*
X21332890Y-52464213D01*
X21651487Y-52145616D01*
X21712808Y-52112134D01*
X21739166Y-52109300D01*
X49400606Y-52109300D01*
X49400609Y-52109300D01*
X49515186Y-52078599D01*
X49617913Y-52019289D01*
X49701789Y-51935413D01*
X49701790Y-51935410D01*
X49707207Y-51929994D01*
X49707905Y-51929196D01*
X50895050Y-50742052D01*
X50956371Y-50708569D01*
X51021043Y-50711803D01*
X51157000Y-50755978D01*
X51195465Y-50768477D01*
X51296557Y-50784488D01*
X51397648Y-50800500D01*
X51397649Y-50800500D01*
X51602351Y-50800500D01*
X51602352Y-50800500D01*
X51804534Y-50768477D01*
X51999219Y-50705220D01*
X52181610Y-50612287D01*
X52289444Y-50533942D01*
X52347213Y-50491971D01*
X52347215Y-50491968D01*
X52347219Y-50491966D01*
X52491966Y-50347219D01*
X52491968Y-50347215D01*
X52491971Y-50347213D01*
X52544732Y-50274590D01*
X52612287Y-50181610D01*
X52705220Y-49999219D01*
X52768477Y-49804534D01*
X52784545Y-49703084D01*
X52814474Y-49639950D01*
X52873786Y-49603019D01*
X52943648Y-49604017D01*
X52994699Y-49634802D01*
X55998765Y-52638868D01*
X56032250Y-52700191D01*
X56027266Y-52769883D01*
X55985394Y-52825816D01*
X55919930Y-52850233D01*
X55896807Y-52849724D01*
X55894886Y-52849501D01*
X55894866Y-52849500D01*
X55894865Y-52849500D01*
X55894862Y-52849500D01*
X54105143Y-52849500D01*
X54105117Y-52849502D01*
X54080012Y-52852413D01*
X54080008Y-52852415D01*
X53977235Y-52897793D01*
X53897794Y-52977234D01*
X53852415Y-53080006D01*
X53852415Y-53080008D01*
X53849500Y-53105131D01*
X53849500Y-54894856D01*
X53849502Y-54894882D01*
X53852413Y-54919987D01*
X53852415Y-54919991D01*
X53897793Y-55022764D01*
X53897794Y-55022765D01*
X53977235Y-55102206D01*
X54080009Y-55147585D01*
X54105135Y-55150500D01*
X55894864Y-55150499D01*
X55894879Y-55150497D01*
X55894882Y-55150497D01*
X55919987Y-55147586D01*
X55919988Y-55147585D01*
X55919991Y-55147585D01*
X56022765Y-55102206D01*
X56102206Y-55022765D01*
X56147585Y-54919991D01*
X56150500Y-54894865D01*
X56150499Y-54157125D01*
X56170183Y-54090089D01*
X56222987Y-54044334D01*
X56292146Y-54034390D01*
X56355702Y-54063415D01*
X56393476Y-54122193D01*
X56396972Y-54137729D01*
X56417829Y-54269410D01*
X56473787Y-54441636D01*
X56473788Y-54441639D01*
X56528749Y-54549504D01*
X56555400Y-54601809D01*
X56556006Y-54602997D01*
X56662441Y-54749494D01*
X56662445Y-54749499D01*
X56790500Y-54877554D01*
X56790505Y-54877558D01*
X56900361Y-54957372D01*
X56937006Y-54983996D01*
X57013094Y-55022765D01*
X57098360Y-55066211D01*
X57098363Y-55066212D01*
X57173947Y-55090770D01*
X57270591Y-55122171D01*
X57353429Y-55135291D01*
X57449449Y-55150500D01*
X57449454Y-55150500D01*
X57630551Y-55150500D01*
X57717259Y-55136765D01*
X57809409Y-55122171D01*
X57981639Y-55066211D01*
X58142994Y-54983996D01*
X58261573Y-54897844D01*
X58289495Y-54877558D01*
X58289497Y-54877555D01*
X58289501Y-54877553D01*
X58417553Y-54749501D01*
X58523996Y-54602994D01*
X58591090Y-54471314D01*
X58639065Y-54420519D01*
X58706886Y-54403724D01*
X58773021Y-54426262D01*
X58816472Y-54480977D01*
X58819506Y-54489292D01*
X58828904Y-54518217D01*
X58925375Y-54707550D01*
X58964728Y-54761716D01*
X59597037Y-54129408D01*
X59614075Y-54192993D01*
X59679901Y-54307007D01*
X59772993Y-54400099D01*
X59887007Y-54465925D01*
X59950590Y-54482962D01*
X59318282Y-55115269D01*
X59318282Y-55115270D01*
X59372449Y-55154624D01*
X59561782Y-55251095D01*
X59763870Y-55316757D01*
X59973754Y-55350000D01*
X60186246Y-55350000D01*
X60396127Y-55316757D01*
X60396130Y-55316757D01*
X60598217Y-55251095D01*
X60787554Y-55154622D01*
X60841716Y-55115270D01*
X60841717Y-55115270D01*
X60209408Y-54482962D01*
X60272993Y-54465925D01*
X60387007Y-54400099D01*
X60480099Y-54307007D01*
X60545925Y-54192993D01*
X60562962Y-54129408D01*
X61195270Y-54761717D01*
X61195270Y-54761716D01*
X61234622Y-54707554D01*
X61331095Y-54518217D01*
X61396757Y-54316130D01*
X61396757Y-54316127D01*
X61418439Y-54179240D01*
X61430000Y-54106246D01*
X61430000Y-53893753D01*
X61396757Y-53683872D01*
X61396757Y-53683869D01*
X61331095Y-53481782D01*
X61234624Y-53292449D01*
X61195270Y-53238282D01*
X61195269Y-53238282D01*
X60562962Y-53870590D01*
X60545925Y-53807007D01*
X60480099Y-53692993D01*
X60387007Y-53599901D01*
X60272993Y-53534075D01*
X60209409Y-53517037D01*
X60715275Y-53011170D01*
X60841716Y-52884728D01*
X60787550Y-52845375D01*
X60598217Y-52748904D01*
X60396129Y-52683242D01*
X60186246Y-52650000D01*
X59973754Y-52650000D01*
X59763872Y-52683242D01*
X59763869Y-52683242D01*
X59561782Y-52748904D01*
X59372439Y-52845380D01*
X59318282Y-52884727D01*
X59318282Y-52884728D01*
X59950591Y-53517037D01*
X59887007Y-53534075D01*
X59772993Y-53599901D01*
X59679901Y-53692993D01*
X59614075Y-53807007D01*
X59597037Y-53870591D01*
X58964728Y-53238282D01*
X58964727Y-53238282D01*
X58925380Y-53292439D01*
X58828905Y-53481781D01*
X58819506Y-53510708D01*
X58780068Y-53568383D01*
X58715709Y-53595581D01*
X58646862Y-53583666D01*
X58595387Y-53536421D01*
X58591090Y-53528684D01*
X58550998Y-53450000D01*
X58523996Y-53397006D01*
X58480235Y-53336774D01*
X58417558Y-53250505D01*
X58417554Y-53250500D01*
X58289499Y-53122445D01*
X58289494Y-53122441D01*
X58165432Y-53032305D01*
X58142996Y-53016005D01*
X57981639Y-52933788D01*
X57981636Y-52933787D01*
X57809410Y-52877829D01*
X57630551Y-52849500D01*
X57630546Y-52849500D01*
X57534965Y-52849500D01*
X57467926Y-52829815D01*
X57447284Y-52813181D01*
X50203098Y-45568995D01*
X60382899Y-45568995D01*
X60409818Y-45704322D01*
X60409821Y-45704332D01*
X60462621Y-45831804D01*
X60462628Y-45831817D01*
X60539285Y-45946541D01*
X60539288Y-45946545D01*
X60636854Y-46044111D01*
X60636858Y-46044114D01*
X60751582Y-46120771D01*
X60751595Y-46120778D01*
X60871747Y-46170546D01*
X60879072Y-46173580D01*
X60879076Y-46173580D01*
X60879077Y-46173581D01*
X61014404Y-46200500D01*
X61014407Y-46200500D01*
X61152395Y-46200500D01*
X61243441Y-46182389D01*
X61287728Y-46173580D01*
X61415211Y-46120775D01*
X61529942Y-46044114D01*
X61587238Y-45986817D01*
X61648559Y-45953334D01*
X61674918Y-45950500D01*
X64918435Y-45950500D01*
X64985474Y-45970185D01*
X65028918Y-46018204D01*
X65042120Y-46044114D01*
X65058766Y-46076785D01*
X65058770Y-46076792D01*
X65101100Y-46135053D01*
X65160586Y-46216928D01*
X65283072Y-46339414D01*
X65423212Y-46441232D01*
X65577555Y-46519873D01*
X65742299Y-46573402D01*
X65913389Y-46600500D01*
X65913390Y-46600500D01*
X66086610Y-46600500D01*
X66086611Y-46600500D01*
X66257701Y-46573402D01*
X66422445Y-46519873D01*
X66576788Y-46441232D01*
X66716928Y-46339414D01*
X66839414Y-46216928D01*
X66941232Y-46076788D01*
X67019873Y-45922445D01*
X67073402Y-45757701D01*
X67100500Y-45586611D01*
X67100500Y-45413389D01*
X72519500Y-45413389D01*
X72519500Y-45586610D01*
X72538144Y-45704328D01*
X72546598Y-45757701D01*
X72600127Y-45922445D01*
X72678768Y-46076788D01*
X72780586Y-46216928D01*
X72903072Y-46339414D01*
X73043212Y-46441232D01*
X73197555Y-46519873D01*
X73362299Y-46573402D01*
X73533389Y-46600500D01*
X73533390Y-46600500D01*
X73706610Y-46600500D01*
X73706611Y-46600500D01*
X73877701Y-46573402D01*
X74042445Y-46519873D01*
X74196788Y-46441232D01*
X74336928Y-46339414D01*
X74459414Y-46216928D01*
X74561232Y-46076788D01*
X74639873Y-45922445D01*
X74693402Y-45757701D01*
X74720500Y-45586611D01*
X74720500Y-45413389D01*
X74693402Y-45242299D01*
X74639873Y-45077555D01*
X74561232Y-44923212D01*
X74459414Y-44783072D01*
X74336928Y-44660586D01*
X74196788Y-44558768D01*
X74042445Y-44480127D01*
X73877701Y-44426598D01*
X73877699Y-44426597D01*
X73877698Y-44426597D01*
X73746271Y-44405781D01*
X73706611Y-44399500D01*
X73533389Y-44399500D01*
X73493728Y-44405781D01*
X73362302Y-44426597D01*
X73197552Y-44480128D01*
X73043211Y-44558768D01*
X72977911Y-44606212D01*
X72903072Y-44660586D01*
X72903070Y-44660588D01*
X72903069Y-44660588D01*
X72780588Y-44783069D01*
X72780588Y-44783070D01*
X72780586Y-44783072D01*
X72749093Y-44826418D01*
X72678768Y-44923211D01*
X72600128Y-45077552D01*
X72546597Y-45242302D01*
X72519500Y-45413389D01*
X67100500Y-45413389D01*
X67073402Y-45242299D01*
X67019873Y-45077555D01*
X66941232Y-44923212D01*
X66839414Y-44783072D01*
X66716928Y-44660586D01*
X66576788Y-44558768D01*
X66422445Y-44480127D01*
X66257701Y-44426598D01*
X66257699Y-44426597D01*
X66257698Y-44426597D01*
X66126271Y-44405781D01*
X66086611Y-44399500D01*
X65913389Y-44399500D01*
X65873728Y-44405781D01*
X65742302Y-44426597D01*
X65577552Y-44480128D01*
X65423211Y-44558768D01*
X65357911Y-44606212D01*
X65283072Y-44660586D01*
X65283070Y-44660588D01*
X65283069Y-44660588D01*
X65160588Y-44783069D01*
X65160588Y-44783070D01*
X65160586Y-44783072D01*
X65135040Y-44818232D01*
X65058770Y-44923207D01*
X65058766Y-44923214D01*
X65042120Y-44955886D01*
X65028918Y-44981795D01*
X64980947Y-45032590D01*
X64918435Y-45049500D01*
X61674918Y-45049500D01*
X61607879Y-45029815D01*
X61587241Y-45013185D01*
X61529942Y-44955886D01*
X61529941Y-44955885D01*
X61529940Y-44955884D01*
X61415217Y-44879228D01*
X61415204Y-44879221D01*
X61287732Y-44826421D01*
X61287722Y-44826418D01*
X61152395Y-44799500D01*
X61152393Y-44799500D01*
X61014407Y-44799500D01*
X61014405Y-44799500D01*
X60879077Y-44826418D01*
X60879067Y-44826421D01*
X60751595Y-44879221D01*
X60751582Y-44879228D01*
X60636858Y-44955885D01*
X60636854Y-44955888D01*
X60539288Y-45053454D01*
X60539285Y-45053458D01*
X60462628Y-45168182D01*
X60462621Y-45168195D01*
X60409821Y-45295667D01*
X60409818Y-45295677D01*
X60382900Y-45431004D01*
X60382900Y-45431007D01*
X60382900Y-45568993D01*
X60382900Y-45568995D01*
X60382899Y-45568995D01*
X50203098Y-45568995D01*
X47764916Y-43130813D01*
X47764914Y-43130811D01*
X47708713Y-43098363D01*
X47662188Y-43071501D01*
X47650080Y-43068257D01*
X47637973Y-43065013D01*
X47637970Y-43065012D01*
X47599778Y-43054778D01*
X47547609Y-43040800D01*
X47547608Y-43040800D01*
X27597465Y-43040800D01*
X27530426Y-43021115D01*
X27509784Y-43004481D01*
X26684983Y-42179680D01*
X26651498Y-42118357D01*
X26656482Y-42048665D01*
X26698354Y-41992732D01*
X26734345Y-41974068D01*
X26881639Y-41926211D01*
X27042994Y-41843996D01*
X27189501Y-41737553D01*
X27317553Y-41609501D01*
X27423996Y-41462994D01*
X27506211Y-41301639D01*
X27562171Y-41129409D01*
X27582821Y-40999031D01*
X27587527Y-40969321D01*
X27617456Y-40906186D01*
X27676768Y-40869255D01*
X27746630Y-40870253D01*
X27804863Y-40908863D01*
X27832473Y-40969321D01*
X27857829Y-41129410D01*
X27913787Y-41301636D01*
X27913788Y-41301639D01*
X27996006Y-41462997D01*
X28102441Y-41609494D01*
X28102445Y-41609499D01*
X28230500Y-41737554D01*
X28230505Y-41737558D01*
X28263141Y-41761269D01*
X28377006Y-41843996D01*
X28466750Y-41889723D01*
X28538360Y-41926211D01*
X28538363Y-41926212D01*
X28624476Y-41954191D01*
X28710591Y-41982171D01*
X28793429Y-41995291D01*
X28889449Y-42010500D01*
X28889454Y-42010500D01*
X29070551Y-42010500D01*
X29157259Y-41996765D01*
X29249409Y-41982171D01*
X29421639Y-41926211D01*
X29582994Y-41843996D01*
X29729501Y-41737553D01*
X29857553Y-41609501D01*
X29963996Y-41462994D01*
X30046211Y-41301639D01*
X30102171Y-41129409D01*
X30122821Y-40999031D01*
X30127527Y-40969321D01*
X30157456Y-40906186D01*
X30216768Y-40869255D01*
X30286630Y-40870253D01*
X30344863Y-40908863D01*
X30372473Y-40969321D01*
X30397829Y-41129410D01*
X30453787Y-41301636D01*
X30453788Y-41301639D01*
X30536006Y-41462997D01*
X30642441Y-41609494D01*
X30642445Y-41609499D01*
X30770500Y-41737554D01*
X30770505Y-41737558D01*
X30803141Y-41761269D01*
X30917006Y-41843996D01*
X31006750Y-41889723D01*
X31078360Y-41926211D01*
X31078363Y-41926212D01*
X31164476Y-41954191D01*
X31250591Y-41982171D01*
X31333429Y-41995291D01*
X31429449Y-42010500D01*
X31429454Y-42010500D01*
X31610551Y-42010500D01*
X31697259Y-41996765D01*
X31789409Y-41982171D01*
X31961639Y-41926211D01*
X32122994Y-41843996D01*
X32269501Y-41737553D01*
X32397553Y-41609501D01*
X32503996Y-41462994D01*
X32586211Y-41301639D01*
X32642171Y-41129409D01*
X32662821Y-40999031D01*
X32667527Y-40969321D01*
X32697456Y-40906186D01*
X32756768Y-40869255D01*
X32826630Y-40870253D01*
X32884863Y-40908863D01*
X32912473Y-40969321D01*
X32937829Y-41129410D01*
X32993787Y-41301636D01*
X32993788Y-41301639D01*
X33076006Y-41462997D01*
X33182441Y-41609494D01*
X33182445Y-41609499D01*
X33310500Y-41737554D01*
X33310505Y-41737558D01*
X33343141Y-41761269D01*
X33457006Y-41843996D01*
X33546750Y-41889723D01*
X33618360Y-41926211D01*
X33618363Y-41926212D01*
X33704476Y-41954191D01*
X33790591Y-41982171D01*
X33873429Y-41995291D01*
X33969449Y-42010500D01*
X33969454Y-42010500D01*
X34150551Y-42010500D01*
X34237259Y-41996765D01*
X34329409Y-41982171D01*
X34501639Y-41926211D01*
X34662994Y-41843996D01*
X34809501Y-41737553D01*
X34937553Y-41609501D01*
X35043996Y-41462994D01*
X35126211Y-41301639D01*
X35182171Y-41129409D01*
X35202821Y-40999031D01*
X35207527Y-40969321D01*
X35237456Y-40906186D01*
X35296768Y-40869255D01*
X35366630Y-40870253D01*
X35424863Y-40908863D01*
X35452473Y-40969321D01*
X35477829Y-41129410D01*
X35533787Y-41301636D01*
X35533788Y-41301639D01*
X35616006Y-41462997D01*
X35722441Y-41609494D01*
X35722445Y-41609499D01*
X35850500Y-41737554D01*
X35850505Y-41737558D01*
X35883141Y-41761269D01*
X35997006Y-41843996D01*
X36086750Y-41889723D01*
X36158360Y-41926211D01*
X36158363Y-41926212D01*
X36244476Y-41954191D01*
X36330591Y-41982171D01*
X36413429Y-41995291D01*
X36509449Y-42010500D01*
X36509454Y-42010500D01*
X36690551Y-42010500D01*
X36777259Y-41996765D01*
X36869409Y-41982171D01*
X37041639Y-41926211D01*
X37202994Y-41843996D01*
X37349501Y-41737553D01*
X37477553Y-41609501D01*
X37583996Y-41462994D01*
X37666211Y-41301639D01*
X37722171Y-41129409D01*
X37742821Y-40999031D01*
X37747527Y-40969321D01*
X37777456Y-40906186D01*
X37836768Y-40869255D01*
X37906630Y-40870253D01*
X37964863Y-40908863D01*
X37992473Y-40969321D01*
X38017829Y-41129410D01*
X38073787Y-41301636D01*
X38073788Y-41301639D01*
X38156006Y-41462997D01*
X38262441Y-41609494D01*
X38262445Y-41609499D01*
X38390500Y-41737554D01*
X38390505Y-41737558D01*
X38423141Y-41761269D01*
X38537006Y-41843996D01*
X38626750Y-41889723D01*
X38698360Y-41926211D01*
X38698363Y-41926212D01*
X38784476Y-41954191D01*
X38870591Y-41982171D01*
X38953429Y-41995291D01*
X39049449Y-42010500D01*
X39049454Y-42010500D01*
X39230551Y-42010500D01*
X39317259Y-41996765D01*
X39409409Y-41982171D01*
X39581639Y-41926211D01*
X39742994Y-41843996D01*
X39889501Y-41737553D01*
X40017553Y-41609501D01*
X40123996Y-41462994D01*
X40206211Y-41301639D01*
X40262171Y-41129409D01*
X40282821Y-40999031D01*
X40287527Y-40969321D01*
X40317456Y-40906186D01*
X40376768Y-40869255D01*
X40446630Y-40870253D01*
X40504863Y-40908863D01*
X40532473Y-40969321D01*
X40557829Y-41129410D01*
X40613787Y-41301636D01*
X40613788Y-41301639D01*
X40696006Y-41462997D01*
X40802441Y-41609494D01*
X40802445Y-41609499D01*
X40930500Y-41737554D01*
X40930505Y-41737558D01*
X40963141Y-41761269D01*
X41077006Y-41843996D01*
X41166750Y-41889723D01*
X41238360Y-41926211D01*
X41238363Y-41926212D01*
X41324476Y-41954191D01*
X41410591Y-41982171D01*
X41493429Y-41995291D01*
X41589449Y-42010500D01*
X41589454Y-42010500D01*
X41770551Y-42010500D01*
X41857259Y-41996765D01*
X41949409Y-41982171D01*
X42121639Y-41926211D01*
X42282994Y-41843996D01*
X42429501Y-41737553D01*
X42557553Y-41609501D01*
X42663996Y-41462994D01*
X42746211Y-41301639D01*
X42802171Y-41129409D01*
X42822821Y-40999031D01*
X42827527Y-40969321D01*
X42857456Y-40906186D01*
X42916768Y-40869255D01*
X42986630Y-40870253D01*
X43044863Y-40908863D01*
X43072473Y-40969321D01*
X43097829Y-41129410D01*
X43153787Y-41301636D01*
X43153788Y-41301639D01*
X43236006Y-41462997D01*
X43342441Y-41609494D01*
X43342445Y-41609499D01*
X43470500Y-41737554D01*
X43470505Y-41737558D01*
X43503141Y-41761269D01*
X43617006Y-41843996D01*
X43706750Y-41889723D01*
X43778360Y-41926211D01*
X43778363Y-41926212D01*
X43864476Y-41954191D01*
X43950591Y-41982171D01*
X44033429Y-41995291D01*
X44129449Y-42010500D01*
X44129454Y-42010500D01*
X44310551Y-42010500D01*
X44397259Y-41996765D01*
X44489409Y-41982171D01*
X44661639Y-41926211D01*
X44822994Y-41843996D01*
X44969501Y-41737553D01*
X45097553Y-41609501D01*
X45203996Y-41462994D01*
X45286211Y-41301639D01*
X45342171Y-41129409D01*
X45362821Y-40999031D01*
X45367527Y-40969321D01*
X45397456Y-40906186D01*
X45456768Y-40869255D01*
X45526630Y-40870253D01*
X45584863Y-40908863D01*
X45612473Y-40969321D01*
X45637829Y-41129410D01*
X45693787Y-41301636D01*
X45693788Y-41301639D01*
X45776006Y-41462997D01*
X45882441Y-41609494D01*
X45882445Y-41609499D01*
X46010500Y-41737554D01*
X46010505Y-41737558D01*
X46043141Y-41761269D01*
X46157006Y-41843996D01*
X46246750Y-41889723D01*
X46318360Y-41926211D01*
X46318363Y-41926212D01*
X46404476Y-41954191D01*
X46490591Y-41982171D01*
X46573429Y-41995291D01*
X46669449Y-42010500D01*
X46669454Y-42010500D01*
X46850551Y-42010500D01*
X46937259Y-41996765D01*
X47029409Y-41982171D01*
X47201639Y-41926211D01*
X47362994Y-41843996D01*
X47509501Y-41737553D01*
X47637553Y-41609501D01*
X47743996Y-41462994D01*
X47826211Y-41301639D01*
X47882171Y-41129409D01*
X47902821Y-40999031D01*
X47907527Y-40969321D01*
X47937456Y-40906186D01*
X47996768Y-40869255D01*
X48066630Y-40870253D01*
X48124863Y-40908863D01*
X48152473Y-40969321D01*
X48177829Y-41129410D01*
X48233787Y-41301636D01*
X48233788Y-41301639D01*
X48316006Y-41462997D01*
X48422441Y-41609494D01*
X48422445Y-41609499D01*
X48550500Y-41737554D01*
X48550505Y-41737558D01*
X48583141Y-41761269D01*
X48697006Y-41843996D01*
X48786750Y-41889723D01*
X48858360Y-41926211D01*
X48858363Y-41926212D01*
X48944476Y-41954191D01*
X49030591Y-41982171D01*
X49113429Y-41995291D01*
X49209449Y-42010500D01*
X49209454Y-42010500D01*
X49390551Y-42010500D01*
X49477259Y-41996765D01*
X49569409Y-41982171D01*
X49741639Y-41926211D01*
X49902994Y-41843996D01*
X50049501Y-41737553D01*
X50177553Y-41609501D01*
X50283996Y-41462994D01*
X50366211Y-41301639D01*
X50422171Y-41129409D01*
X50442821Y-40999031D01*
X50447527Y-40969321D01*
X50477456Y-40906186D01*
X50536768Y-40869255D01*
X50606630Y-40870253D01*
X50664863Y-40908863D01*
X50692473Y-40969321D01*
X50717829Y-41129410D01*
X50773787Y-41301636D01*
X50773788Y-41301639D01*
X50856006Y-41462997D01*
X50962441Y-41609494D01*
X50962445Y-41609499D01*
X51090500Y-41737554D01*
X51090505Y-41737558D01*
X51123141Y-41761269D01*
X51237006Y-41843996D01*
X51326750Y-41889723D01*
X51398360Y-41926211D01*
X51398363Y-41926212D01*
X51484476Y-41954191D01*
X51570591Y-41982171D01*
X51653429Y-41995291D01*
X51749449Y-42010500D01*
X51749454Y-42010500D01*
X51930551Y-42010500D01*
X52017259Y-41996765D01*
X52109409Y-41982171D01*
X52281639Y-41926211D01*
X52442994Y-41843996D01*
X52589501Y-41737553D01*
X52717553Y-41609501D01*
X52823996Y-41462994D01*
X52906211Y-41301639D01*
X52962171Y-41129409D01*
X52982821Y-40999031D01*
X52987527Y-40969321D01*
X53017456Y-40906186D01*
X53076768Y-40869255D01*
X53146630Y-40870253D01*
X53204863Y-40908863D01*
X53232473Y-40969321D01*
X53257829Y-41129410D01*
X53313787Y-41301636D01*
X53313788Y-41301639D01*
X53396006Y-41462997D01*
X53502441Y-41609494D01*
X53502445Y-41609499D01*
X53630500Y-41737554D01*
X53630505Y-41737558D01*
X53663141Y-41761269D01*
X53777006Y-41843996D01*
X53866750Y-41889723D01*
X53938360Y-41926211D01*
X53938363Y-41926212D01*
X54024476Y-41954191D01*
X54110591Y-41982171D01*
X54193429Y-41995291D01*
X54289449Y-42010500D01*
X54289454Y-42010500D01*
X54470551Y-42010500D01*
X54557259Y-41996765D01*
X54649409Y-41982171D01*
X54821639Y-41926211D01*
X54982994Y-41843996D01*
X55129501Y-41737553D01*
X55161795Y-41705258D01*
X55223115Y-41671774D01*
X55292807Y-41676758D01*
X55337156Y-41705259D01*
X56446086Y-42814189D01*
X56548813Y-42873499D01*
X56573021Y-42879984D01*
X56573024Y-42879986D01*
X56573025Y-42879986D01*
X56603147Y-42888057D01*
X56663391Y-42904200D01*
X75295735Y-42904200D01*
X75362774Y-42923885D01*
X75383416Y-42940519D01*
X85233480Y-52790583D01*
X85266965Y-52851906D01*
X85261981Y-52921598D01*
X85220109Y-52977531D01*
X85154645Y-53001948D01*
X85089504Y-52988749D01*
X84981639Y-52933788D01*
X84981636Y-52933787D01*
X84809410Y-52877829D01*
X84630551Y-52849500D01*
X84630546Y-52849500D01*
X84449454Y-52849500D01*
X84449449Y-52849500D01*
X84270589Y-52877829D01*
X84098363Y-52933787D01*
X84098360Y-52933788D01*
X83937002Y-53016006D01*
X83790505Y-53122441D01*
X83790500Y-53122445D01*
X83662445Y-53250500D01*
X83662441Y-53250505D01*
X83574318Y-53371797D01*
X83518988Y-53414463D01*
X83449375Y-53420442D01*
X83387580Y-53387836D01*
X83353223Y-53326998D01*
X83350000Y-53298912D01*
X83350000Y-53102172D01*
X83349999Y-53102155D01*
X83343598Y-53042627D01*
X83343596Y-53042620D01*
X83293354Y-52907913D01*
X83293350Y-52907906D01*
X83207190Y-52792812D01*
X83207187Y-52792809D01*
X83092093Y-52706649D01*
X83092086Y-52706645D01*
X82957379Y-52656403D01*
X82957372Y-52656401D01*
X82897844Y-52650000D01*
X82250000Y-52650000D01*
X82250000Y-53566988D01*
X82192993Y-53534075D01*
X82065826Y-53500000D01*
X81934174Y-53500000D01*
X81807007Y-53534075D01*
X81750000Y-53566988D01*
X81750000Y-52650000D01*
X81102155Y-52650000D01*
X81042627Y-52656401D01*
X81042620Y-52656403D01*
X80907913Y-52706645D01*
X80907906Y-52706649D01*
X80792812Y-52792809D01*
X80792809Y-52792812D01*
X80706649Y-52907906D01*
X80706645Y-52907913D01*
X80656403Y-53042620D01*
X80656401Y-53042627D01*
X80650000Y-53102155D01*
X80650000Y-53750000D01*
X81566988Y-53750000D01*
X81534075Y-53807007D01*
X81500000Y-53934174D01*
X81500000Y-54065826D01*
X81534075Y-54192993D01*
X81566988Y-54250000D01*
X80650000Y-54250000D01*
X80650000Y-54672500D01*
X80630315Y-54739539D01*
X80577511Y-54785294D01*
X80526000Y-54796500D01*
X79564965Y-54796500D01*
X79497926Y-54776815D01*
X79477284Y-54760181D01*
X79203015Y-54485912D01*
X79169530Y-54424589D01*
X79172765Y-54359913D01*
X79179980Y-54337708D01*
X79202171Y-54269409D01*
X79217300Y-54173886D01*
X79230500Y-54090551D01*
X79230500Y-53909448D01*
X79205245Y-53750000D01*
X79202171Y-53730591D01*
X79158530Y-53596275D01*
X79146212Y-53558363D01*
X79146211Y-53558360D01*
X79091250Y-53450495D01*
X79063996Y-53397006D01*
X79020235Y-53336774D01*
X78957558Y-53250505D01*
X78957554Y-53250500D01*
X78829499Y-53122445D01*
X78829494Y-53122441D01*
X78682997Y-53016006D01*
X78682996Y-53016005D01*
X78682994Y-53016004D01*
X78625011Y-52986460D01*
X78521639Y-52933788D01*
X78521636Y-52933787D01*
X78349410Y-52877829D01*
X78170551Y-52849500D01*
X78170546Y-52849500D01*
X77989454Y-52849500D01*
X77989449Y-52849500D01*
X77810589Y-52877829D01*
X77638363Y-52933787D01*
X77638360Y-52933788D01*
X77477002Y-53016006D01*
X77330505Y-53122441D01*
X77330500Y-53122445D01*
X77202445Y-53250500D01*
X77202441Y-53250505D01*
X77096006Y-53397002D01*
X77013788Y-53558360D01*
X77013787Y-53558363D01*
X76957829Y-53730589D01*
X76932473Y-53890678D01*
X76902544Y-53953813D01*
X76843232Y-53990744D01*
X76773369Y-53989746D01*
X76715137Y-53951136D01*
X76687527Y-53890678D01*
X76665245Y-53750000D01*
X76662171Y-53730591D01*
X76618530Y-53596275D01*
X76606212Y-53558363D01*
X76606211Y-53558360D01*
X76551250Y-53450495D01*
X76523996Y-53397006D01*
X76480235Y-53336774D01*
X76417558Y-53250505D01*
X76417554Y-53250500D01*
X76289499Y-53122445D01*
X76289494Y-53122441D01*
X76142997Y-53016006D01*
X76142996Y-53016005D01*
X76142994Y-53016004D01*
X76085011Y-52986460D01*
X75981639Y-52933788D01*
X75981636Y-52933787D01*
X75809410Y-52877829D01*
X75630551Y-52849500D01*
X75630546Y-52849500D01*
X75449454Y-52849500D01*
X75449449Y-52849500D01*
X75270589Y-52877829D01*
X75098363Y-52933787D01*
X75098360Y-52933788D01*
X74937002Y-53016006D01*
X74790505Y-53122441D01*
X74790500Y-53122445D01*
X74662445Y-53250500D01*
X74662441Y-53250505D01*
X74574318Y-53371797D01*
X74518988Y-53414463D01*
X74449375Y-53420442D01*
X74387580Y-53387836D01*
X74353223Y-53326998D01*
X74350000Y-53298912D01*
X74350000Y-53102172D01*
X74349999Y-53102155D01*
X74343598Y-53042627D01*
X74343596Y-53042620D01*
X74293354Y-52907913D01*
X74293350Y-52907906D01*
X74207190Y-52792812D01*
X74207187Y-52792809D01*
X74092093Y-52706649D01*
X74092086Y-52706645D01*
X73957379Y-52656403D01*
X73957372Y-52656401D01*
X73897844Y-52650000D01*
X73250000Y-52650000D01*
X73250000Y-53566988D01*
X73192993Y-53534075D01*
X73065826Y-53500000D01*
X72934174Y-53500000D01*
X72807007Y-53534075D01*
X72750000Y-53566988D01*
X72750000Y-52650000D01*
X72102155Y-52650000D01*
X72042627Y-52656401D01*
X72042620Y-52656403D01*
X71907913Y-52706645D01*
X71907906Y-52706649D01*
X71792812Y-52792809D01*
X71792809Y-52792812D01*
X71706649Y-52907906D01*
X71706645Y-52907913D01*
X71656403Y-53042620D01*
X71656401Y-53042627D01*
X71650000Y-53102155D01*
X71650000Y-53750000D01*
X72566988Y-53750000D01*
X72534075Y-53807007D01*
X72500000Y-53934174D01*
X72500000Y-54065826D01*
X72534075Y-54192993D01*
X72566988Y-54250000D01*
X71650000Y-54250000D01*
X71650000Y-54637800D01*
X71630315Y-54704839D01*
X71577511Y-54750594D01*
X71526000Y-54761800D01*
X70185430Y-54761800D01*
X70118391Y-54742115D01*
X70072636Y-54689311D01*
X70062692Y-54620153D01*
X70074945Y-54581505D01*
X70091251Y-54549504D01*
X70146211Y-54441639D01*
X70202171Y-54269409D01*
X70217300Y-54173886D01*
X70230500Y-54090551D01*
X70230500Y-53909448D01*
X70205245Y-53750000D01*
X70202171Y-53730591D01*
X70158530Y-53596275D01*
X70146212Y-53558363D01*
X70146211Y-53558360D01*
X70091250Y-53450495D01*
X70063996Y-53397006D01*
X70020235Y-53336774D01*
X69957558Y-53250505D01*
X69957554Y-53250500D01*
X69829499Y-53122445D01*
X69829494Y-53122441D01*
X69682997Y-53016006D01*
X69682996Y-53016005D01*
X69682994Y-53016004D01*
X69625011Y-52986460D01*
X69521639Y-52933788D01*
X69521636Y-52933787D01*
X69349410Y-52877829D01*
X69170551Y-52849500D01*
X69170546Y-52849500D01*
X68989454Y-52849500D01*
X68989449Y-52849500D01*
X68810589Y-52877829D01*
X68638363Y-52933787D01*
X68638360Y-52933788D01*
X68477002Y-53016006D01*
X68330505Y-53122441D01*
X68330500Y-53122445D01*
X68202445Y-53250500D01*
X68202441Y-53250505D01*
X68096006Y-53397002D01*
X68013788Y-53558360D01*
X68013787Y-53558363D01*
X67957829Y-53730589D01*
X67932473Y-53890678D01*
X67902544Y-53953813D01*
X67843232Y-53990744D01*
X67773369Y-53989746D01*
X67715137Y-53951136D01*
X67687527Y-53890678D01*
X67665245Y-53750000D01*
X67662171Y-53730591D01*
X67618530Y-53596275D01*
X67606212Y-53558363D01*
X67606211Y-53558360D01*
X67551250Y-53450495D01*
X67523996Y-53397006D01*
X67480235Y-53336774D01*
X67417558Y-53250505D01*
X67417554Y-53250500D01*
X67289499Y-53122445D01*
X67289494Y-53122441D01*
X67142997Y-53016006D01*
X67142996Y-53016005D01*
X67142994Y-53016004D01*
X67085011Y-52986460D01*
X66981639Y-52933788D01*
X66981636Y-52933787D01*
X66809410Y-52877829D01*
X66630551Y-52849500D01*
X66630546Y-52849500D01*
X66449454Y-52849500D01*
X66449449Y-52849500D01*
X66270589Y-52877829D01*
X66098363Y-52933787D01*
X66098360Y-52933788D01*
X65937002Y-53016006D01*
X65790505Y-53122441D01*
X65790500Y-53122445D01*
X65662445Y-53250500D01*
X65662441Y-53250505D01*
X65574318Y-53371797D01*
X65518988Y-53414463D01*
X65449375Y-53420442D01*
X65387580Y-53387836D01*
X65353223Y-53326998D01*
X65350000Y-53298912D01*
X65350000Y-53102172D01*
X65349999Y-53102155D01*
X65343598Y-53042627D01*
X65343596Y-53042620D01*
X65293354Y-52907913D01*
X65293350Y-52907906D01*
X65207190Y-52792812D01*
X65207187Y-52792809D01*
X65092093Y-52706649D01*
X65092086Y-52706645D01*
X64957379Y-52656403D01*
X64957372Y-52656401D01*
X64897844Y-52650000D01*
X64250000Y-52650000D01*
X64250000Y-53566988D01*
X64192993Y-53534075D01*
X64065826Y-53500000D01*
X63934174Y-53500000D01*
X63807007Y-53534075D01*
X63750000Y-53566988D01*
X63750000Y-52650000D01*
X63102155Y-52650000D01*
X63042627Y-52656401D01*
X63042620Y-52656403D01*
X62907913Y-52706645D01*
X62907906Y-52706649D01*
X62792812Y-52792809D01*
X62792809Y-52792812D01*
X62706649Y-52907906D01*
X62706645Y-52907913D01*
X62656403Y-53042620D01*
X62656401Y-53042627D01*
X62650000Y-53102155D01*
X62650000Y-53750000D01*
X63566988Y-53750000D01*
X63534075Y-53807007D01*
X63500000Y-53934174D01*
X63500000Y-54065826D01*
X63534075Y-54192993D01*
X63566988Y-54250000D01*
X62650000Y-54250000D01*
X62650000Y-54897844D01*
X62656401Y-54957372D01*
X62656403Y-54957379D01*
X62706645Y-55092086D01*
X62706649Y-55092093D01*
X62792809Y-55207187D01*
X62792812Y-55207190D01*
X62907906Y-55293350D01*
X62907913Y-55293354D01*
X63042620Y-55343596D01*
X63042627Y-55343598D01*
X63102155Y-55349999D01*
X63102172Y-55350000D01*
X63750000Y-55350000D01*
X63750000Y-54433012D01*
X63807007Y-54465925D01*
X63934174Y-54500000D01*
X64065826Y-54500000D01*
X64192993Y-54465925D01*
X64250000Y-54433012D01*
X64250000Y-55350000D01*
X64897828Y-55350000D01*
X64897844Y-55349999D01*
X64957372Y-55343598D01*
X64957379Y-55343596D01*
X65092086Y-55293354D01*
X65092093Y-55293350D01*
X65207187Y-55207190D01*
X65207190Y-55207187D01*
X65293350Y-55092093D01*
X65293354Y-55092086D01*
X65343596Y-54957379D01*
X65343598Y-54957372D01*
X65349999Y-54897844D01*
X65350000Y-54897827D01*
X65350000Y-54701087D01*
X65369685Y-54634048D01*
X65422489Y-54588293D01*
X65491647Y-54578349D01*
X65555203Y-54607374D01*
X65574318Y-54628202D01*
X65662441Y-54749495D01*
X65790500Y-54877554D01*
X65790505Y-54877558D01*
X65900361Y-54957372D01*
X65937006Y-54983996D01*
X66013094Y-55022765D01*
X66098360Y-55066211D01*
X66098363Y-55066212D01*
X66173947Y-55090770D01*
X66270591Y-55122171D01*
X66353429Y-55135291D01*
X66449449Y-55150500D01*
X66449454Y-55150500D01*
X66630551Y-55150500D01*
X66717259Y-55136765D01*
X66809409Y-55122171D01*
X66899913Y-55092765D01*
X66969754Y-55090770D01*
X67025912Y-55123015D01*
X67475686Y-55572789D01*
X67578413Y-55632099D01*
X67602621Y-55638584D01*
X67602624Y-55638586D01*
X67602625Y-55638586D01*
X67632747Y-55646657D01*
X67692991Y-55662800D01*
X67692993Y-55662800D01*
X74387008Y-55662800D01*
X74387009Y-55662800D01*
X74477373Y-55638586D01*
X74501587Y-55632099D01*
X74604314Y-55572789D01*
X75054089Y-55123012D01*
X75115410Y-55089529D01*
X75180082Y-55092763D01*
X75270591Y-55122171D01*
X75300401Y-55126892D01*
X75449449Y-55150500D01*
X75449454Y-55150500D01*
X75630551Y-55150500D01*
X75717259Y-55136765D01*
X75809409Y-55122171D01*
X75981639Y-55066211D01*
X76142994Y-54983996D01*
X76289501Y-54877553D01*
X76417553Y-54749501D01*
X76523996Y-54602994D01*
X76606211Y-54441639D01*
X76662171Y-54269409D01*
X76677300Y-54173886D01*
X76687527Y-54109321D01*
X76717456Y-54046186D01*
X76776768Y-54009255D01*
X76846630Y-54010253D01*
X76904863Y-54048863D01*
X76932473Y-54109321D01*
X76957829Y-54269410D01*
X77013787Y-54441636D01*
X77013788Y-54441639D01*
X77068749Y-54549504D01*
X77095400Y-54601809D01*
X77096006Y-54602997D01*
X77202441Y-54749494D01*
X77202445Y-54749499D01*
X77330500Y-54877554D01*
X77330505Y-54877558D01*
X77440361Y-54957372D01*
X77477006Y-54983996D01*
X77553094Y-55022765D01*
X77638360Y-55066211D01*
X77638363Y-55066212D01*
X77713947Y-55090770D01*
X77810591Y-55122171D01*
X77893429Y-55135291D01*
X77989449Y-55150500D01*
X77989454Y-55150500D01*
X78170551Y-55150500D01*
X78257259Y-55136765D01*
X78349409Y-55122171D01*
X78439913Y-55092765D01*
X78509754Y-55090770D01*
X78565912Y-55123015D01*
X79050386Y-55607489D01*
X79093012Y-55632099D01*
X79153114Y-55666799D01*
X79267691Y-55697500D01*
X79267694Y-55697500D01*
X90212408Y-55697500D01*
X90212409Y-55697500D01*
X90302773Y-55673286D01*
X90326987Y-55666799D01*
X90429714Y-55607489D01*
X91218089Y-54819114D01*
X91277398Y-54716387D01*
X91277399Y-54716386D01*
X91308100Y-54601809D01*
X91308100Y-51674991D01*
X91277399Y-51560414D01*
X91277399Y-51560413D01*
X91226013Y-51471410D01*
X91209400Y-51409410D01*
X91209400Y-49710449D01*
X91229085Y-49643410D01*
X91281889Y-49597655D01*
X91351047Y-49587711D01*
X91392258Y-49602581D01*
X91392665Y-49601784D01*
X91558360Y-49686211D01*
X91558363Y-49686212D01*
X91632959Y-49710449D01*
X91730591Y-49742171D01*
X91813429Y-49755291D01*
X91909449Y-49770500D01*
X91909454Y-49770500D01*
X92090551Y-49770500D01*
X92177259Y-49756765D01*
X92269409Y-49742171D01*
X92441639Y-49686211D01*
X92602994Y-49603996D01*
X92749501Y-49497553D01*
X92877553Y-49369501D01*
X92983996Y-49222994D01*
X93066211Y-49061639D01*
X93122171Y-48889409D01*
X93136765Y-48797259D01*
X93150500Y-48710551D01*
X93150500Y-48529448D01*
X93134019Y-48425397D01*
X93122171Y-48350591D01*
X93066211Y-48178361D01*
X92983996Y-48017006D01*
X92970396Y-47998287D01*
X92877558Y-47870505D01*
X92877554Y-47870500D01*
X92749499Y-47742445D01*
X92749494Y-47742441D01*
X92602997Y-47636006D01*
X92602996Y-47636005D01*
X92602994Y-47636004D01*
X92551300Y-47609664D01*
X92441639Y-47553788D01*
X92441636Y-47553787D01*
X92269410Y-47497829D01*
X92109321Y-47472473D01*
X92046186Y-47442544D01*
X92009255Y-47383232D01*
X92010253Y-47313370D01*
X92048863Y-47255137D01*
X92109321Y-47227527D01*
X92179425Y-47216422D01*
X92269409Y-47202171D01*
X92441639Y-47146211D01*
X92602994Y-47063996D01*
X92749501Y-46957553D01*
X92877553Y-46829501D01*
X92983996Y-46682994D01*
X93066211Y-46521639D01*
X93122171Y-46349409D01*
X93145756Y-46200500D01*
X93150500Y-46170551D01*
X93150500Y-45989448D01*
X93134019Y-45885397D01*
X93122171Y-45810591D01*
X93066211Y-45638361D01*
X93066211Y-45638360D01*
X93030866Y-45568993D01*
X92983996Y-45477006D01*
X92937776Y-45413389D01*
X92877558Y-45330505D01*
X92877554Y-45330500D01*
X92749499Y-45202445D01*
X92749494Y-45202441D01*
X92602997Y-45096006D01*
X92602996Y-45096005D01*
X92602994Y-45096004D01*
X92523246Y-45055370D01*
X92441639Y-45013788D01*
X92441636Y-45013787D01*
X92269410Y-44957829D01*
X92109321Y-44932473D01*
X92046186Y-44902544D01*
X92009255Y-44843232D01*
X92010253Y-44773370D01*
X92048863Y-44715137D01*
X92109321Y-44687527D01*
X92179425Y-44676422D01*
X92269409Y-44662171D01*
X92441639Y-44606211D01*
X92602994Y-44523996D01*
X92749501Y-44417553D01*
X92877553Y-44289501D01*
X92983996Y-44142994D01*
X93066211Y-43981639D01*
X93122171Y-43809409D01*
X93136765Y-43717259D01*
X93150500Y-43630551D01*
X93150500Y-43449448D01*
X93134019Y-43345397D01*
X93122171Y-43270591D01*
X93076755Y-43130813D01*
X93066212Y-43098363D01*
X93066211Y-43098360D01*
X93018376Y-43004481D01*
X92983996Y-42937006D01*
X92942569Y-42879986D01*
X92877558Y-42790505D01*
X92877554Y-42790500D01*
X92749495Y-42662441D01*
X92628202Y-42574318D01*
X92585536Y-42518989D01*
X92579557Y-42449375D01*
X92612162Y-42387580D01*
X92673001Y-42353223D01*
X92701087Y-42350000D01*
X92897828Y-42350000D01*
X92897844Y-42349999D01*
X92957372Y-42343598D01*
X92957379Y-42343596D01*
X93092086Y-42293354D01*
X93092093Y-42293350D01*
X93207187Y-42207190D01*
X93207190Y-42207187D01*
X93293350Y-42092093D01*
X93293354Y-42092086D01*
X93343596Y-41957379D01*
X93343598Y-41957372D01*
X93349999Y-41897844D01*
X93350000Y-41897827D01*
X93350000Y-41250000D01*
X92433012Y-41250000D01*
X92465925Y-41192993D01*
X92500000Y-41065826D01*
X92500000Y-40934174D01*
X92465925Y-40807007D01*
X92433012Y-40750000D01*
X93350000Y-40750000D01*
X93350000Y-40102172D01*
X93349999Y-40102155D01*
X93343598Y-40042627D01*
X93343596Y-40042620D01*
X93293354Y-39907913D01*
X93293350Y-39907906D01*
X93207190Y-39792812D01*
X93207187Y-39792809D01*
X93092093Y-39706649D01*
X93092086Y-39706645D01*
X92957379Y-39656403D01*
X92957372Y-39656401D01*
X92897844Y-39650000D01*
X92250000Y-39650000D01*
X92250000Y-40566988D01*
X92192993Y-40534075D01*
X92065826Y-40500000D01*
X91934174Y-40500000D01*
X91807007Y-40534075D01*
X91750000Y-40566988D01*
X91750000Y-39650000D01*
X91102155Y-39650000D01*
X91042627Y-39656401D01*
X91042620Y-39656403D01*
X90907913Y-39706645D01*
X90907906Y-39706649D01*
X90792812Y-39792809D01*
X90792809Y-39792812D01*
X90706649Y-39907906D01*
X90706645Y-39907913D01*
X90656403Y-40042620D01*
X90656401Y-40042627D01*
X90650000Y-40102155D01*
X90650000Y-40750000D01*
X91566988Y-40750000D01*
X91534075Y-40807007D01*
X91500000Y-40934174D01*
X91500000Y-41065826D01*
X91534075Y-41192993D01*
X91566988Y-41250000D01*
X90650000Y-41250000D01*
X90650000Y-41897844D01*
X90656401Y-41957372D01*
X90656403Y-41957379D01*
X90706645Y-42092086D01*
X90706649Y-42092093D01*
X90792809Y-42207187D01*
X90792812Y-42207190D01*
X90907906Y-42293350D01*
X90907913Y-42293354D01*
X91042620Y-42343596D01*
X91042627Y-42343598D01*
X91102155Y-42349999D01*
X91102172Y-42350000D01*
X91298913Y-42350000D01*
X91365952Y-42369685D01*
X91411707Y-42422489D01*
X91421651Y-42491647D01*
X91392626Y-42555203D01*
X91371798Y-42574318D01*
X91250504Y-42662441D01*
X91122445Y-42790500D01*
X91122441Y-42790505D01*
X91016006Y-42937002D01*
X90933788Y-43098360D01*
X90933787Y-43098363D01*
X90877829Y-43270589D01*
X90849500Y-43449448D01*
X90849500Y-43630551D01*
X90877829Y-43809409D01*
X90877830Y-43809416D01*
X90907234Y-43899913D01*
X90909229Y-43969754D01*
X90876984Y-44025911D01*
X90398413Y-44504483D01*
X90398409Y-44504489D01*
X90339101Y-44607212D01*
X90339100Y-44607217D01*
X90308400Y-44721791D01*
X90308400Y-51694908D01*
X90332612Y-51785272D01*
X90339100Y-51809485D01*
X90339100Y-51809486D01*
X90339101Y-51809487D01*
X90390487Y-51898490D01*
X90407100Y-51960489D01*
X90407100Y-52907460D01*
X90387415Y-52974499D01*
X90334611Y-53020254D01*
X90265453Y-53030198D01*
X90226805Y-53017945D01*
X90061639Y-52933789D01*
X90061636Y-52933787D01*
X89889410Y-52877829D01*
X89710551Y-52849500D01*
X89710546Y-52849500D01*
X89529454Y-52849500D01*
X89529449Y-52849500D01*
X89350592Y-52877828D01*
X89260084Y-52907235D01*
X89190243Y-52909229D01*
X89134087Y-52876984D01*
X73394916Y-37137813D01*
X73394914Y-37137811D01*
X73343550Y-37108156D01*
X73292188Y-37078501D01*
X73280080Y-37075257D01*
X73267973Y-37072013D01*
X73267970Y-37072012D01*
X73229778Y-37061778D01*
X73177609Y-37047800D01*
X73177608Y-37047800D01*
X64024000Y-37047800D01*
X63956961Y-37028115D01*
X63911206Y-36975311D01*
X63900000Y-36923800D01*
X63900000Y-35413389D01*
X64899500Y-35413389D01*
X64899500Y-35586610D01*
X64923485Y-35738051D01*
X64926598Y-35757701D01*
X64980127Y-35922445D01*
X65058768Y-36076788D01*
X65160586Y-36216928D01*
X65283072Y-36339414D01*
X65423212Y-36441232D01*
X65577555Y-36519873D01*
X65742299Y-36573402D01*
X65913389Y-36600500D01*
X65913390Y-36600500D01*
X66086610Y-36600500D01*
X66086611Y-36600500D01*
X66257701Y-36573402D01*
X66422445Y-36519873D01*
X66576788Y-36441232D01*
X66716928Y-36339414D01*
X66839414Y-36216928D01*
X66941232Y-36076788D01*
X67019873Y-35922445D01*
X67073402Y-35757701D01*
X67100500Y-35586611D01*
X67100500Y-35413389D01*
X72519500Y-35413389D01*
X72519500Y-35586610D01*
X72543485Y-35738051D01*
X72546598Y-35757701D01*
X72600127Y-35922445D01*
X72678768Y-36076788D01*
X72780586Y-36216928D01*
X72903072Y-36339414D01*
X73043212Y-36441232D01*
X73197555Y-36519873D01*
X73362299Y-36573402D01*
X73533389Y-36600500D01*
X73533390Y-36600500D01*
X73706610Y-36600500D01*
X73706611Y-36600500D01*
X73877701Y-36573402D01*
X74042445Y-36519873D01*
X74196788Y-36441232D01*
X74336928Y-36339414D01*
X74459414Y-36216928D01*
X74561232Y-36076788D01*
X74639873Y-35922445D01*
X74693402Y-35757701D01*
X74720500Y-35586611D01*
X74720500Y-35413389D01*
X74693402Y-35242299D01*
X74639873Y-35077555D01*
X74561232Y-34923212D01*
X74459414Y-34783072D01*
X74336928Y-34660586D01*
X74196788Y-34558768D01*
X74042445Y-34480127D01*
X73877701Y-34426598D01*
X73877699Y-34426597D01*
X73877698Y-34426597D01*
X73746271Y-34405781D01*
X73706611Y-34399500D01*
X73533389Y-34399500D01*
X73493728Y-34405781D01*
X73362302Y-34426597D01*
X73362299Y-34426598D01*
X73226901Y-34470592D01*
X73197552Y-34480128D01*
X73043211Y-34558768D01*
X72963256Y-34616859D01*
X72903072Y-34660586D01*
X72903070Y-34660588D01*
X72903069Y-34660588D01*
X72780588Y-34783069D01*
X72780588Y-34783070D01*
X72780586Y-34783072D01*
X72746094Y-34830546D01*
X72678768Y-34923211D01*
X72600128Y-35077552D01*
X72546597Y-35242302D01*
X72519500Y-35413389D01*
X67100500Y-35413389D01*
X67073402Y-35242299D01*
X67019873Y-35077555D01*
X66941232Y-34923212D01*
X66839414Y-34783072D01*
X66716928Y-34660586D01*
X66576788Y-34558768D01*
X66422445Y-34480127D01*
X66257701Y-34426598D01*
X66257699Y-34426597D01*
X66257698Y-34426597D01*
X66126271Y-34405781D01*
X66086611Y-34399500D01*
X65913389Y-34399500D01*
X65873728Y-34405781D01*
X65742302Y-34426597D01*
X65742299Y-34426598D01*
X65606901Y-34470592D01*
X65577552Y-34480128D01*
X65423211Y-34558768D01*
X65343256Y-34616859D01*
X65283072Y-34660586D01*
X65283070Y-34660588D01*
X65283069Y-34660588D01*
X65160588Y-34783069D01*
X65160588Y-34783070D01*
X65160586Y-34783072D01*
X65126094Y-34830546D01*
X65058768Y-34923211D01*
X64980128Y-35077552D01*
X64926597Y-35242302D01*
X64899500Y-35413389D01*
X63900000Y-35413389D01*
X63900000Y-33913389D01*
X76899500Y-33913389D01*
X76899500Y-34086610D01*
X76926025Y-34254087D01*
X76926598Y-34257701D01*
X76980127Y-34422445D01*
X77058768Y-34576788D01*
X77160586Y-34716928D01*
X77283072Y-34839414D01*
X77423212Y-34941232D01*
X77577555Y-35019873D01*
X77742299Y-35073402D01*
X77913389Y-35100500D01*
X77913390Y-35100500D01*
X78086610Y-35100500D01*
X78086611Y-35100500D01*
X78257701Y-35073402D01*
X78422445Y-35019873D01*
X78576788Y-34941232D01*
X78716928Y-34839414D01*
X78839414Y-34716928D01*
X78941232Y-34576788D01*
X79019873Y-34422445D01*
X79027185Y-34399938D01*
X79066621Y-34342264D01*
X79130980Y-34315065D01*
X79199826Y-34326979D01*
X79251303Y-34374223D01*
X79263047Y-34399938D01*
X79295244Y-34499031D01*
X79388141Y-34681350D01*
X79388147Y-34681359D01*
X79420523Y-34725921D01*
X79420524Y-34725922D01*
X80100000Y-34046446D01*
X80100000Y-34052661D01*
X80127259Y-34154394D01*
X80179920Y-34245606D01*
X80254394Y-34320080D01*
X80345606Y-34372741D01*
X80447339Y-34400000D01*
X80453553Y-34400000D01*
X79774076Y-35079474D01*
X79818650Y-35111859D01*
X80000968Y-35204755D01*
X80195582Y-35267990D01*
X80397683Y-35300000D01*
X80602317Y-35300000D01*
X80804417Y-35267990D01*
X80999031Y-35204755D01*
X81181349Y-35111859D01*
X81225921Y-35079474D01*
X80546447Y-34400000D01*
X80552661Y-34400000D01*
X80654394Y-34372741D01*
X80745606Y-34320080D01*
X80820080Y-34245606D01*
X80872741Y-34154394D01*
X80900000Y-34052661D01*
X80900000Y-34046447D01*
X81579474Y-34725921D01*
X81611859Y-34681349D01*
X81704755Y-34499031D01*
X81767990Y-34304417D01*
X81800000Y-34102317D01*
X81800000Y-33897682D01*
X81767990Y-33695582D01*
X81704755Y-33500968D01*
X81611859Y-33318650D01*
X81579474Y-33274077D01*
X81579474Y-33274076D01*
X80900000Y-33953551D01*
X80900000Y-33947339D01*
X80872741Y-33845606D01*
X80820080Y-33754394D01*
X80745606Y-33679920D01*
X80654394Y-33627259D01*
X80552661Y-33600000D01*
X80546446Y-33600000D01*
X81225922Y-32920524D01*
X81225921Y-32920523D01*
X81181359Y-32888147D01*
X81181350Y-32888141D01*
X80999031Y-32795244D01*
X80804417Y-32732009D01*
X80602317Y-32700000D01*
X80397683Y-32700000D01*
X80195582Y-32732009D01*
X80000968Y-32795244D01*
X79818644Y-32888143D01*
X79774077Y-32920523D01*
X79774077Y-32920524D01*
X80453554Y-33600000D01*
X80447339Y-33600000D01*
X80345606Y-33627259D01*
X80254394Y-33679920D01*
X80179920Y-33754394D01*
X80127259Y-33845606D01*
X80100000Y-33947339D01*
X80100000Y-33953553D01*
X79420524Y-33274077D01*
X79420523Y-33274077D01*
X79388143Y-33318644D01*
X79295244Y-33500968D01*
X79263047Y-33600061D01*
X79223609Y-33657736D01*
X79159250Y-33684934D01*
X79090404Y-33673019D01*
X79038928Y-33625774D01*
X79027186Y-33600062D01*
X79019873Y-33577555D01*
X78941232Y-33423212D01*
X78839414Y-33283072D01*
X78716928Y-33160586D01*
X78576788Y-33058768D01*
X78576789Y-33058768D01*
X78576787Y-33058767D01*
X78422447Y-32980128D01*
X78422446Y-32980127D01*
X78422445Y-32980127D01*
X78257701Y-32926598D01*
X78257699Y-32926597D01*
X78257698Y-32926597D01*
X78126271Y-32905781D01*
X78086611Y-32899500D01*
X77913389Y-32899500D01*
X77873728Y-32905781D01*
X77742302Y-32926597D01*
X77577552Y-32980128D01*
X77423211Y-33058768D01*
X77343256Y-33116859D01*
X77283072Y-33160586D01*
X77283070Y-33160588D01*
X77283069Y-33160588D01*
X77160588Y-33283069D01*
X77160588Y-33283070D01*
X77160586Y-33283072D01*
X77134737Y-33318650D01*
X77058768Y-33423211D01*
X76980128Y-33577552D01*
X76926597Y-33742302D01*
X76899500Y-33913389D01*
X63900000Y-33913389D01*
X63900000Y-30413389D01*
X64899500Y-30413389D01*
X64899500Y-30586610D01*
X64921610Y-30726212D01*
X64926598Y-30757701D01*
X64980127Y-30922445D01*
X65058768Y-31076788D01*
X65160586Y-31216928D01*
X65283072Y-31339414D01*
X65423212Y-31441232D01*
X65577555Y-31519873D01*
X65742299Y-31573402D01*
X65913389Y-31600500D01*
X65913390Y-31600500D01*
X66086610Y-31600500D01*
X66086611Y-31600500D01*
X66257701Y-31573402D01*
X66422445Y-31519873D01*
X66576788Y-31441232D01*
X66716928Y-31339414D01*
X66839414Y-31216928D01*
X66941232Y-31076788D01*
X67019873Y-30922445D01*
X67073402Y-30757701D01*
X67100500Y-30586611D01*
X67100500Y-30413389D01*
X67098012Y-30397682D01*
X72320000Y-30397682D01*
X72320000Y-30602317D01*
X72352009Y-30804417D01*
X72415244Y-30999031D01*
X72508141Y-31181350D01*
X72508147Y-31181359D01*
X72540523Y-31225921D01*
X72540524Y-31225922D01*
X73220000Y-30546446D01*
X73220000Y-30552661D01*
X73247259Y-30654394D01*
X73299920Y-30745606D01*
X73374394Y-30820080D01*
X73465606Y-30872741D01*
X73567339Y-30900000D01*
X73573553Y-30900000D01*
X72894076Y-31579474D01*
X72938650Y-31611859D01*
X73120968Y-31704755D01*
X73315582Y-31767990D01*
X73517683Y-31800000D01*
X73722317Y-31800000D01*
X73924417Y-31767990D01*
X74119031Y-31704755D01*
X74301349Y-31611859D01*
X74345921Y-31579474D01*
X73666447Y-30900000D01*
X73672661Y-30900000D01*
X73774394Y-30872741D01*
X73865606Y-30820080D01*
X73940080Y-30745606D01*
X73992741Y-30654394D01*
X74020000Y-30552661D01*
X74020000Y-30546447D01*
X74699474Y-31225921D01*
X74731859Y-31181349D01*
X74824755Y-30999031D01*
X74887990Y-30804417D01*
X74920000Y-30602317D01*
X74920000Y-30397682D01*
X74887990Y-30195582D01*
X74824755Y-30000968D01*
X74731859Y-29818650D01*
X74699474Y-29774077D01*
X74699474Y-29774076D01*
X74020000Y-30453551D01*
X74020000Y-30447339D01*
X73992741Y-30345606D01*
X73940080Y-30254394D01*
X73865606Y-30179920D01*
X73774394Y-30127259D01*
X73672661Y-30100000D01*
X73666446Y-30100000D01*
X74345922Y-29420524D01*
X74345921Y-29420523D01*
X74301359Y-29388147D01*
X74301350Y-29388141D01*
X74119031Y-29295244D01*
X73924417Y-29232009D01*
X73723580Y-29200200D01*
X73516420Y-29200200D01*
X73315582Y-29232009D01*
X73120968Y-29295244D01*
X72938644Y-29388143D01*
X72894077Y-29420523D01*
X72894077Y-29420524D01*
X73573554Y-30100000D01*
X73567339Y-30100000D01*
X73465606Y-30127259D01*
X73374394Y-30179920D01*
X73299920Y-30254394D01*
X73247259Y-30345606D01*
X73220000Y-30447339D01*
X73220000Y-30453553D01*
X72540524Y-29774077D01*
X72540523Y-29774077D01*
X72508143Y-29818644D01*
X72415244Y-30000968D01*
X72352009Y-30195582D01*
X72320000Y-30397682D01*
X67098012Y-30397682D01*
X67073402Y-30242299D01*
X67019873Y-30077555D01*
X66941232Y-29923212D01*
X66839414Y-29783072D01*
X66716928Y-29660586D01*
X66576788Y-29558768D01*
X66422445Y-29480127D01*
X66257701Y-29426598D01*
X66257699Y-29426597D01*
X66257698Y-29426597D01*
X66126271Y-29405781D01*
X66086611Y-29399500D01*
X65913389Y-29399500D01*
X65873728Y-29405781D01*
X65742302Y-29426597D01*
X65577552Y-29480128D01*
X65423211Y-29558768D01*
X65343256Y-29616859D01*
X65283072Y-29660586D01*
X65283070Y-29660588D01*
X65283069Y-29660588D01*
X65160588Y-29783069D01*
X65160588Y-29783070D01*
X65160586Y-29783072D01*
X65134737Y-29818650D01*
X65058768Y-29923211D01*
X64980128Y-30077552D01*
X64926597Y-30242302D01*
X64899500Y-30413389D01*
X63900000Y-30413389D01*
X63900000Y-29076200D01*
X63919685Y-29009161D01*
X63972489Y-28963406D01*
X64024000Y-28952200D01*
X76764735Y-28952200D01*
X76831774Y-28971885D01*
X76852416Y-28988519D01*
X79810286Y-31946389D01*
X79810288Y-31946390D01*
X79810292Y-31946393D01*
X79845120Y-31966501D01*
X79845124Y-31966502D01*
X79845125Y-31966503D01*
X79913014Y-32005699D01*
X80027591Y-32036400D01*
X86067935Y-32036400D01*
X86134974Y-32056085D01*
X86155616Y-32072719D01*
X90876984Y-36794087D01*
X90910469Y-36855410D01*
X90907235Y-36920084D01*
X90877828Y-37010592D01*
X90849500Y-37189448D01*
X90849500Y-37370551D01*
X90877829Y-37549410D01*
X90933787Y-37721636D01*
X90933788Y-37721639D01*
X90989664Y-37831300D01*
X91003671Y-37858790D01*
X91016006Y-37882997D01*
X91122441Y-38029494D01*
X91122445Y-38029499D01*
X91250500Y-38157554D01*
X91250505Y-38157558D01*
X91378287Y-38250396D01*
X91397006Y-38263996D01*
X91502484Y-38317740D01*
X91558360Y-38346211D01*
X91558363Y-38346212D01*
X91644476Y-38374191D01*
X91730591Y-38402171D01*
X91813429Y-38415291D01*
X91909449Y-38430500D01*
X91909454Y-38430500D01*
X92090551Y-38430500D01*
X92177259Y-38416765D01*
X92269409Y-38402171D01*
X92441639Y-38346211D01*
X92602994Y-38263996D01*
X92749501Y-38157553D01*
X92877553Y-38029501D01*
X92983996Y-37882994D01*
X93066211Y-37721639D01*
X93122171Y-37549409D01*
X93136765Y-37457259D01*
X93150500Y-37370551D01*
X93150500Y-37189448D01*
X93126289Y-37036594D01*
X93122171Y-37010591D01*
X93092764Y-36920084D01*
X93066212Y-36838363D01*
X93066211Y-36838360D01*
X93037740Y-36782484D01*
X92983996Y-36677006D01*
X92970396Y-36658287D01*
X92877558Y-36530505D01*
X92877554Y-36530500D01*
X92749499Y-36402445D01*
X92749494Y-36402441D01*
X92602997Y-36296006D01*
X92602996Y-36296005D01*
X92602994Y-36296004D01*
X92551300Y-36269664D01*
X92441639Y-36213788D01*
X92441636Y-36213787D01*
X92269410Y-36157829D01*
X92109321Y-36132473D01*
X92046186Y-36102544D01*
X92009255Y-36043232D01*
X92010253Y-35973370D01*
X92048863Y-35915137D01*
X92109321Y-35887527D01*
X92179425Y-35876422D01*
X92269409Y-35862171D01*
X92441639Y-35806211D01*
X92602994Y-35723996D01*
X92749501Y-35617553D01*
X92877553Y-35489501D01*
X92983996Y-35342994D01*
X93066211Y-35181639D01*
X93122171Y-35009409D01*
X93136765Y-34917259D01*
X93150500Y-34830551D01*
X93150500Y-34649448D01*
X93126675Y-34499031D01*
X93122171Y-34470591D01*
X93080476Y-34342264D01*
X93066212Y-34298363D01*
X93066211Y-34298360D01*
X93037740Y-34242484D01*
X92983996Y-34137006D01*
X92947382Y-34086611D01*
X92877558Y-33990505D01*
X92877554Y-33990500D01*
X92749499Y-33862445D01*
X92749494Y-33862441D01*
X92602997Y-33756006D01*
X92602996Y-33756005D01*
X92602994Y-33756004D01*
X92551300Y-33729664D01*
X92441639Y-33673788D01*
X92441636Y-33673787D01*
X92269410Y-33617829D01*
X92109321Y-33592473D01*
X92046186Y-33562544D01*
X92009255Y-33503232D01*
X92010253Y-33433370D01*
X92048863Y-33375137D01*
X92109321Y-33347527D01*
X92179425Y-33336422D01*
X92269409Y-33322171D01*
X92441639Y-33266211D01*
X92602994Y-33183996D01*
X92749501Y-33077553D01*
X92877553Y-32949501D01*
X92983996Y-32802994D01*
X93066211Y-32641639D01*
X93122171Y-32469409D01*
X93136765Y-32377259D01*
X93150500Y-32290551D01*
X93150500Y-32109448D01*
X93127859Y-31966503D01*
X93122171Y-31930591D01*
X93079740Y-31800000D01*
X93066212Y-31758363D01*
X93066211Y-31758360D01*
X93037740Y-31702484D01*
X92983996Y-31597006D01*
X92927956Y-31519873D01*
X92877558Y-31450505D01*
X92877554Y-31450500D01*
X92749499Y-31322445D01*
X92749494Y-31322441D01*
X92602997Y-31216006D01*
X92602996Y-31216005D01*
X92602994Y-31216004D01*
X92534980Y-31181349D01*
X92441639Y-31133788D01*
X92441636Y-31133787D01*
X92269410Y-31077829D01*
X92109321Y-31052473D01*
X92046186Y-31022544D01*
X92009255Y-30963232D01*
X92010253Y-30893370D01*
X92048863Y-30835137D01*
X92109321Y-30807527D01*
X92179425Y-30796422D01*
X92269409Y-30782171D01*
X92441639Y-30726211D01*
X92602994Y-30643996D01*
X92749501Y-30537553D01*
X92877553Y-30409501D01*
X92983996Y-30262994D01*
X93066211Y-30101639D01*
X93122171Y-29929409D01*
X93136765Y-29837259D01*
X93150500Y-29750551D01*
X93150500Y-29569448D01*
X93127874Y-29426598D01*
X93122171Y-29390591D01*
X93090885Y-29294300D01*
X93066212Y-29218363D01*
X93066211Y-29218360D01*
X93037740Y-29162484D01*
X92983996Y-29057006D01*
X92970396Y-29038287D01*
X92877558Y-28910505D01*
X92877554Y-28910500D01*
X92813409Y-28846355D01*
X92779924Y-28785032D01*
X92784908Y-28715340D01*
X92813407Y-28670995D01*
X93611790Y-27872614D01*
X93671099Y-27769887D01*
X93675872Y-27752070D01*
X93678629Y-27741787D01*
X93695268Y-27679686D01*
X93701800Y-27655309D01*
X93701800Y-23231991D01*
X93671099Y-23117414D01*
X93666405Y-23109284D01*
X93646031Y-23073994D01*
X93611793Y-23014692D01*
X93611787Y-23014684D01*
X93123015Y-22525912D01*
X93089530Y-22464589D01*
X93092765Y-22399913D01*
X93121270Y-22312181D01*
X93122171Y-22309409D01*
X93142483Y-22181166D01*
X93150500Y-22130551D01*
X93150500Y-21949448D01*
X93133071Y-21839411D01*
X93122171Y-21770591D01*
X93066211Y-21598361D01*
X93066211Y-21598360D01*
X93037740Y-21542484D01*
X92983996Y-21437006D01*
X92925540Y-21356548D01*
X92877558Y-21290505D01*
X92877554Y-21290500D01*
X92749495Y-21162441D01*
X92628202Y-21074318D01*
X92585536Y-21018989D01*
X92579557Y-20949375D01*
X92612162Y-20887580D01*
X92673001Y-20853223D01*
X92701087Y-20850000D01*
X92897828Y-20850000D01*
X92897844Y-20849999D01*
X92957372Y-20843598D01*
X92957379Y-20843596D01*
X93092086Y-20793354D01*
X93092093Y-20793350D01*
X93207187Y-20707190D01*
X93207190Y-20707187D01*
X93293350Y-20592093D01*
X93293354Y-20592086D01*
X93343596Y-20457379D01*
X93343598Y-20457372D01*
X93349999Y-20397844D01*
X93350000Y-20397827D01*
X93350000Y-19750000D01*
X92433012Y-19750000D01*
X92465925Y-19692993D01*
X92500000Y-19565826D01*
X92500000Y-19434174D01*
X92465925Y-19307007D01*
X92433012Y-19250000D01*
X93350000Y-19250000D01*
X93350000Y-18602172D01*
X93349999Y-18602155D01*
X93343598Y-18542627D01*
X93343596Y-18542620D01*
X93293354Y-18407913D01*
X93293350Y-18407906D01*
X93207190Y-18292812D01*
X93207187Y-18292809D01*
X93092093Y-18206649D01*
X93092086Y-18206645D01*
X92957379Y-18156403D01*
X92957372Y-18156401D01*
X92897844Y-18150000D01*
X92250000Y-18150000D01*
X92250000Y-19066988D01*
X92192993Y-19034075D01*
X92065826Y-19000000D01*
X91934174Y-19000000D01*
X91807007Y-19034075D01*
X91750000Y-19066988D01*
X91750000Y-18150000D01*
X91102155Y-18150000D01*
X91042627Y-18156401D01*
X91042620Y-18156403D01*
X90907913Y-18206645D01*
X90907906Y-18206649D01*
X90792812Y-18292809D01*
X90792809Y-18292812D01*
X90706649Y-18407906D01*
X90706645Y-18407913D01*
X90656403Y-18542620D01*
X90656401Y-18542627D01*
X90650000Y-18602155D01*
X90650000Y-19250000D01*
X91566988Y-19250000D01*
X91534075Y-19307007D01*
X91500000Y-19434174D01*
X91500000Y-19565826D01*
X91534075Y-19692993D01*
X91566988Y-19750000D01*
X90650000Y-19750000D01*
X90650000Y-20397844D01*
X90656401Y-20457372D01*
X90656403Y-20457379D01*
X90706645Y-20592086D01*
X90706649Y-20592093D01*
X90792809Y-20707187D01*
X90792812Y-20707190D01*
X90907906Y-20793350D01*
X90907913Y-20793354D01*
X91042620Y-20843596D01*
X91042627Y-20843598D01*
X91102155Y-20849999D01*
X91102172Y-20850000D01*
X91298913Y-20850000D01*
X91365952Y-20869685D01*
X91411707Y-20922489D01*
X91421651Y-20991647D01*
X91392626Y-21055203D01*
X91371798Y-21074318D01*
X91250504Y-21162441D01*
X91122445Y-21290500D01*
X91122441Y-21290505D01*
X91016006Y-21437002D01*
X90933788Y-21598360D01*
X90933787Y-21598363D01*
X90877829Y-21770589D01*
X90849500Y-21949448D01*
X90849500Y-22130551D01*
X90877829Y-22309410D01*
X90933787Y-22481636D01*
X90933788Y-22481639D01*
X91016006Y-22642997D01*
X91122441Y-22789494D01*
X91122445Y-22789499D01*
X91252774Y-22919828D01*
X91286259Y-22981151D01*
X91281275Y-23050843D01*
X91239403Y-23106776D01*
X91173939Y-23131193D01*
X91133001Y-23127284D01*
X91119673Y-23123713D01*
X91119670Y-23123712D01*
X91054358Y-23106212D01*
X91029309Y-23099500D01*
X91029308Y-23099500D01*
X87674905Y-23099500D01*
X87607866Y-23079815D01*
X87562111Y-23027011D01*
X87552167Y-22957853D01*
X87581192Y-22894297D01*
X87606014Y-22872398D01*
X87671112Y-22828900D01*
X87724016Y-22793551D01*
X87828551Y-22689016D01*
X87910684Y-22566095D01*
X87967258Y-22429513D01*
X87977516Y-22377942D01*
X87996100Y-22284520D01*
X87996100Y-22136679D01*
X87967259Y-21991692D01*
X87967258Y-21991691D01*
X87967258Y-21991687D01*
X87946359Y-21941232D01*
X87910687Y-21855111D01*
X87910680Y-21855098D01*
X87828551Y-21732184D01*
X87828548Y-21732180D01*
X87724019Y-21627651D01*
X87724015Y-21627648D01*
X87601101Y-21545519D01*
X87601088Y-21545512D01*
X87458886Y-21486611D01*
X87459242Y-21485750D01*
X87412942Y-21457997D01*
X84641479Y-18686532D01*
X83999673Y-18044726D01*
X83948080Y-18010253D01*
X83893127Y-17973535D01*
X83798101Y-17934174D01*
X83774744Y-17924499D01*
X83774740Y-17924498D01*
X83770978Y-17923750D01*
X83767216Y-17923001D01*
X83767213Y-17923000D01*
X83767213Y-17923001D01*
X83649071Y-17899500D01*
X83649069Y-17899500D01*
X78419807Y-17899500D01*
X78352768Y-17879815D01*
X78332126Y-17863181D01*
X75984557Y-15515611D01*
X75900941Y-15431995D01*
X78349500Y-15431995D01*
X78349500Y-15668004D01*
X78349501Y-15668020D01*
X78380306Y-15902010D01*
X78441394Y-16129993D01*
X78531714Y-16348045D01*
X78531719Y-16348056D01*
X78575972Y-16424703D01*
X78649727Y-16552450D01*
X78649729Y-16552453D01*
X78649730Y-16552454D01*
X78793406Y-16739697D01*
X78793412Y-16739704D01*
X78960295Y-16906587D01*
X78960302Y-16906593D01*
X79043296Y-16970276D01*
X79147550Y-17050273D01*
X79269247Y-17120535D01*
X79351943Y-17168280D01*
X79351948Y-17168282D01*
X79351951Y-17168284D01*
X79570007Y-17258606D01*
X79797986Y-17319693D01*
X80031989Y-17350500D01*
X80031996Y-17350500D01*
X80268004Y-17350500D01*
X80268011Y-17350500D01*
X80502014Y-17319693D01*
X80729993Y-17258606D01*
X80948049Y-17168284D01*
X81152450Y-17050273D01*
X81339699Y-16906592D01*
X81506592Y-16739699D01*
X81650273Y-16552450D01*
X81768284Y-16348049D01*
X81858606Y-16129993D01*
X81919693Y-15902014D01*
X81950500Y-15668011D01*
X81950500Y-15431989D01*
X81919693Y-15197986D01*
X81858606Y-14970007D01*
X81768284Y-14751951D01*
X81768282Y-14751948D01*
X81768280Y-14751943D01*
X81714302Y-14658451D01*
X81650273Y-14547550D01*
X81506592Y-14360301D01*
X81506587Y-14360295D01*
X81339704Y-14193412D01*
X81339697Y-14193406D01*
X81152454Y-14049730D01*
X81152453Y-14049729D01*
X81152450Y-14049727D01*
X81070957Y-14002677D01*
X80948056Y-13931719D01*
X80948045Y-13931714D01*
X80729993Y-13841394D01*
X80502014Y-13780307D01*
X80502013Y-13780306D01*
X80502010Y-13780306D01*
X80268020Y-13749501D01*
X80268017Y-13749500D01*
X80268011Y-13749500D01*
X80031989Y-13749500D01*
X80031983Y-13749500D01*
X80031979Y-13749501D01*
X79797989Y-13780306D01*
X79570006Y-13841394D01*
X79351954Y-13931714D01*
X79351943Y-13931719D01*
X79147545Y-14049730D01*
X78960302Y-14193406D01*
X78960295Y-14193412D01*
X78793412Y-14360295D01*
X78793406Y-14360302D01*
X78649730Y-14547545D01*
X78531719Y-14751943D01*
X78531714Y-14751954D01*
X78441394Y-14970006D01*
X78380306Y-15197989D01*
X78349501Y-15431979D01*
X78349500Y-15431995D01*
X75900941Y-15431995D01*
X73669274Y-13200327D01*
X73669273Y-13200326D01*
X73630536Y-13174443D01*
X73562727Y-13129135D01*
X73444344Y-13080099D01*
X73444338Y-13080097D01*
X73318671Y-13055100D01*
X73318669Y-13055100D01*
X59274500Y-13055100D01*
X59207461Y-13035415D01*
X59161706Y-12982611D01*
X59150500Y-12931100D01*
X59150499Y-10056908D01*
X59150499Y-10056902D01*
X59139876Y-9968436D01*
X59084361Y-9827658D01*
X59068021Y-9806110D01*
X58992922Y-9707077D01*
X58872344Y-9615640D01*
X58872342Y-9615639D01*
X58731564Y-9560124D01*
X58731561Y-9560123D01*
X58643099Y-9549500D01*
X56356908Y-9549500D01*
X56268437Y-9560123D01*
X56127657Y-9615639D01*
X56127655Y-9615640D01*
X56007077Y-9707077D01*
X55915640Y-9827655D01*
X55915639Y-9827658D01*
X55870916Y-9941071D01*
X55860124Y-9968437D01*
X55860123Y-9968438D01*
X55849500Y-10056900D01*
X55849501Y-12931100D01*
X55829816Y-12998139D01*
X55777013Y-13043894D01*
X55725501Y-13055100D01*
X54671610Y-13055100D01*
X54604571Y-13035415D01*
X54558816Y-12982611D01*
X54548872Y-12913453D01*
X54571290Y-12858217D01*
X54711634Y-12665051D01*
X54829579Y-12433572D01*
X54909860Y-12186493D01*
X54933999Y-12034082D01*
X54950500Y-11929902D01*
X54950500Y-11070097D01*
X54927286Y-10923533D01*
X54909860Y-10813507D01*
X54829579Y-10566428D01*
X54829577Y-10566425D01*
X54829577Y-10566423D01*
X54786787Y-10482445D01*
X54711634Y-10334949D01*
X54558931Y-10124771D01*
X54375229Y-9941069D01*
X54165051Y-9788366D01*
X54092764Y-9751534D01*
X53933576Y-9670422D01*
X53686493Y-9590140D01*
X53429902Y-9549500D01*
X53429897Y-9549500D01*
X53170103Y-9549500D01*
X53170098Y-9549500D01*
X52913506Y-9590140D01*
X52666423Y-9670422D01*
X52434945Y-9788368D01*
X52224774Y-9941066D01*
X52224768Y-9941071D01*
X52041071Y-10124768D01*
X52041066Y-10124774D01*
X51888368Y-10334945D01*
X51770422Y-10566423D01*
X51690140Y-10813506D01*
X51649500Y-11070097D01*
X51649500Y-11929902D01*
X51690140Y-12186493D01*
X51770422Y-12433576D01*
X51867619Y-12624333D01*
X51888366Y-12665051D01*
X52028709Y-12858216D01*
X52052188Y-12924021D01*
X52036363Y-12992075D01*
X51986257Y-13040770D01*
X51928390Y-13055100D01*
X50720249Y-13055100D01*
X50653210Y-13035415D01*
X50607455Y-12982611D01*
X50597511Y-12913453D01*
X50621872Y-12855615D01*
X50641520Y-12830008D01*
X50762772Y-12619993D01*
X50762779Y-12619978D01*
X50855578Y-12395939D01*
X50918346Y-12161687D01*
X50949998Y-11921264D01*
X50950000Y-11921248D01*
X50950000Y-11750000D01*
X49754121Y-11750000D01*
X49773099Y-11704182D01*
X49800000Y-11568944D01*
X49800000Y-11431056D01*
X49773099Y-11295818D01*
X49754121Y-11250000D01*
X50950000Y-11250000D01*
X50950000Y-11078751D01*
X50949998Y-11078735D01*
X50918346Y-10838312D01*
X50855578Y-10604060D01*
X50762779Y-10380021D01*
X50762772Y-10380006D01*
X50641519Y-10169990D01*
X50493889Y-9977594D01*
X50493883Y-9977587D01*
X50322412Y-9806116D01*
X50322405Y-9806110D01*
X50130009Y-9658480D01*
X49919993Y-9537227D01*
X49919978Y-9537220D01*
X49695939Y-9444421D01*
X49461687Y-9381653D01*
X49350000Y-9366948D01*
X49350000Y-10845879D01*
X49304182Y-10826901D01*
X49168944Y-10800000D01*
X49031056Y-10800000D01*
X48895818Y-10826901D01*
X48850000Y-10845879D01*
X48850000Y-9366948D01*
X48849999Y-9366948D01*
X48738312Y-9381653D01*
X48504060Y-9444421D01*
X48280021Y-9537220D01*
X48280006Y-9537227D01*
X48069990Y-9658480D01*
X47877594Y-9806110D01*
X47877587Y-9806116D01*
X47706116Y-9977587D01*
X47706110Y-9977594D01*
X47558480Y-10169990D01*
X47437227Y-10380006D01*
X47437220Y-10380021D01*
X47344421Y-10604060D01*
X47281653Y-10838312D01*
X47250001Y-11078735D01*
X47250000Y-11078751D01*
X47250000Y-11250000D01*
X48445879Y-11250000D01*
X48426901Y-11295818D01*
X48400000Y-11431056D01*
X48400000Y-11568944D01*
X48426901Y-11704182D01*
X48445879Y-11750000D01*
X47250000Y-11750000D01*
X47250000Y-11921248D01*
X47250001Y-11921264D01*
X47281653Y-12161687D01*
X47344421Y-12395939D01*
X47437220Y-12619978D01*
X47437227Y-12619993D01*
X47558479Y-12830008D01*
X47578128Y-12855615D01*
X47603321Y-12920784D01*
X47589282Y-12989229D01*
X47540468Y-13039218D01*
X47479751Y-13055100D01*
X46271610Y-13055100D01*
X46204571Y-13035415D01*
X46158816Y-12982611D01*
X46148872Y-12913453D01*
X46171290Y-12858217D01*
X46311634Y-12665051D01*
X46429579Y-12433572D01*
X46509860Y-12186493D01*
X46533999Y-12034082D01*
X46550500Y-11929902D01*
X46550500Y-11070097D01*
X46527286Y-10923533D01*
X46509860Y-10813507D01*
X46429579Y-10566428D01*
X46429577Y-10566425D01*
X46429577Y-10566423D01*
X46386787Y-10482445D01*
X46311634Y-10334949D01*
X46158931Y-10124771D01*
X45975229Y-9941069D01*
X45765051Y-9788366D01*
X45692764Y-9751534D01*
X45533576Y-9670422D01*
X45286493Y-9590140D01*
X45029902Y-9549500D01*
X45029897Y-9549500D01*
X44770103Y-9549500D01*
X44770098Y-9549500D01*
X44513506Y-9590140D01*
X44266423Y-9670422D01*
X44034945Y-9788368D01*
X43824774Y-9941066D01*
X43824768Y-9941071D01*
X43641071Y-10124768D01*
X43641066Y-10124774D01*
X43488368Y-10334945D01*
X43370422Y-10566423D01*
X43290140Y-10813506D01*
X43249500Y-11070097D01*
X43249500Y-11929902D01*
X43290140Y-12186493D01*
X43370422Y-12433576D01*
X43467619Y-12624333D01*
X43488366Y-12665051D01*
X43628709Y-12858216D01*
X43652188Y-12924021D01*
X43636363Y-12992075D01*
X43586257Y-13040770D01*
X43528390Y-13055100D01*
X42320249Y-13055100D01*
X42253210Y-13035415D01*
X42207455Y-12982611D01*
X42197511Y-12913453D01*
X42221872Y-12855615D01*
X42241520Y-12830008D01*
X42362772Y-12619993D01*
X42362779Y-12619978D01*
X42455578Y-12395939D01*
X42518346Y-12161687D01*
X42549998Y-11921264D01*
X42550000Y-11921248D01*
X42550000Y-11750000D01*
X41354121Y-11750000D01*
X41373099Y-11704182D01*
X41400000Y-11568944D01*
X41400000Y-11431056D01*
X41373099Y-11295818D01*
X41354121Y-11250000D01*
X42550000Y-11250000D01*
X42550000Y-11078751D01*
X42549998Y-11078735D01*
X42518346Y-10838312D01*
X42455578Y-10604060D01*
X42362779Y-10380021D01*
X42362772Y-10380006D01*
X42241519Y-10169990D01*
X42093889Y-9977594D01*
X42093883Y-9977587D01*
X41922412Y-9806116D01*
X41922405Y-9806110D01*
X41730009Y-9658480D01*
X41519993Y-9537227D01*
X41519978Y-9537220D01*
X41295939Y-9444421D01*
X41061687Y-9381653D01*
X40950000Y-9366948D01*
X40950000Y-10845879D01*
X40904182Y-10826901D01*
X40768944Y-10800000D01*
X40631056Y-10800000D01*
X40495818Y-10826901D01*
X40450000Y-10845879D01*
X40450000Y-9366948D01*
X40449999Y-9366948D01*
X40338312Y-9381653D01*
X40104060Y-9444421D01*
X39880021Y-9537220D01*
X39880006Y-9537227D01*
X39669990Y-9658480D01*
X39477594Y-9806110D01*
X39477587Y-9806116D01*
X39306116Y-9977587D01*
X39306110Y-9977594D01*
X39158480Y-10169990D01*
X39037227Y-10380006D01*
X39037220Y-10380021D01*
X38944421Y-10604060D01*
X38881653Y-10838312D01*
X38850001Y-11078735D01*
X38850000Y-11078751D01*
X38850000Y-11250000D01*
X40045879Y-11250000D01*
X40026901Y-11295818D01*
X40000000Y-11431056D01*
X40000000Y-11568944D01*
X40026901Y-11704182D01*
X40045879Y-11750000D01*
X38850000Y-11750000D01*
X38850000Y-11921248D01*
X38850001Y-11921264D01*
X38881653Y-12161687D01*
X38944421Y-12395939D01*
X39037220Y-12619978D01*
X39037227Y-12619993D01*
X39158479Y-12830008D01*
X39178128Y-12855615D01*
X39203321Y-12920784D01*
X39189282Y-12989229D01*
X39140468Y-13039218D01*
X39079751Y-13055100D01*
X37871610Y-13055100D01*
X37804571Y-13035415D01*
X37758816Y-12982611D01*
X37748872Y-12913453D01*
X37771290Y-12858217D01*
X37911634Y-12665051D01*
X38029579Y-12433572D01*
X38109860Y-12186493D01*
X38133999Y-12034082D01*
X38150500Y-11929902D01*
X38150500Y-11070097D01*
X38127286Y-10923533D01*
X38109860Y-10813507D01*
X38029579Y-10566428D01*
X38029577Y-10566425D01*
X38029577Y-10566423D01*
X37986787Y-10482445D01*
X37911634Y-10334949D01*
X37758931Y-10124771D01*
X37575229Y-9941069D01*
X37365051Y-9788366D01*
X37292764Y-9751534D01*
X37133576Y-9670422D01*
X36886493Y-9590140D01*
X36629902Y-9549500D01*
X36629897Y-9549500D01*
X36370103Y-9549500D01*
X36370098Y-9549500D01*
X36113506Y-9590140D01*
X35866423Y-9670422D01*
X35634945Y-9788368D01*
X35424774Y-9941066D01*
X35424768Y-9941071D01*
X35241071Y-10124768D01*
X35241066Y-10124774D01*
X35088368Y-10334945D01*
X34970422Y-10566423D01*
X34890140Y-10813506D01*
X34849500Y-11070097D01*
X34849500Y-11929902D01*
X34890140Y-12186493D01*
X34970422Y-12433576D01*
X35067619Y-12624333D01*
X35088366Y-12665051D01*
X35228709Y-12858216D01*
X35252188Y-12924021D01*
X35236363Y-12992075D01*
X35186257Y-13040770D01*
X35128390Y-13055100D01*
X33920249Y-13055100D01*
X33853210Y-13035415D01*
X33807455Y-12982611D01*
X33797511Y-12913453D01*
X33821872Y-12855615D01*
X33841520Y-12830008D01*
X33962772Y-12619993D01*
X33962779Y-12619978D01*
X34055578Y-12395939D01*
X34118346Y-12161687D01*
X34149998Y-11921264D01*
X34150000Y-11921248D01*
X34150000Y-11750000D01*
X32954121Y-11750000D01*
X32973099Y-11704182D01*
X33000000Y-11568944D01*
X33000000Y-11431056D01*
X32973099Y-11295818D01*
X32954121Y-11250000D01*
X34150000Y-11250000D01*
X34150000Y-11078751D01*
X34149998Y-11078735D01*
X34118346Y-10838312D01*
X34055578Y-10604060D01*
X33962779Y-10380021D01*
X33962772Y-10380006D01*
X33841519Y-10169990D01*
X33693889Y-9977594D01*
X33693883Y-9977587D01*
X33522412Y-9806116D01*
X33522405Y-9806110D01*
X33330009Y-9658480D01*
X33119993Y-9537227D01*
X33119978Y-9537220D01*
X32895939Y-9444421D01*
X32661687Y-9381653D01*
X32550000Y-9366948D01*
X32550000Y-10845879D01*
X32504182Y-10826901D01*
X32368944Y-10800000D01*
X32231056Y-10800000D01*
X32095818Y-10826901D01*
X32050000Y-10845879D01*
X32050000Y-9366948D01*
X32049999Y-9366948D01*
X31938312Y-9381653D01*
X31704060Y-9444421D01*
X31480021Y-9537220D01*
X31480006Y-9537227D01*
X31269990Y-9658480D01*
X31077594Y-9806110D01*
X31077587Y-9806116D01*
X30906116Y-9977587D01*
X30817444Y-10093147D01*
X30761016Y-10134349D01*
X30691270Y-10138504D01*
X30631387Y-10105341D01*
X29278874Y-8752827D01*
X29278873Y-8752826D01*
X29278869Y-8752823D01*
X29172327Y-8681635D01*
X29053944Y-8632599D01*
X29053938Y-8632597D01*
X28928271Y-8607600D01*
X28928269Y-8607600D01*
X23066431Y-8607600D01*
X23066429Y-8607600D01*
X22940761Y-8632597D01*
X22940755Y-8632599D01*
X22822374Y-8681634D01*
X22715826Y-8752826D01*
X21223582Y-10245070D01*
X21162259Y-10278555D01*
X21092567Y-10273571D01*
X21036634Y-10231699D01*
X21035583Y-10230274D01*
X20998497Y-10179230D01*
X20958931Y-10124771D01*
X20775229Y-9941069D01*
X20565051Y-9788366D01*
X20492764Y-9751534D01*
X20333576Y-9670422D01*
X20086493Y-9590140D01*
X19829902Y-9549500D01*
X19829897Y-9549500D01*
X19570103Y-9549500D01*
X19570098Y-9549500D01*
X19313506Y-9590140D01*
X19066423Y-9670422D01*
X18834945Y-9788368D01*
X18624774Y-9941066D01*
X18624768Y-9941071D01*
X18441071Y-10124768D01*
X18441066Y-10124774D01*
X18288368Y-10334945D01*
X18170422Y-10566425D01*
X18106285Y-10763818D01*
X18066847Y-10821494D01*
X18002489Y-10848692D01*
X17988354Y-10849500D01*
X17211646Y-10849500D01*
X17144607Y-10829815D01*
X17098852Y-10777011D01*
X17093715Y-10763818D01*
X17029579Y-10566428D01*
X16911634Y-10334949D01*
X16758931Y-10124771D01*
X16575229Y-9941069D01*
X16365051Y-9788366D01*
X16292764Y-9751534D01*
X16133576Y-9670422D01*
X15886493Y-9590140D01*
X15629902Y-9549500D01*
X15629897Y-9549500D01*
X15370103Y-9549500D01*
X15370098Y-9549500D01*
X15113506Y-9590140D01*
X14866423Y-9670422D01*
X14634945Y-9788368D01*
X14424774Y-9941066D01*
X14424768Y-9941071D01*
X14241071Y-10124768D01*
X14241066Y-10124774D01*
X14088368Y-10334945D01*
X13970422Y-10566423D01*
X13890140Y-10813506D01*
X13849500Y-11070097D01*
X13849500Y-11929902D01*
X13890140Y-12186493D01*
X13970422Y-12433576D01*
X14051534Y-12592764D01*
X14086686Y-12661754D01*
X14088368Y-12665054D01*
X14165877Y-12771736D01*
X14241069Y-12875229D01*
X14424771Y-13058931D01*
X14634949Y-13211634D01*
X14782445Y-13286787D01*
X14866423Y-13329577D01*
X14866425Y-13329577D01*
X14866428Y-13329579D01*
X15113507Y-13409860D01*
X15245706Y-13430797D01*
X15370098Y-13450500D01*
X15370103Y-13450500D01*
X15629902Y-13450500D01*
X15743298Y-13432539D01*
X15886493Y-13409860D01*
X16133572Y-13329579D01*
X16365051Y-13211634D01*
X16575229Y-13058931D01*
X16758931Y-12875229D01*
X16911634Y-12665051D01*
X17029579Y-12433572D01*
X17093715Y-12236181D01*
X17133153Y-12178506D01*
X17197511Y-12151308D01*
X17211646Y-12150500D01*
X17988354Y-12150500D01*
X18055393Y-12170185D01*
X18101148Y-12222989D01*
X18106284Y-12236181D01*
X18170421Y-12433572D01*
X18286686Y-12661754D01*
X18288368Y-12665054D01*
X18365877Y-12771736D01*
X18441069Y-12875229D01*
X18624771Y-13058931D01*
X18834949Y-13211634D01*
X18982445Y-13286787D01*
X19066423Y-13329577D01*
X19066425Y-13329577D01*
X19066428Y-13329579D01*
X19313507Y-13409860D01*
X19445706Y-13430797D01*
X19570098Y-13450500D01*
X19570103Y-13450500D01*
X19829902Y-13450500D01*
X19943298Y-13432539D01*
X20086493Y-13409860D01*
X20333572Y-13329579D01*
X20565051Y-13211634D01*
X20775229Y-13058931D01*
X20958931Y-12875229D01*
X21111634Y-12665051D01*
X21229579Y-12433572D01*
X21293715Y-12236181D01*
X21333153Y-12178506D01*
X21397511Y-12151308D01*
X21411646Y-12150500D01*
X21665771Y-12150500D01*
X21750315Y-12133682D01*
X21791444Y-12125501D01*
X21909827Y-12076465D01*
X22016369Y-12005276D01*
X22055845Y-11965800D01*
X22117168Y-11932314D01*
X22186859Y-11937298D01*
X22242793Y-11979168D01*
X22266000Y-12034082D01*
X22290139Y-12186493D01*
X22370422Y-12433576D01*
X22451534Y-12592764D01*
X22486686Y-12661754D01*
X22488368Y-12665054D01*
X22565877Y-12771736D01*
X22641069Y-12875229D01*
X22824771Y-13058931D01*
X23034949Y-13211634D01*
X23182445Y-13286787D01*
X23266423Y-13329577D01*
X23266425Y-13329577D01*
X23266428Y-13329579D01*
X23513507Y-13409860D01*
X23645706Y-13430797D01*
X23770098Y-13450500D01*
X23770103Y-13450500D01*
X24029902Y-13450500D01*
X24143298Y-13432539D01*
X24286493Y-13409860D01*
X24533572Y-13329579D01*
X24765051Y-13211634D01*
X24954318Y-13074123D01*
X25020120Y-13050645D01*
X25088174Y-13066470D01*
X25136869Y-13116576D01*
X25151200Y-13174443D01*
X25151200Y-13625500D01*
X25131515Y-13692539D01*
X25078711Y-13738294D01*
X25027200Y-13749500D01*
X14735929Y-13749500D01*
X14610261Y-13774497D01*
X14610255Y-13774499D01*
X14491874Y-13823534D01*
X14385326Y-13894726D01*
X11456085Y-16823967D01*
X11394762Y-16857452D01*
X11349007Y-16858759D01*
X11290546Y-16849500D01*
X11109454Y-16849500D01*
X11109449Y-16849500D01*
X10930589Y-16877829D01*
X10758363Y-16933787D01*
X10758360Y-16933788D01*
X10597002Y-17016006D01*
X10450505Y-17122441D01*
X10450500Y-17122445D01*
X10322445Y-17250500D01*
X10322441Y-17250505D01*
X10216004Y-17397004D01*
X10148908Y-17528685D01*
X10100933Y-17579480D01*
X10033112Y-17596275D01*
X9966977Y-17573737D01*
X9923527Y-17519021D01*
X9920492Y-17510705D01*
X9911094Y-17481780D01*
X9814620Y-17292442D01*
X9689727Y-17120540D01*
X9689723Y-17120535D01*
X9539464Y-16970276D01*
X9539459Y-16970272D01*
X9367557Y-16845379D01*
X9178215Y-16748903D01*
X8976124Y-16683241D01*
X8910000Y-16672768D01*
X8910000Y-17566988D01*
X8852993Y-17534075D01*
X8725826Y-17500000D01*
X8594174Y-17500000D01*
X8467007Y-17534075D01*
X8410000Y-17566988D01*
X8410000Y-16672768D01*
X8409999Y-16672768D01*
X8343875Y-16683241D01*
X8141784Y-16748903D01*
X7952442Y-16845379D01*
X7780540Y-16970272D01*
X7780535Y-16970276D01*
X7630276Y-17120535D01*
X7630272Y-17120540D01*
X7505379Y-17292442D01*
X7408904Y-17481782D01*
X7343242Y-17683870D01*
X7343242Y-17683873D01*
X7332769Y-17750000D01*
X500000Y-17750000D01*
X500000Y-11070097D01*
X9649500Y-11070097D01*
X9649500Y-11929902D01*
X9690140Y-12186493D01*
X9770422Y-12433576D01*
X9851534Y-12592764D01*
X9886686Y-12661754D01*
X9888368Y-12665054D01*
X9965877Y-12771736D01*
X10041069Y-12875229D01*
X10224771Y-13058931D01*
X10434949Y-13211634D01*
X10582445Y-13286787D01*
X10666423Y-13329577D01*
X10666425Y-13329577D01*
X10666428Y-13329579D01*
X10913507Y-13409860D01*
X11045706Y-13430797D01*
X11170098Y-13450500D01*
X11170103Y-13450500D01*
X11429902Y-13450500D01*
X11543298Y-13432539D01*
X11686493Y-13409860D01*
X11933572Y-13329579D01*
X12165051Y-13211634D01*
X12375229Y-13058931D01*
X12558931Y-12875229D01*
X12711634Y-12665051D01*
X12829579Y-12433572D01*
X12909860Y-12186493D01*
X12933999Y-12034082D01*
X12950500Y-11929902D01*
X12950500Y-11070097D01*
X12927286Y-10923533D01*
X12909860Y-10813507D01*
X12829579Y-10566428D01*
X12829577Y-10566425D01*
X12829577Y-10566423D01*
X12786787Y-10482445D01*
X12711634Y-10334949D01*
X12558931Y-10124771D01*
X12375229Y-9941069D01*
X12165051Y-9788366D01*
X12092764Y-9751534D01*
X11933576Y-9670422D01*
X11686493Y-9590140D01*
X11429902Y-9549500D01*
X11429897Y-9549500D01*
X11170103Y-9549500D01*
X11170098Y-9549500D01*
X10913506Y-9590140D01*
X10666423Y-9670422D01*
X10434945Y-9788368D01*
X10224774Y-9941066D01*
X10224768Y-9941071D01*
X10041071Y-10124768D01*
X10041066Y-10124774D01*
X9888368Y-10334945D01*
X9770422Y-10566423D01*
X9690140Y-10813506D01*
X9649500Y-11070097D01*
X500000Y-11070097D01*
X500000Y-4378711D01*
X2649500Y-4378711D01*
X2649500Y-4621288D01*
X2677628Y-4834949D01*
X2681162Y-4861789D01*
X2684998Y-4876106D01*
X2743947Y-5096104D01*
X2773111Y-5166511D01*
X2836776Y-5320212D01*
X2958064Y-5530289D01*
X2958066Y-5530292D01*
X2958067Y-5530293D01*
X3105733Y-5722736D01*
X3105739Y-5722743D01*
X3277256Y-5894260D01*
X3277262Y-5894265D01*
X3469711Y-6041936D01*
X3679788Y-6163224D01*
X3903900Y-6256054D01*
X4138211Y-6318838D01*
X4318586Y-6342584D01*
X4378711Y-6350500D01*
X4378712Y-6350500D01*
X4621289Y-6350500D01*
X4669388Y-6344167D01*
X4861789Y-6318838D01*
X5096100Y-6256054D01*
X5320212Y-6163224D01*
X5530289Y-6041936D01*
X5722738Y-5894265D01*
X5894265Y-5722738D01*
X6004750Y-5578751D01*
X9450000Y-5578751D01*
X9450000Y-5750000D01*
X10645879Y-5750000D01*
X10626901Y-5795818D01*
X10600000Y-5931056D01*
X10600000Y-6068944D01*
X10626901Y-6204182D01*
X10645879Y-6250000D01*
X9450000Y-6250000D01*
X9450000Y-6421248D01*
X9450001Y-6421264D01*
X9481653Y-6661687D01*
X9544421Y-6895939D01*
X9637220Y-7119978D01*
X9637227Y-7119993D01*
X9758480Y-7330009D01*
X9906110Y-7522405D01*
X9906116Y-7522412D01*
X10077587Y-7693883D01*
X10077594Y-7693889D01*
X10269990Y-7841519D01*
X10480006Y-7962772D01*
X10480021Y-7962779D01*
X10704060Y-8055578D01*
X10938312Y-8118346D01*
X11050000Y-8133049D01*
X11050000Y-6654120D01*
X11095818Y-6673099D01*
X11231056Y-6700000D01*
X11368944Y-6700000D01*
X11504182Y-6673099D01*
X11550000Y-6654120D01*
X11550000Y-8133048D01*
X11661687Y-8118346D01*
X11895939Y-8055578D01*
X12119978Y-7962779D01*
X12119993Y-7962772D01*
X12330009Y-7841519D01*
X12522405Y-7693889D01*
X12522412Y-7693883D01*
X12693883Y-7522412D01*
X12693889Y-7522405D01*
X12841519Y-7330009D01*
X12962772Y-7119993D01*
X12962779Y-7119978D01*
X13055578Y-6895939D01*
X13118346Y-6661687D01*
X13149998Y-6421264D01*
X13150000Y-6421248D01*
X13150000Y-6250000D01*
X11954121Y-6250000D01*
X11973099Y-6204182D01*
X12000000Y-6068944D01*
X12000000Y-5931056D01*
X11973099Y-5795818D01*
X11954121Y-5750000D01*
X13150000Y-5750000D01*
X13150000Y-5578751D01*
X13149998Y-5578733D01*
X13148861Y-5570097D01*
X13849500Y-5570097D01*
X13849500Y-6429902D01*
X13890140Y-6686493D01*
X13970422Y-6933576D01*
X14051534Y-7092764D01*
X14088366Y-7165051D01*
X14241069Y-7375229D01*
X14424771Y-7558931D01*
X14634949Y-7711634D01*
X14782445Y-7786787D01*
X14866423Y-7829577D01*
X14866425Y-7829577D01*
X14866428Y-7829579D01*
X15113507Y-7909860D01*
X15245706Y-7930797D01*
X15370098Y-7950500D01*
X15370103Y-7950500D01*
X15629902Y-7950500D01*
X15743298Y-7932539D01*
X15886493Y-7909860D01*
X16133572Y-7829579D01*
X16365051Y-7711634D01*
X16575229Y-7558931D01*
X16758931Y-7375229D01*
X16911634Y-7165051D01*
X17029579Y-6933572D01*
X17109860Y-6686493D01*
X17132539Y-6543298D01*
X17150500Y-6429902D01*
X17150500Y-5570097D01*
X18049500Y-5570097D01*
X18049500Y-6429902D01*
X18090140Y-6686493D01*
X18170422Y-6933576D01*
X18251534Y-7092764D01*
X18288366Y-7165051D01*
X18441069Y-7375229D01*
X18624771Y-7558931D01*
X18834949Y-7711634D01*
X18982445Y-7786787D01*
X19066423Y-7829577D01*
X19066425Y-7829577D01*
X19066428Y-7829579D01*
X19313507Y-7909860D01*
X19445706Y-7930797D01*
X19570098Y-7950500D01*
X19570103Y-7950500D01*
X19829902Y-7950500D01*
X19943298Y-7932539D01*
X20086493Y-7909860D01*
X20333572Y-7829579D01*
X20565051Y-7711634D01*
X20775229Y-7558931D01*
X20958931Y-7375229D01*
X21111634Y-7165051D01*
X21229579Y-6933572D01*
X21309860Y-6686493D01*
X21332539Y-6543298D01*
X21350500Y-6429902D01*
X21350500Y-5570097D01*
X22249500Y-5570097D01*
X22249500Y-6429902D01*
X22290140Y-6686493D01*
X22370422Y-6933576D01*
X22451534Y-7092764D01*
X22488366Y-7165051D01*
X22641069Y-7375229D01*
X22824771Y-7558931D01*
X23034949Y-7711634D01*
X23182445Y-7786787D01*
X23266423Y-7829577D01*
X23266425Y-7829577D01*
X23266428Y-7829579D01*
X23513507Y-7909860D01*
X23645706Y-7930797D01*
X23770098Y-7950500D01*
X23770103Y-7950500D01*
X24029902Y-7950500D01*
X24143298Y-7932539D01*
X24286493Y-7909860D01*
X24533572Y-7829579D01*
X24765051Y-7711634D01*
X24975229Y-7558931D01*
X25158931Y-7375229D01*
X25311634Y-7165051D01*
X25429579Y-6933572D01*
X25509860Y-6686493D01*
X25532539Y-6543298D01*
X25550500Y-6429902D01*
X25550500Y-5570097D01*
X26449500Y-5570097D01*
X26449500Y-6429902D01*
X26490140Y-6686493D01*
X26570422Y-6933576D01*
X26651534Y-7092764D01*
X26688366Y-7165051D01*
X26841069Y-7375229D01*
X27024771Y-7558931D01*
X27234949Y-7711634D01*
X27382445Y-7786787D01*
X27466423Y-7829577D01*
X27466425Y-7829577D01*
X27466428Y-7829579D01*
X27713507Y-7909860D01*
X27845706Y-7930797D01*
X27970098Y-7950500D01*
X27970103Y-7950500D01*
X28229902Y-7950500D01*
X28343298Y-7932539D01*
X28486493Y-7909860D01*
X28733572Y-7829579D01*
X28965051Y-7711634D01*
X29175229Y-7558931D01*
X29358931Y-7375229D01*
X29511634Y-7165051D01*
X29629579Y-6933572D01*
X29709860Y-6686493D01*
X29732539Y-6543298D01*
X29750500Y-6429902D01*
X29750500Y-5578751D01*
X30450000Y-5578751D01*
X30450000Y-5750000D01*
X31645879Y-5750000D01*
X31626901Y-5795818D01*
X31600000Y-5931056D01*
X31600000Y-6068944D01*
X31626901Y-6204182D01*
X31645879Y-6250000D01*
X30450000Y-6250000D01*
X30450000Y-6421248D01*
X30450001Y-6421264D01*
X30481653Y-6661687D01*
X30544421Y-6895939D01*
X30637220Y-7119978D01*
X30637227Y-7119993D01*
X30758480Y-7330009D01*
X30906110Y-7522405D01*
X30906116Y-7522412D01*
X31077587Y-7693883D01*
X31077594Y-7693889D01*
X31269990Y-7841519D01*
X31480006Y-7962772D01*
X31480021Y-7962779D01*
X31704060Y-8055578D01*
X31938312Y-8118346D01*
X32050000Y-8133049D01*
X32050000Y-6654120D01*
X32095818Y-6673099D01*
X32231056Y-6700000D01*
X32368944Y-6700000D01*
X32504182Y-6673099D01*
X32550000Y-6654120D01*
X32550000Y-8133048D01*
X32661687Y-8118346D01*
X32895939Y-8055578D01*
X33119978Y-7962779D01*
X33119993Y-7962772D01*
X33330009Y-7841519D01*
X33522405Y-7693889D01*
X33522412Y-7693883D01*
X33693883Y-7522412D01*
X33693889Y-7522405D01*
X33841519Y-7330009D01*
X33962772Y-7119993D01*
X33962779Y-7119978D01*
X34055578Y-6895939D01*
X34118346Y-6661687D01*
X34149998Y-6421264D01*
X34150000Y-6421248D01*
X34150000Y-6250000D01*
X32954121Y-6250000D01*
X32973099Y-6204182D01*
X33000000Y-6068944D01*
X33000000Y-5931056D01*
X32973099Y-5795818D01*
X32954121Y-5750000D01*
X34150000Y-5750000D01*
X34150000Y-5578751D01*
X34650000Y-5578751D01*
X34650000Y-5750000D01*
X35845879Y-5750000D01*
X35826901Y-5795818D01*
X35800000Y-5931056D01*
X35800000Y-6068944D01*
X35826901Y-6204182D01*
X35845879Y-6250000D01*
X34650000Y-6250000D01*
X34650000Y-6421248D01*
X34650001Y-6421264D01*
X34681653Y-6661687D01*
X34744421Y-6895939D01*
X34837220Y-7119978D01*
X34837227Y-7119993D01*
X34958480Y-7330009D01*
X35106110Y-7522405D01*
X35106116Y-7522412D01*
X35277587Y-7693883D01*
X35277594Y-7693889D01*
X35469990Y-7841519D01*
X35680006Y-7962772D01*
X35680021Y-7962779D01*
X35904060Y-8055578D01*
X36138312Y-8118346D01*
X36250000Y-8133049D01*
X36250000Y-6654120D01*
X36295818Y-6673099D01*
X36431056Y-6700000D01*
X36568944Y-6700000D01*
X36704182Y-6673099D01*
X36750000Y-6654120D01*
X36750000Y-8133048D01*
X36861687Y-8118346D01*
X37095939Y-8055578D01*
X37319978Y-7962779D01*
X37319993Y-7962772D01*
X37530009Y-7841519D01*
X37722405Y-7693889D01*
X37722412Y-7693883D01*
X37893883Y-7522412D01*
X37893889Y-7522405D01*
X38041519Y-7330009D01*
X38162772Y-7119993D01*
X38162779Y-7119978D01*
X38255578Y-6895939D01*
X38318346Y-6661687D01*
X38349998Y-6421264D01*
X38350000Y-6421248D01*
X38350000Y-6250000D01*
X37154121Y-6250000D01*
X37173099Y-6204182D01*
X37200000Y-6068944D01*
X37200000Y-5931056D01*
X37173099Y-5795818D01*
X37154121Y-5750000D01*
X38350000Y-5750000D01*
X38350000Y-5578751D01*
X38850000Y-5578751D01*
X38850000Y-5750000D01*
X40045879Y-5750000D01*
X40026901Y-5795818D01*
X40000000Y-5931056D01*
X40000000Y-6068944D01*
X40026901Y-6204182D01*
X40045879Y-6250000D01*
X38850000Y-6250000D01*
X38850000Y-6421248D01*
X38850001Y-6421264D01*
X38881653Y-6661687D01*
X38944421Y-6895939D01*
X39037220Y-7119978D01*
X39037227Y-7119993D01*
X39158480Y-7330009D01*
X39306110Y-7522405D01*
X39306116Y-7522412D01*
X39477587Y-7693883D01*
X39477594Y-7693889D01*
X39669990Y-7841519D01*
X39880006Y-7962772D01*
X39880021Y-7962779D01*
X40104060Y-8055578D01*
X40338312Y-8118346D01*
X40450000Y-8133049D01*
X40450000Y-6654120D01*
X40495818Y-6673099D01*
X40631056Y-6700000D01*
X40768944Y-6700000D01*
X40904182Y-6673099D01*
X40950000Y-6654120D01*
X40950000Y-8133048D01*
X41061687Y-8118346D01*
X41295939Y-8055578D01*
X41519978Y-7962779D01*
X41519993Y-7962772D01*
X41730009Y-7841519D01*
X41922405Y-7693889D01*
X41922412Y-7693883D01*
X42093883Y-7522412D01*
X42093889Y-7522405D01*
X42241519Y-7330009D01*
X42362772Y-7119993D01*
X42362779Y-7119978D01*
X42455578Y-6895939D01*
X42518346Y-6661687D01*
X42549998Y-6421264D01*
X42550000Y-6421248D01*
X42550000Y-6250000D01*
X41354121Y-6250000D01*
X41373099Y-6204182D01*
X41400000Y-6068944D01*
X41400000Y-5931056D01*
X41373099Y-5795818D01*
X41354121Y-5750000D01*
X42550000Y-5750000D01*
X42550000Y-5578751D01*
X42549998Y-5578733D01*
X42548861Y-5570097D01*
X43249500Y-5570097D01*
X43249500Y-6429902D01*
X43290140Y-6686493D01*
X43370422Y-6933576D01*
X43451534Y-7092764D01*
X43488366Y-7165051D01*
X43641069Y-7375229D01*
X43824771Y-7558931D01*
X44034949Y-7711634D01*
X44182445Y-7786787D01*
X44266423Y-7829577D01*
X44266425Y-7829577D01*
X44266428Y-7829579D01*
X44513507Y-7909860D01*
X44645706Y-7930797D01*
X44770098Y-7950500D01*
X44770103Y-7950500D01*
X45029902Y-7950500D01*
X45143298Y-7932539D01*
X45286493Y-7909860D01*
X45533572Y-7829579D01*
X45765051Y-7711634D01*
X45975229Y-7558931D01*
X46158931Y-7375229D01*
X46311634Y-7165051D01*
X46429579Y-6933572D01*
X46493715Y-6736181D01*
X46533153Y-6678506D01*
X46597511Y-6651308D01*
X46611646Y-6650500D01*
X46865771Y-6650500D01*
X46950315Y-6633682D01*
X46991444Y-6625501D01*
X47109827Y-6576465D01*
X47109829Y-6576463D01*
X47113319Y-6575018D01*
X47182788Y-6567549D01*
X47245268Y-6598824D01*
X47280291Y-6657853D01*
X47280604Y-6657770D01*
X47280902Y-6658883D01*
X47280920Y-6658913D01*
X47280974Y-6659153D01*
X47344421Y-6895939D01*
X47437220Y-7119978D01*
X47437227Y-7119993D01*
X47558480Y-7330009D01*
X47706110Y-7522405D01*
X47706116Y-7522412D01*
X47877587Y-7693883D01*
X47877594Y-7693889D01*
X48069990Y-7841519D01*
X48280006Y-7962772D01*
X48280021Y-7962779D01*
X48504060Y-8055578D01*
X48738312Y-8118346D01*
X48850000Y-8133049D01*
X48850000Y-6654120D01*
X48895818Y-6673099D01*
X49031056Y-6700000D01*
X49168944Y-6700000D01*
X49304182Y-6673099D01*
X49350000Y-6654120D01*
X49350000Y-8133048D01*
X49461687Y-8118346D01*
X49695939Y-8055578D01*
X49919978Y-7962779D01*
X49919993Y-7962772D01*
X50130009Y-7841519D01*
X50322405Y-7693889D01*
X50322412Y-7693883D01*
X50493883Y-7522412D01*
X50493889Y-7522405D01*
X50641519Y-7330009D01*
X50762772Y-7119993D01*
X50762779Y-7119978D01*
X50855578Y-6895939D01*
X50918346Y-6661687D01*
X50949998Y-6421264D01*
X50950000Y-6421248D01*
X50950000Y-6250000D01*
X49754121Y-6250000D01*
X49773099Y-6204182D01*
X49800000Y-6068944D01*
X49800000Y-5931056D01*
X49773099Y-5795818D01*
X49754121Y-5750000D01*
X50950000Y-5750000D01*
X50950000Y-5578751D01*
X50949998Y-5578735D01*
X50918346Y-5338312D01*
X50855578Y-5104060D01*
X50762779Y-4880021D01*
X50762772Y-4880006D01*
X50641522Y-4669994D01*
X50596167Y-4610887D01*
X50570973Y-4545717D01*
X50585011Y-4477273D01*
X50633825Y-4427283D01*
X50694543Y-4411400D01*
X51955078Y-4411400D01*
X52022117Y-4431085D01*
X52067872Y-4483889D01*
X52077816Y-4553047D01*
X52048791Y-4616603D01*
X52042759Y-4623081D01*
X52041071Y-4624768D01*
X52041066Y-4624774D01*
X51888368Y-4834945D01*
X51770422Y-5066423D01*
X51690140Y-5313506D01*
X51649500Y-5570097D01*
X51649500Y-6429902D01*
X51690140Y-6686493D01*
X51770422Y-6933576D01*
X51851534Y-7092764D01*
X51888366Y-7165051D01*
X52041069Y-7375229D01*
X52224771Y-7558931D01*
X52434949Y-7711634D01*
X52582445Y-7786787D01*
X52666423Y-7829577D01*
X52666425Y-7829577D01*
X52666428Y-7829579D01*
X52913507Y-7909860D01*
X53045706Y-7930797D01*
X53170098Y-7950500D01*
X53170103Y-7950500D01*
X53429902Y-7950500D01*
X53543298Y-7932539D01*
X53686493Y-7909860D01*
X53933572Y-7829579D01*
X54165051Y-7711634D01*
X54375229Y-7558931D01*
X54558931Y-7375229D01*
X54711634Y-7165051D01*
X54829579Y-6933572D01*
X54909860Y-6686493D01*
X54932539Y-6543298D01*
X54950500Y-6429902D01*
X54950500Y-5570097D01*
X54923230Y-5397924D01*
X54909860Y-5313507D01*
X54829579Y-5066428D01*
X54829577Y-5066425D01*
X54829577Y-5066423D01*
X54734599Y-4880021D01*
X54711634Y-4834949D01*
X54558931Y-4624771D01*
X54557241Y-4623081D01*
X54556804Y-4622281D01*
X54555767Y-4621067D01*
X54556022Y-4620849D01*
X54523756Y-4561758D01*
X54528740Y-4492066D01*
X54570612Y-4436133D01*
X54636076Y-4411716D01*
X54644922Y-4411400D01*
X56155078Y-4411400D01*
X56222117Y-4431085D01*
X56267872Y-4483889D01*
X56277816Y-4553047D01*
X56248791Y-4616603D01*
X56242759Y-4623081D01*
X56241071Y-4624768D01*
X56241066Y-4624774D01*
X56088368Y-4834945D01*
X55970422Y-5066423D01*
X55890140Y-5313506D01*
X55849500Y-5570097D01*
X55849500Y-6429902D01*
X55890140Y-6686493D01*
X55970422Y-6933576D01*
X56051534Y-7092764D01*
X56088366Y-7165051D01*
X56241069Y-7375229D01*
X56424771Y-7558931D01*
X56634949Y-7711634D01*
X56782445Y-7786787D01*
X56866423Y-7829577D01*
X56866425Y-7829577D01*
X56866428Y-7829579D01*
X57113507Y-7909860D01*
X57245706Y-7930797D01*
X57370098Y-7950500D01*
X57370103Y-7950500D01*
X57629902Y-7950500D01*
X57743298Y-7932539D01*
X57886493Y-7909860D01*
X58133572Y-7829579D01*
X58365051Y-7711634D01*
X58575229Y-7558931D01*
X58758931Y-7375229D01*
X58911634Y-7165051D01*
X59029579Y-6933572D01*
X59109860Y-6686493D01*
X59132539Y-6543298D01*
X59150500Y-6429902D01*
X59150500Y-5570097D01*
X59123230Y-5397924D01*
X59109860Y-5313507D01*
X59029579Y-5066428D01*
X59029577Y-5066425D01*
X59029577Y-5066423D01*
X58934599Y-4880021D01*
X58911634Y-4834949D01*
X58758931Y-4624771D01*
X58757241Y-4623081D01*
X58756804Y-4622281D01*
X58755767Y-4621067D01*
X58756022Y-4620849D01*
X58723756Y-4561758D01*
X58728740Y-4492066D01*
X58770612Y-4436133D01*
X58836076Y-4411716D01*
X58844922Y-4411400D01*
X59940092Y-4411400D01*
X60007131Y-4431085D01*
X60027773Y-4447719D01*
X64293924Y-8713870D01*
X64327409Y-8775193D01*
X64322425Y-8844885D01*
X64320804Y-8849004D01*
X64291395Y-8920002D01*
X64230306Y-9147989D01*
X64199501Y-9381979D01*
X64199500Y-9381995D01*
X64199500Y-9618004D01*
X64199501Y-9618020D01*
X64224263Y-9806110D01*
X64230307Y-9852014D01*
X64285207Y-10056902D01*
X64291394Y-10079993D01*
X64381714Y-10298045D01*
X64381719Y-10298056D01*
X64442977Y-10404156D01*
X64499727Y-10502450D01*
X64499729Y-10502453D01*
X64499730Y-10502454D01*
X64643406Y-10689697D01*
X64643412Y-10689704D01*
X64810295Y-10856587D01*
X64810301Y-10856592D01*
X64997550Y-11000273D01*
X65111363Y-11065983D01*
X65201943Y-11118280D01*
X65201948Y-11118282D01*
X65201951Y-11118284D01*
X65420007Y-11208606D01*
X65647986Y-11269693D01*
X65881989Y-11300500D01*
X65881996Y-11300500D01*
X66118004Y-11300500D01*
X66118011Y-11300500D01*
X66352014Y-11269693D01*
X66579993Y-11208606D01*
X66798049Y-11118284D01*
X67002450Y-11000273D01*
X67189699Y-10856592D01*
X67356592Y-10689699D01*
X67500273Y-10502450D01*
X67618284Y-10298049D01*
X67708606Y-10079993D01*
X67769693Y-9852014D01*
X67800500Y-9618011D01*
X67800500Y-9381989D01*
X67769693Y-9147986D01*
X67708606Y-8920007D01*
X67618284Y-8701951D01*
X67618282Y-8701948D01*
X67618280Y-8701943D01*
X67563810Y-8607600D01*
X67500273Y-8497550D01*
X67356592Y-8310301D01*
X67356587Y-8310295D01*
X67189704Y-8143412D01*
X67189697Y-8143406D01*
X67002454Y-7999730D01*
X67002453Y-7999729D01*
X67002450Y-7999727D01*
X66917186Y-7950500D01*
X66798056Y-7881719D01*
X66798045Y-7881714D01*
X66579993Y-7791394D01*
X66352010Y-7730306D01*
X66118020Y-7699501D01*
X66118017Y-7699500D01*
X66118011Y-7699500D01*
X65881989Y-7699500D01*
X65881983Y-7699500D01*
X65881979Y-7699501D01*
X65647989Y-7730306D01*
X65420002Y-7791395D01*
X65349004Y-7820804D01*
X65279534Y-7828273D01*
X65217055Y-7796998D01*
X65213870Y-7793924D01*
X60930729Y-3510782D01*
X60847920Y-3427973D01*
X66399500Y-3427973D01*
X66399500Y-3672026D01*
X66436225Y-3903900D01*
X66437679Y-3913076D01*
X66513096Y-4145185D01*
X66595094Y-4306116D01*
X66623896Y-4362642D01*
X66767339Y-4560076D01*
X66767343Y-4560081D01*
X66939918Y-4732656D01*
X66939923Y-4732660D01*
X67080713Y-4834949D01*
X67137361Y-4876106D01*
X67354815Y-4986904D01*
X67586924Y-5062321D01*
X67827973Y-5100500D01*
X67827974Y-5100500D01*
X68072026Y-5100500D01*
X68072027Y-5100500D01*
X68313076Y-5062321D01*
X68545185Y-4986904D01*
X68762639Y-4876106D01*
X68960083Y-4732655D01*
X69132655Y-4560083D01*
X69276106Y-4362639D01*
X69386904Y-4145185D01*
X69462321Y-3913076D01*
X69500500Y-3672027D01*
X69500500Y-3427973D01*
X69491144Y-3368905D01*
X78200000Y-3368905D01*
X78200000Y-3631094D01*
X78234220Y-3891009D01*
X78234222Y-3891020D01*
X78302075Y-4144255D01*
X78402404Y-4386471D01*
X78402409Y-4386482D01*
X78533488Y-4613516D01*
X78533494Y-4613524D01*
X78620080Y-4726365D01*
X79598958Y-3747487D01*
X79623978Y-3807890D01*
X79695112Y-3914351D01*
X79785649Y-4004888D01*
X79892110Y-4076022D01*
X79952511Y-4101041D01*
X78973633Y-5079917D01*
X78973633Y-5079918D01*
X79086475Y-5166505D01*
X79086483Y-5166511D01*
X79313517Y-5297590D01*
X79313528Y-5297595D01*
X79555744Y-5397924D01*
X79808979Y-5465777D01*
X79808990Y-5465779D01*
X80068905Y-5499999D01*
X80068920Y-5500000D01*
X80331080Y-5500000D01*
X80331094Y-5499999D01*
X80591009Y-5465779D01*
X80591020Y-5465777D01*
X80844255Y-5397924D01*
X81086471Y-5297595D01*
X81086482Y-5297590D01*
X81313516Y-5166511D01*
X81313534Y-5166499D01*
X81426365Y-5079919D01*
X81426365Y-5079917D01*
X80447488Y-4101041D01*
X80507890Y-4076022D01*
X80614351Y-4004888D01*
X80704888Y-3914351D01*
X80776022Y-3807890D01*
X80801041Y-3747489D01*
X81779917Y-4726365D01*
X81779919Y-4726365D01*
X81866499Y-4613534D01*
X81866511Y-4613516D01*
X81997590Y-4386482D01*
X81997595Y-4386470D01*
X82000809Y-4378711D01*
X89649500Y-4378711D01*
X89649500Y-4621288D01*
X89677628Y-4834949D01*
X89681162Y-4861789D01*
X89684998Y-4876106D01*
X89743947Y-5096104D01*
X89773111Y-5166511D01*
X89836776Y-5320212D01*
X89958064Y-5530289D01*
X89958066Y-5530292D01*
X89958067Y-5530293D01*
X90105733Y-5722736D01*
X90105739Y-5722743D01*
X90277256Y-5894260D01*
X90277262Y-5894265D01*
X90469711Y-6041936D01*
X90679788Y-6163224D01*
X90903900Y-6256054D01*
X91138211Y-6318838D01*
X91318586Y-6342584D01*
X91378711Y-6350500D01*
X91378712Y-6350500D01*
X91621289Y-6350500D01*
X91669388Y-6344167D01*
X91861789Y-6318838D01*
X92096100Y-6256054D01*
X92320212Y-6163224D01*
X92530289Y-6041936D01*
X92722738Y-5894265D01*
X92894265Y-5722738D01*
X93041936Y-5530289D01*
X93163224Y-5320212D01*
X93256054Y-5096100D01*
X93318838Y-4861789D01*
X93350500Y-4621288D01*
X93350500Y-4378712D01*
X93318838Y-4138211D01*
X93256054Y-3903900D01*
X93163224Y-3679788D01*
X93041936Y-3469711D01*
X92894265Y-3277262D01*
X92894260Y-3277256D01*
X92722743Y-3105739D01*
X92722736Y-3105733D01*
X92530293Y-2958067D01*
X92530292Y-2958066D01*
X92530289Y-2958064D01*
X92320212Y-2836776D01*
X92320205Y-2836773D01*
X92096104Y-2743947D01*
X91861785Y-2681161D01*
X91621289Y-2649500D01*
X91621288Y-2649500D01*
X91378712Y-2649500D01*
X91378711Y-2649500D01*
X91138214Y-2681161D01*
X90903895Y-2743947D01*
X90679794Y-2836773D01*
X90679785Y-2836777D01*
X90497851Y-2941817D01*
X90475339Y-2954815D01*
X90469706Y-2958067D01*
X90277263Y-3105733D01*
X90277256Y-3105739D01*
X90105739Y-3277256D01*
X90105733Y-3277263D01*
X89958067Y-3469706D01*
X89836777Y-3679785D01*
X89836773Y-3679794D01*
X89743947Y-3903895D01*
X89681161Y-4138214D01*
X89649500Y-4378711D01*
X82000809Y-4378711D01*
X82022147Y-4327200D01*
X82022147Y-4327198D01*
X82097923Y-4144258D01*
X82165777Y-3891020D01*
X82165779Y-3891009D01*
X82199999Y-3631094D01*
X82200000Y-3631080D01*
X82200000Y-3368919D01*
X82199999Y-3368905D01*
X82165779Y-3108990D01*
X82165777Y-3108979D01*
X82097924Y-2855744D01*
X81997595Y-2613528D01*
X81997590Y-2613517D01*
X81866511Y-2386483D01*
X81866505Y-2386475D01*
X81779918Y-2273633D01*
X81779917Y-2273633D01*
X80801041Y-3252510D01*
X80776022Y-3192110D01*
X80704888Y-3085649D01*
X80614351Y-2995112D01*
X80507890Y-2923978D01*
X80447487Y-2898957D01*
X81426365Y-1920080D01*
X81313524Y-1833494D01*
X81313516Y-1833488D01*
X81086482Y-1702409D01*
X81086471Y-1702404D01*
X80844255Y-1602075D01*
X80591020Y-1534222D01*
X80591009Y-1534220D01*
X80331094Y-1500000D01*
X80068905Y-1500000D01*
X79808990Y-1534220D01*
X79808979Y-1534222D01*
X79555744Y-1602075D01*
X79313528Y-1702404D01*
X79313517Y-1702409D01*
X79086471Y-1833496D01*
X78973633Y-1920079D01*
X78973633Y-1920080D01*
X79952511Y-2898958D01*
X79892110Y-2923978D01*
X79785649Y-2995112D01*
X79695112Y-3085649D01*
X79623978Y-3192110D01*
X79598958Y-3252511D01*
X78620080Y-2273633D01*
X78620079Y-2273633D01*
X78533496Y-2386471D01*
X78402409Y-2613517D01*
X78402404Y-2613528D01*
X78302075Y-2855744D01*
X78234222Y-3108979D01*
X78234220Y-3108990D01*
X78200000Y-3368905D01*
X69491144Y-3368905D01*
X69462321Y-3186924D01*
X69386904Y-2954815D01*
X69276106Y-2737361D01*
X69257779Y-2712136D01*
X69132660Y-2539923D01*
X69132656Y-2539918D01*
X68960081Y-2367343D01*
X68960076Y-2367339D01*
X68762642Y-2223896D01*
X68762641Y-2223895D01*
X68762639Y-2223894D01*
X68545185Y-2113096D01*
X68313076Y-2037679D01*
X68313074Y-2037678D01*
X68313072Y-2037678D01*
X68144769Y-2011021D01*
X68072027Y-1999500D01*
X67827973Y-1999500D01*
X67772093Y-2008350D01*
X67586927Y-2037678D01*
X67354812Y-2113097D01*
X67137357Y-2223896D01*
X66939923Y-2367339D01*
X66939918Y-2367343D01*
X66767343Y-2539918D01*
X66767339Y-2539923D01*
X66623896Y-2737357D01*
X66513097Y-2954812D01*
X66437678Y-3186927D01*
X66399500Y-3427973D01*
X60847920Y-3427973D01*
X60675573Y-3255626D01*
X60675569Y-3255623D01*
X60569027Y-3184435D01*
X60450644Y-3135399D01*
X60450638Y-3135397D01*
X60324971Y-3110400D01*
X60324969Y-3110400D01*
X48251431Y-3110400D01*
X48251429Y-3110400D01*
X48125761Y-3135397D01*
X48125755Y-3135399D01*
X48007370Y-3184435D01*
X47900831Y-3255622D01*
X47900824Y-3255628D01*
X46418448Y-4738004D01*
X46357125Y-4771489D01*
X46287433Y-4766505D01*
X46231500Y-4724633D01*
X46230485Y-4723257D01*
X46158931Y-4624771D01*
X45975229Y-4441069D01*
X45889402Y-4378712D01*
X45765054Y-4288368D01*
X45765053Y-4288367D01*
X45765051Y-4288366D01*
X45692764Y-4251534D01*
X45533576Y-4170422D01*
X45286493Y-4090140D01*
X45029902Y-4049500D01*
X45029897Y-4049500D01*
X44770103Y-4049500D01*
X44770098Y-4049500D01*
X44513506Y-4090140D01*
X44266423Y-4170422D01*
X44034945Y-4288368D01*
X43824774Y-4441066D01*
X43824768Y-4441071D01*
X43641071Y-4624768D01*
X43641066Y-4624774D01*
X43488368Y-4834945D01*
X43370422Y-5066423D01*
X43290140Y-5313506D01*
X43249500Y-5570097D01*
X42548861Y-5570097D01*
X42518346Y-5338312D01*
X42455578Y-5104060D01*
X42362779Y-4880021D01*
X42362772Y-4880006D01*
X42241519Y-4669990D01*
X42093889Y-4477594D01*
X42093883Y-4477587D01*
X41922412Y-4306116D01*
X41922405Y-4306110D01*
X41730009Y-4158480D01*
X41519993Y-4037227D01*
X41519978Y-4037220D01*
X41295939Y-3944421D01*
X41061687Y-3881653D01*
X40950000Y-3866948D01*
X40950000Y-5345879D01*
X40904182Y-5326901D01*
X40768944Y-5300000D01*
X40631056Y-5300000D01*
X40495818Y-5326901D01*
X40450000Y-5345879D01*
X40450000Y-3866948D01*
X40338312Y-3881653D01*
X40104060Y-3944421D01*
X39880021Y-4037220D01*
X39880006Y-4037227D01*
X39669990Y-4158480D01*
X39477594Y-4306110D01*
X39477587Y-4306116D01*
X39306116Y-4477587D01*
X39306110Y-4477594D01*
X39158480Y-4669990D01*
X39037227Y-4880006D01*
X39037220Y-4880021D01*
X38944421Y-5104060D01*
X38881653Y-5338312D01*
X38850001Y-5578735D01*
X38850000Y-5578751D01*
X38350000Y-5578751D01*
X38349998Y-5578735D01*
X38318346Y-5338312D01*
X38255578Y-5104060D01*
X38162779Y-4880021D01*
X38162772Y-4880006D01*
X38041519Y-4669990D01*
X37893889Y-4477594D01*
X37893883Y-4477587D01*
X37722412Y-4306116D01*
X37722405Y-4306110D01*
X37530009Y-4158480D01*
X37319993Y-4037227D01*
X37319978Y-4037220D01*
X37095939Y-3944421D01*
X36861687Y-3881653D01*
X36750000Y-3866948D01*
X36750000Y-5345879D01*
X36704182Y-5326901D01*
X36568944Y-5300000D01*
X36431056Y-5300000D01*
X36295818Y-5326901D01*
X36250000Y-5345879D01*
X36250000Y-3866948D01*
X36249999Y-3866948D01*
X36138312Y-3881653D01*
X35904060Y-3944421D01*
X35680021Y-4037220D01*
X35680006Y-4037227D01*
X35469990Y-4158480D01*
X35277594Y-4306110D01*
X35277587Y-4306116D01*
X35106116Y-4477587D01*
X35106110Y-4477594D01*
X34958480Y-4669990D01*
X34837227Y-4880006D01*
X34837220Y-4880021D01*
X34744421Y-5104060D01*
X34681653Y-5338312D01*
X34650001Y-5578735D01*
X34650000Y-5578751D01*
X34150000Y-5578751D01*
X34149998Y-5578735D01*
X34118346Y-5338312D01*
X34055578Y-5104060D01*
X33962779Y-4880021D01*
X33962772Y-4880006D01*
X33841519Y-4669990D01*
X33693889Y-4477594D01*
X33693883Y-4477587D01*
X33522412Y-4306116D01*
X33522405Y-4306110D01*
X33330009Y-4158480D01*
X33119993Y-4037227D01*
X33119978Y-4037220D01*
X32895939Y-3944421D01*
X32661687Y-3881653D01*
X32550000Y-3866948D01*
X32550000Y-5345879D01*
X32504182Y-5326901D01*
X32368944Y-5300000D01*
X32231056Y-5300000D01*
X32095818Y-5326901D01*
X32050000Y-5345879D01*
X32050000Y-3866948D01*
X32049999Y-3866948D01*
X31938312Y-3881653D01*
X31704060Y-3944421D01*
X31480021Y-4037220D01*
X31480006Y-4037227D01*
X31269990Y-4158480D01*
X31077594Y-4306110D01*
X31077587Y-4306116D01*
X30906116Y-4477587D01*
X30906110Y-4477594D01*
X30758480Y-4669990D01*
X30637227Y-4880006D01*
X30637220Y-4880021D01*
X30544421Y-5104060D01*
X30481653Y-5338312D01*
X30450001Y-5578735D01*
X30450000Y-5578751D01*
X29750500Y-5578751D01*
X29750500Y-5570097D01*
X29723230Y-5397924D01*
X29709860Y-5313507D01*
X29629579Y-5066428D01*
X29629577Y-5066425D01*
X29629577Y-5066423D01*
X29534599Y-4880021D01*
X29511634Y-4834949D01*
X29358931Y-4624771D01*
X29175229Y-4441069D01*
X29089402Y-4378712D01*
X28965054Y-4288368D01*
X28965053Y-4288367D01*
X28965051Y-4288366D01*
X28892764Y-4251534D01*
X28733576Y-4170422D01*
X28486493Y-4090140D01*
X28229902Y-4049500D01*
X28229897Y-4049500D01*
X27970103Y-4049500D01*
X27970098Y-4049500D01*
X27713506Y-4090140D01*
X27466423Y-4170422D01*
X27234945Y-4288368D01*
X27024774Y-4441066D01*
X27024768Y-4441071D01*
X26841071Y-4624768D01*
X26841066Y-4624774D01*
X26688368Y-4834945D01*
X26570422Y-5066423D01*
X26490140Y-5313506D01*
X26449500Y-5570097D01*
X25550500Y-5570097D01*
X25523230Y-5397924D01*
X25509860Y-5313507D01*
X25429579Y-5066428D01*
X25429577Y-5066425D01*
X25429577Y-5066423D01*
X25334599Y-4880021D01*
X25311634Y-4834949D01*
X25158931Y-4624771D01*
X24975229Y-4441069D01*
X24889402Y-4378712D01*
X24765054Y-4288368D01*
X24765053Y-4288367D01*
X24765051Y-4288366D01*
X24692764Y-4251534D01*
X24533576Y-4170422D01*
X24286493Y-4090140D01*
X24029902Y-4049500D01*
X24029897Y-4049500D01*
X23770103Y-4049500D01*
X23770098Y-4049500D01*
X23513506Y-4090140D01*
X23266423Y-4170422D01*
X23034945Y-4288368D01*
X22824774Y-4441066D01*
X22824768Y-4441071D01*
X22641071Y-4624768D01*
X22641066Y-4624774D01*
X22488368Y-4834945D01*
X22370422Y-5066423D01*
X22290140Y-5313506D01*
X22249500Y-5570097D01*
X21350500Y-5570097D01*
X21323230Y-5397924D01*
X21309860Y-5313507D01*
X21229579Y-5066428D01*
X21229577Y-5066425D01*
X21229577Y-5066423D01*
X21134599Y-4880021D01*
X21111634Y-4834949D01*
X20958931Y-4624771D01*
X20775229Y-4441069D01*
X20689402Y-4378712D01*
X20565054Y-4288368D01*
X20565053Y-4288367D01*
X20565051Y-4288366D01*
X20492764Y-4251534D01*
X20333576Y-4170422D01*
X20086493Y-4090140D01*
X19829902Y-4049500D01*
X19829897Y-4049500D01*
X19570103Y-4049500D01*
X19570098Y-4049500D01*
X19313506Y-4090140D01*
X19066423Y-4170422D01*
X18834945Y-4288368D01*
X18624774Y-4441066D01*
X18624768Y-4441071D01*
X18441071Y-4624768D01*
X18441066Y-4624774D01*
X18288368Y-4834945D01*
X18170422Y-5066423D01*
X18090140Y-5313506D01*
X18049500Y-5570097D01*
X17150500Y-5570097D01*
X17123230Y-5397924D01*
X17109860Y-5313507D01*
X17029579Y-5066428D01*
X17029577Y-5066425D01*
X17029577Y-5066423D01*
X16934599Y-4880021D01*
X16911634Y-4834949D01*
X16758931Y-4624771D01*
X16575229Y-4441069D01*
X16489402Y-4378712D01*
X16365054Y-4288368D01*
X16365053Y-4288367D01*
X16365051Y-4288366D01*
X16292764Y-4251534D01*
X16133576Y-4170422D01*
X15886493Y-4090140D01*
X15629902Y-4049500D01*
X15629897Y-4049500D01*
X15370103Y-4049500D01*
X15370098Y-4049500D01*
X15113506Y-4090140D01*
X14866423Y-4170422D01*
X14634945Y-4288368D01*
X14424774Y-4441066D01*
X14424768Y-4441071D01*
X14241071Y-4624768D01*
X14241066Y-4624774D01*
X14088368Y-4834945D01*
X13970422Y-5066423D01*
X13890140Y-5313506D01*
X13849500Y-5570097D01*
X13148861Y-5570097D01*
X13118346Y-5338312D01*
X13055578Y-5104060D01*
X12962779Y-4880021D01*
X12962772Y-4880006D01*
X12841519Y-4669990D01*
X12693889Y-4477594D01*
X12693883Y-4477587D01*
X12522412Y-4306116D01*
X12522405Y-4306110D01*
X12330009Y-4158480D01*
X12119993Y-4037227D01*
X12119978Y-4037220D01*
X11895939Y-3944421D01*
X11661687Y-3881653D01*
X11550000Y-3866948D01*
X11550000Y-5345879D01*
X11504182Y-5326901D01*
X11368944Y-5300000D01*
X11231056Y-5300000D01*
X11095818Y-5326901D01*
X11050000Y-5345879D01*
X11050000Y-3866948D01*
X10938312Y-3881653D01*
X10704060Y-3944421D01*
X10480021Y-4037220D01*
X10480006Y-4037227D01*
X10269990Y-4158480D01*
X10077594Y-4306110D01*
X10077587Y-4306116D01*
X9906116Y-4477587D01*
X9906110Y-4477594D01*
X9758480Y-4669990D01*
X9637227Y-4880006D01*
X9637220Y-4880021D01*
X9544421Y-5104060D01*
X9481653Y-5338312D01*
X9450001Y-5578735D01*
X9450000Y-5578751D01*
X6004750Y-5578751D01*
X6041936Y-5530289D01*
X6163224Y-5320212D01*
X6256054Y-5096100D01*
X6318838Y-4861789D01*
X6350500Y-4621288D01*
X6350500Y-4378712D01*
X6318838Y-4138211D01*
X6256054Y-3903900D01*
X6163224Y-3679788D01*
X6041936Y-3469711D01*
X5894265Y-3277262D01*
X5894260Y-3277256D01*
X5722743Y-3105739D01*
X5722736Y-3105733D01*
X5530293Y-2958067D01*
X5530292Y-2958066D01*
X5530289Y-2958064D01*
X5320212Y-2836776D01*
X5320205Y-2836773D01*
X5096104Y-2743947D01*
X4861785Y-2681161D01*
X4621289Y-2649500D01*
X4621288Y-2649500D01*
X4378712Y-2649500D01*
X4378711Y-2649500D01*
X4138214Y-2681161D01*
X3903895Y-2743947D01*
X3679794Y-2836773D01*
X3679785Y-2836777D01*
X3497851Y-2941817D01*
X3475339Y-2954815D01*
X3469706Y-2958067D01*
X3277263Y-3105733D01*
X3277256Y-3105739D01*
X3105739Y-3277256D01*
X3105733Y-3277263D01*
X2958067Y-3469706D01*
X2836777Y-3679785D01*
X2836773Y-3679794D01*
X2743947Y-3903895D01*
X2681161Y-4138214D01*
X2649500Y-4378711D01*
X500000Y-4378711D01*
X500000Y-2017163D01*
X509439Y-1969711D01*
X529997Y-1920079D01*
X565172Y-1835158D01*
X571195Y-1822651D01*
X710902Y-1569869D01*
X718297Y-1558101D01*
X885428Y-1322551D01*
X894079Y-1311704D01*
X1086527Y-1096356D01*
X1096358Y-1086526D01*
X1311704Y-894079D01*
X1322551Y-885428D01*
X1558106Y-718293D01*
X1569869Y-710902D01*
X1822651Y-571195D01*
X1835158Y-565172D01*
X1910744Y-533863D01*
X1969712Y-509439D01*
X2017164Y-500000D01*
X93982836Y-500000D01*
X94030288Y-509439D01*
G37*
G04 #@! TD.AperFunction*
M02*
