G04 #@! TF.GenerationSoftware,KiCad,Pcbnew,10.0.5*
G04 #@! TF.CreationDate,2026-08-25T12:49:40+09:00*
G04 #@! TF.ProjectId,bc250-front-carrier,62633235-302d-4667-926f-6e742d636172,1.0*
G04 #@! TF.SameCoordinates,Original*
G04 #@! TF.FileFunction,Soldermask,Bot*
G04 #@! TF.FilePolarity,Negative*
%FSLAX46Y46*%
G04 Gerber Fmt 4.6, Leading zero omitted, Abs format (unit mm)*
G04 Created by KiCad (PCBNEW 10.0.5) date 2026-08-25 12:49:40*
%MOMM*%
%LPD*%
G01*
G04 APERTURE LIST*
G04 Aperture macros list*
%AMRoundRect*
0 Rectangle with rounded corners*
0 $1 Rounding radius*
0 $2 $3 $4 $5 $6 $7 $8 $9 X,Y pos of 4 corners*
0 Add a 4 corners polygon primitive as box body*
4,1,4,$2,$3,$4,$5,$6,$7,$8,$9,$2,$3,0*
0 Add four circle primitives for the rounded corners*
1,1,$1+$1,$2,$3*
1,1,$1+$1,$4,$5*
1,1,$1+$1,$6,$7*
1,1,$1+$1,$8,$9*
0 Add four rect primitives between the rounded corners*
20,1,$1+$1,$2,$3,$4,$5,0*
20,1,$1+$1,$4,$5,$6,$7,0*
20,1,$1+$1,$6,$7,$8,$9,0*
20,1,$1+$1,$8,$9,$2,$3,0*%
G04 Aperture macros list end*
%ADD10R,1.700000X1.700000*%
%ADD11O,1.700000X1.700000*%
%ADD12C,1.700000*%
%ADD13RoundRect,0.250000X-0.550000X-0.550000X0.550000X-0.550000X0.550000X0.550000X-0.550000X0.550000X0*%
%ADD14C,1.600000*%
%ADD15C,2.000000*%
%ADD16R,1.050000X1.500000*%
%ADD17O,1.050000X1.500000*%
%ADD18C,3.200000*%
%ADD19C,3.000000*%
%ADD20C,2.500000*%
%ADD21RoundRect,0.250001X1.099999X1.399999X-1.099999X1.399999X-1.099999X-1.399999X1.099999X-1.399999X0*%
%ADD22O,2.700000X3.300000*%
G04 APERTURE END LIST*
D10*
X62000000Y-18000000D03*
D11*
X59460000Y-18000000D03*
X56920000Y-18000000D03*
X54380000Y-18000000D03*
X51840000Y-18000000D03*
X49300000Y-18000000D03*
X46760000Y-18000000D03*
X44220000Y-18000000D03*
X41680000Y-18000000D03*
X39140000Y-18000000D03*
X36600000Y-18000000D03*
X34060000Y-18000000D03*
X31520000Y-18000000D03*
X28980000Y-18000000D03*
X26440000Y-18000000D03*
X23900000Y-18000000D03*
X21360000Y-18000000D03*
X18820000Y-18000000D03*
X16280000Y-18000000D03*
X13740000Y-18000000D03*
X11200000Y-18000000D03*
X8660000Y-18000000D03*
X8660000Y-40860000D03*
X11200000Y-40860000D03*
X13740000Y-40860000D03*
X16280000Y-40860000D03*
X18820000Y-40860000D03*
X21360000Y-40860000D03*
X23900000Y-40860000D03*
X26440000Y-40860000D03*
X28980000Y-40860000D03*
X31520000Y-40860000D03*
X34060000Y-40860000D03*
X36600000Y-40860000D03*
X39140000Y-40860000D03*
X41680000Y-40860000D03*
X44220000Y-40860000D03*
X46760000Y-40860000D03*
X49300000Y-40860000D03*
X51840000Y-40860000D03*
X54380000Y-40860000D03*
X56920000Y-40860000D03*
X59460000Y-40860000D03*
X62000000Y-40860000D03*
D10*
X82000000Y-54000000D03*
D12*
X84540000Y-54000000D03*
X87080000Y-54000000D03*
X89620000Y-54000000D03*
D13*
X76500000Y-21000000D03*
D14*
X84120000Y-21000000D03*
D15*
X25000000Y-49500000D03*
X31500000Y-49500000D03*
X25000000Y-54000000D03*
X31500000Y-54000000D03*
D10*
X64000000Y-54000000D03*
D12*
X66540000Y-54000000D03*
X69080000Y-54000000D03*
D16*
X69000000Y-20400000D03*
D17*
X70270000Y-20400000D03*
X71540000Y-20400000D03*
D10*
X55000000Y-54000000D03*
D12*
X57540000Y-54000000D03*
X60080000Y-54000000D03*
D18*
X91500000Y-4500000D03*
D14*
X66000000Y-25500000D03*
X73620000Y-25500000D03*
D15*
X35000000Y-49500000D03*
X41500000Y-49500000D03*
X35000000Y-54000000D03*
X41500000Y-54000000D03*
D14*
X66000000Y-35500000D03*
X73620000Y-35500000D03*
D18*
X91500000Y-59500000D03*
D13*
X79000000Y-27000000D03*
D14*
X81000000Y-27000000D03*
D19*
X66000000Y-9500000D03*
D20*
X67950000Y-15550000D03*
D19*
X80150000Y-15550000D03*
X80200000Y-3500000D03*
D20*
X67950000Y-3550000D03*
D21*
X57500000Y-11500000D03*
D22*
X53300000Y-11500000D03*
X49100000Y-11500000D03*
X44900000Y-11500000D03*
X40700000Y-11500000D03*
X36500000Y-11500000D03*
X32300000Y-11500000D03*
X28100000Y-11500000D03*
X23900000Y-11500000D03*
X19700000Y-11500000D03*
X15500000Y-11500000D03*
X11300000Y-11500000D03*
X57500000Y-6000000D03*
X53300000Y-6000000D03*
X49100000Y-6000000D03*
X44900000Y-6000000D03*
X40700000Y-6000000D03*
X36500000Y-6000000D03*
X32300000Y-6000000D03*
X28100000Y-6000000D03*
X23900000Y-6000000D03*
X19700000Y-6000000D03*
X15500000Y-6000000D03*
X11300000Y-6000000D03*
D14*
X66000000Y-30500000D03*
X73620000Y-30500000D03*
D18*
X4500000Y-59500000D03*
X4500000Y-4500000D03*
D10*
X73000000Y-54000000D03*
D12*
X75540000Y-54000000D03*
X78080000Y-54000000D03*
D14*
X66000000Y-40500000D03*
X73620000Y-40500000D03*
X66000000Y-45500000D03*
X73620000Y-45500000D03*
D10*
X92000000Y-19500000D03*
D12*
X92000000Y-22040000D03*
X92000000Y-24580000D03*
X92000000Y-27120000D03*
X92000000Y-29660000D03*
X92000000Y-32200000D03*
X92000000Y-34740000D03*
X92000000Y-37280000D03*
D15*
X45000000Y-49500000D03*
X51500000Y-49500000D03*
X45000000Y-54000000D03*
X51500000Y-54000000D03*
D10*
X9000000Y-54000000D03*
D12*
X11540000Y-54000000D03*
X14080000Y-54000000D03*
X16620000Y-54000000D03*
X19160000Y-54000000D03*
X21700000Y-54000000D03*
D10*
X92000000Y-41000000D03*
D12*
X92000000Y-43540000D03*
X92000000Y-46080000D03*
X92000000Y-48620000D03*
D14*
X78000000Y-34000000D03*
X80500000Y-34000000D03*
M02*
